<?xml version="1.0" encoding="utf-8"?>
<!-- Generator: Adobe Illustrator 16.0.3, SVG Export Plug-In . SVG Version: 6.00 Build 0)  -->
<!DOCTYPE svg PUBLIC "-//W3C//DTD SVG 1.1//EN" "http://www.w3.org/Graphics/SVG/1.1/DTD/svg11.dtd">
<svg version="1.1" id="Layer_1" xmlns="http://www.w3.org/2000/svg" xmlns:xlink="http://www.w3.org/1999/xlink" x="0px" y="0px"
	 width="257.25px" height="50px" viewBox="-55.684 49.231 257.25 50" enable-background="new -55.684 49.231 257.25 50"
	 xml:space="preserve">
<g>
	<path fill="#F3726A" d="M117.014,1754.814c-0.445,0-0.885-0.037-1.313-0.111l1.313,3.104l1.315-3.104
		C117.898,1754.777,117.459,1754.814,117.014,1754.814z"/>
	<path fill="#F3726A" d="M134.908,1758.674c-1.596,0-2.895,1.297-2.895,2.893c0,1.598,1.299,2.896,2.895,2.896
		s2.895-1.299,2.895-2.896C137.803,1759.971,136.504,1758.674,134.908,1758.674z M134.908,1762.531
		c-0.533,0-0.965-0.434-0.965-0.965c0-0.533,0.432-0.965,0.965-0.965s0.965,0.432,0.965,0.965
		C135.873,1762.099,135.441,1762.531,134.908,1762.531z"/>
	<path fill="#F3726A" d="M123.268,1725.057c-13.808,0-25,11.191-25,25c0,13.807,11.192,25,25,25c13.809,0,25-11.193,25-25
		C148.268,1736.248,137.074,1725.057,123.268,1725.057z M134.908,1766.392c-2.66,0-4.824-2.163-4.824-4.823
		c0-2.328,1.66-4.277,3.859-4.729v-2.282c0-1.985-1.615-3.601-3.604-3.601c-1.984,0-3.604,1.613-3.604,3.601v6.616
		c0,2.947-2.396,5.345-5.346,5.345c-2.947,0-5.346-2.396-5.346-5.345v-0.696l-2.813-6.642c-0.313-0.174-0.619-0.371-0.91-0.592
		c-1.362-1.025-2.329-2.438-2.799-4.076l-2.562-8.96c-0.362-1.274-0.112-2.61,0.685-3.666c0.797-1.058,2.014-1.663,3.336-1.663
		h0.562v-0.321c0-0.532,0.433-0.965,0.965-0.965c0.533,0,0.966,0.433,0.966,0.965v2.571c0,0.533-0.433,0.965-0.966,0.965
		c-0.532,0-0.965-0.432-0.965-0.965v-0.321h-0.562c-0.711,0-1.366,0.327-1.797,0.896c-0.43,0.566-0.563,1.29-0.367,1.975
		l2.562,8.961c0.716,2.5,3.029,4.246,5.632,4.246c2.6,0,4.916-1.746,5.631-4.246l2.562-8.962c0.194-0.685,0.062-1.405-0.368-1.974
		c-0.429-0.569-1.083-0.896-1.797-0.896h-0.561v0.321c0,0.533-0.434,0.965-0.965,0.965c-0.533,0-0.966-0.432-0.966-0.965v-2.571
		c0-0.532,0.433-0.965,0.966-0.965c0.531,0,0.965,0.433,0.965,0.965v0.321h0.561c1.322,0,2.54,0.605,3.337,1.663
		c0.798,1.056,1.046,2.392,0.685,3.666l-2.562,8.96c-0.47,1.641-1.438,3.051-2.799,4.076c-0.291,0.221-0.597,0.418-0.909,0.592
		l-2.813,6.642v0.696c0,1.884,1.531,3.416,3.416,3.416s3.418-1.532,3.418-3.416v-6.616c0-3.049,2.479-5.528,5.528-5.528
		c3.052,0,5.531,2.479,5.531,5.528v2.282c2.198,0.449,3.856,2.398,3.856,4.729C139.73,1764.229,137.566,1766.392,134.908,1766.392z"
		/>
</g>
<g>
	<path fill="#F3726A" d="M117.014,1754.814c-0.445,0-0.885-0.037-1.313-0.111l1.313,3.104l1.315-3.104
		C117.898,1754.777,117.459,1754.814,117.014,1754.814z"/>
	<path fill="#F3726A" d="M134.908,1758.674c-1.596,0-2.895,1.297-2.895,2.893c0,1.598,1.299,2.896,2.895,2.896
		s2.895-1.299,2.895-2.896C137.803,1759.971,136.504,1758.674,134.908,1758.674z M134.908,1762.531
		c-0.533,0-0.965-0.434-0.965-0.965c0-0.533,0.432-0.965,0.965-0.965s0.965,0.432,0.965,0.965
		C135.873,1762.099,135.441,1762.531,134.908,1762.531z"/>
	<path fill="#F3726A" d="M123.268,1725.057c-13.808,0-25,11.191-25,25c0,13.807,11.192,25,25,25c13.809,0,25-11.193,25-25
		C148.268,1736.248,137.074,1725.057,123.268,1725.057z M134.908,1766.392c-2.66,0-4.824-2.163-4.824-4.823
		c0-2.328,1.66-4.277,3.859-4.729v-2.282c0-1.985-1.615-3.601-3.604-3.601c-1.984,0-3.604,1.613-3.604,3.601v6.616
		c0,2.947-2.396,5.345-5.346,5.345c-2.947,0-5.346-2.396-5.346-5.345v-0.696l-2.813-6.642c-0.313-0.174-0.619-0.371-0.91-0.592
		c-1.362-1.025-2.329-2.438-2.799-4.076l-2.562-8.96c-0.362-1.274-0.112-2.61,0.685-3.666c0.797-1.058,2.014-1.663,3.336-1.663
		h0.562v-0.321c0-0.532,0.433-0.965,0.965-0.965c0.533,0,0.966,0.433,0.966,0.965v2.571c0,0.533-0.433,0.965-0.966,0.965
		c-0.532,0-0.965-0.432-0.965-0.965v-0.321h-0.562c-0.711,0-1.366,0.327-1.797,0.896c-0.43,0.566-0.563,1.29-0.367,1.975
		l2.562,8.961c0.716,2.5,3.029,4.246,5.632,4.246c2.6,0,4.916-1.746,5.631-4.246l2.562-8.962c0.194-0.685,0.062-1.405-0.368-1.974
		c-0.429-0.569-1.083-0.896-1.797-0.896h-0.561v0.321c0,0.533-0.434,0.965-0.965,0.965c-0.533,0-0.966-0.432-0.966-0.965v-2.571
		c0-0.532,0.433-0.965,0.966-0.965c0.531,0,0.965,0.433,0.965,0.965v0.321h0.561c1.322,0,2.54,0.605,3.337,1.663
		c0.798,1.056,1.046,2.392,0.685,3.666l-2.562,8.96c-0.47,1.641-1.438,3.051-2.799,4.076c-0.291,0.221-0.597,0.418-0.909,0.592
		l-2.813,6.642v0.696c0,1.884,1.531,3.416,3.416,3.416s3.418-1.532,3.418-3.416v-6.616c0-3.049,2.479-5.528,5.528-5.528
		c3.052,0,5.531,2.479,5.531,5.528v2.282c2.198,0.449,3.856,2.398,3.856,4.729C139.73,1764.229,137.566,1766.392,134.908,1766.392z"
		/>
</g>
<g>
	<g>
		<path fill="#F3726A" d="M201.564,91.366c0,4.345-3.519,7.865-7.863,7.865H-47.82c-4.343,0-7.864-3.521-7.864-7.865V57.092
			c0-4.343,3.521-7.86,7.864-7.86h241.521c4.345,0,7.865,3.518,7.865,7.86v34.274H201.564z"/>
	</g>
	<g>
		<g>
			<path fill="#FFFFFF" d="M-20.938,56.805v0.974c2.305,0.099,4.61,1.495,4.61,4.937c0,3.443-2.306,4.757-4.627,4.887v1.022h-1.364
				v-1.022c-2.29-0.146-4.611-1.365-4.611-4.822c0-3.589,2.533-4.871,4.644-5v-0.974h1.349V56.805z M-22.303,58.802
				c-1.43,0.081-3.166,1.072-3.166,3.913c0,2.613,1.558,3.719,3.166,3.881V58.802z M-20.955,66.596
				c1.576-0.13,3.166-1.185,3.166-3.896c0-2.809-1.59-3.814-3.166-3.896V66.596z"/>
			<path fill="#FFFFFF" d="M-13.902,60.329l1.721,4.644c0.179,0.52,0.374,1.136,0.504,1.607h0.032
				c0.146-0.471,0.309-1.072,0.504-1.639l1.558-4.611h1.51l-2.143,5.602c-1.024,2.695-1.721,4.076-2.696,4.919
				c-0.699,0.617-1.396,0.861-1.753,0.926l-0.358-1.202c0.358-0.114,0.829-0.341,1.251-0.698c0.39-0.309,0.876-0.86,1.201-1.591
				c0.064-0.146,0.113-0.26,0.113-0.34c0-0.082-0.032-0.195-0.097-0.374l-2.906-7.243H-13.902z"/>
			<path fill="#FFFFFF" d="M-5.39,60.329v3.165h3.733v-3.165h1.412v7.859h-1.412v-3.557H-5.39v3.555h-1.412v-7.859h1.412V60.329z"/>
			<path fill="#FFFFFF" d="M3.512,60.329v3.41h0.342l2.955-3.41h1.737L5.12,63.884c1.268,0.13,2.029,0.975,2.647,2.387
				c0.211,0.52,0.488,1.282,0.845,1.916H7.117c-0.211-0.341-0.487-0.958-0.731-1.608c-0.536-1.267-1.267-1.851-2.598-1.851H3.512
				v3.459H2.1v-7.859h1.412V60.329z"/>
			<path fill="#FFFFFF" d="M11.261,60.329v6.738h3.62v-6.738h1.412v6.787l0.812,0.016l-0.081,3.555h-1.105l-0.065-2.5H9.846v-7.859
				h1.415V60.329z"/>
			<path fill="#FFFFFF" d="M20.131,60.329v3.312c0,1.251-0.017,2.031-0.082,3.15l0.049,0.017c0.471-0.958,0.746-1.51,1.265-2.419
				l2.452-4.059h1.672v7.859h-1.364V64.86c0-1.284,0.032-1.948,0.098-3.215h-0.049c-0.503,1.007-0.845,1.639-1.298,2.435
				c-0.748,1.217-1.608,2.728-2.452,4.108h-1.639v-7.859H20.131z"/>
			<path fill="#FFFFFF" d="M34.926,64.193c0,2.905-2.013,4.172-3.913,4.172c-2.127,0-3.768-1.558-3.768-4.042
				c0-2.631,1.721-4.172,3.896-4.172C33.4,60.15,34.926,61.79,34.926,64.193z M28.69,64.274c0,1.721,0.991,3.02,2.387,3.02
				c1.363,0,2.386-1.282,2.386-3.052c0-1.331-0.664-3.019-2.354-3.019C29.421,61.223,28.69,62.781,28.69,64.274z"/>
			<path fill="#FFFFFF" d="M38.112,60.329v3.165h3.735v-3.165h1.414v7.859h-1.414v-3.557h-3.735v3.555h-1.412v-7.859h1.412V60.329z"
				/>
			<path fill="#FFFFFF" d="M49.955,68.188l-0.113-0.99h-0.05c-0.437,0.618-1.282,1.168-2.402,1.168c-1.59,0-2.401-1.121-2.401-2.257
				c0-1.899,1.687-2.938,4.724-2.922v-0.163c0-0.648-0.179-1.818-1.786-1.818c-0.729,0-1.494,0.228-2.045,0.585l-0.325-0.94
				c0.648-0.422,1.591-0.699,2.582-0.699c2.402,0,2.988,1.639,2.988,3.215v2.939c0,0.681,0.031,1.347,0.129,1.883L49.955,68.188
				L49.955,68.188z M49.745,64.177c-1.56-0.033-3.329,0.243-3.329,1.769c0,0.926,0.617,1.365,1.348,1.365
				c1.023,0,1.671-0.649,1.898-1.316c0.048-0.146,0.083-0.309,0.083-0.455V64.177z"/>
			<path fill="#FFFFFF" d="M59.424,60.329v7.859h-1.412V61.45h-2.696v2.044c0,2.208-0.209,3.687-1.232,4.351
				c-0.39,0.309-0.828,0.487-1.56,0.487l-0.145-1.121c0.276-0.049,0.585-0.163,0.78-0.324c0.729-0.536,0.813-1.64,0.813-3.395
				v-3.165h5.453V60.329z"/>
			<path fill="#FFFFFF" d="M63.146,60.329v2.663c0.325-0.065,0.876-0.081,1.298-0.081c1.771,0,3.639,0.552,3.639,2.646
				c0,0.812-0.325,1.38-0.828,1.801c-0.861,0.731-2.257,0.91-3.41,0.91c-0.796,0-1.525-0.049-2.111-0.114v-7.826H63.146z
				 M63.146,67.197c0.275,0.033,0.585,0.065,1.054,0.065c1.072,0,2.452-0.357,2.452-1.672c0-1.363-1.428-1.656-2.482-1.656
				c-0.374,0-0.699,0.033-1.023,0.082V67.197z"/>
			<path fill="#FFFFFF" d="M71.238,60.329v3.165h3.733v-3.165h1.412v7.859H74.97v-3.557h-3.733v3.555h-1.414v-7.859h1.415V60.329z"
				/>
			<path fill="#FFFFFF" d="M85.838,64.193c0,2.905-2.014,4.172-3.913,4.172c-2.129,0-3.768-1.558-3.768-4.042
				c0-2.631,1.72-4.172,3.897-4.172C84.31,60.15,85.838,61.79,85.838,64.193z M79.602,64.274c0,1.721,0.989,3.02,2.387,3.02
				c1.364,0,2.389-1.282,2.389-3.052c0-1.331-0.666-3.019-2.354-3.019C80.332,61.223,79.602,62.781,79.602,64.274z"/>
			<path fill="#FFFFFF" d="M88.441,64.518c0.032,1.931,1.267,2.727,2.695,2.727c1.024,0,1.64-0.178,2.175-0.406l0.244,1.023
				c-0.505,0.227-1.364,0.488-2.616,0.488c-2.418,0-3.862-1.592-3.862-3.963s1.396-4.237,3.686-4.237
				c2.565,0,3.247,2.257,3.247,3.701c0,0.292-0.035,0.52-0.051,0.667H88.441L88.441,64.518z M92.629,63.494
				c0.018-0.908-0.374-2.322-1.98-2.322c-1.444,0-2.078,1.331-2.191,2.322H92.629z"/>
			<path fill="#FFFFFF" d="M100.607,60.329v3.165h3.735v-3.165h1.414v7.859h-1.414v-3.557h-3.735v3.555h-1.412v-7.859h1.412V60.329z
				"/>
			<path fill="#FFFFFF" d="M112.448,68.188l-0.114-0.99h-0.048c-0.438,0.618-1.28,1.168-2.401,1.168
				c-1.592,0-2.403-1.121-2.403-2.257c0-1.899,1.689-2.938,4.725-2.922v-0.163c0-0.648-0.178-1.818-1.785-1.818
				c-0.732,0-1.493,0.228-2.046,0.585l-0.325-0.94c0.65-0.422,1.592-0.699,2.58-0.699c2.403,0,2.988,1.639,2.988,3.215v2.939
				c0,0.681,0.034,1.347,0.129,1.883L112.448,68.188L112.448,68.188z M112.236,64.177c-1.556-0.033-3.325,0.243-3.325,1.769
				c0,0.926,0.615,1.365,1.345,1.365c1.024,0,1.674-0.649,1.901-1.316c0.046-0.146,0.079-0.309,0.079-0.455V64.177z"/>
			<path fill="#FFFFFF" d="M115.926,62.895c0-1.007-0.033-1.818-0.065-2.565h1.282l0.066,1.347h0.031
				c0.584-0.958,1.51-1.526,2.792-1.526c1.901,0,3.329,1.607,3.329,3.993c0,2.826-1.72,4.222-3.572,4.222
				c-1.039,0-1.948-0.455-2.419-1.235h-0.032v4.271h-1.412V62.895z M117.338,64.988c0,0.212,0.032,0.407,0.064,0.585
				c0.261,0.991,1.12,1.671,2.145,1.671c1.509,0,2.388-1.233,2.388-3.036c0-1.574-0.829-2.923-2.341-2.923
				c-0.974,0-1.883,0.699-2.158,1.77c-0.05,0.179-0.098,0.39-0.098,0.585V64.988z"/>
			<path fill="#FFFFFF" d="M125.528,60.329l1.72,4.644c0.18,0.52,0.374,1.136,0.505,1.607h0.03c0.145-0.471,0.311-1.072,0.503-1.639
				l1.559-4.611h1.51l-2.145,5.602c-1.021,2.695-1.719,4.076-2.694,4.919c-0.698,0.617-1.396,0.861-1.753,0.926l-0.357-1.202
				c0.357-0.114,0.828-0.341,1.251-0.698c0.389-0.309,0.875-0.86,1.2-1.591c0.066-0.146,0.114-0.26,0.114-0.34
				c0-0.082-0.03-0.195-0.098-0.374l-2.905-7.241h1.561V60.329z"/>
			<path fill="#FFFFFF" d="M134.024,60.329v6.738h2.743v-6.738h1.396v6.738h2.74v-6.738h1.415v7.859h-9.693v-7.859H134.024z"/>
			<path fill="#FFFFFF" d="M145.443,64.518c0.03,1.931,1.268,2.727,2.692,2.727c1.025,0,1.64-0.178,2.177-0.406l0.243,1.023
				c-0.503,0.227-1.364,0.488-2.612,0.488c-2.42,0-3.866-1.592-3.866-3.963s1.396-4.237,3.688-4.237
				c2.566,0,3.246,2.257,3.246,3.701c0,0.292-0.031,0.52-0.047,0.667H145.443L145.443,64.518z M149.632,63.494
				c0.017-0.908-0.372-2.322-1.98-2.322c-1.442,0-2.079,1.331-2.192,2.322H149.632z"/>
			<path fill="#FFFFFF" d="M154.165,60.329v3.165h3.737v-3.165h1.412v7.859h-1.412v-3.557h-3.737v3.555h-1.412v-7.859h1.412V60.329z
				"/>
			<path fill="#FFFFFF" d="M162.97,60.329v3.312c0,1.251-0.017,2.031-0.08,3.15l0.048,0.017c0.471-0.958,0.748-1.51,1.267-2.419
				l2.452-4.059h1.673v7.859h-1.364V64.86c0-1.284,0.031-1.948,0.098-3.215h-0.051c-0.502,1.007-0.843,1.639-1.298,2.435
				c-0.745,1.217-1.607,2.728-2.451,4.108h-1.639v-7.859H162.97z"/>
			<path fill="#FFFFFF" d="M171.45,64.518c0.033,1.931,1.268,2.727,2.697,2.727c1.023,0,1.639-0.178,2.175-0.406l0.243,1.023
				c-0.505,0.227-1.364,0.488-2.615,0.488c-2.419,0-3.863-1.592-3.863-3.963s1.396-4.237,3.687-4.237
				c2.564,0,3.246,2.257,3.246,3.701c0,0.292-0.034,0.52-0.05,0.667H171.45L171.45,64.518z M175.643,63.494
				c0.016-0.908-0.376-2.322-1.981-2.322c-1.445,0-2.077,1.331-2.191,2.322H175.643z"/>
			<path fill="#FFFFFF" d="M-28.167,79.822l2.598,3.427h0.292v-3.427h1.363v3.427h0.276l2.598-3.427h1.639l-3.102,3.573
				c1.185,0.131,1.885,0.826,2.354,2.078c0.276,0.764,0.536,1.591,0.861,2.208h-1.428c-0.26-0.472-0.487-1.119-0.713-1.802
				c-0.487-1.282-1.218-1.671-2.24-1.671h-0.244v3.473h-1.364v-3.473h-0.26c-1.104,0-1.769,0.404-2.257,1.687
				c-0.26,0.683-0.471,1.301-0.747,1.786h-1.381c0.325-0.633,0.585-1.461,0.861-2.191c0.487-1.269,1.185-1.964,2.371-2.095
				l-3.118-3.573H-28.167z"/>
			<path fill="#FFFFFF" d="M-17.298,84.012c0.032,1.933,1.265,2.73,2.695,2.73c1.022,0,1.639-0.18,2.175-0.407l0.244,1.021
				c-0.504,0.229-1.363,0.488-2.614,0.488c-2.419,0-3.864-1.592-3.864-3.964c0-2.369,1.397-4.235,3.687-4.235
				c2.565,0,3.248,2.255,3.248,3.7c0,0.292-0.032,0.52-0.049,0.665L-17.298,84.012L-17.298,84.012z M-13.11,82.99
				c0.017-0.91-0.374-2.324-1.98-2.324c-1.444,0-2.078,1.332-2.192,2.324H-13.11z"/>
			<path fill="#FFFFFF" d="M-3.98,79.822v7.859h-1.412v-6.738h-2.696v2.047c0,2.208-0.211,3.686-1.235,4.351
				c-0.389,0.308-0.828,0.488-1.558,0.488l-0.146-1.121c0.276-0.05,0.585-0.163,0.78-0.324c0.731-0.535,0.812-1.641,0.812-3.394
				v-3.168H-3.98z"/>
			<path fill="#FFFFFF" d="M-1.183,79.822l1.721,4.645c0.179,0.52,0.374,1.137,0.504,1.608h0.032
				c0.146-0.472,0.309-1.07,0.504-1.639l1.558-4.611h1.51l-2.143,5.6c-1.024,2.696-1.72,4.076-2.695,4.92
				c-0.699,0.617-1.396,0.86-1.753,0.927l-0.358-1.203c0.358-0.114,0.829-0.341,1.251-0.698c0.389-0.31,0.876-0.862,1.2-1.591
				c0.065-0.146,0.114-0.26,0.114-0.342s-0.032-0.196-0.097-0.373l-2.906-7.242H-1.183z"/>
			<path fill="#FFFFFF" d="M11.711,79.822v6.787l0.813,0.019l-0.082,3.554h-1.121l-0.064-2.5H5.817l-0.065,2.5H4.631l-0.065-3.554
				l0.666-0.019c0.341-0.502,0.601-1.039,0.78-1.607c0.309-0.975,0.454-2.03,0.454-3.133v-2.047H11.711z M7.734,82.21
				c0,1.039-0.146,2.047-0.406,2.923c-0.163,0.535-0.39,1.023-0.634,1.461h3.622v-5.682H7.734V82.21z"/>
			<path fill="#FFFFFF" d="M21.28,83.688c0,2.905-2.013,4.172-3.912,4.172c-2.127,0-3.768-1.558-3.768-4.043
				c0-2.628,1.721-4.172,3.896-4.172C19.754,79.646,21.28,81.284,21.28,83.688z M15.044,83.768c0,1.721,0.991,3.021,2.387,3.021
				c1.363,0,2.387-1.283,2.387-3.053c0-1.33-0.667-3.02-2.354-3.02C15.775,80.716,15.044,82.274,15.044,83.768z"/>
			<path fill="#FFFFFF" d="M24.225,79.822v2.583c0,0.989,0.374,1.672,1.623,1.672c0.618,0,1.251-0.228,1.69-0.553v-3.702h1.412
				v7.859h-1.412v-3.15h-0.033c-0.536,0.359-1.381,0.602-2.126,0.602c-1.495,0-2.582-0.763-2.582-2.565v-2.745H24.225z"/>
			<path fill="#FFFFFF" d="M32.67,79.822v3.168h3.734v-3.168h1.414v7.859h-1.414v-3.556H32.67v3.556h-1.412v-7.859H32.67z"/>
			<path fill="#FFFFFF" d="M47.271,83.688c0,2.905-2.012,4.172-3.914,4.172c-2.125,0-3.766-1.558-3.766-4.043
				c0-2.628,1.721-4.172,3.896-4.172C45.747,79.646,47.271,81.284,47.271,83.688z M41.037,83.768c0,1.721,0.991,3.021,2.389,3.021
				c1.363,0,2.386-1.283,2.386-3.053c0-1.33-0.665-3.02-2.354-3.02S41.037,82.274,41.037,83.768z"/>
			<path fill="#FFFFFF" d="M52.391,82.763v1.055h-4.01v-1.055H52.391z"/>
			<path fill="#FFFFFF" d="M55.479,79.822v3.411h0.341l2.956-3.411h1.736l-3.425,3.557c1.267,0.131,2.029,0.975,2.647,2.388
				c0.21,0.52,0.486,1.282,0.843,1.915h-1.495c-0.21-0.341-0.486-0.958-0.729-1.608c-0.536-1.267-1.268-1.852-2.598-1.852h-0.276
				v3.46h-1.412v-7.859H55.479z"/>
			<path fill="#FFFFFF" d="M63.163,79.822v3.313c0,1.25-0.016,2.027-0.081,3.148l0.048,0.017c0.472-0.958,0.747-1.509,1.267-2.42
				l2.452-4.059h1.671v7.859h-1.363v-3.328c0-1.283,0.031-1.948,0.096-3.215h-0.049c-0.502,1.007-0.843,1.64-1.298,2.436
				c-0.748,1.218-1.608,2.729-2.452,4.107h-1.641v-7.859H63.163z"/>
			<path fill="#FFFFFF" d="M72.21,79.822v6.74h2.744v-6.74h1.396v6.74h2.744v-6.74h1.412v7.859h-9.693v-7.859H72.21z"/>
			<path fill="#FFFFFF" d="M83.63,84.012c0.033,1.933,1.269,2.73,2.697,2.73c1.023,0,1.64-0.18,2.175-0.407l0.244,1.021
				c-0.505,0.229-1.365,0.488-2.616,0.488c-2.419,0-3.862-1.592-3.862-3.964c0-2.369,1.396-4.235,3.686-4.235
				c2.564,0,3.247,2.255,3.247,3.7c0,0.292-0.035,0.52-0.051,0.665L83.63,84.012L83.63,84.012z M87.822,82.99
				c0.016-0.91-0.375-2.324-1.98-2.324c-1.446,0-2.078,1.332-2.191,2.324H87.822z"/>
			<path fill="#FFFFFF" d="M92.175,79.822v2.583c0,0.989,0.372,1.672,1.623,1.672c0.619,0,1.251-0.228,1.689-0.553v-3.702h1.412
				v7.859h-1.412v-3.15h-0.031c-0.534,0.359-1.381,0.602-2.128,0.602c-1.495,0-2.579-0.763-2.579-2.565v-2.745H92.175z"/>
			<path fill="#FFFFFF" d="M100.625,79.822v3.168h3.733v-3.168h1.414v7.859h-1.414v-3.556h-3.733v3.556h-1.412v-7.859H100.625z"/>
			<path fill="#FFFFFF" d="M115.225,83.688c0,2.905-2.012,4.172-3.914,4.172c-2.125,0-3.765-1.558-3.765-4.043
				c0-2.628,1.72-4.172,3.895-4.172C113.698,79.646,115.225,81.284,115.225,83.688z M108.988,83.768
				c0,1.721,0.991,3.021,2.389,3.021c1.364,0,2.387-1.283,2.387-3.053c0-1.33-0.664-3.02-2.354-3.02S108.988,82.274,108.988,83.768z
				"/>
			<path fill="#FFFFFF" d="M121.821,79.822v1.154h-3.412v6.705h-1.412v-7.859H121.821z"/>
			<path fill="#FFFFFF" d="M130.074,83.688c0,2.905-2.015,4.172-3.914,4.172c-2.127,0-3.767-1.558-3.767-4.043
				c0-2.628,1.72-4.172,3.897-4.172C128.546,79.646,130.074,81.284,130.074,83.688z M123.839,83.768
				c0,1.721,0.987,3.021,2.385,3.021c1.365,0,2.389-1.283,2.389-3.053c0-1.33-0.666-3.02-2.354-3.02
				C124.568,80.716,123.839,82.274,123.839,83.768z"/>
			<path fill="#FFFFFF" d="M140.63,79.822v1.139h-2.451v6.721h-1.412v-6.721h-2.451v-1.139H140.63z"/>
			<path fill="#FFFFFF" d="M141.887,82.389c0-1.006-0.03-1.818-0.067-2.566h1.285l0.063,1.349h0.031
				c0.585-0.957,1.51-1.525,2.795-1.525c1.898,0,3.326,1.607,3.326,3.992c0,2.826-1.72,4.222-3.571,4.222
				c-1.041,0-1.948-0.455-2.417-1.233h-0.034v4.27h-1.412L141.887,82.389L141.887,82.389z M143.299,84.484
				c0,0.21,0.033,0.406,0.066,0.584c0.258,0.99,1.121,1.674,2.142,1.674c1.51,0,2.389-1.235,2.389-3.038
				c0-1.573-0.827-2.922-2.339-2.922c-0.977,0-1.887,0.699-2.161,1.771c-0.047,0.178-0.097,0.39-0.097,0.585V84.484L143.299,84.484z
				"/>
			<path fill="#FFFFFF" d="M155.48,87.682l-0.114-0.99h-0.048c-0.438,0.619-1.28,1.169-2.401,1.169
				c-1.594,0-2.403-1.118-2.403-2.257c0-1.899,1.689-2.938,4.725-2.923V82.52c0-0.649-0.178-1.819-1.785-1.819
				c-0.732,0-1.493,0.228-2.046,0.584l-0.325-0.939c0.65-0.422,1.592-0.699,2.58-0.699c2.403,0,2.988,1.639,2.988,3.215v2.938
				c0,0.683,0.033,1.349,0.129,1.886h-1.299V87.682z M155.269,83.672c-1.556-0.031-3.326,0.243-3.326,1.77
				c0,0.925,0.616,1.364,1.346,1.364c1.023,0,1.673-0.648,1.899-1.315c0.048-0.145,0.081-0.309,0.081-0.455V83.672L155.269,83.672z"
				/>
			<path fill="#FFFFFF" d="M160.37,79.822v3.411h0.341l2.958-3.411h1.737l-3.427,3.557c1.268,0.131,2.03,0.975,2.646,2.388
				c0.212,0.52,0.485,1.282,0.844,1.915h-1.495c-0.208-0.341-0.485-0.958-0.73-1.608c-0.535-1.267-1.267-1.852-2.597-1.852h-0.277
				v3.46h-1.412v-7.859H160.37z"/>
			<path fill="#FFFFFF" d="M172.324,79.822v1.139h-2.451v6.721h-1.412v-6.721h-2.451v-1.139H172.324z"/>
			<path fill="#FFFFFF" d="M177.817,87.682l-0.114-0.99h-0.047c-0.439,0.619-1.281,1.169-2.402,1.169
				c-1.593,0-2.403-1.118-2.403-2.257c0-1.899,1.689-2.938,4.725-2.923V82.52c0-0.649-0.177-1.819-1.785-1.819
				c-0.732,0-1.493,0.228-2.046,0.584l-0.325-0.939c0.65-0.422,1.592-0.699,2.58-0.699c2.403,0,2.988,1.639,2.988,3.215v2.938
				c0,0.683,0.033,1.349,0.13,1.886h-1.3V87.682z M177.605,83.672c-1.556-0.031-3.326,0.243-3.326,1.77
				c0,0.925,0.616,1.364,1.346,1.364c1.023,0,1.673-0.648,1.9-1.315c0.047-0.145,0.08-0.309,0.08-0.455V83.672L177.605,83.672z"/>
		</g>
	</g>
</g>
</svg>
