<?xml version="1.0" encoding="utf-8"?>
<!-- Generator: Adobe Illustrator 16.0.3, SVG Export Plug-In . SVG Version: 6.00 Build 0)  -->
<!DOCTYPE svg PUBLIC "-//W3C//DTD SVG 1.1//EN" "http://www.w3.org/Graphics/SVG/1.1/DTD/svg11.dtd">
<svg version="1.1" id="Layer_1" xmlns="http://www.w3.org/2000/svg" xmlns:xlink="http://www.w3.org/1999/xlink" x="0px" y="0px"
	 width="257.251px" height="50px" viewBox="-62.659 51.291 257.251 50" enable-background="new -62.659 51.291 257.251 50"
	 xml:space="preserve">
<g>
	<path fill="#F3726A" d="M117.014,1754.814c-0.445,0-0.885-0.037-1.313-0.111l1.313,3.104l1.315-3.104
		C117.898,1754.777,117.459,1754.814,117.014,1754.814z"/>
	<path fill="#F3726A" d="M134.908,1758.674c-1.596,0-2.895,1.297-2.895,2.893c0,1.598,1.299,2.896,2.895,2.896
		s2.895-1.299,2.895-2.896C137.803,1759.971,136.504,1758.674,134.908,1758.674z M134.908,1762.531
		c-0.533,0-0.965-0.434-0.965-0.965c0-0.533,0.432-0.965,0.965-0.965s0.965,0.432,0.965,0.965
		C135.873,1762.099,135.441,1762.531,134.908,1762.531z"/>
	<path fill="#F3726A" d="M123.268,1725.057c-13.808,0-25,11.191-25,25c0,13.807,11.192,25,25,25c13.809,0,25-11.193,25-25
		C148.268,1736.248,137.074,1725.057,123.268,1725.057z M134.908,1766.392c-2.66,0-4.824-2.163-4.824-4.823
		c0-2.328,1.66-4.277,3.859-4.729v-2.282c0-1.985-1.615-3.601-3.604-3.601c-1.984,0-3.604,1.613-3.604,3.601v6.616
		c0,2.947-2.396,5.345-5.346,5.345c-2.947,0-5.346-2.396-5.346-5.345v-0.696l-2.813-6.642c-0.313-0.174-0.619-0.371-0.91-0.592
		c-1.362-1.025-2.329-2.438-2.799-4.076l-2.562-8.96c-0.362-1.274-0.112-2.61,0.685-3.666c0.797-1.058,2.014-1.663,3.336-1.663
		h0.562v-0.321c0-0.532,0.433-0.965,0.965-0.965c0.533,0,0.966,0.433,0.966,0.965v2.571c0,0.533-0.433,0.965-0.966,0.965
		c-0.532,0-0.965-0.432-0.965-0.965v-0.321h-0.562c-0.711,0-1.366,0.327-1.797,0.896c-0.43,0.566-0.563,1.29-0.367,1.975
		l2.562,8.961c0.716,2.5,3.029,4.246,5.632,4.246c2.6,0,4.916-1.746,5.631-4.246l2.562-8.962c0.194-0.685,0.062-1.405-0.368-1.974
		c-0.429-0.569-1.083-0.896-1.797-0.896h-0.561v0.321c0,0.533-0.434,0.965-0.965,0.965c-0.533,0-0.966-0.432-0.966-0.965v-2.571
		c0-0.532,0.433-0.965,0.966-0.965c0.531,0,0.965,0.433,0.965,0.965v0.321h0.561c1.322,0,2.54,0.605,3.337,1.663
		c0.798,1.056,1.046,2.392,0.685,3.666l-2.562,8.96c-0.47,1.641-1.438,3.051-2.799,4.076c-0.291,0.221-0.597,0.418-0.909,0.592
		l-2.813,6.642v0.696c0,1.884,1.531,3.416,3.416,3.416s3.418-1.532,3.418-3.416v-6.616c0-3.049,2.479-5.528,5.528-5.528
		c3.052,0,5.531,2.479,5.531,5.528v2.282c2.198,0.449,3.856,2.398,3.856,4.729C139.73,1764.229,137.566,1766.392,134.908,1766.392z"
		/>
</g>
<g>
	<path fill="#F3726A" d="M117.014,1754.814c-0.445,0-0.885-0.037-1.313-0.111l1.313,3.104l1.315-3.104
		C117.898,1754.777,117.459,1754.814,117.014,1754.814z"/>
	<path fill="#F3726A" d="M134.908,1758.674c-1.596,0-2.895,1.297-2.895,2.893c0,1.598,1.299,2.896,2.895,2.896
		s2.895-1.299,2.895-2.896C137.803,1759.971,136.504,1758.674,134.908,1758.674z M134.908,1762.531
		c-0.533,0-0.965-0.434-0.965-0.965c0-0.533,0.432-0.965,0.965-0.965s0.965,0.432,0.965,0.965
		C135.873,1762.099,135.441,1762.531,134.908,1762.531z"/>
	<path fill="#F3726A" d="M123.268,1725.057c-13.808,0-25,11.191-25,25c0,13.807,11.192,25,25,25c13.809,0,25-11.193,25-25
		C148.268,1736.248,137.074,1725.057,123.268,1725.057z M134.908,1766.392c-2.66,0-4.824-2.163-4.824-4.823
		c0-2.328,1.66-4.277,3.859-4.729v-2.282c0-1.985-1.615-3.601-3.604-3.601c-1.984,0-3.604,1.613-3.604,3.601v6.616
		c0,2.947-2.396,5.345-5.346,5.345c-2.947,0-5.346-2.396-5.346-5.345v-0.696l-2.813-6.642c-0.313-0.174-0.619-0.371-0.91-0.592
		c-1.362-1.025-2.329-2.438-2.799-4.076l-2.562-8.96c-0.362-1.274-0.112-2.61,0.685-3.666c0.797-1.058,2.014-1.663,3.336-1.663
		h0.562v-0.321c0-0.532,0.433-0.965,0.965-0.965c0.533,0,0.966,0.433,0.966,0.965v2.571c0,0.533-0.433,0.965-0.966,0.965
		c-0.532,0-0.965-0.432-0.965-0.965v-0.321h-0.562c-0.711,0-1.366,0.327-1.797,0.896c-0.43,0.566-0.563,1.29-0.367,1.975
		l2.562,8.961c0.716,2.5,3.029,4.246,5.632,4.246c2.6,0,4.916-1.746,5.631-4.246l2.562-8.962c0.194-0.685,0.062-1.405-0.368-1.974
		c-0.429-0.569-1.083-0.896-1.797-0.896h-0.561v0.321c0,0.533-0.434,0.965-0.965,0.965c-0.533,0-0.966-0.432-0.966-0.965v-2.571
		c0-0.532,0.433-0.965,0.966-0.965c0.531,0,0.965,0.433,0.965,0.965v0.321h0.561c1.322,0,2.54,0.605,3.337,1.663
		c0.798,1.056,1.046,2.392,0.685,3.666l-2.562,8.96c-0.47,1.641-1.438,3.051-2.799,4.076c-0.291,0.221-0.597,0.418-0.909,0.592
		l-2.813,6.642v0.696c0,1.884,1.531,3.416,3.416,3.416s3.418-1.532,3.418-3.416v-6.616c0-3.049,2.479-5.528,5.528-5.528
		c3.052,0,5.531,2.479,5.531,5.528v2.282c2.198,0.449,3.856,2.398,3.856,4.729C139.73,1764.229,137.566,1766.392,134.908,1766.392z"
		/>
</g>
<g>
	<g>
		<g>
			<path fill="#F3726A" d="M194.592,93.428c0,4.344-3.52,7.863-7.863,7.863H-54.796c-4.343,0-7.863-3.52-7.863-7.863V59.152
				c0-4.341,3.52-7.861,7.863-7.861h241.525c4.344,0,7.863,3.52,7.863,7.861V93.428z"/>
		</g>
		<g>
			<g>
				<path fill="#FFFFFF" d="M34.045,59.982v9.79l0.958,0.033l-0.098,3.751h-1.104l-0.097-2.63h-6.9l-0.098,2.63h-1.106l-0.097-3.751
					l0.828-0.033c0.406-0.748,0.813-1.542,1.072-2.403c0.374-1.267,0.52-2.728,0.52-4.611v-2.776H34.045L34.045,59.982z
					 M29.239,63.212c0,1.753-0.163,3.232-0.552,4.465c-0.226,0.763-0.567,1.494-0.894,2.078h4.838v-8.606h-3.392V63.212z"/>
				<path fill="#FFFFFF" d="M43.76,66.931c0,2.905-2.013,4.173-3.913,4.173c-2.126,0-3.767-1.558-3.767-4.042
					c0-2.631,1.721-4.172,3.896-4.172C42.234,62.889,43.76,64.528,43.76,66.931z M37.524,67.012c0,1.721,0.991,3.02,2.387,3.02
					c1.363,0,2.387-1.282,2.387-3.052c0-1.331-0.666-3.019-2.354-3.019C38.255,63.959,37.524,65.518,37.524,67.012z"/>
				<path fill="#FFFFFF" d="M52.029,63.066v7.859H50.6v-6.722h-3.653v6.722h-1.412v-7.859H52.029z"/>
				<path fill="#FFFFFF" d="M61.467,66.931c0,2.905-2.013,4.173-3.913,4.173c-2.126,0-3.767-1.558-3.767-4.042
					c0-2.631,1.721-4.172,3.896-4.172C59.942,62.889,61.467,64.528,61.467,66.931z M55.232,67.012c0,1.721,0.991,3.02,2.386,3.02
					c1.364,0,2.387-1.282,2.387-3.052c0-1.331-0.667-3.019-2.354-3.019C55.963,63.959,55.232,65.518,55.232,67.012z"/>
				<path fill="#FFFFFF" d="M69.232,63.066v7.859H67.82v-6.738h-2.695v2.045c0,2.208-0.211,3.687-1.235,4.351
					c-0.39,0.308-0.828,0.487-1.558,0.487l-0.146-1.121c0.276-0.049,0.585-0.163,0.78-0.325c0.731-0.536,0.813-1.639,0.813-3.394
					v-3.165H69.232z"/>
				<path fill="#FFFFFF" d="M72.956,63.066v3.165h3.734v-3.165h1.412v7.859h-1.412V67.37h-3.734v3.555h-1.412v-7.859H72.956z"/>
				<path fill="#FFFFFF" d="M81.76,63.066v3.311c0,1.251-0.016,2.031-0.081,3.15l0.05,0.017c0.471-0.958,0.745-1.51,1.266-2.419
					l2.452-4.059h1.671v7.859h-1.363v-3.328c0-1.284,0.033-1.948,0.097-3.215h-0.048c-0.503,1.007-0.845,1.64-1.298,2.436
					c-0.748,1.217-1.607,2.728-2.454,4.107h-1.639v-7.859H81.76z"/>
				<path fill="#FFFFFF" d="M94.706,63.066v1.136h-2.453v6.722h-1.411v-6.722h-2.455v-1.136H94.706z"/>
				<path fill="#FFFFFF" d="M96.543,67.256c0.032,1.931,1.267,2.727,2.694,2.727c1.023,0,1.64-0.178,2.177-0.406l0.243,1.023
					c-0.503,0.227-1.364,0.488-2.612,0.488c-2.42,0-3.866-1.593-3.866-3.963c0-2.371,1.396-4.237,3.687-4.237
					c2.565,0,3.247,2.257,3.247,3.701c0,0.292-0.032,0.52-0.048,0.667H96.543z M100.731,66.232c0.016-0.909-0.373-2.322-1.98-2.322
					c-1.443,0-2.078,1.331-2.191,2.322H100.731z"/>
				<path fill="#FFFFFF" d="M109.861,63.066v7.859h-1.411v-6.738h-2.697v2.045c0,2.208-0.208,3.687-1.232,4.351
					c-0.39,0.308-0.826,0.487-1.559,0.487l-0.145-1.121c0.275-0.049,0.585-0.163,0.78-0.325c0.729-0.536,0.812-1.639,0.812-3.394
					v-3.165H109.861z"/>
				<path fill="#FFFFFF" d="M113.585,63.066v2.663c0.325-0.065,0.878-0.081,1.298-0.081c1.773,0,3.64,0.552,3.64,2.646
					c0,0.813-0.325,1.381-0.826,1.802c-0.863,0.731-2.26,0.911-3.412,0.911c-0.798,0-1.527-0.049-2.111-0.114v-7.827H113.585z
					 M113.585,69.935c0.274,0.033,0.584,0.065,1.055,0.065c1.071,0,2.451-0.357,2.451-1.672c0-1.363-1.428-1.656-2.483-1.656
					c-0.371,0-0.697,0.032-1.022,0.082V69.935z"/>
				<path fill="#FFFFFF" d="M121.673,63.066v3.165h3.736v-3.165h1.412v7.859h-1.412V67.37h-3.736v3.555h-1.412v-7.859H121.673z"/>
				<path fill="#FFFFFF" d="M130.544,63.066v2.679c0.31-0.065,0.764-0.097,1.282-0.097c1.689,0,3.393,0.698,3.393,2.63
					c0,0.829-0.307,1.397-0.812,1.818c-0.859,0.731-2.126,0.911-3.165,0.911c-0.796,0-1.525-0.049-2.111-0.114v-7.827H130.544z
					 M130.544,69.935c0.275,0.033,0.584,0.065,0.991,0.065c1.087,0,2.271-0.455,2.271-1.672c0-1.267-1.137-1.656-2.208-1.656
					c-0.404,0-0.764,0.032-1.055,0.082V69.935z M137.622,63.066v7.859h-1.412v-7.859H137.622z"/>
				<path fill="#FFFFFF" d="M140.761,67.256c0.034,1.931,1.267,2.727,2.697,2.727c1.023,0,1.639-0.178,2.176-0.406l0.243,1.023
					c-0.505,0.227-1.364,0.488-2.615,0.488c-2.419,0-3.864-1.593-3.864-3.963c0-2.371,1.395-4.237,3.688-4.237
					c2.564,0,3.245,2.257,3.245,3.701c0,0.292-0.032,0.52-0.05,0.667H140.761z M144.951,66.232c0.017-0.909-0.374-2.322-1.979-2.322
					c-1.447,0-2.079,1.331-2.192,2.322H144.951z"/>
				<path fill="#FFFFFF" d="M-9.765,82.562v3.312c0,1.251-0.016,2.029-0.082,3.149l0.049,0.018c0.472-0.958,0.748-1.511,1.268-2.42
					l2.452-4.059h1.671v7.859H-5.77v-3.329c0-1.282,0.032-1.947,0.097-3.215h-0.048c-0.503,1.008-0.845,1.64-1.298,2.436
					c-0.748,1.217-1.608,2.729-2.452,4.108h-1.643v-7.859H-9.765z"/>
				<path fill="#FFFFFF" d="M3.521,90.128c-0.374,0.195-1.2,0.454-2.256,0.454c-2.371,0-3.914-1.607-3.914-4.011
					c0-2.419,1.657-4.173,4.222-4.173c0.845,0,1.591,0.212,1.98,0.407l-0.325,1.103c-0.341-0.195-0.876-0.372-1.656-0.372
					c-1.803,0-2.776,1.331-2.776,2.971c0,1.82,1.169,2.938,2.728,2.938c0.812,0,1.348-0.211,1.753-0.389L3.521,90.128z"/>
				<path fill="#FFFFFF" d="M10.702,90.128c-0.373,0.195-1.201,0.454-2.256,0.454c-2.371,0-3.914-1.607-3.914-4.011
					c0-2.419,1.657-4.173,4.223-4.173c0.845,0,1.59,0.212,1.98,0.407l-0.325,1.103c-0.342-0.195-0.876-0.372-1.656-0.372
					c-1.803,0-2.777,1.331-2.777,2.971c0,1.82,1.17,2.938,2.728,2.938c0.813,0,1.348-0.211,1.753-0.389L10.702,90.128z"/>
				<path fill="#FFFFFF" d="M18.612,82.562v7.859H17.2v-6.739h-2.695v2.046c0,2.208-0.211,3.687-1.235,4.353
					c-0.39,0.308-0.827,0.486-1.558,0.486l-0.146-1.121c0.275-0.048,0.584-0.161,0.779-0.322c0.731-0.537,0.813-1.643,0.813-3.396
					v-3.166H18.612z"/>
				<path fill="#FFFFFF" d="M21.751,86.751c0.033,1.933,1.266,2.729,2.695,2.729c1.022,0,1.639-0.18,2.175-0.407l0.244,1.023
					c-0.504,0.228-1.363,0.486-2.615,0.486c-2.418,0-3.864-1.592-3.864-3.962s1.397-4.237,3.687-4.237
					c2.566,0,3.248,2.257,3.248,3.702c0,0.292-0.033,0.52-0.049,0.663h-5.521V86.751z M25.94,85.728
					c0.017-0.909-0.374-2.322-1.98-2.322c-1.444,0-2.078,1.331-2.192,2.322H25.94z"/>
				<path fill="#FFFFFF" d="M35.231,82.562v6.786l0.812,0.019l-0.081,3.555h-1.121l-0.065-2.5h-5.438l-0.065,2.5h-1.121
					l-0.065-3.555l0.667-0.019c0.339-0.502,0.599-1.039,0.78-1.606c0.309-0.975,0.454-2.03,0.454-3.135v-2.045H35.231z
					 M31.254,84.948c0,1.04-0.147,2.048-0.407,2.924c-0.163,0.535-0.39,1.023-0.633,1.46h3.621v-5.683h-2.581V84.948z"/>
				<path fill="#FFFFFF" d="M44.8,86.426c0,2.904-2.013,4.173-3.913,4.173c-2.127,0-3.768-1.559-3.768-4.043
					c0-2.629,1.721-4.173,3.896-4.173C43.274,82.383,44.8,84.022,44.8,86.426z M38.564,86.507c0,1.72,0.991,3.021,2.387,3.021
					c1.363,0,2.387-1.283,2.387-3.054c0-1.33-0.667-3.02-2.354-3.02C39.295,83.454,38.564,85.012,38.564,86.507z"/>
				<path fill="#FFFFFF" d="M46.574,82.659c0.552-0.098,1.576-0.181,2.5-0.181c1.315,0,3.49,0.211,3.49,1.964
					c0,0.977-0.746,1.576-1.639,1.771v0.032c1.153,0.164,1.997,0.813,1.997,1.947c0,2.062-2.598,2.323-4.142,2.323
					c-0.875,0-1.785-0.065-2.208-0.098L46.574,82.659L46.574,82.659z M47.921,89.479c0.406,0.049,0.698,0.064,1.153,0.064
					c0.958,0,2.387-0.228,2.387-1.364s-1.136-1.382-2.5-1.382h-1.04V89.479z M47.938,85.857h1.072c1.056,0,2.143-0.31,2.143-1.234
					c0-0.779-0.682-1.153-2.112-1.153c-0.47,0-0.762,0.032-1.103,0.066V85.857z"/>
				<path fill="#FFFFFF" d="M59.081,90.421l-0.114-0.99h-0.049c-0.438,0.617-1.282,1.168-2.403,1.168
					c-1.591,0-2.403-1.119-2.403-2.256c0-1.899,1.688-2.94,4.725-2.923v-0.161c0-0.649-0.179-1.82-1.786-1.82
					c-0.731,0-1.494,0.227-2.045,0.585l-0.325-0.939c0.65-0.423,1.592-0.699,2.582-0.699c2.403,0,2.988,1.639,2.988,3.214v2.938
					c0,0.683,0.032,1.349,0.129,1.884H59.081L59.081,90.421z M58.87,86.41c-1.559-0.032-3.329,0.243-3.329,1.771
					c0,0.925,0.618,1.364,1.349,1.364c1.022,0,1.672-0.649,1.899-1.315c0.049-0.146,0.082-0.31,0.082-0.455V86.41z"/>
				<path fill="#FFFFFF" d="M63.939,82.562v3.166h3.733v-3.166h1.412v7.859h-1.412v-3.556h-3.733v3.556h-1.413v-7.859H63.939z"/>
				<path fill="#FFFFFF" d="M72.745,82.562v3.312c0,1.251-0.017,2.029-0.082,3.149l0.049,0.018c0.471-0.958,0.747-1.511,1.268-2.42
					l2.451-4.059h1.672v7.859h-1.363v-3.329c0-1.282,0.032-1.947,0.098-3.215h-0.049c-0.504,1.008-0.845,1.64-1.298,2.436
					c-0.747,1.217-1.608,2.729-2.452,4.108h-1.64v-7.859H72.745z"/>
				<path fill="#FFFFFF" d="M86.227,90.421h-1.412v-3.297h-1.058c-0.6,0-1.005,0.162-1.314,0.438
					c-0.584,0.472-0.796,1.445-1.105,2.209c-0.095,0.243-0.209,0.455-0.322,0.648h-1.527c0.18-0.258,0.342-0.553,0.488-0.892
					c0.341-0.764,0.535-1.786,1.232-2.372c0.243-0.21,0.536-0.389,0.894-0.454v-0.048c-1.023-0.113-2.078-0.748-2.078-1.949
					c0-0.812,0.438-1.364,1.04-1.705c0.649-0.373,1.609-0.537,2.63-0.537c0.941,0,1.851,0.084,2.533,0.164V90.421z M84.814,83.503
					c-0.36-0.049-0.684-0.081-1.188-0.081c-0.973,0-2.126,0.275-2.126,1.362c0,1.007,1.251,1.365,2.095,1.365
					c0.585,0,0.894,0,1.219,0V83.503z"/>
				<path fill="#FFFFFF" d="M93.376,82.562v3.166h3.733v-3.166h1.414v7.859h-1.414v-3.556h-3.733v3.556h-1.412v-7.859H93.376z"/>
				<path fill="#FFFFFF" d="M101.66,86.751c0.034,1.933,1.266,2.729,2.696,2.729c1.023,0,1.64-0.18,2.177-0.407l0.243,1.023
					c-0.505,0.228-1.364,0.486-2.615,0.486c-2.42,0-3.864-1.592-3.864-3.962s1.395-4.237,3.686-4.237
					c2.566,0,3.246,2.257,3.246,3.702c0,0.292-0.033,0.52-0.049,0.663h-5.52V86.751z M105.851,85.728
					c0.016-0.909-0.375-2.322-1.98-2.322c-1.446,0-2.078,1.331-2.191,2.322H105.851z"/>
				<path fill="#FFFFFF" d="M117.757,82.562V83.7h-2.451v6.721h-1.412V83.7h-2.453v-1.139H117.757z"/>
				<path fill="#FFFFFF" d="M119.011,85.125c0-1.005-0.032-1.816-0.066-2.564h1.283l0.065,1.347h0.03
					c0.584-0.957,1.509-1.525,2.793-1.525c1.898,0,3.327,1.608,3.327,3.994c0,2.825-1.719,4.22-3.572,4.22
					c-1.039,0-1.946-0.455-2.417-1.232h-0.034v4.271h-1.412v-8.509H119.011z M120.422,87.222c0,0.209,0.033,0.406,0.066,0.584
					c0.259,0.989,1.121,1.673,2.142,1.673c1.51,0,2.388-1.234,2.388-3.037c0-1.574-0.827-2.923-2.337-2.923
					c-0.976,0-1.887,0.699-2.16,1.771c-0.048,0.18-0.099,0.392-0.099,0.586V87.222z"/>
				<path fill="#FFFFFF" d="M129.05,86.751c0.03,1.933,1.267,2.729,2.694,2.729c1.023,0,1.64-0.18,2.175-0.407l0.243,1.023
					c-0.501,0.228-1.364,0.486-2.612,0.486c-2.419,0-3.864-1.592-3.864-3.962s1.395-4.237,3.686-4.237
					c2.565,0,3.247,2.257,3.247,3.702c0,0.292-0.031,0.52-0.047,0.663h-5.521V86.751z M133.238,85.728
					c0.016-0.909-0.373-2.322-1.98-2.322c-1.443,0-2.078,1.331-2.192,2.322H133.238z"/>
				<path fill="#FFFFFF" d="M142.416,79.898c-0.407,0.145-1.121,0.276-1.64,0.358c-1.267,0.194-2.191,0.616-2.792,1.479
					c-0.505,0.713-0.796,1.769-0.862,2.597h0.051c0.502-1.138,1.604-1.771,2.726-1.771c1.934,0,3.345,1.382,3.345,3.88
					c0,2.567-1.33,4.157-3.636,4.157c-2.76,0-3.67-2.647-3.67-5.262c0-1.785,0.373-3.246,1.216-4.352
					c0.763-1.088,1.851-1.592,3.379-1.85c0.633-0.098,1.412-0.228,1.947-0.424L142.416,79.898z M139.607,83.616
					c-0.846,0-1.446,0.438-1.771,1.072c-0.259,0.471-0.389,1.039-0.389,1.671c0,1.299,0.633,3.168,2.192,3.168
					c1.574,0,2.16-1.528,2.16-2.972C141.8,85.273,141.295,83.616,139.607,83.616z"/>
				<path fill="#FFFFFF" d="M145.409,82.562l1.72,4.645c0.178,0.519,0.372,1.137,0.503,1.607h0.032
					c0.146-0.471,0.309-1.071,0.503-1.64l1.558-4.611h1.51l-2.142,5.604c-1.023,2.694-1.722,4.075-2.694,4.918
					c-0.698,0.618-1.399,0.861-1.756,0.927l-0.357-1.202c0.357-0.113,0.828-0.341,1.251-0.698c0.392-0.309,0.878-0.861,1.203-1.592
					c0.063-0.146,0.113-0.259,0.113-0.341s-0.034-0.195-0.098-0.373l-2.904-7.242L145.409,82.562L145.409,82.562z"/>
				<path fill="#FFFFFF" d="M153.904,82.562v3.312h1.346c0.246-2.078,1.608-3.49,3.493-3.49c2.044,0,3.442,1.624,3.442,4.043
					c0,2.549-1.56,4.173-3.54,4.173c-1.883,0-3.263-1.396-3.427-3.639h-1.314v3.459h-1.396v-7.858L153.904,82.562L153.904,82.562z
					 M160.756,86.458c0-1.478-0.667-3.004-2.063-3.004c-1.381,0-2.11,1.494-2.11,3.086c0,1.525,0.698,3.003,2.078,3.003
					C160.107,89.543,160.756,87.951,160.756,86.458z"/>
				<path fill="#FFFFFF" d="M169.172,82.562V83.7h-2.451v6.721h-1.412V83.7h-2.452v-1.139H169.172z"/>
				<path fill="#FFFFFF" d="M175.819,90.128c-0.376,0.195-1.203,0.454-2.259,0.454c-2.371,0-3.914-1.607-3.914-4.011
					c0-2.419,1.656-4.173,4.223-4.173c0.843,0,1.59,0.212,1.98,0.407l-0.324,1.103c-0.341-0.195-0.878-0.372-1.656-0.372
					c-1.804,0-2.776,1.331-2.776,2.971c0,1.82,1.167,2.938,2.726,2.938c0.813,0,1.349-0.211,1.755-0.389L175.819,90.128z"/>
				<path fill="#FFFFFF" d="M183.37,90.421h-1.411v-3.297h-1.056c-0.6,0-1.007,0.162-1.316,0.438
					c-0.586,0.472-0.796,1.445-1.103,2.209c-0.098,0.243-0.212,0.455-0.325,0.648h-1.526c0.178-0.258,0.342-0.553,0.487-0.892
					c0.341-0.764,0.535-1.786,1.234-2.372c0.243-0.21,0.534-0.389,0.892-0.454v-0.048c-1.021-0.113-2.079-0.748-2.079-1.949
					c0-0.812,0.439-1.364,1.039-1.705c0.651-0.373,1.608-0.537,2.632-0.537c0.94,0,1.851,0.084,2.532,0.164V90.421L183.37,90.421z
					 M181.959,83.503c-0.358-0.049-0.683-0.081-1.185-0.081c-0.978,0-2.129,0.275-2.129,1.362c0,1.007,1.251,1.365,2.094,1.365
					c0.585,0,0.894,0,1.22,0V83.503L181.959,83.503z"/>
			</g>
		</g>
	</g>
	<g>
		<path fill="#263238" d="M-37.398,60.5c0.715,0,1.431,0,2.146,0c0.032,0.063,0.093,0.056,0.147,0.058
			c0.173,0.011,0.348,0.008,0.52,0.028c0.237,0.027,0.474,0.067,0.709,0.103c0.202,0.029,0.402,0.063,0.604,0.095
			c0.1,0.019,0.2,0.031,0.3,0.058c0.226,0.053,0.451,0.111,0.677,0.169c0.196,0.05,0.393,0.095,0.586,0.15
			c0.183,0.05,0.363,0.114,0.544,0.175c0.144,0.047,0.29,0.089,0.43,0.147c0.428,0.177,0.858,0.344,1.279,0.539
			c0.488,0.228,0.964,0.479,1.43,0.751c0.403,0.238,0.79,0.502,1.173,0.769c0.502,0.349,0.977,0.735,1.43,1.142
			c0.386,0.344,0.749,0.717,1.106,1.093c0.571,0.6,1.075,1.254,1.539,1.938c0.188,0.28,0.372,0.561,0.539,0.854
			c0.229,0.399,0.455,0.804,0.655,1.221c0.173,0.357,0.347,0.719,0.473,1.098c0.085,0.264,0.205,0.514,0.292,0.774
			c0.116,0.347,0.218,0.699,0.322,1.046c0.031,0.108,0.052,0.217,0.074,0.325c0.028,0.13,0.049,0.259,0.077,0.388
			c0.033,0.146,0.078,0.292,0.104,0.439c0.046,0.243,0.088,0.488,0.119,0.735c0.034,0.272,0.052,0.547,0.082,0.822
			c0.012,0.114,0.035,0.228,0.053,0.344c0,0.725,0,1.449,0,2.175c-0.014,0.042-0.034,0.086-0.039,0.131
			c-0.025,0.275-0.02,0.549-0.077,0.818c-0.042,0.202-0.054,0.414-0.079,0.621c-0.001,0.011-0.004,0.021-0.006,0.028
			c-0.034,0.164-0.069,0.328-0.102,0.491c-0.028,0.144-0.05,0.289-0.079,0.432c-0.019,0.098-0.042,0.198-0.067,0.293
			c-0.036,0.144-0.079,0.283-0.118,0.426c-0.047,0.164-0.084,0.336-0.141,0.497c-0.136,0.387-0.287,0.763-0.42,1.147
			c-0.119,0.352-0.276,0.686-0.438,1.013c-0.176,0.368-0.361,0.725-0.556,1.076c-0.367,0.661-0.792,1.283-1.251,1.883
			c-0.436,0.571-0.907,1.108-1.415,1.613c-0.422,0.418-0.859,0.814-1.325,1.185c-0.394,0.314-0.798,0.61-1.214,0.894
			c-0.408,0.277-0.831,0.528-1.269,0.762c-0.311,0.161-0.625,0.322-0.942,0.476c-0.193,0.096-0.393,0.182-0.593,0.257
			c-0.312,0.121-0.626,0.232-0.941,0.346c-0.226,0.08-0.451,0.164-0.682,0.23c-0.276,0.078-0.558,0.139-0.838,0.206
			c-0.104,0.023-0.207,0.051-0.31,0.074c-0.178,0.04-0.357,0.081-0.537,0.111c-0.185,0.034-0.372,0.058-0.559,0.087
			c-0.312,0.045-0.622,0.105-0.938,0.111c-0.151,0-0.309-0.008-0.451,0.061c-0.633,0-1.267,0-1.9,0
			c-0.147-0.071-0.31-0.05-0.466-0.063c-0.269-0.023-0.536-0.053-0.805-0.079c-0.015,0-0.028-0.01-0.045-0.012
			c-0.2-0.031-0.402-0.063-0.603-0.1c-0.264-0.05-0.528-0.105-0.792-0.158c-0.095-0.021-0.19-0.04-0.282-0.063
			c-0.185-0.054-0.367-0.108-0.551-0.162c-0.237-0.068-0.477-0.127-0.708-0.206c-0.267-0.092-0.529-0.2-0.791-0.31
			c-0.367-0.15-0.738-0.29-1.094-0.466c-0.555-0.274-1.098-0.571-1.62-0.904c-0.591-0.377-1.157-0.788-1.7-1.231
			c-0.619-0.51-1.192-1.068-1.729-1.661c-0.42-0.465-0.808-0.949-1.171-1.46c-0.367-0.516-0.708-1.043-1.009-1.599
			c-0.193-0.359-0.381-0.718-0.554-1.087c-0.149-0.318-0.273-0.648-0.403-0.978c-0.081-0.201-0.159-0.402-0.23-0.605
			c-0.057-0.17-0.106-0.339-0.156-0.508c-0.044-0.151-0.086-0.305-0.128-0.455c-0.058-0.214-0.121-0.429-0.172-0.646
			c-0.034-0.143-0.053-0.288-0.079-0.434c-0.022-0.129-0.042-0.259-0.065-0.389c-0.034-0.185-0.084-0.364-0.105-0.553
			c-0.035-0.296-0.055-0.596-0.079-0.896c-0.004-0.056-0.005-0.114-0.021-0.167c-0.008-0.027-0.041-0.053-0.063-0.076
			c0-0.728,0-1.452,0-2.177c0.076-0.026,0.074-0.094,0.078-0.151c0.009-0.117,0.008-0.236,0.015-0.352
			c0.003-0.072,0.008-0.143,0.019-0.211c0.032-0.233,0.067-0.463,0.102-0.696c0.027-0.174,0.052-0.352,0.08-0.526
			c0.019-0.113,0.041-0.227,0.066-0.341c0.032-0.138,0.071-0.275,0.105-0.413c0.051-0.206,0.095-0.416,0.154-0.619
			c0.072-0.247,0.154-0.491,0.234-0.738c0.068-0.207,0.13-0.413,0.209-0.613c0.116-0.3,0.239-0.6,0.374-0.891
			c0.167-0.365,0.338-0.732,0.531-1.084c0.184-0.341,0.399-0.666,0.594-1.002c0.234-0.399,0.507-0.774,0.788-1.142
			c0.5-0.661,1.049-1.276,1.646-1.854c0.347-0.336,0.702-0.663,1.08-0.965c0.349-0.272,0.705-0.536,1.069-0.791
			c0.317-0.222,0.642-0.436,0.978-0.629c0.456-0.267,0.918-0.527,1.407-0.732c0.329-0.138,0.652-0.285,0.982-0.421
			c0.215-0.089,0.436-0.164,0.655-0.244c0.137-0.047,0.275-0.1,0.415-0.141c0.267-0.074,0.536-0.141,0.802-0.208
			c0.093-0.024,0.188-0.042,0.282-0.067c0.138-0.034,0.274-0.08,0.413-0.105c0.305-0.053,0.614-0.098,0.919-0.151
			c0.357-0.061,0.715-0.111,1.078-0.116c0.045-0.003,0.092-0.003,0.136-0.011C-37.454,60.545-37.427,60.52-37.398,60.5z
			 M-25.544,86.441c0.108-0.14,0.197-0.267,0.299-0.386c0.471-0.547,0.879-1.143,1.259-1.756c0.156-0.251,0.292-0.518,0.433-0.78
			c0.095-0.177,0.183-0.356,0.269-0.542c0.1-0.21,0.202-0.423,0.29-0.64c0.102-0.254,0.189-0.513,0.283-0.77
			c0.056-0.151,0.112-0.304,0.166-0.457c0.049-0.142,0.094-0.286,0.133-0.433c0.032-0.128,0.05-0.256,0.077-0.383
			c0.023-0.111,0.049-0.22,0.075-0.325c0.039-0.175,0.085-0.344,0.118-0.519c0.042-0.225,0.076-0.452,0.107-0.68
			c0.032-0.244,0.065-0.485,0.085-0.729c0.023-0.286,0.038-0.571,0.042-0.856c0.005-0.358,0.013-0.715-0.01-1.071
			c-0.023-0.355-0.024-0.714-0.095-1.065c-0.021-0.104-0.028-0.212-0.047-0.317c-0.049-0.275-0.097-0.553-0.149-0.824
			c-0.018-0.095-0.043-0.188-0.063-0.284c-0.027-0.129-0.042-0.258-0.076-0.385c-0.049-0.181-0.112-0.355-0.168-0.532
			c-0.071-0.232-0.127-0.471-0.215-0.696c-0.154-0.394-0.329-0.779-0.49-1.168c-0.193-0.466-0.444-0.902-0.7-1.335
			c-0.196-0.336-0.413-0.656-0.636-0.974c-0.283-0.408-0.587-0.793-0.913-1.166c-0.59-0.677-1.237-1.29-1.944-1.845
			c-0.452-0.354-0.921-0.682-1.411-0.984c-0.545-0.333-1.112-0.629-1.7-0.885c-0.285-0.124-0.579-0.23-0.87-0.344
			c-0.126-0.047-0.256-0.086-0.384-0.13c-0.26-0.083-0.52-0.169-0.783-0.244c-0.199-0.058-0.405-0.097-0.608-0.142
			c-0.263-0.061-0.522-0.125-0.788-0.169c-0.29-0.049-0.582-0.089-0.875-0.119c-0.299-0.031-0.598-0.044-0.899-0.066
			c-0.665-0.047-1.326,0.058-1.988,0.061c-0.171,0.002-0.343,0.039-0.513,0.063c-0.01,0.002-0.021,0.006-0.03,0.006
			c-0.215,0.036-0.43,0.071-0.645,0.108c-0.145,0.024-0.29,0.047-0.433,0.08c-0.163,0.037-0.325,0.078-0.486,0.122
			c-0.264,0.075-0.527,0.148-0.789,0.228c-0.164,0.048-0.325,0.103-0.487,0.156c-0.142,0.047-0.287,0.092-0.426,0.147
			c-0.177,0.072-0.349,0.156-0.526,0.233c-0.204,0.087-0.418,0.158-0.611,0.267c-0.49,0.275-1,0.518-1.465,0.841
			c-0.273,0.188-0.551,0.372-0.817,0.571c-0.252,0.186-0.492,0.386-0.735,0.58c-0.112,0.089-0.107,0.119-0.008,0.213
			c0.211,0.211,0.422,0.421,0.632,0.633c1.228,1.234,2.456,2.469,3.683,3.706c1.184,1.193,2.365,2.386,3.547,3.581
			c1.381,1.394,2.76,2.787,4.141,4.18c0.891,0.901,1.783,1.798,2.674,2.7c1.786,1.806,3.571,3.608,5.357,5.415
			C-25.625,86.365-25.585,86.402-25.544,86.441z M-26.828,87.883c-0.026-0.053-0.053-0.082-0.05-0.105
			c0.014-0.094-0.042-0.145-0.101-0.205c-0.482-0.48-0.958-0.96-1.438-1.439c-0.188-0.192-0.376-0.379-0.566-0.566
			c-0.034-0.031-0.08-0.075-0.122-0.08c-0.069-0.003-0.111-0.036-0.155-0.084c-0.369-0.371-0.742-0.745-1.112-1.118
			c-0.206-0.205-0.412-0.412-0.616-0.617c-0.028-0.029-0.071-0.09-0.067-0.093c0.07-0.068-0.016-0.094-0.039-0.119
			c-0.336-0.341-0.677-0.674-1.014-1.013c-0.765-0.763-1.53-1.528-2.294-2.291c-0.768-0.767-1.536-1.537-2.303-2.306
			c-0.9-0.901-1.792-1.806-2.698-2.7c-0.411-0.405-0.819-0.815-1.241-1.209c-0.475-0.444-0.928-0.92-1.371-1.396
			c-0.553-0.594-1.144-1.153-1.718-1.729c-1.09-1.093-2.18-2.187-3.271-3.279c-0.032-0.031-0.065-0.066-0.101-0.095
			c-0.049-0.045-0.094-0.045-0.138,0.017c-0.049,0.066-0.105,0.132-0.159,0.2c-0.183,0.23-0.375,0.45-0.544,0.69
			c-0.358,0.507-0.717,1.021-1.004,1.576c-0.112,0.219-0.237,0.436-0.344,0.658c-0.127,0.261-0.245,0.529-0.359,0.796
			c-0.08,0.19-0.148,0.386-0.219,0.582c-0.078,0.214-0.151,0.428-0.225,0.643c-0.051,0.153-0.1,0.307-0.141,0.463
			c-0.032,0.129-0.049,0.258-0.076,0.388c-0.021,0.103-0.051,0.203-0.077,0.307c-0.034,0.138-0.076,0.275-0.1,0.413
			c-0.043,0.252-0.083,0.505-0.115,0.757c-0.032,0.243-0.062,0.487-0.082,0.73c-0.023,0.291-0.035,0.582-0.049,0.872
			c-0.007,0.133-0.021,0.265-0.014,0.397c0.02,0.46,0.047,0.917,0.073,1.374c0.001,0.032,0.008,0.065,0.012,0.093
			c0.035,0.246,0.067,0.495,0.106,0.743c0.017,0.108,0.042,0.22,0.062,0.33c0.047,0.25,0.09,0.498,0.141,0.746
			c0.021,0.098,0.049,0.197,0.078,0.291c0.03,0.108,0.064,0.211,0.096,0.319c0.049,0.17,0.088,0.342,0.146,0.508
			c0.095,0.272,0.198,0.542,0.308,0.811c0.13,0.318,0.249,0.648,0.405,0.953c0.235,0.464,0.483,0.919,0.753,1.36
			c0.24,0.391,0.505,0.766,0.779,1.135c0.346,0.468,0.733,0.904,1.138,1.323c0.536,0.549,1.11,1.059,1.732,1.511
			c0.284,0.209,0.576,0.406,0.869,0.601c0.49,0.324,1.009,0.604,1.54,0.856c0.323,0.152,0.654,0.294,0.987,0.425
			c0.256,0.103,0.52,0.188,0.783,0.274c0.169,0.056,0.34,0.101,0.512,0.148c0.297,0.082,0.594,0.164,0.895,0.238
			c0.151,0.034,0.31,0.05,0.464,0.076c0.141,0.022,0.28,0.048,0.421,0.07c0.23,0.035,0.459,0.079,0.692,0.104
			c0.227,0.025,0.456,0.045,0.685,0.05c0.409,0.008,0.818,0.006,1.226-0.002c0.275-0.006,0.55-0.021,0.825-0.041
			c0.212-0.021,0.424-0.051,0.636-0.078c0.114-0.016,0.229-0.033,0.345-0.053c0.161-0.024,0.324-0.039,0.48-0.074
			c0.222-0.051,0.442-0.111,0.663-0.167c0.235-0.061,0.473-0.121,0.707-0.188c0.165-0.048,0.328-0.098,0.49-0.153
			c0.152-0.053,0.303-0.105,0.452-0.164c0.173-0.066,0.346-0.135,0.516-0.209c0.261-0.111,0.53-0.205,0.777-0.344
			c0.479-0.263,0.97-0.508,1.426-0.814c0.438-0.299,0.877-0.592,1.278-0.936C-27.138,87.938-27.019,87.846-26.828,87.883z"/>
	</g>
</g>
</svg>
