<?xml version="1.0" encoding="utf-8"?>
<!-- Generator: Adobe Illustrator 16.0.3, SVG Export Plug-In . SVG Version: 6.00 Build 0)  -->
<!DOCTYPE svg PUBLIC "-//W3C//DTD SVG 1.1//EN" "http://www.w3.org/Graphics/SVG/1.1/DTD/svg11.dtd">
<svg version="1.1" id="Layer_1" xmlns="http://www.w3.org/2000/svg" xmlns:xlink="http://www.w3.org/1999/xlink" x="0px" y="0px"
	 width="257.25px" height="50px" viewBox="-53.625 42.375 257.25 50" enable-background="new -53.625 42.375 257.25 50"
	 xml:space="preserve">
<g>
	<path fill="#F3726A" d="M117.014,1754.814c-0.445,0-0.885-0.037-1.313-0.111l1.313,3.104l1.315-3.104
		C117.898,1754.777,117.459,1754.814,117.014,1754.814z"/>
	<path fill="#F3726A" d="M134.908,1758.674c-1.596,0-2.895,1.297-2.895,2.893c0,1.598,1.299,2.896,2.895,2.896
		s2.895-1.299,2.895-2.896C137.803,1759.971,136.504,1758.674,134.908,1758.674z M134.908,1762.531
		c-0.533,0-0.965-0.434-0.965-0.965c0-0.533,0.432-0.965,0.965-0.965s0.965,0.432,0.965,0.965
		C135.873,1762.099,135.441,1762.531,134.908,1762.531z"/>
	<path fill="#F3726A" d="M123.268,1725.057c-13.808,0-25,11.191-25,25c0,13.807,11.192,25,25,25c13.809,0,25-11.193,25-25
		C148.268,1736.248,137.074,1725.057,123.268,1725.057z M134.908,1766.392c-2.66,0-4.824-2.163-4.824-4.823
		c0-2.328,1.66-4.277,3.859-4.729v-2.282c0-1.985-1.615-3.601-3.604-3.601c-1.984,0-3.604,1.613-3.604,3.601v6.616
		c0,2.947-2.396,5.345-5.346,5.345c-2.947,0-5.346-2.396-5.346-5.345v-0.696l-2.813-6.642c-0.313-0.174-0.619-0.371-0.91-0.592
		c-1.362-1.025-2.329-2.438-2.799-4.076l-2.562-8.96c-0.362-1.274-0.112-2.61,0.685-3.666c0.797-1.058,2.014-1.663,3.336-1.663
		h0.562v-0.321c0-0.532,0.433-0.965,0.965-0.965c0.533,0,0.966,0.433,0.966,0.965v2.571c0,0.533-0.433,0.965-0.966,0.965
		c-0.532,0-0.965-0.432-0.965-0.965v-0.321h-0.562c-0.711,0-1.366,0.327-1.797,0.896c-0.43,0.566-0.563,1.29-0.367,1.975
		l2.562,8.961c0.716,2.5,3.029,4.246,5.632,4.246c2.6,0,4.916-1.746,5.631-4.246l2.562-8.962c0.194-0.685,0.062-1.405-0.368-1.974
		c-0.429-0.569-1.083-0.896-1.797-0.896h-0.561v0.321c0,0.533-0.434,0.965-0.965,0.965c-0.533,0-0.966-0.432-0.966-0.965v-2.571
		c0-0.532,0.433-0.965,0.966-0.965c0.531,0,0.965,0.433,0.965,0.965v0.321h0.561c1.322,0,2.54,0.605,3.337,1.663
		c0.798,1.056,1.046,2.392,0.685,3.666l-2.562,8.96c-0.47,1.641-1.438,3.051-2.799,4.076c-0.291,0.221-0.597,0.418-0.909,0.592
		l-2.813,6.642v0.696c0,1.884,1.531,3.416,3.416,3.416s3.418-1.532,3.418-3.416v-6.616c0-3.049,2.479-5.528,5.528-5.528
		c3.052,0,5.531,2.479,5.531,5.528v2.282c2.198,0.449,3.856,2.398,3.856,4.729C139.73,1764.229,137.566,1766.392,134.908,1766.392z"
		/>
</g>
<g>
	<path fill="#F3726A" d="M117.014,1754.814c-0.445,0-0.885-0.037-1.313-0.111l1.313,3.104l1.315-3.104
		C117.898,1754.777,117.459,1754.814,117.014,1754.814z"/>
	<path fill="#F3726A" d="M134.908,1758.674c-1.596,0-2.895,1.297-2.895,2.893c0,1.598,1.299,2.896,2.895,2.896
		s2.895-1.299,2.895-2.896C137.803,1759.971,136.504,1758.674,134.908,1758.674z M134.908,1762.531
		c-0.533,0-0.965-0.434-0.965-0.965c0-0.533,0.432-0.965,0.965-0.965s0.965,0.432,0.965,0.965
		C135.873,1762.099,135.441,1762.531,134.908,1762.531z"/>
	<path fill="#F3726A" d="M123.268,1725.057c-13.808,0-25,11.191-25,25c0,13.807,11.192,25,25,25c13.809,0,25-11.193,25-25
		C148.268,1736.248,137.074,1725.057,123.268,1725.057z M134.908,1766.392c-2.66,0-4.824-2.163-4.824-4.823
		c0-2.328,1.66-4.277,3.859-4.729v-2.282c0-1.985-1.615-3.601-3.604-3.601c-1.984,0-3.604,1.613-3.604,3.601v6.616
		c0,2.947-2.396,5.345-5.346,5.345c-2.947,0-5.346-2.396-5.346-5.345v-0.696l-2.813-6.642c-0.313-0.174-0.619-0.371-0.91-0.592
		c-1.362-1.025-2.329-2.438-2.799-4.076l-2.562-8.96c-0.362-1.274-0.112-2.61,0.685-3.666c0.797-1.058,2.014-1.663,3.336-1.663
		h0.562v-0.321c0-0.532,0.433-0.965,0.965-0.965c0.533,0,0.966,0.433,0.966,0.965v2.571c0,0.533-0.433,0.965-0.966,0.965
		c-0.532,0-0.965-0.432-0.965-0.965v-0.321h-0.562c-0.711,0-1.366,0.327-1.797,0.896c-0.43,0.566-0.563,1.29-0.367,1.975
		l2.562,8.961c0.716,2.5,3.029,4.246,5.632,4.246c2.6,0,4.916-1.746,5.631-4.246l2.562-8.962c0.194-0.685,0.062-1.405-0.368-1.974
		c-0.429-0.569-1.083-0.896-1.797-0.896h-0.561v0.321c0,0.533-0.434,0.965-0.965,0.965c-0.533,0-0.966-0.432-0.966-0.965v-2.571
		c0-0.532,0.433-0.965,0.966-0.965c0.531,0,0.965,0.433,0.965,0.965v0.321h0.561c1.322,0,2.54,0.605,3.337,1.663
		c0.798,1.056,1.046,2.392,0.685,3.666l-2.562,8.96c-0.47,1.641-1.438,3.051-2.799,4.076c-0.291,0.221-0.597,0.418-0.909,0.592
		l-2.813,6.642v0.696c0,1.884,1.531,3.416,3.416,3.416s3.418-1.532,3.418-3.416v-6.616c0-3.049,2.479-5.528,5.528-5.528
		c3.052,0,5.531,2.479,5.531,5.528v2.282c2.198,0.449,3.856,2.398,3.856,4.729C139.73,1764.229,137.566,1766.392,134.908,1766.392z"
		/>
</g>
<g>
	<g>
		<g>
			<path fill="#F3726A" d="M203.625,84.512c0,4.344-3.52,7.863-7.863,7.863H-45.763c-4.343,0-7.863-3.52-7.863-7.863V50.236
				c0-4.343,3.52-7.861,7.863-7.861h241.524c4.344,0,7.863,3.518,7.863,7.861V84.512L203.625,84.512z"/>
		</g>
		<g>
			<g>
				<path fill="#FFFFFF" d="M20.906,68.158c0,3.767-2.289,5.764-5.082,5.764c-2.891,0-4.92-2.24-4.92-5.553
					c0-3.475,2.16-5.749,5.083-5.749C18.974,62.62,20.906,64.91,20.906,68.158z M12.415,68.336c0,2.338,1.267,4.433,3.49,4.433
					c2.24,0,3.507-2.062,3.507-4.546c0-2.176-1.137-4.449-3.49-4.449C13.583,63.774,12.415,65.933,12.415,68.336z"/>
				<path fill="#FFFFFF" d="M28.64,63.222c-0.406,0.146-1.119,0.276-1.639,0.357c-1.267,0.195-2.192,0.618-2.793,1.478
					c-0.504,0.714-0.796,1.769-0.861,2.598h0.048c0.502-1.135,1.607-1.77,2.728-1.77c1.932,0,3.346,1.381,3.346,3.88
					c0,2.565-1.332,4.156-3.638,4.156c-2.761,0-3.67-2.646-3.67-5.26c0-1.786,0.374-3.249,1.217-4.352
					c0.764-1.087,1.85-1.59,3.377-1.85c0.634-0.098,1.412-0.228,1.949-0.422L28.64,63.222z M25.833,66.939
					c-0.845,0-1.445,0.438-1.771,1.072c-0.259,0.471-0.39,1.039-0.39,1.671c0,1.298,0.634,3.167,2.192,3.167
					c1.576,0,2.16-1.525,2.16-2.971C28.023,68.596,27.521,66.939,25.833,66.939z"/>
				<path fill="#FFFFFF" d="M32.639,65.884v6.738h2.744v-6.738h1.396v6.738h2.743v-6.738h1.413v6.787l0.796,0.016l-0.083,3.555
					h-1.102l-0.064-2.5h-9.238v-7.859L32.639,65.884L32.639,65.884z"/>
				<path fill="#FFFFFF" d="M44.759,65.884v3.312c0,1.25-0.016,2.03-0.081,3.149l0.049,0.017c0.471-0.958,0.747-1.51,1.267-2.419
					l2.451-4.059h1.672v7.859h-1.365v-3.329c0-1.284,0.033-1.948,0.098-3.215h-0.049c-0.502,1.007-0.844,1.639-1.298,2.435
					c-0.747,1.217-1.608,2.728-2.453,4.108h-1.639v-7.859L44.759,65.884L44.759,65.884z"/>
				<path fill="#FFFFFF" d="M53.758,65.884v3.312c0,1.25-0.016,2.03-0.081,3.149l0.049,0.017c0.471-0.958,0.747-1.51,1.267-2.419
					l2.452-4.059h1.672v7.859h-1.364v-3.329c0-1.284,0.032-1.948,0.097-3.215H57.8c-0.502,1.007-0.844,1.639-1.298,2.435
					c-0.747,1.217-1.608,2.728-2.453,4.108H52.41v-7.859L53.758,65.884L53.758,65.884z M54.684,62.686
					c0.048,0.698,0.389,1.235,1.04,1.235c0.698,0,1.023-0.52,1.103-1.235h1.023c-0.065,1.331-0.91,2.013-2.16,2.013
					c-1.429,0-1.982-0.894-2.046-2.013H54.684z"/>
				<path fill="#FFFFFF" d="M69.239,73.743l-0.114-0.989h-0.049c-0.439,0.617-1.282,1.168-2.403,1.168
					c-1.591,0-2.402-1.121-2.402-2.257c0-1.899,1.688-2.939,4.725-2.923V68.58c0-0.648-0.179-1.818-1.786-1.818
					c-0.731,0-1.495,0.227-2.047,0.585l-0.323-0.941c0.648-0.422,1.59-0.699,2.58-0.699c2.403,0,2.988,1.64,2.988,3.215v2.939
					c0,0.681,0.033,1.347,0.13,1.883h-1.299V73.743z M69.026,69.732c-1.558-0.033-3.328,0.243-3.328,1.769
					c0,0.926,0.616,1.365,1.347,1.365c1.023,0,1.671-0.65,1.899-1.316c0.049-0.146,0.082-0.309,0.082-0.455V69.732z"/>
				<path fill="#FFFFFF" d="M74.097,65.884v3.165h3.735v-3.165h1.412v7.859h-1.412v-3.555h-3.735v3.555h-1.412v-7.859H74.097z"/>
				<path fill="#FFFFFF" d="M85.938,73.743l-0.113-0.989h-0.051c-0.438,0.617-1.282,1.168-2.403,1.168
					c-1.589,0-2.399-1.121-2.399-2.257c0-1.899,1.688-2.939,4.724-2.923V68.58c0-0.648-0.18-1.818-1.786-1.818
					c-0.729,0-1.495,0.227-2.048,0.585l-0.321-0.941c0.649-0.422,1.589-0.699,2.579-0.699c2.404,0,2.988,1.64,2.988,3.215v2.939
					c0,0.681,0.032,1.347,0.131,1.883h-1.3V73.743z M85.728,69.732c-1.561-0.033-3.329,0.243-3.329,1.769
					c0,0.926,0.616,1.365,1.349,1.365c1.023,0,1.671-0.65,1.898-1.316c0.05-0.146,0.082-0.309,0.082-0.455V69.732z"/>
				<path fill="#FFFFFF" d="M95.41,65.884v7.859h-1.415v-6.738h-2.694v2.045c0,2.208-0.211,3.687-1.234,4.352
					c-0.389,0.309-0.828,0.487-1.558,0.487l-0.145-1.121c0.275-0.048,0.586-0.162,0.776-0.325c0.732-0.536,0.813-1.64,0.813-3.395
					v-3.165H95.41z"/>
				<path fill="#FFFFFF" d="M99.064,65.884v3.312c0,1.25-0.017,2.03-0.081,3.149l0.048,0.017c0.472-0.958,0.749-1.51,1.268-2.419
					l2.451-4.059h1.674v7.859h-1.364v-3.329c0-1.284,0.03-1.948,0.097-3.215h-0.05c-0.502,1.007-0.843,1.639-1.299,2.435
					c-0.746,1.217-1.609,2.728-2.451,4.108h-1.641v-7.859L99.064,65.884L99.064,65.884z"/>
				<path fill="#FFFFFF" d="M107.401,69.18h0.682c1.202,0,2.013-0.553,2.013-1.282c0-0.698-0.635-1.137-1.526-1.137
					c-0.635,0-1.349,0.211-1.9,0.553l-0.357-0.876c0.796-0.488,1.705-0.715,2.615-0.715c1.2,0,2.662,0.536,2.662,2.062
					c0,0.974-0.892,1.607-1.769,1.786v0.032c1.169,0.097,2.142,0.813,2.142,1.964c0,1.704-1.737,2.338-3.393,2.338
					c-0.925,0-1.851-0.244-2.549-0.634l0.373-0.958c0.568,0.309,1.329,0.536,2.078,0.536c1.185,0,1.933-0.568,1.933-1.348
					c0-1.055-1.104-1.347-2.289-1.347h-0.714V69.18z"/>
				<path fill="#FFFFFF" d="M118.609,65.884v3.41h0.341l2.954-3.41h1.736l-3.424,3.555c1.267,0.13,2.028,0.975,2.646,2.387
					c0.208,0.52,0.485,1.282,0.844,1.916h-1.495c-0.212-0.341-0.485-0.958-0.729-1.608c-0.536-1.267-1.269-1.851-2.6-1.851h-0.274
					v3.459h-1.412v-7.859L118.609,65.884L118.609,65.884z"/>
				<path fill="#FFFFFF" d="M124.979,68.45c0-1.007-0.034-1.818-0.065-2.565h1.282l0.066,1.347h0.031
					c0.584-0.958,1.509-1.525,2.792-1.525c1.901,0,3.329,1.607,3.329,3.993c0,2.826-1.722,4.221-3.572,4.221
					c-1.04,0-1.948-0.455-2.419-1.235h-0.032v4.271h-1.412V68.45z M126.391,70.544c0,0.211,0.032,0.407,0.063,0.585
					c0.262,0.991,1.121,1.672,2.145,1.672c1.51,0,2.388-1.233,2.388-3.036c0-1.575-0.829-2.923-2.34-2.923
					c-0.974,0-1.883,0.698-2.158,1.77c-0.05,0.178-0.098,0.39-0.098,0.585V70.544z"/>
				<path fill="#FFFFFF" d="M141.333,69.748c0,2.905-2.015,4.172-3.913,4.172c-2.129,0-3.769-1.558-3.769-4.042
					c0-2.63,1.722-4.172,3.897-4.172C139.805,65.706,141.333,67.345,141.333,69.748z M135.098,69.83c0,1.72,0.989,3.02,2.385,3.02
					c1.366,0,2.39-1.282,2.39-3.053c0-1.331-0.665-3.019-2.353-3.019C135.828,66.778,135.098,68.336,135.098,69.83z"/>
				<path fill="#FFFFFF" d="M143.106,65.982c0.553-0.098,1.573-0.179,2.499-0.179c1.318,0,3.493,0.211,3.493,1.964
					c0,0.975-0.748,1.576-1.643,1.77v0.033c1.154,0.163,2.001,0.812,2.001,1.948c0,2.062-2.6,2.322-4.143,2.322
					c-0.876,0-1.786-0.065-2.208-0.097V65.982L143.106,65.982z M144.453,72.801c0.407,0.049,0.697,0.065,1.152,0.065
					c0.96,0,2.389-0.228,2.389-1.365c0-1.135-1.137-1.379-2.502-1.379h-1.039V72.801z M144.472,69.18h1.07
					c1.055,0,2.142-0.309,2.142-1.235c0-0.779-0.682-1.153-2.111-1.153c-0.471,0-0.763,0.032-1.101,0.065V69.18z"/>
				<path fill="#FFFFFF" d="M152.575,65.884v3.312c0,1.25-0.016,2.03-0.079,3.149l0.048,0.017c0.471-0.958,0.748-1.51,1.267-2.419
					l2.451-4.059h1.673v7.859h-1.364v-3.329c0-1.284,0.032-1.948,0.099-3.215h-0.051c-0.502,1.007-0.844,1.639-1.298,2.435
					c-0.746,1.217-1.607,2.728-2.451,4.108h-1.64v-7.859L152.575,65.884L152.575,65.884z"/>
			</g>
		</g>
	</g>
	<g>
		<path fill="#263238" d="M-43.134,78.773c0.087-0.256,0.178-0.514,0.26-0.773c0.343-1.082,0.923-2.013,1.726-2.816
			c6.62-6.612,13.233-13.23,19.853-19.844c0.146-0.142,0.34-0.242,0.632-0.445c-0.489-0.44-0.865-0.747-1.201-1.091
			c-0.553-0.57-0.578-1.096-0.041-1.648c1.213-1.246,2.452-2.465,3.689-3.689c0.157-0.156,0.365-0.256,0.549-0.383
			c0.175,0,0.351,0,0.523,0c0.293,0.241,0.61,0.458,0.877,0.726c3.561,3.55,7.113,7.104,10.667,10.658
			c0.856,0.858,0.86,1.294,0.018,2.139c-1.082,1.085-2.162,2.167-3.248,3.246c-0.742,0.739-1.205,0.755-1.952,0.039
			c-0.312-0.301-0.585-0.639-0.892-0.973c-0.182,0.162-0.284,0.251-0.381,0.347c-4.205,4.202-8.41,8.41-12.614,12.614
			c-2.496,2.494-4.987,4.998-7.49,7.486c-3.512,3.487-9.337,1.97-10.728-2.787c-0.06-0.214-0.167-0.41-0.252-0.616
			C-43.134,80.233-43.134,79.504-43.134,78.773z M-16.344,65.424c-0.041-0.005-0.107-0.021-0.17-0.021
			c-3.845-0.006-7.687-0.013-11.533-0.002c-0.18,0-0.402,0.112-0.533,0.242c-3.766,3.762-7.53,7.527-11.28,11.301
			c-0.969,0.979-1.359,2.168-1.091,3.535c0.341,1.745,1.284,2.975,3.047,3.472c1.722,0.486,3.174,0.019,4.408-1.243
			c-0.846-1.073-0.968-1.521-0.494-1.991c0.17-0.172,0.479-0.386,0.663-0.336c0.493,0.13,0.952,0.392,1.409,0.593
			c0.249-0.243,0.567-0.553,0.989-0.96c-0.191-0.146-0.408-0.291-0.601-0.465c-0.194-0.172-0.37-0.365-0.543-0.561
			c-0.317-0.36-0.412-0.763-0.189-1.203c0.325-0.648,1.101-0.789,1.673-0.29c0.416,0.362,0.799,0.762,1.082,1.032
			c0.362-0.299,0.737-0.605,1.105-0.912c-0.906-0.933-1.035-1.413-0.543-1.963c0.478-0.538,1.003-0.439,2.017,0.359
			c0.339-0.316,0.677-0.629,1.042-0.972c-0.191-0.179-0.357-0.329-0.52-0.486c-0.164-0.158-0.325-0.317-0.479-0.48
			c-0.532-0.561-0.577-1.157-0.126-1.615c0.459-0.464,1.058-0.441,1.61,0.098c0.336,0.326,0.639,0.682,0.975,1.049
			c0.406-0.39,0.75-0.716,1.094-1.045c-0.864-0.852-1.04-1.416-0.572-1.926c0.166-0.18,0.471-0.408,0.65-0.361
			c0.509,0.128,0.985,0.388,1.441,0.583c0.261-0.253,0.576-0.562,1.001-0.977c-0.334-0.286-0.71-0.57-1.039-0.903
			c-0.513-0.523-0.539-1.13-0.112-1.571c0.433-0.446,1.048-0.44,1.575,0.062c0.348,0.334,0.638,0.73,0.939,1.081
			C-18.339,67.432-17.349,66.435-16.344,65.424z M-13.313,62.561c-2.055-2.055-4.064-4.064-5.957-5.958
			c-2.198,2.201-4.446,4.449-6.665,6.668c0.089,0,0.28,0,0.469,0c2.067,0,4.137-0.007,6.206,0c1.355,0.004,2.71,0.04,4.065,0.036
			C-14.448,63.306-13.741,63.169-13.313,62.561z M-19.561,52.929c3.251,3.249,6.528,6.526,9.734,9.731
			c0.718-0.681,1.479-1.405,2.192-2.084c-3.27-3.282-6.53-6.554-9.774-9.809C-18.137,51.5-18.872,52.235-19.561,52.929z"/>
		<path fill="#263238" d="M-11.191,88.168c-0.225-0.068-0.447-0.15-0.676-0.211c-3.197-0.804-5.185-4.546-3.388-7.711
			c1.09-1.918,2.445-3.623,3.968-5.205c0.52-0.536,1.13-0.535,1.645-0.002c1.404,1.453,2.63,3.041,3.719,4.745
			c2.472,3.887-0.396,7.9-3.622,8.294c-0.063,0.008-0.122,0.059-0.183,0.09C-10.216,88.168-10.704,88.168-11.191,88.168z
			 M-10.458,77.282c-1.214,1.409-2.36,2.758-3.104,4.39c-0.279,0.61-0.325,1.229-0.147,1.879c0.509,1.863,2.506,2.92,4.36,2.293
			c1.795-0.607,2.742-2.602,1.944-4.291C-8.15,79.977-9.288,78.654-10.458,77.282z"/>
		<path fill="#263238" d="M-1.796,71.676c-0.085,0.133-0.199,0.255-0.254,0.4c-0.685,1.805-2.407,2.945-4.259,2.814
			c-1.918-0.138-3.486-1.524-3.873-3.445c-0.167-0.824-0.042-1.615,0.326-2.378c0.758-1.569,1.829-2.909,3.019-4.157
			c0.52-0.546,1.101-0.523,1.63,0.044c1.359,1.45,2.629,2.964,3.28,4.894c0.021,0.06,0.085,0.105,0.13,0.157
			C-1.796,70.562-1.796,71.118-1.796,71.676z M-5.916,67.206c-0.08,0-0.161,0-0.239-0.002c-0.619,0.978-1.292,1.922-1.836,2.938
			c-0.383,0.713,0.003,1.674,0.721,2.199c0.758,0.555,1.722,0.555,2.472,0c0.717-0.531,1.096-1.491,0.715-2.199
			C-4.63,69.125-5.298,68.179-5.916,67.206z"/>
	</g>
</g>
</svg>
