<?xml version="1.0" encoding="utf-8"?>
<!-- Generator: Adobe Illustrator 16.0.3, SVG Export Plug-In . SVG Version: 6.00 Build 0)  -->
<!DOCTYPE svg PUBLIC "-//W3C//DTD SVG 1.1//EN" "http://www.w3.org/Graphics/SVG/1.1/DTD/svg11.dtd">
<svg version="1.1" id="Layer_1" xmlns="http://www.w3.org/2000/svg" xmlns:xlink="http://www.w3.org/1999/xlink" x="0px" y="0px"
	 width="162.488px" height="50px" viewBox="-3.047 50 162.488 50" enable-background="new -3.047 50 162.488 50"
	 xml:space="preserve">
<g>
	<path fill="#F3726A" d="M117.014,1754.814c-0.445,0-0.885-0.037-1.313-0.111l1.313,3.104l1.315-3.104
		C117.898,1754.777,117.459,1754.814,117.014,1754.814z"/>
	<path fill="#F3726A" d="M134.908,1758.674c-1.596,0-2.895,1.297-2.895,2.893c0,1.598,1.299,2.896,2.895,2.896
		s2.895-1.299,2.895-2.896C137.803,1759.971,136.504,1758.674,134.908,1758.674z M134.908,1762.531
		c-0.533,0-0.965-0.434-0.965-0.965c0-0.533,0.432-0.965,0.965-0.965s0.965,0.432,0.965,0.965
		C135.873,1762.099,135.441,1762.531,134.908,1762.531z"/>
	<path fill="#F3726A" d="M123.268,1725.057c-13.808,0-25,11.191-25,25c0,13.807,11.192,25,25,25c13.809,0,25-11.193,25-25
		C148.268,1736.248,137.074,1725.057,123.268,1725.057z M134.908,1766.392c-2.66,0-4.824-2.163-4.824-4.823
		c0-2.328,1.66-4.277,3.859-4.729v-2.282c0-1.985-1.615-3.601-3.604-3.601c-1.984,0-3.604,1.613-3.604,3.601v6.616
		c0,2.947-2.396,5.345-5.346,5.345c-2.947,0-5.346-2.396-5.346-5.345v-0.696l-2.813-6.642c-0.313-0.174-0.619-0.371-0.91-0.592
		c-1.362-1.025-2.329-2.438-2.799-4.076l-2.562-8.96c-0.362-1.274-0.112-2.61,0.685-3.666c0.797-1.058,2.014-1.663,3.336-1.663
		h0.562v-0.321c0-0.532,0.433-0.965,0.965-0.965c0.533,0,0.966,0.433,0.966,0.965v2.571c0,0.533-0.433,0.965-0.966,0.965
		c-0.532,0-0.965-0.432-0.965-0.965v-0.321h-0.562c-0.711,0-1.366,0.327-1.797,0.896c-0.43,0.566-0.563,1.29-0.367,1.975
		l2.562,8.961c0.716,2.5,3.029,4.246,5.632,4.246c2.6,0,4.916-1.746,5.631-4.246l2.562-8.962c0.194-0.685,0.062-1.405-0.368-1.974
		c-0.429-0.569-1.083-0.896-1.797-0.896h-0.561v0.321c0,0.533-0.434,0.965-0.965,0.965c-0.533,0-0.966-0.432-0.966-0.965v-2.571
		c0-0.532,0.433-0.965,0.966-0.965c0.531,0,0.965,0.433,0.965,0.965v0.321h0.561c1.322,0,2.54,0.605,3.337,1.663
		c0.798,1.056,1.046,2.392,0.685,3.666l-2.562,8.96c-0.47,1.641-1.438,3.051-2.799,4.076c-0.291,0.221-0.597,0.418-0.909,0.592
		l-2.813,6.642v0.696c0,1.884,1.531,3.416,3.416,3.416s3.418-1.532,3.418-3.416v-6.616c0-3.049,2.479-5.528,5.528-5.528
		c3.052,0,5.531,2.479,5.531,5.528v2.282c2.198,0.449,3.856,2.398,3.856,4.729C139.73,1764.229,137.566,1766.392,134.908,1766.392z"
		/>
</g>
<g>
	<path fill="#F3726A" d="M117.014,1754.814c-0.445,0-0.885-0.037-1.313-0.111l1.313,3.104l1.315-3.104
		C117.898,1754.777,117.459,1754.814,117.014,1754.814z"/>
	<path fill="#F3726A" d="M134.908,1758.674c-1.596,0-2.895,1.297-2.895,2.893c0,1.598,1.299,2.896,2.895,2.896
		s2.895-1.299,2.895-2.896C137.803,1759.971,136.504,1758.674,134.908,1758.674z M134.908,1762.531
		c-0.533,0-0.965-0.434-0.965-0.965c0-0.533,0.432-0.965,0.965-0.965s0.965,0.432,0.965,0.965
		C135.873,1762.099,135.441,1762.531,134.908,1762.531z"/>
	<path fill="#F3726A" d="M123.268,1725.057c-13.808,0-25,11.191-25,25c0,13.807,11.192,25,25,25c13.809,0,25-11.193,25-25
		C148.268,1736.248,137.074,1725.057,123.268,1725.057z M134.908,1766.392c-2.66,0-4.824-2.163-4.824-4.823
		c0-2.328,1.66-4.277,3.859-4.729v-2.282c0-1.985-1.615-3.601-3.604-3.601c-1.984,0-3.604,1.613-3.604,3.601v6.616
		c0,2.947-2.396,5.345-5.346,5.345c-2.947,0-5.346-2.396-5.346-5.345v-0.696l-2.813-6.642c-0.313-0.174-0.619-0.371-0.91-0.592
		c-1.362-1.025-2.329-2.438-2.799-4.076l-2.562-8.96c-0.362-1.274-0.112-2.61,0.685-3.666c0.797-1.058,2.014-1.663,3.336-1.663
		h0.562v-0.321c0-0.532,0.433-0.965,0.965-0.965c0.533,0,0.966,0.433,0.966,0.965v2.571c0,0.533-0.433,0.965-0.966,0.965
		c-0.532,0-0.965-0.432-0.965-0.965v-0.321h-0.562c-0.711,0-1.366,0.327-1.797,0.896c-0.43,0.566-0.563,1.29-0.367,1.975
		l2.562,8.961c0.716,2.5,3.029,4.246,5.632,4.246c2.6,0,4.916-1.746,5.631-4.246l2.562-8.962c0.194-0.685,0.062-1.405-0.368-1.974
		c-0.429-0.569-1.083-0.896-1.797-0.896h-0.561v0.321c0,0.533-0.434,0.965-0.965,0.965c-0.533,0-0.966-0.432-0.966-0.965v-2.571
		c0-0.532,0.433-0.965,0.966-0.965c0.531,0,0.965,0.433,0.965,0.965v0.321h0.561c1.322,0,2.54,0.605,3.337,1.663
		c0.798,1.056,1.046,2.392,0.685,3.666l-2.562,8.96c-0.47,1.641-1.438,3.051-2.799,4.076c-0.291,0.221-0.597,0.418-0.909,0.592
		l-2.813,6.642v0.696c0,1.884,1.531,3.416,3.416,3.416s3.418-1.532,3.418-3.416v-6.616c0-3.049,2.479-5.528,5.528-5.528
		c3.052,0,5.531,2.479,5.531,5.528v2.282c2.198,0.449,3.856,2.398,3.856,4.729C139.73,1764.229,137.566,1766.392,134.908,1766.392z"
		/>
</g>
<g>
	<g>
		<path fill="#F3726A" d="M159.44,92.137c0,4.344-3.52,7.863-7.863,7.863H4.816c-4.343,0-7.863-3.52-7.863-7.863V57.861
			c0-4.341,3.52-7.861,7.863-7.861h146.761c4.344,0,7.863,3.52,7.863,7.861V92.137z"/>
	</g>
	<g>
		<g>
			<path fill="#FFFFFF" d="M29.223,66.517v5.613h5.439v-5.613h3.294v14.607h-3.294v-6.112h-5.439v6.112h-3.315V66.517H29.223z"/>
			<path fill="#FFFFFF" d="M46.747,81.121l-0.195-1.061h-0.065c-0.692,0.844-1.777,1.301-3.033,1.301
				c-2.145,0-3.424-1.561-3.424-3.252c0-2.75,2.471-4.072,6.22-4.051v-0.152c0-0.563-0.303-1.364-1.93-1.364
				c-1.083,0-2.231,0.368-2.925,0.801l-0.607-2.124c0.736-0.412,2.189-0.931,4.117-0.931c3.532,0,4.658,2.081,4.658,4.572v3.684
				c0,1.02,0.044,1.994,0.152,2.578H46.747z M46.358,76.117c-1.734-0.022-3.078,0.39-3.078,1.667c0,0.846,0.563,1.259,1.3,1.259
				c0.823,0,1.495-0.542,1.71-1.214c0.044-0.175,0.065-0.367,0.065-0.563v-1.148H46.358z"/>
			<path fill="#FFFFFF" d="M53.288,74.664h1.56c1.344,0,1.994-0.455,1.994-1.062c0-0.584-0.628-1.041-1.799-1.041
				c-0.932,0-1.907,0.325-2.666,0.759l-0.65-1.929c1.256-0.758,2.839-1.083,4.312-1.083c1.929,0,4.29,0.671,4.29,2.838
				c0,1.387-1.256,2.103-2.298,2.34v0.087c1.3,0.152,2.753,0.889,2.753,2.492c0,2.578-3.099,3.249-5.267,3.249
				c-1.473,0-2.989-0.346-4.117-1.018l0.693-2.036c0.714,0.389,1.927,0.714,3.033,0.735c1.387,0,2.038-0.497,2.038-1.127
				c0-0.845-0.889-1.19-2.298-1.19h-1.581v-2.017H53.288z"/>
			<path fill="#FFFFFF" d="M66.047,70.525v3.835h3.337v-3.835H72.7v10.596h-3.315v-4.203h-3.337v4.203h-3.294V70.525H66.047z"/>
			<path fill="#FFFFFF" d="M81.339,81.121l-0.194-1.061H81.08c-0.696,0.844-1.777,1.301-3.034,1.301
				c-2.146,0-3.423-1.561-3.423-3.252c0-2.75,2.469-4.072,6.219-4.051v-0.152c0-0.563-0.305-1.364-1.928-1.364
				c-1.085,0-2.233,0.368-2.927,0.801l-0.606-2.124c0.737-0.412,2.187-0.931,4.117-0.931c3.533,0,4.659,2.081,4.659,4.572v3.684
				c0,1.02,0.042,1.994,0.15,2.578H81.339z M80.947,76.117c-1.731-0.022-3.075,0.39-3.075,1.667c0,0.846,0.563,1.259,1.3,1.259
				c0.823,0,1.495-0.542,1.712-1.214c0.044-0.175,0.066-0.367,0.066-0.563v-1.148H80.947z"/>
			<path fill="#FFFFFF" d="M89.612,70.525v3.208c0,1.17,0.455,1.778,1.581,1.778c0.542,0,1.128-0.217,1.431-0.455v-4.529h3.296
				v10.597h-3.296v-3.945h-0.043c-0.648,0.414-1.668,0.672-2.665,0.672c-2.276,0-3.599-1.301-3.599-3.813v-3.511h3.295V70.525z"/>
			<path fill="#FFFFFF" d="M101.635,70.525v3.251c0,1.691-0.087,2.882-0.173,4.312l0.086,0.021c0.497-1.214,0.779-2.036,1.212-3.032
				l2.059-4.55h4.032v10.597h-3.12v-3.229c0-1.648,0.085-2.342,0.195-4.596h-0.087c-0.412,1.169-0.672,1.863-1.104,2.861
				c-0.673,1.473-1.475,3.315-2.211,4.96h-4.01V70.525H101.635z"/>
			<path fill="#FFFFFF" d="M119.766,70.525v2.514h-3.076v8.082h-3.314V73.04h-3.077v-2.514H119.766z"/>
			<path fill="#FFFFFF" d="M124.506,70.525v3.143c0.457-0.065,1.085-0.13,1.669-0.13c2.47,0,5.07,0.867,5.07,3.683
				c0,1.344-0.585,2.256-1.45,2.84c-1.364,0.952-3.425,1.192-5.049,1.192c-1.191,0-2.428-0.065-3.531-0.195V70.525H124.506z
				 M124.485,78.956c0.304,0.021,0.606,0.065,1.105,0.065c1.084,0,2.383-0.369,2.383-1.647c0-1.301-1.407-1.604-2.426-1.604
				c-0.434,0-0.737,0.066-1.063,0.108V78.956z"/>
		</g>
	</g>
</g>
</svg>
