<?xml version="1.0" encoding="utf-8"?>
<!-- Generator: Adobe Illustrator 16.0.3, SVG Export Plug-In . SVG Version: 6.00 Build 0)  -->
<!DOCTYPE svg PUBLIC "-//W3C//DTD SVG 1.1//EN" "http://www.w3.org/Graphics/SVG/1.1/DTD/svg11.dtd">
<svg version="1.1" id="Layer_1" xmlns="http://www.w3.org/2000/svg" xmlns:xlink="http://www.w3.org/1999/xlink" x="0px" y="0px"
	 width="203.51px" height="50px" viewBox="-26.754 50 203.51 50" enable-background="new -26.754 50 203.51 50"
	 xml:space="preserve">
<g>
	<path fill="#F3726A" d="M117.014,1754.814c-0.445,0-0.885-0.037-1.313-0.111l1.313,3.104l1.315-3.104
		C117.898,1754.777,117.459,1754.814,117.014,1754.814z"/>
	<path fill="#F3726A" d="M134.908,1758.674c-1.596,0-2.895,1.297-2.895,2.893c0,1.598,1.299,2.896,2.895,2.896
		s2.895-1.299,2.895-2.896C137.803,1759.971,136.504,1758.674,134.908,1758.674z M134.908,1762.531
		c-0.533,0-0.965-0.434-0.965-0.965c0-0.533,0.432-0.965,0.965-0.965s0.965,0.432,0.965,0.965
		C135.873,1762.099,135.441,1762.531,134.908,1762.531z"/>
	<path fill="#F3726A" d="M123.268,1725.057c-13.808,0-25,11.191-25,25c0,13.807,11.192,25,25,25c13.809,0,25-11.193,25-25
		C148.268,1736.248,137.074,1725.057,123.268,1725.057z M134.908,1766.392c-2.66,0-4.824-2.163-4.824-4.823
		c0-2.328,1.66-4.277,3.859-4.729v-2.282c0-1.985-1.615-3.601-3.604-3.601c-1.984,0-3.604,1.613-3.604,3.601v6.616
		c0,2.947-2.396,5.345-5.346,5.345c-2.947,0-5.346-2.396-5.346-5.345v-0.696l-2.813-6.642c-0.313-0.174-0.619-0.371-0.91-0.592
		c-1.362-1.025-2.329-2.438-2.799-4.076l-2.562-8.96c-0.362-1.274-0.112-2.61,0.685-3.666c0.797-1.058,2.014-1.663,3.336-1.663
		h0.562v-0.321c0-0.532,0.433-0.965,0.965-0.965c0.533,0,0.966,0.433,0.966,0.965v2.571c0,0.533-0.433,0.965-0.966,0.965
		c-0.532,0-0.965-0.432-0.965-0.965v-0.321h-0.562c-0.711,0-1.366,0.327-1.797,0.896c-0.43,0.566-0.563,1.29-0.367,1.975
		l2.562,8.961c0.716,2.5,3.029,4.246,5.632,4.246c2.6,0,4.916-1.746,5.631-4.246l2.562-8.962c0.194-0.685,0.062-1.405-0.368-1.974
		c-0.429-0.569-1.083-0.896-1.797-0.896h-0.561v0.321c0,0.533-0.434,0.965-0.965,0.965c-0.533,0-0.966-0.432-0.966-0.965v-2.571
		c0-0.532,0.433-0.965,0.966-0.965c0.531,0,0.965,0.433,0.965,0.965v0.321h0.561c1.322,0,2.54,0.605,3.337,1.663
		c0.798,1.056,1.046,2.392,0.685,3.666l-2.562,8.96c-0.47,1.641-1.438,3.051-2.799,4.076c-0.291,0.221-0.597,0.418-0.909,0.592
		l-2.813,6.642v0.696c0,1.884,1.531,3.416,3.416,3.416s3.418-1.532,3.418-3.416v-6.616c0-3.049,2.479-5.528,5.528-5.528
		c3.052,0,5.531,2.479,5.531,5.528v2.282c2.198,0.449,3.856,2.398,3.856,4.729C139.73,1764.229,137.566,1766.392,134.908,1766.392z"
		/>
</g>
<g>
	<path fill="#F3726A" d="M117.014,1754.814c-0.445,0-0.885-0.037-1.313-0.111l1.313,3.104l1.315-3.104
		C117.898,1754.777,117.459,1754.814,117.014,1754.814z"/>
	<path fill="#F3726A" d="M134.908,1758.674c-1.596,0-2.895,1.297-2.895,2.893c0,1.598,1.299,2.896,2.895,2.896
		s2.895-1.299,2.895-2.896C137.803,1759.971,136.504,1758.674,134.908,1758.674z M134.908,1762.531
		c-0.533,0-0.965-0.434-0.965-0.965c0-0.533,0.432-0.965,0.965-0.965s0.965,0.432,0.965,0.965
		C135.873,1762.099,135.441,1762.531,134.908,1762.531z"/>
	<path fill="#F3726A" d="M123.268,1725.057c-13.808,0-25,11.191-25,25c0,13.807,11.192,25,25,25c13.809,0,25-11.193,25-25
		C148.268,1736.248,137.074,1725.057,123.268,1725.057z M134.908,1766.392c-2.66,0-4.824-2.163-4.824-4.823
		c0-2.328,1.66-4.277,3.859-4.729v-2.282c0-1.985-1.615-3.601-3.604-3.601c-1.984,0-3.604,1.613-3.604,3.601v6.616
		c0,2.947-2.396,5.345-5.346,5.345c-2.947,0-5.346-2.396-5.346-5.345v-0.696l-2.813-6.642c-0.313-0.174-0.619-0.371-0.91-0.592
		c-1.362-1.025-2.329-2.438-2.799-4.076l-2.562-8.96c-0.362-1.274-0.112-2.61,0.685-3.666c0.797-1.058,2.014-1.663,3.336-1.663
		h0.562v-0.321c0-0.532,0.433-0.965,0.965-0.965c0.533,0,0.966,0.433,0.966,0.965v2.571c0,0.533-0.433,0.965-0.966,0.965
		c-0.532,0-0.965-0.432-0.965-0.965v-0.321h-0.562c-0.711,0-1.366,0.327-1.797,0.896c-0.43,0.566-0.563,1.29-0.367,1.975
		l2.562,8.961c0.716,2.5,3.029,4.246,5.632,4.246c2.6,0,4.916-1.746,5.631-4.246l2.562-8.962c0.194-0.685,0.062-1.405-0.368-1.974
		c-0.429-0.569-1.083-0.896-1.797-0.896h-0.561v0.321c0,0.533-0.434,0.965-0.965,0.965c-0.533,0-0.966-0.432-0.966-0.965v-2.571
		c0-0.532,0.433-0.965,0.966-0.965c0.531,0,0.965,0.433,0.965,0.965v0.321h0.561c1.322,0,2.54,0.605,3.337,1.663
		c0.798,1.056,1.046,2.392,0.685,3.666l-2.562,8.96c-0.47,1.641-1.438,3.051-2.799,4.076c-0.291,0.221-0.597,0.418-0.909,0.592
		l-2.813,6.642v0.696c0,1.884,1.531,3.416,3.416,3.416s3.418-1.532,3.418-3.416v-6.616c0-3.049,2.479-5.528,5.528-5.528
		c3.052,0,5.531,2.479,5.531,5.528v2.282c2.198,0.449,3.856,2.398,3.856,4.729C139.73,1764.229,137.566,1766.392,134.908,1766.392z"
		/>
</g>
<g>
	<g>
		<path fill="#F3726A" d="M176.756,92.137c0,4.344-4.408,7.863-9.85,7.863H-16.909c-5.439,0-9.846-3.52-9.846-7.863V57.861
			c0-4.341,4.408-7.861,9.846-7.861h183.815c5.443,0,9.85,3.52,9.85,7.861V92.137z"/>
	</g>
	<g>
		<g>
			<path fill="#FFFFFF" d="M0.676,65.163V79.77H-2.64V67.872h-5.179V79.77h-3.315V65.163H0.676z"/>
			<path fill="#FFFFFF" d="M3.423,72.726c0-1.386-0.043-2.579-0.087-3.554h2.861l0.151,1.473h0.043
				c0.78-1.127,1.995-1.712,3.533-1.712c2.319,0,4.4,2.015,4.4,5.396c0,3.858-2.449,5.678-4.812,5.678
				c-1.278,0-2.276-0.522-2.753-1.214H6.716v5.266H3.423V72.726L3.423,72.726z M6.716,75.218c0,0.26,0.022,0.499,0.065,0.694
				c0.217,0.889,0.975,1.561,1.928,1.561c1.431,0,2.275-1.193,2.275-2.991c0-1.691-0.758-2.97-2.231-2.97
				c-0.932,0-1.754,0.694-1.973,1.668c-0.043,0.173-0.065,0.391-0.065,0.586V75.218z"/>
			<path fill="#FFFFFF" d="M26.84,74.352c0,3.88-2.752,5.656-5.591,5.656c-3.099,0-5.481-2.038-5.481-5.461s2.254-5.613,5.656-5.613
				C24.675,68.934,26.84,71.166,26.84,74.352z M19.169,74.46c0,1.819,0.76,3.185,2.167,3.185c1.279,0,2.102-1.277,2.102-3.185
				c0-1.581-0.607-3.186-2.102-3.186C19.754,71.274,19.169,72.899,19.169,74.46z"/>
			<path fill="#FFFFFF" d="M38.039,66.766c-0.628,0.173-1.732,0.304-2.513,0.368c-1.517,0.173-2.622,0.585-3.337,1.408
				c-0.628,0.673-1.062,1.777-1.148,2.622h0.108c0.65-1.169,1.928-1.994,3.489-1.994c2.86,0,4.703,2.103,4.703,5.267
				c0,3.445-2.297,5.57-5.439,5.57c-3.706,0-5.548-2.97-5.548-7.001c0-2.752,0.714-4.963,2.276-6.436
				c1.04-1.104,2.492-1.732,4.42-1.949c0.996-0.108,2.427-0.26,3.164-0.455L38.039,66.766z M33.814,71.448
				c-0.693,0-1.213,0.368-1.54,0.867c-0.368,0.541-0.563,1.191-0.563,2.102c0,1.387,0.585,3.228,2.144,3.228
				c1.562,0,2.103-1.582,2.103-3.076C35.959,73.139,35.438,71.448,33.814,71.448z"/>
			<path fill="#FFFFFF" d="M51.837,74.352c0,3.88-2.752,5.656-5.592,5.656c-3.098,0-5.481-2.038-5.481-5.461
				s2.254-5.613,5.656-5.613C49.67,68.934,51.837,71.166,51.837,74.352z M44.167,74.46c0,1.819,0.759,3.185,2.167,3.185
				c1.277,0,2.101-1.277,2.101-3.185c0-1.581-0.606-3.186-2.101-3.186C44.75,71.274,44.167,72.899,44.167,74.46z"/>
			<path fill="#FFFFFF" d="M53.847,69.28c0.801-0.108,2.622-0.26,4.268-0.26c1.799,0,5.245,0.196,5.245,2.708
				c0,1.365-1.104,2.081-2.167,2.298v0.043c1.582,0.26,2.622,1.148,2.622,2.579c0,3.013-4.095,3.272-6.262,3.272
				c-1.473,0-3.034-0.108-3.705-0.196V69.28z M57.076,77.884c0.347,0.043,0.606,0.043,1.105,0.043c1.128,0,2.254-0.325,2.254-1.367
				c0-0.908-0.866-1.341-2.405-1.341h-0.954V77.884z M57.097,73.311h0.846c1.321,0,2.167-0.347,2.167-1.148
				c0-0.693-0.564-1.127-1.886-1.127c-0.455,0-0.76,0.043-1.128,0.086V73.311z"/>
			<path fill="#FFFFFF" d="M71.936,79.768l-0.195-1.061h-0.065c-0.693,0.844-1.777,1.301-3.034,1.301
				c-2.144,0-3.424-1.562-3.424-3.252c0-2.75,2.471-4.072,6.219-4.052v-0.152c0-0.563-0.303-1.364-1.929-1.364
				c-1.083,0-2.231,0.368-2.925,0.801l-0.606-2.124c0.736-0.412,2.189-0.932,4.117-0.932c3.532,0,4.658,2.081,4.658,4.572v3.684
				c0,1.02,0.043,1.993,0.152,2.578H71.936z M71.547,74.763c-1.735-0.021-3.078,0.39-3.078,1.667c0,0.846,0.563,1.259,1.3,1.259
				c0.823,0,1.494-0.542,1.711-1.214c0.043-0.175,0.064-0.368,0.064-0.563v-1.149H71.547z"/>
			<path fill="#FFFFFF" d="M85.452,69.172v2.514h-3.075v8.082h-3.315v-8.082h-3.075v-2.514H85.452z"/>
			<path fill="#FFFFFF" d="M90.195,69.172v3.143c0.455-0.065,1.084-0.13,1.669-0.13c2.47,0,5.069,0.867,5.069,3.683
				c0,1.344-0.585,2.256-1.451,2.84c-1.364,0.952-3.423,1.192-5.049,1.192c-1.19,0-2.428-0.066-3.531-0.195V69.172H90.195z
				 M90.173,77.602c0.306,0.021,0.607,0.066,1.104,0.066c1.085,0,2.385-0.369,2.385-1.647c0-1.301-1.408-1.604-2.426-1.604
				c-0.434,0-0.739,0.065-1.063,0.108V77.602z"/>
			<path fill="#FFFFFF" d="M111.25,79.508c-0.584,0.26-1.689,0.479-2.947,0.479c-3.425,0-5.612-2.08-5.612-5.418
				c0-3.099,2.122-5.635,6.066-5.635c0.867,0,1.819,0.151,2.514,0.412l-0.521,2.448c-0.39-0.173-0.974-0.325-1.841-0.325
				c-1.732,0-2.861,1.235-2.839,2.969c0,1.95,1.3,2.968,2.904,2.968c0.779,0,1.386-0.13,1.886-0.325L111.25,79.508z"/>
			<path fill="#FFFFFF" d="M116.339,69.172v3.835h3.337v-3.835h3.315v10.596h-3.315v-4.203h-3.337v4.203h-3.296V69.172H116.339z"/>
			<path fill="#FFFFFF" d="M136.073,74.352c0,3.88-2.751,5.656-5.59,5.656c-3.099,0-5.483-2.038-5.483-5.461
				s2.255-5.613,5.655-5.613C133.908,68.934,136.073,71.166,136.073,74.352z M128.402,74.46c0,1.819,0.76,3.185,2.167,3.185
				c1.278,0,2.104-1.277,2.104-3.185c0-1.581-0.608-3.186-2.104-3.186C128.988,71.274,128.402,72.899,128.402,74.46z"/>
			<path fill="#FFFFFF" d="M138.083,69.28c0.804-0.108,2.624-0.26,4.269-0.26c1.8,0,5.245,0.196,5.245,2.708
				c0,1.365-1.105,2.081-2.169,2.298v0.043c1.582,0.26,2.623,1.148,2.623,2.579c0,3.013-4.096,3.272-6.262,3.272
				c-1.474,0-3.032-0.108-3.706-0.196V69.28z M141.312,77.884c0.346,0.043,0.608,0.043,1.105,0.043c1.126,0,2.252-0.325,2.252-1.367
				c0-0.908-0.865-1.341-2.403-1.341h-0.954V77.884z M141.334,73.311h0.845c1.322,0,2.168-0.347,2.168-1.148
				c0-0.693-0.563-1.127-1.887-1.127c-0.454,0-0.757,0.043-1.126,0.086V73.311z"/>
			<path fill="#FFFFFF" d="M156.173,79.768l-0.194-1.061h-0.066c-0.694,0.844-1.777,1.301-3.033,1.301
				c-2.146,0-3.424-1.562-3.424-3.252c0-2.75,2.47-4.072,6.219-4.052v-0.152c0-0.563-0.303-1.364-1.928-1.364
				c-1.084,0-2.231,0.368-2.925,0.801l-0.607-2.124c0.738-0.412,2.188-0.932,4.117-0.932c3.532,0,4.659,2.081,4.659,4.572v3.684
				c0,1.02,0.042,1.993,0.15,2.578H156.173z M155.782,74.763c-1.731-0.021-3.075,0.39-3.075,1.667c0,0.846,0.563,1.259,1.299,1.259
				c0.823,0,1.495-0.542,1.713-1.214c0.044-0.175,0.065-0.368,0.065-0.563v-1.149H155.782z"/>
		</g>
	</g>
</g>
</svg>
