<?xml version="1.0" encoding="utf-8"?>
<!-- Generator: Adobe Illustrator 16.0.3, SVG Export Plug-In . SVG Version: 6.00 Build 0)  -->
<!DOCTYPE svg PUBLIC "-//W3C//DTD SVG 1.1//EN" "http://www.w3.org/Graphics/SVG/1.1/DTD/svg11.dtd">
<svg version="1.1" id="Layer_1" xmlns="http://www.w3.org/2000/svg" xmlns:xlink="http://www.w3.org/1999/xlink" x="0px" y="0px"
	 width="257.266px" height="50px" viewBox="-54.271 52.377 257.266 50" enable-background="new -54.271 52.377 257.266 50"
	 xml:space="preserve">
<g>
	<path fill="#F3726A" d="M117.014,1754.814c-0.445,0-0.885-0.037-1.313-0.111l1.313,3.104l1.315-3.104
		C117.898,1754.777,117.459,1754.814,117.014,1754.814z"/>
	<path fill="#F3726A" d="M134.908,1758.674c-1.596,0-2.895,1.297-2.895,2.893c0,1.598,1.299,2.896,2.895,2.896
		s2.895-1.299,2.895-2.896C137.803,1759.971,136.504,1758.674,134.908,1758.674z M134.908,1762.531
		c-0.533,0-0.965-0.434-0.965-0.965c0-0.533,0.432-0.965,0.965-0.965s0.965,0.432,0.965,0.965
		C135.873,1762.099,135.441,1762.531,134.908,1762.531z"/>
	<path fill="#F3726A" d="M123.268,1725.057c-13.808,0-25,11.191-25,25c0,13.807,11.192,25,25,25c13.809,0,25-11.193,25-25
		C148.268,1736.248,137.074,1725.057,123.268,1725.057z M134.908,1766.392c-2.66,0-4.824-2.163-4.824-4.823
		c0-2.328,1.66-4.277,3.859-4.729v-2.282c0-1.985-1.615-3.601-3.604-3.601c-1.984,0-3.604,1.613-3.604,3.601v6.616
		c0,2.947-2.396,5.345-5.346,5.345c-2.947,0-5.346-2.396-5.346-5.345v-0.696l-2.813-6.642c-0.313-0.174-0.619-0.371-0.91-0.592
		c-1.362-1.025-2.329-2.438-2.799-4.076l-2.562-8.96c-0.362-1.274-0.112-2.61,0.685-3.666c0.797-1.058,2.014-1.663,3.336-1.663
		h0.562v-0.321c0-0.532,0.433-0.965,0.965-0.965c0.533,0,0.966,0.433,0.966,0.965v2.571c0,0.533-0.433,0.965-0.966,0.965
		c-0.532,0-0.965-0.432-0.965-0.965v-0.321h-0.562c-0.711,0-1.366,0.327-1.797,0.896c-0.43,0.566-0.563,1.29-0.367,1.975
		l2.562,8.961c0.716,2.5,3.029,4.246,5.632,4.246c2.6,0,4.916-1.746,5.631-4.246l2.562-8.962c0.194-0.685,0.062-1.405-0.368-1.974
		c-0.429-0.569-1.083-0.896-1.797-0.896h-0.561v0.321c0,0.533-0.434,0.965-0.965,0.965c-0.533,0-0.966-0.432-0.966-0.965v-2.571
		c0-0.532,0.433-0.965,0.966-0.965c0.531,0,0.965,0.433,0.965,0.965v0.321h0.561c1.322,0,2.54,0.605,3.337,1.663
		c0.798,1.056,1.046,2.392,0.685,3.666l-2.562,8.96c-0.47,1.641-1.438,3.051-2.799,4.076c-0.291,0.221-0.597,0.418-0.909,0.592
		l-2.813,6.642v0.696c0,1.884,1.531,3.416,3.416,3.416s3.418-1.532,3.418-3.416v-6.616c0-3.049,2.479-5.528,5.528-5.528
		c3.052,0,5.531,2.479,5.531,5.528v2.282c2.198,0.449,3.856,2.398,3.856,4.729C139.73,1764.229,137.566,1766.392,134.908,1766.392z"
		/>
</g>
<g>
	<path fill="#F3726A" d="M117.014,1754.814c-0.445,0-0.885-0.037-1.313-0.111l1.313,3.104l1.315-3.104
		C117.898,1754.777,117.459,1754.814,117.014,1754.814z"/>
	<path fill="#F3726A" d="M134.908,1758.674c-1.596,0-2.895,1.297-2.895,2.893c0,1.598,1.299,2.896,2.895,2.896
		s2.895-1.299,2.895-2.896C137.803,1759.971,136.504,1758.674,134.908,1758.674z M134.908,1762.531
		c-0.533,0-0.965-0.434-0.965-0.965c0-0.533,0.432-0.965,0.965-0.965s0.965,0.432,0.965,0.965
		C135.873,1762.099,135.441,1762.531,134.908,1762.531z"/>
	<path fill="#F3726A" d="M123.268,1725.057c-13.808,0-25,11.191-25,25c0,13.807,11.192,25,25,25c13.809,0,25-11.193,25-25
		C148.268,1736.248,137.074,1725.057,123.268,1725.057z M134.908,1766.392c-2.66,0-4.824-2.163-4.824-4.823
		c0-2.328,1.66-4.277,3.859-4.729v-2.282c0-1.985-1.615-3.601-3.604-3.601c-1.984,0-3.604,1.613-3.604,3.601v6.616
		c0,2.947-2.396,5.345-5.346,5.345c-2.947,0-5.346-2.396-5.346-5.345v-0.696l-2.813-6.642c-0.313-0.174-0.619-0.371-0.91-0.592
		c-1.362-1.025-2.329-2.438-2.799-4.076l-2.562-8.96c-0.362-1.274-0.112-2.61,0.685-3.666c0.797-1.058,2.014-1.663,3.336-1.663
		h0.562v-0.321c0-0.532,0.433-0.965,0.965-0.965c0.533,0,0.966,0.433,0.966,0.965v2.571c0,0.533-0.433,0.965-0.966,0.965
		c-0.532,0-0.965-0.432-0.965-0.965v-0.321h-0.562c-0.711,0-1.366,0.327-1.797,0.896c-0.43,0.566-0.563,1.29-0.367,1.975
		l2.562,8.961c0.716,2.5,3.029,4.246,5.632,4.246c2.6,0,4.916-1.746,5.631-4.246l2.562-8.962c0.194-0.685,0.062-1.405-0.368-1.974
		c-0.429-0.569-1.083-0.896-1.797-0.896h-0.561v0.321c0,0.533-0.434,0.965-0.965,0.965c-0.533,0-0.966-0.432-0.966-0.965v-2.571
		c0-0.532,0.433-0.965,0.966-0.965c0.531,0,0.965,0.433,0.965,0.965v0.321h0.561c1.322,0,2.54,0.605,3.337,1.663
		c0.798,1.056,1.046,2.392,0.685,3.666l-2.562,8.96c-0.47,1.641-1.438,3.051-2.799,4.076c-0.291,0.221-0.597,0.418-0.909,0.592
		l-2.813,6.642v0.696c0,1.884,1.531,3.416,3.416,3.416s3.418-1.532,3.418-3.416v-6.616c0-3.049,2.479-5.528,5.528-5.528
		c3.052,0,5.531,2.479,5.531,5.528v2.282c2.198,0.449,3.856,2.398,3.856,4.729C139.73,1764.229,137.566,1766.392,134.908,1766.392z"
		/>
</g>
<g>
	<g>
		<g>
			<path fill="#F3726A" d="M202.995,94.513c0,4.345-3.52,7.864-7.863,7.864H-46.406c-4.344,0-7.865-3.52-7.865-7.864V60.238
				c0-4.345,3.521-7.861,7.865-7.861h241.538c4.344,0,7.863,3.517,7.863,7.861V94.513z"/>
		</g>
		<g>
			<g>
				<path fill="#FFFFFF" d="M16.012,69.19l2.176,4.66c0.276,0.65,0.536,1.282,0.796,1.934h0.032c0.195-0.57,0.407-1.203,0.681-1.981
					l1.706-4.612h1.493l-2.289,5.618c-0.602,1.46-1.283,3.133-2.046,4.156c-0.715,0.893-1.51,1.348-2.484,1.348
					c-0.357,0-0.618-0.032-0.794-0.099l0.146-1.152c0.112,0.031,0.276,0.05,0.52,0.05c1.136-0.019,1.802-1.105,2.143-1.885
					c0.114-0.245,0.082-0.406-0.048-0.667l-3.638-7.371h1.607V69.19z"/>
				<path fill="#FFFFFF" d="M23.827,69.839c0.747-0.486,1.704-0.827,2.89-0.827c1.899,0,3.215,0.991,3.215,2.679
					c0,1.347-0.974,2.371-2.257,2.664v0.032c1.544,0.162,2.664,1.168,2.664,2.742c0,2.274-1.965,3.185-3.963,3.185
					c-0.99,0-2.03-0.212-2.858-0.715l0.374-1.104c0.585,0.341,1.558,0.665,2.452,0.665c1.625,0,2.517-0.875,2.517-2.077
					c0-1.639-1.574-2.111-2.97-2.111h-0.65v-1.072h0.65c1.444,0,2.565-0.892,2.565-2.013c0-1.104-0.78-1.721-1.965-1.721
					c-0.827,0-1.688,0.341-2.272,0.714L23.827,69.839z"/>
				<path fill="#FFFFFF" d="M33.573,69.19v4.612c0,1.736-0.032,3.166-0.129,4.627l0.032,0.017c0.552-1.137,1.235-2.321,2.031-3.621
					l3.539-5.635h1.412v10.943h-1.331v-4.661c0-1.769,0.017-3.069,0.13-4.448l-0.049-0.017c-0.536,1.203-1.282,2.468-2.029,3.687
					l-3.426,5.44h-1.51V69.19H33.573z"/>
				<path fill="#FFFFFF" d="M52.27,69.613c-0.406,0.146-1.121,0.276-1.639,0.357c-1.268,0.194-2.192,0.617-2.793,1.477
					c-0.503,0.714-0.794,1.771-0.859,2.599h0.048c0.504-1.137,1.608-1.771,2.729-1.771c1.932,0,3.345,1.381,3.345,3.88
					c0,2.566-1.331,4.157-3.638,4.157c-2.76,0-3.671-2.647-3.671-5.261c0-1.786,0.375-3.249,1.219-4.352
					c0.762-1.088,1.85-1.592,3.377-1.852c0.634-0.098,1.412-0.228,1.948-0.423L52.27,69.613z M49.462,73.331
					c-0.845,0-1.445,0.438-1.771,1.072c-0.26,0.47-0.39,1.04-0.39,1.67c0,1.3,0.633,3.168,2.192,3.168
					c1.574,0,2.159-1.527,2.159-2.973C51.653,74.986,51.15,73.331,49.462,73.331z"/>
				<path fill="#FFFFFF" d="M54.906,74.841c0-1.008-0.033-1.819-0.065-2.567h1.283l0.064,1.347h0.033
					c0.585-0.958,1.51-1.526,2.793-1.526c1.9,0,3.329,1.608,3.329,3.993c0,2.827-1.721,4.222-3.573,4.222
					c-1.04,0-1.949-0.455-2.419-1.234h-0.032v4.271h-1.412V74.841z M56.318,76.936c0,0.21,0.032,0.404,0.065,0.584
					c0.26,0.99,1.121,1.671,2.143,1.671c1.51,0,2.387-1.231,2.387-3.035c0-1.574-0.829-2.921-2.338-2.921
					c-0.975,0-1.883,0.699-2.16,1.77c-0.049,0.178-0.097,0.39-0.097,0.586V76.936z"/>
				<path fill="#FFFFFF" d="M65.513,72.274v3.313h1.348c0.244-2.079,1.609-3.491,3.492-3.491c2.046,0,3.441,1.623,3.441,4.042
					c0,2.551-1.558,4.173-3.539,4.173c-1.885,0-3.265-1.395-3.427-3.637h-1.315v3.458h-1.396v-7.859h1.396V72.274z M72.365,76.171
					c0-1.477-0.667-3.004-2.063-3.004c-1.38,0-2.11,1.495-2.11,3.085c0,1.525,0.698,3.005,2.078,3.005
					C71.715,79.257,72.365,77.665,72.365,76.171z"/>
				<path fill="#FFFFFF" d="M76.966,72.274v6.739h2.744v-6.739h1.396v6.739h2.744v-6.739h1.412v7.859h-9.693v-7.859H76.966z"/>
				<path fill="#FFFFFF" d="M88.973,72.274v3.167h3.734v-3.167h1.412v7.859h-1.412v-3.556h-3.734v3.556h-1.414v-7.859H88.973z"/>
				<path fill="#FFFFFF" d="M103.574,76.14c0,2.906-2.014,4.173-3.914,4.173c-2.128,0-3.768-1.558-3.768-4.044
					c0-2.629,1.722-4.171,3.898-4.171C102.049,72.097,103.574,73.736,103.574,76.14z M97.34,76.219c0,1.722,0.988,3.021,2.388,3.021
					c1.364,0,2.385-1.281,2.385-3.055c0-1.329-0.664-3.019-2.353-3.019C98.069,73.168,97.34,74.728,97.34,76.219z"/>
				<path fill="#FFFFFF" d="M106.696,72.274v3.313c0,1.251-0.018,2.03-0.081,3.149l0.048,0.016c0.471-0.957,0.748-1.51,1.268-2.42
					l2.451-4.058h1.673v7.859h-1.364v-3.328c0-1.283,0.031-1.949,0.098-3.215h-0.051c-0.502,1.006-0.843,1.64-1.298,2.435
					c-0.746,1.217-1.607,2.729-2.452,4.108h-1.639v-7.859H106.696z M107.623,69.077c0.048,0.699,0.389,1.235,1.039,1.235
					c0.698,0,1.023-0.52,1.103-1.235h1.023c-0.063,1.331-0.91,2.013-2.159,2.013c-1.429,0-1.981-0.892-2.047-2.013H107.623z"/>
				<path fill="#FFFFFF" d="M124.287,72.274v7.859h-1.428V73.41h-3.654v6.724h-1.412v-7.859H124.287z"/>
				<path fill="#FFFFFF" d="M133.727,76.14c0,2.906-2.012,4.173-3.913,4.173c-2.128,0-3.767-1.558-3.767-4.044
					c0-2.629,1.72-4.171,3.896-4.171C132.2,72.097,133.727,73.736,133.727,76.14z M127.491,76.219c0,1.722,0.989,3.021,2.387,3.021
					c1.364,0,2.387-1.281,2.387-3.055c0-1.329-0.664-3.019-2.354-3.019C128.222,73.168,127.491,74.728,127.491,76.219z"/>
				<path fill="#FFFFFF" d="M141.493,72.274v7.859h-1.415v-6.74h-2.694v2.047c0,2.208-0.21,3.686-1.233,4.351
					c-0.391,0.309-0.826,0.488-1.559,0.488l-0.145-1.121c0.273-0.048,0.584-0.161,0.779-0.325c0.729-0.537,0.812-1.64,0.812-3.393
					v-3.167H141.493z"/>
				<path fill="#FFFFFF" d="M150.949,76.14c0,2.906-2.016,4.173-3.915,4.173c-2.128,0-3.767-1.558-3.767-4.044
					c0-2.629,1.721-4.171,3.897-4.171C149.42,72.097,150.949,73.736,150.949,76.14z M144.712,76.219c0,1.722,0.99,3.021,2.387,3.021
					c1.364,0,2.388-1.281,2.388-3.055c0-1.329-0.666-3.019-2.354-3.019C145.44,73.168,144.712,74.728,144.712,76.219z"/>
				<path fill="#FFFFFF" d="M158.355,79.842c-0.373,0.195-1.2,0.454-2.259,0.454c-2.369,0-3.91-1.607-3.91-4.011
					c0-2.42,1.655-4.173,4.22-4.173c0.844,0,1.592,0.211,1.98,0.406l-0.325,1.104c-0.338-0.195-0.875-0.372-1.655-0.372
					c-1.802,0-2.776,1.331-2.776,2.969c0,1.819,1.169,2.94,2.728,2.94c0.813,0,1.348-0.212,1.755-0.389L158.355,79.842z"/>
				<path fill="#FFFFFF" d="M165.602,72.274v1.136h-2.452v6.724h-1.412V73.41h-2.452v-1.136H165.602z"/>
				<path fill="#FFFFFF" d="M168.171,72.274v3.313c0,1.251-0.016,2.03-0.082,3.149l0.049,0.016c0.472-0.957,0.747-1.51,1.268-2.42
					l2.451-4.058h1.672v7.859h-1.365v-3.328c0-1.283,0.033-1.949,0.099-3.215h-0.048c-0.503,1.006-0.844,1.64-1.299,2.435
					c-0.748,1.217-1.608,2.729-2.453,4.108h-1.64v-7.859H168.171z"/>
			</g>
		</g>
	</g>
	<g>
		<path fill="#263238" d="M-42.959,89.399c0-2.175,0-4.355,0-6.533c0.026-0.056,0.06-0.108,0.07-0.166
			c0.32-1.513,1.214-2.531,2.646-3.092c0.77-0.305,1.58-0.225,2.382-0.232c0.327-0.003,0.654,0,0.995,0c0-0.206,0-0.355,0-0.502
			c0-5.654-0.006-11.309,0.005-16.96c0.004-1.439,0.727-2.455,2.016-3.065c0.253-0.119,0.532-0.183,0.802-0.272
			c8.764,0,17.528,0,26.292,0c0.069,0.027,0.134,0.059,0.203,0.074c1.12,0.27,1.903,0.941,2.367,1.986
			c0.108,0.244,0.17,0.508,0.253,0.764c0,6.783,0,13.568,0,20.351c-0.026,0.068-0.059,0.135-0.076,0.202
			c-0.36,1.551-1.677,2.616-3.262,2.619c-8.431,0.002-16.858,0.002-25.289,0c-1.508-0.003-2.833-1.044-3.213-2.503
			c-0.038-0.149-0.07-0.307-0.108-0.468c-0.633,0-1.24-0.003-1.845,0c-0.085,0-0.172-0.003-0.257,0.005
			c-1.001,0.086-1.739,0.856-1.747,1.872c-0.013,1.773-0.017,3.541,0,5.311c0.009,1.06,0.806,1.862,1.862,1.87
			c2.019,0.016,4.034,0.005,6.053,0.011c0.193,0,0.277-0.054,0.331-0.25c0.349-1.262,1.304-1.983,2.613-1.983
			c4.197,0,8.391,0.003,12.589-0.008c0.205,0,0.434-0.078,0.613-0.184c0.446-0.264,0.859-0.585,1.306-0.847
			c2.221-1.298,5.056,0.314,5.081,2.884c0.008,0.976,0.005,1.953,0.001,2.933c-0.007,1.544-0.994,2.837-2.483,3.269
			c-0.116,0.03-0.225,0.081-0.337,0.121c-0.373,0-0.744,0-1.115,0c-0.916-0.202-1.644-0.763-2.401-1.268
			c-0.011-0.008-0.02-0.019-0.029-0.021c-0.217-0.066-0.432-0.188-0.649-0.19c-4.216-0.013-8.435-0.008-12.652-0.008
			c-1.2-0.003-2.229-0.774-2.518-1.914c-0.068-0.268-0.176-0.32-0.425-0.32c-2.002,0.011-4.007,0.011-6.008,0.003
			c-1.739-0.006-3.266-1.105-3.835-2.753C-42.819,89.894-42.885,89.644-42.959,89.399z M-7.157,74.906c0-0.15,0-0.261,0-0.37
			c0-4.133,0-8.265,0-12.398c0-0.904-0.436-1.335-1.347-1.335c-8.267,0-16.532,0-24.797,0c-0.907,0-1.34,0.434-1.34,1.343
			c0,4.12,0,8.242,0,12.362c0,0.13,0,0.259,0,0.399C-25.459,74.906-16.333,74.906-7.157,74.906z M-34.641,77.156
			c0,1.318,0,2.6,0,3.885c0.001,0.856,0.448,1.303,1.304,1.303c8.288,0.003,16.578,0.003,24.868,0c0.875,0,1.314-0.443,1.314-1.328
			c0.001-1.166,0-2.327,0-3.49c0-0.119-0.013-0.238-0.019-0.368C-16.332,77.156-25.459,77.156-34.641,77.156z M-17.719,90.662
			c-1.18,0-2.328,0-3.478,0c-2.845,0-5.693-0.003-8.54,0c-0.48,0-0.593,0.11-0.594,0.585c-0.004,0.333-0.003,0.667,0,0.998
			c0,0.551,0.095,0.646,0.648,0.646c3.863,0,7.723,0,11.586,0c0.12,0,0.241,0,0.378,0C-17.719,92.141-17.719,91.427-17.719,90.662z
			 M-15.477,91.777c0.011,0,0.021,0,0.031,0c0,0.541-0.138,1.137,0.045,1.609c0.134,0.341,0.689,0.516,1.056,0.766
			c0.011,0.008,0.022,0.013,0.031,0.02c0.806,0.479,1.772-0.012,1.799-0.946c0.031-0.966,0.03-1.935,0.003-2.897
			c-0.029-0.89-0.93-1.402-1.706-1.003c-1.225,0.629-1.262,0.689-1.262,2.044C-15.477,91.505-15.477,91.642-15.477,91.777z"/>
		<path fill="#263238" d="M-20.933,72.698c-3.063-0.061-5.743-1.118-7.983-3.257c-0.605-0.58-0.612-1.216-0.022-1.809
			c1.502-1.507,3.01-3.013,4.518-4.52c0.564-0.563,1.136-0.579,1.733-0.061c1.113,0.968,2.481,0.962,3.593-0.013
			c0.563-0.495,1.152-0.489,1.68,0.034c1.536,1.528,3.067,3.06,4.595,4.596c0.551,0.556,0.531,1.209-0.045,1.759
			C-15.113,71.58-17.803,72.645-20.933,72.698z M-15.182,68.47c-1.029-1.026-2.043-2.041-3.068-3.043
			c-0.061-0.058-0.25-0.044-0.346,0.006c-1.53,0.771-3.063,0.779-4.584-0.006c-0.212-0.111-0.321-0.069-0.471,0.083
			c-0.614,0.63-1.239,1.246-1.86,1.868c-0.366,0.362-0.735,0.721-1.106,1.087C-23.431,71.083-18.442,71.087-15.182,68.47z"/>
		<path fill="#263238" d="M-30.172,62.663c0.371,0,0.74-0.008,1.112,0c0.629,0.014,1.101,0.486,1.102,1.105
			c0.001,0.619-0.466,1.107-1.091,1.115c-0.754,0.011-1.507,0.011-2.258,0.002c-0.629-0.008-1.101-0.491-1.104-1.107
			c-0.002-0.616,0.468-1.101,1.091-1.116C-30.936,62.655-30.553,62.663-30.172,62.663z"/>
		<path fill="#263238" d="M-12.76,80.858c-0.718,0-1.434,0.002-2.15,0c-0.681-0.007-1.164-0.481-1.159-1.129
			c0.005-0.631,0.489-1.097,1.151-1.097c1.458-0.005,2.915-0.005,4.373-0.003c0.684,0.003,1.164,0.477,1.159,1.127
			c-0.008,0.632-0.486,1.095-1.151,1.098C-11.28,80.86-12.019,80.858-12.76,80.858z"/>
		<path fill="#263238" d="M-30.185,79.756c-0.004,0.628-0.508,1.113-1.141,1.103c-0.61-0.015-1.086-0.508-1.084-1.124
			c0.004-0.631,0.508-1.116,1.142-1.102C-30.658,78.644-30.18,79.141-30.185,79.756z"/>
		<path fill="#263238" d="M-26.843,80.858c-0.628,0-1.118-0.5-1.111-1.136c0.008-0.609,0.5-1.093,1.114-1.093
			c0.629,0,1.12,0.5,1.111,1.132C-25.735,80.374-26.228,80.858-26.843,80.858z"/>
		<path fill="#263238" d="M-22.396,80.858c-0.627-0.007-1.112-0.512-1.1-1.146c0.011-0.608,0.508-1.087,1.124-1.082
			c0.626,0.006,1.112,0.511,1.101,1.143C-21.284,80.386-21.778,80.86-22.396,80.858z"/>
	</g>
</g>
</svg>
