<?xml version="1.0" encoding="utf-8"?>
<!-- Generator: Adobe Illustrator 16.0.3, SVG Export Plug-In . SVG Version: 6.00 Build 0)  -->
<!DOCTYPE svg PUBLIC "-//W3C//DTD SVG 1.1//EN" "http://www.w3.org/Graphics/SVG/1.1/DTD/svg11.dtd">
<svg version="1.1" id="Layer_1" xmlns="http://www.w3.org/2000/svg" xmlns:xlink="http://www.w3.org/1999/xlink" x="0px" y="0px"
	 width="257.252px" height="50px" viewBox="-53.329 52.014 257.252 50" enable-background="new -53.329 52.014 257.252 50"
	 xml:space="preserve">
<g>
	<path fill="#F3726A" d="M117.014,1754.814c-0.445,0-0.885-0.037-1.313-0.111l1.313,3.104l1.315-3.104
		C117.898,1754.777,117.459,1754.814,117.014,1754.814z"/>
	<path fill="#F3726A" d="M134.908,1758.674c-1.596,0-2.895,1.297-2.895,2.893c0,1.598,1.299,2.896,2.895,2.896
		s2.895-1.299,2.895-2.896C137.803,1759.971,136.504,1758.674,134.908,1758.674z M134.908,1762.531
		c-0.533,0-0.965-0.434-0.965-0.965c0-0.533,0.432-0.965,0.965-0.965s0.965,0.432,0.965,0.965
		C135.873,1762.099,135.441,1762.531,134.908,1762.531z"/>
	<path fill="#F3726A" d="M123.268,1725.057c-13.808,0-25,11.191-25,25c0,13.807,11.192,25,25,25c13.809,0,25-11.193,25-25
		C148.268,1736.248,137.074,1725.057,123.268,1725.057z M134.908,1766.392c-2.66,0-4.824-2.163-4.824-4.823
		c0-2.328,1.66-4.277,3.859-4.729v-2.282c0-1.985-1.615-3.601-3.604-3.601c-1.984,0-3.604,1.613-3.604,3.601v6.616
		c0,2.947-2.396,5.345-5.346,5.345c-2.947,0-5.346-2.396-5.346-5.345v-0.696l-2.813-6.642c-0.313-0.174-0.619-0.371-0.91-0.592
		c-1.362-1.025-2.329-2.438-2.799-4.076l-2.562-8.96c-0.362-1.274-0.112-2.61,0.685-3.666c0.797-1.058,2.014-1.663,3.336-1.663
		h0.562v-0.321c0-0.532,0.433-0.965,0.965-0.965c0.533,0,0.966,0.433,0.966,0.965v2.571c0,0.533-0.433,0.965-0.966,0.965
		c-0.532,0-0.965-0.432-0.965-0.965v-0.321h-0.562c-0.711,0-1.366,0.327-1.797,0.896c-0.43,0.566-0.563,1.29-0.367,1.975
		l2.562,8.961c0.716,2.5,3.029,4.246,5.632,4.246c2.6,0,4.916-1.746,5.631-4.246l2.562-8.962c0.194-0.685,0.062-1.405-0.368-1.974
		c-0.429-0.569-1.083-0.896-1.797-0.896h-0.561v0.321c0,0.533-0.434,0.965-0.965,0.965c-0.533,0-0.966-0.432-0.966-0.965v-2.571
		c0-0.532,0.433-0.965,0.966-0.965c0.531,0,0.965,0.433,0.965,0.965v0.321h0.561c1.322,0,2.54,0.605,3.337,1.663
		c0.798,1.056,1.046,2.392,0.685,3.666l-2.562,8.96c-0.47,1.641-1.438,3.051-2.799,4.076c-0.291,0.221-0.597,0.418-0.909,0.592
		l-2.813,6.642v0.696c0,1.884,1.531,3.416,3.416,3.416s3.418-1.532,3.418-3.416v-6.616c0-3.049,2.479-5.528,5.528-5.528
		c3.052,0,5.531,2.479,5.531,5.528v2.282c2.198,0.449,3.856,2.398,3.856,4.729C139.73,1764.229,137.566,1766.392,134.908,1766.392z"
		/>
</g>
<g>
	<path fill="#F3726A" d="M117.014,1754.814c-0.445,0-0.885-0.037-1.313-0.111l1.313,3.104l1.315-3.104
		C117.898,1754.777,117.459,1754.814,117.014,1754.814z"/>
	<path fill="#F3726A" d="M134.908,1758.674c-1.596,0-2.895,1.297-2.895,2.893c0,1.598,1.299,2.896,2.895,2.896
		s2.895-1.299,2.895-2.896C137.803,1759.971,136.504,1758.674,134.908,1758.674z M134.908,1762.531
		c-0.533,0-0.965-0.434-0.965-0.965c0-0.533,0.432-0.965,0.965-0.965s0.965,0.432,0.965,0.965
		C135.873,1762.099,135.441,1762.531,134.908,1762.531z"/>
	<path fill="#F3726A" d="M123.268,1725.057c-13.808,0-25,11.191-25,25c0,13.807,11.192,25,25,25c13.809,0,25-11.193,25-25
		C148.268,1736.248,137.074,1725.057,123.268,1725.057z M134.908,1766.392c-2.66,0-4.824-2.163-4.824-4.823
		c0-2.328,1.66-4.277,3.859-4.729v-2.282c0-1.985-1.615-3.601-3.604-3.601c-1.984,0-3.604,1.613-3.604,3.601v6.616
		c0,2.947-2.396,5.345-5.346,5.345c-2.947,0-5.346-2.396-5.346-5.345v-0.696l-2.813-6.642c-0.313-0.174-0.619-0.371-0.91-0.592
		c-1.362-1.025-2.329-2.438-2.799-4.076l-2.562-8.96c-0.362-1.274-0.112-2.61,0.685-3.666c0.797-1.058,2.014-1.663,3.336-1.663
		h0.562v-0.321c0-0.532,0.433-0.965,0.965-0.965c0.533,0,0.966,0.433,0.966,0.965v2.571c0,0.533-0.433,0.965-0.966,0.965
		c-0.532,0-0.965-0.432-0.965-0.965v-0.321h-0.562c-0.711,0-1.366,0.327-1.797,0.896c-0.43,0.566-0.563,1.29-0.367,1.975
		l2.562,8.961c0.716,2.5,3.029,4.246,5.632,4.246c2.6,0,4.916-1.746,5.631-4.246l2.562-8.962c0.194-0.685,0.062-1.405-0.368-1.974
		c-0.429-0.569-1.083-0.896-1.797-0.896h-0.561v0.321c0,0.533-0.434,0.965-0.965,0.965c-0.533,0-0.966-0.432-0.966-0.965v-2.571
		c0-0.532,0.433-0.965,0.966-0.965c0.531,0,0.965,0.433,0.965,0.965v0.321h0.561c1.322,0,2.54,0.605,3.337,1.663
		c0.798,1.056,1.046,2.392,0.685,3.666l-2.562,8.96c-0.47,1.641-1.438,3.051-2.799,4.076c-0.291,0.221-0.597,0.418-0.909,0.592
		l-2.813,6.642v0.696c0,1.884,1.531,3.416,3.416,3.416s3.418-1.532,3.418-3.416v-6.616c0-3.049,2.479-5.528,5.528-5.528
		c3.052,0,5.531,2.479,5.531,5.528v2.282c2.198,0.449,3.856,2.398,3.856,4.729C139.73,1764.229,137.566,1766.392,134.908,1766.392z"
		/>
</g>
<g>
	<g>
		<path fill="#F3726A" d="M203.924,94.15c0,4.344-3.519,7.863-7.863,7.863H-45.464c-4.343,0-7.864-3.52-7.864-7.863V59.875
			c0-4.343,3.521-7.862,7.864-7.862h241.525c4.345,0,7.863,3.519,7.863,7.862V94.15z"/>
	</g>
	<g>
		<g>
			<path fill="#FFFFFF" d="M5.382,65.838c0,3.768-2.289,5.765-5.082,5.765c-2.89,0-4.919-2.241-4.919-5.553
				c0-3.475,2.159-5.748,5.082-5.748C3.45,60.302,5.382,62.591,5.382,65.838z M-3.11,66.018c0,2.338,1.266,4.432,3.492,4.432
				c2.24,0,3.506-2.062,3.506-4.546c0-2.175-1.136-4.449-3.491-4.449C-1.94,61.455-3.11,63.615-3.11,66.018z"/>
			<path fill="#FFFFFF" d="M12.824,71.132c-0.374,0.195-1.201,0.455-2.257,0.455c-2.371,0-3.914-1.608-3.914-4.01
				c0-2.419,1.657-4.173,4.223-4.173c0.845,0,1.591,0.211,1.98,0.406l-0.325,1.104c-0.341-0.195-0.875-0.373-1.656-0.373
				c-1.803,0-2.776,1.332-2.776,2.971c0,1.818,1.169,2.939,2.728,2.939c0.813,0,1.349-0.211,1.754-0.39L12.824,71.132z"/>
			<path fill="#FFFFFF" d="M20.069,63.566v1.135h-2.452v6.722h-1.412v-6.722h-2.452v-1.135H20.069z"/>
			<path fill="#FFFFFF" d="M21.323,66.131c0-1.007-0.033-1.819-0.065-2.565h1.282l0.065,1.347h0.034
				c0.585-0.958,1.51-1.526,2.792-1.526c1.9,0,3.329,1.606,3.329,3.993c0,2.825-1.721,4.222-3.572,4.222
				c-1.04,0-1.948-0.455-2.419-1.235h-0.032v4.271h-1.412L21.323,66.131L21.323,66.131z M22.736,68.225
				c0,0.212,0.032,0.407,0.065,0.585c0.26,0.991,1.121,1.671,2.143,1.671c1.511,0,2.387-1.233,2.387-3.037
				c0-1.574-0.829-2.922-2.338-2.922c-0.975,0-1.883,0.699-2.16,1.769c-0.049,0.179-0.097,0.39-0.097,0.585V68.225z"/>
			<path fill="#FFFFFF" d="M31.947,63.566v2.679c0.309-0.065,0.762-0.098,1.282-0.098c1.689,0,3.393,0.699,3.393,2.631
				c0,0.829-0.309,1.397-0.813,1.818c-0.859,0.731-2.126,0.91-3.165,0.91c-0.794,0-1.526-0.048-2.111-0.114v-7.826H31.947z
				 M31.947,70.433c0.276,0.032,0.585,0.065,0.989,0.065c1.089,0,2.273-0.455,2.273-1.672c0-1.267-1.136-1.655-2.208-1.655
				c-0.406,0-0.762,0.033-1.055,0.081V70.433z M39.026,63.566v7.858h-1.412v-7.858H39.026z"/>
			<path fill="#FFFFFF" d="M42.686,63.566v3.311c0,1.251-0.018,2.031-0.083,3.15l0.049,0.017c0.471-0.958,0.747-1.51,1.266-2.419
				l2.453-4.059h1.672v7.858h-1.364v-3.327c0-1.283,0.032-1.948,0.097-3.215h-0.048c-0.505,1.007-0.846,1.64-1.299,2.436
				c-0.747,1.217-1.608,2.728-2.453,4.107h-1.64v-7.858H42.686z M43.612,60.366c0.047,0.699,0.389,1.235,1.04,1.235
				c0.698,0,1.022-0.52,1.102-1.235h1.023c-0.064,1.332-0.909,2.014-2.159,2.014c-1.429,0-1.982-0.894-2.045-2.014H43.612z"/>
			<path fill="#FFFFFF" d="M53.814,66.131c0-1.007-0.033-1.819-0.065-2.565h1.282l0.065,1.347h0.032
				c0.585-0.958,1.51-1.526,2.793-1.526c1.899,0,3.329,1.606,3.329,3.993c0,2.825-1.72,4.222-3.572,4.222
				c-1.04,0-1.949-0.455-2.419-1.235h-0.031v4.271h-1.413V66.131z M55.227,68.225c0,0.212,0.031,0.407,0.063,0.585
				c0.26,0.991,1.121,1.671,2.145,1.671c1.509,0,2.387-1.233,2.387-3.037c0-1.574-0.828-2.922-2.339-2.922
				c-0.974,0-1.883,0.699-2.16,1.769c-0.049,0.179-0.096,0.39-0.096,0.585V68.225z"/>
			<path fill="#FFFFFF" d="M70.168,67.431c0,2.905-2.013,4.172-3.914,4.172c-2.127,0-3.768-1.558-3.768-4.042
				c0-2.631,1.721-4.172,3.897-4.172C68.643,63.387,70.168,65.027,70.168,67.431z M63.933,67.511c0,1.721,0.99,3.02,2.387,3.02
				c1.363,0,2.387-1.282,2.387-3.052c0-1.332-0.665-3.019-2.353-3.019C64.663,64.459,63.933,66.018,63.933,67.511z"/>
			<path fill="#FFFFFF" d="M77.154,63.566v1.135h-2.452v6.722h-1.412v-6.722h-2.453v-1.135H77.154z"/>
			<path fill="#FFFFFF" d="M82.647,71.424l-0.114-0.989h-0.05c-0.437,0.617-1.281,1.168-2.402,1.168
				c-1.591,0-2.402-1.121-2.402-2.256c0-1.9,1.689-2.939,4.726-2.923v-0.163c0-0.648-0.179-1.818-1.785-1.818
				c-0.732,0-1.495,0.228-2.048,0.585l-0.324-0.941c0.649-0.422,1.592-0.698,2.581-0.698c2.403,0,2.987,1.639,2.987,3.215v2.939
				c0,0.681,0.032,1.347,0.13,1.882h-1.298V71.424z M82.433,67.413c-1.557-0.033-3.326,0.244-3.326,1.77
				c0,0.926,0.616,1.364,1.346,1.364c1.023,0,1.673-0.65,1.9-1.315c0.049-0.146,0.08-0.309,0.08-0.455V67.413z"/>
			<path fill="#FFFFFF" d="M86.093,63.663c0.553-0.097,1.573-0.179,2.5-0.179c1.315,0,3.491,0.211,3.491,1.965
				c0,0.974-0.748,1.575-1.642,1.769v0.033c1.153,0.163,1.998,0.812,1.998,1.949c0,2.062-2.598,2.321-4.141,2.321
				c-0.876,0-1.786-0.065-2.207-0.098V63.663L86.093,63.663z M87.44,70.482c0.405,0.049,0.698,0.065,1.153,0.065
				c0.958,0,2.388-0.228,2.388-1.364c0-1.136-1.137-1.38-2.501-1.38h-1.04V70.482z M87.457,66.862h1.07
				c1.056,0,2.142-0.309,2.142-1.235c0-0.78-0.682-1.153-2.109-1.153c-0.471,0-0.765,0.032-1.103,0.064V66.862z"/>
			<path fill="#FFFFFF" d="M95.563,63.566v3.311c0,1.251-0.017,2.031-0.082,3.15l0.049,0.017c0.471-0.958,0.747-1.51,1.269-2.419
				l2.45-4.059h1.672v7.858h-1.363v-3.327c0-1.283,0.031-1.948,0.097-3.215h-0.049c-0.503,1.007-0.844,1.64-1.299,2.436
				c-0.747,1.217-1.608,2.728-2.452,4.107h-1.64v-7.858H95.563z"/>
			<path fill="#FFFFFF" d="M103.247,66.131c0-1.007-0.033-1.819-0.065-2.565h1.282l0.065,1.347h0.031
				c0.585-0.958,1.508-1.526,2.793-1.526c1.898,0,3.326,1.606,3.326,3.993c0,2.825-1.72,4.222-3.572,4.222
				c-1.039,0-1.945-0.455-2.418-1.235h-0.033v4.271h-1.411v-8.507H103.247z M104.659,68.225c0,0.212,0.032,0.407,0.064,0.585
				c0.261,0.991,1.12,1.671,2.144,1.671c1.51,0,2.388-1.233,2.388-3.037c0-1.574-0.828-2.922-2.34-2.922
				c-0.974,0-1.883,0.699-2.158,1.769c-0.05,0.179-0.098,0.39-0.098,0.585V68.225z"/>
			<path fill="#FFFFFF" d="M112.848,63.566l1.722,4.643c0.177,0.52,0.373,1.136,0.503,1.607h0.032
				c0.145-0.471,0.309-1.072,0.503-1.64l1.559-4.61h1.51l-2.145,5.602c-1.021,2.695-1.722,4.076-2.694,4.92
				c-0.698,0.617-1.396,0.86-1.753,0.926l-0.358-1.202c0.358-0.114,0.826-0.341,1.251-0.699c0.39-0.309,0.876-0.859,1.201-1.59
				c0.066-0.146,0.114-0.26,0.114-0.34c0-0.082-0.032-0.195-0.098-0.374l-2.905-7.242L112.848,63.566L112.848,63.566z"/>
			<path fill="#FFFFFF" d="M125.436,71.132c-0.374,0.195-1.202,0.455-2.258,0.455c-2.371,0-3.912-1.608-3.912-4.01
				c0-2.419,1.655-4.173,4.22-4.173c0.844,0,1.592,0.211,1.98,0.406l-0.324,1.104c-0.34-0.195-0.876-0.373-1.656-0.373
				c-1.801,0-2.776,1.332-2.776,2.971c0,1.818,1.169,2.939,2.729,2.939c0.812,0,1.346-0.211,1.753-0.39L125.436,71.132z"/>
			<path fill="#FFFFFF" d="M128.492,63.566v3.165h3.734v-3.165h1.415v7.858h-1.415v-3.555h-3.734v3.555h-1.412v-7.858H128.492z"/>
			<path fill="#FFFFFF" d="M137.361,63.566v2.679c0.311-0.065,0.765-0.098,1.284-0.098c1.688,0,3.394,0.699,3.394,2.631
				c0,0.829-0.31,1.397-0.813,1.818c-0.86,0.731-2.126,0.91-3.165,0.91c-0.797,0-1.526-0.048-2.111-0.114v-7.826H137.361z
				 M137.361,70.433c0.278,0.032,0.587,0.065,0.992,0.065c1.086,0,2.273-0.455,2.273-1.672c0-1.267-1.139-1.655-2.209-1.655
				c-0.406,0-0.763,0.033-1.057,0.081V70.433z M144.441,63.566v7.858h-1.412v-7.858H144.441z"/>
			<path fill="#FFFFFF" d="M148.1,63.566v3.311c0,1.251-0.017,2.031-0.082,3.15l0.049,0.017c0.472-0.958,0.747-1.51,1.268-2.419
				l2.451-4.059h1.673v7.858h-1.366v-3.327c0-1.283,0.033-1.948,0.098-3.215h-0.047c-0.503,1.007-0.844,1.64-1.299,2.436
				c-0.748,1.217-1.608,2.728-2.453,4.107h-1.64v-7.858H148.1z M149.024,60.366c0.049,0.699,0.391,1.235,1.039,1.235
				c0.7,0,1.025-0.52,1.104-1.235h1.024c-0.066,1.332-0.911,2.014-2.16,2.014c-1.431,0-1.981-0.894-2.047-2.014H149.024z"/>
			<path fill="#FFFFFF" d="M29.751,83.061v1.153h-3.41v6.705h-1.412v-7.858H29.751z"/>
			<path fill="#FFFFFF" d="M35.34,90.919l-0.115-0.989h-0.048c-0.438,0.616-1.283,1.168-2.403,1.168
				c-1.591,0-2.404-1.12-2.404-2.257c0-1.898,1.688-2.939,4.725-2.923v-0.16c0-0.65-0.18-1.82-1.785-1.82
				c-0.731,0-1.495,0.228-2.046,0.585l-0.325-0.94c0.65-0.424,1.59-0.698,2.581-0.698c2.403,0,2.988,1.639,2.988,3.212v2.94
				c0,0.683,0.031,1.349,0.13,1.884L35.34,90.919L35.34,90.919z M35.128,86.909c-1.558-0.033-3.328,0.243-3.328,1.769
				c0,0.927,0.618,1.366,1.349,1.366c1.022,0,1.672-0.649,1.899-1.317c0.049-0.145,0.081-0.309,0.081-0.454v-1.363H35.128z"/>
			<path fill="#FFFFFF" d="M44.419,90.626c-0.372,0.195-1.202,0.454-2.257,0.454c-2.371,0-3.913-1.607-3.913-4.011
				c0-2.42,1.656-4.173,4.221-4.173c0.845,0,1.592,0.212,1.981,0.407l-0.324,1.103c-0.341-0.194-0.875-0.371-1.657-0.371
				c-1.802,0-2.776,1.331-2.776,2.971c0,1.819,1.168,2.938,2.729,2.938c0.812,0,1.347-0.21,1.753-0.389L44.419,90.626z"/>
			<path fill="#FFFFFF" d="M51.665,83.061v1.137h-2.452v6.722h-1.412v-6.722h-2.453v-1.137H51.665z"/>
			<path fill="#FFFFFF" d="M52.92,85.626c0-1.007-0.032-1.818-0.064-2.565h1.282l0.064,1.346h0.033
				c0.585-0.957,1.51-1.525,2.793-1.525c1.899,0,3.329,1.609,3.329,3.994c0,2.825-1.72,4.221-3.573,4.221
				c-1.04,0-1.948-0.454-2.419-1.233h-0.031v4.271H52.92V85.626z M54.333,87.721c0,0.211,0.031,0.406,0.063,0.586
				c0.26,0.989,1.121,1.671,2.144,1.671c1.51,0,2.387-1.234,2.387-3.035c0-1.576-0.827-2.925-2.339-2.925
				c-0.974,0-1.883,0.701-2.16,1.771c-0.048,0.179-0.096,0.391-0.096,0.585V87.721z"/>
			<path fill="#FFFFFF" d="M69.275,86.925c0,2.905-2.014,4.173-3.914,4.173c-2.126,0-3.768-1.559-3.768-4.042
				c0-2.629,1.721-4.172,3.898-4.172C67.75,82.884,69.275,84.522,69.275,86.925z M63.04,87.006c0,1.721,0.99,3.021,2.387,3.021
				c1.363,0,2.387-1.283,2.387-3.053c0-1.33-0.665-3.02-2.353-3.02C63.77,83.954,63.04,85.512,63.04,87.006z"/>
			<path fill="#FFFFFF" d="M71.406,86.438h3.963c-0.13-1.346-0.958-2.451-2.711-2.451c-0.828,0-1.461,0.243-1.883,0.438l-0.31-0.928
				c0.682-0.389,1.592-0.616,2.419-0.616c1.137,0,2.16,0.39,2.858,1.12c0.664,0.699,1.07,1.737,1.07,3.018
				c0,2.29-1.51,4.077-4.172,4.077c-0.843,0-1.656-0.211-2.289-0.536l0.276-1.023c0.374,0.163,1.04,0.423,1.964,0.423
				c1.575,0,2.631-0.988,2.76-2.549h-3.946v-0.973H71.406z"/>
			<path fill="#FFFFFF" d="M80,83.061v3.165h3.733v-3.165h1.415v7.858h-1.415v-3.557H80v3.557h-1.411v-7.858H80z"/>
			<path fill="#FFFFFF" d="M92.748,83.061v1.137h-2.451v6.722h-1.412v-6.722h-2.454v-1.137H92.748z"/>
			<path fill="#FFFFFF" d="M94.588,87.249c0.032,1.933,1.267,2.729,2.695,2.729c1.023,0,1.64-0.179,2.175-0.405l0.245,1.021
				c-0.504,0.228-1.366,0.486-2.614,0.486c-2.419,0-3.864-1.592-3.864-3.961c0-2.371,1.396-4.238,3.688-4.238
				c2.564,0,3.246,2.258,3.246,3.702c0,0.292-0.033,0.52-0.05,0.665L94.588,87.249L94.588,87.249z M98.779,86.226
				c0.016-0.909-0.375-2.321-1.98-2.321c-1.446,0-2.079,1.331-2.192,2.321H98.779z"/>
			<path fill="#FFFFFF" d="M101.934,85.626c0-1.007-0.035-1.818-0.067-2.565h1.283l0.064,1.346h0.031
				c0.585-0.957,1.51-1.525,2.793-1.525c1.9,0,3.328,1.609,3.328,3.994c0,2.825-1.722,4.221-3.572,4.221
				c-1.039,0-1.946-0.454-2.418-1.233h-0.033v4.271h-1.412v-8.507H101.934z M103.345,87.721c0,0.211,0.032,0.406,0.063,0.586
				c0.261,0.989,1.121,1.671,2.145,1.671c1.51,0,2.388-1.234,2.388-3.035c0-1.576-0.829-2.925-2.34-2.925
				c-0.975,0-1.884,0.701-2.159,1.771c-0.049,0.179-0.097,0.391-0.097,0.585V87.721z"/>
			<path fill="#FFFFFF" d="M112.491,83.061v3.311c0,1.251-0.018,2.029-0.082,3.15l0.049,0.018c0.472-0.957,0.747-1.51,1.268-2.42
				l2.451-4.059h1.671v7.858h-1.361V87.59c0-1.282,0.03-1.946,0.096-3.214h-0.05c-0.501,1.006-0.843,1.64-1.298,2.436
				c-0.747,1.218-1.609,2.728-2.452,4.107h-1.64v-7.858H112.491z"/>
			<path fill="#FFFFFF" d="M125.436,83.061v1.137h-2.452v6.722h-1.412v-6.722h-2.454v-1.137H125.436z"/>
		</g>
	</g>
</g>
</svg>
