<?xml version="1.0" encoding="utf-8"?>
<!-- Generator: Adobe Illustrator 16.0.3, SVG Export Plug-In . SVG Version: 6.00 Build 0)  -->
<!DOCTYPE svg PUBLIC "-//W3C//DTD SVG 1.1//EN" "http://www.w3.org/Graphics/SVG/1.1/DTD/svg11.dtd">
<svg version="1.1" id="Layer_1" xmlns="http://www.w3.org/2000/svg" xmlns:xlink="http://www.w3.org/1999/xlink" x="0px" y="0px"
	 width="257.268px" height="50px" viewBox="-53.634 46.364 257.268 50" enable-background="new -53.634 46.364 257.268 50"
	 xml:space="preserve">
<g>
	<path fill="#F3726A" d="M117.014,1754.814c-0.445,0-0.885-0.037-1.313-0.111l1.313,3.104l1.315-3.104
		C117.898,1754.777,117.459,1754.814,117.014,1754.814z"/>
	<path fill="#F3726A" d="M134.908,1758.674c-1.596,0-2.895,1.297-2.895,2.893c0,1.598,1.299,2.896,2.895,2.896
		s2.895-1.299,2.895-2.896C137.803,1759.971,136.504,1758.674,134.908,1758.674z M134.908,1762.531
		c-0.533,0-0.965-0.434-0.965-0.965c0-0.533,0.432-0.965,0.965-0.965s0.965,0.432,0.965,0.965
		C135.873,1762.099,135.441,1762.531,134.908,1762.531z"/>
	<path fill="#F3726A" d="M123.268,1725.057c-13.808,0-25,11.191-25,25c0,13.807,11.192,25,25,25c13.809,0,25-11.193,25-25
		C148.268,1736.248,137.074,1725.057,123.268,1725.057z M134.908,1766.392c-2.66,0-4.824-2.163-4.824-4.823
		c0-2.328,1.66-4.277,3.859-4.729v-2.282c0-1.985-1.615-3.601-3.604-3.601c-1.984,0-3.604,1.613-3.604,3.601v6.616
		c0,2.947-2.396,5.345-5.346,5.345c-2.947,0-5.346-2.396-5.346-5.345v-0.696l-2.813-6.642c-0.313-0.174-0.619-0.371-0.91-0.592
		c-1.362-1.025-2.329-2.438-2.799-4.076l-2.562-8.96c-0.362-1.274-0.112-2.61,0.685-3.666c0.797-1.058,2.014-1.663,3.336-1.663
		h0.562v-0.321c0-0.532,0.433-0.965,0.965-0.965c0.533,0,0.966,0.433,0.966,0.965v2.571c0,0.533-0.433,0.965-0.966,0.965
		c-0.532,0-0.965-0.432-0.965-0.965v-0.321h-0.562c-0.711,0-1.366,0.327-1.797,0.896c-0.43,0.566-0.563,1.29-0.367,1.975
		l2.562,8.961c0.716,2.5,3.029,4.246,5.632,4.246c2.6,0,4.916-1.746,5.631-4.246l2.562-8.962c0.194-0.685,0.062-1.405-0.368-1.974
		c-0.429-0.569-1.083-0.896-1.797-0.896h-0.561v0.321c0,0.533-0.434,0.965-0.965,0.965c-0.533,0-0.966-0.432-0.966-0.965v-2.571
		c0-0.532,0.433-0.965,0.966-0.965c0.531,0,0.965,0.433,0.965,0.965v0.321h0.561c1.322,0,2.54,0.605,3.337,1.663
		c0.798,1.056,1.046,2.392,0.685,3.666l-2.562,8.96c-0.47,1.641-1.438,3.051-2.799,4.076c-0.291,0.221-0.597,0.418-0.909,0.592
		l-2.813,6.642v0.696c0,1.884,1.531,3.416,3.416,3.416s3.418-1.532,3.418-3.416v-6.616c0-3.049,2.479-5.528,5.528-5.528
		c3.052,0,5.531,2.479,5.531,5.528v2.282c2.198,0.449,3.856,2.398,3.856,4.729C139.73,1764.229,137.566,1766.392,134.908,1766.392z"
		/>
</g>
<g>
	<path fill="#F3726A" d="M117.014,1754.814c-0.445,0-0.885-0.037-1.313-0.111l1.313,3.104l1.315-3.104
		C117.898,1754.777,117.459,1754.814,117.014,1754.814z"/>
	<path fill="#F3726A" d="M134.908,1758.674c-1.596,0-2.895,1.297-2.895,2.893c0,1.598,1.299,2.896,2.895,2.896
		s2.895-1.299,2.895-2.896C137.803,1759.971,136.504,1758.674,134.908,1758.674z M134.908,1762.531
		c-0.533,0-0.965-0.434-0.965-0.965c0-0.533,0.432-0.965,0.965-0.965s0.965,0.432,0.965,0.965
		C135.873,1762.099,135.441,1762.531,134.908,1762.531z"/>
	<path fill="#F3726A" d="M123.268,1725.057c-13.808,0-25,11.191-25,25c0,13.807,11.192,25,25,25c13.809,0,25-11.193,25-25
		C148.268,1736.248,137.074,1725.057,123.268,1725.057z M134.908,1766.392c-2.66,0-4.824-2.163-4.824-4.823
		c0-2.328,1.66-4.277,3.859-4.729v-2.282c0-1.985-1.615-3.601-3.604-3.601c-1.984,0-3.604,1.613-3.604,3.601v6.616
		c0,2.947-2.396,5.345-5.346,5.345c-2.947,0-5.346-2.396-5.346-5.345v-0.696l-2.813-6.642c-0.313-0.174-0.619-0.371-0.91-0.592
		c-1.362-1.025-2.329-2.438-2.799-4.076l-2.562-8.96c-0.362-1.274-0.112-2.61,0.685-3.666c0.797-1.058,2.014-1.663,3.336-1.663
		h0.562v-0.321c0-0.532,0.433-0.965,0.965-0.965c0.533,0,0.966,0.433,0.966,0.965v2.571c0,0.533-0.433,0.965-0.966,0.965
		c-0.532,0-0.965-0.432-0.965-0.965v-0.321h-0.562c-0.711,0-1.366,0.327-1.797,0.896c-0.43,0.566-0.563,1.29-0.367,1.975
		l2.562,8.961c0.716,2.5,3.029,4.246,5.632,4.246c2.6,0,4.916-1.746,5.631-4.246l2.562-8.962c0.194-0.685,0.062-1.405-0.368-1.974
		c-0.429-0.569-1.083-0.896-1.797-0.896h-0.561v0.321c0,0.533-0.434,0.965-0.965,0.965c-0.533,0-0.966-0.432-0.966-0.965v-2.571
		c0-0.532,0.433-0.965,0.966-0.965c0.531,0,0.965,0.433,0.965,0.965v0.321h0.561c1.322,0,2.54,0.605,3.337,1.663
		c0.798,1.056,1.046,2.392,0.685,3.666l-2.562,8.96c-0.47,1.641-1.438,3.051-2.799,4.076c-0.291,0.221-0.597,0.418-0.909,0.592
		l-2.813,6.642v0.696c0,1.884,1.531,3.416,3.416,3.416s3.418-1.532,3.418-3.416v-6.616c0-3.049,2.479-5.528,5.528-5.528
		c3.052,0,5.531,2.479,5.531,5.528v2.282c2.198,0.449,3.856,2.398,3.856,4.729C139.73,1764.229,137.566,1766.392,134.908,1766.392z"
		/>
</g>
<g>
	<g>
		<g>
			<path fill="#F3726A" d="M203.634,88.5c0,4.345-3.52,7.864-7.864,7.864h-241.54c-4.343,0-7.864-3.52-7.864-7.864V54.227
				c0-4.345,3.521-7.862,7.864-7.862h241.54c4.345,0,7.864,3.518,7.864,7.862V88.5L203.634,88.5z"/>
		</g>
		<g>
			<g>
				<path fill="#FFFFFF" d="M11.791,55.184c0.681-0.113,1.575-0.211,2.712-0.211c1.396,0,2.419,0.325,3.069,0.911
					c0.601,0.52,0.958,1.314,0.958,2.289c0,0.99-0.292,1.769-0.845,2.338c-0.748,0.794-1.965,1.202-3.346,1.202
					c-0.422,0-0.812-0.016-1.136-0.097v4.383h-1.412V55.184H11.791z M13.203,60.461c0.309,0.082,0.699,0.114,1.168,0.114
					c1.705,0,2.745-0.828,2.745-2.338c0-1.445-1.022-2.144-2.583-2.144c-0.617,0-1.088,0.049-1.331,0.114V60.461z"/>
				<path fill="#FFFFFF" d="M24.315,65.998l-0.114-0.989h-0.049c-0.438,0.616-1.282,1.168-2.403,1.168
					c-1.59,0-2.403-1.121-2.403-2.257c0-1.9,1.688-2.939,4.725-2.923v-0.163c0-0.648-0.179-1.818-1.786-1.818
					c-0.731,0-1.493,0.228-2.045,0.584l-0.325-0.941c0.65-0.422,1.592-0.699,2.582-0.699c2.403,0,2.988,1.64,2.988,3.216v2.938
					c0,0.683,0.032,1.349,0.129,1.885h-1.299V65.998z M24.104,61.987c-1.559-0.032-3.33,0.244-3.33,1.77
					c0,0.926,0.618,1.365,1.349,1.365c1.023,0,1.672-0.65,1.9-1.315c0.048-0.147,0.082-0.309,0.082-0.456V61.987z"/>
				<path fill="#FFFFFF" d="M33.396,65.706c-0.374,0.196-1.201,0.455-2.257,0.455c-2.371,0-3.914-1.608-3.914-4.01
					c0-2.419,1.657-4.174,4.223-4.174c0.845,0,1.591,0.21,1.981,0.406l-0.325,1.103c-0.341-0.195-0.876-0.372-1.656-0.372
					c-1.803,0-2.777,1.331-2.777,2.97c0,1.819,1.17,2.94,2.728,2.94c0.813,0,1.349-0.211,1.753-0.389L33.396,65.706z"/>
				<path fill="#FFFFFF" d="M36.435,58.14v6.739h2.744V58.14h1.397v6.739h2.744V58.14h1.412v7.858h-9.694V58.14H36.435z"/>
				<path fill="#FFFFFF" d="M48.376,58.14v3.311c0,1.251-0.016,2.031-0.081,3.151l0.049,0.016c0.471-0.958,0.747-1.509,1.267-2.419
					l2.452-4.058h1.672v7.858h-1.363V62.67c0-1.283,0.033-1.948,0.097-3.215H52.42c-0.503,1.007-0.845,1.639-1.298,2.436
					c-0.747,1.217-1.608,2.728-2.451,4.107h-1.642V58.14H48.376z"/>
				<path fill="#FFFFFF" d="M56.063,60.705c0-1.007-0.033-1.818-0.065-2.565h1.282l0.065,1.346h0.032
					c0.585-0.958,1.51-1.525,2.793-1.525c1.9,0,3.33,1.607,3.33,3.994c0,2.825-1.721,4.222-3.573,4.222
					c-1.04,0-1.948-0.456-2.419-1.235h-0.032v4.271h-1.412V60.705z M57.475,62.799c0,0.211,0.032,0.406,0.064,0.585
					c0.26,0.991,1.122,1.672,2.144,1.672c1.511,0,2.387-1.232,2.387-3.036c0-1.575-0.829-2.922-2.338-2.922
					c-0.975,0-1.883,0.698-2.16,1.769c-0.049,0.179-0.097,0.39-0.097,0.585V62.799z"/>
				<path fill="#FFFFFF" d="M66.102,62.328c0.032,1.932,1.267,2.727,2.695,2.727c1.022,0,1.64-0.177,2.176-0.405l0.244,1.024
					c-0.504,0.227-1.364,0.486-2.615,0.486c-2.419,0-3.864-1.593-3.864-3.963s1.397-4.237,3.687-4.237
					c2.566,0,3.248,2.257,3.248,3.701c0,0.293-0.033,0.521-0.049,0.667h-5.522V62.328z M70.29,61.306
					c0.017-0.909-0.374-2.322-1.98-2.322c-1.445,0-2.079,1.331-2.192,2.322H70.29z"/>
				<path fill="#FFFFFF" d="M74.826,58.14v3.165h3.734V58.14h1.413v7.858H78.56v-3.555h-3.734v3.555h-1.412V58.14H74.826z"/>
				<path fill="#FFFFFF" d="M83.695,58.14v3.165h3.735V58.14h1.412v7.858h-1.412v-3.555h-3.735v3.555h-1.413V58.14H83.695z"/>
				<path fill="#FFFFFF" d="M95.538,65.998l-0.113-0.989h-0.051c-0.437,0.616-1.282,1.168-2.4,1.168
					c-1.592,0-2.402-1.121-2.402-2.257c0-1.9,1.687-2.939,4.724-2.923v-0.163c0-0.648-0.18-1.818-1.786-1.818
					c-0.729,0-1.495,0.228-2.046,0.584l-0.325-0.941c0.648-0.422,1.592-0.699,2.583-0.699c2.402,0,2.987,1.64,2.987,3.216v2.938
					c0,0.683,0.03,1.349,0.13,1.885h-1.3V65.998z M95.326,61.987c-1.56-0.032-3.329,0.244-3.329,1.77
					c0,0.926,0.619,1.365,1.349,1.365c1.023,0,1.672-0.65,1.899-1.315c0.047-0.147,0.081-0.309,0.081-0.456V61.987z"/>
				<path fill="#FFFFFF" d="M104.862,65.998h-1.412v-3.296h-1.056c-0.599,0-1.006,0.163-1.316,0.439
					c-0.585,0.471-0.793,1.444-1.103,2.208c-0.097,0.244-0.211,0.455-0.324,0.648h-1.527c0.178-0.26,0.342-0.551,0.487-0.892
					c0.341-0.764,0.535-1.787,1.234-2.371c0.243-0.211,0.534-0.39,0.89-0.455v-0.048c-1.021-0.114-2.077-0.748-2.077-1.948
					c0-0.813,0.438-1.364,1.039-1.705c0.65-0.374,1.608-0.536,2.632-0.536c0.939,0,1.85,0.082,2.533,0.163V65.998L104.862,65.998z
					 M103.45,59.082c-0.357-0.049-0.683-0.082-1.185-0.082c-0.977,0-2.129,0.276-2.129,1.364c0,1.007,1.252,1.363,2.094,1.363
					c0.586,0,0.895,0,1.22,0V59.082z"/>
				<path fill="#FFFFFF" d="M116.573,55.476c-0.404,0.146-1.118,0.276-1.64,0.357c-1.267,0.195-2.191,0.618-2.792,1.477
					c-0.502,0.715-0.796,1.77-0.86,2.598h0.047c0.503-1.136,1.609-1.769,2.73-1.769c1.931,0,3.345,1.381,3.345,3.88
					c0,2.565-1.332,4.157-3.64,4.157c-2.761,0-3.67-2.647-3.67-5.262c0-1.786,0.374-3.248,1.218-4.351
					c0.764-1.087,1.851-1.591,3.377-1.851c0.636-0.097,1.412-0.228,1.948-0.422L116.573,55.476z M113.766,59.194
					c-0.844,0-1.444,0.439-1.77,1.072c-0.259,0.471-0.392,1.04-0.392,1.672c0,1.298,0.635,3.167,2.192,3.167
					c1.576,0,2.16-1.527,2.16-2.972C115.957,60.851,115.455,59.194,113.766,59.194z"/>
				<path fill="#FFFFFF" d="M120.524,58.14v3.311c0,1.251-0.017,2.031-0.08,3.151l0.048,0.016c0.471-0.958,0.748-1.509,1.267-2.419
					l2.451-4.058h1.674v7.858h-1.364V62.67c0-1.283,0.031-1.948,0.098-3.215h-0.05c-0.503,1.007-0.844,1.639-1.299,2.436
					c-0.745,1.217-1.608,2.728-2.452,4.107h-1.64V58.14H120.524z"/>
				<path fill="#FFFFFF" d="M135.324,62.005c0,2.905-2.016,4.172-3.914,4.172c-2.128,0-3.768-1.559-3.768-4.043
					c0-2.63,1.722-4.173,3.897-4.173C133.796,57.96,135.324,59.6,135.324,62.005z M129.089,62.084c0,1.722,0.989,3.021,2.385,3.021
					c1.364,0,2.388-1.282,2.388-3.053c0-1.331-0.666-3.019-2.353-3.019C129.818,59.033,129.089,60.591,129.089,62.084z"/>
				<path fill="#FFFFFF" d="M137.585,58.14l1.118,1.688c0.294,0.439,0.537,0.845,0.796,1.284h0.051
					c0.259-0.471,0.518-0.877,0.78-1.298l1.103-1.672h1.541l-2.679,3.799l2.761,4.06h-1.623l-1.154-1.771
					c-0.311-0.455-0.568-0.892-0.844-1.363h-0.03c-0.262,0.472-0.537,0.894-0.83,1.363L137.439,66h-1.576l2.793-4.01l-2.663-3.848
					h1.592V58.14z"/>
				<path fill="#FFFFFF" d="M145.756,58.14v3.311c0,1.251-0.016,2.031-0.079,3.151l0.047,0.016c0.471-0.958,0.749-1.509,1.267-2.419
					l2.451-4.058h1.674v7.858h-1.364V62.67c0-1.283,0.032-1.948,0.098-3.215h-0.05c-0.502,1.007-0.844,1.639-1.299,2.436
					c-0.745,1.217-1.607,2.728-2.451,4.107h-1.639V58.14H145.756z"/>
				<path fill="#FFFFFF" d="M153.521,58.14h1.754l1.431,3.961c0.194,0.585,0.535,1.542,0.714,2.16h0.031
					c0.18-0.585,0.619-1.834,0.926-2.696l1.267-3.425h1.772l0.549,7.858h-1.361l-0.18-3.751c-0.048-0.845-0.114-1.85-0.145-2.809
					h-0.05c-0.212,0.714-0.422,1.346-0.861,2.549l-1.509,3.962h-1.04l-1.396-3.88c-0.243-0.748-0.584-1.883-0.778-2.615h-0.067
					c-0.03,0.926-0.079,1.965-0.13,2.826l-0.193,3.719h-1.316L153.521,58.14z"/>
				<path fill="#FFFFFF" d="M165.139,58.14v3.311c0,1.251-0.017,2.031-0.082,3.151l0.05,0.016c0.471-0.958,0.746-1.509,1.267-2.419
					l2.451-4.058h1.671v7.858h-1.361V62.67c0-1.283,0.031-1.948,0.095-3.215h-0.047c-0.503,1.007-0.844,1.639-1.299,2.436
					c-0.748,1.217-1.608,2.728-2.455,4.107h-1.64V58.14H165.139z"/>
				<path fill="#FFFFFF" d="M178.619,65.998h-1.412v-3.296h-1.056c-0.6,0-1.007,0.163-1.316,0.439
					c-0.585,0.471-0.793,1.444-1.103,2.208c-0.098,0.244-0.212,0.455-0.325,0.648h-1.526c0.178-0.26,0.342-0.551,0.487-0.892
					c0.341-0.764,0.536-1.787,1.234-2.371c0.243-0.211,0.534-0.39,0.892-0.455v-0.048c-1.021-0.114-2.079-0.748-2.079-1.948
					c0-0.813,0.439-1.364,1.039-1.705c0.651-0.374,1.609-0.536,2.632-0.536c0.941,0,1.851,0.082,2.533,0.163V65.998L178.619,65.998z
					 M177.207,59.082C176.85,59.033,176.524,59,176.022,59c-0.977,0-2.129,0.276-2.129,1.364c0,1.007,1.251,1.363,2.094,1.363
					c0.585,0,0.895,0,1.22,0V59.082L177.207,59.082z"/>
				<path fill="#FFFFFF" d="M76.222,77.635v3.411h0.341l2.957-3.411h1.737l-3.428,3.557c1.267,0.13,2.031,0.974,2.647,2.388
					c0.211,0.519,0.486,1.283,0.845,1.915h-1.495c-0.209-0.342-0.487-0.957-0.73-1.608c-0.536-1.268-1.268-1.851-2.597-1.851h-0.277
					v3.459h-1.413v-7.859H76.222z"/>
				<path fill="#FFFFFF" d="M82.592,80.2c0-1.005-0.031-1.816-0.066-2.565h1.283l0.065,1.349h0.032
					c0.584-0.957,1.51-1.525,2.792-1.525c1.9,0,3.329,1.607,3.329,3.993c0,2.826-1.72,4.223-3.572,4.223
					c-1.039,0-1.949-0.455-2.42-1.235h-0.031v4.27h-1.412V80.2z M84.004,82.297c0,0.208,0.031,0.404,0.066,0.584
					c0.259,0.989,1.118,1.672,2.142,1.672c1.51,0,2.388-1.235,2.388-3.036c0-1.576-0.828-2.924-2.338-2.924
					c-0.976,0-1.885,0.7-2.16,1.771c-0.048,0.177-0.098,0.389-0.098,0.584V82.297L84.004,82.297z"/>
				<path fill="#FFFFFF" d="M98.946,81.501c0,2.906-2.011,4.173-3.912,4.173c-2.127,0-3.767-1.559-3.767-4.042
					c0-2.631,1.722-4.173,3.897-4.173C97.421,77.458,98.946,79.098,98.946,81.501z M92.712,81.58c0,1.722,0.991,3.022,2.388,3.022
					c1.364,0,2.388-1.285,2.388-3.054c0-1.33-0.665-3.02-2.355-3.02C93.444,78.529,92.712,80.086,92.712,81.58z"/>
				<path fill="#FFFFFF" d="M100.724,77.733c0.553-0.099,1.573-0.181,2.499-0.181c1.316,0,3.493,0.211,3.493,1.964
					c0,0.977-0.749,1.576-1.643,1.772v0.031c1.153,0.163,1.999,0.813,1.999,1.948c0,2.062-2.599,2.322-4.141,2.322
					c-0.878,0-1.787-0.063-2.208-0.099V77.733z M102.069,84.553c0.407,0.05,0.698,0.065,1.153,0.065c0.96,0,2.388-0.227,2.388-1.364
					c0-1.137-1.137-1.382-2.502-1.382h-1.039V84.553z M102.088,80.933h1.071c1.055,0,2.142-0.31,2.142-1.235
					c0-0.779-0.683-1.152-2.11-1.152c-0.471,0-0.763,0.031-1.103,0.065V80.933z"/>
				<path fill="#FFFFFF" d="M110.192,77.635v3.313c0,1.251-0.016,2.028-0.079,3.149l0.048,0.016c0.471-0.957,0.748-1.51,1.267-2.419
					l2.451-4.06h1.674v7.859h-1.364v-3.329c0-1.283,0.03-1.946,0.098-3.213h-0.05c-0.503,1.005-0.844,1.64-1.299,2.436
					c-0.746,1.216-1.609,2.728-2.452,4.106h-1.639v-7.859H110.192z"/>
			</g>
		</g>
	</g>
	<g>
		<path fill="#263238" d="M-34.846,90.505c-0.068-0.026-0.132-0.061-0.201-0.077c-1.979-0.489-2.985-2.609-2.104-4.444
			c2.645-5.514,5.292-11.023,7.934-16.536c0.083-0.173,0.141-0.371,0.141-0.561c0.008-4.562,0.005-9.123,0.005-13.685
			c0-0.107,0-0.213,0-0.362c-0.695,0-1.358,0-2.02,0c-0.78,0-1.207-0.255-1.362-0.815c-0.157-0.563,0.102-1.026,0.787-1.404
			c5.697,0,11.396,0,17.092,0c0.458,0.217,0.806,0.518,0.818,1.073c0.014,0.644-0.451,1.134-1.095,1.143
			c-0.751,0.011-1.504,0.002-2.316,0.002c0,0.127,0,0.244,0,0.362c0,4.548-0.001,9.1,0.007,13.65c0,0.209,0.067,0.437,0.161,0.627
			c2.678,5.444,5.328,10.9,8.061,16.315c1.05,2.081-0.29,4.348-2.134,4.657c-0.034,0.005-0.063,0.034-0.096,0.053
			C-19.062,90.505-26.955,90.505-34.846,90.505z M-23.037,88.286c3.699,0,7.398-0.016,11.097,0.014
			c0.91,0.008,1.405-0.72,0.977-1.556c-1.308-2.562-2.577-5.146-3.817-7.744c-0.332-0.693-0.752-1.146-1.495-1.418
			c-1.809-0.669-3.564-1.488-5.383-2.128c-2.445-0.867-4.954-1.012-7.484-0.333c-0.237,0.063-0.405,0.161-0.521,0.402
			c-1.797,3.762-3.606,7.521-5.41,11.279c-0.067,0.143-0.136,0.296-0.154,0.452c-0.069,0.608,0.367,1.032,1.054,1.032
			C-30.459,88.286-26.747,88.286-23.037,88.286z M-26.818,56.99c0.845,0,1.667-0.005,2.49,0.003
			c0.643,0.005,1.148,0.497,1.149,1.104c0.001,0.613-0.497,1.102-1.145,1.11c-0.714,0.006-1.43,0-2.143,0.003
			c-0.117,0-0.235,0.011-0.347,0.016c0,0.793,0,1.54,0,2.328c0.157,0,0.291,0,0.422,0c0.653,0,1.309-0.016,1.959,0.008
			c0.723,0.024,1.195,0.649,1.05,1.349c-0.107,0.51-0.556,0.867-1.131,0.873c-0.761,0.011-1.523,0.002-2.302,0.002
			c0,0.859,0,1.676,0,2.527c0.798,0,1.572-0.008,2.346,0.003c0.663,0.008,1.143,0.527,1.111,1.168
			c-0.028,0.588-0.478,1.035-1.08,1.044c-0.786,0.017-1.571,0.005-2.377,0.005c-0.009,0.15-0.032,0.261-0.021,0.367
			c0.056,0.547-0.105,1.035-0.354,1.518c-0.376,0.727-0.713,1.473-1.078,2.234c0.078,0,0.115,0.008,0.15,0
			c1.896-0.325,3.776-0.216,5.643,0.222c1.817,0.428,3.53,1.143,5.232,1.889c0.115,0.05,0.232,0.095,0.426,0.175
			c-0.094-0.206-0.144-0.327-0.202-0.447c-0.696-1.412-1.384-2.83-2.096-4.234c-0.2-0.399-0.284-0.796-0.283-1.237
			c0.008-4.575,0.004-9.149,0.004-13.721c0-0.145,0-0.288,0-0.43c-2.506,0-4.962,0-7.422,0
			C-26.818,55.583-26.818,56.267-26.818,56.99z"/>
		<path fill="#263238" d="M-19.358,86.137c-1.923,0.002-3.376-1.446-3.402-3.388c-0.023-1.809,1.524-3.347,3.375-3.354
			c1.859-0.005,3.393,1.496,3.398,3.324C-15.981,84.653-17.442,86.131-19.358,86.137z M-20.509,82.781
			c0,0.634,0.513,1.145,1.147,1.142c0.61-0.002,1.127-0.513,1.139-1.123c0.012-0.652-0.505-1.18-1.158-1.175
			C-20.031,81.631-20.507,82.12-20.509,82.781z"/>
		<path fill="#263238" d="M-30.575,82.961c-0.012-0.619,0.451-1.111,1.067-1.129c0.627-0.021,1.155,0.468,1.164,1.078
			c0.009,0.596-0.522,1.14-1.121,1.151C-30.058,84.068-30.563,83.568-30.575,82.961z"/>
		<path fill="#263238" d="M-25.768,80.824c-0.606,0.008-1.106-0.477-1.118-1.087c-0.013-0.621,0.486-1.137,1.106-1.14
			c0.592-0.005,1.12,0.505,1.132,1.087C-24.632,80.282-25.159,80.816-25.768,80.824z"/>
	</g>
</g>
</svg>
