<?xml version="1.0" encoding="utf-8"?>
<!-- Generator: Adobe Illustrator 16.0.3, SVG Export Plug-In . SVG Version: 6.00 Build 0)  -->
<!DOCTYPE svg PUBLIC "-//W3C//DTD SVG 1.1//EN" "http://www.w3.org/Graphics/SVG/1.1/DTD/svg11.dtd">
<svg version="1.1" id="Layer_1" xmlns="http://www.w3.org/2000/svg" xmlns:xlink="http://www.w3.org/1999/xlink" x="0px" y="0px"
	 width="257.259px" height="50px" viewBox="-59.02 46.723 257.259 50" enable-background="new -59.02 46.723 257.259 50"
	 xml:space="preserve">
<g>
	<path fill="#F3726A" d="M117.014,1754.814c-0.445,0-0.885-0.037-1.313-0.111l1.313,3.104l1.315-3.104
		C117.898,1754.777,117.459,1754.814,117.014,1754.814z"/>
	<path fill="#F3726A" d="M134.908,1758.674c-1.596,0-2.895,1.297-2.895,2.893c0,1.598,1.299,2.896,2.895,2.896
		s2.895-1.299,2.895-2.896C137.803,1759.971,136.504,1758.674,134.908,1758.674z M134.908,1762.531
		c-0.533,0-0.965-0.434-0.965-0.965c0-0.533,0.432-0.965,0.965-0.965s0.965,0.432,0.965,0.965
		C135.873,1762.099,135.441,1762.531,134.908,1762.531z"/>
	<path fill="#F3726A" d="M123.268,1725.057c-13.808,0-25,11.191-25,25c0,13.807,11.192,25,25,25c13.809,0,25-11.193,25-25
		C148.268,1736.248,137.074,1725.057,123.268,1725.057z M134.908,1766.392c-2.66,0-4.824-2.163-4.824-4.823
		c0-2.328,1.66-4.277,3.859-4.729v-2.282c0-1.985-1.615-3.601-3.604-3.601c-1.984,0-3.604,1.613-3.604,3.601v6.616
		c0,2.947-2.396,5.345-5.346,5.345c-2.947,0-5.346-2.396-5.346-5.345v-0.696l-2.813-6.642c-0.313-0.174-0.619-0.371-0.91-0.592
		c-1.362-1.025-2.329-2.438-2.799-4.076l-2.562-8.96c-0.362-1.274-0.112-2.61,0.685-3.666c0.797-1.058,2.014-1.663,3.336-1.663
		h0.562v-0.321c0-0.532,0.433-0.965,0.965-0.965c0.533,0,0.966,0.433,0.966,0.965v2.571c0,0.533-0.433,0.965-0.966,0.965
		c-0.532,0-0.965-0.432-0.965-0.965v-0.321h-0.562c-0.711,0-1.366,0.327-1.797,0.896c-0.43,0.566-0.563,1.29-0.367,1.975
		l2.562,8.961c0.716,2.5,3.029,4.246,5.632,4.246c2.6,0,4.916-1.746,5.631-4.246l2.562-8.962c0.194-0.685,0.062-1.405-0.368-1.974
		c-0.429-0.569-1.083-0.896-1.797-0.896h-0.561v0.321c0,0.533-0.434,0.965-0.965,0.965c-0.533,0-0.966-0.432-0.966-0.965v-2.571
		c0-0.532,0.433-0.965,0.966-0.965c0.531,0,0.965,0.433,0.965,0.965v0.321h0.561c1.322,0,2.54,0.605,3.337,1.663
		c0.798,1.056,1.046,2.392,0.685,3.666l-2.562,8.96c-0.47,1.641-1.438,3.051-2.799,4.076c-0.291,0.221-0.597,0.418-0.909,0.592
		l-2.813,6.642v0.696c0,1.884,1.531,3.416,3.416,3.416s3.418-1.532,3.418-3.416v-6.616c0-3.049,2.479-5.528,5.528-5.528
		c3.052,0,5.531,2.479,5.531,5.528v2.282c2.198,0.449,3.856,2.398,3.856,4.729C139.73,1764.229,137.566,1766.392,134.908,1766.392z"
		/>
</g>
<g>
	<path fill="#F3726A" d="M117.014,1754.814c-0.445,0-0.885-0.037-1.313-0.111l1.313,3.104l1.315-3.104
		C117.898,1754.777,117.459,1754.814,117.014,1754.814z"/>
	<path fill="#F3726A" d="M134.908,1758.674c-1.596,0-2.895,1.297-2.895,2.893c0,1.598,1.299,2.896,2.895,2.896
		s2.895-1.299,2.895-2.896C137.803,1759.971,136.504,1758.674,134.908,1758.674z M134.908,1762.531
		c-0.533,0-0.965-0.434-0.965-0.965c0-0.533,0.432-0.965,0.965-0.965s0.965,0.432,0.965,0.965
		C135.873,1762.099,135.441,1762.531,134.908,1762.531z"/>
	<path fill="#F3726A" d="M123.268,1725.057c-13.808,0-25,11.191-25,25c0,13.807,11.192,25,25,25c13.809,0,25-11.193,25-25
		C148.268,1736.248,137.074,1725.057,123.268,1725.057z M134.908,1766.392c-2.66,0-4.824-2.163-4.824-4.823
		c0-2.328,1.66-4.277,3.859-4.729v-2.282c0-1.985-1.615-3.601-3.604-3.601c-1.984,0-3.604,1.613-3.604,3.601v6.616
		c0,2.947-2.396,5.345-5.346,5.345c-2.947,0-5.346-2.396-5.346-5.345v-0.696l-2.813-6.642c-0.313-0.174-0.619-0.371-0.91-0.592
		c-1.362-1.025-2.329-2.438-2.799-4.076l-2.562-8.96c-0.362-1.274-0.112-2.61,0.685-3.666c0.797-1.058,2.014-1.663,3.336-1.663
		h0.562v-0.321c0-0.532,0.433-0.965,0.965-0.965c0.533,0,0.966,0.433,0.966,0.965v2.571c0,0.533-0.433,0.965-0.966,0.965
		c-0.532,0-0.965-0.432-0.965-0.965v-0.321h-0.562c-0.711,0-1.366,0.327-1.797,0.896c-0.43,0.566-0.563,1.29-0.367,1.975
		l2.562,8.961c0.716,2.5,3.029,4.246,5.632,4.246c2.6,0,4.916-1.746,5.631-4.246l2.562-8.962c0.194-0.685,0.062-1.405-0.368-1.974
		c-0.429-0.569-1.083-0.896-1.797-0.896h-0.561v0.321c0,0.533-0.434,0.965-0.965,0.965c-0.533,0-0.966-0.432-0.966-0.965v-2.571
		c0-0.532,0.433-0.965,0.966-0.965c0.531,0,0.965,0.433,0.965,0.965v0.321h0.561c1.322,0,2.54,0.605,3.337,1.663
		c0.798,1.056,1.046,2.392,0.685,3.666l-2.562,8.96c-0.47,1.641-1.438,3.051-2.799,4.076c-0.291,0.221-0.597,0.418-0.909,0.592
		l-2.813,6.642v0.696c0,1.884,1.531,3.416,3.416,3.416s3.418-1.532,3.418-3.416v-6.616c0-3.049,2.479-5.528,5.528-5.528
		c3.052,0,5.531,2.479,5.531,5.528v2.282c2.198,0.449,3.856,2.398,3.856,4.729C139.73,1764.229,137.566,1766.392,134.908,1766.392z"
		/>
</g>
<g>
	<g>
		<g>
			<path fill="#F3726A" d="M198.237,88.859c0,4.345-3.519,7.863-7.863,7.863h-241.53c-4.344,0-7.864-3.519-7.864-7.863V54.585
				c0-4.343,3.52-7.862,7.864-7.862h241.53c4.345,0,7.865,3.519,7.865,7.862v34.274H198.237z"/>
		</g>
		<g>
			<g>
				<path fill="#FFFFFF" d="M0.313,60.771c0,3.767-2.289,5.765-5.082,5.765c-2.89,0-4.919-2.241-4.919-5.553
					c0-3.475,2.159-5.749,5.082-5.749C-1.618,55.235,0.313,57.524,0.313,60.771z M-8.179,60.951c0,2.338,1.266,4.433,3.492,4.433
					c2.24,0,3.506-2.062,3.506-4.546c0-2.175-1.136-4.449-3.491-4.449C-7.009,56.388-8.179,58.546-8.179,60.951z"/>
				<path fill="#FFFFFF" d="M8.568,58.499v7.858h-1.43v-6.722H3.486v6.722H2.074v-7.858H8.568z"/>
				<path fill="#FFFFFF" d="M10.894,61.064c0-1.007-0.033-1.818-0.065-2.565h1.282l0.065,1.347h0.032
					c0.585-0.958,1.51-1.526,2.793-1.526c1.899,0,3.329,1.606,3.329,3.994c0,2.825-1.721,4.221-3.573,4.221
					c-1.039,0-1.948-0.455-2.419-1.233h-0.032v4.27h-1.413V61.064z M12.308,63.157c0,0.211,0.032,0.406,0.064,0.584
					c0.26,0.991,1.121,1.673,2.143,1.673c1.511,0,2.387-1.235,2.387-3.037c0-1.574-0.829-2.922-2.338-2.922
					c-0.975,0-1.883,0.698-2.159,1.769c-0.049,0.179-0.097,0.39-0.097,0.585V63.157z"/>
				<path fill="#FFFFFF" d="M20.934,62.688c0.033,1.932,1.267,2.728,2.695,2.728c1.022,0,1.64-0.18,2.176-0.407l0.244,1.023
					c-0.503,0.227-1.364,0.487-2.614,0.487c-2.419,0-3.864-1.592-3.864-3.962c0-2.371,1.397-4.238,3.687-4.238
					c2.565,0,3.248,2.257,3.248,3.702c0,0.292-0.032,0.52-0.049,0.666h-5.522V62.688z M25.123,61.664
					c0.016-0.908-0.374-2.322-1.98-2.322c-1.444,0-2.079,1.331-2.192,2.322H25.123z"/>
				<path fill="#FFFFFF" d="M34.414,58.499v6.788l0.812,0.017l-0.081,3.555h-1.119l-0.065-2.501h-5.44l-0.064,2.501h-1.121
					l-0.065-3.555l0.666-0.017c0.34-0.504,0.6-1.039,0.78-1.608c0.309-0.975,0.453-2.031,0.453-3.134v-2.045H34.414L34.414,58.499z
					 M30.436,60.884c0,1.04-0.146,2.046-0.406,2.923c-0.163,0.536-0.39,1.023-0.634,1.461h3.622v-5.684h-2.582V60.884z"/>
				<path fill="#FFFFFF" d="M37.667,62.688c0.032,1.932,1.266,2.728,2.695,2.728c1.022,0,1.639-0.18,2.175-0.407l0.244,1.023
					c-0.504,0.227-1.363,0.487-2.615,0.487c-2.418,0-3.864-1.592-3.864-3.962c0-2.371,1.397-4.238,3.687-4.238
					c2.566,0,3.248,2.257,3.248,3.702c0,0.292-0.033,0.52-0.048,0.666h-5.522V62.688z M41.855,61.664
					c0.017-0.908-0.374-2.322-1.98-2.322c-1.444,0-2.079,1.331-2.192,2.322H41.855z"/>
				<path fill="#FFFFFF" d="M50.984,58.499v7.858h-1.412V59.62h-2.696v2.045c0,2.208-0.21,3.685-1.235,4.351
					c-0.389,0.31-0.828,0.486-1.558,0.486l-0.146-1.12c0.276-0.049,0.585-0.163,0.78-0.324c0.731-0.536,0.812-1.641,0.812-3.394
					V58.5h5.455V58.499z"/>
				<path fill="#FFFFFF" d="M54.123,62.688c0.032,1.932,1.267,2.728,2.695,2.728c1.022,0,1.64-0.18,2.176-0.407l0.243,1.023
					c-0.503,0.227-1.363,0.487-2.614,0.487c-2.419,0-3.864-1.592-3.864-3.962c0-2.371,1.397-4.238,3.687-4.238
					c2.565,0,3.248,2.257,3.248,3.702c0,0.292-0.033,0.52-0.049,0.666h-5.522V62.688z M58.313,61.664
					c0.016-0.908-0.374-2.322-1.98-2.322c-1.445,0-2.078,1.331-2.192,2.322H58.313z"/>
				<path fill="#FFFFFF" d="M62.846,58.499v3.165h3.734v-3.165h1.412v7.858h-1.412v-3.555h-3.734v3.555h-1.414v-7.858H62.846
					L62.846,58.499z"/>
				<path fill="#FFFFFF" d="M71.652,58.499v3.311c0,1.251-0.017,2.029-0.081,3.15l0.049,0.017c0.471-0.957,0.746-1.51,1.265-2.419
					l2.452-4.059h1.672v7.858h-1.363V63.03c0-1.283,0.032-1.948,0.098-3.215h-0.049c-0.504,1.007-0.845,1.64-1.298,2.436
					c-0.748,1.217-1.608,2.728-2.452,4.107h-1.64v-7.858H71.652z"/>
				<path fill="#FFFFFF" d="M80.132,62.688c0.033,1.932,1.266,2.728,2.695,2.728c1.022,0,1.64-0.18,2.174-0.407l0.246,1.023
					c-0.505,0.227-1.364,0.487-2.615,0.487c-2.419,0-3.864-1.592-3.864-3.962c0-2.371,1.397-4.238,3.688-4.238
					c2.565,0,3.247,2.257,3.247,3.702c0,0.292-0.035,0.52-0.051,0.666h-5.52V62.688z M84.321,61.664
					c0.016-0.908-0.373-2.322-1.98-2.322c-1.446,0-2.078,1.331-2.191,2.322H84.321z"/>
				<path fill="#FFFFFF" d="M96.862,55.835c-0.406,0.147-1.121,0.276-1.639,0.358c-1.269,0.195-2.192,0.617-2.795,1.477
					c-0.503,0.715-0.796,1.77-0.859,2.599h0.048c0.505-1.136,1.607-1.77,2.729-1.77c1.933,0,3.345,1.381,3.345,3.879
					c0,2.567-1.331,4.157-3.639,4.157c-2.758,0-3.667-2.646-3.667-5.261c0-1.785,0.373-3.248,1.216-4.351
					c0.763-1.087,1.852-1.59,3.377-1.851c0.635-0.097,1.415-0.228,1.947-0.422L96.862,55.835z M94.052,59.553
					c-0.843,0-1.443,0.439-1.769,1.072c-0.259,0.471-0.389,1.04-0.389,1.672c0,1.299,0.632,3.166,2.191,3.166
					c1.574,0,2.158-1.525,2.158-2.971C96.244,61.21,95.741,59.553,94.052,59.553z"/>
				<path fill="#FFFFFF" d="M100.811,58.499v3.311c0,1.251-0.016,2.029-0.079,3.15l0.046,0.017c0.472-0.957,0.75-1.51,1.268-2.419
					l2.451-4.059h1.674v7.858h-1.364V63.03c0-1.283,0.03-1.948,0.098-3.215h-0.05c-0.502,1.007-0.844,1.64-1.298,2.436
					c-0.747,1.217-1.609,2.728-2.453,4.107h-1.64v-7.858H100.811z"/>
				<path fill="#FFFFFF" d="M109.909,58.499v3.41h0.341l2.956-3.41h1.737l-3.427,3.555c1.269,0.129,2.031,0.974,2.647,2.386
					c0.211,0.52,0.486,1.282,0.843,1.916h-1.494c-0.208-0.341-0.486-0.957-0.729-1.608c-0.534-1.268-1.267-1.851-2.597-1.851h-0.277
					v3.458h-1.412v-7.858h1.412V58.499z"/>
				<path fill="#FFFFFF" d="M120.793,66.356l-0.114-0.989h-0.05c-0.437,0.617-1.283,1.168-2.404,1.168
					c-1.589,0-2.399-1.12-2.399-2.257c0-1.9,1.688-2.939,4.724-2.923v-0.163c0-0.648-0.18-1.818-1.786-1.818
					c-0.729,0-1.495,0.227-2.048,0.585l-0.321-0.941c0.649-0.422,1.59-0.698,2.58-0.698c2.403,0,2.987,1.64,2.987,3.215v2.939
					c0,0.681,0.032,1.345,0.131,1.883h-1.299V66.356z M120.581,62.346c-1.561-0.032-3.329,0.244-3.329,1.77
					c0,0.926,0.616,1.365,1.349,1.365c1.023,0,1.671-0.649,1.898-1.316c0.05-0.145,0.082-0.31,0.082-0.455V62.346z"/>
				<path fill="#FFFFFF" d="M124.272,61.064c0-1.007-0.034-1.818-0.066-2.565h1.281l0.067,1.347h0.03
					c0.586-0.958,1.509-1.526,2.794-1.526c1.899,0,3.329,1.606,3.329,3.994c0,2.825-1.722,4.221-3.574,4.221
					c-1.04,0-1.947-0.455-2.418-1.233h-0.031v4.27h-1.412V61.064z M125.685,63.157c0,0.211,0.031,0.406,0.063,0.584
					c0.262,0.991,1.121,1.673,2.145,1.673c1.51,0,2.388-1.235,2.388-3.037c0-1.574-0.831-2.922-2.341-2.922
					c-0.973,0-1.883,0.698-2.157,1.769c-0.051,0.179-0.098,0.39-0.098,0.585V63.157z"/>
				<path fill="#FFFFFF" d="M139.458,55.835c-0.407,0.147-1.121,0.276-1.64,0.358c-1.267,0.195-2.192,0.617-2.792,1.477
					c-0.505,0.715-0.798,1.77-0.863,2.599h0.05c0.503-1.136,1.606-1.77,2.727-1.77c1.934,0,3.346,1.381,3.346,3.879
					c0,2.567-1.33,4.157-3.637,4.157c-2.761,0-3.67-2.646-3.67-5.261c0-1.785,0.371-3.248,1.215-4.351
					c0.764-1.087,1.851-1.59,3.379-1.851c0.632-0.097,1.412-0.228,1.949-0.422L139.458,55.835z M136.649,59.553
					c-0.846,0-1.446,0.439-1.771,1.072c-0.259,0.471-0.389,1.04-0.389,1.672c0,1.299,0.632,3.166,2.192,3.166
					c1.576,0,2.16-1.525,2.16-2.971C138.842,61.21,138.337,59.553,136.649,59.553z"/>
				<path fill="#FFFFFF" d="M149.204,62.363c0,2.905-2.012,4.172-3.913,4.172c-2.126,0-3.766-1.558-3.766-4.043
					c0-2.63,1.72-4.172,3.895-4.172C147.679,58.32,149.204,59.96,149.204,62.363z M142.969,62.444c0,1.721,0.992,3.019,2.389,3.019
					c1.364,0,2.385-1.282,2.385-3.051c0-1.331-0.662-3.019-2.353-3.019C143.7,59.393,142.969,60.951,142.969,62.444z"/>
				<path fill="#FFFFFF" d="M152.391,58.499v3.165h3.736v-3.165h1.412v7.858h-1.412v-3.555h-3.736v3.555h-1.412v-7.858H152.391
					L152.391,58.499z"/>
				<path fill="#FFFFFF" d="M164.233,66.356l-0.113-0.989h-0.051c-0.436,0.617-1.282,1.168-2.403,1.168
					c-1.589,0-2.399-1.12-2.399-2.257c0-1.9,1.687-2.939,4.726-2.923v-0.163c0-0.648-0.182-1.818-1.788-1.818
					c-0.729,0-1.495,0.227-2.047,0.585l-0.322-0.941c0.649-0.422,1.591-0.698,2.581-0.698c2.402,0,2.987,1.64,2.987,3.215v2.939
					c0,0.681,0.031,1.345,0.13,1.883h-1.3V66.356z M164.022,62.346c-1.561-0.032-3.329,0.244-3.329,1.77
					c0,0.926,0.616,1.365,1.349,1.365c1.023,0,1.671-0.649,1.898-1.316c0.05-0.145,0.082-0.31,0.082-0.455V62.346z"/>
				<path fill="#FFFFFF" d="M172.909,58.499v1.136h-2.454v6.721h-1.412v-6.721h-2.451v-1.136H172.909z"/>
				<path fill="#FFFFFF" d="M181.063,62.363c0,2.905-2.015,4.172-3.913,4.172c-2.129,0-3.768-1.558-3.768-4.043
					c0-2.63,1.721-4.172,3.897-4.172C179.535,58.32,181.063,59.96,181.063,62.363z M174.829,62.444c0,1.721,0.988,3.019,2.385,3.019
					c1.364,0,2.388-1.282,2.388-3.051c0-1.331-0.666-3.019-2.352-3.019C175.559,59.392,174.829,60.951,174.829,62.444z"/>
				<path fill="#FFFFFF" d="M182.838,58.595c0.553-0.097,1.573-0.178,2.499-0.178c1.316,0,3.493,0.211,3.493,1.964
					c0,0.975-0.749,1.575-1.643,1.769v0.032c1.153,0.163,1.999,0.813,1.999,1.95c0,2.061-2.599,2.322-4.141,2.322
					c-0.878,0-1.787-0.066-2.208-0.098V58.595z M184.184,65.416c0.407,0.047,0.698,0.065,1.153,0.065
					c0.96,0,2.388-0.228,2.388-1.365c0-1.136-1.137-1.379-2.502-1.379h-1.039V65.416z M184.202,61.794h1.071
					c1.055,0,2.142-0.309,2.142-1.235c0-0.78-0.682-1.154-2.11-1.154c-0.471,0-0.763,0.033-1.103,0.065V61.794z"/>
				<path fill="#FFFFFF" d="M24.11,78.093c0.552-0.099,1.576-0.181,2.5-0.181c1.314,0,3.49,0.212,3.49,1.965
					c0,0.974-0.746,1.576-1.64,1.77v0.034c1.154,0.161,1.997,0.812,1.997,1.946c0,2.063-2.598,2.324-4.141,2.324
					c-0.876,0-1.786-0.066-2.208-0.097v-7.762H24.11z M25.458,84.912c0.406,0.047,0.699,0.063,1.154,0.063
					c0.958,0,2.386-0.227,2.386-1.364c0-1.134-1.136-1.38-2.5-1.38h-1.04V84.912z M25.473,81.289h1.072
					c1.056,0,2.143-0.307,2.143-1.232c0-0.779-0.682-1.152-2.112-1.152c-0.471,0-0.762,0.03-1.104,0.063V81.289z"/>
				<path fill="#FFFFFF" d="M41.312,85.56c-0.374,0.195-1.203,0.455-2.257,0.455c-2.371,0-3.914-1.609-3.914-4.012
					c0-2.419,1.657-4.173,4.223-4.173c0.845,0,1.59,0.212,1.98,0.407l-0.325,1.104c-0.342-0.194-0.876-0.373-1.656-0.373
					c-1.803,0-2.777,1.332-2.777,2.972c0,1.819,1.17,2.938,2.728,2.938c0.813,0,1.349-0.211,1.753-0.389L41.312,85.56z"/>
				<path fill="#FFFFFF" d="M44.367,77.994v2.679c0.309-0.066,0.762-0.098,1.282-0.098c1.69,0,3.394,0.698,3.394,2.631
					c0,0.828-0.309,1.396-0.813,1.819c-0.861,0.729-2.126,0.907-3.167,0.907c-0.796,0-1.525-0.048-2.11-0.114v-7.824H44.367
					L44.367,77.994z M44.367,84.861c0.276,0.032,0.585,0.066,0.99,0.066c1.088,0,2.273-0.455,2.273-1.673
					c0-1.268-1.135-1.656-2.208-1.656c-0.407,0-0.762,0.031-1.055,0.083V84.861z M51.446,77.994v7.858h-1.412v-7.858H51.446z"/>
				<path fill="#FFFFFF" d="M53.758,78.093c0.552-0.099,1.574-0.181,2.5-0.181c1.315,0,3.492,0.212,3.492,1.965
					c0,0.974-0.748,1.576-1.639,1.77v0.034c1.153,0.161,1.996,0.812,1.996,1.946c0,2.063-2.598,2.324-4.141,2.324
					c-0.876,0-1.786-0.066-2.208-0.097V78.093z M55.105,84.912c0.406,0.047,0.699,0.063,1.153,0.063
					c0.958,0,2.387-0.227,2.387-1.364c0-1.134-1.136-1.38-2.501-1.38h-1.04V84.912z M55.122,81.289h1.072
					c1.056,0,2.144-0.307,2.144-1.232c0-0.779-0.683-1.152-2.112-1.152c-0.471,0-0.762,0.03-1.103,0.063V81.289z"/>
				<path fill="#FFFFFF" d="M69.025,81.857c0,2.906-2.013,4.173-3.913,4.173c-2.127,0-3.768-1.558-3.768-4.043
					c0-2.627,1.721-4.173,3.896-4.173C67.499,77.814,69.025,79.454,69.025,81.857z M62.789,81.939c0,1.722,0.992,3.02,2.387,3.02
					c1.363,0,2.387-1.282,2.387-3.051c0-1.333-0.667-3.022-2.355-3.022C63.521,78.886,62.789,80.445,62.789,81.939z"/>
				<path fill="#FFFFFF" d="M70.833,80.56c0-1.008-0.033-1.819-0.065-2.565h1.282l0.065,1.347h0.032
					c0.585-0.958,1.51-1.526,2.793-1.526c1.9,0,3.329,1.607,3.329,3.994c0,2.824-1.721,4.22-3.572,4.22
					c-1.04,0-1.948-0.454-2.419-1.231h-0.033v4.271h-1.412V80.56z M72.245,82.653c0,0.212,0.033,0.407,0.065,0.585
					c0.26,0.991,1.121,1.674,2.143,1.674c1.511,0,2.387-1.235,2.387-3.039c0-1.573-0.829-2.922-2.338-2.922
					c-0.975,0-1.883,0.7-2.16,1.771c-0.049,0.18-0.097,0.392-0.097,0.585V82.653z"/>
				<path fill="#FFFFFF" d="M87.188,81.857c0,2.906-2.012,4.173-3.913,4.173c-2.127,0-3.768-1.558-3.768-4.043
					c0-2.627,1.721-4.173,3.897-4.173C85.662,77.814,87.188,79.454,87.188,81.857z M80.953,81.939c0,1.722,0.988,3.02,2.386,3.02
					c1.363,0,2.387-1.282,2.387-3.051c0-1.333-0.664-3.022-2.354-3.022S80.953,80.445,80.953,81.939z"/>
				<path fill="#FFFFFF" d="M94.174,77.994v1.138h-2.451v6.721h-1.412v-6.721h-2.454v-1.138H94.174z"/>
				<path fill="#FFFFFF" d="M96.842,77.994v3.408h0.341l2.955-3.408h1.735l-3.423,3.554c1.269,0.133,2.028,0.976,2.647,2.388
					c0.207,0.521,0.485,1.283,0.844,1.917h-1.496c-0.211-0.341-0.486-0.959-0.729-1.607c-0.535-1.268-1.267-1.851-2.6-1.851h-0.274
					v3.458H95.43v-7.858H96.842z"/>
				<path fill="#FFFFFF" d="M103.907,82.183c0.032,1.933,1.267,2.729,2.696,2.729c1.023,0,1.64-0.181,2.175-0.407l0.245,1.022
					c-0.505,0.228-1.366,0.487-2.616,0.487c-2.42,0-3.865-1.592-3.865-3.961c0-2.372,1.396-4.239,3.688-4.239
					c2.566,0,3.246,2.259,3.246,3.701c0,0.293-0.033,0.521-0.051,0.666L103.907,82.183L103.907,82.183z M108.098,81.159
					c0.016-0.909-0.375-2.321-1.98-2.321c-1.446,0-2.078,1.331-2.191,2.321H108.098z"/>
				<path fill="#FFFFFF" d="M116.107,77.994v3.408h0.341l2.956-3.408h1.737l-3.427,3.554c1.268,0.133,2.03,0.976,2.646,2.388
					c0.212,0.521,0.486,1.283,0.844,1.917h-1.494c-0.209-0.341-0.486-0.959-0.729-1.607c-0.534-1.268-1.267-1.851-2.597-1.851
					h-0.277v3.458h-1.412v-7.858H116.107z"/>
				<path fill="#FFFFFF" d="M122.477,80.56c0-1.008-0.031-1.819-0.065-2.565h1.285l0.063,1.347h0.03
					c0.585-0.958,1.51-1.526,2.793-1.526c1.898,0,3.327,1.607,3.327,3.994c0,2.824-1.719,4.22-3.573,4.22
					c-1.039,0-1.945-0.454-2.416-1.231h-0.033v4.271h-1.412L122.477,80.56L122.477,80.56z M123.889,82.653
					c0,0.212,0.034,0.407,0.066,0.585c0.259,0.991,1.121,1.674,2.142,1.674c1.51,0,2.388-1.235,2.388-3.039
					c0-1.573-0.827-2.922-2.337-2.922c-0.977,0-1.886,0.7-2.161,1.771c-0.047,0.18-0.098,0.392-0.098,0.585V82.653z"/>
				<path fill="#FFFFFF" d="M138.834,81.857c0,2.906-2.015,4.173-3.914,4.173c-2.128,0-3.768-1.558-3.768-4.043
					c0-2.627,1.72-4.173,3.897-4.173C137.306,77.814,138.834,79.454,138.834,81.857z M132.599,81.939c0,1.722,0.989,3.02,2.385,3.02
					c1.366,0,2.39-1.282,2.39-3.051c0-1.333-0.667-3.022-2.354-3.022C133.328,78.886,132.599,80.445,132.599,81.939z"/>
				<path fill="#FFFFFF" d="M140.608,78.093c0.552-0.099,1.573-0.181,2.498-0.181c1.318,0,3.493,0.212,3.493,1.965
					c0,0.974-0.748,1.576-1.642,1.77v0.034c1.154,0.161,2,0.812,2,1.946c0,2.063-2.6,2.324-4.143,2.324
					c-0.876,0-1.787-0.066-2.207-0.097V78.093z M141.954,84.912c0.407,0.047,0.698,0.063,1.152,0.063c0.96,0,2.39-0.227,2.39-1.364
					c0-1.134-1.139-1.38-2.503-1.38h-1.039V84.912z M141.973,81.289h1.07c1.056,0,2.143-0.307,2.143-1.232
					c0-0.779-0.683-1.152-2.11-1.152c-0.471,0-0.762,0.03-1.103,0.063V81.289z"/>
				<path fill="#FFFFFF" d="M150.077,77.994v3.31c0,1.252-0.017,2.03-0.08,3.151l0.048,0.018c0.471-0.957,0.748-1.51,1.267-2.419
					l2.451-4.06h1.674v7.858h-1.364v-3.329c0-1.282,0.031-1.948,0.098-3.215h-0.05c-0.503,1.008-0.844,1.64-1.299,2.436
					c-0.745,1.219-1.607,2.729-2.451,4.108h-1.64v-7.858H150.077z"/>
			</g>
		</g>
	</g>
	<g>
		<path fill="#263238" d="M-54.237,77.886c0.058-0.174,0.115-0.349,0.171-0.523c0.631-1.927,2.72-3.101,4.691-2.614
			c0.227,0.059,0.367,0.029,0.524-0.133c0.637-0.655,1.287-1.294,1.946-1.955c-0.734-0.735-1.242-1.566-1.47-2.56
			c-0.648-2.785,0.962-5.541,3.71-6.321c0.174-0.052,0.285-0.085,0.284-0.31c-0.011-1.289-0.004-2.578-0.004-3.895
			c-1.167-0.407-2.034-1.148-2.515-2.303c-0.362-0.867-0.362-1.753-0.105-2.644c0.504-1.753,2.15-2.866,4.044-2.745
			c1.879,0.123,3.317,1.468,3.587,3.4c0.264,1.875-0.824,3.635-2.759,4.294c0,1.302-0.004,2.617,0.009,3.929
			c0,0.085,0.112,0.215,0.197,0.244c2.216,0.662,3.478,2.171,3.884,4.412c0.144,0.81,0.05,1.621-0.242,2.421
			c0.518,0.301,1.013,0.587,1.508,0.873c1.256,0.727,2.514,1.45,3.769,2.177c0.145,0.084,0.252,0.167,0.421,0.005
			c1.725-1.625,3.697-1.961,5.894-1.101c0.021,0.009,0.047,0,0.093,0c0.536-0.71,1.083-1.425,1.605-2.159
			c0.058-0.085,0.004-0.302-0.065-0.417c-0.868-1.463-0.777-3.208,0.295-4.531c1.032-1.272,2.402-1.701,3.968-1.341
			c1.599,0.369,2.613,1.41,2.935,3.021c0.585,2.92-2.037,5.332-4.932,4.572c-0.115-0.03-0.318,0-0.38,0.084
			c-0.554,0.709-1.087,1.437-1.638,2.174c0.538,0.7,0.924,1.457,1.106,2.319c0.228,1.079,0.127,2.118-0.31,3.117
			c-0.115,0.268-0.062,0.395,0.159,0.551c0.551,0.391,1.082,0.814,1.633,1.203c0.091,0.068,0.294,0.098,0.374,0.042
			c2.299-1.539,5.63-0.153,6.045,2.631c0.004,0.033,0.036,0.063,0.057,0.094c0,0.373,0,0.752,0,1.127
			c-0.027,0.083-0.06,0.161-0.079,0.247c-0.544,2.451-2.786,3.312-4.372,3.099c-2.323-0.314-3.949-2.649-3.255-5.021
			c0.028-0.098,0.009-0.272-0.057-0.322c-0.678-0.529-1.373-1.039-2.048-1.544c-2.27,1.541-4.485,1.503-6.709-0.09
			c-0.647,0.508-1.308,1.021-1.952,1.552c-0.065,0.052-0.061,0.246-0.028,0.357c0.185,0.648,0.238,1.309,0.076,1.967
			c-0.39,1.578-1.358,2.654-2.95,3.026c-1.57,0.366-2.95-0.092-3.948-1.382c-1.001-1.292-1.194-2.738-0.454-4.228
			c1.009-2.021,3.524-2.738,5.498-1.612c0.111,0.062,0.31,0.119,0.385,0.063c0.681-0.503,1.344-1.033,2.013-1.562
			c-0.521-1.187-0.639-2.379-0.318-3.616c0.024-0.093-0.055-0.271-0.141-0.322c-1.727-1.008-3.46-2.01-5.199-3.001
			c-0.084-0.047-0.268-0.026-0.341,0.037c-1.468,1.299-3.144,1.736-5.05,1.256c-0.097-0.025-0.25-0.025-0.308,0.034
			c-0.743,0.722-1.471,1.46-2.197,2.188c0.723,1.173,0.89,1.797,0.771,2.856c-0.199,1.777-1.666,3.292-3.346,3.459
			c-2.002,0.195-3.724-0.886-4.302-2.705c-0.064-0.195-0.12-0.399-0.179-0.601C-54.237,78.737-54.237,78.312-54.237,77.886z
			 M-43.274,71.861c1.608,0.013,2.991-1.334,3.018-2.937c0.029-1.695-1.297-3.051-2.99-3.06c-1.694-0.01-3.022,1.326-3.021,3.032
			C-46.263,70.49-44.892,71.849-43.274,71.861z M-25.865,77.331c-0.009-1.678-1.344-2.997-3.019-2.988
			c-1.635,0.011-2.974,1.371-2.963,3.008c0.011,1.659,1.336,2.988,2.985,2.993C-27.201,80.348-25.858,78.994-25.865,77.331z
			 M-43.294,57.45c0.961,0.004,1.681-0.692,1.691-1.633c0.01-0.954-0.724-1.692-1.681-1.689c-0.895,0.005-1.633,0.754-1.637,1.661
			C-44.923,56.708-44.2,57.445-43.294,57.45z M-48.655,78.584c-0.003-0.957-0.709-1.674-1.65-1.677c-0.94,0-1.692,0.765-1.674,1.706
			c0.018,0.899,0.768,1.618,1.684,1.613C-49.376,80.224-48.65,79.499-48.655,78.584z M-21.72,69.554
			c0.931,0.004,1.686-0.732,1.687-1.652c0.002-0.91-0.762-1.672-1.676-1.672c-0.909,0.001-1.642,0.729-1.651,1.642
			C-23.369,68.815-22.654,69.552-21.72,69.554z M-21.33,84.486c0.005,0.912,0.733,1.645,1.641,1.655
			c0.905,0.008,1.684-0.765,1.686-1.666c0.004-0.944-0.75-1.665-1.714-1.653C-20.641,82.839-21.338,83.555-21.33,84.486z
			 M-39.681,84.462c-0.005,0.899,0.775,1.689,1.666,1.689c0.89,0,1.676-0.796,1.668-1.689c-0.009-0.904-0.74-1.637-1.652-1.645
			C-38.925,82.807-39.674,83.539-39.681,84.462z"/>
	</g>
</g>
</svg>
