<?xml version="1.0" encoding="utf-8"?>
<!-- Generator: Adobe Illustrator 16.0.3, SVG Export Plug-In . SVG Version: 6.00 Build 0)  -->
<!DOCTYPE svg PUBLIC "-//W3C//DTD SVG 1.1//EN" "http://www.w3.org/Graphics/SVG/1.1/DTD/svg11.dtd">
<svg version="1.1" id="Layer_1" xmlns="http://www.w3.org/2000/svg" xmlns:xlink="http://www.w3.org/1999/xlink" x="0px" y="0px"
	 width="257.255px" height="50px" viewBox="-53.276 48.782 257.255 50" enable-background="new -53.276 48.782 257.255 50"
	 xml:space="preserve">
<g>
	<path fill="#F3726A" d="M117.014,1754.814c-0.445,0-0.885-0.037-1.313-0.111l1.313,3.104l1.315-3.104
		C117.898,1754.777,117.459,1754.814,117.014,1754.814z"/>
	<path fill="#F3726A" d="M134.908,1758.674c-1.596,0-2.895,1.297-2.895,2.893c0,1.598,1.299,2.896,2.895,2.896
		s2.895-1.299,2.895-2.896C137.803,1759.971,136.504,1758.674,134.908,1758.674z M134.908,1762.531
		c-0.533,0-0.965-0.434-0.965-0.965c0-0.533,0.432-0.965,0.965-0.965s0.965,0.432,0.965,0.965
		C135.873,1762.099,135.441,1762.531,134.908,1762.531z"/>
	<path fill="#F3726A" d="M123.268,1725.057c-13.808,0-25,11.191-25,25c0,13.807,11.192,25,25,25c13.809,0,25-11.193,25-25
		C148.268,1736.248,137.074,1725.057,123.268,1725.057z M134.908,1766.392c-2.66,0-4.824-2.163-4.824-4.823
		c0-2.328,1.66-4.277,3.859-4.729v-2.282c0-1.985-1.615-3.601-3.604-3.601c-1.984,0-3.604,1.613-3.604,3.601v6.616
		c0,2.947-2.396,5.345-5.346,5.345c-2.947,0-5.346-2.396-5.346-5.345v-0.696l-2.813-6.642c-0.313-0.174-0.619-0.371-0.91-0.592
		c-1.362-1.025-2.329-2.438-2.799-4.076l-2.562-8.96c-0.362-1.274-0.112-2.61,0.685-3.666c0.797-1.058,2.014-1.663,3.336-1.663
		h0.562v-0.321c0-0.532,0.433-0.965,0.965-0.965c0.533,0,0.966,0.433,0.966,0.965v2.571c0,0.533-0.433,0.965-0.966,0.965
		c-0.532,0-0.965-0.432-0.965-0.965v-0.321h-0.562c-0.711,0-1.366,0.327-1.797,0.896c-0.43,0.566-0.563,1.29-0.367,1.975
		l2.562,8.961c0.716,2.5,3.029,4.246,5.632,4.246c2.6,0,4.916-1.746,5.631-4.246l2.562-8.962c0.194-0.685,0.062-1.405-0.368-1.974
		c-0.429-0.569-1.083-0.896-1.797-0.896h-0.561v0.321c0,0.533-0.434,0.965-0.965,0.965c-0.533,0-0.966-0.432-0.966-0.965v-2.571
		c0-0.532,0.433-0.965,0.966-0.965c0.531,0,0.965,0.433,0.965,0.965v0.321h0.561c1.322,0,2.54,0.605,3.337,1.663
		c0.798,1.056,1.046,2.392,0.685,3.666l-2.562,8.96c-0.47,1.641-1.438,3.051-2.799,4.076c-0.291,0.221-0.597,0.418-0.909,0.592
		l-2.813,6.642v0.696c0,1.884,1.531,3.416,3.416,3.416s3.418-1.532,3.418-3.416v-6.616c0-3.049,2.479-5.528,5.528-5.528
		c3.052,0,5.531,2.479,5.531,5.528v2.282c2.198,0.449,3.856,2.398,3.856,4.729C139.73,1764.229,137.566,1766.392,134.908,1766.392z"
		/>
</g>
<g>
	<path fill="#F3726A" d="M117.014,1754.814c-0.445,0-0.885-0.037-1.313-0.111l1.313,3.104l1.315-3.104
		C117.898,1754.777,117.459,1754.814,117.014,1754.814z"/>
	<path fill="#F3726A" d="M134.908,1758.674c-1.596,0-2.895,1.297-2.895,2.893c0,1.598,1.299,2.896,2.895,2.896
		s2.895-1.299,2.895-2.896C137.803,1759.971,136.504,1758.674,134.908,1758.674z M134.908,1762.531
		c-0.533,0-0.965-0.434-0.965-0.965c0-0.533,0.432-0.965,0.965-0.965s0.965,0.432,0.965,0.965
		C135.873,1762.099,135.441,1762.531,134.908,1762.531z"/>
	<path fill="#F3726A" d="M123.268,1725.057c-13.808,0-25,11.191-25,25c0,13.807,11.192,25,25,25c13.809,0,25-11.193,25-25
		C148.268,1736.248,137.074,1725.057,123.268,1725.057z M134.908,1766.392c-2.66,0-4.824-2.163-4.824-4.823
		c0-2.328,1.66-4.277,3.859-4.729v-2.282c0-1.985-1.615-3.601-3.604-3.601c-1.984,0-3.604,1.613-3.604,3.601v6.616
		c0,2.947-2.396,5.345-5.346,5.345c-2.947,0-5.346-2.396-5.346-5.345v-0.696l-2.813-6.642c-0.313-0.174-0.619-0.371-0.91-0.592
		c-1.362-1.025-2.329-2.438-2.799-4.076l-2.562-8.96c-0.362-1.274-0.112-2.61,0.685-3.666c0.797-1.058,2.014-1.663,3.336-1.663
		h0.562v-0.321c0-0.532,0.433-0.965,0.965-0.965c0.533,0,0.966,0.433,0.966,0.965v2.571c0,0.533-0.433,0.965-0.966,0.965
		c-0.532,0-0.965-0.432-0.965-0.965v-0.321h-0.562c-0.711,0-1.366,0.327-1.797,0.896c-0.43,0.566-0.563,1.29-0.367,1.975
		l2.562,8.961c0.716,2.5,3.029,4.246,5.632,4.246c2.6,0,4.916-1.746,5.631-4.246l2.562-8.962c0.194-0.685,0.062-1.405-0.368-1.974
		c-0.429-0.569-1.083-0.896-1.797-0.896h-0.561v0.321c0,0.533-0.434,0.965-0.965,0.965c-0.533,0-0.966-0.432-0.966-0.965v-2.571
		c0-0.532,0.433-0.965,0.966-0.965c0.531,0,0.965,0.433,0.965,0.965v0.321h0.561c1.322,0,2.54,0.605,3.337,1.663
		c0.798,1.056,1.046,2.392,0.685,3.666l-2.562,8.96c-0.47,1.641-1.438,3.051-2.799,4.076c-0.291,0.221-0.597,0.418-0.909,0.592
		l-2.813,6.642v0.696c0,1.884,1.531,3.416,3.416,3.416s3.418-1.532,3.418-3.416v-6.616c0-3.049,2.479-5.528,5.528-5.528
		c3.052,0,5.531,2.479,5.531,5.528v2.282c2.198,0.449,3.856,2.398,3.856,4.729C139.73,1764.229,137.566,1766.392,134.908,1766.392z"
		/>
</g>
<g>
	<g>
		<g>
			<path fill="#F3726A" d="M203.979,90.918c0,4.344-3.52,7.864-7.863,7.864H-45.412c-4.344,0-7.864-3.521-7.864-7.864V56.644
				c0-4.343,3.52-7.862,7.864-7.862h241.527c4.344,0,7.863,3.519,7.863,7.862V90.918z"/>
		</g>
		<g>
			<g>
				<path fill="#FFFFFF" d="M57.815,62.831c0,3.768-2.289,5.765-5.082,5.765c-2.891,0-4.92-2.241-4.92-5.553
					c0-3.475,2.16-5.749,5.083-5.749C55.884,57.295,57.815,59.584,57.815,62.831z M49.324,63.011c0,2.337,1.266,4.432,3.49,4.432
					c2.24,0,3.507-2.062,3.507-4.546c0-2.176-1.136-4.449-3.492-4.449C50.492,58.449,49.324,60.606,49.324,63.011z"/>
				<path fill="#FFFFFF" d="M66.071,60.56v7.858h-1.43v-6.722h-3.652v6.722h-1.412V60.56H66.071L66.071,60.56z"/>
				<path fill="#FFFFFF" d="M68.396,63.125c0-1.007-0.033-1.818-0.065-2.565h1.282l0.065,1.346h0.032
					c0.585-0.958,1.509-1.525,2.793-1.525c1.899,0,3.329,1.607,3.329,3.994c0,2.825-1.721,4.221-3.573,4.221
					c-1.04,0-1.948-0.455-2.419-1.235h-0.033v4.271h-1.412V63.125z M69.808,65.219c0,0.211,0.033,0.406,0.065,0.585
					c0.26,0.991,1.121,1.672,2.143,1.672c1.509,0,2.387-1.234,2.387-3.037c0-1.575-0.827-2.922-2.338-2.922
					c-0.974,0-1.882,0.698-2.159,1.769c-0.049,0.179-0.098,0.39-0.098,0.585V65.219z"/>
				<path fill="#FFFFFF" d="M78.435,64.748c0.032,1.933,1.267,2.729,2.696,2.729c1.021,0,1.641-0.179,2.175-0.406l0.244,1.023
					c-0.504,0.228-1.363,0.487-2.613,0.487c-2.42,0-3.866-1.592-3.866-3.962s1.396-4.238,3.687-4.238
					c2.567,0,3.248,2.257,3.248,3.702c0,0.292-0.033,0.52-0.049,0.666H78.435L78.435,64.748z M82.626,63.725
					c0.016-0.908-0.376-2.322-1.983-2.322c-1.443,0-2.078,1.331-2.192,2.322H82.626z"/>
				<path fill="#FFFFFF" d="M91.916,60.56v6.786l0.813,0.017l-0.082,3.555h-1.121l-0.065-2.5h-5.44l-0.063,2.5h-1.121l-0.063-3.555
					l0.667-0.017c0.338-0.503,0.599-1.04,0.777-1.608c0.309-0.974,0.454-2.029,0.454-3.133V60.56H91.916L91.916,60.56z
					 M87.938,62.944c0,1.04-0.146,2.046-0.407,2.923c-0.161,0.536-0.389,1.022-0.633,1.461h3.621v-5.684h-2.581V62.944z"/>
				<path fill="#FFFFFF" d="M95.167,64.748c0.034,1.933,1.268,2.729,2.697,2.729c1.021,0,1.639-0.179,2.173-0.406l0.243,1.023
					c-0.502,0.228-1.362,0.487-2.613,0.487c-2.419,0-3.864-1.592-3.864-3.962s1.398-4.238,3.688-4.238
					c2.565,0,3.245,2.257,3.245,3.702c0,0.292-0.03,0.52-0.048,0.666H95.167L95.167,64.748z M99.356,63.725
					c0.018-0.908-0.371-2.322-1.98-2.322c-1.445,0-2.078,1.331-2.191,2.322H99.356z"/>
				<path fill="#FFFFFF" d="M108.486,60.56v7.858h-1.413V61.68h-2.695v2.046c0,2.208-0.21,3.687-1.233,4.351
					c-0.391,0.309-0.828,0.488-1.558,0.488l-0.146-1.121c0.274-0.049,0.585-0.163,0.778-0.325c0.729-0.536,0.812-1.639,0.812-3.394
					V60.56H108.486z"/>
				<path fill="#FFFFFF" d="M111.624,64.748c0.033,1.933,1.268,2.729,2.697,2.729c1.023,0,1.639-0.179,2.175-0.406l0.243,1.023
					c-0.504,0.228-1.364,0.487-2.614,0.487c-2.419,0-3.862-1.592-3.862-3.962s1.395-4.238,3.686-4.238
					c2.564,0,3.246,2.257,3.246,3.702c0,0.292-0.033,0.52-0.05,0.666H111.624L111.624,64.748z M115.813,63.725
					c0.017-0.908-0.373-2.322-1.98-2.322c-1.443,0-2.077,1.331-2.19,2.322H115.813z"/>
				<path fill="#FFFFFF" d="M120.347,60.56v3.165h3.736V60.56h1.412v7.858h-1.412v-3.555h-3.736v3.555h-1.411V60.56H120.347z"/>
				<path fill="#FFFFFF" d="M129.152,60.56v3.311c0,1.25-0.017,2.031-0.081,3.15l0.049,0.016c0.471-0.958,0.747-1.509,1.267-2.419
					l2.451-4.059h1.673v7.858h-1.363V65.09c0-1.283,0.031-1.948,0.095-3.215h-0.047c-0.503,1.007-0.844,1.64-1.299,2.436
					c-0.748,1.217-1.607,2.727-2.453,4.107h-1.64V60.56H129.152z"/>
				<path fill="#FFFFFF" d="M137.632,64.748c0.033,1.933,1.268,2.729,2.697,2.729c1.023,0,1.639-0.179,2.175-0.406l0.243,1.023
					c-0.504,0.228-1.364,0.487-2.614,0.487c-2.419,0-3.862-1.592-3.862-3.962s1.395-4.238,3.686-4.238
					c2.564,0,3.247,2.257,3.247,3.702c0,0.292-0.034,0.52-0.051,0.666H137.632L137.632,64.748z M141.822,63.725
					c0.017-0.908-0.374-2.322-1.98-2.322c-1.444,0-2.078,1.331-2.191,2.322H141.822z"/>
				<path fill="#FFFFFF" d="M-2.133,83.431h3.962c-0.13-1.348-0.958-2.452-2.711-2.452c-0.828,0-1.462,0.243-1.885,0.438
					l-0.309-0.928c0.681-0.388,1.591-0.615,2.419-0.615c1.136,0,2.16,0.391,2.856,1.12c0.667,0.698,1.072,1.737,1.072,3.019
					c0,2.288-1.511,4.075-4.174,4.075c-0.845,0-1.655-0.211-2.289-0.535l0.276-1.023c0.373,0.163,1.04,0.422,1.964,0.422
					c1.575,0,2.63-0.989,2.76-2.549h-3.946v-0.972H-2.133z"/>
				<path fill="#FFFFFF" d="M11.039,80.054v7.86H9.627v-6.74H6.931v2.047c0,2.208-0.211,3.686-1.235,4.351
					c-0.39,0.308-0.828,0.488-1.558,0.488l-0.146-1.121c0.276-0.05,0.584-0.163,0.78-0.324c0.731-0.535,0.812-1.641,0.812-3.394
					v-3.167H11.039z"/>
				<path fill="#FFFFFF" d="M14.177,84.242c0.033,1.935,1.268,2.73,2.695,2.73c1.022,0,1.64-0.18,2.176-0.407l0.243,1.023
					c-0.504,0.227-1.363,0.486-2.614,0.486c-2.419,0-3.864-1.592-3.864-3.963c0-2.37,1.396-4.236,3.686-4.236
					c2.565,0,3.248,2.257,3.248,3.701c0,0.291-0.032,0.519-0.048,0.664L14.177,84.242L14.177,84.242z M18.365,83.221
					c0.017-0.91-0.374-2.323-1.98-2.323c-1.444,0-2.078,1.331-2.192,2.323H18.365z"/>
				<path fill="#FFFFFF" d="M22.932,80.054v3.41h0.341l2.955-3.41h1.737l-3.425,3.556c1.267,0.132,2.029,0.974,2.646,2.388
					c0.212,0.521,0.487,1.282,0.845,1.917h-1.495c-0.211-0.343-0.487-0.96-0.731-1.609c-0.536-1.268-1.267-1.851-2.598-1.851h-0.276
					v3.46H21.52v-7.86H22.932z"/>
				<path fill="#FFFFFF" d="M34.887,80.054v1.138h-2.452v6.723h-1.412v-6.723h-2.452v-1.138H34.887z"/>
				<path fill="#FFFFFF" d="M36.141,82.62c0-1.008-0.033-1.819-0.065-2.566h1.282l0.065,1.348h0.032
					c0.585-0.957,1.51-1.525,2.793-1.525c1.9,0,3.329,1.607,3.329,3.992c0,2.826-1.721,4.223-3.572,4.223
					c-1.04,0-1.948-0.455-2.419-1.234h-0.032v4.27h-1.412V82.62z M37.554,84.714c0,0.209,0.033,0.406,0.065,0.585
					c0.26,0.988,1.121,1.671,2.143,1.671c1.511,0,2.387-1.234,2.387-3.035c0-1.575-0.829-2.924-2.338-2.924
					c-0.975,0-1.883,0.7-2.16,1.771c-0.049,0.18-0.097,0.391-0.097,0.585V84.714z"/>
				<path fill="#FFFFFF" d="M52.497,83.918c0,2.906-2.014,4.173-3.913,4.173c-2.127,0-3.768-1.558-3.768-4.041
					c0-2.63,1.721-4.173,3.896-4.173C50.97,79.876,52.497,81.515,52.497,83.918z M46.26,83.999c0,1.72,0.992,3.021,2.387,3.021
					c1.363,0,2.387-1.284,2.387-3.054c0-1.33-0.666-3.02-2.354-3.02S46.26,82.507,46.26,83.999z"/>
				<path fill="#FFFFFF" d="M60.262,80.054v7.86H58.85v-6.74h-2.696v2.047c0,2.208-0.211,3.686-1.235,4.351
					c-0.389,0.308-0.828,0.488-1.558,0.488l-0.146-1.121c0.276-0.05,0.585-0.163,0.78-0.324c0.731-0.535,0.812-1.641,0.812-3.394
					v-3.167H60.262z"/>
				<path fill="#FFFFFF" d="M63.92,80.054v3.313c0,1.25-0.017,2.027-0.082,3.148l0.048,0.018c0.471-0.957,0.748-1.51,1.267-2.42
					l2.452-4.059h1.671v7.86h-1.363v-3.331c0-1.28,0.032-1.945,0.098-3.214h-0.049c-0.504,1.007-0.845,1.64-1.298,2.436
					c-0.748,1.218-1.608,2.729-2.452,4.109h-1.64v-7.86H63.92z"/>
				<path fill="#FFFFFF" d="M76.864,80.054v1.138h-2.451v6.723h-1.412v-6.723h-2.452v-1.138H76.864z"/>
				<path fill="#FFFFFF" d="M85.019,83.918c0,2.906-2.012,4.173-3.913,4.173c-2.126,0-3.766-1.558-3.766-4.041
					c0-2.63,1.721-4.173,3.896-4.173C83.493,79.876,85.019,81.515,85.019,83.918z M78.784,83.999c0,1.72,0.991,3.021,2.388,3.021
					c1.365,0,2.389-1.284,2.389-3.054c0-1.33-0.666-3.02-2.356-3.02C79.517,80.946,78.784,82.507,78.784,83.999z"/>
				<path fill="#FFFFFF" d="M86.796,80.15c0.55-0.097,1.573-0.18,2.498-0.18c1.317,0,3.493,0.212,3.493,1.965
					c0,0.976-0.748,1.576-1.642,1.771v0.031c1.154,0.163,1.999,0.813,1.999,1.948c0,2.061-2.599,2.322-4.141,2.322
					c-0.877,0-1.786-0.064-2.208-0.098V80.15L86.796,80.15z M88.142,86.97c0.407,0.05,0.698,0.066,1.152,0.066
					c0.96,0,2.39-0.228,2.39-1.364c0-1.138-1.138-1.382-2.503-1.382h-1.039V86.97z M88.157,83.35h1.073
					c1.056,0,2.143-0.308,2.143-1.231c0-0.78-0.683-1.154-2.11-1.154c-0.471,0-0.765,0.03-1.105,0.064V83.35z"/>
				<path fill="#FFFFFF" d="M99.806,80.054v3.41h0.342l2.954-3.41h1.737l-3.424,3.556c1.267,0.132,2.028,0.974,2.646,2.388
					c0.209,0.521,0.485,1.282,0.844,1.917h-1.495c-0.21-0.343-0.486-0.96-0.729-1.609c-0.536-1.268-1.269-1.851-2.599-1.851h-0.276
					v3.46h-1.411v-7.86H99.806z"/>
				<path fill="#FFFFFF" d="M106.176,82.62c0-1.008-0.033-1.819-0.067-2.566h1.285l0.063,1.348h0.031
					c0.585-0.957,1.51-1.525,2.793-1.525c1.9,0,3.328,1.607,3.328,3.992c0,2.826-1.721,4.223-3.572,4.223
					c-1.04,0-1.947-0.455-2.419-1.234h-0.032v4.27h-1.41V82.62z M107.588,84.714c0,0.209,0.033,0.406,0.064,0.585
					c0.26,0.988,1.121,1.671,2.144,1.671c1.51,0,2.389-1.234,2.389-3.035c0-1.575-0.83-2.924-2.34-2.924
					c-0.976,0-1.886,0.7-2.16,1.771c-0.048,0.18-0.097,0.391-0.097,0.585V84.714z"/>
				<path fill="#FFFFFF" d="M122.529,83.918c0,2.906-2.013,4.173-3.914,4.173c-2.126,0-3.766-1.558-3.766-4.041
					c0-2.63,1.721-4.173,3.896-4.173C121.003,79.876,122.529,81.515,122.529,83.918z M116.296,83.999
					c0,1.72,0.989,3.021,2.386,3.021c1.365,0,2.388-1.284,2.388-3.054c0-1.33-0.665-3.02-2.354-3.02
					C117.024,80.946,116.296,82.507,116.296,83.999z"/>
				<path fill="#FFFFFF" d="M124.306,80.15c0.551-0.097,1.573-0.18,2.498-0.18c1.317,0,3.493,0.212,3.493,1.965
					c0,0.976-0.748,1.576-1.642,1.771v0.031c1.154,0.163,1.999,0.813,1.999,1.948c0,2.061-2.599,2.322-4.142,2.322
					c-0.876,0-1.786-0.064-2.207-0.098V80.15z M125.651,86.97c0.407,0.05,0.698,0.066,1.152,0.066c0.96,0,2.39-0.228,2.39-1.364
					c0-1.138-1.138-1.382-2.503-1.382h-1.039V86.97z M125.67,83.35h1.07c1.054,0,2.143-0.308,2.143-1.231
					c0-0.78-0.683-1.154-2.11-1.154c-0.471,0-0.765,0.03-1.103,0.064V83.35z"/>
				<path fill="#FFFFFF" d="M133.774,80.054v3.313c0,1.25-0.017,2.027-0.082,3.148l0.05,0.018c0.471-0.957,0.747-1.51,1.267-2.42
					l2.451-4.059h1.673v7.86h-1.363v-3.331c0-1.28,0.031-1.945,0.095-3.214h-0.048c-0.502,1.007-0.843,1.64-1.298,2.436
					c-0.748,1.218-1.607,2.729-2.454,4.109h-1.639v-7.86H133.774z"/>
				<path fill="#FFFFFF" d="M141.119,81.353c0-0.6,0.407-1.022,0.974-1.022c0.568,0,0.943,0.423,0.96,1.022
					c0,0.568-0.373,1.007-0.977,1.007C141.508,82.359,141.119,81.921,141.119,81.353z M141.119,87.083
					c0-0.6,0.407-1.022,0.974-1.022c0.568,0,0.943,0.423,0.96,1.022c0,0.569-0.373,1.008-0.977,1.008
					C141.508,88.091,141.119,87.652,141.119,87.083z"/>
				<path fill="#FFFFFF" d="M148.314,87.914V76.969h1.544l3.506,5.538c0.813,1.282,1.445,2.435,1.965,3.556l0.031-0.017
					c-0.129-1.463-0.161-2.794-0.161-4.497v-4.58h1.33v10.945h-1.429l-3.474-5.555c-0.763-1.217-1.495-2.468-2.046-3.652
					l-0.051,0.016c0.083,1.382,0.114,2.695,0.114,4.514v4.678H148.314z"/>
				<path fill="#FFFFFF" d="M163.307,87.914l-0.114-0.99h-0.047c-0.439,0.617-1.283,1.167-2.404,1.167c-1.59,0-2.4-1.118-2.4-2.256
					c0-1.899,1.687-2.939,4.725-2.924v-0.16c0-0.65-0.18-1.82-1.786-1.82c-0.73,0-1.495,0.228-2.048,0.586l-0.322-0.941
					c0.647-0.422,1.591-0.698,2.581-0.698c2.401,0,2.987,1.64,2.987,3.214v2.939c0,0.682,0.032,1.348,0.13,1.884H163.307
					L163.307,87.914z M163.096,83.902c-1.559-0.031-3.327,0.243-3.327,1.77c0,0.927,0.616,1.365,1.347,1.365
					c1.023,0,1.673-0.649,1.9-1.315c0.048-0.146,0.08-0.31,0.08-0.455V83.902z"/>
				<path fill="#FFFFFF" d="M165.86,89.91c0.357-0.96,0.795-2.695,0.974-3.882l1.592-0.161c-0.373,1.38-1.089,3.184-1.543,3.945
					L165.86,89.91z"/>
				<path fill="#FFFFFF" d="M170.197,76.969h1.413v5.277h0.049c0.292-0.422,0.584-0.813,0.86-1.169l3.347-4.108h1.753l-3.964,4.644
					l4.271,6.302h-1.673l-3.603-5.376l-1.04,1.203v4.173h-1.413V76.969L170.197,76.969z"/>
				<path fill="#FFFFFF" d="M178.304,89.91c0.358-0.96,0.796-2.695,0.975-3.882l1.592-0.161c-0.374,1.38-1.088,3.184-1.543,3.945
					L178.304,89.91z"/>
				<path fill="#FFFFFF" d="M190.288,87.556c-0.52,0.258-1.559,0.52-2.89,0.52c-3.086,0-5.407-1.949-5.407-5.537
					c0-3.424,2.321-5.748,5.715-5.748c1.365,0,2.227,0.293,2.6,0.487l-0.341,1.153c-0.537-0.261-1.299-0.455-2.209-0.455
					c-2.566,0-4.27,1.64-4.27,4.514c0,2.68,1.543,4.399,4.204,4.399c0.862,0,1.737-0.178,2.306-0.454L190.288,87.556z"/>
				<path fill="#FFFFFF" d="M192.014,76.384h1.43v11.53h-1.43V76.384z"/>
			</g>
		</g>
	</g>
	<g>
		<g>
			<g>
				<path fill="#263238" d="M-24.178,91.621h-0.047c-0.467-0.002-0.934-0.017-1.401-0.037c-0.233-0.01-0.455-0.034-0.701-0.067
					l-0.092-0.012c-0.276-0.035-0.553-0.069-0.825-0.122c-0.293-0.056-0.586-0.124-0.877-0.193l-0.222-0.053
					c-0.214-0.048-0.429-0.103-0.644-0.161c-0.17-0.045-0.338-0.097-0.505-0.152c-0.168-0.054-0.336-0.114-0.504-0.177l-0.245-0.089
					c-0.252-0.09-0.502-0.18-0.747-0.284c-0.337-0.144-0.686-0.311-1.063-0.506c-0.439-0.228-0.867-0.454-1.276-0.704
					c-0.479-0.288-0.968-0.629-1.498-1.043c-0.691-0.538-1.357-1.145-1.981-1.805c-0.698-0.736-1.333-1.541-1.894-2.394
					c-0.454-0.689-0.826-1.355-1.138-2.035c-0.201-0.437-0.367-0.807-0.521-1.189c-0.087-0.217-0.158-0.441-0.23-0.665l-0.119-0.366
					c-0.069-0.212-0.14-0.422-0.196-0.635c-0.087-0.335-0.159-0.673-0.23-1.012c-0.048-0.222-0.089-0.446-0.133-0.67l-0.061-0.333
					l-0.024-0.247c-0.015-0.172-0.028-0.343-0.056-0.514c-0.069-0.462-0.072-0.919-0.075-1.36l-0.002-0.242
					c-0.005-0.506,0.005-1.008,0.031-1.495c0.023-0.402,0.075-0.794,0.128-1.159c0.032-0.222,0.079-0.443,0.123-0.665l0.07-0.345
					c0.025-0.132,0.048-0.26,0.078-0.39c0.013-0.061,0.031-0.12,0.05-0.183l0.142-0.486l1.678,0.567l-0.038,0.393
					c-0.003,0.06-0.009,0.122-0.019,0.183c-0.011,0.063-0.026,0.125-0.04,0.188l-0.072,0.349c-0.042,0.214-0.085,0.431-0.122,0.648
					c-0.032,0.188-0.056,0.378-0.074,0.569c-0.049,0.521-0.096,1.143-0.077,1.777c0.018,0.58,0.042,1.083,0.076,1.542
					c0.012,0.172,0.04,0.341,0.07,0.512c0.017,0.086,0.028,0.172,0.042,0.258l0.028,0.196c0.016,0.11,0.031,0.22,0.05,0.331
					c0.02,0.12,0.044,0.24,0.074,0.36c0.017,0.071,0.034,0.141,0.053,0.211c0.019,0.067,0.035,0.133,0.053,0.196
					c0.012,0.053,0.024,0.108,0.034,0.161c0.014,0.063,0.024,0.125,0.042,0.187l0.063,0.211c0.085,0.285,0.172,0.573,0.272,0.854
					c0.109,0.306,0.241,0.624,0.424,1.038c0.153,0.343,0.318,0.704,0.503,1.054c0.409,0.77,0.894,1.515,1.445,2.22
					c0.417,0.532,0.822,0.993,1.24,1.412c0.423,0.422,0.89,0.837,1.393,1.232c0.493,0.387,1.01,0.746,1.535,1.067
					c0.298,0.183,0.625,0.36,1.056,0.581c0.34,0.172,0.7,0.338,1.068,0.495c0.193,0.084,0.391,0.149,0.59,0.217l0.216,0.074
					c0.233,0.083,0.467,0.164,0.703,0.239c0.065,0.021,0.129,0.033,0.192,0.047l0.118,0.027c0.094,0.023,0.188,0.048,0.282,0.073
					l0.136,0.035c0.092,0.023,0.182,0.048,0.275,0.068c0.127,0.029,0.254,0.051,0.383,0.073l0.05,0.008
					c0.154,0.027,0.309,0.052,0.464,0.078c0.277,0.045,0.553,0.076,0.831,0.105l0.304,0.033c0.33,0.038,0.69,0.057,1.134,0.057
					c0.258,0,0.52-0.006,0.779-0.012l0.051-0.001c0.279-0.007,0.561-0.04,0.86-0.074l0.325-0.037
					c0.206-0.021,0.416-0.048,0.621-0.082c0.132-0.023,0.262-0.05,0.393-0.076l0.395-0.076c0.077-0.014,0.153-0.028,0.231-0.045
					c0.101-0.024,0.206-0.05,0.31-0.077l0.192-0.056c0.065-0.021,0.131-0.039,0.198-0.056c0.361-0.078,0.705-0.205,1.073-0.339
					c0.434-0.16,0.792-0.307,1.124-0.454c0.273-0.125,0.563-0.269,0.912-0.463c0.654-0.36,1.231-0.728,1.765-1.124
					c0.438-0.328,0.944-0.722,1.396-1.169l0.155-0.153c0.298-0.295,0.605-0.598,0.882-0.909c0.553-0.616,1.064-1.301,1.526-2.037
					c0.31-0.498,0.598-1.027,0.882-1.619c0.156-0.323,0.286-0.656,0.422-1.013l0.041-0.105c0.098-0.251,0.183-0.504,0.27-0.759
					l0.056-0.164c0.016-0.049,0.028-0.098,0.039-0.147l0.079-0.294c0.023-0.075,0.043-0.149,0.062-0.228
					c0.026-0.089,0.045-0.18,0.063-0.27c0.053-0.266,0.104-0.535,0.155-0.804c0.026-0.131,0.043-0.264,0.065-0.395l0.112-0.785
					c0.002-0.017,0.006-0.033,0.006-0.05c0.007-0.188,0.016-0.376,0.022-0.566c0.019-0.436,0.037-0.888,0.034-1.327
					c-0.001-0.323-0.034-0.648-0.067-0.991l-0.03-0.322c-0.027-0.293-0.056-0.529-0.092-0.742c-0.031-0.192-0.075-0.383-0.115-0.575
					l-0.073-0.34c-0.017-0.077-0.031-0.153-0.05-0.229l-0.038-0.149c-0.046-0.183-0.092-0.365-0.149-0.543l-0.064-0.203
					c-0.108-0.353-0.221-0.717-0.354-1.062c-0.111-0.291-0.242-0.573-0.377-0.872l-0.157-0.347
					c-0.144-0.323-0.069-0.556,0.239-0.732c0.141-0.081,0.282-0.163,0.422-0.246l0.221-0.132c0.029-0.015,0.052-0.028,0.083-0.043
					l0.427-0.228l0.276,0.561c0.066,0.136,0.134,0.267,0.194,0.403c0.155,0.356,0.312,0.713,0.458,1.076
					c0.069,0.174,0.127,0.354,0.186,0.535l0.084,0.258c0.066,0.202,0.131,0.405,0.192,0.608c0.067,0.236,0.126,0.473,0.183,0.708
					c0.063,0.259,0.122,0.522,0.18,0.783c0.027,0.128,0.05,0.257,0.069,0.388c0.03,0.207,0.061,0.417,0.085,0.626
					c0.034,0.291,0.063,0.584,0.094,0.875l0.017,0.156c0.008,0.077,0.013,0.154,0.013,0.232l0.003,0.479
					c0.002,0.46,0.006,0.921-0.003,1.381c-0.005,0.326-0.036,0.652-0.068,0.958c-0.035,0.32-0.08,0.643-0.136,0.953
					c-0.035,0.211-0.083,0.421-0.127,0.63l-0.086,0.388c-0.036,0.176-0.074,0.353-0.12,0.525c-0.06,0.227-0.131,0.451-0.199,0.676
					l-0.053,0.172c-0.046,0.151-0.095,0.303-0.146,0.449l-0.066,0.189c-0.073,0.213-0.146,0.425-0.232,0.632
					c-0.329,0.803-0.713,1.573-1.139,2.29c-0.51,0.862-1.104,1.686-1.764,2.451c-0.535,0.618-1.122,1.211-1.748,1.76
					c-0.635,0.559-1.32,1.076-2.034,1.536c-0.508,0.328-1.06,0.639-1.642,0.924c-0.514,0.254-0.993,0.467-1.467,0.652
					c-0.319,0.125-0.647,0.226-0.962,0.322l-0.111,0.033c-0.365,0.111-0.732,0.215-1.102,0.318
					c-0.091,0.025-0.186,0.044-0.278,0.061l-0.962,0.182c-0.146,0.019-0.293,0.033-0.441,0.053l-0.85,0.109
					c-0.077,0.013-0.154,0.018-0.232,0.021l-0.319,0.01C-23.639,91.611-23.908,91.621-24.178,91.621z"/>
			</g>
			<g>
				<path fill="#263238" d="M-21.55,85.166c-0.22,0-0.413-0.068-0.574-0.204c-0.271-0.23-0.255-0.501-0.22-0.645
					c0.032-0.135,0.063-0.268,0.083-0.404c0.037-0.298,0.226-0.51,0.52-0.586c0.385-0.096,0.792-0.244,1.281-0.462
					c0.464-0.209,0.92-0.467,1.396-0.791c0.619-0.425,1.183-0.916,1.676-1.465c0.557-0.624,1.029-1.315,1.397-2.056
					c0.275-0.55,0.462-1.024,0.586-1.489c0.038-0.143,0.075-0.285,0.108-0.428c0.029-0.124,0.061-0.246,0.092-0.368
					c0.043-0.169,0.068-0.351,0.092-0.542c0.011-0.08,0.022-0.16,0.034-0.243c0.081-0.537,0.063-1.08,0.043-1.656l-0.009-0.305
					c-0.004-0.132-0.031-0.275-0.061-0.428c-0.014-0.074-0.028-0.146-0.04-0.219c-0.025-0.145-0.043-0.272-0.072-0.398l-0.027-0.123
					c-0.034-0.165-0.069-0.331-0.118-0.491c-0.078-0.248-0.166-0.492-0.254-0.737l-0.042-0.123
					c-0.167-0.461-0.405-0.938-0.725-1.459c-0.43-0.7-0.951-1.335-1.544-1.89c-0.583-0.542-1.154-0.966-1.745-1.291l-0.08-0.042
					c-0.305-0.167-0.593-0.324-0.891-0.454c-0.301-0.13-0.61-0.229-0.985-0.345c-0.162-0.049-0.328-0.088-0.494-0.127
					c-0.093-0.023-0.188-0.043-0.282-0.067c-0.17-0.044-0.352-0.068-0.542-0.093c-0.081-0.01-0.161-0.021-0.243-0.034
					c-0.272-0.039-0.572-0.06-0.939-0.06c-0.234,0-0.467,0.007-0.703,0.015l-0.351,0.011c-0.123,0.001-0.26,0.027-0.404,0.057
					c-0.075,0.015-0.149,0.028-0.225,0.041l-0.141,0.021c-0.107,0.018-0.214,0.031-0.316,0.056
					c-0.202,0.046-0.402,0.102-0.603,0.158c-0.159,0.046-0.316,0.099-0.476,0.154c-0.406,0.14-0.769,0.293-1.116,0.469
					c-0.38,0.196-0.744,0.415-1.084,0.649c-0.531,0.37-1.013,0.782-1.434,1.221c-0.389,0.407-0.737,0.841-1.035,1.292
					c-0.291,0.438-0.54,0.895-0.746,1.359c-0.157,0.356-0.294,0.722-0.418,1.122c-0.045,0.141-0.078,0.287-0.11,0.431l-0.156,0.677
					l-0.022,0.198c-0.02,0.15-0.036,0.303-0.05,0.455l-0.008,0.106c-0.019,0.209-0.037,0.418-0.04,0.625
					c-0.002,0.154,0.009,0.31,0.021,0.464l0.017,0.279c0.002,0.034,0.003,0.068,0.006,0.101c0.008,0.085,0.014,0.17,0.021,0.254
					c0.014,0.188,0.026,0.364,0.056,0.532c0.055,0.313,0.135,0.646,0.233,0.99c0.089,0.313,0.2,0.682,0.346,1.039
					c0.103,0.257,0.232,0.508,0.367,0.772l0.103,0.2c0.104,0.208,0.097,0.405-0.021,0.582c-0.115,0.177-0.23,0.354-0.344,0.53
					l-0.256,0.397l-0.435,0.208l-0.231-0.258c-0.042-0.051-0.069-0.085-0.092-0.124c-0.36-0.578-0.667-1.206-0.938-1.915
					c-0.072-0.187-0.13-0.378-0.187-0.57l-0.088-0.29c-0.053-0.169-0.106-0.34-0.144-0.513c-0.056-0.258-0.099-0.52-0.141-0.779
					l-0.022-0.129c-0.114-0.69-0.153-1.386-0.119-2.076c0.015-0.312,0.05-0.623,0.085-0.924l0.021-0.18
					c0.024-0.215,0.06-0.431,0.099-0.643c0.021-0.111,0.05-0.222,0.082-0.331l0.073-0.286c0.036-0.145,0.073-0.291,0.115-0.433
					c0.067-0.222,0.14-0.441,0.22-0.656c0.195-0.516,0.425-1.014,0.687-1.484c0.323-0.584,0.694-1.134,1.104-1.63
					c0.622-0.754,1.318-1.417,2.07-1.97c0.594-0.436,1.229-0.815,1.89-1.123c0.312-0.145,0.652-0.284,1.044-0.426
					c0.273-0.097,0.572-0.188,0.917-0.272c0.163-0.042,0.333-0.071,0.501-0.1c0.101-0.019,0.204-0.037,0.305-0.058
					c0.535-0.111,1.121-0.168,1.853-0.177l0.104-0.001c0.398,0,0.792,0.031,1.162,0.063c0.331,0.028,0.651,0.085,0.921,0.137
					c0.211,0.039,0.421,0.096,0.63,0.153l0.222,0.06c0.222,0.06,0.444,0.118,0.661,0.191c0.27,0.089,0.521,0.19,0.751,0.295
					c0.31,0.144,0.673,0.318,1.026,0.518c0.401,0.228,0.743,0.439,1.049,0.654c0.477,0.331,0.938,0.722,1.381,1.16
					c0.441,0.44,0.841,0.91,1.191,1.393c0.327,0.452,0.612,0.917,0.854,1.381c0.233,0.45,0.4,0.828,0.532,1.189l0.067,0.181
					c0.066,0.178,0.133,0.357,0.188,0.537c0.045,0.15,0.081,0.306,0.115,0.459l0.114,0.488c0.173,0.747,0.254,1.55,0.246,2.455
					c-0.003,0.498-0.047,1.025-0.132,1.567c-0.032,0.215-0.084,0.428-0.136,0.643l-0.063,0.28c-0.04,0.179-0.082,0.357-0.133,0.532
					c-0.053,0.188-0.13,0.436-0.227,0.682c-0.119,0.302-0.25,0.597-0.384,0.892c-0.208,0.46-0.473,0.925-0.809,1.428
					c-0.421,0.633-0.931,1.242-1.512,1.811c-0.69,0.672-1.476,1.255-2.335,1.735c-0.549,0.308-1.074,0.544-1.599,0.727l-0.205,0.071
					c-0.173,0.065-0.352,0.131-0.544,0.179C-21.342,85.153-21.447,85.166-21.55,85.166z"/>
			</g>
			<g>
				<path fill="#263238" d="M-20.736,78.984c-0.084,0-0.168-0.003-0.252-0.008c-0.306-0.019-0.581-0.04-0.853-0.101
					c-0.26-0.058-0.536-0.148-0.844-0.277c-0.406-0.172-0.791-0.415-1.143-0.72c-0.547-0.477-0.958-1.039-1.218-1.67
					c-0.003-0.004-0.004-0.009-0.005-0.012c-0.041,0.015-0.083,0.028-0.122,0.043c-0.278,0.105-0.497,0.166-0.717,0.196
					c-0.055,0.008-0.112,0.018-0.169,0.028c-0.123,0.021-0.246,0.039-0.37,0.043c-0.312,0.009-0.62,0.006-0.929-0.019
					c-0.155-0.012-0.3-0.05-0.439-0.09l-0.107-0.027c-0.156-0.042-0.313-0.089-0.467-0.143c-0.381-0.135-0.743-0.329-1.101-0.597
					c-0.384-0.289-0.694-0.595-0.947-0.938c-0.204-0.275-0.377-0.571-0.531-0.907c-0.149-0.331-0.257-0.682-0.321-1.046
					c-0.049-0.28-0.099-0.65-0.062-1.027c0.029-0.279,0.06-0.551,0.119-0.824c0.069-0.325,0.188-0.651,0.363-0.999
					c0.255-0.498,0.581-0.933,0.97-1.289c0.377-0.348,0.774-0.612,1.213-0.813c0.302-0.14,0.621-0.248,0.95-0.325
					c0.273-0.064,0.565-0.094,0.884-0.094c0.001,0,0.003,0,0.003,0c0.429,0,0.729,0.027,1.009,0.085
					c0.398,0.085,0.742,0.203,1.047,0.361c0.271,0.137,0.42,0.392,0.397,0.681c-0.014,0.197-0.106,0.47-0.466,0.629
					c-0.186,0.084-0.396,0.04-0.544-0.01c-0.122-0.039-0.207-0.076-0.293-0.11c-0.127-0.052-0.248-0.099-0.367-0.125
					c-0.371-0.084-0.692-0.107-1.018-0.064c-0.169,0.021-0.389,0.053-0.594,0.12c-0.329,0.105-0.627,0.252-0.886,0.433
					c-0.497,0.349-0.875,0.822-1.125,1.404c-0.041,0.094-0.068,0.202-0.095,0.315c-0.018,0.069-0.032,0.137-0.053,0.203
					c-0.074,0.247-0.066,0.506-0.06,0.781l0.004,0.184c0.001,0.154,0.043,0.31,0.085,0.477l0.025,0.094
					c0.054,0.211,0.14,0.418,0.257,0.632c0.27,0.479,0.622,0.85,1.074,1.138c0.219,0.14,0.463,0.255,0.739,0.351
					c0.057,0.022,0.118,0.028,0.179,0.039c0.079,0.014,0.157,0.027,0.233,0.05c0.116,0.039,0.238,0.048,0.386,0.048l0.195-0.001
					h0.081h0.003c0.228,0,0.424-0.046,0.632-0.098l0.058-0.014c0.275-0.067,0.545-0.187,0.856-0.378
					c0.508-0.316,0.89-0.751,1.166-1.328c0.089-0.189,0.15-0.403,0.203-0.591c0.034-0.122,0.048-0.25,0.061-0.384
					c0.008-0.079,0.016-0.154,0.027-0.233c0.011-0.075,0.003-0.163-0.005-0.257c-0.005-0.042-0.008-0.085-0.011-0.127
					c-0.001-0.023-0.005-0.045-0.008-0.068c-0.005-0.035-0.011-0.07-0.013-0.105c-0.017-0.292-0.12-0.562-0.22-0.789
					c-0.069-0.155-0.153-0.304-0.235-0.451l-0.076-0.134c-0.177-0.33-0.056-0.773,0.261-0.954c0.316-0.182,0.742-0.097,0.944,0.191
					c0.123,0.174,0.228,0.36,0.314,0.518c0.047,0.086,0.085,0.181,0.12,0.274c0.038-0.016,0.076-0.029,0.112-0.042
					c0.297-0.124,0.637-0.208,1.036-0.258c0.486-0.061,0.875-0.053,1.244,0.026c0.218,0.046,0.436,0.098,0.654,0.153
					c0.32,0.083,0.645,0.222,1.014,0.442c0.6,0.359,1.106,0.85,1.504,1.462c0.23,0.355,0.409,0.75,0.535,1.174
					c0.162,0.549,0.222,1.103,0.181,1.646c-0.011,0.155-0.042,0.305-0.072,0.448c-0.014,0.075-0.031,0.147-0.043,0.223
					c-0.047,0.294-0.157,0.563-0.264,0.814c-0.243,0.563-0.597,1.061-1.085,1.523c-0.402,0.379-0.873,0.679-1.399,0.892
					C-19.656,78.875-20.199,78.984-20.736,78.984z M-23.806,75.447c0.146,0.392,0.339,0.722,0.586,1.007
					c0.436,0.504,0.991,0.845,1.65,1.013c0.155,0.04,0.319,0.056,0.495,0.071c0.076,0.005,0.15,0.014,0.226,0.022l0.176-0.022
					c0.149-0.021,0.298-0.042,0.448-0.056c0.183-0.02,0.36-0.086,0.547-0.158c0.288-0.108,0.549-0.262,0.812-0.475
					c0.466-0.374,0.803-0.857,1.002-1.436c0.066-0.193,0.114-0.41,0.147-0.683c0.03-0.247,0.031-0.442,0.002-0.62
					c-0.022-0.121-0.042-0.241-0.066-0.36l-0.026-0.136c-0.052-0.269-0.173-0.52-0.287-0.729c-0.17-0.318-0.408-0.609-0.705-0.867
					c-0.2-0.173-0.399-0.307-0.607-0.406c-0.189-0.091-0.415-0.192-0.662-0.249c-0.228-0.053-0.416-0.085-0.593-0.104
					c-0.289-0.028-0.577,0.007-0.963,0.104c-0.175,0.044-0.355,0.108-0.561,0.197c0.042,0.612-0.019,1.168-0.189,1.707
					c-0.107,0.343-0.237,0.642-0.39,0.919C-23.028,74.668-23.379,75.09-23.806,75.447z"/>
			</g>
			<g>
				<path fill="#263238" d="M-33.133,61.851l-1.177-1.454l0.387-0.256c2.364-1.573,4.958-2.526,7.706-2.838
					c2.783-0.313,5.537,0.042,8.189,1.058l0.422,0.161l-0.781,1.692l-0.368-0.14c-1.784-0.677-3.64-1.021-5.521-1.021
					c-3.029,0-5.982,0.894-8.535,2.586L-33.133,61.851z"/>
			</g>
			<g>
				<path fill="#263238" d="M-26.762,74.055c-0.358,0-0.64-0.238-0.684-0.578c-0.026-0.194-0.026-0.388-0.026-0.575v-0.181
					c-0.001-0.024-0.001-0.043-0.001-0.062c-0.02,0-0.037,0-0.057,0h-0.293c-0.122,0-0.244-0.001-0.367-0.005
					c-0.344-0.011-0.593-0.229-0.668-0.582c-0.062-0.298,0.089-0.611,0.368-0.762c0.11-0.06,0.224-0.088,0.348-0.088
					c0.111,0.001,0.211,0.002,0.31,0.002l0.36-0.001l0.005-0.665c0.005-0.294,0.138-0.517,0.396-0.656
					c0.328-0.178,0.813-0.009,0.955,0.319c0.054,0.122,0.085,0.258,0.089,0.399c0.009,0.186,0.007,0.373,0.006,0.568v0.035h0.682
					c0.402,0,0.682,0.351,0.708,0.674c0.017,0.179-0.061,0.383-0.2,0.536c-0.131,0.144-0.305,0.224-0.483,0.224l-0.187-0.001
					l-0.521,0.004v0.216c0.001,0.146,0.002,0.292-0.005,0.438c-0.015,0.398-0.223,0.581-0.396,0.663
					C-26.525,74.029-26.644,74.055-26.762,74.055z"/>
			</g>
			<g>
				<path fill="#263238" d="M-20.838,76.522c-0.34,0-0.624-0.228-0.691-0.551c-0.018-0.09-0.026-0.185-0.026-0.275
					c-0.003-0.114-0.003-0.228-0.003-0.341v-0.233l-0.477-0.004l-0.214,0.002l0,0c-0.198,0-0.373-0.073-0.502-0.204
					c-0.135-0.138-0.206-0.323-0.204-0.523c0.009-0.442,0.373-0.707,0.718-0.709h0.678v-0.235c0-0.126,0-0.252,0.003-0.377
					c0.002-0.162,0.021-0.331,0.139-0.486c0.176-0.229,0.412-0.332,0.687-0.286c0.267,0.043,0.457,0.195,0.552,0.434
					c0.044,0.117,0.068,0.233,0.068,0.355c-0.001,0.18-0.001,0.36-0.001,0.548v0.046l0.389-0.002c0.1,0,0.199,0.001,0.301,0.004
					c0.198,0.004,0.377,0.087,0.512,0.231c0.135,0.145,0.208,0.346,0.197,0.535c-0.021,0.349-0.322,0.651-0.662,0.664
					c-0.158,0.007-0.318,0.008-0.478,0.008h-0.257v0.277c0,0.125,0,0.252-0.001,0.375c-0.003,0.286-0.13,0.511-0.367,0.649
					C-20.585,76.488-20.708,76.522-20.838,76.522z"/>
			</g>
		</g>
		<g>
			<path fill="#263238" d="M-45.455,68.007v-6.818h1.917l1.509,2.499c0.43,0.717,0.861,1.566,1.185,2.336h0.031
				c-0.107-0.9-0.141-1.821-0.141-2.843v-1.993h1.51v6.818h-1.725l-1.551-2.63c-0.431-0.727-0.905-1.609-1.262-2.406l-0.031,0.01
				c0.042,0.9,0.064,1.862,0.064,2.974v2.054L-45.455,68.007L-45.455,68.007z"/>
			<path fill="#263238" d="M-35.079,68.007l-0.096-0.496h-0.032c-0.345,0.396-0.882,0.607-1.508,0.607
				c-1.065,0-1.702-0.729-1.702-1.518c0-1.284,1.228-1.9,3.092-1.89v-0.072c0-0.263-0.151-0.637-0.96-0.637
				c-0.537,0-1.109,0.172-1.454,0.374l-0.302-0.991c0.367-0.192,1.089-0.435,2.047-0.435c1.756,0,2.316,0.971,2.316,2.135v1.721
				c0,0.475,0.021,0.93,0.077,1.204L-35.079,68.007L-35.079,68.007z M-35.272,65.668c-0.862-0.009-1.53,0.183-1.53,0.78
				c0,0.394,0.28,0.585,0.647,0.585c0.41,0,0.744-0.253,0.852-0.566c0.021-0.081,0.031-0.172,0.031-0.262V65.668z"/>
		</g>
		<g>
			<path fill="#263238" d="M-16.197,57.974h1.626v3.015h0.032c0.161-0.262,0.334-0.505,0.495-0.749l1.648-2.266h2.014l-2.401,2.904
				l2.532,3.917h-1.917l-1.777-2.945l-0.625,0.718v2.227h-1.626V57.974z"/>
		</g>
		<g>
			<path fill="#263238" d="M-26.058,87.266c-0.3,0.144-0.98,0.295-1.864,0.295c-2.51,0-3.804-1.468-3.804-3.409
				c0-2.327,1.768-3.623,3.965-3.623c0.852,0,1.498,0.163,1.787,0.305l-0.333,1.224c-0.333-0.133-0.797-0.254-1.379-0.254
				c-1.304,0-2.317,0.739-2.317,2.256c0,1.365,0.863,2.227,2.329,2.227c0.494,0,1.043-0.101,1.367-0.223L-26.058,87.266z"/>
			<path fill="#263238" d="M-25.065,80.277h1.638v7.182h-1.638V80.277z"/>
		</g>
	</g>
</g>
</svg>
