<?xml version="1.0" encoding="utf-8"?>
<!-- Generator: Adobe Illustrator 16.0.3, SVG Export Plug-In . SVG Version: 6.00 Build 0)  -->
<!DOCTYPE svg PUBLIC "-//W3C//DTD SVG 1.1//EN" "http://www.w3.org/Graphics/SVG/1.1/DTD/svg11.dtd">
<svg version="1.1" id="Layer_1" xmlns="http://www.w3.org/2000/svg" xmlns:xlink="http://www.w3.org/1999/xlink" x="0px" y="0px"
	 width="150px" height="150px" viewBox="0 0 150 150" enable-background="new 0 0 150 150" xml:space="preserve">
<g>
	<path fill="#F3726A" d="M117.014,1754.814c-0.445,0-0.885-0.037-1.314-0.111l1.314,3.105l1.315-3.105
		C117.898,1754.777,117.459,1754.814,117.014,1754.814z"/>
	<path fill="#F3726A" d="M134.908,1758.674c-1.596,0-2.895,1.297-2.895,2.893s1.299,2.895,2.895,2.895s2.895-1.299,2.895-2.895
		S136.504,1758.674,134.908,1758.674z M134.908,1762.531c-0.533,0-0.965-0.432-0.965-0.965s0.432-0.965,0.965-0.965
		s0.965,0.432,0.965,0.965S135.441,1762.531,134.908,1762.531z"/>
	<path fill="#F3726A" d="M123.268,1725.057c-13.808,0-25,11.191-25,25c0,13.805,11.192,25,25,25c13.807,0,25-11.195,25-25
		C148.268,1736.248,137.074,1725.057,123.268,1725.057z M134.908,1766.392c-2.66,0-4.824-2.164-4.824-4.825
		c0-2.328,1.66-4.277,3.859-4.727v-2.282c0-1.987-1.615-3.601-3.602-3.601c-1.985,0-3.602,1.613-3.602,3.601v6.616
		c0,2.947-2.397,5.345-5.346,5.345c-2.947,0-5.346-2.397-5.346-5.345v-0.696l-2.813-6.642c-0.313-0.174-0.618-0.371-0.909-0.592
		c-1.363-1.025-2.33-2.436-2.799-4.076l-2.561-8.96c-0.363-1.274-0.113-2.61,0.683-3.666c0.798-1.058,2.014-1.663,3.337-1.663h0.561
		v-0.321c0-0.533,0.433-0.965,0.965-0.965c0.533,0,0.965,0.432,0.965,0.965v2.571c0,0.533-0.432,0.965-0.965,0.965
		c-0.532,0-0.965-0.432-0.965-0.965v-0.321h-0.561c-0.712,0-1.367,0.327-1.797,0.896c-0.429,0.568-0.563,1.29-0.367,1.975
		l2.561,8.961c0.715,2.5,3.029,4.246,5.631,4.246c2.601,0,4.916-1.746,5.631-4.246l2.561-8.962c0.195-0.685,0.061-1.405-0.368-1.974
		s-1.083-0.896-1.797-0.896h-0.56v0.321c0,0.533-0.433,0.965-0.965,0.965c-0.533,0-0.965-0.432-0.965-0.965v-2.571
		c0-0.533,0.432-0.965,0.965-0.965c0.532,0,0.965,0.432,0.965,0.965v0.321h0.56c1.323,0,2.54,0.605,3.337,1.663
		c0.798,1.056,1.046,2.392,0.683,3.666l-2.56,8.96c-0.469,1.641-1.438,3.051-2.799,4.076c-0.291,0.221-0.596,0.418-0.909,0.592
		l-2.813,6.642v0.696c0,1.884,1.532,3.416,3.416,3.416c1.885,0,3.417-1.532,3.417-3.416v-6.616c0-3.049,2.481-5.53,5.53-5.53
		c3.05,0,5.531,2.481,5.531,5.53v2.282c2.199,0.449,3.857,2.398,3.857,4.727C139.73,1764.228,137.567,1766.392,134.908,1766.392z"/>
</g>
<g>
	<path fill="#F3726A" d="M117.014,1754.814c-0.445,0-0.885-0.037-1.314-0.111l1.314,3.105l1.315-3.105
		C117.898,1754.777,117.459,1754.814,117.014,1754.814z"/>
	<path fill="#F3726A" d="M134.908,1758.674c-1.596,0-2.895,1.297-2.895,2.893s1.299,2.895,2.895,2.895s2.895-1.299,2.895-2.895
		S136.504,1758.674,134.908,1758.674z M134.908,1762.531c-0.533,0-0.965-0.432-0.965-0.965s0.432-0.965,0.965-0.965
		s0.965,0.432,0.965,0.965S135.441,1762.531,134.908,1762.531z"/>
	<path fill="#F3726A" d="M123.268,1725.057c-13.808,0-25,11.191-25,25c0,13.805,11.192,25,25,25c13.807,0,25-11.195,25-25
		C148.268,1736.248,137.074,1725.057,123.268,1725.057z M134.908,1766.392c-2.66,0-4.824-2.164-4.824-4.825
		c0-2.328,1.66-4.277,3.859-4.727v-2.282c0-1.987-1.615-3.601-3.602-3.601c-1.985,0-3.602,1.613-3.602,3.601v6.616
		c0,2.947-2.397,5.345-5.346,5.345c-2.947,0-5.346-2.397-5.346-5.345v-0.696l-2.813-6.642c-0.313-0.174-0.618-0.371-0.909-0.592
		c-1.363-1.025-2.33-2.436-2.799-4.076l-2.561-8.96c-0.363-1.274-0.113-2.61,0.683-3.666c0.798-1.058,2.014-1.663,3.337-1.663h0.561
		v-0.321c0-0.533,0.433-0.965,0.965-0.965c0.533,0,0.965,0.432,0.965,0.965v2.571c0,0.533-0.432,0.965-0.965,0.965
		c-0.532,0-0.965-0.432-0.965-0.965v-0.321h-0.561c-0.712,0-1.367,0.327-1.797,0.896c-0.429,0.568-0.563,1.29-0.367,1.975
		l2.561,8.961c0.715,2.5,3.029,4.246,5.631,4.246c2.601,0,4.916-1.746,5.631-4.246l2.561-8.962c0.195-0.685,0.061-1.405-0.368-1.974
		s-1.083-0.896-1.797-0.896h-0.56v0.321c0,0.533-0.433,0.965-0.965,0.965c-0.533,0-0.965-0.432-0.965-0.965v-2.571
		c0-0.533,0.432-0.965,0.965-0.965c0.532,0,0.965,0.432,0.965,0.965v0.321h0.56c1.323,0,2.54,0.605,3.337,1.663
		c0.798,1.056,1.046,2.392,0.683,3.666l-2.56,8.96c-0.469,1.641-1.438,3.051-2.799,4.076c-0.291,0.221-0.596,0.418-0.909,0.592
		l-2.813,6.642v0.696c0,1.884,1.532,3.416,3.416,3.416c1.885,0,3.417-1.532,3.417-3.416v-6.616c0-3.049,2.481-5.53,5.53-5.53
		c3.05,0,5.531,2.481,5.531,5.53v2.282c2.199,0.449,3.857,2.398,3.857,4.727C139.73,1764.228,137.567,1766.392,134.908,1766.392z"/>
</g>
<g>
	<g>
		<g>
			<path fill-rule="evenodd" clip-rule="evenodd" fill="#F3726A" d="M50.579-0.416c1.561,0,3.122,0,4.683,0
				c0.166,0.099,0.324,0.231,0.503,0.271c5.179,1.104,8.843,4.068,11.026,8.91c0.179,0.404,0.946,0.754,1.442,0.761
				c4.055,0.06,8.109,0,12.161,0.046c2.974,0.04,5.262,1.382,6.658,4.015c0.42,0.78,0.876,0.985,1.687,0.979
				c3.026-0.04,6.052-0.046,9.082-0.013c2.837,0.053,5.245,1.164,6.528,3.717c0.751,1.501,1.118,3.347,1.131,5.034
				c0.093,12.356,0.093,24.712,0.014,37.055c-0.014,2.421,0.017,4.65,2.249,6.178c0.076,0.053,0.139,0.139,0.185,0.212
				c1.402,2.255,2.805,4.511,4.088,6.568c1.099-1.846,2.236-4.002,3.599-6.006c2.781-4.114,6.459-7.276,10.778-9.71
				c1.442-0.807,2.838-0.536,3.611,0.635c0.768,1.164,0.517,2.494-0.733,3.473c-0.688,0.542-1.442,0.999-2.17,1.495
				c-4.253,2.864-7.666,6.476-9.846,11.159c-1.099,2.355-1.915,4.802-2.011,7.362c1.594-0.648,3.046-1.7,4.537-1.766
				c4.164-0.186,8.464-0.563,12.498,0.225c10.26,1.991,17.93,11.661,18.161,22.152c0.082,3.949,0.006,7.904,0.036,11.86
				c0.046,5.754-1.085,11.251-3.651,16.397c-4.465,8.942-11.298,15.239-21.087,17.833c-7.422,1.971-14.999,1.31-22.54,0.694
				c-0.813-0.066-1.637-0.165-2.447-0.093c-1.293,0.112-2.579,0.522-3.869,0.522c-14.158,0.04-28.317,0.026-42.473,0.026
				c-15.379,0-30.758,0.007-46.137-0.007c-3.638,0-6.211-1.839-7.458-5.245c-0.076-0.212-0.221-0.403-0.334-0.602
				c0-41.116,0-82.226,0-123.336c0.096-0.099,0.231-0.179,0.274-0.298c1.492-3.883,3.86-5.536,7.997-5.543
				c2.881,0,5.758,0.033,8.639-0.033c0.463-0.007,1.121-0.344,1.336-0.734c1.617-2.877,4.045-4.24,7.315-4.227
				c3.856,0.026,7.713-0.02,11.572,0.033c0.906,0.007,1.389-0.245,1.753-1.104c1.244-2.977,3.288-5.325,6.139-6.826
				C47.106,0.801,48.878,0.265,50.579-0.416z M81.059,134.521c0-0.212,0.033-0.324,0-0.403c-0.159-0.298-0.331-0.589-0.496-0.887
				c-2.619-4.472-4.512-9.247-4.766-14.439c-0.288-5.887-0.434-11.813-0.143-17.694c0.271-5.403,2.511-10.226,6.354-14.102
				c1.975-1.991,4.29-3.632,6.528-5.497c0.06,0.172,0.057,0.06-0.01,0c-5.212-5.094-5.927-11.477-5.265-18.27
				c0.161-1.634,1.098-2.586,2.605-2.943c1.455-0.357,2.943-0.549,4.465-0.827c0-9.875,0-19.804,0-30.09
				c-1.141,0.311-2.646,0.278-2.979,0.887c-1.849,3.34-4.687,4.425-8.281,4.398c-8.153-0.046-16.309-0.013-24.461-0.013
				c-9.426,0-18.849-0.006-28.274,0.007c-2.917,0-5.556-0.8-6.998-3.427c-0.976-1.779-2.16-1.72-3.744-1.448
				c0,34.925,0,69.803,0,104.749C37.465,134.521,59.23,134.521,81.059,134.521z M145.484,110.279c0-2.652,0.03-4.505-0.003-6.356
				c-0.152-8.514-4.763-15.545-12.006-18.264c-3.905-1.468-7.983-1.296-12.005-0.919c-3.308,0.317-5.748,3.287-5.897,6.635
				c-0.046,0.979,0.017,1.951-0.053,2.93c-0.112,1.707-1.188,2.824-2.593,2.791c-1.369-0.032-2.375-1.11-2.494-2.744
				c-0.072-1.025-0.006-2.051-0.06-3.083c-0.165-3.228-2.652-6.111-5.866-6.528c-1.926-0.252-3.896-0.179-5.845-0.159
				c-9.25,0.086-17.132,7.157-17.876,16.404c-0.403,5.001-0.291,10.048-0.191,15.068c0.105,5.259,1.587,10.199,4.346,14.69
				c4.365,7.111,10.458,12.02,18.849,13.27c4.313,0.642,8.747,0.542,13.133,0.549c12.118,0.02,22.572-7.601,26.607-19.063
				C145.369,120.273,145.581,114.909,145.484,110.279z M91.199,144.589c-1.733-1.441-3.268-2.639-4.687-3.955
				c-0.811-0.755-1.624-1.052-2.723-1.046c-22.559,0.027-45.118,0.021-67.673,0.014c-3.486,0-5.652-1.991-5.656-5.292
				c-0.013-34.813-0.006-69.625,0-104.438c0-3.142,2.061-5.206,5.206-5.338c0.714-0.033,1.436-0.007,2.209-0.007
				c0-1.693,0-3.228,0-4.829c-3.453,0-6.807-0.04-10.16,0.013c-1.157,0.026-1.869,0.781-2.09,1.912
				c-0.119,0.615-0.149,1.25-0.149,1.878C5.47,62.515,5.47,101.528,5.47,140.534c0,3.347,0.711,4.055,4.019,4.055
				c26.657,0,53.32,0,79.977,0C89.948,144.589,90.432,144.589,91.199,144.589z M52.92,29.521c8.831,0,17.661,0.007,26.498,0
				c2.805,0,3.493-0.668,3.506-3.407c0.01-2.692,0.01-5.377,0-8.056c-0.013-2.672-0.804-3.459-3.506-3.466
				c-4.392-0.013-8.784,0-13.176-0.006c-2.5-0.007-2.97-0.364-3.73-2.798c-1.316-4.26-5.086-7.124-9.465-7.197
				c-4.336-0.073-8.229,2.851-9.591,7.19c-0.734,2.335-1.346,2.798-3.764,2.805c-4.491,0.006-8.982-0.014-13.474,0.013
				c-2.318,0.013-3.188,0.906-3.195,3.195c-0.013,2.778-0.01,5.563-0.006,8.341c0.006,2.62,0.767,3.387,3.4,3.387
				C35.246,29.528,44.083,29.521,52.92,29.521z M88.116,24.468c0.354,0.026,0.549,0.053,0.741,0.053
				c5.08,0.112,6.634,1.68,6.634,6.707c0.004,8.93,0,17.866,0,26.802c0,0.576,0,1.151,0,1.68c1.71,0.47,3.248,0.88,4.932,1.343
				c0-0.536,0-1.012,0-1.488c0-3.565,0-7.13,0-10.696c0-8.731,0.003-17.476-0.003-26.213c-0.004-1.892-0.662-2.891-2.303-2.95
				c-3.304-0.126-6.61-0.033-10.001-0.033C88.116,21.293,88.116,22.834,88.116,24.468z M107.934,79.898
				c-0.833-11.238-9.687-17.092-20.121-14.685c0.324,2.46,0.43,5,1.035,7.421c1.107,4.458,4.709,7.283,9.31,6.999
				C101.386,79.436,104.646,79.786,107.934,79.898z"/>
			<path fill-rule="evenodd" clip-rule="evenodd" fill="#F3726A" d="M62.878,54.637c-5.467,0-10.931,0.006-16.395-0.013
				c-0.628-0.007-1.283-0.053-1.865-0.251c-1.151-0.384-1.723-1.303-1.607-2.494c0.109-1.178,0.777-1.984,1.998-2.189
				c0.522-0.093,1.065-0.112,1.601-0.112c10.881-0.014,21.765-0.014,32.646-0.007c2.478,0,3.73,0.854,3.737,2.514
				c0.004,1.673-1.267,2.546-3.721,2.553C73.809,54.637,68.345,54.637,62.878,54.637z"/>
			<path fill-rule="evenodd" clip-rule="evenodd" fill="#F3726A" d="M59.221,72.021c4.19,0,8.384-0.007,12.578,0.006
				c0.628,0,1.27,0.053,1.872,0.218c1.181,0.304,1.796,1.158,1.779,2.368c-0.013,1.197-0.638,2.03-1.825,2.328
				c-0.563,0.139-1.151,0.198-1.73,0.198c-8.437,0.014-16.874,0.007-25.308,0.007c-0.245,0-0.486,0.014-0.73-0.007
				c-1.736-0.119-2.845-1.085-2.875-2.507c-0.029-1.475,1.115-2.566,2.92-2.599c3.466-0.053,6.926-0.013,10.392-0.013
				C57.266,72.021,58.245,72.021,59.221,72.021z"/>
			<path fill-rule="evenodd" clip-rule="evenodd" fill="#F3726A" d="M56.78,94.536c3.456,0,6.916-0.02,10.375,0.014
				c0.622,0.007,1.293,0.065,1.852,0.304c1.028,0.437,1.568,1.316,1.449,2.461c-0.123,1.118-0.754,1.898-1.879,2.144
				c-0.562,0.125-1.157,0.151-1.739,0.151c-6.721,0.007-13.444,0.007-20.168,0.007c-0.05,0-0.096,0-0.146,0
				c-2.352-0.026-3.552-0.886-3.542-2.547c0.01-1.653,1.244-2.533,3.569-2.533C49.96,94.529,53.37,94.536,56.78,94.536z"/>
			<path fill-rule="evenodd" clip-rule="evenodd" fill="#F3726A" d="M56.776,122.066c-3.605,0-7.21,0.013-10.815,0
				c-1.855-0.014-2.977-0.973-2.98-2.48c-0.01-1.502,1.148-2.507,2.967-2.507c7.204-0.021,14.413-0.021,21.623,0
				c1.799,0,2.944,1.058,2.904,2.566c-0.04,1.469-1.121,2.407-2.887,2.421C63.983,122.086,60.378,122.066,56.776,122.066z"/>
			<path fill-rule="evenodd" clip-rule="evenodd" fill="#F3726A" d="M85.461,103.413c0.42-5.834,2.854-10.649,8.539-13.395
				c1.647-0.801,3.05-0.384,3.734,1.012c0.647,1.31,0.125,2.64-1.488,3.453c-3.559,1.786-5.269,4.743-5.59,8.625
				c-0.043,0.536-0.129,1.065-0.212,1.595c-0.244,1.527-1.293,2.461-2.632,2.368c-1.347-0.093-2.289-1.164-2.349-2.692
				C85.451,104.134,85.461,103.883,85.461,103.413z"/>
			<path fill-rule="evenodd" clip-rule="evenodd" fill="#F3726A" d="M59.065,24.62c-4.928,0-9.855,0-14.78-0.007
				c-0.631,0-1.273-0.026-1.888-0.152c-1.138-0.231-1.753-1.019-1.859-2.15c-0.112-1.125,0.357-2.037,1.422-2.454
				c0.615-0.238,1.329-0.304,1.998-0.304c10.196-0.02,20.389-0.026,30.583,0c0.671,0,1.386,0.073,1.994,0.317
				c1.052,0.443,1.521,1.363,1.396,2.48c-0.132,1.118-0.757,1.905-1.901,2.117c-0.619,0.119-1.26,0.146-1.892,0.146
				C69.113,24.62,64.085,24.62,59.065,24.62z"/>
			<path fill-rule="evenodd" clip-rule="evenodd" fill="#F3726A" d="M31.763,19.54c2.467,0,3.701,0.847,3.704,2.54
				c0.007,1.687-1.227,2.533-3.697,2.533c-0.39,0-0.784,0.013-1.167-0.026c-1.684-0.159-2.623-1.104-2.586-2.58
				c0.033-1.409,1.075-2.361,2.725-2.46C31.079,19.52,31.423,19.54,31.763,19.54z"/>
		</g>
		<path fill-rule="evenodd" clip-rule="evenodd" fill="#F3726A" d="M26.918,51.912c2.593-2.467,5.352-5.1,8.12-7.719
			c1.134-1.065,2.189-1.29,3.324-0.741c1.77,0.86,2.242,2.977,0.833,4.339c-3.532,3.439-7.117,6.813-10.729,10.18
			c-1.197,1.111-2.586,1.019-3.757-0.152c-1.806-1.806-3.599-3.631-5.365-5.483c-1.2-1.257-1.23-3.003-0.139-4.088
			c1.088-1.059,2.751-0.893,4.062,0.351C24.418,49.703,25.622,50.741,26.918,51.912z"/>
		<path fill-rule="evenodd" clip-rule="evenodd" fill="#F3726A" d="M26.918,74.388c2.593-2.467,5.352-5.1,8.12-7.719
			c1.134-1.071,2.189-1.29,3.324-0.741c1.77,0.853,2.242,2.977,0.833,4.339C35.663,73.7,32.078,77.08,28.466,80.44
			c-1.197,1.118-2.586,1.025-3.757-0.146c-1.806-1.813-3.599-3.631-5.365-5.483c-1.2-1.263-1.23-3.01-0.139-4.081
			c1.088-1.065,2.751-0.906,4.062,0.337C24.418,72.179,25.622,73.217,26.918,74.388z"/>
		<path fill-rule="evenodd" clip-rule="evenodd" fill="#F3726A" d="M26.918,96.573c2.593-2.467,5.352-5.1,8.12-7.719
			c1.134-1.071,2.189-1.283,3.324-0.741c1.77,0.854,2.242,2.977,0.833,4.346c-3.532,3.434-7.117,6.807-10.729,10.167
			c-1.197,1.124-2.586,1.025-3.757-0.146c-1.806-1.806-3.599-3.632-5.365-5.483c-1.2-1.257-1.23-3.01-0.139-4.088
			c1.088-1.059,2.751-0.893,4.062,0.351C24.418,94.357,25.622,95.409,26.918,96.573z"/>
		<path fill-rule="evenodd" clip-rule="evenodd" fill="#F3726A" d="M26.918,117.35c2.593-2.48,5.352-5.106,8.12-7.726
			c1.134-1.071,2.189-1.29,3.324-0.747c1.77,0.854,2.242,2.97,0.833,4.346c-3.532,3.433-7.117,6.813-10.729,10.167
			c-1.197,1.117-2.586,1.024-3.757-0.146c-1.806-1.807-3.599-3.625-5.365-5.478c-1.2-1.27-1.23-3.01-0.139-4.088
			c1.088-1.058,2.751-0.899,4.062,0.351C24.418,115.128,25.622,116.173,26.918,117.35z"/>
	</g>
</g>
</svg>
