<?xml version="1.0" encoding="utf-8"?>
<!-- Generator: Adobe Illustrator 16.0.3, SVG Export Plug-In . SVG Version: 6.00 Build 0)  -->
<!DOCTYPE svg PUBLIC "-//W3C//DTD SVG 1.1//EN" "http://www.w3.org/Graphics/SVG/1.1/DTD/svg11.dtd">
<svg version="1.1" id="Layer_1" xmlns="http://www.w3.org/2000/svg" xmlns:xlink="http://www.w3.org/1999/xlink" x="0px" y="0px"
	 width="150px" height="188.283px" viewBox="0 -18.102 150 188.283" enable-background="new 0 -18.102 150 188.283"
	 xml:space="preserve">
<g>
	<path fill="#F3726A" d="M117.014,1754.814c-0.445,0-0.885-0.037-1.313-0.111l1.313,3.104l1.315-3.104
		C117.898,1754.777,117.459,1754.814,117.014,1754.814z"/>
	<path fill="#F3726A" d="M134.908,1758.674c-1.596,0-2.895,1.297-2.895,2.893c0,1.598,1.299,2.896,2.895,2.896
		s2.895-1.299,2.895-2.896C137.803,1759.971,136.504,1758.674,134.908,1758.674z M134.908,1762.531
		c-0.533,0-0.965-0.434-0.965-0.965c0-0.533,0.432-0.965,0.965-0.965s0.965,0.432,0.965,0.965
		C135.873,1762.099,135.441,1762.531,134.908,1762.531z"/>
	<path fill="#F3726A" d="M123.268,1725.057c-13.808,0-25,11.191-25,25c0,13.807,11.192,25,25,25c13.809,0,25-11.193,25-25
		C148.268,1736.248,137.074,1725.057,123.268,1725.057z M134.908,1766.392c-2.66,0-4.824-2.163-4.824-4.823
		c0-2.328,1.66-4.277,3.859-4.729v-2.282c0-1.985-1.615-3.601-3.604-3.601c-1.984,0-3.604,1.613-3.604,3.601v6.616
		c0,2.947-2.396,5.345-5.346,5.345c-2.947,0-5.346-2.396-5.346-5.345v-0.696l-2.813-6.642c-0.313-0.174-0.619-0.371-0.91-0.592
		c-1.362-1.025-2.329-2.438-2.799-4.076l-2.562-8.96c-0.362-1.274-0.112-2.61,0.685-3.666c0.797-1.058,2.014-1.663,3.336-1.663
		h0.562v-0.321c0-0.532,0.433-0.965,0.965-0.965c0.533,0,0.966,0.433,0.966,0.965v2.571c0,0.533-0.433,0.965-0.966,0.965
		c-0.532,0-0.965-0.432-0.965-0.965v-0.321h-0.562c-0.711,0-1.366,0.327-1.797,0.896c-0.43,0.566-0.563,1.29-0.367,1.975
		l2.562,8.961c0.716,2.5,3.029,4.246,5.632,4.246c2.6,0,4.916-1.746,5.631-4.246l2.562-8.962c0.194-0.685,0.062-1.405-0.368-1.974
		c-0.429-0.569-1.083-0.896-1.797-0.896h-0.561v0.321c0,0.533-0.434,0.965-0.965,0.965c-0.533,0-0.966-0.432-0.966-0.965v-2.571
		c0-0.532,0.433-0.965,0.966-0.965c0.531,0,0.965,0.433,0.965,0.965v0.321h0.561c1.322,0,2.54,0.605,3.337,1.663
		c0.798,1.056,1.046,2.392,0.685,3.666l-2.562,8.96c-0.47,1.641-1.438,3.051-2.799,4.076c-0.291,0.221-0.597,0.418-0.909,0.592
		l-2.813,6.642v0.696c0,1.884,1.531,3.416,3.416,3.416s3.418-1.532,3.418-3.416v-6.616c0-3.049,2.479-5.528,5.528-5.528
		c3.052,0,5.531,2.479,5.531,5.528v2.282c2.198,0.449,3.856,2.398,3.856,4.729C139.73,1764.229,137.566,1766.392,134.908,1766.392z"
		/>
</g>
<g>
	<path fill="#F3726A" d="M117.014,1754.814c-0.445,0-0.885-0.037-1.313-0.111l1.313,3.104l1.315-3.104
		C117.898,1754.777,117.459,1754.814,117.014,1754.814z"/>
	<path fill="#F3726A" d="M134.908,1758.674c-1.596,0-2.895,1.297-2.895,2.893c0,1.598,1.299,2.896,2.895,2.896
		s2.895-1.299,2.895-2.896C137.803,1759.971,136.504,1758.674,134.908,1758.674z M134.908,1762.531
		c-0.533,0-0.965-0.434-0.965-0.965c0-0.533,0.432-0.965,0.965-0.965s0.965,0.432,0.965,0.965
		C135.873,1762.099,135.441,1762.531,134.908,1762.531z"/>
	<path fill="#F3726A" d="M123.268,1725.057c-13.808,0-25,11.191-25,25c0,13.807,11.192,25,25,25c13.809,0,25-11.193,25-25
		C148.268,1736.248,137.074,1725.057,123.268,1725.057z M134.908,1766.392c-2.66,0-4.824-2.163-4.824-4.823
		c0-2.328,1.66-4.277,3.859-4.729v-2.282c0-1.985-1.615-3.601-3.604-3.601c-1.984,0-3.604,1.613-3.604,3.601v6.616
		c0,2.947-2.396,5.345-5.346,5.345c-2.947,0-5.346-2.396-5.346-5.345v-0.696l-2.813-6.642c-0.313-0.174-0.619-0.371-0.91-0.592
		c-1.362-1.025-2.329-2.438-2.799-4.076l-2.562-8.96c-0.362-1.274-0.112-2.61,0.685-3.666c0.797-1.058,2.014-1.663,3.336-1.663
		h0.562v-0.321c0-0.532,0.433-0.965,0.965-0.965c0.533,0,0.966,0.433,0.966,0.965v2.571c0,0.533-0.433,0.965-0.966,0.965
		c-0.532,0-0.965-0.432-0.965-0.965v-0.321h-0.562c-0.711,0-1.366,0.327-1.797,0.896c-0.43,0.566-0.563,1.29-0.367,1.975
		l2.562,8.961c0.716,2.5,3.029,4.246,5.632,4.246c2.6,0,4.916-1.746,5.631-4.246l2.562-8.962c0.194-0.685,0.062-1.405-0.368-1.974
		c-0.429-0.569-1.083-0.896-1.797-0.896h-0.561v0.321c0,0.533-0.434,0.965-0.965,0.965c-0.533,0-0.966-0.432-0.966-0.965v-2.571
		c0-0.532,0.433-0.965,0.966-0.965c0.531,0,0.965,0.433,0.965,0.965v0.321h0.561c1.322,0,2.54,0.605,3.337,1.663
		c0.798,1.056,1.046,2.392,0.685,3.666l-2.562,8.96c-0.47,1.641-1.438,3.051-2.799,4.076c-0.291,0.221-0.597,0.418-0.909,0.592
		l-2.813,6.642v0.696c0,1.884,1.531,3.416,3.416,3.416s3.418-1.532,3.418-3.416v-6.616c0-3.049,2.479-5.528,5.528-5.528
		c3.052,0,5.531,2.479,5.531,5.528v2.282c2.198,0.449,3.856,2.398,3.856,4.729C139.73,1764.229,137.566,1766.392,134.908,1766.392z"
		/>
</g>
<g>
	<g>
		<rect x="53.955" y="76.924" fill="#FBBF9E" width="39.57" height="45.387"/>
		<path fill="#F7996E" d="M53.955,105.471c30.537,0,40.521-16.21,40.521-16.21l-40.31-0.511
			C54.408,93.193,53.955,95.206,53.955,105.471z"/>
		<path fill="#263238" d="M31.473,50.235c-0.176-0.615-6.541-25.446,8.365-48.741c12.079-18.876,36.678-25.083,54.35-14.353
			c17.758,10.786,35.523,30.707,18.64,64.283L31.473,50.235z"/>
		<path fill="#263238" d="M42.52,22.645c0,0-9.885-4.747-20.983,0C10.439,27.391,2.359,47.6,7.332,66.471
			c4.973,18.876-11.807,19.193-4.039,34.328c2.756,5.366,39.227,9.934,40.473-10.969c0.771-12.95-10.953-13.596-7.537-27.665
			C39.649,48.09,42.52,22.645,42.52,22.645z"/>
		<path fill="#263238" d="M109.893,20.207c0,0,9.887-5.341,20.983,0c11.099,5.346,19.176,28.096,14.201,49.35
			c-4.97,21.25,11.81,21.606,4.041,38.654c-2.755,6.044-39.228,11.182-40.474-12.355c-0.771-14.58,10.955-15.305,7.537-31.147
			C112.764,48.858,109.893,20.207,109.893,20.207z"/>
		<path fill="#FBBF9E" d="M111.771,55.675c0,22.479-16.772,40.7-37.46,40.7c-20.689,0-37.464-18.223-37.464-40.7
			c0-22.478,16.774-40.705,37.464-40.705C94.999,14.97,111.771,33.197,111.771,55.675z"/>
		<path fill="#263238" d="M73.71,15.446c0,0,9.963,26.758,42.985,38.059c13.13,4.499,6.361-38.758-21.079-48.478
			C68.182-4.699,44.773,0.563,29.644,24.334c-9.11,14.313,7.884,19,7.884,19S50.116,11.641,73.71,15.446z"/>
		<path fill="#F3725F" d="M124.734,164.096c-9.521,9.205-100.675,6.842-100.137,0.357c0.429-5.104-2.268,8.417,4.502-34.398
			c1.861-11.736-10.919-13.892,0.721-15.486c1.968-0.277,21.756-7.209,24.06-7.438c-0.491,5.268,7.515,10.667,16.58,12.465
			c12.065,2.385,22.396-5.939,23.108-11.127c9.449,1.991,14.94,2.725,22.438,5.891c8.226,3.488,13.13,12.129,11.933,21.076
			l-2.267,16.898C125.674,152.334,125.213,163.625,124.734,164.096z"/>
		<path fill="#F3725F" d="M1.986,153.936c0,0,17.531,16.31,44.558,13.782c0,0,13.32-47.204-8.038-53.002
			C17.144,108.919-0.503,136.9,1.986,153.936z"/>
		<path fill="#F3725F" d="M146.225,153.936c0,0-17.527,16.31-44.56,13.782c0,0-13.317-47.204,8.041-53.002
			C131.066,108.919,148.717,136.9,146.225,153.936z"/>
	</g>
	<g>
		<path fill="#263238" d="M58.464,40.277c0.584,0.094,1.17,0.178,1.755,0.288c2.144,0.411,4.099,1.278,5.903,2.487
			c1.003,0.669,1.344,1.705,0.904,2.636c-0.516,1.095-1.753,1.407-2.9,0.738c-0.671-0.386-1.323-0.817-2.021-1.149
			c-2.527-1.204-5.126-1.392-7.789-0.466c-0.599,0.208-1.211,0.387-1.819,0.57c-1.127,0.342-2.043-0.089-2.523-1.174
			c-0.05-0.114-0.106-0.223-0.16-0.332c0-0.258,0-0.511,0-0.768c0.245-0.584,0.64-1.026,1.216-1.298
			c1.179-0.56,2.4-0.996,3.686-1.233c0.608-0.109,1.221-0.198,1.834-0.297C57.188,40.277,57.827,40.277,58.464,40.277z"/>
		<path fill="#263238" d="M96.732,45.172c-0.314,1.055-1.088,1.521-2.115,1.719c-3.877,0.753-7.746,1.536-11.618,2.304
			c-1.122,0.223-2.194-0.421-2.405-1.427c-0.234-1.14,0.375-2.125,1.551-2.373c3.019-0.625,6.045-1.224,9.066-1.829
			c0.862-0.173,1.725-0.342,2.584-0.515c1.607-0.322,2.318,0.04,2.938,1.506C96.732,44.766,96.732,44.969,96.732,45.172z"/>
		<path fill="#263238" d="M64.355,71.544c2.437,0.084,4.843,0.436,7.229,0.931c3.853,0.808,7.561,2.056,11.126,3.731
			c1.08,0.505,1.552,1.478,1.201,2.487c-0.324,0.945-1.246,1.496-2.257,1.207c-1.086-0.312-2.139-0.742-3.198-1.139
			c-2.692-1.011-5.389-2.012-8.223-2.587c-2.013-0.405-4.046-0.653-6.098-0.738c-0.404-0.02-0.815-0.084-1.198-0.203
			c-0.893-0.282-1.374-1.095-1.254-2.026c0.12-0.941,0.779-1.585,1.716-1.66C63.717,71.519,64.037,71.544,64.355,71.544z"/>
	</g>
	<path fill="#263238" d="M60.091,58.405c-2.688,0.084-5.018-1.521-5.386-4.414c-0.21-1.65,0.045-3.295,0.548-4.865
		c0.664-2.081,2.889-3.404,5.089-3.156c1.064,0.114,1.755,0.842,1.772,1.853c0.02,1.061-0.656,1.838-1.727,1.987
		c-0.264,0.04-0.529,0.079-0.79,0.129c-0.425,0.079-0.708,0.342-0.758,0.758c-0.112,0.932-0.2,1.873-0.246,2.809
		c-0.024,0.466,0.434,0.897,0.895,0.951c0.55,0.07,1.044-0.198,1.155-0.718c0.147-0.679,0.212-1.382,0.326-2.071
		c0.128-0.783,0.508-1.397,1.302-1.64c0.763-0.238,1.462-0.084,2.047,0.481c0.347,0.337,0.545,0.768,0.5,1.243
		c-0.124,1.278-0.232,2.566-0.725,3.775C63.334,57.389,61.862,58.251,60.091,58.405z"/>
	<path fill="#263238" d="M84.895,56.72c0.153-1.149,0.222-2.313,0.472-3.438c0.489-2.21,2.418-3.76,4.667-3.83
		c0.421-0.01,0.869,0.07,1.27,0.218c0.758,0.277,1.184,0.991,1.163,1.798c-0.021,0.758-0.479,1.422-1.224,1.689
		c-0.355,0.124-0.741,0.183-1.117,0.248c-0.553,0.089-0.909,0.372-0.975,0.952c-0.094,0.822-0.211,1.645-0.262,2.472
		c-0.037,0.624,0.416,1.129,0.965,1.179c0.58,0.055,1.076-0.317,1.189-0.956c0.1-0.575,0.135-1.159,0.208-1.744
		c0.126-0.957,0.729-1.665,1.546-1.833c1.055-0.218,2.125,0.372,2.23,1.437c0.197,1.957,0.063,3.909-1.414,5.435
		c-1.477,1.526-3.295,1.977-5.291,1.283c-2.02-0.699-3.102-2.22-3.354-4.335c-0.02-0.134-0.021-0.277-0.029-0.416
		c-0.004-0.049,0-0.104,0-0.153C84.924,56.726,84.909,56.72,84.895,56.72z"/>
</g>
</svg>
