<?xml version="1.0" encoding="utf-8"?>
<!-- Generator: Adobe Illustrator 16.0.3, SVG Export Plug-In . SVG Version: 6.00 Build 0)  -->
<!DOCTYPE svg PUBLIC "-//W3C//DTD SVG 1.1//EN" "http://www.w3.org/Graphics/SVG/1.1/DTD/svg11.dtd">
<svg version="1.1" id="Layer_1" xmlns="http://www.w3.org/2000/svg" xmlns:xlink="http://www.w3.org/1999/xlink" x="0px" y="0px"
	 width="150px" height="150px" viewBox="0 0 150 150" enable-background="new 0 0 150 150" xml:space="preserve">
<g>
	<path fill="#F3726A" d="M117.014,1754.814c-0.445,0-0.885-0.037-1.313-0.111l1.313,3.104l1.315-3.104
		C117.898,1754.777,117.459,1754.814,117.014,1754.814z"/>
	<path fill="#F3726A" d="M134.908,1758.674c-1.596,0-2.895,1.297-2.895,2.893c0,1.597,1.299,2.896,2.895,2.896
		s2.895-1.299,2.895-2.896C137.803,1759.971,136.504,1758.674,134.908,1758.674z M134.908,1762.531
		c-0.533,0-0.965-0.433-0.965-0.965c0-0.533,0.432-0.965,0.965-0.965s0.965,0.432,0.965,0.965
		C135.873,1762.099,135.441,1762.531,134.908,1762.531z"/>
	<path fill="#F3726A" d="M123.268,1725.057c-13.808,0-25,11.191-25,25c0,13.806,11.192,25,25,25s25-11.194,25-25
		C148.268,1736.248,137.074,1725.057,123.268,1725.057z M134.908,1766.392c-2.66,0-4.824-2.163-4.824-4.824
		c0-2.328,1.66-4.277,3.859-4.728v-2.282c0-1.986-1.615-3.601-3.603-3.601c-1.985,0-3.603,1.613-3.603,3.601v6.616
		c0,2.947-2.396,5.345-5.346,5.345c-2.947,0-5.346-2.396-5.346-5.345v-0.696l-2.813-6.642c-0.313-0.174-0.618-0.371-0.909-0.592
		c-1.363-1.025-2.33-2.437-2.8-4.076l-2.561-8.96c-0.363-1.274-0.113-2.61,0.684-3.666c0.797-1.058,2.014-1.663,3.336-1.663h0.562
		v-0.321c0-0.532,0.433-0.965,0.965-0.965c0.533,0,0.966,0.433,0.966,0.965v2.571c0,0.533-0.433,0.965-0.966,0.965
		c-0.532,0-0.965-0.432-0.965-0.965v-0.321h-0.562c-0.711,0-1.366,0.327-1.797,0.896c-0.429,0.567-0.563,1.29-0.367,1.975
		l2.562,8.961c0.716,2.5,3.029,4.246,5.632,4.246c2.6,0,4.916-1.746,5.631-4.246l2.561-8.962c0.195-0.685,0.061-1.405-0.368-1.974
		c-0.429-0.569-1.083-0.896-1.797-0.896h-0.56v0.321c0,0.533-0.434,0.965-0.965,0.965c-0.533,0-0.966-0.432-0.966-0.965v-2.571
		c0-0.532,0.433-0.965,0.966-0.965c0.531,0,0.965,0.433,0.965,0.965v0.321h0.56c1.323,0,2.54,0.605,3.337,1.663
		c0.798,1.056,1.046,2.392,0.684,3.666l-2.561,8.96c-0.469,1.641-1.438,3.051-2.799,4.076c-0.291,0.221-0.596,0.418-0.909,0.592
		l-2.813,6.642v0.696c0,1.884,1.532,3.416,3.416,3.416c1.885,0,3.418-1.532,3.418-3.416v-6.616c0-3.049,2.48-5.529,5.529-5.529
		c3.051,0,5.531,2.48,5.531,5.529v2.282c2.199,0.449,3.857,2.398,3.857,4.728C139.73,1764.229,137.566,1766.392,134.908,1766.392z"
		/>
</g>
<g>
	<path fill="#F3726A" d="M117.014,1754.814c-0.445,0-0.885-0.037-1.313-0.111l1.313,3.104l1.315-3.104
		C117.898,1754.777,117.459,1754.814,117.014,1754.814z"/>
	<path fill="#F3726A" d="M134.908,1758.674c-1.596,0-2.895,1.297-2.895,2.893c0,1.597,1.299,2.896,2.895,2.896
		s2.895-1.299,2.895-2.896C137.803,1759.971,136.504,1758.674,134.908,1758.674z M134.908,1762.531
		c-0.533,0-0.965-0.433-0.965-0.965c0-0.533,0.432-0.965,0.965-0.965s0.965,0.432,0.965,0.965
		C135.873,1762.099,135.441,1762.531,134.908,1762.531z"/>
	<path fill="#F3726A" d="M123.268,1725.057c-13.808,0-25,11.191-25,25c0,13.806,11.192,25,25,25s25-11.194,25-25
		C148.268,1736.248,137.074,1725.057,123.268,1725.057z M134.908,1766.392c-2.66,0-4.824-2.163-4.824-4.824
		c0-2.328,1.66-4.277,3.859-4.728v-2.282c0-1.986-1.615-3.601-3.603-3.601c-1.985,0-3.603,1.613-3.603,3.601v6.616
		c0,2.947-2.396,5.345-5.346,5.345c-2.947,0-5.346-2.396-5.346-5.345v-0.696l-2.813-6.642c-0.313-0.174-0.618-0.371-0.909-0.592
		c-1.363-1.025-2.33-2.437-2.8-4.076l-2.561-8.96c-0.363-1.274-0.113-2.61,0.684-3.666c0.797-1.058,2.014-1.663,3.336-1.663h0.562
		v-0.321c0-0.532,0.433-0.965,0.965-0.965c0.533,0,0.966,0.433,0.966,0.965v2.571c0,0.533-0.433,0.965-0.966,0.965
		c-0.532,0-0.965-0.432-0.965-0.965v-0.321h-0.562c-0.711,0-1.366,0.327-1.797,0.896c-0.429,0.567-0.563,1.29-0.367,1.975
		l2.562,8.961c0.716,2.5,3.029,4.246,5.632,4.246c2.6,0,4.916-1.746,5.631-4.246l2.561-8.962c0.195-0.685,0.061-1.405-0.368-1.974
		c-0.429-0.569-1.083-0.896-1.797-0.896h-0.56v0.321c0,0.533-0.434,0.965-0.965,0.965c-0.533,0-0.966-0.432-0.966-0.965v-2.571
		c0-0.532,0.433-0.965,0.966-0.965c0.531,0,0.965,0.433,0.965,0.965v0.321h0.56c1.323,0,2.54,0.605,3.337,1.663
		c0.798,1.056,1.046,2.392,0.684,3.666l-2.561,8.96c-0.469,1.641-1.438,3.051-2.799,4.076c-0.291,0.221-0.596,0.418-0.909,0.592
		l-2.813,6.642v0.696c0,1.884,1.532,3.416,3.416,3.416c1.885,0,3.418-1.532,3.418-3.416v-6.616c0-3.049,2.48-5.529,5.529-5.529
		c3.051,0,5.531,2.48,5.531,5.529v2.282c2.199,0.449,3.857,2.398,3.857,4.728C139.73,1764.229,137.566,1766.392,134.908,1766.392z"
		/>
</g>
<g>
	<g>
		<path fill="#F3725F" d="M53.925,96.222c-1.738,0.817-5.648,1.69-10.738,1.69c-14.464,0-21.912-8.448-21.912-19.633
			c0-13.396,10.179-20.853,22.844-20.853c4.902,0,8.628,0.933,10.304,1.747l-1.925,7.048c-1.924-0.758-4.594-1.457-7.945-1.457
			c-7.512,0-13.346,4.252-13.346,12.991c0,7.864,4.966,12.815,13.407,12.815c2.856,0,6.021-0.583,7.884-1.282L53.925,96.222z"/>
		<path fill="#F3725F" d="M60.139,58.591c3.043-0.465,7.573-0.814,12.601-0.814c6.207,0,10.553,0.874,13.534,3.085
			c2.483,1.866,3.849,4.602,3.849,8.214c0,5.01-3.787,8.448-7.387,9.671v0.175c2.914,1.105,4.529,3.729,5.586,7.338
			c1.301,4.428,2.607,9.556,3.414,11.069h-9.683c-0.685-1.107-1.677-4.312-2.919-9.145c-1.118-4.895-2.918-6.233-6.767-6.292h-2.854
			v15.437h-9.375V58.591z M69.514,75.484h3.724c4.717,0,7.51-2.212,7.51-5.65c0-3.613-2.607-5.419-6.951-5.476
			c-2.297,0-3.601,0.175-4.283,0.291V75.484z"/>
		<path fill="#F3725F" d="M96.956,58.591c2.919-0.465,7.016-0.814,12.789-0.814c5.833,0,9.994,1.048,12.786,3.145
			c2.67,1.981,4.471,5.244,4.471,9.088s-1.366,7.107-3.85,9.319c-3.228,2.854-8.01,4.137-13.596,4.137
			c-1.241,0-2.359-0.06-3.226-0.175v14.039h-9.375V58.591z M106.331,76.417c0.807,0.175,1.799,0.231,3.164,0.231
			c5.029,0,8.131-2.387,8.131-6.406c0-3.612-2.666-5.768-7.387-5.768c-1.924,0-3.225,0.175-3.908,0.349V76.417z"/>
	</g>
	<g>
		<path fill-rule="evenodd" clip-rule="evenodd" fill="#F3725F" d="M69.759,0.851c3.279,0,6.559,0,9.84,0
			c0.153,0.291,0.428,0.253,0.678,0.269c0.796,0.045,1.594,0.032,2.384,0.134c1.089,0.116,2.172,0.301,3.256,0.468
			c0.924,0.14,1.847,0.293,2.771,0.441c0.457,0.081,0.922,0.145,1.377,0.266c1.037,0.245,2.069,0.508,3.104,0.774
			c0.897,0.231,1.801,0.436,2.688,0.691c0.842,0.231,1.667,0.521,2.497,0.801c0.661,0.215,1.328,0.414,1.973,0.68
			c1.963,0.814,3.938,1.572,5.871,2.473c2.241,1.041,4.422,2.196,6.553,3.443c1.853,1.091,3.618,2.304,5.382,3.529
			c2.304,1.602,4.473,3.368,6.556,5.242c1.769,1.575,3.435,3.282,5.072,5.005c2.612,2.755,4.932,5.75,7.053,8.889
			c0.863,1.288,1.712,2.57,2.473,3.917c1.054,1.833,2.089,3.685,3.011,5.607c0.796,1.632,1.589,3.293,2.164,5.026
			c0.395,1.212,0.938,2.352,1.341,3.556c0.532,1.586,1,3.204,1.474,4.801c0.145,0.5,0.236,0.995,0.341,1.492
			c0.127,0.597,0.226,1.188,0.355,1.779c0.15,0.669,0.352,1.336,0.478,2.014c0.213,1.118,0.406,2.247,0.552,3.376
			c0.153,1.247,0.236,2.51,0.365,3.769c0.057,0.521,0.164,1.042,0.244,1.58c0,3.32,0,6.645,0,9.981
			c-0.062,0.19-0.155,0.384-0.174,0.591c-0.116,1.261-0.092,2.521-0.355,3.758c-0.193,0.933-0.244,1.89-0.36,2.852
			c-0.005,0.043-0.021,0.086-0.032,0.132c-0.155,0.756-0.319,1.503-0.468,2.255c-0.129,0.656-0.226,1.323-0.354,1.977
			c-0.089,0.448-0.193,0.911-0.312,1.347c-0.167,0.655-0.36,1.301-0.543,1.951c-0.213,0.752-0.385,1.543-0.646,2.279
			c-0.623,1.773-1.319,3.508-1.927,5.263c-0.546,1.613-1.264,3.143-2.003,4.645c-0.807,1.661-1.655,3.301-2.551,4.911
			c-1.683,3.035-3.631,5.881-5.738,8.637c-1.995,2.618-4.161,5.08-6.489,7.396c-1.935,1.914-3.945,3.736-6.077,5.43
			c-1.807,1.443-3.666,2.804-5.572,4.103c-1.87,1.273-3.812,2.424-5.813,3.488c-1.428,0.742-2.868,1.484-4.325,2.183
			c-0.885,0.436-1.798,0.828-2.718,1.181c-1.43,0.556-2.87,1.062-4.316,1.588c-1.035,0.366-2.072,0.753-3.132,1.054
			c-1.269,0.35-2.559,0.632-3.841,0.946c-0.476,0.11-0.949,0.231-1.427,0.339c-0.817,0.183-1.635,0.365-2.463,0.511
			c-0.85,0.155-1.707,0.266-2.562,0.397c-1.433,0.21-2.852,0.486-4.301,0.511c-0.698,0-1.414-0.04-2.072,0.279
			c-2.905,0-5.811,0-8.717,0c-0.68-0.327-1.422-0.23-2.137-0.29c-1.237-0.112-2.462-0.244-3.693-0.365
			c-0.067,0-0.134-0.038-0.204-0.043c-0.919-0.148-1.847-0.296-2.764-0.468c-1.215-0.231-2.424-0.481-3.631-0.726
			c-0.433-0.086-0.868-0.178-1.292-0.291c-0.844-0.241-1.688-0.5-2.53-0.739c-1.083-0.314-2.185-0.583-3.244-0.948
			c-1.226-0.425-2.427-0.919-3.629-1.419c-1.68-0.688-3.384-1.334-5.013-2.129c-2.545-1.264-5.035-2.624-7.432-4.15
			c-2.712-1.736-5.312-3.615-7.8-5.655c-2.836-2.336-5.462-4.893-7.924-7.612c-1.924-2.121-3.707-4.352-5.37-6.693
			c-1.68-2.365-3.25-4.79-4.624-7.327c-0.887-1.645-1.752-3.295-2.542-4.98c-0.68-1.465-1.248-2.983-1.85-4.486
			c-0.371-0.922-0.729-1.844-1.056-2.779c-0.261-0.771-0.481-1.551-0.712-2.328c-0.204-0.688-0.398-1.395-0.591-2.086
			c-0.269-0.978-0.551-1.965-0.788-2.956c-0.153-0.656-0.242-1.322-0.357-1.989c-0.102-0.594-0.194-1.188-0.301-1.785
			c-0.156-0.847-0.381-1.672-0.484-2.531c-0.158-1.36-0.242-2.742-0.36-4.11c-0.019-0.255-0.024-0.521-0.094-0.764
			c-0.035-0.137-0.188-0.244-0.288-0.349c0-3.336,0-6.661,0-9.981c0.35-0.124,0.333-0.438,0.35-0.707
			c0.043-0.532,0.04-1.078,0.07-1.613c0.016-0.328,0.04-0.653,0.086-0.973c0.148-1.064,0.309-2.121,0.462-3.185
			c0.124-0.801,0.236-1.613,0.365-2.414c0.086-0.521,0.188-1.045,0.309-1.567c0.148-0.626,0.326-1.258,0.487-1.89
			c0.236-0.941,0.436-1.903,0.707-2.836c0.328-1.126,0.707-2.258,1.072-3.387c0.312-0.943,0.594-1.89,0.957-2.812
			c0.535-1.371,1.099-2.75,1.715-4.088c0.769-1.674,1.554-3.36,2.43-4.967c0.85-1.567,1.836-3.059,2.731-4.596
			c1.075-1.833,2.331-3.551,3.613-5.242c2.293-3.029,4.814-5.854,7.548-8.499c1.591-1.54,3.214-3.043,4.951-4.427
			c1.602-1.247,3.236-2.459,4.903-3.623c1.457-1.021,2.946-2,4.483-2.89c2.096-1.223,4.209-2.414,6.451-3.357
			c1.508-0.631,2.995-1.309,4.5-1.927c0.989-0.408,2-0.752,3.005-1.118c0.629-0.218,1.258-0.457,1.903-0.64
			c1.226-0.341,2.457-0.645,3.683-0.957c0.43-0.113,0.866-0.199,1.288-0.301c0.634-0.161,1.255-0.366,1.895-0.489
			c1.397-0.242,2.812-0.446,4.215-0.693c1.64-0.277,3.279-0.508,4.946-0.532c0.209-0.011,0.422-0.011,0.624-0.048
			C69.501,1.061,69.625,0.937,69.759,0.851z M124.12,119.819c0.497-0.64,0.908-1.226,1.376-1.767
			c2.161-2.513,4.027-5.241,5.774-8.056c0.715-1.15,1.338-2.373,1.983-3.572c0.436-0.814,0.839-1.642,1.229-2.488
			c0.459-0.971,0.927-1.941,1.333-2.931c0.465-1.166,0.868-2.359,1.298-3.534c0.25-0.704,0.517-1.393,0.753-2.094
			c0.221-0.653,0.433-1.31,0.607-1.992c0.148-0.583,0.231-1.175,0.35-1.758c0.107-0.511,0.226-1.005,0.342-1.494
			c0.177-0.802,0.392-1.572,0.537-2.374c0.19-1.034,0.35-2.072,0.489-3.115c0.153-1.118,0.301-2.233,0.39-3.349
			c0.103-1.31,0.172-2.615,0.188-3.928c0.026-1.634,0.062-3.276-0.043-4.911c-0.107-1.626-0.113-3.276-0.438-4.889
			c-0.1-0.47-0.132-0.965-0.212-1.452c-0.227-1.263-0.446-2.535-0.688-3.785c-0.081-0.435-0.199-0.863-0.29-1.298
			c-0.121-0.594-0.193-1.191-0.347-1.774c-0.224-0.82-0.514-1.621-0.77-2.435c-0.327-1.064-0.586-2.156-0.988-3.188
			c-0.707-1.806-1.509-3.575-2.25-5.362c-0.885-2.132-2.032-4.131-3.21-6.121c-0.897-1.543-1.892-3.005-2.913-4.462
			c-1.301-1.865-2.693-3.639-4.183-5.346c-2.704-3.104-5.677-5.919-8.916-8.467c-2.072-1.624-4.23-3.132-6.47-4.513
			c-2.505-1.524-5.104-2.887-7.795-4.059c-1.312-0.57-2.656-1.056-3.994-1.58c-0.581-0.215-1.175-0.398-1.764-0.591
			c-1.193-0.376-2.382-0.78-3.586-1.116c-0.913-0.266-1.854-0.449-2.784-0.653c-1.204-0.279-2.4-0.572-3.612-0.777
			c-1.331-0.234-2.672-0.417-4.011-0.545c-1.371-0.145-2.747-0.207-4.123-0.307c-3.048-0.215-6.078,0.271-9.121,0.282
			c-0.788,0.011-1.572,0.18-2.357,0.293c-0.043,0.011-0.091,0.019-0.137,0.019c-0.987,0.175-1.97,0.331-2.957,0.5
			c-0.664,0.11-1.331,0.218-1.992,0.366c-0.742,0.169-1.489,0.347-2.226,0.556c-1.212,0.339-2.419,0.675-3.623,1.04
			c-0.748,0.221-1.489,0.476-2.234,0.718c-0.653,0.215-1.32,0.425-1.959,0.68c-0.812,0.325-1.602,0.715-2.403,1.064
			c-0.941,0.403-1.922,0.729-2.809,1.223c-2.25,1.266-4.588,2.378-6.714,3.86c-1.252,0.86-2.529,1.707-3.75,2.621
			c-1.153,0.847-2.252,1.769-3.376,2.653c-0.513,0.411-0.489,0.548-0.038,0.979c0.968,0.976,1.936,1.936,2.898,2.9
			c5.634,5.666,11.268,11.327,16.896,17.004c5.424,5.464,10.843,10.94,16.268,16.42c6.333,6.387,12.66,12.779,18.99,19.17
			c4.088,4.131,8.174,8.246,12.263,12.381c8.187,8.278,16.38,16.552,24.564,24.836C123.746,119.467,123.932,119.642,124.12,119.819z
			 M118.233,126.432c-0.118-0.245-0.241-0.377-0.229-0.484c0.067-0.436-0.188-0.669-0.462-0.946c-2.212-2.198-4.4-4.402-6.594-6.612
			c-0.865-0.87-1.726-1.733-2.597-2.591c-0.161-0.147-0.365-0.342-0.564-0.365c-0.317-0.014-0.505-0.17-0.709-0.379
			c-1.696-1.707-3.403-3.417-5.103-5.126c-0.943-0.952-1.889-1.89-2.822-2.839c-0.129-0.134-0.322-0.414-0.304-0.425
			c0.317-0.312-0.075-0.436-0.183-0.543c-1.54-1.566-3.099-3.094-4.65-4.645c-3.51-3.505-7.018-7.01-10.522-10.513
			c-3.524-3.519-7.045-7.05-10.564-10.577c-4.128-4.134-8.222-8.284-12.375-12.38c-1.89-1.854-3.758-3.736-5.693-5.542
			c-2.18-2.038-4.252-4.22-6.29-6.402c-2.532-2.729-5.25-5.285-7.881-7.932c-5-5.005-10-10.026-14.996-15.034
			c-0.148-0.145-0.301-0.307-0.459-0.438c-0.231-0.207-0.436-0.207-0.635,0.076c-0.229,0.301-0.484,0.604-0.731,0.924
			c-0.838,1.048-1.723,2.057-2.494,3.159c-1.648,2.333-3.295,4.682-4.607,7.23c-0.516,1.005-1.086,2-1.578,3.019
			c-0.586,1.201-1.126,2.424-1.648,3.65c-0.365,0.874-0.683,1.769-1,2.669c-0.354,0.978-0.699,1.962-1.029,2.946
			c-0.236,0.702-0.462,1.406-0.643,2.118c-0.15,0.594-0.223,1.191-0.349,1.785c-0.102,0.47-0.237,0.933-0.352,1.409
			c-0.159,0.629-0.347,1.26-0.46,1.89c-0.199,1.153-0.376,2.314-0.527,3.47c-0.15,1.116-0.288,2.231-0.376,3.347
			c-0.105,1.333-0.162,2.669-0.229,4c-0.03,0.607-0.091,1.215-0.062,1.823c0.091,2.104,0.215,4.204,0.333,6.303
			c0.008,0.146,0.043,0.293,0.059,0.422c0.161,1.132,0.312,2.271,0.484,3.411c0.078,0.495,0.193,1.006,0.29,1.514
			c0.215,1.145,0.417,2.282,0.645,3.422c0.089,0.446,0.221,0.897,0.353,1.33c0.137,0.503,0.298,0.971,0.44,1.468
			c0.226,0.776,0.403,1.567,0.669,2.333c0.436,1.247,0.911,2.486,1.409,3.71c0.591,1.465,1.142,2.97,1.857,4.375
			c1.078,2.121,2.22,4.21,3.457,6.239c1.097,1.79,2.314,3.511,3.567,5.198c1.594,2.146,3.365,4.145,5.225,6.064
			c2.459,2.519,5.091,4.859,7.94,6.935c1.306,0.957,2.645,1.854,3.989,2.752c2.247,1.489,4.623,2.774,7.059,3.928
			c1.486,0.707,3,1.349,4.526,1.951c1.172,0.476,2.381,0.863,3.586,1.266c0.774,0.253,1.559,0.457,2.349,0.678
			c1.363,0.371,2.726,0.75,4.102,1.092c0.699,0.152,1.425,0.228,2.132,0.352c0.647,0.094,1.287,0.215,1.933,0.312
			c1.054,0.175,2.107,0.366,3.171,0.489c1.043,0.107,2.094,0.205,3.14,0.229c1.871,0.038,3.752,0.027,5.623-0.013
			c1.258-0.021,2.521-0.095,3.782-0.191c0.976-0.091,1.943-0.233,2.916-0.354c0.521-0.073,1.051-0.159,1.581-0.245
			c0.736-0.104,1.483-0.175,2.209-0.336c1.017-0.23,2.021-0.508,3.032-0.763c1.086-0.28,2.166-0.563,3.241-0.86
			c0.756-0.221,1.506-0.449,2.253-0.707c0.693-0.239,1.387-0.481,2.075-0.747c0.793-0.304,1.586-0.624,2.365-0.96
			c1.199-0.511,2.433-0.946,3.564-1.575c2.195-1.215,4.448-2.33,6.537-3.736c2.01-1.37,4.023-2.715,5.864-4.292
			C116.814,126.682,117.36,126.262,118.233,126.432z"/>
	</g>
</g>
</svg>
