<?xml version="1.0" encoding="utf-8"?>
<!-- Generator: Adobe Illustrator 16.0.3, SVG Export Plug-In . SVG Version: 6.00 Build 0)  -->
<!DOCTYPE svg PUBLIC "-//W3C//DTD SVG 1.1//EN" "http://www.w3.org/Graphics/SVG/1.1/DTD/svg11.dtd">
<svg version="1.1" id="Layer_1" xmlns="http://www.w3.org/2000/svg" xmlns:xlink="http://www.w3.org/1999/xlink" x="0px" y="0px"
	 width="150px" height="150px" viewBox="0 0 150 150" enable-background="new 0 0 150 150" xml:space="preserve">
<g>
	<path fill="#F3726A" d="M117.014,1754.814c-0.445,0-0.885-0.037-1.314-0.111l1.314,3.105l1.315-3.105
		C117.898,1754.777,117.459,1754.814,117.014,1754.814z"/>
	<path fill="#F3726A" d="M134.908,1758.674c-1.596,0-2.895,1.297-2.895,2.893s1.299,2.895,2.895,2.895s2.895-1.299,2.895-2.895
		S136.504,1758.674,134.908,1758.674z M134.908,1762.531c-0.533,0-0.965-0.432-0.965-0.965s0.432-0.965,0.965-0.965
		s0.965,0.432,0.965,0.965S135.441,1762.531,134.908,1762.531z"/>
	<path fill="#F3726A" d="M123.268,1725.057c-13.808,0-25,11.191-25,25c0,13.805,11.192,25,25,25c13.807,0,25-11.195,25-25
		C148.268,1736.248,137.074,1725.057,123.268,1725.057z M134.908,1766.392c-2.66,0-4.824-2.164-4.824-4.825
		c0-2.328,1.66-4.277,3.859-4.727v-2.282c0-1.987-1.615-3.601-3.602-3.601c-1.985,0-3.602,1.613-3.602,3.601v6.616
		c0,2.947-2.397,5.345-5.346,5.345c-2.947,0-5.346-2.397-5.346-5.345v-0.696l-2.813-6.642c-0.313-0.174-0.618-0.371-0.909-0.592
		c-1.363-1.025-2.33-2.436-2.799-4.076l-2.561-8.96c-0.363-1.274-0.113-2.61,0.683-3.666c0.798-1.058,2.014-1.663,3.337-1.663h0.561
		v-0.321c0-0.533,0.433-0.965,0.965-0.965c0.533,0,0.965,0.432,0.965,0.965v2.571c0,0.533-0.432,0.965-0.965,0.965
		c-0.532,0-0.965-0.432-0.965-0.965v-0.321h-0.561c-0.712,0-1.367,0.327-1.797,0.896c-0.429,0.568-0.563,1.29-0.367,1.975
		l2.561,8.961c0.715,2.5,3.029,4.246,5.631,4.246c2.601,0,4.916-1.746,5.631-4.246l2.561-8.962c0.195-0.685,0.061-1.405-0.368-1.974
		s-1.083-0.896-1.797-0.896h-0.56v0.321c0,0.533-0.433,0.965-0.965,0.965c-0.533,0-0.965-0.432-0.965-0.965v-2.571
		c0-0.533,0.432-0.965,0.965-0.965c0.532,0,0.965,0.432,0.965,0.965v0.321h0.56c1.323,0,2.54,0.605,3.337,1.663
		c0.798,1.056,1.046,2.392,0.683,3.666l-2.56,8.96c-0.469,1.641-1.438,3.051-2.799,4.076c-0.291,0.221-0.596,0.418-0.909,0.592
		l-2.813,6.642v0.696c0,1.884,1.532,3.416,3.416,3.416c1.885,0,3.417-1.532,3.417-3.416v-6.616c0-3.049,2.481-5.53,5.53-5.53
		c3.05,0,5.531,2.481,5.531,5.53v2.282c2.199,0.449,3.857,2.398,3.857,4.727C139.73,1764.228,137.567,1766.392,134.908,1766.392z"/>
</g>
<g>
	<path fill="#F3726A" d="M117.014,1754.814c-0.445,0-0.885-0.037-1.314-0.111l1.314,3.105l1.315-3.105
		C117.898,1754.777,117.459,1754.814,117.014,1754.814z"/>
	<path fill="#F3726A" d="M134.908,1758.674c-1.596,0-2.895,1.297-2.895,2.893s1.299,2.895,2.895,2.895s2.895-1.299,2.895-2.895
		S136.504,1758.674,134.908,1758.674z M134.908,1762.531c-0.533,0-0.965-0.432-0.965-0.965s0.432-0.965,0.965-0.965
		s0.965,0.432,0.965,0.965S135.441,1762.531,134.908,1762.531z"/>
	<path fill="#F3726A" d="M123.268,1725.057c-13.808,0-25,11.191-25,25c0,13.805,11.192,25,25,25c13.807,0,25-11.195,25-25
		C148.268,1736.248,137.074,1725.057,123.268,1725.057z M134.908,1766.392c-2.66,0-4.824-2.164-4.824-4.825
		c0-2.328,1.66-4.277,3.859-4.727v-2.282c0-1.987-1.615-3.601-3.602-3.601c-1.985,0-3.602,1.613-3.602,3.601v6.616
		c0,2.947-2.397,5.345-5.346,5.345c-2.947,0-5.346-2.397-5.346-5.345v-0.696l-2.813-6.642c-0.313-0.174-0.618-0.371-0.909-0.592
		c-1.363-1.025-2.33-2.436-2.799-4.076l-2.561-8.96c-0.363-1.274-0.113-2.61,0.683-3.666c0.798-1.058,2.014-1.663,3.337-1.663h0.561
		v-0.321c0-0.533,0.433-0.965,0.965-0.965c0.533,0,0.965,0.432,0.965,0.965v2.571c0,0.533-0.432,0.965-0.965,0.965
		c-0.532,0-0.965-0.432-0.965-0.965v-0.321h-0.561c-0.712,0-1.367,0.327-1.797,0.896c-0.429,0.568-0.563,1.29-0.367,1.975
		l2.561,8.961c0.715,2.5,3.029,4.246,5.631,4.246c2.601,0,4.916-1.746,5.631-4.246l2.561-8.962c0.195-0.685,0.061-1.405-0.368-1.974
		s-1.083-0.896-1.797-0.896h-0.56v0.321c0,0.533-0.433,0.965-0.965,0.965c-0.533,0-0.965-0.432-0.965-0.965v-2.571
		c0-0.533,0.432-0.965,0.965-0.965c0.532,0,0.965,0.432,0.965,0.965v0.321h0.56c1.323,0,2.54,0.605,3.337,1.663
		c0.798,1.056,1.046,2.392,0.683,3.666l-2.56,8.96c-0.469,1.641-1.438,3.051-2.799,4.076c-0.291,0.221-0.596,0.418-0.909,0.592
		l-2.813,6.642v0.696c0,1.884,1.532,3.416,3.416,3.416c1.885,0,3.417-1.532,3.417-3.416v-6.616c0-3.049,2.481-5.53,5.53-5.53
		c3.05,0,5.531,2.481,5.531,5.53v2.282c2.199,0.449,3.857,2.398,3.857,4.727C139.73,1764.228,137.567,1766.392,134.908,1766.392z"/>
</g>
<g>
	<path fill="#F3726A" d="M56.505,89.33c-1.336,0-2.653-0.111-3.943-0.334l3.945,9.316l3.946-9.316
		C59.159,89.219,57.841,89.33,56.505,89.33z"/>
	<path fill="#F3726A" d="M110.189,100.908c-4.787,0-8.684,3.891-8.684,8.678s3.896,8.684,8.684,8.684s8.684-3.896,8.684-8.684
		S114.977,100.908,110.189,100.908z M110.189,112.48c-1.6,0-2.895-1.295-2.895-2.895s1.295-2.895,2.895-2.895
		s2.895,1.295,2.895,2.895S111.789,112.48,110.189,112.48z"/>
	<path fill="#F3726A" d="M75.267,0.057c-41.421,0-74.999,33.577-74.999,74.999c0,41.415,33.578,75.001,74.999,75.001
		s75.001-33.586,75.001-75.001C150.268,33.633,116.688,0.057,75.267,0.057z M110.189,124.062c-7.98,0-14.473-6.492-14.473-14.476
		c0-6.984,4.98-12.832,11.578-14.18V88.56c0-5.962-4.846-10.803-10.805-10.803c-5.956,0-10.805,4.841-10.805,10.803v19.849
		c0,8.842-7.192,16.034-16.035,16.034c-8.843,0-16.037-7.192-16.037-16.034v-2.089l-8.441-19.925
		c-0.942-0.521-1.854-1.113-2.729-1.775c-4.087-3.076-6.987-7.308-8.394-12.228l-7.682-26.879c-1.09-3.822-0.343-7.83,2.046-10.998
		c2.392-3.171,6.041-4.991,10.012-4.991h1.682v-0.962c0-1.6,1.296-2.895,2.895-2.895s2.893,1.295,2.893,2.895v7.715
		c0,1.6-1.295,2.895-2.893,2.895s-2.895-1.295-2.895-2.895v-0.965h-1.682c-2.137,0-4.103,0.981-5.392,2.688
		c-1.286,1.705-1.688,3.869-1.1,5.921l7.68,26.882c2.145,7.501,9.089,12.739,16.892,12.739c7.802,0,14.75-5.238,16.893-12.739
		l7.681-26.884c0.586-2.055,0.182-4.214-1.104-5.919c-1.286-1.707-3.25-2.688-5.39-2.688h-1.68v0.965c0,1.6-1.296,2.895-2.895,2.895
		s-2.893-1.295-2.893-2.895v-7.715c0-1.6,1.295-2.895,2.893-2.895s2.895,1.295,2.895,2.895v0.962h1.68
		c3.969,0,7.62,1.819,10.01,4.991c2.394,3.168,3.138,7.176,2.048,10.998l-7.679,26.879c-1.406,4.92-4.311,9.152-8.395,12.228
		c-0.875,0.662-1.787,1.254-2.729,1.775l-8.44,19.925v2.089c0,5.651,4.597,10.248,10.25,10.248c5.651,0,10.249-4.597,10.249-10.248
		V88.56c0-9.146,7.444-16.592,16.591-16.592c9.149,0,16.594,7.445,16.594,16.592v6.847c6.598,1.348,11.572,7.195,11.572,14.18
		C124.656,117.569,118.167,124.062,110.189,124.062z"/>
</g>
</svg>
