<?xml version="1.0" encoding="utf-8"?>
<!-- Generator: Adobe Illustrator 16.0.3, SVG Export Plug-In . SVG Version: 6.00 Build 0)  -->
<!DOCTYPE svg PUBLIC "-//W3C//DTD SVG 1.1//EN" "http://www.w3.org/Graphics/SVG/1.1/DTD/svg11.dtd">
<svg version="1.1" id="Layer_1" xmlns="http://www.w3.org/2000/svg" xmlns:xlink="http://www.w3.org/1999/xlink" x="0px" y="0px"
	 width="150px" height="150px" viewBox="0 0 150 150" enable-background="new 0 0 150 150" xml:space="preserve">
<g>
	<path fill="#F3726A" d="M117.014,1754.814c-0.445,0-0.885-0.037-1.313-0.111l1.313,3.104l1.315-3.104
		C117.898,1754.777,117.459,1754.814,117.014,1754.814z"/>
	<path fill="#F3726A" d="M134.908,1758.674c-1.596,0-2.895,1.297-2.895,2.893c0,1.597,1.299,2.896,2.895,2.896
		s2.895-1.299,2.895-2.896C137.803,1759.971,136.504,1758.674,134.908,1758.674z M134.908,1762.531
		c-0.533,0-0.965-0.433-0.965-0.965c0-0.533,0.432-0.965,0.965-0.965s0.965,0.432,0.965,0.965
		C135.873,1762.099,135.441,1762.531,134.908,1762.531z"/>
	<path fill="#F3726A" d="M123.268,1725.057c-13.808,0-25,11.191-25,25c0,13.806,11.192,25,25,25s25-11.194,25-25
		C148.268,1736.248,137.074,1725.057,123.268,1725.057z M134.908,1766.392c-2.66,0-4.824-2.163-4.824-4.824
		c0-2.328,1.66-4.277,3.859-4.728v-2.282c0-1.986-1.615-3.601-3.603-3.601c-1.985,0-3.603,1.613-3.603,3.601v6.616
		c0,2.947-2.396,5.345-5.346,5.345c-2.947,0-5.346-2.396-5.346-5.345v-0.696l-2.813-6.642c-0.313-0.174-0.618-0.371-0.909-0.592
		c-1.363-1.025-2.33-2.437-2.8-4.076l-2.561-8.96c-0.363-1.274-0.113-2.61,0.684-3.666c0.797-1.058,2.014-1.663,3.336-1.663h0.562
		v-0.321c0-0.532,0.433-0.965,0.965-0.965c0.533,0,0.966,0.433,0.966,0.965v2.571c0,0.533-0.433,0.965-0.966,0.965
		c-0.532,0-0.965-0.432-0.965-0.965v-0.321h-0.562c-0.711,0-1.366,0.327-1.797,0.896c-0.429,0.567-0.563,1.29-0.367,1.975
		l2.562,8.961c0.716,2.5,3.029,4.246,5.632,4.246c2.6,0,4.916-1.746,5.631-4.246l2.561-8.962c0.195-0.685,0.061-1.405-0.368-1.974
		c-0.429-0.569-1.083-0.896-1.797-0.896h-0.56v0.321c0,0.533-0.434,0.965-0.965,0.965c-0.533,0-0.966-0.432-0.966-0.965v-2.571
		c0-0.532,0.433-0.965,0.966-0.965c0.531,0,0.965,0.433,0.965,0.965v0.321h0.56c1.323,0,2.54,0.605,3.337,1.663
		c0.798,1.056,1.046,2.392,0.684,3.666l-2.561,8.96c-0.469,1.641-1.438,3.051-2.799,4.076c-0.291,0.221-0.596,0.418-0.909,0.592
		l-2.813,6.642v0.696c0,1.884,1.532,3.416,3.416,3.416c1.885,0,3.418-1.532,3.418-3.416v-6.616c0-3.049,2.48-5.529,5.529-5.529
		c3.051,0,5.531,2.48,5.531,5.529v2.282c2.199,0.449,3.857,2.398,3.857,4.728C139.73,1764.229,137.566,1766.392,134.908,1766.392z"
		/>
</g>
<g>
	<path fill="#F3726A" d="M117.014,1754.814c-0.445,0-0.885-0.037-1.313-0.111l1.313,3.104l1.315-3.104
		C117.898,1754.777,117.459,1754.814,117.014,1754.814z"/>
	<path fill="#F3726A" d="M134.908,1758.674c-1.596,0-2.895,1.297-2.895,2.893c0,1.597,1.299,2.896,2.895,2.896
		s2.895-1.299,2.895-2.896C137.803,1759.971,136.504,1758.674,134.908,1758.674z M134.908,1762.531
		c-0.533,0-0.965-0.433-0.965-0.965c0-0.533,0.432-0.965,0.965-0.965s0.965,0.432,0.965,0.965
		C135.873,1762.099,135.441,1762.531,134.908,1762.531z"/>
	<path fill="#F3726A" d="M123.268,1725.057c-13.808,0-25,11.191-25,25c0,13.806,11.192,25,25,25s25-11.194,25-25
		C148.268,1736.248,137.074,1725.057,123.268,1725.057z M134.908,1766.392c-2.66,0-4.824-2.163-4.824-4.824
		c0-2.328,1.66-4.277,3.859-4.728v-2.282c0-1.986-1.615-3.601-3.603-3.601c-1.985,0-3.603,1.613-3.603,3.601v6.616
		c0,2.947-2.396,5.345-5.346,5.345c-2.947,0-5.346-2.396-5.346-5.345v-0.696l-2.813-6.642c-0.313-0.174-0.618-0.371-0.909-0.592
		c-1.363-1.025-2.33-2.437-2.8-4.076l-2.561-8.96c-0.363-1.274-0.113-2.61,0.684-3.666c0.797-1.058,2.014-1.663,3.336-1.663h0.562
		v-0.321c0-0.532,0.433-0.965,0.965-0.965c0.533,0,0.966,0.433,0.966,0.965v2.571c0,0.533-0.433,0.965-0.966,0.965
		c-0.532,0-0.965-0.432-0.965-0.965v-0.321h-0.562c-0.711,0-1.366,0.327-1.797,0.896c-0.429,0.567-0.563,1.29-0.367,1.975
		l2.562,8.961c0.716,2.5,3.029,4.246,5.632,4.246c2.6,0,4.916-1.746,5.631-4.246l2.561-8.962c0.195-0.685,0.061-1.405-0.368-1.974
		c-0.429-0.569-1.083-0.896-1.797-0.896h-0.56v0.321c0,0.533-0.434,0.965-0.965,0.965c-0.533,0-0.966-0.432-0.966-0.965v-2.571
		c0-0.532,0.433-0.965,0.966-0.965c0.531,0,0.965,0.433,0.965,0.965v0.321h0.56c1.323,0,2.54,0.605,3.337,1.663
		c0.798,1.056,1.046,2.392,0.684,3.666l-2.561,8.96c-0.469,1.641-1.438,3.051-2.799,4.076c-0.291,0.221-0.596,0.418-0.909,0.592
		l-2.813,6.642v0.696c0,1.884,1.532,3.416,3.416,3.416c1.885,0,3.418-1.532,3.418-3.416v-6.616c0-3.049,2.48-5.529,5.529-5.529
		c3.051,0,5.531,2.48,5.531,5.529v2.282c2.199,0.449,3.857,2.398,3.857,4.728C139.73,1764.229,137.566,1766.392,134.908,1766.392z"
		/>
</g>
<g>
	<g>
		<path fill-rule="evenodd" clip-rule="evenodd" fill="#F3725F" d="M107.343,57.835c1.767-0.936,3.18-1.624,4.514-2.424
			c0.382-0.231,0.741-0.828,0.773-1.288c0.105-1.403-0.032-2.822,0.07-4.231c0.14-1.892,1.414-3.072,3.08-3.035
			c1.656,0.051,3.026,1.347,2.831,3.226c-0.345,3.338,0.206,5.897,3.717,6.83c0.451,0.132,0.833,0.556,1.607,1.078
			c0.854-1.054,1.669-2.169,2.618-3.15c1.526-1.581,3.365-1.626,4.588-0.282c1.207,1.349,1.261,3.319-0.362,4.682
			c-2.575,2.158-3.646,4.392-1.721,7.602c0.484,0.801,0.521,1.906,0.807,3.042c1.339,0,2.73-0.032,4.112,0
			c2.18,0.062,3.468,1.266,3.47,3.191c0.003,1.938-1.266,3.091-3.464,3.131c-1.285,0.009-2.572,0.009-3.854,0.046
			c-0.052,0-0.105,0.027-0.081,0.027c-0.733,2.12-1.5,4.155-2.129,6.268c-0.14,0.471,0.07,1.239,0.387,1.635
			c0.857,1.08,1.903,1.991,2.779,3.056c1.221,1.492,1.167,3.178-0.034,4.414c-1.148,1.188-2.863,1.207-4.223-0.043
			c-0.842-0.77-1.527-1.734-2.414-2.431c-0.385-0.301-1.137-0.338-1.64-0.177c-0.621,0.177-1.115,0.893-1.726,1.016
			c-2.29,0.46-2.688,2.014-2.395,4.086c0.088,0.643,0.029,1.312,0.002,1.951c-0.075,1.893-1.23,3.229-2.844,3.325
			c-1.62,0.083-3.01-1.301-3.123-3.239c-0.081-1.357,0.037-2.706-0.06-4.062c-0.034-0.47-0.365-1.056-0.736-1.336
			c-0.634-0.436-1.436-0.618-2.12-1.008c-0.681-0.371-1.304-0.882-2.366-1.597c-0.852,1.067-1.65,2.204-2.594,3.188
			c-1.445,1.532-3.22,1.623-4.456,0.365c-1.301-1.298-1.368-3.397,0.279-4.779c2.58-2.172,3.677-4.381,1.667-7.602
			c-0.517-0.827-0.541-2.005-0.814-3.104c-1.503,0-2.949,0.046-4.396,0c-1.838-0.062-3.083-1.226-3.188-2.927
			c-0.11-1.747,1.107-3.199,2.97-3.354c1.495-0.126,3-0.027,4.428-0.027c0.793-2.255,1.58-4.352,2.255-6.523
			c0.115-0.353-0.147-0.995-0.428-1.32c-0.844-1.008-1.822-1.906-2.685-2.898c-1.296-1.526-1.347-3.335-0.196-4.609
			c1.204-1.309,2.983-1.309,4.462,0.169C105.712,55.726,106.566,56.9,107.343,57.835z M107.491,72.302
			c-0.242,3.005,0.543,6.281,2.161,8.876c3.08,4.945,8.171,5.2,11.66,0.604c3.769-4.97,3.435-13.663-0.693-18.235
			c-2.968-3.301-7.043-3.277-9.951,0.107C108.604,66.055,107.645,68.931,107.491,72.302z"/>
		<path fill-rule="evenodd" clip-rule="evenodd" fill="#F3725F" d="M21.426,73.384c-0.042-7.032,4.084-13.606,9.869-15.714
			c6.261-2.292,12.855,0.253,16.531,6.378c4.225,7.035,2.947,16.721-2.929,22.162c-6.702,6.209-17.016,4.236-21.279-4.069
			C22.148,79.275,21.445,76.464,21.426,73.384z M27.348,73.335c0.199,1.204,0.285,2.449,0.627,3.612
			c2.019,6.804,9.272,8.807,13.698,3.799c3.733-4.223,3.431-11.609-0.63-15.45c-3.06-2.895-7.459-2.863-10.452,0.107
			C28.439,67.548,27.477,70.207,27.348,73.335z"/>
		<path fill-rule="evenodd" clip-rule="evenodd" fill="#F3725F" d="M58.972,118.932c0.201-4.465,2.202-7.763,6.032-9.579
			c3.812-1.796,7.458-1.178,10.839,1.516c1.062,0.85,2.382,1.589,3.672,1.809c1.532,0.25,2.94-0.572,3.726-2.137
			c0.779-1.591,0.704-3.155-0.132-4.695c-0.19-0.347-0.473-0.653-0.686-0.992c-1.011-1.589-0.825-3.349,0.457-4.416
			c1.307-1.078,2.94-0.885,4.193,0.497c4.962,5.508,2.94,14.821-3.833,17.464c-3.683,1.443-7.08,0.801-10.231-1.71
			c-0.989-0.79-2.146-1.529-3.331-1.796c-1.704-0.408-3.233,0.325-4.102,2.014c-0.867,1.672-0.791,3.381,0.249,5.008
			c0.188,0.279,0.403,0.545,0.586,0.836c0.969,1.58,0.797,3.193-0.449,4.269c-1.243,1.094-3.016,0.962-4.204-0.398
			C59.862,124.472,58.881,121.913,58.972,118.932z"/>
		<path fill-rule="evenodd" clip-rule="evenodd" fill="#F3725F" d="M109.969,32.303c0,6.341-4.919,11.556-10.938,11.58
			c-5.999,0.021-10.969-5.142-11.076-11.485c-0.107-6.22,5.147-11.789,11.074-11.703C105.039,20.767,109.969,25.995,109.969,32.303z
			 M98.938,37.537c2.769,0.043,5.016-2.301,5.032-5.198c0.016-2.887-2.279-5.298-5.003-5.287c-2.683,0.021-4.884,2.317-4.953,5.164
			C93.943,35.077,96.196,37.531,98.938,37.537z"/>
		<path fill-rule="evenodd" clip-rule="evenodd" fill="#F3725F" d="M77.367,58.513c-4.952,0.011-8.943-4.172-8.972-9.373
			c-0.025-5.228,4.09-9.609,8.998-9.582c4.858,0.024,8.96,4.316,9.024,9.448C86.482,54.169,82.362,58.513,77.367,58.513z
			 M80.35,49.041c-0.025-1.699-1.428-3.104-3.056-3.07c-1.611,0.041-2.953,1.543-2.884,3.229c0.076,1.612,1.428,2.98,2.965,2.98
			C78.992,52.18,80.376,50.715,80.35,49.041z"/>
		<path fill-rule="evenodd" clip-rule="evenodd" fill="#F3725F" d="M50.62,116.362c-4.35-0.027-7.909-3.752-7.916-8.287
			c-0.002-4.559,3.726-8.439,8.059-8.364c4.28,0.072,7.885,3.951,7.818,8.427C58.51,112.712,54.957,116.373,50.62,116.362z
			 M52.739,108.572c0.016-0.284,0.027-0.569,0.04-0.847c-0.713-0.545-1.435-1.553-2.128-1.529c-0.643,0.027-1.634,1.046-1.791,1.796
			c-0.234,1.118,0.564,2.137,1.774,1.93C51.387,109.799,52.041,109.049,52.739,108.572z"/>
		<path fill-rule="evenodd" clip-rule="evenodd" fill="#F3725F" d="M55.578,124.703c-0.023,1.637-1.486,3.166-3.02,3.142
			c-1.606-0.026-2.922-1.468-2.907-3.204c0.008-1.747,1.301-3.091,2.96-3.066C54.243,121.582,55.599,123.028,55.578,124.703z"/>
		<path fill-rule="evenodd" clip-rule="evenodd" fill="#F3725F" d="M82.466,134.564c-0.037,1.659-1.47,3.103-3.048,3.062
			c-1.607-0.032-2.948-1.502-2.919-3.195c0.026-1.702,1.371-3.06,3.032-3.011C81.165,131.447,82.504,132.874,82.466,134.564z"/>
		<path fill-rule="evenodd" clip-rule="evenodd" fill="#F3725F" d="M60.431,27.936c1.633,0.027,2.967,1.44,2.942,3.131
			c-0.03,1.675-1.433,3.104-3.031,3.067c-1.606-0.024-2.967-1.481-2.94-3.156C57.425,29.282,58.779,27.919,60.431,27.936z"/>
		<path fill-rule="evenodd" clip-rule="evenodd" fill="#F3725F" d="M76.123,34.083c0.037,1.734-1.242,3.143-2.894,3.164
			c-1.636,0.04-3.025-1.317-3.068-3.005c-0.042-1.661,1.318-3.153,2.931-3.19C74.73,31.016,76.085,32.376,76.123,34.083z"/>
		<path fill-rule="evenodd" clip-rule="evenodd" fill="#F3725F" d="M41.259,74.838c-0.005,1.65-1.431,3.143-2.996,3.143
			c-1.575,0.01-2.97-1.469-2.97-3.151c0-1.715,1.345-3.118,2.973-3.118C39.887,71.712,41.262,73.152,41.259,74.838z"/>
	</g>
	<g>
		<path fill-rule="evenodd" clip-rule="evenodd" fill="#F3725F" d="M70.151,0c3.278,0,6.558,0,9.84,0
			c0.153,0.29,0.427,0.252,0.677,0.269c0.796,0.046,1.595,0.032,2.385,0.135c1.089,0.115,2.172,0.301,3.255,0.467
			c0.925,0.14,1.847,0.293,2.771,0.441c0.457,0.081,0.922,0.145,1.376,0.266c1.037,0.245,2.069,0.508,3.104,0.774
			c0.897,0.231,1.801,0.435,2.688,0.69c0.842,0.231,1.667,0.521,2.497,0.801c0.662,0.215,1.328,0.414,1.974,0.68
			c1.962,0.814,3.938,1.573,5.87,2.473c2.241,1.04,4.422,2.196,6.553,3.443c1.853,1.091,3.618,2.303,5.382,3.529
			c2.304,1.602,4.473,3.368,6.556,5.241c1.769,1.576,3.435,3.282,5.072,5.006c2.612,2.754,4.932,5.749,7.053,8.889
			c0.863,1.287,1.712,2.569,2.473,3.916c1.054,1.833,2.089,3.686,3.011,5.607c0.796,1.631,1.589,3.292,2.164,5.025
			c0.395,1.213,0.938,2.353,1.341,3.557c0.532,1.586,1,3.204,1.473,4.801c0.146,0.5,0.237,0.994,0.342,1.492
			c0.126,0.596,0.226,1.188,0.354,1.779c0.15,0.669,0.353,1.336,0.479,2.013c0.213,1.118,0.406,2.247,0.551,3.376
			c0.153,1.247,0.237,2.511,0.366,3.769c0.057,0.521,0.164,1.043,0.244,1.581c0,3.318,0,6.644,0,9.979
			c-0.062,0.191-0.155,0.385-0.175,0.592c-0.115,1.261-0.091,2.521-0.354,3.758c-0.193,0.933-0.244,1.889-0.36,2.852
			c-0.005,0.043-0.021,0.086-0.032,0.132c-0.155,0.755-0.319,1.502-0.468,2.255c-0.129,0.656-0.226,1.322-0.354,1.976
			c-0.089,0.449-0.193,0.911-0.312,1.347c-0.167,0.656-0.36,1.301-0.543,1.951c-0.213,0.753-0.385,1.543-0.646,2.279
			c-0.623,1.774-1.319,3.508-1.927,5.264c-0.546,1.612-1.264,3.142-2.003,4.645c-0.807,1.661-1.655,3.301-2.551,4.91
			c-1.683,3.035-3.632,5.882-5.738,8.637c-1.995,2.618-4.161,5.08-6.489,7.396c-1.935,1.914-3.945,3.736-6.077,5.43
			c-1.807,1.443-3.666,2.804-5.572,4.103c-1.87,1.273-3.812,2.424-5.813,3.488c-1.428,0.742-2.868,1.484-4.325,2.183
			c-0.884,0.436-1.798,0.828-2.718,1.18c-1.43,0.557-2.87,1.063-4.316,1.589c-1.035,0.366-2.072,0.753-3.131,1.054
			c-1.27,0.35-2.56,0.632-3.842,0.946c-0.476,0.11-0.948,0.231-1.427,0.339c-0.817,0.183-1.635,0.365-2.462,0.511
			c-0.85,0.155-1.707,0.266-2.562,0.397c-1.434,0.21-2.853,0.486-4.301,0.511c-0.699,0-1.414-0.04-2.072,0.279
			c-2.906,0-5.812,0-8.718,0c-0.682-0.327-1.42-0.23-2.138-0.29c-1.235-0.113-2.462-0.244-3.693-0.365
			c-0.065,0-0.132-0.038-0.202-0.043c-0.922-0.148-1.848-0.296-2.766-0.468c-1.212-0.231-2.422-0.481-3.629-0.726
			c-0.435-0.086-0.869-0.178-1.293-0.291c-0.846-0.241-1.688-0.5-2.529-0.739c-1.086-0.314-2.186-0.583-3.246-0.948
			c-1.225-0.425-2.426-0.92-3.627-1.419c-1.681-0.688-3.385-1.334-5.014-2.129c-2.547-1.264-5.034-2.624-7.434-4.15
			c-2.711-1.736-5.311-3.615-7.797-5.655c-2.838-2.336-5.463-4.893-7.928-7.612c-1.922-2.121-3.705-4.352-5.368-6.693
			c-1.681-2.365-3.25-4.789-4.622-7.327c-0.89-1.645-1.752-3.295-2.543-4.98c-0.682-1.465-1.25-2.983-1.851-4.486
			c-0.37-0.922-0.729-1.844-1.056-2.779c-0.263-0.771-0.481-1.551-0.711-2.327c-0.207-0.688-0.4-1.396-0.594-2.086
			c-0.268-0.979-0.551-1.965-0.787-2.957c-0.154-0.655-0.242-1.322-0.357-1.989c-0.101-0.594-0.192-1.188-0.3-1.784
			c-0.159-0.847-0.383-1.672-0.483-2.532c-0.16-1.36-0.244-2.741-0.36-4.109c-0.021-0.256-0.026-0.521-0.096-0.764
			C0.253,80.213,0.101,80.104,0,80c0-3.336,0-6.661,0-9.979c0.35-0.124,0.333-0.439,0.353-0.707c0.041-0.533,0.039-1.078,0.07-1.613
			c0.013-0.328,0.039-0.653,0.084-0.973c0.148-1.064,0.309-2.121,0.464-3.186c0.12-0.801,0.233-1.613,0.365-2.414
			c0.087-0.521,0.186-1.045,0.308-1.566c0.148-0.627,0.327-1.258,0.485-1.89c0.237-0.94,0.437-1.903,0.708-2.836
			c0.328-1.126,0.706-2.258,1.074-3.387c0.309-0.943,0.593-1.89,0.955-2.812c0.535-1.371,1.1-2.75,1.715-4.088
			c0.771-1.676,1.556-3.36,2.432-4.968c0.847-1.567,1.834-3.059,2.729-4.597c1.075-1.833,2.331-3.551,3.614-5.241
			c2.291-3.029,4.813-5.854,7.547-8.499c1.592-1.54,3.214-3.042,4.95-4.427c1.601-1.248,3.236-2.459,4.904-3.624
			c1.457-1.021,2.944-2,4.481-2.89c2.096-1.223,4.209-2.414,6.45-3.357c1.509-0.632,2.994-1.309,4.503-1.927
			c0.988-0.409,1.998-0.752,3.004-1.118c0.628-0.218,1.258-0.457,1.902-0.64c1.225-0.341,2.455-0.645,3.684-0.957
			c0.429-0.113,0.863-0.199,1.286-0.301c0.634-0.161,1.255-0.365,1.896-0.489c1.396-0.242,2.809-0.446,4.212-0.694
			c1.64-0.277,3.279-0.508,4.947-0.532c0.208-0.011,0.422-0.011,0.622-0.048C69.893,0.209,70.018,0.086,70.151,0z M124.511,118.967
			c0.497-0.64,0.908-1.226,1.376-1.766c2.161-2.514,4.026-5.242,5.774-8.056c0.715-1.15,1.338-2.374,1.983-3.572
			c0.436-0.814,0.839-1.643,1.229-2.489c0.459-0.971,0.927-1.94,1.333-2.93c0.465-1.167,0.868-2.36,1.298-3.535
			c0.25-0.704,0.517-1.392,0.753-2.094c0.221-0.653,0.433-1.309,0.607-1.991c0.147-0.584,0.231-1.175,0.35-1.758
			c0.107-0.511,0.226-1.006,0.341-1.495c0.178-0.801,0.393-1.572,0.538-2.373c0.19-1.035,0.35-2.072,0.489-3.115
			c0.153-1.118,0.301-2.233,0.39-3.35c0.102-1.309,0.172-2.615,0.188-3.927c0.026-1.634,0.062-3.276-0.043-4.91
			c-0.108-1.627-0.113-3.277-0.438-4.891c-0.1-0.47-0.132-0.965-0.213-1.451c-0.226-1.264-0.445-2.534-0.688-3.784
			c-0.081-0.436-0.199-0.862-0.29-1.298c-0.121-0.595-0.194-1.191-0.348-1.774c-0.223-0.819-0.513-1.621-0.769-2.436
			c-0.328-1.063-0.586-2.155-0.989-3.188c-0.706-1.806-1.508-3.575-2.249-5.362c-0.885-2.132-2.032-4.131-3.21-6.121
			c-0.897-1.543-1.892-3.004-2.913-4.461c-1.302-1.865-2.693-3.64-4.183-5.347c-2.704-3.104-5.677-5.919-8.916-8.467
			c-2.072-1.624-4.23-3.132-6.47-4.513c-2.505-1.524-5.104-2.887-7.795-4.059c-1.312-0.57-2.655-1.057-3.994-1.581
			c-0.581-0.215-1.175-0.398-1.764-0.591c-1.193-0.376-2.381-0.779-3.585-1.116c-0.914-0.266-1.855-0.449-2.785-0.653
			c-1.204-0.28-2.4-0.573-3.612-0.777c-1.331-0.234-2.672-0.417-4.011-0.546c-1.37-0.145-2.747-0.207-4.123-0.306
			c-3.048-0.215-6.077,0.271-9.12,0.282c-0.786,0.011-1.57,0.18-2.355,0.293c-0.045,0.011-0.094,0.019-0.139,0.019
			c-0.988,0.175-1.971,0.331-2.957,0.5c-0.664,0.11-1.332,0.218-1.99,0.366c-0.744,0.169-1.49,0.347-2.226,0.556
			c-1.214,0.339-2.421,0.675-3.624,1.041c-0.749,0.22-1.491,0.476-2.234,0.718c-0.654,0.215-1.32,0.424-1.958,0.68
			c-0.812,0.325-1.604,0.715-2.405,1.064c-0.939,0.403-1.921,0.729-2.809,1.223c-2.25,1.266-4.588,2.379-6.714,3.86
			c-1.253,0.859-2.528,1.707-3.751,2.621c-1.151,0.846-2.252,1.768-3.373,2.652c-0.515,0.412-0.489,0.549-0.037,0.979
			c0.966,0.976,1.934,1.936,2.896,2.9c5.635,5.666,11.266,11.326,16.896,17.004c5.423,5.465,10.843,10.939,16.267,16.42
			c6.333,6.387,12.66,12.778,18.99,19.17c4.089,4.132,8.174,8.247,12.263,12.381c8.188,8.279,16.38,16.552,24.564,24.836
			C124.137,118.614,124.322,118.789,124.511,118.967z M118.624,125.579c-0.118-0.245-0.241-0.376-0.229-0.484
			c0.067-0.435-0.188-0.669-0.462-0.945c-2.212-2.199-4.4-4.403-6.594-6.612c-0.865-0.871-1.726-1.734-2.597-2.592
			c-0.161-0.147-0.365-0.341-0.564-0.365c-0.316-0.014-0.505-0.169-0.709-0.379c-1.696-1.707-3.403-3.416-5.102-5.126
			c-0.943-0.951-1.89-1.89-2.822-2.839c-0.129-0.134-0.323-0.413-0.304-0.424c0.316-0.313-0.075-0.436-0.184-0.543
			c-1.54-1.567-3.099-3.094-4.649-4.646c-3.511-3.505-7.019-7.01-10.523-10.512c-3.523-3.519-7.045-7.051-10.563-10.577
			c-4.128-4.134-8.222-8.284-12.376-12.38c-1.889-1.855-3.756-3.736-5.693-5.543c-2.179-2.037-4.252-4.221-6.289-6.402
			c-2.531-2.729-5.249-5.285-7.881-7.933c-4.998-5.005-9.997-10.026-14.995-15.033c-0.149-0.146-0.302-0.307-0.458-0.438
			c-0.231-0.207-0.438-0.207-0.635,0.076c-0.23,0.301-0.484,0.604-0.732,0.924c-0.838,1.049-1.723,2.057-2.496,3.158
			c-1.646,2.334-3.293,4.683-4.604,7.23c-0.52,1.006-1.09,2-1.58,3.019c-0.586,1.202-1.126,2.425-1.646,3.65
			c-0.367,0.874-0.682,1.769-1.002,2.669c-0.354,0.979-0.699,1.963-1.028,2.946c-0.236,0.701-0.462,1.405-0.644,2.118
			c-0.15,0.594-0.222,1.19-0.35,1.785c-0.1,0.47-0.234,0.932-0.351,1.408c-0.157,0.629-0.347,1.26-0.458,1.889
			c-0.201,1.154-0.379,2.314-0.529,3.471c-0.148,1.115-0.287,2.23-0.374,3.346c-0.106,1.334-0.161,2.67-0.229,4
			c-0.03,0.607-0.092,1.215-0.063,1.822c0.093,2.105,0.218,4.204,0.336,6.304c0.007,0.145,0.04,0.293,0.058,0.422
			c0.16,1.132,0.311,2.271,0.485,3.411c0.076,0.494,0.193,1.005,0.288,1.513c0.215,1.146,0.418,2.282,0.646,3.422
			c0.088,0.446,0.22,0.898,0.352,1.331c0.137,0.502,0.299,0.97,0.44,1.467c0.226,0.777,0.403,1.567,0.671,2.334
			c0.436,1.247,0.91,2.486,1.406,3.709c0.594,1.465,1.143,2.97,1.858,4.376c1.079,2.12,2.22,4.209,3.456,6.238
			c1.098,1.79,2.316,3.511,3.568,5.198c1.593,2.146,3.363,4.146,5.223,6.064c2.461,2.519,5.094,4.859,7.943,6.935
			c1.303,0.957,2.645,1.854,3.986,2.753c2.249,1.488,4.623,2.773,7.059,3.927c1.486,0.707,2.999,1.35,4.525,1.951
			c1.175,0.476,2.385,0.863,3.586,1.266c0.777,0.253,1.561,0.457,2.35,0.678c1.363,0.371,2.729,0.75,4.104,1.092
			c0.698,0.152,1.422,0.229,2.131,0.352c0.646,0.094,1.286,0.215,1.933,0.312c1.054,0.175,2.106,0.366,3.171,0.489
			c1.043,0.107,2.095,0.205,3.141,0.229c1.87,0.038,3.752,0.027,5.623-0.013c1.258-0.022,2.521-0.095,3.781-0.191
			c0.976-0.091,1.943-0.233,2.917-0.354c0.521-0.073,1.051-0.159,1.58-0.245c0.736-0.104,1.483-0.175,2.209-0.336
			c1.017-0.23,2.021-0.508,3.032-0.763c1.086-0.28,2.167-0.563,3.242-0.86c0.755-0.221,1.505-0.449,2.252-0.707
			c0.693-0.239,1.387-0.481,2.075-0.747c0.793-0.304,1.586-0.624,2.365-0.96c1.199-0.511,2.433-0.946,3.564-1.575
			c2.196-1.215,4.448-2.33,6.537-3.736c2.011-1.37,4.023-2.715,5.865-4.292C117.205,125.829,117.751,125.409,118.624,125.579z"/>
	</g>
</g>
</svg>
