<?xml version="1.0" encoding="utf-8"?>
<!-- Generator: Adobe Illustrator 16.0.3, SVG Export Plug-In . SVG Version: 6.00 Build 0)  -->
<!DOCTYPE svg PUBLIC "-//W3C//DTD SVG 1.1//EN" "http://www.w3.org/Graphics/SVG/1.1/DTD/svg11.dtd">
<svg version="1.1" id="Layer_1" xmlns="http://www.w3.org/2000/svg" xmlns:xlink="http://www.w3.org/1999/xlink" x="0px" y="0px"
	 width="150px" height="150px" viewBox="0 0 150 150" enable-background="new 0 0 150 150" xml:space="preserve">
<g>
	<path fill="#F3726A" d="M117.014,1754.814c-0.445,0-0.885-0.037-1.314-0.111l1.314,3.105l1.315-3.105
		C117.898,1754.777,117.459,1754.814,117.014,1754.814z"/>
	<path fill="#F3726A" d="M134.908,1758.674c-1.596,0-2.895,1.297-2.895,2.893s1.299,2.895,2.895,2.895s2.895-1.299,2.895-2.895
		S136.504,1758.674,134.908,1758.674z M134.908,1762.531c-0.533,0-0.965-0.432-0.965-0.965s0.432-0.965,0.965-0.965
		s0.965,0.432,0.965,0.965S135.441,1762.531,134.908,1762.531z"/>
	<path fill="#F3726A" d="M123.268,1725.057c-13.808,0-25,11.191-25,25c0,13.805,11.192,25,25,25c13.807,0,25-11.195,25-25
		C148.268,1736.248,137.074,1725.057,123.268,1725.057z M134.908,1766.392c-2.66,0-4.824-2.164-4.824-4.825
		c0-2.328,1.66-4.277,3.859-4.727v-2.282c0-1.987-1.615-3.601-3.602-3.601c-1.985,0-3.602,1.613-3.602,3.601v6.616
		c0,2.947-2.397,5.345-5.346,5.345c-2.947,0-5.346-2.397-5.346-5.345v-0.696l-2.813-6.642c-0.313-0.174-0.618-0.371-0.909-0.592
		c-1.363-1.025-2.33-2.436-2.799-4.076l-2.561-8.96c-0.363-1.274-0.113-2.61,0.683-3.666c0.798-1.058,2.014-1.663,3.337-1.663h0.561
		v-0.321c0-0.533,0.433-0.965,0.965-0.965c0.533,0,0.965,0.432,0.965,0.965v2.571c0,0.533-0.432,0.965-0.965,0.965
		c-0.532,0-0.965-0.432-0.965-0.965v-0.321h-0.561c-0.712,0-1.367,0.327-1.797,0.896c-0.429,0.568-0.563,1.29-0.367,1.975
		l2.561,8.961c0.715,2.5,3.029,4.246,5.631,4.246c2.601,0,4.916-1.746,5.631-4.246l2.561-8.962c0.195-0.685,0.061-1.405-0.368-1.974
		s-1.083-0.896-1.797-0.896h-0.56v0.321c0,0.533-0.433,0.965-0.965,0.965c-0.533,0-0.965-0.432-0.965-0.965v-2.571
		c0-0.533,0.432-0.965,0.965-0.965c0.532,0,0.965,0.432,0.965,0.965v0.321h0.56c1.323,0,2.54,0.605,3.337,1.663
		c0.798,1.056,1.046,2.392,0.683,3.666l-2.56,8.96c-0.469,1.641-1.438,3.051-2.799,4.076c-0.291,0.221-0.596,0.418-0.909,0.592
		l-2.813,6.642v0.696c0,1.884,1.532,3.416,3.416,3.416c1.885,0,3.417-1.532,3.417-3.416v-6.616c0-3.049,2.481-5.53,5.53-5.53
		c3.05,0,5.531,2.481,5.531,5.53v2.282c2.199,0.449,3.857,2.398,3.857,4.727C139.73,1764.228,137.567,1766.392,134.908,1766.392z"/>
</g>
<g>
	<path fill="#F3726A" d="M117.014,1754.814c-0.445,0-0.885-0.037-1.314-0.111l1.314,3.105l1.315-3.105
		C117.898,1754.777,117.459,1754.814,117.014,1754.814z"/>
	<path fill="#F3726A" d="M134.908,1758.674c-1.596,0-2.895,1.297-2.895,2.893s1.299,2.895,2.895,2.895s2.895-1.299,2.895-2.895
		S136.504,1758.674,134.908,1758.674z M134.908,1762.531c-0.533,0-0.965-0.432-0.965-0.965s0.432-0.965,0.965-0.965
		s0.965,0.432,0.965,0.965S135.441,1762.531,134.908,1762.531z"/>
	<path fill="#F3726A" d="M123.268,1725.057c-13.808,0-25,11.191-25,25c0,13.805,11.192,25,25,25c13.807,0,25-11.195,25-25
		C148.268,1736.248,137.074,1725.057,123.268,1725.057z M134.908,1766.392c-2.66,0-4.824-2.164-4.824-4.825
		c0-2.328,1.66-4.277,3.859-4.727v-2.282c0-1.987-1.615-3.601-3.602-3.601c-1.985,0-3.602,1.613-3.602,3.601v6.616
		c0,2.947-2.397,5.345-5.346,5.345c-2.947,0-5.346-2.397-5.346-5.345v-0.696l-2.813-6.642c-0.313-0.174-0.618-0.371-0.909-0.592
		c-1.363-1.025-2.33-2.436-2.799-4.076l-2.561-8.96c-0.363-1.274-0.113-2.61,0.683-3.666c0.798-1.058,2.014-1.663,3.337-1.663h0.561
		v-0.321c0-0.533,0.433-0.965,0.965-0.965c0.533,0,0.965,0.432,0.965,0.965v2.571c0,0.533-0.432,0.965-0.965,0.965
		c-0.532,0-0.965-0.432-0.965-0.965v-0.321h-0.561c-0.712,0-1.367,0.327-1.797,0.896c-0.429,0.568-0.563,1.29-0.367,1.975
		l2.561,8.961c0.715,2.5,3.029,4.246,5.631,4.246c2.601,0,4.916-1.746,5.631-4.246l2.561-8.962c0.195-0.685,0.061-1.405-0.368-1.974
		s-1.083-0.896-1.797-0.896h-0.56v0.321c0,0.533-0.433,0.965-0.965,0.965c-0.533,0-0.965-0.432-0.965-0.965v-2.571
		c0-0.533,0.432-0.965,0.965-0.965c0.532,0,0.965,0.432,0.965,0.965v0.321h0.56c1.323,0,2.54,0.605,3.337,1.663
		c0.798,1.056,1.046,2.392,0.683,3.666l-2.56,8.96c-0.469,1.641-1.438,3.051-2.799,4.076c-0.291,0.221-0.596,0.418-0.909,0.592
		l-2.813,6.642v0.696c0,1.884,1.532,3.416,3.416,3.416c1.885,0,3.417-1.532,3.417-3.416v-6.616c0-3.049,2.481-5.53,5.53-5.53
		c3.05,0,5.531,2.481,5.531,5.53v2.282c2.199,0.449,3.857,2.398,3.857,4.727C139.73,1764.228,137.567,1766.392,134.908,1766.392z"/>
</g>
<g>
	<g>
		<path fill-rule="evenodd" clip-rule="evenodd" fill="#F3726A" d="M150.207,52.354c-0.978,4.3-3.895,7.248-6.891,10.229
			c-16.017,15.942-31.975,31.952-47.961,47.914c-4.819,4.822-11.395,5.732-16.821,2.37c-0.781-0.488-1.494-1.093-2.37-1.738
			c-0.354,0.333-0.741,0.672-1.107,1.039c-2.622,2.622-5.237,5.251-7.873,7.858c-2.228,2.201-4.707,2.201-6.935-0.02
			C50.098,109.865,39.95,99.718,29.812,89.563c-2.228-2.228-2.221-4.7-0.013-6.921c2.958-2.969,5.93-5.923,8.681-8.667
			c-1.087-2.18-2.418-4.075-2.989-6.161c-1.369-4.999-0.061-9.448,3.627-13.136c4.619-4.626,9.245-9.251,13.87-13.877
			C64.447,29.341,75.936,17.91,87.348,6.41c2.94-2.968,5.879-5.828,10.127-6.792c1.464,0,2.928,0,4.392,0
			c4.204,0.917,7.132,3.708,10.039,6.643c10.467,10.569,20.988,21.09,31.554,31.558c2.969,2.935,5.814,5.882,6.748,10.141
			C150.207,49.42,150.207,50.887,150.207,52.354z M54.339,51.607C69.083,66.36,83.51,80.794,98.001,95.289
			c0.313-0.299,0.666-0.625,1.006-0.958c13.469-13.469,26.932-26.932,40.4-40.401c2.633-2.629,2.649-4.945,0.034-7.553
			c-12.006-12.022-24.024-24.039-36.04-36.047c-2.544-2.547-4.888-2.527-7.451,0.034c-13.466,13.47-26.932,26.939-40.405,40.395
			C55.202,51.091,54.747,51.329,54.339,51.607z M47.968,58.229c-0.727,0.768-1.454,1.556-2.208,2.316
			c-2.615,2.635-2.622,4.938,0,7.56c11.214,11.222,22.429,22.436,33.646,33.649c1.002,0.999,1.973,2.031,3.012,2.989
			c1.767,1.63,4.212,1.698,5.978,0.156c1.135-0.992,2.167-2.086,3.165-3.057C77.013,87.294,62.565,72.84,47.968,58.229z
			 M39.257,86.024c8.185,8.198,16.411,16.424,24.5,24.521c1.892-1.868,3.885-3.852,5.763-5.72
			c-8.151-8.15-16.376-16.376-24.534-24.541C43.105,82.173,41.115,84.163,39.257,86.024z"/>
		<path fill-rule="evenodd" clip-rule="evenodd" fill="#F3726A" d="M30.383,149.614c-1.65-0.768-2.975-1.827-3.209-3.79
			c-0.278-2.343,1.158-4.408,3.379-4.918c2.085-0.481,4.279,0.7,5.074,2.73c0.815,2.1-0.021,4.32-2.058,5.469
			c-0.285,0.156-0.563,0.339-0.842,0.509C31.945,149.614,31.164,149.614,30.383,149.614z"/>
		<path fill-rule="evenodd" clip-rule="evenodd" fill="#F3726A" d="M0.208,117.1c0.17-0.285,0.35-0.558,0.509-0.85
			c1.036-1.827,3.04-2.737,4.915-2.234c2.072,0.563,3.389,2.282,3.355,4.381c-0.027,1.956-1.365,3.668-3.247,4.178
			c-1.983,0.529-4.031-0.395-5.046-2.262c-0.16-0.299-0.323-0.578-0.486-0.87C0.208,118.661,0.208,117.881,0.208,117.1z"/>
		<path fill-rule="evenodd" clip-rule="evenodd" fill="#F3726A" d="M22.701,113.88c-2.5-0.007-4.401-1.956-4.364-4.47
			c0.038-2.418,1.983-4.32,4.398-4.313c2.377,0.014,4.371,1.977,4.402,4.348C27.17,111.896,25.176,113.887,22.701,113.88z"/>
		<path fill-rule="evenodd" clip-rule="evenodd" fill="#F3726A" d="M40.344,131.485c-2.442,0.007-4.361-1.868-4.398-4.286
			c-0.038-2.492,1.902-4.503,4.361-4.51c2.432-0.014,4.442,2.024,4.422,4.47C44.701,129.577,42.775,131.472,40.344,131.485z"/>
		<path fill-rule="evenodd" clip-rule="evenodd" fill="#F3726A" d="M22.66,131.479c-2.432-0.021-4.316-1.929-4.32-4.367
			c-0.007-2.479,1.983-4.463,4.446-4.422c2.357,0.034,4.344,2.052,4.351,4.401C27.143,129.55,25.153,131.499,22.66,131.479z"/>
		<path fill-rule="evenodd" clip-rule="evenodd" fill="#F3726A" d="M9.822,144.371c-2.438,0-4.347-1.882-4.375-4.32
			c-0.023-2.486,1.936-4.483,4.395-4.477c2.36,0.014,4.367,1.997,4.401,4.354C14.285,142.395,12.308,144.371,9.822,144.371z"/>
	</g>
</g>
</svg>
