<?xml version="1.0" encoding="utf-8"?>
<!-- Generator: Adobe Illustrator 16.0.3, SVG Export Plug-In . SVG Version: 6.00 Build 0)  -->
<!DOCTYPE svg PUBLIC "-//W3C//DTD SVG 1.1//EN" "http://www.w3.org/Graphics/SVG/1.1/DTD/svg11.dtd">
<svg version="1.1" id="Layer_1" xmlns="http://www.w3.org/2000/svg" xmlns:xlink="http://www.w3.org/1999/xlink" x="0px" y="0px"
	 width="150px" height="150px" viewBox="0 0 150 150" enable-background="new 0 0 150 150" xml:space="preserve">
<g>
	<path fill="#F3726A" d="M117.014,1754.814c-0.445,0-0.885-0.037-1.313-0.111l1.313,3.104l1.315-3.104
		C117.898,1754.777,117.459,1754.814,117.014,1754.814z"/>
	<path fill="#F3726A" d="M134.908,1758.674c-1.596,0-2.895,1.297-2.895,2.893c0,1.597,1.299,2.896,2.895,2.896
		s2.895-1.299,2.895-2.896C137.803,1759.971,136.504,1758.674,134.908,1758.674z M134.908,1762.531
		c-0.533,0-0.965-0.433-0.965-0.965c0-0.533,0.432-0.965,0.965-0.965s0.965,0.432,0.965,0.965
		C135.873,1762.099,135.441,1762.531,134.908,1762.531z"/>
	<path fill="#F3726A" d="M123.268,1725.057c-13.808,0-25,11.191-25,25c0,13.806,11.192,25,25,25s25-11.194,25-25
		C148.268,1736.248,137.074,1725.057,123.268,1725.057z M134.908,1766.392c-2.66,0-4.824-2.163-4.824-4.824
		c0-2.328,1.66-4.277,3.859-4.728v-2.282c0-1.986-1.615-3.601-3.603-3.601c-1.985,0-3.603,1.613-3.603,3.601v6.616
		c0,2.947-2.396,5.345-5.346,5.345c-2.947,0-5.346-2.396-5.346-5.345v-0.696l-2.813-6.642c-0.313-0.174-0.618-0.371-0.909-0.592
		c-1.363-1.025-2.33-2.437-2.8-4.076l-2.561-8.96c-0.363-1.274-0.113-2.61,0.684-3.666c0.797-1.058,2.014-1.663,3.336-1.663h0.562
		v-0.321c0-0.532,0.433-0.965,0.965-0.965c0.533,0,0.966,0.433,0.966,0.965v2.571c0,0.533-0.433,0.965-0.966,0.965
		c-0.532,0-0.965-0.432-0.965-0.965v-0.321h-0.562c-0.711,0-1.366,0.327-1.797,0.896c-0.429,0.567-0.563,1.29-0.367,1.975
		l2.562,8.961c0.716,2.5,3.029,4.246,5.632,4.246c2.6,0,4.916-1.746,5.631-4.246l2.561-8.962c0.195-0.685,0.061-1.405-0.368-1.974
		c-0.429-0.569-1.083-0.896-1.797-0.896h-0.56v0.321c0,0.533-0.434,0.965-0.965,0.965c-0.533,0-0.966-0.432-0.966-0.965v-2.571
		c0-0.532,0.433-0.965,0.966-0.965c0.531,0,0.965,0.433,0.965,0.965v0.321h0.56c1.323,0,2.54,0.605,3.337,1.663
		c0.798,1.056,1.046,2.392,0.684,3.666l-2.561,8.96c-0.469,1.641-1.438,3.051-2.799,4.076c-0.291,0.221-0.596,0.418-0.909,0.592
		l-2.813,6.642v0.696c0,1.884,1.532,3.416,3.416,3.416c1.885,0,3.418-1.532,3.418-3.416v-6.616c0-3.049,2.48-5.529,5.529-5.529
		c3.051,0,5.531,2.48,5.531,5.529v2.282c2.199,0.449,3.857,2.398,3.857,4.728C139.73,1764.229,137.566,1766.392,134.908,1766.392z"
		/>
</g>
<g>
	<path fill="#F3726A" d="M117.014,1754.814c-0.445,0-0.885-0.037-1.313-0.111l1.313,3.104l1.315-3.104
		C117.898,1754.777,117.459,1754.814,117.014,1754.814z"/>
	<path fill="#F3726A" d="M134.908,1758.674c-1.596,0-2.895,1.297-2.895,2.893c0,1.597,1.299,2.896,2.895,2.896
		s2.895-1.299,2.895-2.896C137.803,1759.971,136.504,1758.674,134.908,1758.674z M134.908,1762.531
		c-0.533,0-0.965-0.433-0.965-0.965c0-0.533,0.432-0.965,0.965-0.965s0.965,0.432,0.965,0.965
		C135.873,1762.099,135.441,1762.531,134.908,1762.531z"/>
	<path fill="#F3726A" d="M123.268,1725.057c-13.808,0-25,11.191-25,25c0,13.806,11.192,25,25,25s25-11.194,25-25
		C148.268,1736.248,137.074,1725.057,123.268,1725.057z M134.908,1766.392c-2.66,0-4.824-2.163-4.824-4.824
		c0-2.328,1.66-4.277,3.859-4.728v-2.282c0-1.986-1.615-3.601-3.603-3.601c-1.985,0-3.603,1.613-3.603,3.601v6.616
		c0,2.947-2.396,5.345-5.346,5.345c-2.947,0-5.346-2.396-5.346-5.345v-0.696l-2.813-6.642c-0.313-0.174-0.618-0.371-0.909-0.592
		c-1.363-1.025-2.33-2.437-2.8-4.076l-2.561-8.96c-0.363-1.274-0.113-2.61,0.684-3.666c0.797-1.058,2.014-1.663,3.336-1.663h0.562
		v-0.321c0-0.532,0.433-0.965,0.965-0.965c0.533,0,0.966,0.433,0.966,0.965v2.571c0,0.533-0.433,0.965-0.966,0.965
		c-0.532,0-0.965-0.432-0.965-0.965v-0.321h-0.562c-0.711,0-1.366,0.327-1.797,0.896c-0.429,0.567-0.563,1.29-0.367,1.975
		l2.562,8.961c0.716,2.5,3.029,4.246,5.632,4.246c2.6,0,4.916-1.746,5.631-4.246l2.561-8.962c0.195-0.685,0.061-1.405-0.368-1.974
		c-0.429-0.569-1.083-0.896-1.797-0.896h-0.56v0.321c0,0.533-0.434,0.965-0.965,0.965c-0.533,0-0.966-0.432-0.966-0.965v-2.571
		c0-0.532,0.433-0.965,0.966-0.965c0.531,0,0.965,0.433,0.965,0.965v0.321h0.56c1.323,0,2.54,0.605,3.337,1.663
		c0.798,1.056,1.046,2.392,0.684,3.666l-2.561,8.96c-0.469,1.641-1.438,3.051-2.799,4.076c-0.291,0.221-0.596,0.418-0.909,0.592
		l-2.813,6.642v0.696c0,1.884,1.532,3.416,3.416,3.416c1.885,0,3.418-1.532,3.418-3.416v-6.616c0-3.049,2.48-5.529,5.529-5.529
		c3.051,0,5.531,2.48,5.531,5.529v2.282c2.199,0.449,3.857,2.398,3.857,4.728C139.73,1764.229,137.566,1766.392,134.908,1766.392z"
		/>
</g>
<g>
	<g>
		<path fill-rule="evenodd" clip-rule="evenodd" fill="#F3726A" d="M36.032,91.752c0.171-0.508,0.352-1.018,0.515-1.53
			c0.679-2.14,1.827-3.981,3.417-5.571C53.06,71.568,66.145,58.471,79.241,45.387c0.29-0.283,0.675-0.479,1.25-0.881
			c-0.968-0.871-1.711-1.476-2.375-2.158c-1.091-1.127-1.141-2.166-0.079-3.259c2.401-2.464,4.85-4.878,7.299-7.298
			c0.311-0.309,0.725-0.507,1.088-0.759c0.348,0,0.695,0,1.036,0c0.58,0.476,1.208,0.905,1.736,1.436
			c7.044,7.023,14.073,14.057,21.104,21.088c1.694,1.698,1.7,2.561,0.036,4.232c-2.14,2.147-4.279,4.287-6.427,6.424
			c-1.468,1.462-2.383,1.494-3.863,0.079c-0.617-0.594-1.156-1.264-1.764-1.925c-0.358,0.322-0.563,0.497-0.753,0.686
			c-8.318,8.315-16.637,16.639-24.957,24.959c-4.938,4.937-9.867,9.888-14.82,14.813c-6.947,6.9-18.475,3.897-21.224-5.517
			c-0.119-0.421-0.33-0.809-0.497-1.219C36.032,94.643,36.032,93.198,36.032,91.752z M89.037,65.34
			c-0.081-0.01-0.212-0.039-0.338-0.039c-7.606-0.013-15.21-0.026-22.818-0.005c-0.357,0-0.795,0.222-1.054,0.479
			c-7.453,7.445-14.898,14.892-22.316,22.359c-1.919,1.936-2.69,4.287-2.158,6.995c0.676,3.45,2.542,5.886,6.031,6.869
			c3.407,0.96,6.282,0.033,8.722-2.459c-1.675-2.124-1.916-3.011-0.978-3.942c0.338-0.337,0.948-0.761,1.312-0.661
			c0.975,0.256,1.883,0.771,2.787,1.169c0.493-0.479,1.122-1.091,1.959-1.899c-0.378-0.285-0.809-0.572-1.19-0.918
			c-0.382-0.34-0.732-0.725-1.074-1.111c-0.626-0.709-0.813-1.507-0.375-2.378c0.644-1.282,2.178-1.562,3.311-0.575
			c0.823,0.717,1.581,1.506,2.141,2.045c0.718-0.594,1.457-1.198,2.187-1.808c-1.792-1.847-2.045-2.796-1.075-3.884
			c0.946-1.064,1.985-0.869,3.99,0.711c0.674-0.628,1.338-1.245,2.062-1.922c-0.378-0.354-0.708-0.651-1.029-0.963
			c-0.323-0.314-0.642-0.628-0.948-0.952c-1.053-1.109-1.141-2.289-0.25-3.196c0.908-0.918,2.091-0.874,3.186,0.193
			c0.665,0.646,1.265,1.35,1.929,2.077c0.804-0.772,1.484-1.418,2.165-2.069c-1.709-1.685-2.056-2.802-1.131-3.812
			c0.326-0.355,0.931-0.805,1.286-0.714c1.007,0.254,1.949,0.77,2.854,1.153c0.516-0.499,1.141-1.111,1.98-1.933
			c-0.662-0.565-1.405-1.127-2.054-1.787c-1.018-1.033-1.067-2.237-0.223-3.107c0.855-0.882,2.074-0.871,3.115,0.123
			c0.686,0.662,1.261,1.444,1.857,2.137C85.09,69.311,87.046,67.339,89.037,65.34z M95.035,59.675
			c-4.068-4.065-8.041-8.041-11.787-11.79c-4.348,4.355-8.797,8.802-13.186,13.194c0.177,0,0.553,0,0.927,0
			c4.091,0,8.184-0.013,12.279,0c2.682,0.008,5.363,0.079,8.041,0.071C92.788,61.147,94.188,60.878,95.035,59.675z M82.673,40.616
			c6.432,6.429,12.916,12.914,19.263,19.254c1.417-1.347,2.924-2.78,4.334-4.125c-6.469-6.492-12.922-12.966-19.339-19.406
			C85.487,37.791,84.033,39.246,82.673,40.616z"/>
		<path fill-rule="evenodd" clip-rule="evenodd" fill="#F3726A" d="M99.23,110.342c-0.444-0.139-0.882-0.301-1.334-0.418
			c-6.327-1.591-10.259-8.996-6.707-15.258c2.155-3.796,4.839-7.17,7.85-10.299c1.028-1.062,2.237-1.057,3.255-0.005
			c2.777,2.877,5.205,6.017,7.357,9.391c4.892,7.69-0.784,15.629-7.167,16.411c-0.125,0.016-0.24,0.115-0.361,0.178
			C101.161,110.342,100.198,110.342,99.23,110.342z M100.683,88.801c-2.404,2.789-4.67,5.457-6.145,8.688
			c-0.55,1.208-0.642,2.43-0.291,3.714c1.008,3.686,4.957,5.778,8.627,4.539c3.553-1.201,5.423-5.146,3.846-8.491
			C105.247,94.132,102.997,91.519,100.683,88.801z"/>
		<path fill-rule="evenodd" clip-rule="evenodd" fill="#F3726A" d="M117.82,77.71c-0.17,0.262-0.395,0.505-0.502,0.79
			c-1.354,3.57-4.763,5.828-8.425,5.569c-3.796-0.272-6.898-3.016-7.665-6.816c-0.329-1.633-0.083-3.197,0.646-4.706
			c1.499-3.105,3.617-5.757,5.975-8.227c1.027-1.081,2.179-1.033,3.225,0.089c2.689,2.87,5.2,5.867,6.49,9.684
			c0.039,0.118,0.17,0.209,0.256,0.311C117.82,75.505,117.82,76.606,117.82,77.71z M109.67,68.864c-0.159,0-0.316,0-0.474-0.005
			c-1.224,1.933-2.558,3.803-3.636,5.813c-0.756,1.412,0.005,3.314,1.429,4.35c1.498,1.099,3.405,1.099,4.891,0
			c1.418-1.049,2.169-2.947,1.413-4.35C112.213,72.665,110.892,70.792,109.67,68.864z"/>
	</g>
	<path fill="#F3726A" d="M75.253,150.507c-41.355,0-75-33.644-75-74.999s33.644-75,75-75c41.356,0,75.001,33.644,75.001,75
		S116.609,150.507,75.253,150.507z M75.253,8.544c-36.924,0-66.964,30.04-66.964,66.964c0,36.924,30.04,66.964,66.964,66.964
		c36.926,0,66.965-30.04,66.965-66.964C142.218,38.583,112.179,8.544,75.253,8.544z"/>
</g>
</svg>
