<?xml version="1.0" encoding="utf-8"?>
<!-- Generator: Adobe Illustrator 16.0.3, SVG Export Plug-In . SVG Version: 6.00 Build 0)  -->
<!DOCTYPE svg PUBLIC "-//W3C//DTD SVG 1.1//EN" "http://www.w3.org/Graphics/SVG/1.1/DTD/svg11.dtd">
<svg version="1.1" id="Layer_1" xmlns="http://www.w3.org/2000/svg" xmlns:xlink="http://www.w3.org/1999/xlink" x="0px" y="0px"
	 width="150px" height="188.263px" viewBox="0 -18.292 150 188.263" enable-background="new 0 -18.292 150 188.263"
	 xml:space="preserve">
<g>
	<path fill="#F3726A" d="M117.014,1754.814c-0.445,0-0.885-0.037-1.313-0.111l1.313,3.104l1.315-3.104
		C117.898,1754.777,117.459,1754.814,117.014,1754.814z"/>
	<path fill="#F3726A" d="M134.908,1758.674c-1.596,0-2.895,1.297-2.895,2.893c0,1.598,1.299,2.896,2.895,2.896
		s2.895-1.299,2.895-2.896C137.803,1759.971,136.504,1758.674,134.908,1758.674z M134.908,1762.531
		c-0.533,0-0.965-0.434-0.965-0.965c0-0.533,0.432-0.965,0.965-0.965s0.965,0.432,0.965,0.965
		C135.873,1762.099,135.441,1762.531,134.908,1762.531z"/>
	<path fill="#F3726A" d="M123.268,1725.057c-13.808,0-25,11.191-25,25c0,13.807,11.192,25,25,25c13.809,0,25-11.193,25-25
		C148.268,1736.248,137.074,1725.057,123.268,1725.057z M134.908,1766.392c-2.66,0-4.824-2.163-4.824-4.823
		c0-2.328,1.66-4.277,3.859-4.729v-2.282c0-1.985-1.615-3.601-3.604-3.601c-1.984,0-3.604,1.613-3.604,3.601v6.616
		c0,2.947-2.396,5.345-5.346,5.345c-2.947,0-5.346-2.396-5.346-5.345v-0.696l-2.813-6.642c-0.313-0.174-0.619-0.371-0.91-0.592
		c-1.362-1.025-2.329-2.438-2.799-4.076l-2.562-8.96c-0.362-1.274-0.112-2.61,0.685-3.666c0.797-1.058,2.014-1.663,3.336-1.663
		h0.562v-0.321c0-0.532,0.433-0.965,0.965-0.965c0.533,0,0.966,0.433,0.966,0.965v2.571c0,0.533-0.433,0.965-0.966,0.965
		c-0.532,0-0.965-0.432-0.965-0.965v-0.321h-0.562c-0.711,0-1.366,0.327-1.797,0.896c-0.43,0.566-0.563,1.29-0.367,1.975
		l2.562,8.961c0.716,2.5,3.029,4.246,5.632,4.246c2.6,0,4.916-1.746,5.631-4.246l2.562-8.962c0.194-0.685,0.062-1.405-0.368-1.974
		c-0.429-0.569-1.083-0.896-1.797-0.896h-0.561v0.321c0,0.533-0.434,0.965-0.965,0.965c-0.533,0-0.966-0.432-0.966-0.965v-2.571
		c0-0.532,0.433-0.965,0.966-0.965c0.531,0,0.965,0.433,0.965,0.965v0.321h0.561c1.322,0,2.54,0.605,3.337,1.663
		c0.798,1.056,1.046,2.392,0.685,3.666l-2.562,8.96c-0.47,1.641-1.438,3.051-2.799,4.076c-0.291,0.221-0.597,0.418-0.909,0.592
		l-2.813,6.642v0.696c0,1.884,1.531,3.416,3.416,3.416s3.418-1.532,3.418-3.416v-6.616c0-3.049,2.479-5.528,5.528-5.528
		c3.052,0,5.531,2.479,5.531,5.528v2.282c2.198,0.449,3.856,2.398,3.856,4.729C139.73,1764.229,137.566,1766.392,134.908,1766.392z"
		/>
</g>
<g>
	<path fill="#F3726A" d="M117.014,1754.814c-0.445,0-0.885-0.037-1.313-0.111l1.313,3.104l1.315-3.104
		C117.898,1754.777,117.459,1754.814,117.014,1754.814z"/>
	<path fill="#F3726A" d="M134.908,1758.674c-1.596,0-2.895,1.297-2.895,2.893c0,1.598,1.299,2.896,2.895,2.896
		s2.895-1.299,2.895-2.896C137.803,1759.971,136.504,1758.674,134.908,1758.674z M134.908,1762.531
		c-0.533,0-0.965-0.434-0.965-0.965c0-0.533,0.432-0.965,0.965-0.965s0.965,0.432,0.965,0.965
		C135.873,1762.099,135.441,1762.531,134.908,1762.531z"/>
	<path fill="#F3726A" d="M123.268,1725.057c-13.808,0-25,11.191-25,25c0,13.807,11.192,25,25,25c13.809,0,25-11.193,25-25
		C148.268,1736.248,137.074,1725.057,123.268,1725.057z M134.908,1766.392c-2.66,0-4.824-2.163-4.824-4.823
		c0-2.328,1.66-4.277,3.859-4.729v-2.282c0-1.985-1.615-3.601-3.604-3.601c-1.984,0-3.604,1.613-3.604,3.601v6.616
		c0,2.947-2.396,5.345-5.346,5.345c-2.947,0-5.346-2.396-5.346-5.345v-0.696l-2.813-6.642c-0.313-0.174-0.619-0.371-0.91-0.592
		c-1.362-1.025-2.329-2.438-2.799-4.076l-2.562-8.96c-0.362-1.274-0.112-2.61,0.685-3.666c0.797-1.058,2.014-1.663,3.336-1.663
		h0.562v-0.321c0-0.532,0.433-0.965,0.965-0.965c0.533,0,0.966,0.433,0.966,0.965v2.571c0,0.533-0.433,0.965-0.966,0.965
		c-0.532,0-0.965-0.432-0.965-0.965v-0.321h-0.562c-0.711,0-1.366,0.327-1.797,0.896c-0.43,0.566-0.563,1.29-0.367,1.975
		l2.562,8.961c0.716,2.5,3.029,4.246,5.632,4.246c2.6,0,4.916-1.746,5.631-4.246l2.562-8.962c0.194-0.685,0.062-1.405-0.368-1.974
		c-0.429-0.569-1.083-0.896-1.797-0.896h-0.561v0.321c0,0.533-0.434,0.965-0.965,0.965c-0.533,0-0.966-0.432-0.966-0.965v-2.571
		c0-0.532,0.433-0.965,0.966-0.965c0.531,0,0.965,0.433,0.965,0.965v0.321h0.561c1.322,0,2.54,0.605,3.337,1.663
		c0.798,1.056,1.046,2.392,0.685,3.666l-2.562,8.96c-0.47,1.641-1.438,3.051-2.799,4.076c-0.291,0.221-0.597,0.418-0.909,0.592
		l-2.813,6.642v0.696c0,1.884,1.531,3.416,3.416,3.416s3.418-1.532,3.418-3.416v-6.616c0-3.049,2.479-5.528,5.528-5.528
		c3.052,0,5.531,2.479,5.531,5.528v2.282c2.198,0.449,3.856,2.398,3.856,4.729C139.73,1764.229,137.566,1766.392,134.908,1766.392z"
		/>
</g>
<g>
	<g>
		<g>
			<rect x="53.014" y="76.713" fill="#FBBF9E" width="39.57" height="45.387"/>
			<path fill="#F7996E" d="M53.014,105.266c30.536,0,40.521-16.211,40.521-16.211l-40.309-0.516
				C53.468,92.982,53.014,94.999,53.014,105.266z"/>
			<path fill="#263238" d="M30.533,50.024c-0.176-0.609-6.541-25.445,8.365-48.74C50.976-17.592,75.575-23.8,93.248-13.069
				c17.756,10.786,35.52,30.707,18.636,64.282L30.533,50.024z"/>
			<path fill="#263238" d="M41.579,22.439c0,0-9.884-4.747-20.981,0C9.5,27.18,1.417,47.394,6.392,66.265
				c4.973,18.871-11.807,19.188-4.039,34.323c2.754,5.37,39.226,9.934,40.473-10.969c0.771-12.95-10.954-13.59-7.536-27.665
				C38.708,47.884,41.579,22.439,41.579,22.439z"/>
			<path fill="#263238" d="M108.951,20.001c0,0,9.884-5.346,20.98,0c11.098,5.34,19.178,28.096,14.203,49.345
				C139.167,90.6,155.947,90.957,148.178,108c-2.756,6.044-39.227,11.188-40.476-12.352c-0.769-14.58,10.954-15.305,7.538-31.152
				C111.818,48.647,108.951,20.001,108.951,20.001z"/>
			<path fill="#FBBF9E" d="M110.831,55.469c0,22.477-16.772,40.7-37.462,40.7c-20.688,0-37.461-18.224-37.461-40.7
				c0-22.483,16.773-40.705,37.461-40.705C94.059,14.765,110.831,32.986,110.831,55.469z"/>
			<path fill="#263238" d="M72.768,15.24c0,0,9.964,26.753,42.985,38.059c13.129,4.493,6.36-38.763-21.08-48.483
				C67.242-4.909,43.832,0.357,28.704,24.128c-9.11,14.308,7.883,18.995,7.883,18.995S49.176,11.435,72.768,15.24z"/>
			<path fill="#F3725F" d="M123.794,163.884c-9.519,9.205-100.675,6.843-100.136,0.362c0.427-5.107-2.268,8.412,4.501-34.403
				c1.861-11.731-10.918-13.887,0.722-15.487c1.968-0.271,21.754-7.207,24.06-7.436c-0.492,5.266,7.514,10.666,16.58,12.465
				c12.066,2.389,22.394-5.936,23.106-11.128c9.448,1.992,14.941,2.726,22.438,5.892c8.229,3.488,13.129,12.134,11.936,21.076
				l-2.264,16.897C124.734,152.122,124.271,163.418,123.794,163.884z"/>
			<path fill="#F3725F" d="M1.046,153.729c0,0,17.53,16.31,44.558,13.777c0,0,13.318-47.199-8.039-52.996
				C16.204,108.713-1.445,136.689,1.046,153.729z"/>
			<path fill="#F3725F" d="M145.283,153.729c0,0-17.528,16.31-44.557,13.777c0,0-13.322-47.199,8.035-52.996
				C130.125,108.713,147.771,136.689,145.283,153.729z"/>
		</g>
		<g>
			<path fill="#263238" d="M57.203,40.086c0.589,0.04,1.183,0.064,1.775,0.119c2.174,0.193,4.204,0.867,6.121,1.887
				c1.063,0.565,1.505,1.566,1.159,2.537c-0.408,1.14-1.606,1.566-2.814,1.021c-0.706-0.322-1.397-0.689-2.124-0.946
				c-2.633-0.952-5.239-0.882-7.798,0.302c-0.576,0.272-1.166,0.505-1.751,0.748c-1.088,0.456-2.042,0.114-2.628-0.922
				c-0.061-0.104-0.129-0.208-0.195-0.312c-0.023-0.257-0.048-0.505-0.073-0.758c0.187-0.609,0.538-1.085,1.083-1.417
				c1.119-0.669,2.289-1.224,3.546-1.585c0.594-0.173,1.195-0.327,1.793-0.485C55.931,40.215,56.566,40.15,57.203,40.086z"/>
		</g>
		<path fill="#263238" d="M59.15,58.194c-2.689,0.084-5.019-1.516-5.386-4.414c-0.209-1.65,0.044-3.295,0.548-4.86
			c0.666-2.085,2.889-3.409,5.089-3.161c1.063,0.119,1.755,0.842,1.771,1.853c0.021,1.06-0.655,1.838-1.726,1.991
			c-0.264,0.035-0.529,0.075-0.79,0.124c-0.425,0.079-0.71,0.347-0.758,0.758c-0.112,0.937-0.199,1.873-0.245,2.814
			c-0.023,0.465,0.434,0.892,0.895,0.951c0.55,0.064,1.044-0.198,1.155-0.718c0.146-0.684,0.212-1.382,0.326-2.076
			c0.129-0.778,0.508-1.392,1.301-1.64c0.764-0.233,1.464-0.08,2.048,0.48c0.346,0.342,0.546,0.773,0.5,1.244
			c-0.124,1.278-0.234,2.571-0.723,3.775C62.393,57.183,60.92,58.041,59.15,58.194z"/>
		<path fill="#263238" d="M83.954,52.774c0.149-1.149,0.22-2.313,0.468-3.438c0.49-2.21,2.424-3.756,4.667-3.825
			c0.425-0.015,0.872,0.069,1.269,0.213c0.759,0.282,1.185,0.996,1.164,1.803c-0.02,0.758-0.476,1.417-1.222,1.685
			c-0.358,0.124-0.739,0.183-1.116,0.248c-0.556,0.089-0.912,0.372-0.977,0.956c-0.089,0.823-0.208,1.645-0.258,2.467
			c-0.039,0.629,0.41,1.135,0.967,1.179c0.574,0.055,1.068-0.317,1.184-0.951c0.103-0.575,0.135-1.164,0.213-1.749
			c0.125-0.951,0.729-1.66,1.543-1.828c1.06-0.223,2.127,0.372,2.232,1.437c0.193,1.957,0.063,3.909-1.417,5.435
			c-1.474,1.521-3.295,1.977-5.291,1.283c-2.019-0.698-3.099-2.224-3.354-4.335c-0.014-0.139-0.02-0.277-0.028-0.416
			c-0.003-0.055,0-0.104,0-0.159C83.98,52.779,83.969,52.779,83.954,52.774z"/>
	</g>
	<path fill="#263238" d="M74.489,73.086c3.785,0.055,7.291,1.075,10.568,2.883c1.393,0.773,1.812,2.041,1.193,3.28
		c-0.648,1.327-2.012,1.853-3.421,1.09c-5.546-2.991-11.041-3.008-16.589-0.005c-1.411,0.764-2.782,0.247-3.435-1.061
		c-0.619-1.244-0.218-2.518,1.173-3.291C67.248,74.152,70.755,73.146,74.489,73.086z"/>
	<g>
		<path fill="#263238" d="M89.971,40.547c-0.595,0-1.184-0.015-1.777-0.005c-2.186,0.049-4.256,0.58-6.232,1.476
			c-1.102,0.496-1.609,1.461-1.328,2.458c0.327,1.154,1.494,1.665,2.74,1.204c0.723-0.277,1.438-0.594,2.182-0.807
			c2.69-0.763,5.286-0.521,7.756,0.832c0.557,0.302,1.131,0.58,1.701,0.862c1.055,0.52,2.03,0.252,2.684-0.738
			c0.064-0.109,0.14-0.203,0.214-0.307c0.04-0.248,0.085-0.5,0.124-0.753c-0.145-0.614-0.461-1.114-0.985-1.476
			c-1.069-0.748-2.2-1.382-3.432-1.828c-0.582-0.208-1.171-0.401-1.759-0.6C91.229,40.76,90.6,40.651,89.971,40.547z"/>
	</g>
</g>
</svg>
