<?xml version="1.0" encoding="utf-8"?>
<!-- Generator: Adobe Illustrator 16.0.3, SVG Export Plug-In . SVG Version: 6.00 Build 0)  -->
<!DOCTYPE svg PUBLIC "-//W3C//DTD SVG 1.1//EN" "http://www.w3.org/Graphics/SVG/1.1/DTD/svg11.dtd">
<svg version="1.1" id="Layer_1" xmlns="http://www.w3.org/2000/svg" xmlns:xlink="http://www.w3.org/1999/xlink" x="0px" y="0px"
	 width="150px" height="150px" viewBox="0 0 150 150" enable-background="new 0 0 150 150" xml:space="preserve">
<g>
	<path fill="#F3726A" d="M117.014,1754.814c-0.445,0-0.885-0.037-1.313-0.111l1.313,3.104l1.315-3.104
		C117.898,1754.777,117.459,1754.814,117.014,1754.814z"/>
	<path fill="#F3726A" d="M134.908,1758.674c-1.596,0-2.895,1.297-2.895,2.893c0,1.597,1.299,2.896,2.895,2.896
		s2.895-1.299,2.895-2.896C137.803,1759.971,136.504,1758.674,134.908,1758.674z M134.908,1762.531
		c-0.533,0-0.965-0.433-0.965-0.965c0-0.533,0.432-0.965,0.965-0.965s0.965,0.432,0.965,0.965
		C135.873,1762.099,135.441,1762.531,134.908,1762.531z"/>
	<path fill="#F3726A" d="M123.268,1725.057c-13.808,0-25,11.191-25,25c0,13.806,11.192,25,25,25s25-11.194,25-25
		C148.268,1736.248,137.074,1725.057,123.268,1725.057z M134.908,1766.392c-2.66,0-4.824-2.163-4.824-4.824
		c0-2.328,1.66-4.277,3.859-4.728v-2.282c0-1.986-1.615-3.601-3.603-3.601c-1.985,0-3.603,1.613-3.603,3.601v6.616
		c0,2.947-2.396,5.345-5.346,5.345c-2.947,0-5.346-2.396-5.346-5.345v-0.696l-2.813-6.642c-0.313-0.174-0.618-0.371-0.909-0.592
		c-1.363-1.025-2.33-2.437-2.8-4.076l-2.561-8.96c-0.363-1.274-0.113-2.61,0.684-3.666c0.797-1.058,2.014-1.663,3.336-1.663h0.562
		v-0.321c0-0.532,0.433-0.965,0.965-0.965c0.533,0,0.966,0.433,0.966,0.965v2.571c0,0.533-0.433,0.965-0.966,0.965
		c-0.532,0-0.965-0.432-0.965-0.965v-0.321h-0.562c-0.711,0-1.366,0.327-1.797,0.896c-0.429,0.567-0.563,1.29-0.367,1.975
		l2.562,8.961c0.716,2.5,3.029,4.246,5.632,4.246c2.6,0,4.916-1.746,5.631-4.246l2.561-8.962c0.195-0.685,0.061-1.405-0.368-1.974
		c-0.429-0.569-1.083-0.896-1.797-0.896h-0.56v0.321c0,0.533-0.434,0.965-0.965,0.965c-0.533,0-0.966-0.432-0.966-0.965v-2.571
		c0-0.532,0.433-0.965,0.966-0.965c0.531,0,0.965,0.433,0.965,0.965v0.321h0.56c1.323,0,2.54,0.605,3.337,1.663
		c0.798,1.056,1.046,2.392,0.684,3.666l-2.561,8.96c-0.469,1.641-1.438,3.051-2.799,4.076c-0.291,0.221-0.596,0.418-0.909,0.592
		l-2.813,6.642v0.696c0,1.884,1.532,3.416,3.416,3.416c1.885,0,3.418-1.532,3.418-3.416v-6.616c0-3.049,2.48-5.529,5.529-5.529
		c3.051,0,5.531,2.48,5.531,5.529v2.282c2.199,0.449,3.857,2.398,3.857,4.728C139.73,1764.229,137.566,1766.392,134.908,1766.392z"
		/>
</g>
<g>
	<path fill="#F3726A" d="M117.014,1754.814c-0.445,0-0.885-0.037-1.313-0.111l1.313,3.104l1.315-3.104
		C117.898,1754.777,117.459,1754.814,117.014,1754.814z"/>
	<path fill="#F3726A" d="M134.908,1758.674c-1.596,0-2.895,1.297-2.895,2.893c0,1.597,1.299,2.896,2.895,2.896
		s2.895-1.299,2.895-2.896C137.803,1759.971,136.504,1758.674,134.908,1758.674z M134.908,1762.531
		c-0.533,0-0.965-0.433-0.965-0.965c0-0.533,0.432-0.965,0.965-0.965s0.965,0.432,0.965,0.965
		C135.873,1762.099,135.441,1762.531,134.908,1762.531z"/>
	<path fill="#F3726A" d="M123.268,1725.057c-13.808,0-25,11.191-25,25c0,13.806,11.192,25,25,25s25-11.194,25-25
		C148.268,1736.248,137.074,1725.057,123.268,1725.057z M134.908,1766.392c-2.66,0-4.824-2.163-4.824-4.824
		c0-2.328,1.66-4.277,3.859-4.728v-2.282c0-1.986-1.615-3.601-3.603-3.601c-1.985,0-3.603,1.613-3.603,3.601v6.616
		c0,2.947-2.396,5.345-5.346,5.345c-2.947,0-5.346-2.396-5.346-5.345v-0.696l-2.813-6.642c-0.313-0.174-0.618-0.371-0.909-0.592
		c-1.363-1.025-2.33-2.437-2.8-4.076l-2.561-8.96c-0.363-1.274-0.113-2.61,0.684-3.666c0.797-1.058,2.014-1.663,3.336-1.663h0.562
		v-0.321c0-0.532,0.433-0.965,0.965-0.965c0.533,0,0.966,0.433,0.966,0.965v2.571c0,0.533-0.433,0.965-0.966,0.965
		c-0.532,0-0.965-0.432-0.965-0.965v-0.321h-0.562c-0.711,0-1.366,0.327-1.797,0.896c-0.429,0.567-0.563,1.29-0.367,1.975
		l2.562,8.961c0.716,2.5,3.029,4.246,5.632,4.246c2.6,0,4.916-1.746,5.631-4.246l2.561-8.962c0.195-0.685,0.061-1.405-0.368-1.974
		c-0.429-0.569-1.083-0.896-1.797-0.896h-0.56v0.321c0,0.533-0.434,0.965-0.965,0.965c-0.533,0-0.966-0.432-0.966-0.965v-2.571
		c0-0.532,0.433-0.965,0.966-0.965c0.531,0,0.965,0.433,0.965,0.965v0.321h0.56c1.323,0,2.54,0.605,3.337,1.663
		c0.798,1.056,1.046,2.392,0.684,3.666l-2.561,8.96c-0.469,1.641-1.438,3.051-2.799,4.076c-0.291,0.221-0.596,0.418-0.909,0.592
		l-2.813,6.642v0.696c0,1.884,1.532,3.416,3.416,3.416c1.885,0,3.418-1.532,3.418-3.416v-6.616c0-3.049,2.48-5.529,5.529-5.529
		c3.051,0,5.531,2.48,5.531,5.529v2.282c2.199,0.449,3.857,2.398,3.857,4.728C139.73,1764.229,137.566,1766.392,134.908,1766.392z"
		/>
</g>
<g>
	<g>
		<circle fill="#F3726A" cx="107.237" cy="103.732" r="2.584"/>
		<path fill="#F3726A" d="M109.821,91.071v-6.115c0-8.167-6.646-14.811-14.815-14.811c-8.167,0-14.813,6.644-14.813,14.811v17.725
			c0,5.043-4.104,9.149-9.151,9.149c-5.047,0-9.151-4.106-9.151-9.149v-1.868l7.536-17.787c0.841-0.466,1.656-0.994,2.437-1.585
			c3.646-2.747,6.24-6.524,7.495-10.918l6.856-24.003c0.973-3.411,0.309-6.989-1.828-9.819c-2.135-2.831-5.394-4.452-8.938-4.452
			h-1.499v-0.863c0-1.428-1.159-2.584-2.585-2.584s-2.583,1.156-2.583,2.584v6.89c0,1.428,1.156,2.584,2.583,2.584
			s2.585-1.156,2.585-2.584v-0.863h1.499c1.912,0,3.665,0.879,4.813,2.401c1.147,1.522,1.509,3.453,0.985,5.284l-6.858,24.008
			c-1.913,6.697-8.117,11.374-15.083,11.374c-6.967,0-13.168-4.677-15.083-11.374l-6.857-24.002
			c-0.524-1.836-0.166-3.767,0.982-5.289c1.151-1.522,2.906-2.401,4.814-2.401h1.501v0.863c0,1.428,1.157,2.584,2.584,2.584
			c1.427,0,2.583-1.156,2.583-2.584v-6.89c0-1.428-1.156-2.584-2.583-2.584c-1.427,0-2.584,1.156-2.584,2.584v0.863h-1.501
			c-3.546,0-6.804,1.622-8.939,4.452c-2.133,2.83-2.8,6.409-1.827,9.819l6.858,24.003c1.255,4.394,3.845,8.171,7.494,10.918
			c0.781,0.591,1.596,1.119,2.437,1.585l7.538,17.787v1.868c0,7.895,6.423,14.318,14.319,14.318c7.896,0,14.317-6.424,14.317-14.318
			V84.956c0-5.321,4.329-9.643,9.647-9.643c5.32,0,9.646,4.321,9.646,9.643v6.115c-5.891,1.203-10.337,6.425-10.337,12.66
			c0,7.126,5.796,12.923,12.922,12.923c7.122,0,12.917-5.797,12.917-12.923C120.154,97.496,115.712,92.274,109.821,91.071z
			 M59.305,93.666l-3.522-8.318c1.152,0.199,2.328,0.299,3.521,0.299c1.193,0,2.37-0.1,3.525-0.299L59.305,93.666z M107.237,111.485
			c-4.274,0-7.754-3.479-7.754-7.754c0-4.273,3.479-7.747,7.754-7.747s7.753,3.474,7.753,7.747
			C114.99,108.006,111.512,111.485,107.237,111.485z"/>
		<path fill="#F3726A" d="M107.237,106.316c-1.429,0-2.585-1.156-2.585-2.585c0-1.428,1.156-2.584,2.585-2.584
			c1.428,0,2.584,1.156,2.584,2.584C109.821,105.16,108.665,106.316,107.237,106.316z"/>
	</g>
	<path fill="#F3726A" d="M75,150c-41.355,0-75-33.645-75-75S33.645,0,75,0s75,33.645,75,75S116.355,150,75,150z M75,8.036
		C38.076,8.036,8.036,38.076,8.036,75c0,36.925,30.04,66.964,66.964,66.964c36.925,0,66.964-30.039,66.964-66.964
		C141.964,38.076,111.925,8.036,75,8.036z"/>
</g>
</svg>
