<?xml version="1.0" encoding="utf-8"?>
<!-- Generator: Adobe Illustrator 16.0.3, SVG Export Plug-In . SVG Version: 6.00 Build 0)  -->
<!DOCTYPE svg PUBLIC "-//W3C//DTD SVG 1.1//EN" "http://www.w3.org/Graphics/SVG/1.1/DTD/svg11.dtd">
<svg version="1.1" id="Layer_1" xmlns="http://www.w3.org/2000/svg" xmlns:xlink="http://www.w3.org/1999/xlink" x="0px" y="0px"
	 width="549.999px" height="435.396px" viewBox="-25.21 -18.208 549.999 435.396"
	 enable-background="new -25.21 -18.208 549.999 435.396" xml:space="preserve">
<g>
	<g>
		<g>
			<g>
				<g>
					<g>
						<path fill="#E0E0E0" d="M1.71,294.535c-4.552-2.857-9.765-4.651-15.109-5.199c-2.468-0.252-5.167-0.182-7.145,1.313
							c-0.422,0.316-0.831,0.787-0.738,1.306c0.071,0.382,0.392,0.66,0.699,0.896C-14.435,297.536-5.135,298.127,1.71,294.535"/>
					</g>
				</g>
				<g>
					<g>
						<path fill="#E0E0E0" d="M1.323,294.109c-3.421-2.674-6.86-5.356-9.759-8.586c-2.897-3.231-5.251-7.063-6.117-11.313
							c-0.263-1.29-0.344-2.767,0.483-3.786C-6.292,276.497-0.183,284.354,1.323,294.109"/>
					</g>
				</g>
				<g>
					<g>
						<path fill="#E0E0E0" d="M1.63,294.475c-0.587-4.254-0.797-8.625,0.182-12.809c0.976-4.188,3.25-8.186,6.822-10.572
							c1.344,3.143,0.767,6.762-0.179,10.045c-1.464,5.073-3.761,9.905-6.767,14.243"/>
					</g>
				</g>
				<g>
					<g>
						<path fill="#E0E0E0" d="M9.254,308.139c-4.629,0.564-8.66,3.004-12.117,6.135c-3.456,3.125-5.911,7.344-6.93,11.895
							c4.54-0.284,8.392-3.484,11.185-7.072c2.795-3.59,4.729-7.529,7.798-10.885"/>
					</g>
				</g>
				<g>
					<g>
						<path fill="#E0E0E0" d="M10.909,310.323c-3.728-9.185-2.376-20.248,3.45-28.265C16.997,291.436,16.028,302.033,10.909,310.323
							"/>
					</g>
				</g>
				<g>
					<g>
						<path fill="#E0E0E0" d="M20.983,322.32c-4.198-0.258-8.47,0.74-12.119,2.84c-3.646,2.1-6.658,5.289-8.542,9.052
							c-0.256,0.511-0.481,1.163-0.14,1.621c0.298,0.397,0.873,0.435,1.372,0.401c4.072-0.264,7.68-2.713,10.658-5.5
							c2.978-2.791,5.572-6.012,8.862-8.428"/>
					</g>
				</g>
				<g>
					<g>
						<path fill="#E0E0E0" d="M20.661,321.667c-2.166-6.933-2.302-14.487-0.385-21.494c0.759-2.767,2.028-5.681,4.587-6.978
							c0.22-0.113,0.475-0.211,0.702-0.121c0.217,0.082,0.345,0.304,0.444,0.51c0.909,1.904,1.174,4.064,1.082,6.169
							c-0.094,2.106-0.53,4.181-0.966,6.244c-0.806,3.813-1.236,7.914-3.328,11.205c-0.496,0.782-0.933,1.626-1.33,2.459
							c-0.397,0.838-0.4,1.13-0.763,1.797"/>
					</g>
				</g>
				<g>
					<g>
						<path fill="#E0E0E0" d="M47.331,325.639c-1.977-7.514,0.121-16.625,4.854-22.787c0.351-0.451,0.813-0.938,1.381-0.889
							c0.873,0.084,1.099,1.245,1.06,2.123C54.284,311.764,51.723,319.332,47.331,325.639"/>
					</g>
				</g>
				<g>
					<g>
						<path fill="#E0E0E0" d="M49.734,327.281c9.13,2.378,19.605,0.068,27.2-5.526c-4.501-2.282-9.805-2.937-14.724-1.812
							S52.795,323.273,49.734,327.281"/>
					</g>
				</g>
				<g>
					<g>
						<path fill="#E0E0E0" d="M51.762,322.281c5.114-8.34,14.918-13.782,24.686-14.277c-1.126,3.977-4.393,7.063-8.073,8.93
							c-3.687,1.863-7.797,2.676-11.851,3.465C54.947,320.706,52.783,321.04,51.762,322.281"/>
					</g>
				</g>
				<g>
					<g>
						<path fill="#E0E0E0" d="M47.837,298c1.386-4.745,2.778-9.532,3.157-14.459c0.383-4.93-0.321-10.072-2.877-14.301
							c-4.777,9.242-5.261,20.045-0.424,29.25"/>
					</g>
				</g>
				<g>
					<g>
						<path fill="#E0E0E0" d="M63.918,289.866c5.587-10.151,16.982-18.259,28.514-19.396
							C87.986,281.548,75.854,290.109,63.918,289.866"/>
					</g>
				</g>
				<g>
					<g>
						<path fill="#E0E0E0" d="M60.405,291.861c8.33,1.269,15.431,6.589,23.215,9.813c1.664,0.69,3.459,1.239,5.248,1.005
							c1.786-0.234,3.55-1.434,3.95-3.191c0.333-1.457-0.332-3.004-1.379-4.075c-1.046-1.07-2.429-1.737-3.812-2.312
							c-8.479-3.529-17.571-3.619-26.504-1.479"/>
					</g>
				</g>
				<g>
					<g>
						<path fill="#E0E0E0" d="M55.583,297.703c1.887,0.54,2.532,1.516,4.023,2.787c5.067,4.314,11.145,7.436,17.604,9.042
							c0.673,0.167,1.555,0.233,1.889-0.372c0.292-0.532-0.078-1.174-0.455-1.646c-2.706-3.388-6.566-5.703-10.629-7.213
							c-4.061-1.514-7.583-3.34-12.432-2.949"/>
					</g>
				</g>
				<g>
					<g>
						<path fill="#E0E0E0" d="M50.143,262.412c6.774,6.322,16.316,9.568,25.542,8.689c0.42-0.041,0.877-0.106,1.163-0.418
							c0.645-0.703-0.128-1.779-0.876-2.363C68.461,262.463,59.365,260.039,50.143,262.412"/>
					</g>
				</g>
				<g>
					<g>
						<path fill="#E0E0E0" d="M56.595,260.051c8.954-6.714,21.232-8.738,31.869-5.259c-4.013,3.958-9.581,6.085-15.187,6.669
							C67.673,262.041,62.06,261.422,56.595,260.051"/>
					</g>
				</g>
				<g>
					<g>
						<path fill="#E0E0E0" d="M54.031,243.835c-0.735-7.496-0.259-13.411-0.778-20.94c-0.043-0.604-0.172-1.328-0.735-1.539
							c-0.782-0.305-1.437,0.658-1.694,1.457c-2.231,6.944-1.012,14.905,3.196,20.857"/>
					</g>
				</g>
				<g>
					<g>
						<path fill="#E0E0E0" d="M53.491,244.666c5.079-3.145,8.891-7.247,12.417-12.068c2.451-3.355,4.519-7.375,3.962-11.494
							c-3.444-0.067-6.717,1.83-8.956,4.448c-2.24,2.615-3.571,5.888-4.564,9.187C55.355,238.033,54.658,241.422,53.491,244.666"/>
					</g>
				</g>
				<g>
					<g>
						<path fill="#E0E0E0" d="M65.69,241.275c11.149-4.125,21.549-10.256,30.556-18.017c-3.651-1.472-7.83-0.592-11.479,0.884
							c-8.337,3.364-15.147,9.045-19.236,17.053"/>
					</g>
				</g>
				<g>
					<g>
						<path fill="#E0E0E0" d="M56.921,248.764c5.641,0.616,11.37,1.019,16.965,0.084c5.501-0.922,10.699-3.101,15.839-5.263
							c0.427-0.181,0.89-0.396,1.076-0.817c0.203-0.459-0.012-1.021-0.385-1.354c-0.372-0.338-0.868-0.499-1.35-0.635
							c-5.589-1.563-11.621-0.831-17.117,1.023C66.451,243.657,61.943,245.859,56.921,248.764"/>
					</g>
				</g>
				<g>
					<g>
						<path fill="#E0E0E0" d="M24.715,262.668c-3.848-7.77-3.598-16.83-0.275-24.84c2.339,3.566,2.625,8.109,2.198,12.352
							c-0.427,4.244-1.718,8.612-1.804,12.875"/>
					</g>
				</g>
				<g>
					<g>
						<path fill="#E0E0E0" d="M9.342,254.916c-9.608-0.184-19.219,3.91-25.743,10.967c4.796,0.753,9.734-0.482,14.094-2.615
							c4.363-2.127,8.241-5.117,12.082-8.086"/>
					</g>
				</g>
				<g>
					<g>
						<path fill="#E0E0E0" d="M-0.991,251.457c-4.702-0.381-9.225-0.963-13.744,0.424c-4.52,1.385-8.633,4.527-10.475,8.88
							c4.397,0.495,8.854-0.606,12.883-2.434C-8.296,256.504-4.632,253.975-0.991,251.457"/>
					</g>
				</g>
				<g>
					<g>
						<path fill="#E0E0E0" d="M14.311,251.618c-4.229-2.772-8.57-5.595-13.496-6.74c-4.922-1.147-10.628-0.301-14.062,3.41
							c3.984,2.341,8.822,2.614,13.441,2.612c4.621-0.004,10.286-0.055,14.642,1.486"/>
					</g>
				</g>
				<g>
					<g>
						<path fill="#E0E0E0" d="M14.333,251.838c-7.229-7.097-9.97-19.85-7.062-29.554C12.956,230.92,15.501,241.57,14.333,251.838"/>
					</g>
				</g>
				<g>
					<g>
						<path fill="#E0E0E0" d="M34.211,231.727c1.363-3.168,2.323-6.494,3.544-9.72c1.224-3.229,2.745-6.401,5.056-8.965
							c2.313-2.56,5.505-4.467,8.953-4.642c-2.157,9.77-8.645,18.498-17.375,23.377"/>
					</g>
				</g>
				<g>
					<g>
						<path fill="#E0E0E0" d="M30.616,235.916c-2.259-3.105-4.864-7.316-7.924-9.637c-3.06-2.318-7.043-3.719-10.776-2.829
							C15.712,230.236,22.888,235.023,30.616,235.916"/>
					</g>
				</g>
				<g>
					<g>
						<path fill="#E0E0E0" d="M31.334,231.986c-1.479-3.758-2.968-7.555-3.567-11.549c-0.597-3.994-0.232-8.258,1.81-11.742
							c3.968,7.5,5.246,15.554,1.961,23.378"/>
					</g>
				</g>
				<g>
					<g>
						<path fill="#E0E0E0" d="M34.247,208.695c2.247-7.438,9.058-12.911,16.408-15.422c0.928-0.316,1.909-0.582,2.879-0.432
							c0.967,0.149,1.915,0.813,2.118,1.77c0.27,1.266-0.775,2.399-1.759,3.239C48.168,202.741,41.44,206.457,34.247,208.695"/>
					</g>
				</g>
				<g>
					<g>
						<path fill="#E0E0E0" d="M34.33,202.615c0.285-4.795,0.584-9.658,2.144-14.201s4.565-8.805,8.936-10.792
							c0.744,4.841-1.393,9.659-3.969,13.828c-2.577,4.166-5.683,8.097-7.229,12.745"/>
					</g>
				</g>
				<g>
					<g>
						<path fill="#E0E0E0" d="M34.211,205.913c-1.857-5.417-2.048-12.302-5.294-17.025c-2.27-3.299-5.899-5.547-7.855-9.041
							c-1.298,3.264-0.9,7.025,0.457,10.265c1.359,3.239,3.601,6.029,6.004,8.594C29.922,201.27,31.98,203.198,34.211,205.913"/>
					</g>
				</g>
				<g>
					<g>
						<g>
							<path fill="#E0E0E0" d="M34.247,365.499c-0.144,0-0.269-36.147-0.278-80.731c-0.011-44.601,0.101-80.744,0.243-80.744
								c0.144,0,0.27,36.145,0.28,80.744C34.5,329.352,34.392,365.499,34.247,365.499z"/>
						</g>
					</g>
				</g>
				<g>
					<g>
						<g>
							<path fill="#E0E0E0" d="M65.84,257.214c0.008,0.036-0.477,0.216-1.36,0.511c-0.977,0.328-2.231,0.752-3.741,1.262
								c-3.152,1.074-7.485,2.63-12.188,4.559c-4.657,1.996-9.048,3.617-11.548,5.786c-1.251,1.069-1.968,2.226-2.321,3.069
								c-0.356,0.849-0.421,1.367-0.471,1.357c-0.019-0.002-0.012-0.133,0.016-0.379c0.04-0.245,0.105-0.607,0.267-1.055
								c0.305-0.895,1.002-2.129,2.265-3.272c1.256-1.145,3.006-2.176,5.011-3.112c2.003-0.937,4.227-1.91,6.584-2.879
								c4.717-1.935,9.083-3.44,12.272-4.425c1.594-0.497,2.895-0.866,3.796-1.104C65.326,257.293,65.83,257.178,65.84,257.214z"/>
						</g>
					</g>
				</g>
				<g>
					<g>
						<g>
							<path fill="#E0E0E0" d="M76.195,231.779c0.012,0.014-0.119,0.152-0.382,0.406c-0.308,0.289-0.69,0.648-1.159,1.09
								c-1.076,0.981-2.544,2.31-4.329,3.935c-3.741,3.327-8.813,7.845-14.415,12.833c-5.629,5.009-10.49,9.794-13.859,13.398
								c-1.688,1.798-3.015,3.287-3.923,4.332c-0.422,0.48-0.769,0.875-1.046,1.194c-0.243,0.271-0.377,0.407-0.393,0.396
								c-0.016-0.013,0.094-0.171,0.31-0.466c0.219-0.285,0.537-0.721,0.973-1.258c0.862-1.084,2.15-2.615,3.809-4.453
								c3.309-3.674,8.145-8.518,13.781-13.533c5.646-4.998,10.784-9.486,14.518-12.723c1.833-1.574,3.335-2.861,4.44-3.812
								c0.495-0.41,0.9-0.743,1.227-1.017C76.028,231.877,76.181,231.766,76.195,231.779z"/>
						</g>
					</g>
				</g>
				<g>
					<g>
						<g>
							<path fill="#E0E0E0" d="M49.835,255.137c-0.147-0.066,1.026-2.781,2.195-6.215c1.187-3.428,1.739-6.324,1.891-6.303
								c0.136,0.015-0.196,2.998-1.395,6.471c-0.588,1.737-1.237,3.262-1.75,4.346C50.266,254.518,49.899,255.163,49.835,255.137z"
								/>
						</g>
					</g>
				</g>
				<g>
					<g>
						<g>
							<path fill="#E0E0E0" d="M34.28,277.016c-0.027,0.021-0.337-0.336-0.866-1.008c-0.589-0.753-1.333-1.707-2.222-2.847
								c-1.867-2.41-4.444-5.74-7.337-9.384c-2.893-3.646-5.549-6.912-7.476-9.275c-0.905-1.124-1.667-2.066-2.268-2.813
								c-0.531-0.664-0.812-1.049-0.784-1.07c0.027-0.023,0.359,0.311,0.938,0.939c0.577,0.627,1.398,1.551,2.397,2.705
								c1.999,2.307,4.705,5.541,7.601,9.188c2.896,3.646,5.43,7.017,7.222,9.487c0.896,1.23,1.609,2.24,2.09,2.947
								C34.057,276.596,34.311,276.991,34.28,277.016z"/>
						</g>
					</g>
				</g>
				<g>
					<g>
						<g>
							<path fill="#E0E0E0" d="M27.356,268.125c-0.085,0.091-1.934-2.102-2.902-5.436c-0.716-2.348-0.746-4.494-0.659-5.477
								l0.23,0.02c-0.104,0.416-0.178,0.638-0.221,0.631c-0.04-0.004-0.043-0.238-0.008-0.67l0.23,0.021
								c0.086,0.977,0.232,3.047,0.927,5.329C25.887,265.77,27.496,268.035,27.356,268.125z"/>
						</g>
					</g>
				</g>
				<g>
					<g>
						<g>
							<path fill="#E0E0E0" d="M18.41,256.873c-0.067,0.072-0.661-0.675-2.025-1.178c-1.353-0.523-3.39-0.637-5.626-0.447
								c-2.235,0.166-4.232,0.566-5.662,0.916c-1.431,0.355-2.306,0.634-2.333,0.559c-0.022-0.063,0.811-0.464,2.233-0.914
								c1.421-0.447,3.444-0.914,5.725-1.078c2.26-0.196,4.404-0.022,5.803,0.623C17.942,255.982,18.458,256.861,18.41,256.873z"/>
						</g>
					</g>
				</g>
				<g>
					<g>
						<g>
							<path fill="#E0E0E0" d="M16.292,254.148c-0.041,0.082-1.182-0.474-3.104-1.131c-1.92-0.658-4.654-1.353-7.744-1.592
								c-3.09-0.23-5.899,0.041-7.897,0.398c-2.001,0.357-3.212,0.732-3.239,0.646c-0.009-0.035,0.281-0.158,0.822-0.348
								c0.54-0.204,1.342-0.434,2.347-0.66c2.001-0.462,4.861-0.796,8.009-0.563c3.145,0.246,5.919,1.012,7.831,1.77
								c0.958,0.377,1.717,0.727,2.219,1.004C16.038,253.948,16.309,254.115,16.292,254.148z"/>
						</g>
					</g>
				</g>
				<g>
					<g>
						<g>
							
								<ellipse transform="matrix(-0.2454 -0.9694 0.9694 -0.2454 -187.4014 323.5014)" fill="#E0E0E0" cx="32.206" cy="234.688" rx="8.178" ry="0.261"/>
						</g>
					</g>
				</g>
				<g>
					<g>
						<g>
							<path fill="#E0E0E0" d="M34.355,242.619c-0.154,0.052-0.807-2.303-2.508-4.706c-1.657-2.456-3.771-3.69-3.693-3.812
								c0.028-0.058,0.609,0.158,1.426,0.734c0.813,0.566,1.823,1.529,2.693,2.773C34.04,240.115,34.483,242.611,34.355,242.619z"/>
						</g>
					</g>
				</g>
				<g>
					<g>
						<g>
							<path fill="#E0E0E0" d="M34.247,346.232c-0.056,0.006-0.162-0.868-0.568-2.407c-0.403-1.531-1.162-3.71-2.416-6.257
								c-2.498-5.104-7.043-11.572-12.817-18.055c-2.861-3.27-5.64-6.354-7.995-9.306c-2.359-2.952-4.3-5.763-5.716-8.246
								c-1.421-2.487-2.346-4.614-2.885-6.118c-0.267-0.754-0.46-1.341-0.567-1.75c-0.114-0.404-0.165-0.619-0.148-0.625
								c0.046-0.014,0.309,0.827,0.904,2.303c0.596,1.475,1.564,3.563,3.015,6.004c1.446,2.445,3.403,5.213,5.773,8.125
								c2.366,2.928,5.146,5.992,8.013,9.271c5.791,6.498,10.325,13.052,12.757,18.237c1.223,2.591,1.935,4.809,2.28,6.371
								c0.168,0.787,0.281,1.396,0.32,1.814C34.247,346.009,34.266,346.229,34.247,346.232z"/>
						</g>
					</g>
				</g>
				<g>
					<g>
						<g>
							<path fill="#E0E0E0" d="M62.795,313.986c0.016,0.037-0.53,0.314-1.498,0.842c-0.959,0.539-2.321,1.37-3.88,2.564
								c-1.562,1.194-3.303,2.764-5.097,4.648c-1.788,1.889-3.633,4.085-5.511,6.438c-3.761,4.717-7.277,8.892-9.384,12.225
								c-1.068,1.65-1.847,3.047-2.354,4.021c-0.512,0.978-0.786,1.525-0.824,1.51c-0.017-0.01,0.032-0.155,0.14-0.426
								c0.111-0.271,0.262-0.674,0.501-1.172c0.456-1.008,1.19-2.439,2.227-4.131c2.046-3.415,5.534-7.646,9.287-12.355
								c1.884-2.355,3.75-4.555,5.572-6.441c1.828-1.883,3.616-3.441,5.223-4.609c1.605-1.17,3.014-1.963,4.009-2.449
								c0.495-0.25,0.899-0.398,1.167-0.518C62.643,314.02,62.787,313.969,62.795,313.986z"/>
						</g>
					</g>
				</g>
				<g>
					<g>
						<g>
							<path fill="#E0E0E0" d="M63.354,324.448c0.005,0.073-1.209,0.22-3.163,0.458c-1.946,0.253-4.658,0.576-7.5,1.479
								c-2.83,0.924-5.182,2.323-6.714,3.523c-1.549,1.195-2.277,2.184-2.348,2.129c-0.025-0.021,0.125-0.289,0.467-0.729
								c0.338-0.443,0.892-1.033,1.647-1.687c1.507-1.3,3.883-2.788,6.787-3.738c2.91-0.916,5.659-1.185,7.622-1.345
								C62.128,324.396,63.348,324.377,63.354,324.448z"/>
						</g>
					</g>
				</g>
				<g>
					<g>
						<g>
							<path fill="#E0E0E0" d="M44.55,330.887c-0.166-0.094,1.258-2.269,2.364-5.199c1.037-2.955,1.282-5.545,1.466-5.518
								c0.069,0.01,0.064,0.658-0.052,1.693c-0.123,1.041-0.374,2.481-0.923,4.002c-0.552,1.517-1.275,2.779-1.834,3.664
								C45.01,330.415,44.608,330.922,44.55,330.887z"/>
						</g>
					</g>
				</g>
				<g>
					<g>
						<g>
							<path fill="#E0E0E0" d="M72.04,285.902c0.006,0.02-0.167,0.111-0.507,0.271c-0.393,0.179-0.884,0.404-1.484,0.675
								c-0.651,0.282-1.443,0.633-2.333,1.104c-0.895,0.459-1.937,0.937-3.023,1.587c-0.55,0.313-1.125,0.643-1.722,0.98
								c-0.599,0.344-1.19,0.754-1.821,1.148c-1.271,0.77-2.545,1.721-3.905,2.691c-2.661,2.017-5.457,4.41-8.15,7.168
								c-2.669,2.791-4.964,5.664-6.89,8.395c-0.926,1.396-1.831,2.703-2.56,3.995c-0.372,0.646-0.76,1.251-1.083,1.858
								c-0.317,0.61-0.626,1.199-0.921,1.761c-0.614,1.104-1.052,2.164-1.483,3.071c-0.438,0.908-0.766,1.707-1.022,2.367
								c-0.253,0.612-0.46,1.11-0.624,1.508c-0.149,0.34-0.235,0.525-0.251,0.516c-0.018-0.006,0.034-0.193,0.151-0.55
								c0.143-0.409,0.316-0.921,0.534-1.544c0.229-0.676,0.529-1.49,0.944-2.41c0.406-0.924,0.823-2.001,1.421-3.124
								c0.286-0.571,0.584-1.167,0.896-1.784c0.316-0.617,0.696-1.234,1.064-1.886c0.716-1.315,1.614-2.644,2.534-4.05
								c1.918-2.767,4.221-5.676,6.911-8.483c2.714-2.784,5.545-5.185,8.24-7.192c1.378-0.969,2.671-1.91,3.961-2.674
								c0.639-0.388,1.241-0.792,1.848-1.128c0.607-0.333,1.191-0.651,1.752-0.96c1.104-0.631,2.163-1.089,3.072-1.523
								c0.907-0.445,1.711-0.777,2.376-1.026c0.619-0.238,1.124-0.431,1.529-0.584C71.846,285.948,72.034,285.889,72.04,285.902z"/>
						</g>
					</g>
				</g>
				<g>
					<g>
						<g>
							<path fill="#E0E0E0" d="M49.447,301.042c-0.046-0.009,0.206-0.882,1.243-1.851c1.012-0.961,2.857-1.856,5.005-1.92
								c2.143-0.056,3.999,0.541,5.268,1.03c1.275,0.498,2.016,0.902,1.992,0.966c-0.03,0.073-0.825-0.211-2.112-0.617
								c-1.286-0.396-3.101-0.912-5.132-0.857c-2.021,0.064-3.769,0.843-4.781,1.68C49.896,300.307,49.53,301.096,49.447,301.042z"
								/>
						</g>
					</g>
				</g>
				<g>
					<g>
						<g>
							<path fill="#E0E0E0" d="M46.071,304.525c-0.143-0.077,1.132-1.946,1.422-4.623c0.333-2.672-0.478-4.782-0.319-4.825
								c0.059-0.022,0.342,0.466,0.588,1.344c0.248,0.877,0.41,2.151,0.251,3.547c-0.165,1.386-0.617,2.589-1.059,3.384
								C46.51,304.15,46.122,304.564,46.071,304.525z"/>
						</g>
					</g>
				</g>
			</g>
			<g>
				<g>
					<path fill="#E0E0E0" d="M9.279,351.414c0.78,13.813,4.944,27.863,11.347,42.066H48.47c6.107-14.063,9.983-28.094,10.673-42.066
						H9.279z"/>
				</g>
			</g>
			<g>
				<g>
					<g>
						<path fill="#FAFBFB" d="M54.631,373.768c0,0.144-9.168,0.258-20.478,0.258c-11.311,0-20.478-0.114-20.478-0.258
							c0-0.147,9.167-0.263,20.478-0.263C45.462,373.505,54.631,373.619,54.631,373.768z"/>
					</g>
				</g>
			</g>
			<g>
				<g>
					<g>
						<path fill="#FAFBFB" d="M54.007,378.768c0,0.147-8.594,0.267-19.195,0.267c-10.603,0-19.194-0.118-19.194-0.267
							c0-0.142,8.592-0.26,19.194-0.26C45.413,378.507,54.007,378.626,54.007,378.768z"/>
					</g>
				</g>
			</g>
			<g>
				<g>
					<g>
						<ellipse fill="#FAFBFB" cx="21.075" cy="366.896" rx="0.261" ry="6.415"/>
					</g>
				</g>
			</g>
			<g>
				<g>
					<g>
						<ellipse fill="#FAFBFB" cx="35.995" cy="367.124" rx="0.261" ry="6.644"/>
					</g>
				</g>
			</g>
			<g>
				<g>
					<g>
						<ellipse fill="#FAFBFB" cx="50" cy="367.143" rx="0.261" ry="6.775"/>
					</g>
				</g>
			</g>
			<g>
				<g>
					<g>
						<ellipse fill="#FAFBFB" cx="34.242" cy="360.48" rx="24.016" ry="0.261"/>
					</g>
				</g>
			</g>
		</g>
		<g>
			<g>
				<path fill="#E0E0E0" d="M332.745,235.484v4.07c0,1.424-0.458,2.588-1.021,2.588H183.205c-0.564,0-1.024-1.164-1.024-2.588v-4.07
					c0-1.424,0.46-2.59,1.024-2.59h148.519C332.287,232.895,332.745,234.061,332.745,235.484z"/>
				<path fill="#FFFFFF" stroke="#E0E0E0" stroke-miterlimit="10" d="M332.745,235.484v4.07c0,1.424-0.423,2.588-0.938,2.588H213.9
					c-0.517,0-0.938-1.164-0.938-2.588v-4.07c0-1.424,0.422-2.59,0.938-2.59h117.907
					C332.323,232.895,332.745,234.061,332.745,235.484z"/>
				<rect x="189.718" y="242.145" fill="#E0E0E0" width="105.44" height="153.685"/>
				<rect x="219.267" y="242.145" fill="#FFFFFF" stroke="#E0E0E0" stroke-miterlimit="10" width="105.438" height="153.685"/>
				<g>
					<g>
						<path fill="#E0E0E0" d="M319.041,387.344h-94.108V246.484h94.108V387.344z M225.951,386.326h92.076V247.5h-92.076V386.326
							L225.951,386.326z"/>
					</g>
					<g>
						<rect x="225.441" y="293.08" fill="#E0E0E0" width="93.094" height="1.018"/>
					</g>
					<g>
						<rect x="225.441" y="340.588" fill="#E0E0E0" width="93.094" height="1.014"/>
					</g>
					<path fill="#E0E0E0" d="M281.527,255.57h-17.274c-0.836,0-1.523-0.686-1.523-1.524l0,0c0-0.841,0.688-1.524,1.523-1.524h17.274
						c0.839,0,1.523,0.685,1.523,1.524l0,0C283.049,254.885,282.363,255.57,281.527,255.57z"/>
					<path fill="#E0E0E0" d="M281.527,302.025h-17.274c-0.836,0-1.523-0.686-1.523-1.524l0,0c0-0.839,0.688-1.524,1.523-1.524
						h17.274c0.839,0,1.523,0.687,1.523,1.524l0,0C283.049,301.34,282.363,302.025,281.527,302.025z"/>
					<path fill="#E0E0E0" d="M281.527,350.451h-17.274c-0.836,0-1.523-0.688-1.523-1.525l0,0c0-0.838,0.688-1.525,1.523-1.525
						h17.274c0.839,0,1.523,0.688,1.523,1.525l0,0C283.049,349.764,282.363,350.451,281.527,350.451z"/>
				</g>
			</g>
			<g>
				<path fill="#EBEBEB" d="M275.229,206.461v26.434h-26.652v-26.516c0-0.256,0.011-0.51,0.039-0.763
					c0.279-3.034,2.229-5.583,4.925-6.726c1.917-0.81,3.263-2.564,3.369-4.644l0.192-3.819h9.786l0.06,3.807
					c0.04,2.075,1.354,3.858,3.27,4.663c2.698,1.141,4.662,3.689,4.971,6.719C275.211,205.896,275.229,206.177,275.229,206.461z"/>
				<polygon fill="#E0E0E0" points="267.586,192.103 256.171,192.103 256.475,189.122 267.281,189.122 				"/>
			</g>
			<g>
				<path fill="#EBEBEB" d="M297.123,218.111v14.783h-14.91v-14.832c0-0.142,0.009-0.287,0.022-0.426
					c0.157-1.697,1.25-3.123,2.753-3.764c1.074-0.453,1.827-1.434,1.888-2.598l0.107-2.137h5.474l0.031,2.133
					c0.023,1.16,0.758,2.156,1.828,2.604c1.514,0.641,2.61,2.066,2.783,3.764C297.115,217.793,297.123,217.95,297.123,218.111z"/>
				<polygon fill="#E0E0E0" points="292.848,210.078 286.462,210.078 286.634,208.411 292.676,208.411 				"/>
			</g>
		</g>
	</g>
	<g>
		<path fill="#E0E0E0" d="M518.474,325.866H245.059c-3.474,0-6.314-2.843-6.314-6.316v-3.392c0-3.477,2.841-6.316,6.314-6.316
			h273.415c3.47,0,6.315,2.842,6.315,6.316v3.392C524.789,323.025,521.943,325.866,518.474,325.866z"/>
		<g>
			<g>
				<path fill="#E0E0E0" d="M510.835,417.188h-2.041l-15.814-59.875c0-0.006,0-0.006,0-0.008l-3.597-13.619
					c-0.004-0.002-0.004-0.002-0.004-0.002l-4.661-17.662l9.312-0.158l3.178,17.242l2.372,12.916c0.014,0.064,0.03,0.123,0.04,0.188
					L510.835,417.188z"/>
			</g>
			<path fill="#E0E0E0" d="M497.205,343.107c-1.719,2.5-4.091,7.203-4.227,14.197l-3.597-13.617
				c-0.004-0.004-0.004-0.004-0.004-0.004l-4.661-17.66l9.312-0.16L497.205,343.107z"/>
		</g>
		<g>
			<g>
				<path fill="#E0E0E0" d="M248.981,417.188h2.042l15.814-59.875c0-0.006,0-0.006,0-0.008l3.596-13.619
					c0.004-0.002,0.004-0.002,0.004-0.002l4.662-17.662l-9.313-0.158l-3.177,17.242l-2.375,12.916
					c-0.013,0.064-0.022,0.123-0.038,0.188L248.981,417.188z"/>
			</g>
			<path fill="#E0E0E0" d="M262.611,343.107c1.72,2.5,4.091,7.203,4.228,14.197l3.596-13.617c0.004-0.004,0.004-0.004,0.004-0.004
				l4.662-17.66l-9.313-0.16L262.611,343.107z"/>
		</g>
	</g>
	<path fill="#FBBF9E" d="M357.98,235.626c0,0-3.178-5.595-4.531-6.884c-1.354-1.291-3.286-5.206-4.175-4.414
		c-0.888,0.794,0.857,3.533,0.177,4.604c-0.686,1.065-9.354-0.916-9.892,0.303c-0.534,1.222-0.161,4.983,2.969,6.101
		s11.532,3.003,12.706,4.526C356.404,241.391,357.98,235.626,357.98,235.626z"/>
	<path fill="#F3725F" d="M444.448,191.181c0,0-5.125-2.328-21.123,12.139c-16.004,14.469-26.966,29.591-35.516,30.252
		c-8.546,0.656-30.62,0.697-30.62,0.697l-2.457,5.162c0,0-0.414,1.993,13.132,6.303c11.585,3.686,26.238,4.845,27.328,4.713
		c10.959-1.314,37.232-18.865,41.229-24.129C440.419,221.061,444.448,191.181,444.448,191.181z"/>
	<g>
		<path fill="#FBBF9E" d="M328.573,350.273c0.266,2.436,0.032,6.142-0.514,10.506c-2.159,17.279-9.199,44.878-9.199,44.878
			l-8.821,1.069c0.646-4.883-1.191-23.568-3.631-44.278c-3.678-31.245-8.729-67.095-8.729-67.095s19.198-15.869,30.512-11.485
			C339.512,288.258,327.245,338.166,328.573,350.273z"/>
		<path fill="#E0E0E0" d="M328.061,360.779c-2.159,17.279-9.199,44.878-9.199,44.878l-8.821,1.069
			c0.646-4.883-1.191-23.568-3.631-44.278c3.141,0.552,11.661,1.649,18.78-1.034C326.287,360.995,327.24,360.805,328.061,360.779z"
			/>
		<path fill="#263238" d="M319.982,167.089c0,0-4.651-2.232-9.869,0c-5.218,2.229-9.018,11.736-6.68,20.61
			c2.34,8.876-5.554,9.025-1.901,16.143c1.298,2.525,18.45,4.672,19.035-5.158c0.362-6.091-5.152-6.394-3.544-13.01
			C318.634,179.053,319.982,167.089,319.982,167.089z"/>
		<path fill="#FBBF9E" d="M344.61,348.385c0.518,2.984,0.376,7.985-0.124,13.819c-1.5,17.614-6.285,42.792-6.285,42.792l-8.723,2.02
			c0.33-4.82-2.521-22.947-6.117-43.228c-5.588-31.547-12.976-68.313-12.976-68.313s18.189-17.026,29.758-13.347
			C351.701,285.813,342.54,336.381,344.61,348.385z"/>
		<path fill="#A6524A" d="M310.148,404.986c0,0-2.097,3.85-6.089,4.742c-2.515,0.564-4.663,1.885-5.994,3.731
			c-1.127,1.562-0.02,3.735,1.904,3.729l20.294-0.121c1.727-0.008,3.065-1.504,2.886-3.225c-0.161-1.503-0.331-3.253-0.403-4.593
			c-0.168-2.933-3.343-5.565-3.343-5.565s-2.787,1.602-3.86,1.785C313.206,405.883,310.148,404.986,310.148,404.986z"/>
		<path fill="#FBBF9E" d="M306.281,209.475c0,0-13.263,22.356-15.938,40.586c0,0,6.452,8.703,9.076,2.592
			C302.041,246.542,320.865,213.83,306.281,209.475z"/>
		<path fill="#263238" d="M308.805,169.786c0.144-0.235,6.075-9.619,17.166-11.489c8.988-1.518,17.396,4.83,18.781,13.837
			c1.385,9.051-0.03,20.78-14.797,25.005L308.805,169.786z"/>
		<path fill="#FBBF9E" d="M311.518,210.119l16.711,9.923l4.22-11.763c0,0-1.935-4.285-2.497-11.142
			c-0.234-2.883-0.23-6.22,0.268-9.886l-14.53,6.313c0,0,0.253,1.321,0.357,3.256c0.105,2.091,0.031,4.895-0.726,7.516
			C314.67,206.585,313.51,208.701,311.518,210.119z"/>
		<path fill="#F7996E" d="M315.327,204.337c8.016,0.297,14.629-7.197,14.629-7.197l-13.905-0.32
			C316.157,198.912,316.086,201.716,315.327,204.337z"/>
		<path fill="#FBBF9E" d="M311.732,199.63c0,0,15.691,5.231,22.007-7.111c6.814-13.321,0.93-23.715-4.449-24.736
			c-10.724-2.028-17.264,1.693-19.44,5.93C307.674,177.946,303.066,196.823,311.732,199.63z"/>
		<path fill="#FFFFFF" d="M318.511,192.887c0,0-0.77,1.604-4.924,0.41c0,0-3.485-0.999-2.968-2.836
			C310.619,190.462,314.341,189.898,318.511,192.887z"/>
		<path fill="#F3725F" d="M351.516,337.459c-4.535,4.333-38.036,13.291-56.917,6.852c-3.382-1.151,2.035-105.545,5.258-125.703
			c0.885-5.526,5.278-9.83,10.823-10.582c0.938-0.127,1.952-0.25,3.052-0.356c-0.237,2.479,0.614,4.808,4.933,5.655
			c5.75,1.123,11.186-2.501,13.979-5.023c4.502,0.936,7.12,1.283,10.691,2.772c3.92,1.644,6.258,5.712,5.688,9.926l-1.08,7.956
			l-3.438,25.359c-0.438,3.186-0.41,6.416,0.07,9.597c1.464,9.642,3.794,33.12,5.354,50.979
			C351.027,327.452,351.742,337.242,351.516,337.459z"/>
		<path fill="#F3725F" d="M349.93,314.889c-0.495-0.572-32.268-37.638-33.408-57.356c-1.15-19.872,15.936-34.396,15.936-34.396
			c6.812-0.445,11.841,1.78,15.485,5.815l-3.438,25.36c-0.439,3.185-0.41,6.416,0.069,9.596
			C346.038,273.548,348.369,297.029,349.93,314.889z"/>
		<path fill="#263238" d="M322.729,169.25c0,0-1.49,14.721,12.48,19.941c5.554,2.073,8.443-20.416-3.165-24.905
			c-11.601-4.491-23.044,0.841-24.414,8.69c-1.369,7.851-0.325,9.487-0.325,9.487S312.732,167.531,322.729,169.25z"/>
		<path fill="#FBBF9E" d="M331.207,217.41c0,0-6.405,25.336-6.653,35.414c0,0-14.062,24.553-14.884,26.299
			c-0.827,1.748,5.071,4.133,5.071,4.133s17.64-18.809,21.036-26.712c3.399-7.905,15.462-33.606,10.635-41.276
			C341.586,207.596,331.207,217.41,331.207,217.41z"/>
		<path fill="#FBBF9E" d="M290.344,250.061c0,0-1.258,17.258,11.024,30.855c0,0,3.353-4.035,2.93-5.29
			c-0.424-1.253-5.23-20.485-8.741-23.224C292.046,249.666,290.344,250.061,290.344,250.061z"/>
		<path fill="#FBBF9E" d="M309.67,279.128c0,0-7.862-0.06-8.302,1.789c-0.438,1.849,2.021,7.635,7.771,5.616
			c5.75-2.012,5.604-3.277,5.604-3.277L309.67,279.128z"/>
		<path fill="#FBBF9E" d="M304.299,275.626c0,0,6.313,2.916,4.172,6.028c-2.15,3.111-6.438,1.248-7.103-0.739
			C300.707,278.926,304.299,275.626,304.299,275.626z"/>
		<path fill="#F3725F" d="M326.582,230.781c0,0,8.243,7.667,20.953,6.48c0,0,6.264-22.201-3.78-24.927
			S325.411,222.768,326.582,230.781z"/>
		<path fill="#F3725F" d="M301.951,213.386l-7.27,12.429c0,0,0.938,5.765,6.374,6.338
			C306.49,232.725,301.951,213.386,301.951,213.386z"/>
		<path fill="#263238" d="M340.063,167.213c0,0,4.648-2.514,9.867,0c5.219,2.514,9.02,13.212,6.682,23.209
			c-2.338,9.991,5.554,10.159,1.898,18.176c-1.298,2.844-18.447,5.264-19.035-5.81c-0.363-6.857,5.151-7.197,3.546-14.65
			C341.409,180.686,340.063,167.213,340.063,167.213z"/>
		<path fill="#FFFFFF" stroke="#E0E0E0" stroke-miterlimit="10" d="M344.486,362.204c-1.5,17.614-6.285,42.792-6.285,42.792
			l-8.723,2.02c0.33-4.82-2.521-22.947-6.117-43.228C328.022,364.275,336.59,364.65,344.486,362.204z"/>
		<path fill="#F3725F" d="M329.229,404.986c0,0-2.094,3.85-6.086,4.742c-2.518,0.564-4.666,1.885-5.996,3.731
			c-1.127,1.562-0.021,3.735,1.905,3.729l20.293-0.121c1.728-0.008,3.068-1.504,2.886-3.225c-0.16-1.503-0.332-3.253-0.403-4.593
			c-0.167-2.933-3.34-5.565-3.34-5.565s-2.786,1.602-3.864,1.785C332.287,405.883,329.229,404.986,329.229,404.986z"/>
	</g>
	<path fill="#263238" d="M441.346,142.653c0,0-0.297-10.426,13.453-12.472c13.752-2.046,17.552,1.169,19.891,4.676
		c2.338,3.507,6.725,17.829,6.284,23.528c-0.438,5.701-16.122,12.746-15.868,16.073
		C465.362,177.782,441.346,142.653,441.346,142.653z"/>
	<path fill="#FBBF9E" d="M380.08,409.65c0.274,3.479-4.574,4.263-10.184,4.468c-5.605,0.208-3.928,1.375-11.624,2.666
		c-7.698,1.291-10.748-0.849-11.291-1.896c-0.481-0.926,3.106-2.322,6.929-3.896c0.487-0.196,0.968-0.4,1.448-0.604
		c4.307-1.828,6.761-5.639,10.146-9.154c3.204-3.332,6.351-14.094,6.351-14.094l10.468-2.091c0,0-3.058,9.681-4.13,13.819
		c-0.63,2.43,0.216,5.168,0.972,7.257C379.573,407.264,379.986,408.425,380.08,409.65z"/>
	<path fill="#F3725F" d="M369.897,414.116c-5.605,0.208-3.927,1.375-11.623,2.666c-7.698,1.29-10.749-0.849-11.292-1.896
		c-0.48-0.927,3.106-2.322,6.931-3.896l0.063,0.064c0,0,5.372,1.902,11.628,0.289c5.102-1.313,10.05-4.283,13.563-5.219
		c0.407,1.137,0.821,2.299,0.916,3.523C380.355,413.129,375.506,413.912,369.897,414.116z"/>
	<path fill="#263238" d="M460.622,279.18c0,0-69.451,3.646-81.355,13.477c-11.901,9.838-14.638,106.77-14.638,106.77
		c1.685,1.896,2.995,1.92,5.808,1.842c2.696-0.078,8.292-2.08,8.292-2.08s17.139-46.821,17.866-57.82
		c0.727-11.001,3.986-29.568,8.741-30.438c4.757-0.873,60.395,8.043,67.386-9.018c6.989-17.063-2.492-31.848-2.492-31.848
		L460.622,279.18z"/>
	<path fill="#F3725F" d="M493.247,296.418c-2.983,1.995-10.698,3.102-19.656,3.422c-16.025,0.584-36.028-1.328-39.967-5.048
		c-1.022-0.959-1.521-2.549-1.658-4.565c-0.438-6.151,2.5-16.271,4.476-24.645c1.279-5.439,2.149-10.143,1.438-12.543
		c-2.176-7.313-8.93-22.213-9.515-27.11c-0.581-4.897,5.261-31.135,13.343-34.384c8.082-3.254,39.268,0,39.268,0
		c12.183,2.474,12.696,28.448,8.647,50.559c-0.104,0.569-0.209,1.135-0.319,1.694C484.919,266.249,501.576,290.836,493.247,296.418z
		"/>
	<g>
		<path fill="#FBBF9E" d="M447.079,193.802c0.218,1.428,4.118,3.736,12.453,1.539c7.988-2.104,8.949-4.708,8.944-6.424
			c0-2.033-3.471-4.771-3.424-17.283l-0.958,0.189l-16.104,3.188c0,0,0.367,5.068,0.379,9.843
			C448.377,188.863,446.715,191.434,447.079,193.802z"/>
		<path fill="#F7996E" d="M447.99,175.011c0,0,0.367,5.068,0.379,9.843c9.01-0.254,13.772-8.476,15.727-13.031L447.99,175.011z"/>
		<path fill="#FBBF9E" d="M444.98,179.534c0,0,21.322,0.352,21.334-12.931c0.021-13.279,2.778-22.18-10.835-22.963
			c-13.612-0.785-16.264,4.277-17.348,8.708C437.049,156.78,439.436,179.099,444.98,179.534z"/>
		<path fill="#263238" d="M445.771,143.312c0,0,5.835,15.582,14.798,17.885c8.959,2.304,12.842-0.096,12.842-0.096
			s-6.868-5.46-8.296-14.987C465.114,146.113,450.175,135.896,445.771,143.312z"/>
		<path fill="#263238" d="M447.215,144.575c0,0-4.355,3.479-5.421,6.863c-1.064,3.38-1.54,10.341-3.571,10.105
			c0,0-4.396-10.588,0.546-16.581C444.01,138.611,447.215,144.575,447.215,144.575z"/>
		<path fill="#FFFFFF" d="M449.721,171.484c0,0-0.396,1.686-4.596,1.425c0,0-3.521-0.217-3.415-2.073
			C441.71,170.836,445.125,169.518,449.721,171.484z"/>
	</g>
	<path fill="#FBBF9E" d="M425.966,413.448c-0.121,3.493-5.029,3.718-10.621,3.286c-5.594-0.432-4.061,0.925-11.856,1.334
		c-7.79,0.41-10.579-2.062-11-3.162c-0.376-0.979,3.349-1.95,7.326-3.088c0.503-0.143,1.007-0.289,1.508-0.438
		c4.486-1.33,7.354-4.837,11.116-7.947c3.564-2.945-3.225-18.386-3.225-18.386l10.104-4.312c0,0,1.344,10.848,3.287,20.375
		c0.502,2.465,2.337,6.572,2.851,8.729C425.73,411.018,426.012,412.221,425.966,413.448z"/>
	<path fill="#A6524A" d="M493.247,296.418c-2.983,1.995-10.698,3.102-19.656,3.422c-14.782-3.359-31.612-7.277-41.625-9.613
		c-0.438-6.151,2.5-16.271,4.476-24.645c11.672,3.564,29.048-8.579,34.886-13.379c6.139-5.041,5.943-21.842,5.943-21.842
		l12.352,11.742c-0.104,0.569-0.209,1.135-0.319,1.694C484.919,266.249,501.576,290.836,493.247,296.418z"/>
	<path fill="#F3725F" d="M415.345,416.734c-5.594-0.432-4.061,0.925-11.856,1.334c-7.79,0.41-10.579-2.062-11-3.162
		c-0.376-0.979,3.349-1.95,7.326-3.088l0.054,0.072c0,0,5.125,2.498,11.523,1.604c5.213-0.729,10.47-3.123,14.063-3.652
		c0.274,1.174,0.558,2.377,0.512,3.604C425.845,416.941,420.937,417.165,415.345,416.734z"/>
	<path fill="#263238" d="M475.33,284.053c-17.521-1.353-70.126,0.178-80.561,7.141c-12.842,8.568,18.119,106.75,18.119,106.75h9.938
		c0,0,5.779-57.01,2.19-68.389c-3.314-10.515-5.479-14.287-0.658-14.668c4.821-0.378,64.211,10.055,70.07-7.428
		c4.577-13.658-0.546-26.757-0.546-26.757S491.495,285.305,475.33,284.053z"/>
	<path fill="#F3725F" d="M480.974,191.545c0,0,12.202,1.036,13.148,10.68c0.724,7.323,6.032,59.271,2.21,63.787
		c-10.757,12.715-46.621,15.409-51.9,17.34l-1.455-6.015c0,0,38.289-19.288,37.707-23.674
		C480.098,249.281,469.271,189.806,480.974,191.545z"/>
	<path fill="#263238" d="M468.049,135.423c0,0-0.877-5.564,6.84-6.999c7.718-1.435,7.858,14.951,8.688,18.904
		c0.828,3.951-1.233,6.317-4.178,6.559C476.46,154.128,468.049,135.423,468.049,135.423z"/>
	<g>
		<path fill="#FBBF9E" d="M442.561,277.074c0,0-10.902-3.088-13.502-2.365c-2.595,0.721-11.494,6.613-10.242,8.216
			c1.249,1.603,9.09-0.957,12.698-0.476c3.606,0.482,6.396,2.265,8.992,1.883c2.598-0.387,5.313-1.407,5.313-1.407L442.561,277.074z
			"/>
		<path fill="#FBBF9E" d="M442.561,277.074c0,0-5.336-2.742-6.85-4.303c-0.195-0.195-0.52-0.156-0.665,0.078
			c-0.404,0.641-0.788,1.879,1.086,3.109C438.826,277.734,442.561,277.074,442.561,277.074z"/>
	</g>
	<g>
		<path fill="#263238" d="M143.748,39.915c-0.491,1.801-0.98,3.603-1.511,5.55c1.272,0.465,2.156-0.384,3.141-0.669
			c1.163-3.807,2.615-7.556,3.41-11.44c0.925-4.514,14.692-4.89,16.1-4.867c-0.346-0.546-0.617-1.105-0.245-1.754
			c-3.748-0.14-7.499-0.274-11.247-0.425c-3.293-0.135-5.361,1.421-6.417,4.502C145.939,33.859,144.828,36.882,143.748,39.915z"/>
		<path fill="#263238" d="M180.797,89.004c0.15,1.059,0.186,2.178,1.363,2.725c2.771-4.021,3.478-8.84,5.013-13.319
			c5.018-14.678,9.857-29.42,14.736-44.145c1.518-4.583,0.855-5.518-3.854-5.829c-2.198-0.143-4.39-0.349-6.582-0.526
			c-1.373,0.608-3.309-0.91-4.413,1.18c1.664,0.994,3.467,0.21,5.108,0.631c2.057-0.075,4.077-0.186,6.16,0.204
			c1.833,0.343,2.045,0.948,1.51,2.531C193.47,51.297,187.138,70.157,180.797,89.004z"/>
		<path fill="#455B65" d="M192.168,29.721c-1.642-0.421-3.442,0.362-5.107-0.631c1.104-2.089,3.04-0.572,4.413-1.18
			c-4.224-2.083-9.424-1.26-13.277-4.459c-0.167-0.138-0.592-0.195-0.745-0.082c-3.833,2.8-8.765,1.407-12.808,3.367
			c-0.372,0.648-0.101,1.208,0.246,1.754c0.386,1.069,1.091,1.709,2.267,1.851C175.525,31.361,183.871,31.674,192.168,29.721z"/>
		<path fill="#E0E0E0" d="M160.666,28.425c1.406,0.021,2.815,0.042,4.223,0.064c0.386,1.069,1.091,1.709,2.267,1.851
			c8.37,1.021,16.717,1.334,25.014-0.619c2.057-0.075,4.076-0.186,6.16,0.204c1.833,0.343,2.045,0.948,1.51,2.531
			c-6.369,18.84-12.701,37.701-19.042,56.549c-0.342-0.184-0.74-0.307-1.015-0.562c-3.911-3.629-5.315-9.136-9.439-12.618
			c-0.429-0.361-20.684-20.476-25.071-24.654c1.266-1.269,2.539-2.531,3.787-3.813c0.748-0.768,1.354-1.665,0.808-2.747
			c-0.637-1.253-1.704-0.779-2.68-0.45c-0.604,0.204-1.206,0.424-1.811,0.636c1.162-3.807,2.615-7.556,3.41-11.44
			c0.925-4.514,3.263-6.247,7.709-5.228L160.666,28.425z"/>
		<g>
			<path fill="#455B65" d="M188.789,39.192l-31.307-1.378c-0.274-0.013-0.318-0.542-0.099-1.176l0,0
				c0.221-0.634,0.625-1.143,0.9-1.129l31.308,1.377c0.275,0.013,0.32,0.542,0.098,1.177l0,0
				C189.469,38.694,189.064,39.204,188.789,39.192z"/>
			<path fill="#455B65" d="M186.289,46.374l-31.308-1.377c-0.274-0.014-0.318-0.543-0.097-1.177l0,0
				c0.218-0.633,0.625-1.143,0.899-1.131l31.307,1.379c0.275,0.012,0.321,0.542,0.099,1.176l0,0
				C186.971,45.876,186.564,46.385,186.289,46.374z"/>
			<path fill="#455B65" d="M183.846,53.557l-31.419-1.385c-0.245-0.009-0.283-0.479-0.089-1.045l0.091-0.258
				c0.195-0.562,0.557-1.012,0.8-1.003l31.419,1.382c0.247,0.012,0.285,0.481,0.089,1.044l-0.091,0.259
				C184.449,53.119,184.09,53.568,183.846,53.557z"/>
			<path fill="#455B65" d="M181.29,60.737l-31.307-1.381c-0.274-0.012-0.319-0.542-0.101-1.174l0,0
				c0.223-0.634,0.626-1.145,0.903-1.131l31.306,1.379c0.276,0.011,0.319,0.542,0.098,1.174l0,0
				C181.972,60.239,181.563,60.749,181.29,60.737z"/>
		</g>
		<path fill="#E0E0E0" d="M97.719,128.074c2.842,7.738,3.772,15.818,3.892,23.96c0.186,12.741,0.577,25.513-0.101,38.221
			c-0.764,14.289,0.143,28.589-0.795,42.817c-0.813,12.349,0.19,24.691-0.755,36.97c-0.891,11.562-0.178,23.104-0.739,34.634
			c-0.191,3.907,1.236,5.479,4.889,5.542c1.784,0.265,3.567,0.56,5.356,0.789c8.072,1.042,16.146,2.07,24.222,3.101
			c1.662,0,3.469-0.424,4.959,0.08c3.41,1.158,7.456-0.813,10.425,2.207c0.528-1.936,2.115-1.492,3.495-1.596
			c4.778-0.363,9.551-0.763,14.324-1.146c6.392-0.51,12.301-2.838,18.296-4.846c2.39-1.545,2.754-3.837,2.458-6.429
			c-1.021-8.978-2.082-17.948-2.998-26.935c-0.669-6.555-1.054-13.143-1.703-19.699c-1.19-12.076-2.509-24.139-3.729-36.213
			c-0.623-6.168-1.219-12.342-1.698-18.521c-0.897-11.59-2.554-23.097-3.621-34.653c-0.785-8.494-2.009-16.934-2.693-25.435
			c-0.537-6.69-1.489-13.337-3.05-19.883c-1.705-2.245-0.806-5.683-3.396-7.511c-12.643-8.916-23.84-19.392-34.013-31.029
			c-10.271-11.75-12.27-25.634,2.946-33.446c-4.186-0.01-8.37-0.018-12.555-0.028c-7.208,0.749-14.417,1.499-21.624,2.246
			c-6.88,0.771-13.309,2.444-17.406,8.749c-2.2,7.657-1.275,15.337,0.286,22.885c2.293,11.094,6.25,21.669,10.665,32.11
			C94.845,119.242,97.343,123.312,97.719,128.074z"/>
		<path fill="#FFFFFF" stroke="#E0E0E0" stroke-miterlimit="10" d="M133.692,49.056c-15.216,7.812-13.218,21.696-2.946,33.446
			c10.174,11.637,21.372,22.113,34.013,31.029c2.59,1.829,1.693,5.266,3.396,7.511c5.383-0.52,10.84-0.847,15.993-2.492
			c6.48-2.069,8.425-7.079,5.558-13.866c-1.952-4.62-5.636-8.277-7.544-12.952c-1.179-0.547-1.212-1.665-1.363-2.726
			c-0.342-0.184-0.74-0.307-1.015-0.562c-6.909-13.836-30.123-33.094-34.513-37.275c-3.829-0.729-7.659-1.463-11.49-2.195
			L133.692,49.056z"/>
		<path fill="#263238" d="M185.19,308.807c-5.997,2.008-11.904,4.336-18.296,4.848c-4.773,0.383-9.546,0.781-14.324,1.146
			c-1.379,0.104-2.967-0.34-3.494,1.597c0.87,7.479,1.724,14.961,2.615,22.436c2.311,19.342,4.648,38.682,6.938,58.025
			c0.146,1.246,0.274,2.338,1.731,2.648c5.642-1.363,11.356-0.641,17.048-0.598c2.153-0.096,3.368-0.639,3.468-3.368
			c0.399-11.022,1.189-22.028,1.743-33.047C183.513,344.6,184.337,326.705,185.19,308.807z"/>
		<path fill="#263238" d="M133.688,314.107c-8.075-1.029-16.148-2.057-24.221-3.1c-1.789-0.229-3.572-0.523-5.356-0.789
			c-1.333,17.311-2.667,34.621-4.001,51.932c-0.774,10.076-1.565,20.149-2.302,30.229c-0.119,1.622-0.58,3.427,1.271,4.537
			c5.43,0.019,10.862,0.035,16.298,0.05c1.805-0.81,1.462-2.654,1.771-4.057c2.154-9.747,4.188-19.524,6.229-29.299
			C126.825,347.111,130.252,330.609,133.688,314.107z"/>
		<path fill="#263238" d="M122.629-3.156c3.957-1.343,3.95-4.438,3.166-7.646c-1.051-4.314-4.914-7.552-8.878-7.401
			c-4.814,0.183-9.077,2.138-12.851,4.99c-2.282,1.724-4.576,3.097-7.309,4.135c-11.963,4.548-15.781,20.34-7.595,30.675
			c0.962,1.214,2.005,2.458,3.26,3.328c4.989,3.46,7.999,8.028,8.485,14.15c2.833-1.121,5.663-2.238,8.499-3.359l-0.068,0.034
			c0.374-0.352,0.708-0.759,1.124-1.05c5.081-3.541,5.623-10.613,1.236-15.165c-1.854-1.927-2.66-4.573-1.484-6.848
			c1.358-2.629,1.484-5.431,2.305-8.109C114.294-1.21,116.478-2.866,122.629-3.156z"/>
		<path fill="#FBBF9E" d="M109.407,35.715c-2.836,1.122-5.666,2.239-8.499,3.36c-0.801,4.03-2.005,8.014-1.4,12.2
			c7.211-0.749,14.42-1.499,21.627-2.247c-0.269-1.527-0.409-3.092-0.83-4.573c-1.174-4.106-1.442-7.153,4.084-8.642
			c3.885-1.049,4.262-5.558,4.547-9.176c0.826-10.523-0.404-20.669-6.308-29.792c-6.152,0.29-8.336,1.946-10.11,7.732
			c-0.821,2.679-0.947,5.48-2.305,8.109c-1.175,2.275-0.369,4.921,1.483,6.848c4.386,4.55,3.847,11.624-1.235,15.165
			c-0.416,0.291-0.751,0.698-1.123,1.05c2.542,0.39,5.094,0.707,7.612,1.204c1.015,0.201,2.006,0.787,1.675,2.154
			c-0.164,0.681-0.811,1.359-1.373,1.054c-2.063-1.111-4.236-0.441-6.325-0.713C108.803,39.17,108.327,37.615,109.407,35.715z"/>
		<path fill="#455B65" d="M95.602,417.98c0.414,0.271,0.817,0.758,1.246,0.785c14.277,0.848,28.563,1.707,42.856,0.454
			c2.181-0.19,4.325-0.829,6.484-1.26c-0.267-2.899-2.94-3.11-4.777-3.813c-6.777-2.592-13.675-4.863-20.525-7.254
			c-7.42,2.125-14.801,2.821-22.067-0.604c-2.098,1.917-2.256,4.592-2.783,7.125c0.022,1.441,0.295,2.908-0.446,4.271L95.602,417.98
			z"/>
		<path fill="#455B65" d="M156.998,416.551c0.173,1.083-0.046,2.227,1.769,2.332c14.218,0.823,28.437,1.604,42.667,0.443
			c1.602-0.127,3.419-0.02,4.735-1.366c-2.27-3.103-5.858-4.103-9.128-5.467c-4.985-2.077-10.127-3.787-15.195-5.649
			c-7.205,2.014-14.39,3.207-21.43-0.617C156.703,408.816,157.604,412.934,156.998,416.551z"/>
		<path fill="#FFFFFF" d="M97.719,128.074c-0.377-4.763-2.874-8.832-4.663-13.057c-4.416-10.441-8.371-21.015-10.665-32.11
			c-1.562-7.548-2.486-15.229-0.286-22.886c-4.499,2.595-5.721,7.085-6.159,11.677c-0.871,9.186,1.729,17.776,4.785,26.361
			c3.478,9.771,8.215,18.811,13.806,27.475C95.332,126.767,96.09,127.94,97.719,128.074z"/>
		<path fill="#FBBF9E" d="M98.82,406.29c7.268,3.425,14.647,2.728,22.069,0.603c-4.34-1.912-5.733-5.472-5.513-9.927
			c-5.436-0.016-10.869-0.032-16.298-0.05C98.449,400.027,98.631,403.158,98.82,406.29z"/>
		<path fill="#FBBF9E" d="M160.414,406.229c7.041,3.826,14.227,2.631,21.43,0.617c-3.043-1.777-4.673-4.337-4.434-7.938
			c-5.694-0.04-11.409-0.763-17.055,0.601C160.374,401.744,160.394,403.986,160.414,406.229z"/>
		<path fill="#FBBF9E" d="M133.781,48.973c3.832,0.731,7.662,1.466,11.493,2.198c1.266-1.269,2.539-2.531,3.787-3.813
			c0.748-0.768,1.354-1.665,0.808-2.747c-0.637-1.253-1.704-0.779-2.68-0.45c-0.604,0.204-1.206,0.424-1.811,0.637
			c-0.985,0.285-1.868,1.132-3.141,0.667c0.53-1.948,1.02-3.749,1.511-5.55C139.161,41.545,135.326,44.001,133.781,48.973z"/>
		<path fill="#F7996E" d="M109.407,35.715c-1.08,1.901-0.604,3.456,1.522,3.733c2.089,0.272,4.262-0.397,6.325,0.713
			c0.563,0.304,1.208-0.373,1.373-1.054c0.33-1.366-0.661-1.953-1.675-2.154c-2.519-0.498-5.07-0.814-7.612-1.204L109.407,35.715z"
			/>
	</g>
</g>
</svg>
