<?xml version="1.0" encoding="utf-8"?>
<!-- Generator: Adobe Illustrator 16.0.3, SVG Export Plug-In . SVG Version: 6.00 Build 0)  -->
<!DOCTYPE svg PUBLIC "-//W3C//DTD SVG 1.1//EN" "http://www.w3.org/Graphics/SVG/1.1/DTD/svg11.dtd">
<svg version="1.1" id="Layer_1" xmlns="http://www.w3.org/2000/svg" xmlns:xlink="http://www.w3.org/1999/xlink" x="0px" y="0px"
	 width="549.999px" height="451.802px" viewBox="-25.139 19.901 549.999 451.802"
	 enable-background="new -25.139 19.901 549.999 451.802" xml:space="preserve">
<g>
	<path fill="#FBBF9E" d="M300.198,177.953l21.54,13.767l13.104-23.086c0,0-6.424-1.318-7.106-10.902
		c-0.881-12.43-2.66-16.009-3.2-11.882l-18.832,8.927c0,0,0.32,1.843,0.438,4.55c0.123,2.923,0.015,6.848-0.984,10.515
		C304.301,172.99,302.785,175.956,300.198,177.953z"/>
	<g>
		<g>
			<path fill="#E0E0E0" d="M436.677,370.301c0,0-13.112-15.295-0.81-25.013c0,0,8.988-5.436,16.313-4.995
				c0,0-10.377,17.412-7.022,19.142c3.358,1.73,10.17-20.23,10.17-20.23s20.452-1.988,27.029,1.175c0,0-17.479,14.308-13.8,15.156
				c3.681,0.854,22.564-13.187,22.564-13.187s19.032,3.234,18.02,14.848c-1.014,11.609-7.574,15.195-10.458,14.89
				c-2.883-0.31-19.741-6.749-20.107-4.388c-0.368,2.361,9.779,10.084,16.888,10.441c0,0-13.417,14.803-22.337,10.527
				c-8.915-4.27-9.682-11.04-15.239-13.58c-5.558-2.537-10.302-2.533-8.006,0.061c2.296,2.59,12.354,5.105,15.533,10.729
				c3.181,5.62,6.028,9.416-3.193,8.026c-9.23-1.387-24.225-8.139-24.883-15.87C436.677,370.301,436.677,370.301,436.677,370.301z"
				/>
			<g>
				<path fill="#E0E0E0" d="M499.788,357.51c0,0-51.695-1.993-63.111,12.791c0,0-2.522,7.563-10.294,14.448l-1.209,3.301
					c0,0,8.956-9.449,12.163-10.014C437.337,378.035,432.321,359.718,499.788,357.51z"/>
				<path fill="#E0E0E0" d="M426.383,384.747c0,0-11.1,8.207-11.867,22.865l2.015,0.187c0,0,3.543-15.161,9.95-21.09
					C432.884,380.78,426.383,384.747,426.383,384.747z"/>
			</g>
		</g>
		<g>
			<path fill="#E0E0E0" d="M390.836,351.067c0,0,20.857-11.682,11.12-27.533c0,0-7.782-9.734-16.13-12.233
				c0,0,4.454,23.636,0,24.193c-4.443,0.555-3.057-26.697-3.057-26.697s-21.967-10.563-30.589-9.733c0,0,13.629,23.082,9.18,22.524
				c-4.449-0.555-19.746-23.91-19.746-23.91s-22.521-4.175-26.142,9.177c-3.61,13.348,2.227,20.02,5.562,20.854
				c3.338,0.835,24.752,0.559,24.193,3.338c-0.553,2.78-15.013,7.229-23.082,4.727c0,0,8.903,21.97,20.583,20.859
				c11.675-1.113,15.295-8.345,22.524-8.902c7.229-0.555,12.515,1.393,8.896,3.34c-3.615,1.945-15.849,0.637-21.691,5.604
				c-5.837,4.963-10.566,8.021,0.282,10.246c10.846,2.225,30.313,0.832,34.203-7.509
				C390.838,351.067,390.836,351.067,390.836,351.067z"/>
			<g>
				<path fill="#E0E0E0" d="M325.766,311.022c0,0,58.396,18.91,65.07,40.045c0,0-0.277,9.455,5.56,20.3v4.169
					c0,0-6.114-14.182-9.453-16.127C386.942,359.408,400.012,341.054,325.766,311.022z"/>
				<path fill="#E0E0E0" d="M396.396,371.366c0,0,9.009,13.677,3.876,30.32l-2.32-0.619c0,0,2.252-18.34-2.463-27.562
					C390.778,364.288,396.396,371.366,396.396,371.366z"/>
			</g>
		</g>
		<g>
			<path fill="#EBEBEB" d="M424.018,334.956c0,0-27.491-15.395-14.663-36.288c0,0,10.264-12.826,21.257-16.128
				c0,0-5.859,31.157,0,31.893c5.867,0.728,4.035-35.188,4.035-35.188s28.961-13.933,40.322-12.831c0,0-17.96,30.425-12.1,29.688
				c5.871-0.729,26.029-31.521,26.029-31.521s29.689-5.498,34.457,12.095c4.767,17.596-2.936,26.393-7.332,27.49
				c-4.396,1.104-32.625,0.736-31.892,4.4c0.731,3.666,19.796,9.529,30.426,6.232c0,0-11.729,28.956-27.128,27.49
				c-15.394-1.463-20.156-10.996-29.689-11.729c-9.529-0.732-16.496,1.832-11.729,4.396c4.763,2.567,20.892,0.844,28.59,7.389
				c7.698,6.542,13.931,10.572-0.366,13.509c-14.298,2.934-39.955,1.1-45.09-9.9C424.018,334.956,424.018,334.956,424.018,334.956z"
				/>
			<g>
				<path fill="#E0E0E0" d="M509.791,282.173c0,0-76.977,24.922-85.775,52.782c0,0,0.367,12.468-7.33,26.763v5.496
					c0,0,8.063-18.691,12.461-21.263C429.146,345.952,411.922,321.763,509.791,282.173z"/>
				<path fill="#E0E0E0" d="M416.686,361.719c0,0-11.87,18.026-5.104,39.972l3.054-0.82c0,0-2.964-24.17,3.248-36.329
					C424.095,352.385,416.686,361.719,416.686,361.719z"/>
			</g>
		</g>
		<path fill="#EBEBEB" d="M423.089,449.279c29.741,0,53.854-24.113,53.854-53.857H369.238
			C369.238,425.166,393.347,449.279,423.089,449.279z"/>
		<path fill="#EBEBEB" d="M477.688,452.019H368.493l0,0c0-3.67,2.972-6.646,6.645-6.646h95.907
			C474.713,445.372,477.688,448.349,477.688,452.019L477.688,452.019z"/>
		<rect x="367.463" y="395.422" fill="#E0E0E0" width="110.705" height="1.651"/>
	</g>
	<path fill="#FBBF9E" d="M298.853,171.35c0,0-19.785,31.179-24.568,44.592c0,0-29.704,26.75-31.584,28.732
		c-1.88,1.979,4.983,7.783,4.983,7.783s31.976-17.46,40.032-26.57c8.05-9.105,35.588-38.284,32.497-50.711
		C317.122,162.752,298.853,171.35,298.853,171.35z"/>
	<g>
		<path fill="#E0E0E0" d="M40.321,271.519c-1.188-27.162-3.746-50.785-6.809-67.268c-4.882-26.261-9.275-41.373-9.326-41.529
			c-0.644-2.314-9.932-11.656-30.585-11.366c-20.648,0.286-18.69,12.541-18.69,12.541l0,0c-0.002,0.415,0.055,0.8,0.146,1.087
			c0.198,0.634,19.157,64.597,18.333,147.183c-0.01,1.152-0.151,3.162-0.063,4.495c0.001,0.005,47.859,1.147,47.872,0
			C42.87,309.442,42.054,289.448,40.321,271.519z"/>
		<path fill="#FFFFFF" stroke="#E0E0E0" stroke-miterlimit="10" d="M46.335,311.757c-0.014,1.151-0.666,2.074-1.463,2.074h-0.019
			c-0.795-0.02-1.429-0.939-1.44-2.074H2.4c-0.013,1.151-0.666,2.074-1.463,2.074H0.919c-0.811-0.02-1.454-0.969-1.444-2.137
			c0.238-23.639-1.209-45.711-3.403-65.197c-5.452-48.587-15.531-81.062-15.674-81.509c-0.091-0.292-0.146-0.672-0.146-1.091
			c0,0-1.959-12.252,18.69-12.541c20.656-0.291,29.944,9.056,30.585,11.366c0.04,0.121,2.528,8.678,5.834,24.057
			c1.098,5.096,2.279,10.943,3.494,17.472c3.061,16.479,5.62,40.104,6.806,67.266C47.396,289.446,48.003,304.542,46.335,311.757z"/>
		<path fill="#E0E0E0" d="M-3.556,313.831h160.801c0,0-3.748-14.102-96.869-12.004C-5.529,303.317-3.556,313.831-3.556,313.831z"/>
		<g>
			<path fill="#E0E0E0" d="M-16.646,461.114C2,373.283-2.794,319.392-2.818,318.713c-0.046-1.353,2.634-2.581,4.071-2.622
				c1.46-0.023,7.895-0.398,8.64,0.758c0.974,1.519,4.729,67.918-23.056,144.265L-16.646,461.114L-16.646,461.114z"/>
		</g>
		<g>
			<path fill="#E0E0E0" d="M133.49,461.114c-18.644-87.83-13.851-141.723-13.826-142.4c0.047-1.354-2.632-2.581-4.07-2.622
				c-1.46-0.022-7.894-0.397-8.639,0.759c-0.976,1.518-4.73,67.916,23.058,144.264H133.49L133.49,461.114z"/>
		</g>
		<g>
			<path fill="#E0E0E0" d="M163.245,461.114c-18.645-87.83-13.849-141.723-13.826-142.4c0.047-1.354-2.633-2.581-4.073-2.622
				c-1.46-0.022-7.894-0.397-8.639,0.759c-0.976,1.518-4.729,67.916,23.057,144.264H163.245L163.245,461.114z"/>
		</g>
		<g>
			<path fill="#E0E0E0" d="M13.31,461.114c18.645-87.83,13.849-141.723,13.826-142.4c-0.046-1.354,2.63-2.581,4.071-2.622
				c1.461-0.022,7.896-0.397,8.638,0.759c0.977,1.518,4.731,67.916-23.058,144.264H13.31L13.31,461.114z"/>
		</g>
		<path fill="#E0E0E0" d="M157.019,318.331H-3.141c-1.987,0-3.612-1.628-3.612-3.615v-0.918c0-1.988,1.625-3.609,3.612-3.609h160.16
			c1.986,0,3.611,1.623,3.611,3.609v0.918C160.63,316.702,159.005,318.331,157.019,318.331z"/>
	</g>
	<path fill="#FBBF9E" d="M326.763,368.358c0.378,3.443,0.05,8.685-0.728,14.846c-3.047,24.414-12.992,63.414-12.992,63.414
		l-12.467,1.513c0.912-6.895-1.684-33.306-5.127-62.567c-5.2-44.148-12.342-94.805-12.342-94.805s27.134-22.428,43.12-16.23
		C342.22,280.729,324.885,351.251,326.763,368.358z"/>
	<path fill="#E0E0E0" d="M326.035,383.203c-3.047,24.414-12.992,63.414-12.992,63.414l-12.467,1.513
		c0.912-6.895-1.684-33.306-5.127-62.566c4.437,0.779,16.47,2.328,26.536-1.463C323.533,383.51,324.879,383.24,326.035,383.203z"/>
	<path fill="#263238" d="M303.514,111.004c0,0-6.831-2.542-13.885,1.278c-7.057,3.819-11.167,17.682-6.73,29.863
		c4.442,12.187-6.639,13.419-0.577,22.965c2.149,3.38,26.563,4.18,26.111-9.727c-0.277-8.619-8.078-8.329-6.673-17.85
		C303.165,128.014,303.514,111.004,303.514,111.004z"/>
	<path fill="#FBBF9E" d="M349.421,365.692c0.731,4.218,0.533,11.285-0.171,19.531c-2.12,24.892-8.882,60.462-8.882,60.462
		l-12.328,2.854c0.47-6.81-3.557-32.426-8.639-61.08c-7.897-44.58-18.335-96.521-18.335-96.521s25.699-24.063,42.044-18.86
		C359.444,277.271,346.497,348.728,349.421,365.692z"/>
	<path fill="#A6524A" d="M300.728,445.674c0,0-2.962,5.435-8.604,6.699c-3.556,0.794-6.591,2.664-8.469,5.269
		c-1.591,2.207-0.023,5.281,2.691,5.27l28.675-0.162c2.442-0.018,4.332-2.133,4.075-4.561c-0.225-2.126-0.461-4.598-0.57-6.492
		c-0.237-4.142-4.719-7.861-4.719-7.861s-3.94,2.26-5.455,2.528C305.049,446.938,300.728,445.674,300.728,445.674z"/>
	<path fill="#263238" d="M286.054,118.878c0.102-0.375,4.323-15.487,18.571-22.52c11.55-5.696,25.509-0.519,31.031,11.113
		c5.556,11.688,8.396,28.138-9.875,39.846L286.054,118.878z"/>
	<path fill="#F7996E" d="M305.936,164.842c23.221-2.841,20.852-20.376,20.852-20.376l-17.717,7.069
		C309.221,154.487,307.008,161.136,305.936,164.842z"/>
	<path fill="#FBBF9E" d="M302.12,158.087c0,0,23.367,0.711,26.905-18.559c3.814-20.799-8.365-32.477-16.062-31.671
		c-15.339,1.605-22.684,9.294-23.907,15.914C287.829,130.386,289.258,157.802,302.12,158.087z"/>
	<path fill="#FFFFFF" d="M296.902,147.695c0,0,0.392-2.486,6.497-2.554c0,0,5.121-0.063,5.166,2.632
		C308.565,147.772,303.762,150.048,296.902,147.695z"/>
	<path fill="#F3725F" d="M359.184,350.256c-6.412,6.12-53.748,18.782-80.426,9.681c-4.783-1.633,2.87-149.137,7.426-177.619
		c1.254-7.813,7.458-13.89,15.294-14.952c1.328-0.184,2.761-0.354,4.313-0.508c-0.33,3.506,0.861,6.793,6.97,7.991
		c8.126,1.59,15.808-3.533,19.756-7.101c6.363,1.326,10.063,1.814,15.111,3.921c5.535,2.32,8.837,8.07,8.031,14.02l-1.525,11.246
		l-4.858,35.835c-0.618,4.5-0.581,9.063,0.104,13.559c2.067,13.621,5.356,46.797,7.563,72.035
		C358.491,336.115,359.502,349.942,359.184,350.256z"/>
	<path fill="#263238" d="M304.677,112.502c0,0,3.962,20.53,24.983,21.926c8.357,0.553,3.147-31.057-14.383-32.426
		c-17.53-1.366-30.854,10.496-29.521,21.673c1.335,11.182,3.407,12.971,3.407,12.971S290.454,114.232,304.677,112.502z"/>
	<path fill="#F3726A" d="M289.146,174.943l-10.271,17.556c0,0,1.322,8.147,9.005,8.956
		C295.564,202.265,289.146,174.943,289.146,174.943z"/>
	<path fill="#263238" d="M331.781,108.577c0,0,6.217-4.139,13.887-1.279c7.671,2.857,14.402,17.42,12.407,31.788
		c-1.995,14.365,9.131,13.576,5.027,25.328c-1.452,4.167-25.277,9.795-27.532-5.706c-1.398-9.603,6.314-10.791,3.086-21.07
		C335.43,127.359,331.781,108.577,331.781,108.577z"/>
	<path fill="#FFFFFF" stroke="#E0E0E0" stroke-miterlimit="10" d="M349.25,385.224c-2.12,24.892-8.882,60.462-8.882,60.462
		l-12.328,2.854c0.47-6.81-3.557-32.426-8.639-61.08C325.98,388.147,338.092,388.673,349.25,385.224z"/>
	<path fill="#F3725F" d="M327.69,445.674c0,0-2.964,5.435-8.604,6.699c-3.556,0.794-6.587,2.664-8.473,5.269
		c-1.588,2.207-0.021,5.281,2.694,5.27l28.677-0.162c2.441-0.018,4.334-2.133,4.078-4.561c-0.229-2.126-0.465-4.598-0.574-6.492
		c-0.234-4.142-4.723-7.861-4.723-7.861s-3.933,2.26-5.45,2.528C332.01,446.938,327.69,445.674,327.69,445.674z"/>
	<g>
		<path fill="#FBBF9E" d="M209.665,458.664c-0.39,4.914,6.462,6.021,14.387,6.313c7.924,0.29,5.553,1.942,16.431,3.768
			c10.879,1.818,15.188-1.201,15.954-2.68c0.682-1.312-4.393-3.28-9.795-5.509c-0.685-0.276-1.364-0.565-2.045-0.851
			c-6.084-2.586-9.552-7.967-14.336-12.934c-4.531-4.711-8.973-19.914-8.973-19.914l-14.786-2.956c0,0,4.32,13.679,5.834,19.523
			c0.891,3.439-0.307,7.311-1.377,10.26C210.383,455.29,209.801,456.93,209.665,458.664z"/>
		<path fill="#F3725F" d="M224.052,464.978c7.924,0.29,5.553,1.942,16.431,3.768c10.879,1.819,15.188-1.201,15.954-2.68
			c0.682-1.312-4.393-3.28-9.795-5.509l-0.084,0.09c0,0-7.596,2.689-16.436,0.41c-7.202-1.852-14.201-6.049-19.164-7.369
			c-0.574,1.604-1.156,3.241-1.292,4.977C209.277,463.578,216.127,464.685,224.052,464.978z"/>
		<path fill="#FBBF9E" d="M130.407,465.115c0.17,4.928,7.104,5.251,15.01,4.64c7.903-0.604,5.734,1.309,16.749,1.884
			c11.014,0.582,14.951-2.913,15.547-4.468c0.529-1.378-4.732-2.759-10.357-4.363c-0.707-0.197-1.418-0.404-2.126-0.613
			c-6.339-1.877-10.391-6.833-15.708-11.231c-5.035-4.164,4.554-25.977,4.554-25.977l-14.276-6.095c0,0-1.896,15.331-4.646,28.8
			c-0.709,3.475-3.298,9.275-4.025,12.331C130.734,461.681,130.345,463.378,130.407,465.115z"/>
		<path fill="#F3725F" d="M145.417,469.754c7.903-0.604,5.734,1.309,16.749,1.884c11.014,0.582,14.951-2.913,15.547-4.468
			c0.529-1.378-4.733-2.759-10.357-4.363l-0.069,0.104c0,0-7.242,3.534-16.282,2.268c-7.369-1.025-14.795-4.403-19.875-5.155
			c-0.394,1.659-0.782,3.356-0.721,5.094C130.577,470.042,137.511,470.365,145.417,469.754z"/>
		<g>
			<path fill="#263238" d="M40.004,28.18c-0.466-1.096-5.913-12.748-24.402-6.392c0,0,9.381-2.36,12.444,0.989
				c0,0-7.977-2.536-12.354,0.937c-4.377,3.475-3.962,13.311-2.892,16.19c1.065,2.877,7.37,11.064,10.83,10.642
				c1.309-0.161,2.656-0.766,3.827-1.462c-0.339,1.637-0.608,3.396-0.775,5.316c-1.56,17.736,11.54,29.472,17.088,25.5
				c3.559-2.554,7.259,3.768,7.259,3.768L77.54,37.864C77.54,37.866,52.255,14.072,40.004,28.18z"/>
			<path fill="#FBBF9E" d="M89.736,136.062c-25.11,11.225-43.985-28.39-42.347-28.797c2.509-2.839,5.099-12.956,3.259-27.522
				l1.3,0.091l21.84,1.613c0,0,0.34,6.777,1.094,13.097c0.5,4.152,1.181,8.111,2.068,9.838c0.262,0.513,4.992,1.196,5.003,1.208
				C82.321,105.993,96.434,133.068,89.736,136.062z"/>
			<path fill="#263238" d="M20.448,253.375c0,0-9.875,30.776,12.157,45.375c29.522,19.56,111.373,2.884,120.714,12.877
				c2.366,2.526-4.79,3.81-8.823,39.972c-5.805,52.016-10.508,81.109-10.508,81.109s1.01,5.942,7.209,9.012
				c4.063,2.017,9.222,0.771,9.222,0.771s60.118-131.994,54.13-150.306c-10.371-31.717-67.789-28.604-134.343-47.346
				C29.566,233.396,20.448,253.375,20.448,253.375z"/>
			<path fill="#263238" d="M51.601,252.708c29.227-2.704,108.978-4.078,126.225,7.77c21.226,14.588,50.077,181.362,50.077,181.362
				s-2.217,1.764-7.044,2.236c-4.486,0.438-14.235-2.435-14.235-2.435s-47.422-75.109-50.274-93.906
				c-2.851-18.793-1.384-35.502-9.405-36.07c-8.021-0.563-118.238,12.145-127.647-18.02c-7.351-23.564,1.461-46.361,1.461-46.361
				S24.636,255.199,51.601,252.708z"/>
			<path fill="#F7996E" d="M73.79,81.454c0,0,0.336,6.769,1.094,13.095c-11.973,1.12-19.61-8.993-22.93-14.71L73.79,81.454z"/>
			<path fill="#FBBF9E" d="M78.505,86.954c0,0-28.173,3.914-30.341-13.668c-2.168-17.58-7.268-28.916,10.63-32.161
				c17.896-3.241,22.226,3.034,24.377,8.727C85.323,55.546,85.778,85.48,78.505,86.954z"/>
			<path fill="#263238" d="M81.136,40.177c-5.011-4.756-8.166-3.192-9.818-1.374C54.85,32.204,46.44,45.961,46.44,45.961
				c-0.347,12.85-8.562,21.188-8.562,21.188s5.535,2.551,17.022-1.951c3.51-1.374,6.433-4.344,8.799-7.803
				c-3.817,8.634-9.644,15.228-9.644,15.228c13.371-8.282,16.651-28.684,16.961-30.837c1.916,1.335,5.722,4.284,7.159,7.454
				c1.956,4.302,3.715,13.446,6.364,12.804C84.541,62.044,88.651,47.309,81.136,40.177z"/>
			<path fill="#FBBF9E" d="M199.764,200.796c0,0,3.278-0.155,5.746-0.933c2.467-0.775,4.265-2.095,7.556-1.846
				c3.295,0.257,8.702-1.656,8.5-0.715c-0.206,0.94-4.985,3.913-5.234,4.446c-0.249,0.542,4.649,6.59,7.401,7.746
				c2.751,1.157,9.783,3.864,8.773,4.894c-1.01,1.027-11.976,2.521-14.775,2.112c-2.8-0.407-8.232-5.333-11.101-6.349
				c-2.867-1.017-7.327-0.598-7.327-0.598L199.764,200.796z"/>
			<path fill="#FBBF9E" d="M218.967,206.944c0,0,9.596-0.025,11.652,2.611l-7.476,0.741L218.967,206.944z"/>
			<path fill="#FBBF9E" d="M220.085,215.94l13.534,1.184c0,0-1.128-1.922-3.412-2.743
				C227.919,213.558,220.085,215.94,220.085,215.94z"/>
			<g>
				<path fill="#FBBF9E" d="M119.012,250.668c0,0,14.279-4.042,17.679-3.097c3.402,0.949,15.054,8.664,13.416,10.758
					c-1.64,2.097-11.902-1.258-16.626-0.622c-4.723,0.636-8.379,2.967-11.778,2.462c-3.4-0.505-6.957-1.84-6.957-1.84
					L119.012,250.668z"/>
				<path fill="#FBBF9E" d="M119.012,250.668c0,0,6.988-3.587,8.973-5.635c0.252-0.255,0.676-0.197,0.868,0.103
					c0.533,0.844,1.031,2.463-1.421,4.079C123.907,251.531,119.012,250.668,119.012,250.668z"/>
			</g>
			<path fill="#FFFFFF" d="M70.216,77.586c0.288,0,2.965,2.392,6.505,1.722c3.541-0.668,3.507-3.445,3.507-3.445
				s-2.415-0.38-4.539,0C73.565,76.246,70.216,77.586,70.216,77.586z"/>
		</g>
		<path fill="#F3725F" d="M94.093,106.452c0,0,7.852-1.266,24.286,24.405c16.431,25.676,25.745,50.369,37.154,54.445
			c11.41,4.075,44.548,14.854,44.548,14.854l1.032,9.506c0,0-1.18,0.128-21.249,0.962c-17.163,0.715-44.298-4.259-45.732-4.841
			c-14.449-5.871-38.673-39.785-42.167-48.444C88.474,148.682,94.093,106.452,94.093,106.452z"/>
		<path fill="#F3725F" d="M22.709,255.206c4.221,2.827,15.125,4.386,27.777,4.841c22.649,0.823,50.907-1.88,56.471-7.132
			c1.443-1.354,2.149-3.602,2.35-6.457c0.613-8.688-3.538-22.984-6.326-34.816c-1.808-7.688-3.041-14.33-2.031-17.724
			c3.072-10.335,12.617-31.389,13.442-38.31c0.824-6.921-7.436-43.993-18.851-48.582c-11.424-4.597-55.486,0-55.486,0
			c-17.216,3.492-17.942,40.197-12.223,71.436c0.148,0.801,0.297,1.604,0.452,2.397C34.481,212.58,10.942,247.321,22.709,255.206z"
			/>
		<path fill="#A6524A" d="M22.709,255.206c4.221,2.827,15.125,4.386,27.777,4.841c16.633,1.065,33.681,0.115,44.758-2.45
			c9.243-2.141,13.522-3.244,14.063-11.14c0.613-8.687,0.085-7.05-2.704-18.883c-20.538,5.659-33.355-7.572-40.566-19.474
			c-5.817-9.6-8.942-45.826-8.942-45.826L27.833,178.46c0.148,0.802,0.297,1.604,0.452,2.398
			C34.481,212.58,10.942,247.321,22.709,255.206z"/>
		<path fill="#F3725F" d="M46.768,106.868c0,0-19.422,2.807-20.219,22.261c-0.606,14.774-0.229,89.194,6.217,98.054
			c18.14,24.93,75.651,28.225,84.234,31.789l2.045-7.598c0,0-63.172-33.52-62.563-42.373
			C57.086,200.148,65.341,102.683,46.768,106.868z"/>
		<path fill="#FBBF9E" d="M75.775,101.31c0.949,5.587,1.918,1.171,1.979,4.56c0.04,2.036,0.958,8.35-11.178,7.304
			c-11.63-1.005-17.708-4.371-18.121-6.761c-0.489-2.833,7.678,2.082,4.598-15.327l-0.722-4.507L75.775,101.31z"/>
	</g>
	<path fill="#F59191" d="M247.582,242.408c0,0-11.11-0.082-11.729,2.526c-0.62,2.616,2.856,10.784,10.979,7.936
		c8.123-2.846,7.921-4.625,7.921-4.625L247.582,242.408z"/>
	<g>
		<path fill="#FFFFFF" stroke="#E0E0E0" stroke-miterlimit="10" d="M232.886,226.34l4.545,30.402c0,0,2.945,3.062,8.583,2.862
			c10.097-0.36,10.603-2.862,10.603-2.862l2.523-30.402H232.886z"/>
		<path fill="#E0E0E0" d="M258.981,226.42c0,3.034-5.878,5.489-13.126,5.489c-7.254,0-13.128-2.455-13.128-5.489
			c0-3.032,5.874-5.489,13.128-5.489C253.104,220.931,258.981,223.388,258.981,226.42z"/>
		<path fill="#E0E0E0" d="M257.966,241.433c0.038,1.187-0.735,15.777-2.009,16.576c-1.953,1.223-6.282,1.748-9.705,1.748
			c-2.8,0-7.371-0.357-8.59-2.066c-0.486-0.681-2.862-16.998-2.39-16.258c1.192,1.854,3.941,2.826,10.206,2.867
			C254.846,244.362,257.947,240.959,257.966,241.433z"/>
	</g>
	<path fill="#FBBF9E" d="M336.116,194.198c0,0-28.929,22.957-37.847,34.06c0,0-36.846,15.511-39.271,16.765
		c-2.423,1.25,2.152,8.992,2.152,8.992s35.938-5.992,46.531-11.953c10.601-5.963,46.188-24.479,47.349-37.232
		C356.191,192.076,336.116,194.198,336.116,194.198z"/>
	<path fill="#FBBF9E" d="M258.993,245.022c0,0-8.775-6.808-10.854-5.109c-2.078,1.699-4.273,10.303,3.909,12.97
		c8.182,2.673,9.103,1.132,9.103,1.132L258.993,245.022z"/>
	<path fill="#F3726A" d="M326.115,199.517c0,0,11.646,10.835,29.607,9.158c0,0,8.85-31.367-5.345-35.218
		C336.187,169.603,324.457,188.195,326.115,199.517z"/>
</g>
</svg>
