<?xml version="1.0" encoding="utf-8"?>
<!-- Generator: Adobe Illustrator 16.0.3, SVG Export Plug-In . SVG Version: 6.00 Build 0)  -->
<!DOCTYPE svg PUBLIC "-//W3C//DTD SVG 1.1//EN" "http://www.w3.org/Graphics/SVG/1.1/DTD/svg11.dtd">
<svg version="1.1" id="Layer_1" xmlns="http://www.w3.org/2000/svg" xmlns:xlink="http://www.w3.org/1999/xlink" x="0px" y="0px"
	 width="549.999px" height="341.807px" viewBox="-24.753 72.626 549.999 341.807"
	 enable-background="new -24.753 72.626 549.999 341.807" xml:space="preserve">
<g>
	<g>
		<rect x="-24.753" y="72.626" fill="#455B65" width="230.018" height="293.563"/>
		<rect x="-13.34" y="83.306" fill="#FFFFFF" width="207.517" height="272.441"/>
		<rect x="128.056" y="97.767" fill="#FFFFFF" width="50.707" height="46.098"/>
		<g>
			<path fill="#F3726A" d="M42.313,256.278v20.082H23.458v-20.082c0-1.713,1.532-3.104,3.412-3.104h12.028
				C40.784,253.175,42.313,254.565,42.313,256.278z"/>
			<rect x="18.668" y="313.856" fill="#F3726A" width="28.438" height="5.172"/>
			<rect x="25.025" y="337.504" fill="#F3726A" width="15.727" height="2.856"/>
			<rect x="29.061" y="319.028" fill="#F3726A" width="7.652" height="19.904"/>
			<g>
				<path fill="#F3726A" d="M38.899,253.175H26.87c-1.88,0-3.412,1.391-3.412,3.104v58.559c0,1.713,1.532,3.1,3.412,3.1h12.028
					c1.885,0,3.414-1.387,3.414-3.1v-58.559C42.313,254.565,40.784,253.175,38.899,253.175z M41.31,314.835
					c0,1.209-1.079,2.189-2.41,2.189H26.87c-1.324,0-2.407-0.98-2.407-2.189v-58.559c0-1.209,1.084-2.19,2.407-2.19h12.028
					c1.33,0,2.41,0.981,2.41,2.19L41.31,314.835L41.31,314.835z"/>
			</g>
			<rect x="30.942" y="249.032" fill="#F3726A" width="3.891" height="4.6"/>
			<rect x="32.572" y="227.817" fill="#F3726A" width="0.63" height="22.472"/>
			<g>
				<rect x="28.88" y="258.651" fill="#FFFFFF" width="8.063" height="0.679"/>
				<rect x="28.88" y="260.769" fill="#FFFFFF" width="8.063" height="0.678"/>
				<rect x="28.88" y="263.058" fill="#FFFFFF" width="8.063" height="0.678"/>
				<rect x="28.88" y="265.092" fill="#FFFFFF" width="8.063" height="0.677"/>
				<rect x="27.091" y="267.04" fill="#FFFFFF" width="11.645" height="0.676"/>
			</g>
			<g>
				<rect x="28.88" y="269.24" fill="#FFFFFF" width="8.063" height="0.684"/>
				<rect x="28.88" y="271.36" fill="#FFFFFF" width="8.063" height="0.681"/>
				<rect x="28.88" y="273.649" fill="#FFFFFF" width="8.063" height="0.68"/>
				<rect x="28.88" y="275.681" fill="#FFFFFF" width="8.063" height="0.68"/>
				<rect x="27.091" y="277.632" fill="#EBEBEB" width="11.645" height="0.68"/>
			</g>
			<g>
				<rect x="28.88" y="279.833" fill="#EBEBEB" width="8.063" height="0.68"/>
				<rect x="28.88" y="281.953" fill="#EBEBEB" width="8.063" height="0.677"/>
				<rect x="28.88" y="284.24" fill="#EBEBEB" width="8.063" height="0.678"/>
				<rect x="28.88" y="286.274" fill="#EBEBEB" width="8.063" height="0.68"/>
				<rect x="27.091" y="288.222" fill="#EBEBEB" width="11.645" height="0.678"/>
			</g>
			<g>
				<rect x="28.88" y="290.638" fill="#EBEBEB" width="8.063" height="0.678"/>
				<rect x="28.88" y="292.756" fill="#EBEBEB" width="8.063" height="0.677"/>
				<rect x="28.88" y="295.045" fill="#EBEBEB" width="8.063" height="0.677"/>
				<rect x="28.88" y="297.079" fill="#EBEBEB" width="8.063" height="0.677"/>
				<rect x="27.091" y="299.026" fill="#EBEBEB" width="11.645" height="0.676"/>
			</g>
			<g>
				<rect x="28.88" y="300.872" fill="#EBEBEB" width="8.063" height="0.68"/>
				<rect x="28.88" y="302.99" fill="#EBEBEB" width="8.063" height="0.684"/>
				<rect x="28.88" y="305.278" fill="#EBEBEB" width="8.063" height="0.68"/>
				<rect x="28.88" y="307.313" fill="#EBEBEB" width="8.063" height="0.676"/>
				<rect x="27.091" y="309.263" fill="#EBEBEB" width="11.645" height="0.678"/>
			</g>
		</g>
		<path fill="#E0E0E0" d="M146.969,107.597c9.121-5.511,8.408,7.499,15.373,9.195c12.73,3.104,3.627,8.774,4.682,14.148
			c2.206,11.248-11.607,1.744-18.692,0.528c-8.686-1.49-14.307-9.405-8.044-14.178C143.346,114.958,142.83,110.1,146.969,107.597z"
			/>
		<path fill="#E0E0E0" d="M164.278,105.355c2.945-0.716,1.482,2.658,3.153,3.669c3.054,1.854,0.097,2.613-0.152,4.114
			c-0.52,3.143-3.232-0.482-4.982-1.376c-2.144-1.097-2.852-3.64-0.73-4.391C162.603,107.002,162.941,105.678,164.278,105.355z"/>
		<g>
			<rect x="128.056" y="156.492" fill="#FFFFFF" width="50.707" height="46.097"/>
			<g>
				<path fill="#F3726A" d="M179.423,203.187h-52.029v-47.292h52.029V203.187z M128.717,201.99H178.1v-44.896h-49.383V201.99
					L128.717,201.99z"/>
			</g>
			<g>
				<path fill="#F3726A" d="M179.423,145.073h-52.029V97.775h52.029V145.073z M128.717,143.87H178.1V98.976h-49.383V143.87
					L128.717,143.87z"/>
			</g>
			<g>
				<path fill="#F3725F" d="M147.831,178.147c0.783-2.297,2.933-3.609,5.579-3.609s4.793,2.598,4.793,5.005
					c0,2.401-2.146,3.712-4.793,3.712C150.763,183.254,146.671,181.528,147.831,178.147z"/>
				<path fill="#F3725F" d="M147.727,170.586c0.394-1.152,1.466-1.806,2.792-1.806c1.322,0,2.396,1.298,2.396,2.5
					c0,1.205-1.074,1.86-2.396,1.86C149.193,173.14,147.149,172.273,147.727,170.586z"/>
				<path fill="#F3725F" d="M157.84,168.667c0.688-2.013,2.565-3.156,4.881-3.156c2.316,0,4.195,2.269,4.195,4.377
					c0,2.108-1.879,3.251-4.195,3.251C160.407,173.14,156.826,171.626,157.84,168.667z"/>
				<path fill="#F3725F" d="M161.677,179.26c0.295-0.854,1.096-1.343,2.081-1.343c0.986,0,1.787,0.968,1.787,1.864
					s-0.8,1.384-1.787,1.384C162.773,181.165,161.249,180.524,161.677,179.26z"/>
				<path fill="#F3725F" d="M141.883,186.438c0.293-1.133,1.094-1.782,2.08-1.782c0.987,0,1.787,1.284,1.787,2.473
					s-0.8,1.833-1.787,1.833C142.977,188.961,141.453,188.104,141.883,186.438z"/>
				<path fill="#F3725F" d="M159.146,187.281c0.742-0.854,2.037-1.095,3.403-0.706c1.368,0.386,2.099,1.795,1.75,2.813
					c-0.348,1.014-1.646,1.252-3.011,0.865C159.922,189.864,158.062,188.539,159.146,187.281z"/>
				<path fill="#F3725F" d="M137.358,174.771c0.739-0.854,2.034-1.095,3.401-0.707c1.367,0.39,2.099,1.795,1.75,2.813
					c-0.348,1.014-1.647,1.255-3.012,0.865C138.132,177.354,136.27,176.028,137.358,174.771z"/>
			</g>
		</g>
		<g>
			<path fill="#E0E0E0" d="M100.808,105.257H6.945c-0.729,0-1.324-0.544-1.324-1.207v-0.305c0-0.666,0.596-1.208,1.324-1.208h93.862
				c0.73,0,1.327,0.542,1.327,1.208v0.305C102.134,104.713,101.538,105.257,100.808,105.257z"/>
			<path fill="#E0E0E0" d="M100.638,113.715H7.113c-0.819,0-1.492-0.613-1.492-1.355l0,0c0-0.75,0.673-1.362,1.492-1.362h93.524
				c0.823,0,1.495,0.612,1.495,1.362l0,0C102.134,113.102,101.46,113.715,100.638,113.715z"/>
			<path fill="#E0E0E0" d="M100.638,122.177H7.113c-0.819,0-1.492-0.615-1.492-1.36l0,0c0-0.747,0.673-1.358,1.492-1.358h93.524
				c0.823,0,1.495,0.611,1.495,1.358l0,0C102.134,121.561,101.46,122.177,100.638,122.177z"/>
			<path fill="#E0E0E0" d="M100.638,130.633H7.113c-0.819,0-1.492-0.611-1.492-1.357l0,0c0-0.748,0.673-1.358,1.492-1.358h93.524
				c0.823,0,1.495,0.61,1.495,1.358l0,0C102.134,130.022,101.46,130.633,100.638,130.633z"/>
			<path fill="#E0E0E0" d="M100.638,139.093H7.113c-0.819,0-1.492-0.61-1.492-1.358l0,0c0-0.746,0.673-1.356,1.492-1.356h93.524
				c0.823,0,1.495,0.61,1.495,1.356l0,0C102.134,138.482,101.46,139.093,100.638,139.093z"/>
		</g>
		<g>
			<path fill="#E0E0E0" d="M100.638,162.359H7.113c-0.819,0-1.492-0.613-1.492-1.356l0,0c0-0.75,0.673-1.361,1.492-1.361h93.524
				c0.823,0,1.495,0.61,1.495,1.361l0,0C102.134,161.744,101.46,162.359,100.638,162.359z"/>
			<path fill="#E0E0E0" d="M100.638,170.817H7.113c-0.819,0-1.492-0.611-1.492-1.358l0,0c0-0.747,0.673-1.357,1.492-1.357h93.524
				c0.823,0,1.495,0.61,1.495,1.357l0,0C102.134,170.205,101.46,170.817,100.638,170.817z"/>
			<path fill="#E0E0E0" d="M100.638,179.276H7.113c-0.819,0-1.492-0.613-1.492-1.358l0,0c0-0.745,0.673-1.358,1.492-1.358h93.524
				c0.823,0,1.495,0.614,1.495,1.358l0,0C102.134,178.661,101.46,179.276,100.638,179.276z"/>
			<path fill="#E0E0E0" d="M100.638,187.733H7.113c-0.819,0-1.492-0.611-1.492-1.357l0,0c0-0.743,0.673-1.357,1.492-1.357h93.524
				c0.823,0,1.495,0.615,1.495,1.357l0,0C102.134,187.121,101.46,187.733,100.638,187.733z"/>
			<path fill="#E0E0E0" d="M100.638,196.194H7.113c-0.819,0-1.492-0.611-1.492-1.357l0,0c0-0.747,0.673-1.357,1.492-1.357h93.524
				c0.823,0,1.495,0.61,1.495,1.357l0,0C102.134,195.582,101.46,196.194,100.638,196.194z"/>
		</g>
		<g>
			<path fill="#E0E0E0" d="M174.157,295.218H80.632c-0.822,0-1.495-0.609-1.495-1.359l0,0c0-0.744,0.672-1.355,1.495-1.355h93.525
				c0.821,0,1.494,0.611,1.494,1.355l0,0C175.652,294.608,174.978,295.218,174.157,295.218z"/>
			<path fill="#E0E0E0" d="M174.157,303.676H80.632c-0.822,0-1.495-0.61-1.495-1.356l0,0c0-0.746,0.672-1.355,1.495-1.355h93.525
				c0.821,0,1.494,0.609,1.494,1.355l0,0C175.652,303.065,174.978,303.676,174.157,303.676z"/>
			<path fill="#E0E0E0" d="M174.327,312.138H80.463c-0.729,0-1.327-0.543-1.327-1.207v-0.304c0-0.665,0.598-1.207,1.327-1.207
				h93.862c0.729,0,1.326,0.542,1.326,1.207v0.304C175.652,311.595,175.056,312.138,174.327,312.138z"/>
			<path fill="#E0E0E0" d="M174.157,320.597H80.632c-0.822,0-1.495-0.609-1.495-1.361l0,0c0-0.743,0.672-1.356,1.495-1.356h93.525
				c0.821,0,1.494,0.613,1.494,1.356l0,0C175.652,319.987,174.978,320.597,174.157,320.597z"/>
			<path fill="#E0E0E0" d="M174.157,329.056H80.632c-0.822,0-1.495-0.611-1.495-1.359l0,0c0-0.744,0.672-1.359,1.495-1.359h93.525
				c0.821,0,1.494,0.615,1.494,1.359l0,0C175.652,328.444,174.978,329.056,174.157,329.056z"/>
		</g>
		<g>
			<ellipse fill="#F3726A" cx="125.052" cy="251.01" rx="25.792" ry="23.448"/>
			<polygon fill="#FFFFFF" points="142.513,247.003 129.461,247.003 129.461,235.136 120.639,235.136 120.639,247.003 
				107.588,247.003 107.588,255.022 120.639,255.022 120.639,266.885 129.461,266.885 129.461,255.022 142.513,255.022 			"/>
		</g>
	</g>
	<g>
		<path fill="#263238" d="M391.098,190.073c0.969,3.236,1.935,6.466,2.98,9.958c-2.509,0.836-4.254-0.688-6.201-1.196
			c-2.29-6.834-5.158-13.559-6.726-20.529c-1.828-8.092-29.001-8.771-31.779-8.729c0.682-0.984,1.217-1.984,0.482-3.148
			c7.398-0.253,14.798-0.494,22.201-0.763c6.501-0.241,10.583,2.55,12.662,8.079C386.773,179.207,388.969,184.636,391.098,190.073z"
			/>
		<path fill="#263238" d="M317.98,278.151c-0.301,1.902-0.37,3.906-2.695,4.888c-5.47-7.212-6.862-15.856-9.89-23.896
			c-9.902-26.338-19.457-52.783-29.082-79.205c-3.003-8.224-1.69-9.9,7.604-10.456c4.336-0.261,8.663-0.626,12.989-0.952
			c2.71,1.101,6.528-1.626,8.711,2.12c-3.286,1.783-6.845,0.377-10.081,1.141c-4.062-0.142-8.047-0.337-12.158,0.36
			c-3.618,0.614-4.037,1.699-2.981,4.539C292.967,210.495,305.461,244.328,317.98,278.151z"/>
		<path fill="#455B65" d="M295.537,171.791c3.234-0.764,6.793,0.643,10.079-1.141c-2.183-3.747-6.001-1.02-8.711-2.12
			c8.335-3.733,18.601-2.255,26.204-7.996c0.329-0.251,1.17-0.348,1.473-0.148c7.563,5.029,17.292,2.524,25.273,6.041
			c0.733,1.165,0.2,2.165-0.483,3.148c-0.764,1.914-2.149,3.066-4.471,3.324C328.383,174.726,311.909,175.288,295.537,171.791z"/>
		<path fill="#FFFFFF" stroke="#E0E0E0" stroke-miterlimit="10" d="M365.938,168.924c8.773-1.823,13.386,1.289,15.214,9.38
			c1.566,6.973,4.436,13.696,6.726,20.53c-1.189-0.377-2.377-0.774-3.57-1.142c-1.924-0.586-4.028-1.439-5.283,0.809
			c-1.079,1.941,0.114,3.55,1.587,4.925c2.468,2.308,4.982,4.567,7.477,6.845c-8.658,7.496-48.634,43.588-49.48,44.233
			c-8.134,6.244-10.91,16.126-18.625,22.64c-0.544,0.461-1.33,0.678-2,1.008c-12.52-33.821-25.014-67.654-37.585-101.461
			c-1.056-2.84-0.637-3.923,2.981-4.539c4.111-0.698,8.096-0.502,12.158-0.36c16.374,3.498,32.848,2.936,49.365,1.107
			c2.319-0.257,3.707-1.41,4.472-3.324c2.776-0.041,5.559-0.077,8.336-0.117L365.938,168.924z"/>
		<path fill="#E0E0E0" d="M331.597,414.433c1.545-15.238,3.96-27.879,5.312-43.129c1.061-12.002,2.941-23.936,6.02-35.677
			c3.365-4.026,1.589-10.194,6.704-13.478c24.952-15.998,47.054-34.795,67.134-55.67c20.269-21.076,24.212-45.991-5.817-60.006
			c8.262-0.019,16.521-0.031,24.778-0.053c14.224,1.346,28.451,2.689,42.678,4.03c13.581,1.385,26.268,4.383,34.351,15.696
			c4.347,13.734,2.521,27.521-0.562,41.063c-4.526,19.904-12.336,38.878-21.054,57.607c-3.524,7.584-8.455,14.891-9.198,23.436
			c-5.608,13.877-4.951,50.538-5.188,65.146L331.597,414.433z"/>
		<path fill="#263238" d="M432.779,112.796c-7.811-2.409-7.796-7.957-6.249-13.717c2.073-7.74,9.698-13.551,17.522-13.281
			c9.501,0.323,17.915,3.841,25.361,8.956c4.501,3.096,9.028,5.558,14.426,7.417c23.609,8.161,31.145,36.494,14.985,55.036
			c-1.898,2.181-3.957,4.413-6.435,5.973c-9.846,6.206-15.789,14.401-16.749,25.389c-5.589-2.01-11.178-4.021-16.771-6.028
			l0.136,0.058c-0.738-0.627-1.396-1.357-2.219-1.88c-10.03-6.354-11.101-19.045-2.442-27.208c3.662-3.459,5.248-8.201,2.931-12.288
			c-2.68-4.712-2.931-9.74-4.549-14.547C449.224,116.285,444.916,113.32,432.779,112.796z"/>
		<path fill="#FBBF9E" d="M458.872,182.54c5.593,2.01,11.182,4.02,16.771,6.027c1.576,7.23,3.957,14.375,2.765,21.892
			c-14.229-1.347-28.458-2.69-42.681-4.036c0.526-2.738,0.803-5.541,1.638-8.203c2.313-7.363,2.84-12.832-8.064-15.503
			c-7.668-1.879-8.412-9.97-8.977-16.465c-1.627-18.883,0.8-37.08,12.452-53.456c12.141,0.523,16.447,3.489,19.954,13.878
			c1.618,4.807,1.87,9.835,4.549,14.547c2.317,4.087,0.731,8.829-2.931,12.288c-8.657,8.163-7.588,20.854,2.442,27.208
			c0.821,0.521,1.48,1.253,2.217,1.88c-5.018,0.702-10.058,1.271-15.026,2.163c-2.001,0.357-3.955,1.41-3.307,3.863
			c0.326,1.221,1.599,2.438,2.713,1.892c4.067-1.992,8.359-0.793,12.48-1.281C460.066,188.74,461.002,185.947,458.872,182.54z"/>
		<path fill="#FFFFFF" d="M481.94,348.255c0.744-8.545,5.674-15.852,9.198-23.436c8.718-18.729,16.524-37.703,21.054-57.607
			c3.083-13.539,4.907-27.326,0.562-41.063c8.883,4.658,11.296,12.713,12.155,20.949c1.723,16.481-3.41,31.895-9.44,47.299
			c-6.861,17.524-16.216,33.746-27.244,49.295C486.656,345.903,485.156,348.006,481.94,348.255z"/>
		<path fill="#FBBF9E" d="M410.771,206.331c-7.558,1.309-15.118,2.624-22.683,3.938c-2.494-2.275-5.01-4.537-7.478-6.845
			c-1.473-1.375-2.667-2.981-1.588-4.925c1.256-2.249,3.36-1.395,5.284-0.809c1.193,0.365,2.381,0.765,3.571,1.145
			c1.946,0.508,3.69,2.029,6.2,1.193c-1.047-3.492-2.012-6.723-2.98-9.959C400.151,193,407.718,197.409,410.771,206.331z"/>
		<path fill="#F7996E" d="M458.872,182.54c2.13,3.406,1.193,6.199-3.006,6.693c-4.121,0.488-8.412-0.711-12.48,1.281
			c-1.114,0.545-2.386-0.671-2.713-1.892c-0.648-2.453,1.306-3.505,3.307-3.863c4.971-0.892,10.011-1.461,15.026-2.163
			L458.872,182.54z"/>
		<g>
			<path fill="#F3725F" d="M300.863,193.147l0.482,3.315l-2.642,0.149l-1.621-13.398l3.313-0.188l8.251,13.021l-2.712,0.154
				l-2.024-3.229L300.863,193.147z M302.75,190.839l-1.691-2.768c-0.471-0.772-1.076-1.86-1.537-2.653l-0.035,0.002
				c0.143,0.812,0.385,1.938,0.5,2.731l0.405,2.82L302.75,190.839z"/>
			<path fill="#F3725F" d="M307.479,189.409c-0.436-1.156-0.838-2.135-1.205-3.016l2.234-0.125l0.595,1.246l0.053-0.003
				c0.129-0.668,0.68-1.52,1.975-1.593c1.734-0.1,3.377,1.189,4.354,3.796l2.184,5.82l-2.587,0.146l-2.074-5.525
				c-0.411-1.1-1.058-1.9-1.942-1.852c-0.639,0.036-0.862,0.549-0.834,1.108c0.002,0.198,0.077,0.494,0.188,0.789l2.11,5.625
				l-2.588,0.146L307.479,189.409z"/>
			<path fill="#F3725F" d="M325.586,192.763c0.323,0.863,0.676,1.704,0.993,2.268l-2.319,0.133l-0.521-0.952l-0.037,0.002
				c-0.261,0.796-0.93,1.233-1.889,1.289c-1.629,0.092-3.146-1.203-3.734-2.771c-0.939-2.51,0.653-3.76,3.384-3.916l-0.062-0.156
				c-0.219-0.59-0.754-1.239-1.94-1.172c-0.833,0.048-1.537,0.389-1.967,0.793l-1.15-1.815c0.436-0.384,1.375-0.918,2.846-1.001
				c2.818-0.16,4.3,1.717,5.116,3.893L325.586,192.763z M322.21,190.615c-1.223,0.069-2.173,0.483-1.724,1.681
				c0.302,0.803,0.901,1.146,1.434,1.119c0.587-0.033,0.944-0.475,0.896-1.092c-0.018-0.141-0.083-0.314-0.143-0.473L322.21,190.615
				z"/>
			<path fill="#F3725F" d="M325.96,188.36c-0.436-1.155-0.838-2.135-1.204-3.014l2.197-0.125l0.59,1.227l0.054-0.004
				c0.153-0.647,0.615-1.493,1.907-1.567c1.082-0.062,2.1,0.479,2.813,1.421l0.037-0.002c0.123-0.486,0.33-0.9,0.643-1.178
				c0.322-0.301,0.761-0.483,1.362-0.518c1.612-0.093,3.205,1.157,4.211,3.844l2.169,5.781l-2.535,0.145l-2.006-5.352
				c-0.483-1.295-1.112-2.099-1.928-2.053c-0.567,0.032-0.804,0.465-0.767,1.045c0.021,0.198,0.095,0.494,0.189,0.748l2.153,5.743
				l-2.535,0.144l-2.086-5.564c-0.396-1.061-0.996-1.885-1.83-1.837c-0.584,0.032-0.791,0.545-0.776,1.063
				c0.011,0.219,0.096,0.494,0.19,0.75l2.146,5.723l-2.535,0.145L325.96,188.36z"/>
			<path fill="#F3725F" d="M340.243,187.549c-0.433-1.155-0.837-2.134-1.2-3.014l2.23-0.127l0.595,1.245l0.055-0.002
				c0.129-0.67,0.679-1.521,1.973-1.594c1.737-0.099,3.379,1.189,4.356,3.797l2.183,5.819l-2.589,0.146l-2.072-5.524
				c-0.411-1.101-1.059-1.901-1.943-1.853c-0.639,0.035-0.86,0.551-0.834,1.107c0.002,0.2,0.076,0.496,0.188,0.79l2.109,5.625
				l-2.589,0.146L340.243,187.549z"/>
			<path fill="#F3725F" d="M353.016,189.604c0.546,1.313,1.768,1.822,2.957,1.754c0.834-0.047,1.473-0.225,2.022-0.494l1.089,1.938
				c-0.685,0.4-1.638,0.654-2.72,0.716c-2.747,0.156-5.015-1.597-6.133-4.576c-0.999-2.666-0.507-5.215,2.17-5.365
				c2.534-0.145,4.413,1.97,5.36,4.499c0.215,0.567,0.322,1.003,0.376,1.239L353.016,189.604z M355.092,187.467
				c-0.324-0.862-1.033-1.983-2.098-1.924c-1.012,0.058-1.001,1.238-0.738,2.084L355.092,187.467z"/>
			<path fill="#F3725F" d="M360.213,190.558c0.556,0.271,1.606,0.57,2.335,0.529c0.745-0.042,0.986-0.355,0.799-0.867
				c-0.191-0.509-0.553-0.75-1.648-1.107c-1.946-0.608-2.911-1.635-3.309-2.692c-0.662-1.765,0.125-3.188,2.164-3.306
				c0.922-0.053,1.813,0.156,2.432,0.4l0.289,2.026c-0.453-0.194-1.192-0.435-1.851-0.396c-0.64,0.037-0.875,0.369-0.698,0.84
				c0.168,0.451,0.559,0.668,1.72,1.063c1.773,0.58,2.772,1.505,3.257,2.798c0.692,1.842-0.104,3.147-2.39,3.277
				c-1.013,0.059-2.064-0.145-2.796-0.502L360.213,190.558z"/>
			<path fill="#F3725F" d="M365.498,181.831c-0.797,0.045-1.563-0.553-1.872-1.375c-0.322-0.862,0-1.501,0.813-1.547
				c0.798-0.047,1.558,0.531,1.898,1.393c0.308,0.823-0.007,1.481-0.82,1.528L365.498,181.831z M368.278,192.662l-3.596-9.583
				l2.588-0.146l3.596,9.582L368.278,192.662z"/>
			<path fill="#F3725F" d="M371.909,189.894c0.553,0.271,1.607,0.57,2.333,0.529c0.746-0.042,0.988-0.355,0.797-0.867
				c-0.189-0.509-0.552-0.75-1.646-1.105c-1.948-0.61-2.911-1.637-3.309-2.694c-0.662-1.764,0.125-3.188,2.163-3.305
				c0.921-0.054,1.813,0.155,2.432,0.399l0.289,2.026c-0.453-0.194-1.193-0.435-1.851-0.396c-0.639,0.037-0.875,0.369-0.697,0.841
				c0.168,0.45,0.559,0.669,1.719,1.063c1.773,0.58,2.772,1.505,3.258,2.798c0.69,1.842-0.104,3.147-2.392,3.277
				c-1.011,0.059-2.063-0.145-2.794-0.502L371.909,189.894z"/>
		</g>
		<g>
			<path fill="#455B65" d="M308.438,210.551l65.484-2.248c0.574-0.021,0.67-0.88,0.204-1.911l0,0
				c-0.463-1.031-1.307-1.863-1.887-1.842l-65.479,2.243c-0.578,0.021-0.67,0.879-0.208,1.915l0,0
				C307.017,209.74,307.863,210.567,308.438,210.551z"/>
			<path fill="#455B65" d="M313.668,222.24l65.479-2.244c0.579-0.022,0.671-0.884,0.207-1.915l0,0
				c-0.463-1.032-1.31-1.861-1.885-1.844l-65.481,2.248c-0.579,0.018-0.672,0.881-0.212,1.91l0,0
				C312.243,221.429,313.09,222.26,313.668,222.24z"/>
			<path fill="#455B65" d="M318.779,233.933l65.72-2.252c0.514-0.017,0.593-0.783,0.182-1.699l-0.19-0.422
				c-0.405-0.916-1.16-1.647-1.669-1.636l-65.721,2.255c-0.514,0.016-0.596,0.778-0.187,1.698l0.189,0.426
				C317.516,233.214,318.267,233.953,318.779,233.933z"/>
			<path fill="#455B65" d="M324.126,245.621l65.482-2.246c0.574-0.021,0.666-0.882,0.205-1.915l0,0
				c-0.459-1.029-1.31-1.857-1.885-1.842l-65.485,2.244c-0.573,0.021-0.668,0.882-0.206,1.914l0,0
				C322.7,244.812,323.549,245.638,324.126,245.621z"/>
		</g>
		<path fill="#FFFFFF" stroke="#E0E0E0" stroke-miterlimit="10" d="M410.947,206.476c30.029,14.015,26.086,38.93,5.817,60.006
			c-20.08,20.875-42.183,39.672-67.134,55.67c-5.113,3.281-3.34,9.449-6.704,13.478c-10.621-0.935-21.393-1.515-31.561-4.471
			c-12.792-3.714-16.629-12.7-10.969-24.88c3.853-8.287,11.123-14.854,14.887-23.239c2.325-0.979,2.396-2.983,2.695-4.888
			c0.67-0.33,1.456-0.547,2-1.008c13.638-24.826,59.447-59.377,68.109-66.877c7.561-1.312,15.123-2.627,22.679-3.936
			L410.947,206.476z"/>
	</g>
</g>
</svg>
