<?xml version="1.0" encoding="utf-8"?>
<!-- Generator: Adobe Illustrator 16.0.3, SVG Export Plug-In . SVG Version: 6.00 Build 0)  -->
<!DOCTYPE svg PUBLIC "-//W3C//DTD SVG 1.1//EN" "http://www.w3.org/Graphics/SVG/1.1/DTD/svg11.dtd">
<svg version="1.1" id="Layer_1" xmlns="http://www.w3.org/2000/svg" xmlns:xlink="http://www.w3.org/1999/xlink" x="0px" y="0px"
	 width="550px" height="382.418px" viewBox="-25 0 550 382.418" enable-background="new -25 0 550 382.418" xml:space="preserve">
<g>
	<path fill="#E0E0E0" d="M314.029,168.573l-1.595,1.593c-0.248,0.248-0.646,0.248-0.894,0l-1.593-1.593
		c-3.13-3.129-8.222-3.5-11.543-0.58c-3.642,3.199-3.778,8.752-0.402,12.122l2.238,2.241l10.853,10.852
		c0.495,0.495,1.297,0.495,1.789,0l10.852-10.852l2.241-2.241c3.372-3.37,3.239-8.923-0.403-12.122
		C322.247,165.073,317.156,165.444,314.029,168.573z"/>
	<g>
		<circle fill="#FFFFFF" cx="91.463" cy="344.126" r="20.427"/>
		<path fill="#E0E0E0" d="M91.464,365.651c-11.87,0-21.526-9.654-21.526-21.524s9.656-21.526,21.526-21.526
			s21.526,9.655,21.526,21.525S103.333,365.651,91.464,365.651z M91.464,324.8c-10.657,0-19.327,8.67-19.327,19.326
			c0,10.654,8.67,19.325,19.327,19.325s19.326-8.671,19.326-19.325C110.791,333.47,102.122,324.8,91.464,324.8z"/>
	</g>
	<g>
		<circle fill="#FFFFFF" cx="184.892" cy="59.241" r="8.536"/>
		<path fill="#E0E0E0" d="M184.892,68.878c-5.313,0-9.636-4.323-9.636-9.637c0-5.313,4.323-9.636,9.636-9.636
			c5.313,0,9.636,4.323,9.636,9.636C194.528,64.555,190.205,68.878,184.892,68.878z M184.892,51.805
			c-4.101,0-7.436,3.335-7.436,7.436c0,4.102,3.336,7.437,7.436,7.437c4.101,0,7.437-3.335,7.437-7.437
			C192.328,55.142,188.992,51.805,184.892,51.805z"/>
	</g>
	<g>
		<circle fill="#FFFFFF" cx="3.604" cy="79.49" r="27.504"/>
		<path fill="#E0E0E0" d="M3.605,108.096C-12.167,108.096-25,95.263-25,79.49c0-15.771,12.833-28.604,28.604-28.604
			S32.207,63.718,32.207,79.49C32.208,95.263,19.377,108.096,3.605,108.096z M3.605,53.087c-14.56,0-26.405,11.844-26.405,26.403
			c0,14.56,11.846,26.404,26.405,26.404S30.007,94.049,30.007,79.49C30.007,64.931,18.164,53.087,3.605,53.087z"/>
	</g>
	<g>
		<g>
			<path fill="#E0E0E0" d="M134.922,285.622l15.146-45.465c0.104-0.309,0.438-0.479,0.745-0.375l12.283,4.093
				c0.308,0.103,0.476,0.437,0.372,0.746l-15.147,45.466c-0.102,0.309-0.436,0.477-0.743,0.371l-12.283-4.089
				C134.986,286.265,134.818,285.933,134.922,285.622z"/>
			<g>
				<circle fill="#FFFFFF" cx="158.593" cy="247.989" r="0.889"/>
				<circle fill="#FFFFFF" cx="156.38" cy="254.631" r="0.889"/>
				<circle fill="#FFFFFF" cx="151.949" cy="245.775" r="0.887"/>
				<circle fill="#FFFFFF" cx="149.736" cy="252.418" r="0.888"/>
				<path fill="#FFFFFF" d="M155.006,250.483c0.155-0.463-0.097-0.969-0.563-1.125c-0.464-0.151-0.968,0.1-1.123,0.566
					c-0.153,0.463,0.098,0.969,0.563,1.121C154.348,251.202,154.852,250.948,155.006,250.483z"/>
				<g>
					<circle fill="#FFFFFF" cx="148.654" cy="277.825" r="0.888"/>
					<circle fill="#FFFFFF" cx="146.439" cy="284.468" r="0.888"/>
					<circle fill="#FFFFFF" cx="142.01" cy="275.61" r="0.888"/>
					<path fill="#FFFFFF" d="M140.639,282.535c0.155-0.468-0.097-0.97-0.562-1.124c-0.466-0.155-0.97,0.097-1.124,0.564
						c-0.155,0.459,0.097,0.967,0.563,1.121C139.98,283.25,140.485,282.999,140.639,282.535z"/>
					<path fill="#FFFFFF" d="M145.066,280.319c0.156-0.463-0.098-0.967-0.562-1.125c-0.466-0.152-0.969,0.101-1.122,0.563
						c-0.156,0.466,0.097,0.97,0.561,1.124C144.409,281.037,144.911,280.781,145.066,280.319z"/>
				</g>
				<path fill="#E0E0E0" d="M154.465,263.188c0.155-0.467-0.097-0.971-0.562-1.125c-0.466-0.156-0.97,0.1-1.123,0.563
					c-0.153,0.462,0.098,0.97,0.563,1.123C153.806,263.903,154.311,263.653,154.465,263.188z"/>
				<path fill="#E0E0E0" d="M152.253,269.831c0.154-0.465-0.098-0.971-0.563-1.126c-0.465-0.153-0.968,0.101-1.123,0.565
					c-0.153,0.461,0.098,0.965,0.563,1.119C151.594,270.544,152.098,270.294,152.253,269.831z"/>
				<circle fill="#E0E0E0" cx="146.979" cy="260.694" r="0.889"/>
				<circle fill="#E0E0E0" cx="144.766" cy="267.336" r="0.888"/>
				<circle fill="#E0E0E0" cx="149.194" cy="265.12" r="0.887"/>
			</g>
		</g>
		<g>
			<g>
				<path fill="#E0E0E0" d="M169.695,279.394l-45.464-15.147c-0.311-0.101-0.477-0.435-0.373-0.744l4.092-12.278
					c0.104-0.313,0.437-0.477,0.747-0.373l45.465,15.146c0.309,0.106,0.476,0.438,0.373,0.746l-4.091,12.28
					C170.338,279.331,170.003,279.496,169.695,279.394z"/>
			</g>
			<path fill="#E0E0E0" d="M153.52,272.231l-12.05-4.014c-0.098-0.031-0.152-0.138-0.12-0.234l3.283-9.853
				c0.032-0.1,0.138-0.155,0.235-0.12l12.051,4.014c0.098,0.031,0.15,0.139,0.119,0.236l-3.282,9.854
				C153.723,272.212,153.617,272.265,153.52,272.231z"/>
			<g>
				<circle fill="#FFFFFF" cx="132.063" cy="255.723" r="0.89"/>
				<circle fill="#FFFFFF" cx="138.706" cy="257.937" r="0.888"/>
				<circle fill="#FFFFFF" cx="129.849" cy="262.365" r="0.889"/>
				<circle fill="#FFFFFF" cx="136.492" cy="264.579" r="0.888"/>
				<circle fill="#FFFFFF" cx="134.277" cy="260.15" r="0.889"/>
				<g>
					<circle fill="#FFFFFF" cx="161.897" cy="265.663" r="0.888"/>
					<circle fill="#FFFFFF" cx="168.541" cy="267.876" r="0.889"/>
					<circle fill="#FFFFFF" cx="159.685" cy="272.305" r="0.889"/>
					<circle fill="#FFFFFF" cx="166.328" cy="274.519" r="0.889"/>
					<path fill="#FFFFFF" d="M164.394,269.247c-0.465-0.153-0.97,0.097-1.125,0.563c-0.155,0.469,0.1,0.972,0.563,1.125
						c0.464,0.15,0.968-0.097,1.123-0.563C165.11,269.907,164.858,269.401,164.394,269.247z"/>
				</g>
				<circle fill="#FFFFFF" cx="146.981" cy="260.693" r="0.888"/>
				<path fill="#FFFFFF" d="M153.904,262.063c-0.466-0.156-0.97,0.1-1.125,0.563c-0.154,0.462,0.099,0.97,0.563,1.123
					c0.463,0.153,0.968-0.097,1.123-0.562C154.62,262.722,154.368,262.218,153.904,262.063z"/>
				<circle fill="#FFFFFF" cx="144.766" cy="267.335" r="0.889"/>
				<path fill="#FFFFFF" d="M151.689,268.705c-0.465-0.153-0.968,0.101-1.123,0.565c-0.155,0.461,0.098,0.967,0.563,1.119
					c0.464,0.157,0.968-0.094,1.123-0.559S152.156,268.86,151.689,268.705z"/>
				<circle fill="#FFFFFF" cx="149.194" cy="265.12" r="0.889"/>
			</g>
		</g>
	</g>
	<g>
		<g>
			<line fill="none" x1="149.789" y1="83.995" x2="180.162" y2="103.073"/>
			
				<rect x="147.039" y="92.434" transform="matrix(0.8468 0.5319 -0.5319 0.8468 75.024 -73.4205)" fill="#E0E0E0" width="35.868" height="2.201"/>
		</g>
		<g>
			<path fill="#FFFFFF" d="M144.553,85.453l4.277-6.81c0.043-0.07,0.021-0.161-0.046-0.205l-4.818-3.026l-4.437,7.063l4.816,3.025
				C144.417,85.544,144.509,85.526,144.553,85.453z"/>
			<path fill="#E0E0E0" d="M144.659,78.445l1.217,0.765l-2.096,3.336l-1.217-0.764L144.659,78.445 M143.966,75.413l-4.437,7.063
				l4.816,3.025c0.025,0.015,0.053,0.023,0.081,0.023c0.048,0,0.097-0.024,0.126-0.071l4.277-6.81
				c0.043-0.07,0.021-0.161-0.046-0.205L143.966,75.413L143.966,75.413z"/>
		</g>
		<g>
			<polygon fill="#FFFFFF" points="151.927,85.777 152.322,85.145 148.155,79.719 145.229,84.378 			"/>
			<polygon fill="#E0E0E0" points="148.155,79.719 145.229,84.378 151.927,85.777 152.322,85.145 			"/>
		</g>
		<g>
			<path fill="#FFFFFF" d="M92.482,57.171l8.263-13.151l44.806,28.14c0.358,0.225,0.464,0.694,0.24,1.052l-7.449,11.864
				c-0.225,0.357-0.697,0.464-1.052,0.239L92.482,57.171z"/>
			<path fill="#E0E0E0" d="M137.694,86.533c-0.352,0-0.693-0.099-0.991-0.288L90.965,57.518l9.433-15.014l45.738,28.726
				c0.421,0.264,0.714,0.677,0.825,1.161c0.11,0.486,0.025,0.986-0.239,1.407l-7.449,11.864
				C138.93,86.206,138.34,86.533,137.694,86.533z M93.999,56.824l43.59,27.38l7.09-11.293l-43.588-27.375L93.999,56.824z"/>
		</g>
		<g>
			<path fill="#FFFFFF" d="M88.477,59.625l12.738-20.278c0.071-0.118,0.225-0.153,0.341-0.08l2.095,1.316
				c0.117,0.071,0.15,0.226,0.079,0.345L90.993,61.204c-0.073,0.117-0.228,0.152-0.344,0.081l-2.093-1.317
				C88.439,59.893,88.404,59.741,88.477,59.625z"/>
			<path fill="#E0E0E0" d="M101.424,39.23c-0.083,0-0.163,0.042-0.209,0.117L88.477,59.625c-0.074,0.116-0.038,0.269,0.079,0.343
				l2.092,1.317c0.041,0.025,0.086,0.038,0.131,0.038c0.083,0,0.165-0.042,0.213-0.117l12.737-20.276
				c0.071-0.118,0.039-0.274-0.079-0.345l-2.095-1.316C101.516,39.242,101.469,39.23,101.424,39.23L101.424,39.23z"/>
		</g>
		<g>
			<path fill="#FFFFFF" d="M76.343,47.448l8.632-13.745c0.073-0.117,0.228-0.15,0.344-0.081l2.093,1.316
				c0.115,0.074,0.151,0.228,0.08,0.344l-8.634,13.744c-0.071,0.116-0.228,0.153-0.343,0.08l-2.094-1.317
				C76.306,47.717,76.271,47.565,76.343,47.448z"/>
			<path fill="#E0E0E0" d="M85.187,33.586c-0.083,0-0.164,0.042-0.211,0.117l-8.633,13.745c-0.072,0.117-0.038,0.27,0.079,0.342
				l2.094,1.317c0.041,0.026,0.086,0.039,0.131,0.039c0.082,0,0.164-0.042,0.211-0.117l8.634-13.742
				c0.071-0.117,0.037-0.271-0.08-0.345l-2.093-1.316C85.277,33.599,85.232,33.586,85.187,33.586L85.187,33.586z"/>
		</g>
		<g>
			
				<rect x="83.749" y="38.919" transform="matrix(-0.5319 0.8468 -0.8468 -0.5319 175.138 -5.1924)" fill="#FFFFFF" width="10.509" height="13.783"/>
			<path fill="#E0E0E0" d="M86.661,40.738l7.946,4.991l-3.249,5.174l-7.946-4.992L86.661,40.738 M85.968,37.704l-5.59,8.901
				l11.674,7.331l5.589-8.9L85.968,37.704L85.968,37.704z"/>
		</g>
		<g>
			<g>
				<line fill="none" x1="135.377" y1="76.379" x2="131.893" y2="81.927"/>
				
					<rect x="132.536" y="75.86" transform="matrix(0.8468 0.532 -0.532 0.8468 62.5726 -58.9623)" fill="#E0E0E0" width="2.199" height="6.55"/>
			</g>
			<g>
				<line fill="none" x1="127.035" y1="71.139" x2="123.55" y2="76.687"/>
				
					<rect x="124.196" y="70.632" transform="matrix(0.8466 0.5323 -0.5323 0.8466 58.5624 -55.352)" fill="#E0E0E0" width="2.2" height="6.551"/>
			</g>
			<g>
				<line fill="none" x1="118.693" y1="65.898" x2="115.208" y2="71.448"/>
				
					<rect x="115.854" y="65.389" transform="matrix(0.8469 0.5318 -0.5318 0.8469 54.4244 -51.6806)" fill="#E0E0E0" width="2.199" height="6.552"/>
			</g>
			<g>
				<line fill="none" x1="110.351" y1="60.659" x2="106.866" y2="66.208"/>
				
					<rect x="107.512" y="60.16" transform="matrix(0.8466 0.5322 -0.5322 0.8466 50.4133 -48.0697)" fill="#E0E0E0" width="2.198" height="6.552"/>
			</g>
			<g>
				<line fill="none" x1="102.007" y1="55.42" x2="98.522" y2="60.968"/>
				
					<rect x="99.17" y="54.907" transform="matrix(0.8469 0.5318 -0.5318 0.8469 46.2903 -44.4109)" fill="#E0E0E0" width="2.2" height="6.551"/>
			</g>
		</g>
	</g>
	<g>
		<g>
			<g>
				<path fill="#FFFFFF" d="M42.818,226.108l-2.583-5.221l-21.097,10.445l2.585,5.221c0.63,1.271,0.11,2.812-1.161,3.438L19,240.767
					c-1.695,0.84-2.39,2.896-1.55,4.592l19.946,40.277c0.838,1.697,2.894,2.393,4.588,1.553l28.821-14.272
					c1.696-0.84,2.389-2.894,1.55-4.589L52.41,228.045c-0.841-1.696-2.896-2.392-4.591-1.551l-1.56,0.774
					C44.988,227.897,43.45,227.378,42.818,226.108z"/>
				<path fill="#E0E0E0" d="M39.239,223.835l1.609,3.252c0.813,1.635,2.45,2.648,4.276,2.648c0.727,0,1.457-0.17,2.114-0.496
					l1.56-0.773c0.172-0.083,0.353-0.126,0.54-0.126c0.369,0,0.852,0.179,1.101,0.685l19.945,40.279
					c0.146,0.295,0.167,0.625,0.063,0.937c-0.104,0.311-0.322,0.561-0.617,0.707l-28.82,14.27c-0.171,0.084-0.354,0.128-0.541,0.128
					c-0.368,0-0.849-0.181-1.099-0.686l-19.947-40.276c-0.3-0.608-0.05-1.345,0.555-1.646l1.561-0.771
					c1.142-0.564,1.993-1.542,2.401-2.748c0.407-1.207,0.32-2.5-0.245-3.64l-1.607-3.248L39.239,223.835 M40.234,220.888
					l-21.097,10.445l2.585,5.221c0.63,1.271,0.11,2.812-1.161,3.438L19,240.767c-1.695,0.84-2.39,2.896-1.55,4.592l19.946,40.277
					c0.597,1.209,1.812,1.907,3.071,1.907c0.51,0,1.029-0.114,1.518-0.354l28.821-14.272c1.696-0.84,2.389-2.894,1.55-4.589
					l-19.944-40.281c-0.599-1.208-1.813-1.906-3.072-1.906c-0.51,0-1.029,0.113-1.517,0.355l-1.561,0.773
					c-0.367,0.182-0.755,0.268-1.138,0.268c-0.946,0-1.856-0.523-2.306-1.428L40.234,220.888L40.234,220.888z"/>
			</g>
			<g>
				
					<rect x="25.353" y="243.778" transform="matrix(0.8962 -0.4437 0.4437 0.8962 -109.2722 46.5632)" fill="#E0E0E0" width="39.014" height="25.994"/>
				<path fill="#E0E0E0" d="M32.655,278.543l-12.509-25.265l36.932-18.288l12.51,25.266L32.655,278.543z M23.094,254.274
					l10.558,21.322l32.988-16.336l-10.559-21.322L23.094,254.274z"/>
			</g>
			<path fill="#FFFFFF" d="M49.228,252.147l-2.652,1.313c-0.394,0.192-0.87,0.032-1.063-0.358l-1.313-2.653
				c-0.195-0.394-0.672-0.554-1.065-0.36l-2.529,1.256c-0.393,0.191-0.554,0.668-0.358,1.063l1.313,2.653
				c0.194,0.392,0.034,0.867-0.358,1.062l-2.654,1.315c-0.392,0.193-0.552,0.67-0.357,1.063l1.252,2.529
				c0.195,0.393,0.67,0.553,1.063,0.356l2.654-1.313c0.393-0.193,0.868-0.032,1.063,0.358l1.315,2.653
				c0.192,0.392,0.669,0.554,1.063,0.358l2.529-1.254c0.393-0.194,0.554-0.668,0.357-1.063l-1.313-2.649
				c-0.194-0.396-0.033-0.871,0.36-1.063l2.653-1.315c0.394-0.193,0.554-0.67,0.359-1.064l-1.254-2.529
				C50.098,252.114,49.622,251.952,49.228,252.147z"/>
		</g>
		<g>
			<path fill="#FFFFFF" d="M43.96,223.942l-24.651,12.209c-0.221,0.109-0.489,0.021-0.6-0.202l-3.485-7.039
				c-0.11-0.222-0.02-0.491,0.203-0.601l24.652-12.207c0.22-0.109,0.489-0.02,0.6,0.203l3.486,7.041
				C44.273,223.565,44.185,223.836,43.96,223.942z"/>
			<path fill="#E0E0E0" d="M19.11,237.297c-0.59,0-1.121-0.328-1.385-0.856l-3.486-7.043c-0.184-0.365-0.212-0.785-0.079-1.18
				c0.132-0.393,0.41-0.711,0.78-0.895l24.65-12.206c0.75-0.366,1.705-0.042,2.074,0.7l3.485,7.041
				c0.187,0.375,0.212,0.8,0.074,1.192c-0.136,0.394-0.417,0.708-0.792,0.886l-24.636,12.201
				C19.587,237.24,19.349,237.297,19.11,237.297z M16.5,229.004l2.905,5.871l23.482-11.627l-2.906-5.871L16.5,229.004z"/>
		</g>
	</g>
	<g>
		<g>
			<g>
				<path fill="#FFFFFF" d="M521.242,228.013c-6.615,12.168-18.713,18.368-27.019,13.855c-8.306-4.516-9.678-18.04-3.063-30.209"/>
				<path fill="#E0E0E0" d="M500.15,244.426c-2.276,0-4.465-0.513-6.451-1.591c-8.822-4.8-10.396-19.021-3.503-31.701l1.935,1.051
					c-6.314,11.616-5.14,24.498,2.62,28.717c7.762,4.223,19.213-1.801,25.525-13.414l1.935,1.052
					C516.867,238.364,507.985,244.426,500.15,244.426z"/>
			</g>
			<g>
				<g>
					<path fill="#FFFFFF" d="M495.264,207.353c0.223-0.414-0.003-0.931-0.454-1.047c-1.653-0.439-3.451,0.286-4.305,1.854
						c-0.852,1.567-0.483,3.47,0.777,4.618c0.35,0.315,0.905,0.229,1.129-0.187L495.264,207.353z"/>
					<path fill="#E0E0E0" d="M493.84,206.179c-1.346,0-2.646,0.717-3.335,1.981c-0.852,1.567-0.483,3.47,0.777,4.618
						c0.144,0.13,0.318,0.19,0.492,0.19c0.254,0,0.504-0.131,0.637-0.377l2.853-5.239c0.223-0.416-0.003-0.932-0.454-1.049
						C494.489,206.22,494.163,206.179,493.84,206.179L493.84,206.179z"/>
				</g>
				<g>
					<path fill="#FFFFFF" d="M522.632,222.231c0.223-0.414,0.775-0.502,1.126-0.186c1.264,1.146,1.634,3.053,0.78,4.619
						c-0.853,1.568-2.65,2.294-4.301,1.857c-0.455-0.123-0.683-0.637-0.458-1.051L522.632,222.231z"/>
					<path fill="#E0E0E0" d="M523.266,221.856c-0.253,0-0.502,0.129-0.634,0.375l-2.853,5.242c-0.225,0.416,0.003,0.928,0.458,1.051
						c0.318,0.082,0.644,0.123,0.965,0.123c1.347,0,2.647-0.715,3.337-1.981c0.853-1.567,0.481-3.474-0.781-4.619
						C523.615,221.916,523.439,221.856,523.266,221.856L523.266,221.856z"/>
				</g>
			</g>
		</g>
		<g>
			<g>
				<path fill="#FFFFFF" d="M494.225,241.868c0,0-20.769,15.945-12.836,40.876c10.922,34.313-11.051,47.356-11.051,47.356"/>
				<path fill="#E0E0E0" d="M470.9,331.046l-1.125-1.893c0.865-0.519,21.074-13.06,10.566-46.076
					c-8.073-25.372,12.998-41.918,13.213-42.082l1.341,1.744c-0.201,0.154-20.054,15.792-12.457,39.67
					C493.495,317.156,471.127,330.91,470.9,331.046z"/>
			</g>
			<g>
				<path fill="#FFFFFF" d="M480.635,263.044c-1.422,5.646-1.605,12.273,0.756,19.7c10.921,34.313-11.052,47.356-11.052,47.356"/>
				<path fill="#E0E0E0" d="M470.9,331.046l-1.125-1.893c0.865-0.519,21.074-13.06,10.566-46.076
					c-2.181-6.855-2.44-13.688-0.773-20.303l2.132,0.537c-1.563,6.211-1.314,12.638,0.737,19.098
					C493.495,317.156,471.127,330.91,470.9,331.046z"/>
			</g>
			<g>
				<g>
					<circle fill="#FFFFFF" cx="470.131" cy="330.555" r="5.323"/>
					<path fill="#E0E0E0" d="M470.138,336.981c-0.431,0-0.862-0.045-1.286-0.131c-1.681-0.344-3.129-1.317-4.076-2.748
						c-0.946-1.431-1.281-3.146-0.938-4.826c0.604-2.98,3.25-5.146,6.29-5.146c0.429,0,0.859,0.043,1.284,0.129
						c1.681,0.345,3.129,1.318,4.075,2.748c0.946,1.431,1.28,3.146,0.938,4.828C475.821,334.817,473.177,336.981,470.138,336.981z
						 M470.127,326.331c-1.997,0-3.736,1.422-4.136,3.383c-0.225,1.104-0.007,2.23,0.617,3.174c0.622,0.938,1.575,1.581,2.683,1.807
						c2.264,0.469,4.523-1.06,4.977-3.297c0.226-1.106,0.008-2.233-0.615-3.174c-0.622-0.939-1.574-1.582-2.68-1.808
						C470.694,326.36,470.407,326.331,470.127,326.331z"/>
				</g>
				<g>
					<path fill="#FFFFFF" d="M473.602,331.263c-0.39,1.916-2.261,3.152-4.18,2.766c-1.913-0.391-3.151-2.262-2.764-4.18
						c0.393-1.914,2.26-3.152,4.178-2.763C472.753,327.474,473.99,329.345,473.602,331.263z"/>
					<path fill="#E0E0E0" d="M470.131,335.198c-0.31,0-0.621-0.031-0.927-0.092c-2.508-0.514-4.134-2.971-3.622-5.479
						c0.438-2.154,2.352-3.716,4.545-3.716c0.311,0,0.621,0.032,0.929,0.095c2.508,0.508,4.133,2.962,3.625,5.473
						C474.241,333.636,472.328,335.198,470.131,335.198z M470.127,328.114c-1.152,0-2.157,0.822-2.39,1.955
						c-0.268,1.318,0.585,2.611,1.904,2.881c1.325,0.261,2.617-0.618,2.881-1.908c0.269-1.318-0.588-2.609-1.906-2.878
						C470.452,328.13,470.288,328.114,470.127,328.114z"/>
				</g>
			</g>
		</g>
	</g>
	<g>
		<path fill="#FFFFFF" d="M506.644,146.497l-1.442,1.444c-0.225,0.223-0.586,0.223-0.808,0l-1.445-1.444
			c-2.832-2.834-7.447-3.171-10.457-0.525c-3.3,2.897-3.422,7.929-0.362,10.982l2.025,2.029l9.833,9.833
			c0.447,0.449,1.171,0.449,1.62,0l9.831-9.833l2.031-2.029c3.056-3.056,2.936-8.086-0.363-10.982
			C514.095,143.326,509.479,143.661,506.644,146.497z"/>
		<path fill="#E0E0E0" d="M504.797,170.253c-0.6,0-1.163-0.234-1.586-0.658l-11.86-11.864c-1.68-1.679-2.6-4.003-2.523-6.379
			c0.077-2.408,1.121-4.612,2.938-6.209c1.524-1.339,3.507-2.079,5.579-2.079c2.37,0,4.696,0.967,6.383,2.653l1.072,1.07l1.068-1.07
			c1.686-1.687,4.013-2.653,6.387-2.653c2.07,0,4.054,0.738,5.579,2.079c1.814,1.595,2.858,3.8,2.937,6.208
			c0.077,2.376-0.843,4.701-2.521,6.381l-11.862,11.863C505.961,170.019,505.396,170.253,504.797,170.253z M497.344,145.266
			c-1.538,0-3.003,0.545-4.127,1.532c-1.355,1.191-2.135,2.833-2.192,4.626c-0.059,1.796,0.61,3.483,1.881,4.753l11.893,11.876
			c0.02,0,0.027-0.01,0.031-0.014l11.862-11.862c1.27-1.27,1.938-2.958,1.88-4.755c-0.06-1.792-0.838-3.435-2.19-4.625
			c-1.124-0.988-2.592-1.533-4.128-1.533c-1.794,0-3.554,0.732-4.83,2.009l-1.443,1.444c-0.641,0.636-1.734,0.63-2.363,0
			l-1.443-1.444C500.896,145.997,499.136,145.266,497.344,145.266z"/>
	</g>
	<g>
		<g>
			<path fill="#FFFFFF" d="M475.448,90.84l-9.617,4.79c-3.963,1.973-8.775,0.362-10.746-3.601l0,0
				c-1.977-3.964-0.363-8.776,3.598-10.749l9.619-4.79L475.448,90.84z"/>
			<path fill="#E0E0E0" d="M462.264,97.573c-3.486,0-6.614-1.938-8.165-5.056c-1.085-2.178-1.258-4.65-0.484-6.959
				s2.4-4.178,4.579-5.262l10.604-5.282l8.128,16.317l-10.603,5.282C465.046,97.249,463.68,97.573,462.264,97.573z M467.808,77.965
				l-8.634,4.301c-1.654,0.823-2.888,2.24-3.475,3.992c-0.587,1.751-0.456,3.626,0.368,5.28c1.177,2.364,3.551,3.835,6.195,3.835
				c1.074,0,2.107-0.246,3.076-0.727l8.635-4.301L467.808,77.965z"/>
		</g>
		<g>
			<path fill="#E0E0E0" d="M487.905,86.625l-11.664,5.809l-8.661-17.398l11.659-5.808c4.805-2.392,10.643-0.437,13.03,4.367l0,0
				C494.662,78.398,492.711,84.232,487.905,86.625z"/>
			<path fill="#E0E0E0" d="M483.565,70.407L483.565,70.407c2.876,0,5.456,1.597,6.735,4.17c0.895,1.797,1.037,3.834,0.398,5.739
				c-0.637,1.904-1.979,3.445-3.775,4.341l-9.693,4.828l-6.702-13.46l9.69-4.827C481.274,70.673,482.398,70.407,483.565,70.407
				 M483.565,68.207c-1.456,0-2.935,0.329-4.326,1.021l-11.659,5.808l8.661,17.398l11.664-5.809
				c4.805-2.393,6.758-8.227,4.364-13.031C490.572,70.182,487.136,68.207,483.565,68.207L483.565,68.207z"/>
		</g>
	</g>
	<g>
		<g>
			<path fill="#FFFFFF" d="M395.957,313.161c-5.726-5.734-13.11-5.401-13.11-5.401s-4.309-6.01-12.356-6.959
				c-6.899-0.81-13.699,2.599-17.709,8.462c-4.258,6.225-7.341,16.979,1.629,33.159c0.706,1.271,1.785,2.284,3.078,2.914
				c1.079,0.521,2.274,0.761,3.479,0.688l3.403-0.196l1.947,2.795c0.69,0.987,1.62,1.782,2.697,2.304
				c1.295,0.631,2.758,0.852,4.188,0.618c18.265-2.964,24.806-12.04,27.064-19.233C402.393,325.533,400.863,318.08,395.957,313.161z
				"/>
			<path fill="#E0E0E0" d="M372.08,352.735c-1.22,0-2.446-0.283-3.549-0.816c-1.243-0.604-2.32-1.525-3.118-2.664l-1.597-2.292
				l-2.788,0.16c-1.358,0.078-2.775-0.194-4.019-0.796c-1.517-0.737-2.745-1.902-3.563-3.371
				c-9.267-16.716-5.973-27.889-1.577-34.314c3.882-5.672,10.083-9.059,16.596-9.059c0.716,0,1.439,0.041,2.149,0.125
				c7.203,0.85,11.535,5.461,12.767,6.954c1.861,0.049,8.245,0.606,13.354,5.721c5.128,5.146,6.884,12.908,4.578,20.257
				c-2.333,7.432-9.072,16.93-27.936,19.991C372.952,352.7,372.516,352.735,372.08,352.735z M364.922,344.696l2.299,3.3
				c0.579,0.831,1.366,1.503,2.273,1.942c1.09,0.531,2.344,0.717,3.532,0.521c17.758-2.881,24.044-11.639,26.192-18.479
				c2.059-6.566,0.512-13.479-4.039-18.043c-4.83-4.836-10.929-5.082-12.104-5.082l-0.774,0.027l-0.349-0.482
				c-0.04-0.055-4.147-5.629-11.593-6.508c-0.626-0.072-1.264-0.111-1.895-0.111c-5.784,0-11.309,3.027-14.777,8.102
				c-4.048,5.916-7.039,16.271,1.683,32.008c0.597,1.069,1.492,1.92,2.599,2.457c0.903,0.438,1.924,0.633,2.93,0.579
				L364.922,344.696z"/>
		</g>
		<g>
			<g>
				<path fill="#FFFFFF" d="M376.84,292.628L376.84,292.628c0.097-0.436,0.526-0.712,0.964-0.618l0,0
					c5.621,1.231,9.183,6.786,7.951,12.411l0,0c-0.097,0.438-0.528,0.711-0.964,0.618l0,0
					C379.168,303.81,375.606,298.248,376.84,292.628z"/>
				<path fill="#E0E0E0" d="M384.963,306.156c-0.137,0-0.273-0.015-0.405-0.042c-3.008-0.659-5.578-2.448-7.239-5.041
					c-1.66-2.592-2.213-5.674-1.553-8.682c0.219-1.002,1.259-1.681,2.269-1.459c6.211,1.36,10.153,7.517,8.793,13.724
					C386.638,305.526,385.854,306.156,384.963,306.156z M377.855,293.151c-0.438,2.34,0.023,4.721,1.314,6.736
					c1.292,2.012,3.26,3.428,5.566,4.008C385.638,299.071,382.614,294.353,377.855,293.151z"/>
			</g>
			<g>
				<g>
					<path fill="#FFFFFF" d="M381.086,311.937c0,0,2.102-7.871,8.478-10.08"/>
					<path fill="#E0E0E0" d="M382.148,312.222l-2.125-0.568c0.092-0.344,2.329-8.465,9.181-10.838l0.721,2.08
						C384.189,304.882,382.168,312.149,382.148,312.222z"/>
				</g>
				<g>
					<path fill="#FFFFFF" d="M385.036,312.394c-0.498,1.029-2.396,1.139-4.238,0.246c-1.846-0.895-2.931-2.455-2.432-3.484"/>
					<path fill="#E0E0E0" d="M383.204,314.344c-0.913,0-1.928-0.251-2.888-0.714c-2.464-1.195-3.729-3.324-2.939-4.955l1.979,0.958
						c-0.109,0.226,0.383,1.271,1.921,2.019c0.713,0.345,1.472,0.525,2.079,0.488c0.451-0.025,0.66-0.164,0.69-0.225l1.979,0.958
						c-0.417,0.86-1.345,1.394-2.544,1.463C383.395,314.342,383.3,314.344,383.204,314.344z"/>
				</g>
			</g>
		</g>
	</g>
	<g>
		<g>
			<g>
				<g>
					<path fill="#FFFFFF" d="M354.243,19.125l-6.166-1.575c-1.71-0.437-3.451,0.594-3.89,2.306l0,0l12.362,3.155l0,0
						C356.987,21.305,355.951,19.563,354.243,19.125z"/>
					<path fill="#E0E0E0" d="M347.282,17.45c-1.427,0-2.727,0.96-3.096,2.407l12.362,3.155c0.436-1.706-0.599-3.448-2.307-3.887
						l-6.167-1.575C347.812,17.482,347.546,17.45,347.282,17.45L347.282,17.45z"/>
				</g>
				<g>
					<path fill="#FFFFFF" d="M403.902,31.813l-6.165-1.575c-1.712-0.436-3.453,0.596-3.891,2.306l0,0l12.36,3.16l0,0
						C406.645,33.993,405.612,32.252,403.902,31.813z"/>
					<path fill="#E0E0E0" d="M396.944,30.138c-1.428,0-2.727,0.961-3.098,2.406l12.361,3.16c0.437-1.711-0.597-3.453-2.307-3.891
						l-6.165-1.575C397.473,30.172,397.206,30.138,396.944,30.138L396.944,30.138z"/>
				</g>
			</g>
			<g>
				<g>
					<path fill="#FFFFFF" d="M383.766,24.427l-14.479-3.702c-1.253-0.321-2.526,0.435-2.845,1.687l-1.472,5.751l19.014,4.857
						l1.47-5.751C385.774,26.018,385.02,24.744,383.766,24.427z"/>
					<path fill="#E0E0E0" d="M384.778,34.359l-21.146-5.402l1.745-6.817c0.388-1.524,1.757-2.589,3.325-2.589
						c0.288,0,0.575,0.037,0.854,0.108l14.479,3.701c0.888,0.226,1.636,0.784,2.105,1.575c0.468,0.79,0.602,1.715,0.374,2.607
						L384.778,34.359z M366.31,27.37l16.882,4.313l1.197-4.686c0.082-0.321,0.035-0.655-0.135-0.939
						c-0.168-0.284-0.438-0.484-0.758-0.566l-14.481-3.702c-0.661-0.173-1.341,0.243-1.505,0.894L366.31,27.37z"/>
				</g>
				<g>
					<line fill="none" x1="369.66" y1="20.821" x2="383.395" y2="24.331"/>
					
						<rect x="369.435" y="21.486" transform="matrix(0.9688 0.2477 -0.2477 0.9688 17.3287 -92.5619)" fill="#E0E0E0" width="14.175" height="2.2"/>
				</g>
			</g>
		</g>
		<g>
			<path fill="#FFFFFF" d="M401.527,92.743l-80.599-20.591c-1.646-0.421-2.64-2.098-2.221-3.744l12.446-48.705
				c0.422-1.647,2.098-2.64,3.74-2.22l80.599,20.592c1.646,0.422,2.64,2.099,2.222,3.745L405.27,90.526
				C404.849,92.172,403.172,93.165,401.527,92.743z"/>
			<path fill="#E0E0E0" d="M402.291,93.94c-0.349,0-0.697-0.044-1.037-0.131l-80.6-20.593c-2.229-0.572-3.581-2.851-3.011-5.081
				l12.447-48.705c0.473-1.852,2.135-3.145,4.041-3.145c0.348,0,0.697,0.044,1.037,0.131l80.597,20.591
				c2.229,0.572,3.584,2.85,3.015,5.083l-12.442,48.707C405.86,92.648,404.199,93.94,402.291,93.94z M334.133,18.486
				c-0.9,0-1.687,0.611-1.91,1.488L319.778,68.68c-0.271,1.056,0.369,2.136,1.424,2.406L401.8,91.678
				c1.06,0.268,2.14-0.39,2.405-1.428l12.445-48.704c0.27-1.056-0.372-2.135-1.428-2.406l-80.6-20.593
				C334.464,18.506,334.298,18.486,334.133,18.486z"/>
		</g>
		<g>
			<g>
				<circle fill="#FFFFFF" cx="367.082" cy="59.533" r="15.904"/>
				<path fill="#E0E0E0" d="M367.074,45.826L367.074,45.826c1.141,0,2.285,0.145,3.402,0.43c7.322,1.872,11.756,9.349,9.885,16.67
					c-1.553,6.073-7.008,10.316-13.267,10.316c-1.143,0-2.286-0.145-3.404-0.431c-3.549-0.905-6.53-3.139-8.396-6.287
					c-1.867-3.148-2.396-6.836-1.489-10.382C355.359,50.068,360.815,45.827,367.074,45.826 M367.074,43.628
					c-7.095,0-13.562,4.779-15.399,11.968c-2.175,8.512,2.961,17.172,11.473,19.348c1.321,0.337,2.646,0.5,3.949,0.5
					c7.094,0,13.561-4.782,15.396-11.971c2.175-8.509-2.962-17.172-11.471-19.347C369.699,43.788,368.377,43.627,367.074,43.628
					L367.074,43.628z"/>
			</g>
			<g>
				<g>
					<path fill="#FFFFFF" d="M366.456,66.413l-2.12-0.541c-0.318-0.083-0.511-0.407-0.43-0.725l3.084-12.063
						c0.079-0.319,0.401-0.51,0.722-0.43l2.118,0.54c0.318,0.083,0.511,0.404,0.43,0.723l-3.084,12.064
						C367.096,66.301,366.773,66.494,366.456,66.413z"/>
					<path fill="#E0E0E0" d="M366.604,67.531c-0.143,0-0.285-0.018-0.422-0.054l-2.118-0.539c-0.908-0.239-1.453-1.164-1.222-2.063
						l3.085-12.062c0.218-0.883,1.16-1.449,2.055-1.225l2.122,0.542c0.903,0.234,1.45,1.157,1.222,2.058l-3.084,12.068
						C368.048,67.009,367.376,67.531,366.604,67.531z M365.099,64.931l1.139,0.29l2.831-11.083l-1.135-0.29L365.099,64.931z"/>
				</g>
				<g>
					<path fill="#FFFFFF" d="M372.698,62.711l-12.065-3.083c-0.318-0.081-0.512-0.404-0.43-0.721l0.541-2.121
						c0.083-0.317,0.405-0.508,0.725-0.429l12.063,3.084c0.316,0.081,0.509,0.403,0.429,0.722l-0.541,2.119
						C373.341,62.602,373.017,62.793,372.698,62.711z"/>
					<path fill="#E0E0E0" d="M372.848,63.829c-0.144,0-0.284-0.017-0.422-0.054l-12.065-3.083c-0.436-0.11-0.805-0.386-1.037-0.775
						c-0.229-0.39-0.297-0.848-0.184-1.286l0.541-2.117c0.231-0.891,1.175-1.448,2.06-1.223l12.067,3.083
						c0.904,0.233,1.45,1.158,1.22,2.062l-0.541,2.12C374.299,63.303,373.623,63.829,372.848,63.829z M361.396,58.687l11.084,2.833
						l0.29-1.138l-11.082-2.833L361.396,58.687z"/>
				</g>
			</g>
		</g>
		<g opacity="0.26">
			<line fill="none" x1="328.887" y1="28.589" x2="415.444" y2="50.706"/>
			
				<rect x="327.49" y="38.556" transform="matrix(0.9689 0.2476 -0.2476 0.9689 21.4063 -90.9105)" fill="#E0E0E0" width="89.346" height="2.201"/>
		</g>
	</g>
	<g>
		<g>
			<rect x="239.004" y="294.373" fill="#FBBF9E" width="37.359" height="42.849"/>
			<path fill="#F7996E" d="M239.004,321.323c28.831,0,38.259-15.303,38.259-15.303l-38.058-0.482
				C239.431,309.731,239.004,311.63,239.004,321.323z"/>
			<path fill="#263238" d="M217.779,269.169c-0.167-0.575-6.176-24.023,7.898-46.018c11.406-17.817,34.63-23.682,51.316-13.551
				c16.762,10.185,33.531,28.989,17.597,60.694L217.779,269.169z"/>
			<path fill="#263238" d="M228.207,243.125c0,0-9.333-4.481-19.811,0c-10.478,4.479-18.105,23.558-13.412,41.378
				c4.695,17.818-11.148,18.117-3.813,32.411c2.602,5.063,37.035,9.378,38.212-10.356c0.727-12.23-10.341-12.836-7.116-26.123
				C225.498,267.146,228.207,243.125,228.207,243.125z"/>
			<path fill="#263238" d="M291.819,240.823c0,0,9.332-5.047,19.81,0c10.479,5.044,18.106,26.525,13.408,46.593
				c-4.689,20.063,11.151,20.399,3.817,36.494c-2.604,5.704-37.035,10.559-38.213-11.664c-0.726-13.771,10.341-14.449,7.114-29.409
				C294.528,267.874,291.819,240.823,291.819,240.823z"/>
			<path fill="#FBBF9E" d="M293.594,274.31c0,21.226-15.836,38.428-35.372,38.428c-19.532,0-35.37-17.202-35.37-38.428
				c0-21.229,15.838-38.433,35.37-38.433C277.756,235.878,293.594,253.082,293.594,274.31z"/>
			<path fill="#263238" d="M257.656,236.326c0,0,6.8,29.688,37.974,40.362c12.398,4.242,8.618-41.021-17.292-50.201
				c-25.902-9.182-48.001-4.215-62.286,18.229c-8.601,13.515,7.442,17.937,7.442,17.937S235.379,232.735,257.656,236.326z"/>
			<path fill="#FFFFFF" d="M247.165,295.308c0,0-2.893-8.418,12.754-7.397c0,0,9.947,1.968,9.88,7.177
				C269.8,295.087,261.09,290.953,247.165,295.308z"/>
			<path fill="#F3725F" d="M305.83,376.672c-8.984,8.688-95.051,6.462-94.542,0.341c0.403-4.82-2.142,7.941,4.25-32.478
				c1.758-11.08-10.311-13.117,0.681-14.625c1.857-0.257,20.539-6.806,22.717-7.022c-0.465,4.975,7.093,10.072,15.653,11.771
				c11.392,2.254,21.146-5.605,21.815-10.505c8.922,1.877,14.106,2.572,21.188,5.563c7.767,3.29,12.396,11.45,11.266,19.896
				l-2.139,15.959C306.719,365.569,306.284,376.229,305.83,376.672z"/>
			<path fill="#F3725F" d="M189.938,367.079c0,0,16.554,15.398,42.072,13.01c0,0,12.576-44.563-7.591-50.035
				C204.252,324.58,187.588,350.995,189.938,367.079z"/>
			<path fill="#F3725F" d="M326.119,367.079c0,0-16.548,15.398-42.066,13.01c0,0-12.577-44.563,7.586-50.035
				C311.811,324.58,328.473,350.995,326.119,367.079z"/>
		</g>
		<g>
			<g>
				<g>
					<g>
						<g>
							<g>
								<g>
									<g>
										<g>
											<g>
												<g>
													<g>
														<g>
															<path fill="#455B65" d="M417.546,223.03c-9.198,0-18.392-2.162-26.633-6.262l-21.389,4.242l2.882-18.516
																c-8.607-9.818-13.691-21.875-14.719-34.934c-1.256-16.024,3.794-31.577,14.22-43.793
																c10.428-12.216,24.98-19.636,40.983-20.891c1.578-0.124,3.179-0.187,4.753-0.187
																c31.124,0,57.412,24.367,59.852,55.474c1.257,16.021-3.794,31.569-14.22,43.787
																c-10.426,12.217-24.979,19.638-40.981,20.892C420.719,222.967,419.121,223.03,417.546,223.03z M391.554,212.156
																l0.684,0.349c9.097,4.676,19.472,6.756,29.715,5.951c14.828-1.161,28.316-8.037,37.979-19.359
																c9.663-11.324,14.343-25.738,13.179-40.589c-2.261-28.831-26.623-51.416-55.464-51.416
																c-1.462,0-2.946,0.058-4.411,0.173c-14.829,1.162-28.315,8.037-37.979,19.359
																c-9.662,11.322-14.344,25.739-13.179,40.593c0.977,12.431,5.919,23.882,14.293,33.111l0.706,0.776l-2.233,14.365
																L391.554,212.156z"/>
														</g>
													</g>
												</g>
											</g>
										</g>
									</g>
								</g>
							</g>
						</g>
					</g>
				</g>
			</g>
			<g>
				<g>
					<path fill="#263238" d="M430.115,173.435c-2.18,1.277-4.275,2.508-6.369,3.748c-0.138,0.082-0.239,0.258-0.314,0.412
						c-1.983,4.135-5.256,6.653-9.665,7.764c-0.085,0.021-0.162,0.062-0.302,0.113c1.042,3.805,2.076,7.604,3.114,11.402
						c0.109,0.4,0.215,0.803,0.32,1.202c0.358,1.392-0.198,2.131-1.627,2.132c-6.666,0.003-13.333,0.003-19.997,0.003
						c-2.175,0-4.347,0.006-6.519-0.003c-1.423-0.004-1.952-0.768-1.578-2.157c0.884-3.297,1.727-6.597,2.619-9.889
						c0.22-0.829-0.063-1.409-0.724-1.83c-1.225-0.783-2.521-1.466-3.709-2.302c-1.737-1.236-3.551-2.424-5.074-3.896
						c-3.2-3.092-4.604-7.082-4.641-11.434c-0.099-11.933-0.047-23.867-0.036-35.798c0.004-2.218,1.898-4.081,4.122-4.101
						c2.886-0.025,5.773-0.012,8.658-0.005c2.5,0.012,4.343,1.838,4.345,4.335c0.006,10.061,0.002,20.118,0.002,30.176
						c0,0.354,0,0.71,0,1.13c10.31,0,20.58,0,31.041,0c-0.397-0.643-0.741-1.179-1.071-1.726c-1.198-2.01-2.385-4.024-3.602-6.02
						c-0.123-0.198-0.438-0.388-0.667-0.39c-4.961-0.06-10.383-3.734-11.33-10.083c-0.66-4.386,1.766-8.717,6.064-10.793
						c4.609-2.221,12.015-0.554,14.348,6.535c0.297,0.904,0.676,1.13,1.589,1.154c3.683,0.097,6.84,1.615,9.683,3.844
						c4.157,3.265,7.096,7.496,9.45,12.158c2.211,4.375,3.735,8.98,4.435,13.848c0.913,6.299-1.253,11.434-5.861,15.664
						c-0.536,0.494-1.101,0.962-1.819,1.59c1.486,0,2.779-0.023,4.069,0.006c1.633,0.037,3.293-0.049,4.891,0.215
						c4.083,0.678,5.868,4.953,3.411,7.988c-0.971,1.2-2.258,1.789-3.814,1.784c-6.667-0.005-13.332,0.006-19.998-0.005
						c-2.566-0.006-4.537-1.148-5.808-3.352c-1.294-2.248-1.232-4.561,0.098-6.778c1.835-3.06,3.713-6.093,5.615-9.107
						c0.369-0.589,0.369-1.011,0.021-1.604C432.347,177.452,431.276,175.496,430.115,173.435z M443.495,197.36
						c3.303,0,6.604,0.011,9.907-0.006c1.194-0.006,1.987-0.664,2.166-1.719c0.15-0.9-0.42-1.852-1.478-2.16
						c-0.848-0.242-1.748-0.381-2.627-0.385c-4.699-0.039-9.403-0.02-14.101-0.023c-1.145,0-1.76-0.496-1.762-1.416
						c-0.004-0.924,0.622-1.531,1.747-1.407c1.759,0.2,3.202-0.397,4.533-1.427c1.122-0.871,2.29-1.711,3.323-2.686
						c3.573-3.367,5.355-7.461,4.641-12.42c-1.166-8.164-4.326-15.467-9.79-21.683c-2.792-3.178-6.146-5.489-10.5-6.037
						c-3.684-0.464-7.104,1.715-7.996,5.185c-0.621,2.414-0.005,4.593,1.286,6.621c0.879,1.379,1.87,2.684,2.753,4.057
						c1.744,2.716,1.239,4.998-1.45,6.785c-2.403,1.593-4.83,3.153-7.176,4.821c-0.574,0.408-1.122,1.146-1.244,1.812
						c-0.105,0.574,0.271,1.385,0.69,1.865c0.477,0.541,1.19,0.293,1.8-0.066c3.838-2.264,7.683-4.52,11.527-6.766
						c0.913-0.535,1.36-1.302,1.26-2.361c-0.097-1.005-0.196-2.012-0.31-3.014c-0.264-2.392-0.555-4.782-0.791-7.176
						c-0.107-1.077,0.392-1.725,1.262-1.807c0.889-0.085,1.454,0.433,1.586,1.515c0.354,2.978,0.67,5.962,1.043,8.94
						c0.214,1.717,0.271,3.396-0.87,4.846c-0.357,0.456-0.319,0.768-0.043,1.243c1.256,2.153,2.436,4.354,3.702,6.503
						c0.521,0.882,0.497,1.609-0.044,2.471c-2.025,3.221-3.979,6.484-5.994,9.708c-0.857,1.369-1.122,2.745-0.321,4.197
						c0.821,1.496,2.175,2.005,3.808,1.997C437.189,197.347,440.342,197.36,443.495,197.36z M420.754,167.42
						c-14.224,0-28.237,0-42.291,0c0.068,3.556,0.784,6.832,2.981,9.665c1.524,1.966,3.505,3.359,5.614,4.616
						c1.375,0.819,2.746,1.659,4.051,2.59c1.393,0.987,1.883,2.424,1.571,4.089c-0.27,1.456-0.594,2.904-0.951,4.342
						c-0.383,1.535-0.834,3.055-1.253,4.574c7.767,0,15.452,0,23.221,0c-1.021-3.712-1.998-7.345-3.03-10.964
						c-0.058-0.199-0.521-0.399-0.794-0.403c-3.275-0.02-6.547,0-9.819-0.004c-0.988,0-1.582-0.55-1.588-1.414
						c-0.005-0.867,0.582-1.42,1.567-1.43c1.336-0.014,2.682,0.031,4.017-0.01c2.726-0.092,5.468-0.119,8.183-0.372
						c1.928-0.181,3.693-0.972,5.356-2.274c-0.293-0.046-0.428-0.074-0.569-0.087c-3.351-0.252-4.86-3.591-4.064-6.241
						c0.393-1.308,1.203-2.289,2.345-3.035C417.081,169.899,418.838,168.702,420.754,167.42z M389.83,164.467
						c0-8.116,0-16.16,0-24.176c-3.825,0-7.584,0-11.323,0c0,8.092,0,16.112,0,24.176
						C382.291,164.467,386.028,164.467,389.83,164.467z M418.428,153.395c0.026-4.731,2.191-7.995,6.526-9.749
						c-0.602-3.297-3.179-5.638-6.767-6.187c-4.114-0.627-8.441,3.193-8.293,7.328C410.069,149.517,413.574,153.1,418.428,153.395z
						 M378.459,137.31c3.853,0,7.612,0,11.436,0c0-1.243,0-2.428,0-3.61c0-0.209,0.01-0.418-0.013-0.623
						c-0.09-0.869-0.63-1.411-1.535-1.421c-2.769-0.021-5.533-0.021-8.304,0c-0.984,0.006-1.553,0.576-1.575,1.557
						C378.44,134.549,378.459,135.886,378.459,137.31z"/>
				</g>
				<path fill="#F3725F" d="M418.428,153.395c0.026-4.731,2.191-7.995,6.526-9.749c-0.602-3.297-3.179-5.638-6.767-6.187
					c-4.114-0.627-8.441,3.193-8.293,7.328C410.069,149.517,413.574,153.1,418.428,153.395z"/>
			</g>
		</g>
		<g>
			<g>
				<g>
					<g>
						<g>
							<g>
								<g>
									<g>
										<g>
											<g>
												<g>
													<g>
														<g>
															<path fill="#455B65" d="M93.622,209.257c-1.57,0-3.165-0.063-4.739-0.185c-33.031-2.591-57.792-31.605-55.199-64.681
																c2.438-31.106,28.729-55.473,59.854-55.473c1.574,0,3.173,0.063,4.75,0.186c33.029,2.59,57.793,31.607,55.202,64.683
																c-0.979,12.477-12.25,30.821-14.727,34.717l2.884,18.729l-21.384-4.239
																C112.022,207.094,102.828,209.257,93.622,209.257z M93.54,93.319c-28.844,0-53.207,22.584-55.469,51.416
																c-2.404,30.655,20.546,57.549,51.155,59.952c10.248,0.809,20.623-1.28,29.717-5.955l0.683-0.35l16.72,3.313
																l-2.184-14.178l0.461-0.705c0.135-0.209,13.493-20.765,14.481-33.37c2.402-30.657-20.547-57.551-51.159-59.954
																C96.482,93.376,94.999,93.319,93.54,93.319z"/>
														</g>
													</g>
												</g>
											</g>
										</g>
									</g>
								</g>
							</g>
						</g>
					</g>
				</g>
			</g>
			<g>
				<g>
					<path fill="#263238" d="M83.445,183.515c-1.316-0.426-2.691-0.727-3.939-1.303c-3.372-1.554-5.902-4.131-8.035-7.096
						c-4.38-6.077-6.922-12.886-7.846-20.303c-0.705-5.685-0.275-11.261,2.049-16.562c2.452-5.592,6.478-9.485,12.515-11.061
						c0.323-0.082,0.648-0.161,1.03-0.252c-0.466-0.603-0.925-1.153-1.341-1.734c-2.407-3.368-3.663-7.117-3.686-11.264
						c-0.008-1.408,0.892-2.348,2.287-2.306c7.867,0.236,13.609,3.912,17.358,10.786c0.124,0.231,0.235,0.467,0.381,0.756
						c2.679-5.752,6.551-10.396,11.933-13.723c0.387,0,0.771,0,1.159,0c0.761,0.368,1.412,0.853,1.56,1.747
						c0.163,1.005-0.229,1.773-1.073,2.346c-3.13,2.125-5.717,4.778-7.739,7.982c-1.591,2.524-2.718,5.242-3.418,8.138
						c-0.04,0.16-0.045,0.328-0.083,0.635c0.826-0.403,1.536-0.786,2.28-1.095c1.724-0.716,3.417-1.581,5.211-2.058
						c3.549-0.944,6.867-0.021,9.945,1.82c4.823,2.879,7.691,7.235,9.21,12.542c1.247,4.365,1.458,8.813,0.892,13.306
						c-0.879,6.99-3.22,13.441-7.133,19.304c-1.71,2.559-3.742,4.839-6.262,6.645c-1.862,1.334-3.889,2.295-6.182,2.621
						c-0.088,0.014-0.164,0.084-0.248,0.127c-0.965,0-1.927,0-2.893,0c-0.643-0.17-1.32-0.265-1.927-0.523
						c-1.391-0.59-2.751-1.245-4.11-1.905c-0.973-0.476-1.931-0.535-2.896-0.022c-1.947,1.043-3.906,2.045-6.106,2.453
						C85.374,183.515,84.409,183.515,83.445,183.515z M67.675,150.701c0.043,0.741,0.057,1.805,0.173,2.86
						c0.682,6.163,2.615,11.906,5.907,17.174c1.713,2.738,3.73,5.216,6.517,6.951c2.764,1.723,5.601,2.045,8.523,0.352
						c0.622-0.362,1.27-0.684,1.922-0.988c2.115-0.99,4.232-0.982,6.337,0.024c0.757,0.364,1.503,0.76,2.244,1.153
						c2.213,1.188,4.462,1.215,6.737,0.209c2.114-0.937,3.825-2.408,5.305-4.147c3.922-4.606,6.293-9.979,7.688-15.812
						c1.289-5.401,1.469-10.821-0.139-16.195c-1.277-4.263-3.644-7.732-7.653-9.898c-2.636-1.423-5.344-1.65-8.108-0.389
						c-1.268,0.579-2.521,1.188-3.768,1.817c-3.469,1.757-6.96,1.847-10.484,0.178c-1.35-0.636-2.669-1.328-4.039-1.915
						c-1.819-0.782-3.698-1.211-5.691-0.679c-3.721,0.993-6.413,3.315-8.385,6.529C68.417,141.745,67.764,145.995,67.675,150.701z
						 M91.25,128.685c-0.063-5.398-7.739-13.009-12.42-12.37C79.521,122.407,85.191,128.015,91.25,128.685z"/>
				</g>
				<g>
					<g>
						<polygon fill="#263238" points="123.334,155.599 116.641,162.295 109.943,155.599 105.422,160.12 112.115,166.815 
							105.422,173.507 109.943,178.032 116.641,171.339 123.334,178.032 127.857,173.51 121.164,166.815 127.857,160.12 						"/>
						<path fill="#263238" d="M109.943,181.333L109.943,181.333c-0.876,0-1.716-0.35-2.335-0.969l-4.521-4.525
							c-1.287-1.288-1.287-3.377,0.001-4.665l4.358-4.359l-4.358-4.36c-1.288-1.289-1.288-3.378,0-4.666l4.521-4.521
							c1.238-1.238,3.431-1.238,4.667,0l4.363,4.361l4.36-4.361c1.288-1.288,3.377-1.29,4.667,0l4.522,4.521
							c0.619,0.62,0.967,1.458,0.967,2.333s-0.348,1.715-0.966,2.334l-4.359,4.361l4.359,4.362c1.288,1.289,1.288,3.379,0,4.668
							l-4.522,4.521c-1.29,1.288-3.378,1.288-4.667,0l-4.36-4.36l-4.363,4.36C111.657,180.985,110.819,181.333,109.943,181.333z
							 M114.954,165.132c0.615,1.034,0.614,2.336-0.001,3.371c1.035-0.616,2.337-0.618,3.374-0.001
							c-0.616-1.036-0.617-2.335-0.001-3.37C117.313,165.734,115.965,165.731,114.954,165.132z"/>
					</g>
				</g>
				<g>
					<polygon fill="#F3725F" points="123.334,155.599 116.641,162.295 109.943,155.599 105.422,160.12 112.115,166.815 
						105.422,173.507 109.943,178.032 116.641,171.339 123.334,178.032 127.857,173.51 121.164,166.815 127.857,160.12 					"/>
				</g>
			</g>
		</g>
		<g>
			<g>
				<g>
					<g>
						<g>
							<g>
								<g>
									<g>
										<g>
											<g>
												<g>
													<g>
														<g>
															<path fill="#455B65" d="M256.037,179.037l-9.668-16.297c-4.388-1.438-24.743-8.451-33.424-17.467
																c-11.146-11.58-17.12-26.801-16.826-42.858c0.296-16.059,6.826-31.032,18.391-42.162
																c11.241-10.82,26.029-16.78,41.637-16.78c16.518,0,31.921,6.555,43.381,18.457
																c11.146,11.577,17.118,26.798,16.824,42.855c-0.296,16.06-6.826,31.033-18.391,42.163
																c-7.836,7.546-17.536,12.804-28.099,15.235L256.037,179.037z M256.146,47.871c-14.465,0-28.168,5.523-38.586,15.55
																c-10.716,10.313-16.769,24.191-17.042,39.074c-0.273,14.884,5.267,28.991,15.599,39.727
																c8.776,9.117,32.143,16.507,32.378,16.58l0.804,0.252l7.319,12.337l10.81-13.179l0.749-0.163
																c10.056-2.177,19.3-7.113,26.731-14.272c10.717-10.313,16.771-24.191,17.042-39.075
																c0.272-14.884-5.264-28.99-15.596-39.724C285.735,53.948,271.454,47.871,256.146,47.871z"/>
														</g>
													</g>
												</g>
											</g>
										</g>
									</g>
								</g>
							</g>
						</g>
					</g>
				</g>
			</g>
			<g>
				<g>
					<path fill="#263238" d="M247.952,141.283c-0.059-0.432-0.45-0.352-0.706-0.427c-5.137-1.51-8.194-4.92-9.052-10.169
						c-0.568-3.46,0.388-6.625,2.623-9.337c0.551-0.667,0.733-1.321,0.733-2.154c-0.021-17.718-0.021-35.437-0.023-53.155
						c0-3.9,2.294-7.149,5.971-8.49c0.272-0.101,0.7-0.008,0.778-0.462c1.374,0,2.743,0,4.114,0c0,0.336,0.281,0.387,0.503,0.446
						c3.626,0.971,6.234,4.681,6.216,8.626c-0.04,8.438-0.016,16.878-0.021,25.317c-0.002,9.319,0.005,18.632-0.019,27.951
						c-0.003,0.757,0.212,1.329,0.717,1.914c3.769,4.354,3.61,11.451-0.264,15.698c-1.716,1.871-3.734,3.187-6.192,3.831
						c-0.234,0.063-0.592,0.005-0.612,0.414C251.128,141.283,249.542,141.283,247.952,141.283z M255.561,93.131
						c0.004,0,0.006,0,0.014,0c0-8.905-0.008-17.807,0.002-26.711c0.004-1.677-0.376-3.152-1.693-4.345
						c-1.855-1.668-4.82-1.952-6.798-0.376c-1.545,1.229-2.08,2.872-2.08,4.778c0.011,18.001,0.008,35.998,0.024,53.994
						c0.003,1.022-0.329,1.832-1.061,2.507c-0.482,0.449-0.848,0.969-1.194,1.535c-2.25,3.692-1.32,8.658,2.042,11.294
						c3.631,2.847,8.833,2.544,11.819-0.766c3.294-3.658,3.269-8.717-0.113-12.133c-0.688-0.694-0.974-1.449-0.973-2.412
						C255.564,111.377,255.561,102.253,255.561,93.131z"/>
					<path fill="#263238" d="M269.637,97.405c0,2.467-0.059,4.934,0.011,7.395c0.079,2.709,2.35,4.872,5.067,4.921
						c1.206,0.025,2.413,0.014,3.615,0.007c2.875-0.016,5.107-2.11,5.324-4.981c0.083-1.088,0.573-1.782,1.354-1.914
						c1.189-0.203,2.012,0.485,2.06,1.731c0.146,3.762-2.947,7.627-6.8,8.38c-2.188,0.429-4.45,0.406-6.625,0.109
						c-4.564-0.621-7.495-4.216-7.543-9.021c-0.047-4.382-0.042-8.766-0.006-13.148c0.042-4.621,2.746-8.219,7.01-8.978
						c2.905-0.519,5.936-0.714,8.732,0.53c3.207,1.425,5.01,3.988,5.223,7.544c0.081,1.339-0.55,2.079-1.633,2.112
						c-1.01,0.03-1.672-0.701-1.775-1.95c-0.194-2.414-1.684-4.445-4.017-4.788c-2.379-0.348-4.882-0.695-7.182,0.418
						c-1.743,0.846-2.759,2.338-2.802,4.319C269.59,92.528,269.637,94.969,269.637,97.405z"/>
					<path fill="#263238" d="M301.056,86.913c-0.006,2.936-2.268,5.187-5.204,5.177c-2.849-0.009-5.128-2.314-5.126-5.189
						c0-2.923,2.274-5.156,5.232-5.14C298.886,81.772,301.061,83.967,301.056,86.913z M295.929,85.169
						c-1.015-0.005-1.771,0.723-1.786,1.725c-0.015,0.956,0.799,1.785,1.752,1.788c1.008,0.004,1.756-0.742,1.76-1.755
						C297.662,85.888,296.967,85.177,295.929,85.169z"/>
					<path fill="#263238" d="M231.037,116.751c-1.591,0-3.176,0.008-4.763-0.005c-0.664-0.003-1.31-0.083-1.799-0.629
						c-0.827-0.922-0.423-2.447,0.771-2.777c0.387-0.109,0.81-0.141,1.214-0.142c3.04-0.009,6.075-0.004,9.114,0.005
						c0.353,0,0.713,0.039,1.058,0.114c0.8,0.173,1.338,0.838,1.352,1.627c0.013,0.825-0.539,1.495-1.375,1.702
						c-0.677,0.163-1.363,0.093-2.042,0.1C233.39,116.757,232.212,116.75,231.037,116.751
						C231.037,116.75,231.037,116.75,231.037,116.751z"/>
					<path fill="#263238" d="M231.018,74.661c-1.638,0-3.282,0.027-4.919-0.008c-1.334-0.028-2.073-0.728-2.045-1.83
						c0.014-0.821,0.518-1.447,1.34-1.624c0.346-0.07,0.705-0.108,1.056-0.108c3.035-0.01,6.073-0.006,9.108,0
						c1.577,0.004,2.448,0.65,2.439,1.796c-0.011,1.143-0.875,1.767-2.469,1.772C234.027,74.665,232.522,74.661,231.018,74.661z"/>
					<path fill="#263238" d="M230.942,95.707c-1.587,0-3.179,0.019-4.767-0.004c-1.36-0.023-2.111-0.672-2.117-1.765
						c-0.004-0.871,0.495-1.502,1.36-1.692c0.241-0.052,0.486-0.098,0.729-0.098c3.233-0.008,6.463-0.009,9.695,0.004
						c0.575,0.001,1.143,0.084,1.599,0.519c0.508,0.484,0.655,1.071,0.475,1.723c-0.167,0.628-0.592,1.048-1.233,1.183
						c-0.369,0.081-0.758,0.119-1.138,0.123c-1.536,0.012-3.067,0.003-4.604,0.003C230.942,95.704,230.942,95.705,230.942,95.707z"
						/>
					<path fill="#263238" d="M234.47,81.605c-0.602,0-1.203,0.034-1.805-0.005c-0.878-0.056-1.548-0.729-1.631-1.568
						c-0.077-0.777,0.449-1.613,1.286-1.762c1.456-0.266,2.945-0.27,4.401,0c0.905,0.163,1.321,0.92,1.223,1.854
						c-0.086,0.838-0.691,1.426-1.587,1.479C235.734,81.635,235.102,81.605,234.47,81.605z"/>
					<path fill="#263238" d="M234.563,85.194c0.603,0,1.209-0.029,1.807,0.008c0.891,0.051,1.499,0.645,1.578,1.482
						c0.093,0.936-0.325,1.686-1.233,1.849c-1.456,0.261-2.942,0.263-4.399-0.005c-0.832-0.154-1.354-0.994-1.274-1.767
						c0.092-0.843,0.759-1.506,1.64-1.56C233.306,85.162,233.936,85.191,234.563,85.194z"/>
					<path fill="#263238" d="M234.545,102.65c-0.628,0-1.259,0.032-1.883-0.006c-0.875-0.056-1.544-0.732-1.622-1.57
						c-0.07-0.779,0.454-1.604,1.289-1.753c1.455-0.263,2.939-0.268,4.394,0.002c0.903,0.165,1.316,0.918,1.219,1.852
						c-0.086,0.824-0.705,1.4-1.594,1.476c-0.051,0.004-0.11,0.006-0.161,0.006c-0.548,0-1.096,0-1.642,0
						C234.545,102.654,234.545,102.653,234.545,102.65z"/>
					<path fill="#263238" d="M234.537,106.244c0.572,0,1.146-0.021,1.719,0.004c0.945,0.039,1.593,0.614,1.68,1.461
						c0.104,0.971-0.33,1.724-1.288,1.883c-1.424,0.235-2.882,0.251-4.308-0.014c-0.84-0.155-1.369-0.968-1.302-1.747
						c0.068-0.831,0.748-1.502,1.612-1.579c0.326-0.028,0.654-0.015,0.982-0.018c0.298-0.004,0.6,0,0.901,0
						C234.537,106.235,234.537,106.242,234.537,106.244z"/>
					<path fill="#F3725F" d="M252.039,109.96c0,5.125,0.004,10.247-0.007,15.37c-0.003,0.46,0.073,0.791,0.48,1.115
						c1.52,1.209,1.657,3.445,0.356,4.882c-1.309,1.446-3.618,1.509-4.994,0.138c-1.381-1.378-1.383-3.638,0.092-4.895
						c0.533-0.457,0.65-0.912,0.646-1.543c-0.011-10.107-0.002-20.219,0-30.324c0-0.355-0.015-10.839,0.041-11.186
						c0.12-0.776,0.746-1.317,1.521-1.363c0.86-0.053,1.469,0.373,1.729,1.186c0.12,0.374,0.125,10.871,0.125,11.255
						c0,5.121,0,10.246,0,15.366C252.034,109.96,252.039,109.96,252.039,109.96z"/>
				</g>
				<g>
					<g>
						<path fill="#F3725F" d="M266.257,133.249c0.48,0.288,1.459,0.72,2.399,0.72c1.335,0,2.01-0.803,2.01-1.831
							c0-1.377-1.083-1.995-2.275-1.995h-0.87v-2.159h0.816c0.89,0,2.009-0.412,2.009-1.583c0-0.844-0.55-1.44-1.581-1.44
							c-0.837,0-1.673,0.391-2.134,0.72l-0.479-2.18c0.619-0.473,1.885-0.925,3.217-0.925c2.328,0,3.592,1.501,3.592,3.29
							c0,1.377-0.677,2.51-1.975,3.064v0.042c1.298,0.349,2.347,1.542,2.347,3.31c0,2.261-1.669,4.071-4.46,4.071
							c-1.334,0-2.472-0.391-3.096-0.823L266.257,133.249z"/>
						<path fill="#F3725F" d="M282.772,122.783v1.892l-4.426,11.473h-2.685l4.391-10.815v-0.041h-4.887v-2.508L282.772,122.783
							L282.772,122.783z"/>
						<path fill="#F3725F" d="M285.9,136.354c-0.853,0-1.493-0.762-1.493-1.871c0-1.09,0.658-1.872,1.528-1.872
							c0.873,0,1.513,0.74,1.513,1.872c0,1.109-0.604,1.871-1.529,1.871H285.9z"/>
						<path fill="#F3725F" d="M295.57,124.962c-0.303-0.021-0.623,0.021-1.03,0.061c-2.134,0.268-3.11,1.707-3.414,3.311h0.054
							c0.532-0.659,1.281-1.07,2.259-1.07c1.813,0,3.289,1.604,3.289,4.298c0,2.569-1.547,4.791-3.965,4.791
							c-2.826,0-4.267-2.509-4.267-5.716c0-2.653,0.8-4.709,1.991-6.046c1.029-1.131,2.416-1.789,3.965-1.912
							c0.514-0.082,0.869-0.061,1.118-0.061V124.962L295.57,124.962z M292.743,134.174c0.872,0,1.367-1.069,1.367-2.488
							c0-1.214-0.495-2.283-1.527-2.283c-0.604,0-1.155,0.452-1.389,1.09c-0.088,0.185-0.122,0.473-0.122,0.925
							c0.034,1.502,0.567,2.755,1.651,2.755L292.743,134.174L292.743,134.174z"/>
					</g>
				</g>
			</g>
		</g>
	</g>
</g>
</svg>
