<?xml version="1.0" encoding="utf-8"?>
<!-- Generator: Adobe Illustrator 16.0.3, SVG Export Plug-In . SVG Version: 6.00 Build 0)  -->
<!DOCTYPE svg PUBLIC "-//W3C//DTD SVG 1.1//EN" "http://www.w3.org/Graphics/SVG/1.1/DTD/svg11.dtd">
<svg version="1.1" id="Layer_1" xmlns="http://www.w3.org/2000/svg" xmlns:xlink="http://www.w3.org/1999/xlink" x="0px" y="0px"
	 width="257.257px" height="50px" viewBox="-55.602 51.402 257.257 50" enable-background="new -55.602 51.402 257.257 50"
	 xml:space="preserve">
<g>
	<path fill="#F3726A" d="M117.014,1754.814c-0.445,0-0.885-0.037-1.313-0.111l1.313,3.104l1.315-3.104
		C117.898,1754.777,117.459,1754.814,117.014,1754.814z"/>
	<path fill="#F3726A" d="M134.908,1758.674c-1.596,0-2.895,1.297-2.895,2.893c0,1.598,1.299,2.896,2.895,2.896
		s2.895-1.299,2.895-2.896C137.803,1759.971,136.504,1758.674,134.908,1758.674z M134.908,1762.531
		c-0.533,0-0.965-0.434-0.965-0.965c0-0.533,0.432-0.965,0.965-0.965s0.965,0.432,0.965,0.965
		C135.873,1762.099,135.441,1762.531,134.908,1762.531z"/>
	<path fill="#F3726A" d="M123.268,1725.057c-13.808,0-25,11.191-25,25c0,13.807,11.192,25,25,25c13.809,0,25-11.193,25-25
		C148.268,1736.248,137.074,1725.057,123.268,1725.057z M134.908,1766.392c-2.66,0-4.824-2.163-4.824-4.823
		c0-2.328,1.66-4.277,3.859-4.729v-2.282c0-1.985-1.615-3.601-3.604-3.601c-1.984,0-3.604,1.613-3.604,3.601v6.616
		c0,2.947-2.396,5.345-5.346,5.345c-2.947,0-5.346-2.396-5.346-5.345v-0.696l-2.813-6.642c-0.313-0.174-0.619-0.371-0.91-0.592
		c-1.362-1.025-2.329-2.438-2.799-4.076l-2.562-8.96c-0.362-1.274-0.112-2.61,0.685-3.666c0.797-1.058,2.014-1.663,3.336-1.663
		h0.562v-0.321c0-0.532,0.433-0.965,0.965-0.965c0.533,0,0.966,0.433,0.966,0.965v2.571c0,0.533-0.433,0.965-0.966,0.965
		c-0.532,0-0.965-0.432-0.965-0.965v-0.321h-0.562c-0.711,0-1.366,0.327-1.797,0.896c-0.43,0.566-0.563,1.29-0.367,1.975
		l2.562,8.961c0.716,2.5,3.029,4.246,5.632,4.246c2.6,0,4.916-1.746,5.631-4.246l2.562-8.962c0.194-0.685,0.062-1.405-0.368-1.974
		c-0.429-0.569-1.083-0.896-1.797-0.896h-0.561v0.321c0,0.533-0.434,0.965-0.965,0.965c-0.533,0-0.966-0.432-0.966-0.965v-2.571
		c0-0.532,0.433-0.965,0.966-0.965c0.531,0,0.965,0.433,0.965,0.965v0.321h0.561c1.322,0,2.54,0.605,3.337,1.663
		c0.798,1.056,1.046,2.392,0.685,3.666l-2.562,8.96c-0.47,1.641-1.438,3.051-2.799,4.076c-0.291,0.221-0.597,0.418-0.909,0.592
		l-2.813,6.642v0.696c0,1.884,1.531,3.416,3.416,3.416s3.418-1.532,3.418-3.416v-6.616c0-3.049,2.479-5.528,5.528-5.528
		c3.052,0,5.531,2.479,5.531,5.528v2.282c2.198,0.449,3.856,2.398,3.856,4.729C139.73,1764.229,137.566,1766.392,134.908,1766.392z"
		/>
</g>
<g>
	<path fill="#F3726A" d="M117.014,1754.814c-0.445,0-0.885-0.037-1.313-0.111l1.313,3.104l1.315-3.104
		C117.898,1754.777,117.459,1754.814,117.014,1754.814z"/>
	<path fill="#F3726A" d="M134.908,1758.674c-1.596,0-2.895,1.297-2.895,2.893c0,1.598,1.299,2.896,2.895,2.896
		s2.895-1.299,2.895-2.896C137.803,1759.971,136.504,1758.674,134.908,1758.674z M134.908,1762.531
		c-0.533,0-0.965-0.434-0.965-0.965c0-0.533,0.432-0.965,0.965-0.965s0.965,0.432,0.965,0.965
		C135.873,1762.099,135.441,1762.531,134.908,1762.531z"/>
	<path fill="#F3726A" d="M123.268,1725.057c-13.808,0-25,11.191-25,25c0,13.807,11.192,25,25,25c13.809,0,25-11.193,25-25
		C148.268,1736.248,137.074,1725.057,123.268,1725.057z M134.908,1766.392c-2.66,0-4.824-2.163-4.824-4.823
		c0-2.328,1.66-4.277,3.859-4.729v-2.282c0-1.985-1.615-3.601-3.604-3.601c-1.984,0-3.604,1.613-3.604,3.601v6.616
		c0,2.947-2.396,5.345-5.346,5.345c-2.947,0-5.346-2.396-5.346-5.345v-0.696l-2.813-6.642c-0.313-0.174-0.619-0.371-0.91-0.592
		c-1.362-1.025-2.329-2.438-2.799-4.076l-2.562-8.96c-0.362-1.274-0.112-2.61,0.685-3.666c0.797-1.058,2.014-1.663,3.336-1.663
		h0.562v-0.321c0-0.532,0.433-0.965,0.965-0.965c0.533,0,0.966,0.433,0.966,0.965v2.571c0,0.533-0.433,0.965-0.966,0.965
		c-0.532,0-0.965-0.432-0.965-0.965v-0.321h-0.562c-0.711,0-1.366,0.327-1.797,0.896c-0.43,0.566-0.563,1.29-0.367,1.975
		l2.562,8.961c0.716,2.5,3.029,4.246,5.632,4.246c2.6,0,4.916-1.746,5.631-4.246l2.562-8.962c0.194-0.685,0.062-1.405-0.368-1.974
		c-0.429-0.569-1.083-0.896-1.797-0.896h-0.561v0.321c0,0.533-0.434,0.965-0.965,0.965c-0.533,0-0.966-0.432-0.966-0.965v-2.571
		c0-0.532,0.433-0.965,0.966-0.965c0.531,0,0.965,0.433,0.965,0.965v0.321h0.561c1.322,0,2.54,0.605,3.337,1.663
		c0.798,1.056,1.046,2.392,0.685,3.666l-2.562,8.96c-0.47,1.641-1.438,3.051-2.799,4.076c-0.291,0.221-0.597,0.418-0.909,0.592
		l-2.813,6.642v0.696c0,1.884,1.531,3.416,3.416,3.416s3.418-1.532,3.418-3.416v-6.616c0-3.049,2.479-5.528,5.528-5.528
		c3.052,0,5.531,2.479,5.531,5.528v2.282c2.198,0.449,3.856,2.398,3.856,4.729C139.73,1764.229,137.566,1766.392,134.908,1766.392z"
		/>
</g>
<g>
	<g>
		<path fill="#F3726A" d="M201.655,93.539c0,4.344-3.521,7.863-7.864,7.863H-47.738c-4.342,0-7.864-3.52-7.864-7.863V59.264
			c0-4.344,3.521-7.862,7.864-7.862h241.529c4.344,0,7.864,3.518,7.864,7.862V93.539L201.655,93.539z"/>
	</g>
	<g>
		<g>
			<path fill="#FFFFFF" d="M59.767,70.248v9.791l0.958,0.031l-0.097,3.751h-1.104l-0.098-2.63h-6.901l-0.097,2.63h-1.103
				l-0.098-3.751l0.829-0.031c0.406-0.747,0.813-1.542,1.072-2.403c0.374-1.267,0.52-2.728,0.52-4.61v-2.777H59.767z M54.962,73.479
				c0,1.753-0.163,3.23-0.553,4.464c-0.226,0.762-0.567,1.494-0.892,2.079h4.838v-8.607h-3.393v2.063H54.962z"/>
			<path fill="#FFFFFF" d="M66.899,81.19l-0.113-0.99h-0.049c-0.438,0.618-1.282,1.168-2.403,1.168c-1.59,0-2.403-1.119-2.403-2.256
				c0-1.899,1.688-2.94,4.725-2.922v-0.164c0-0.647-0.179-1.817-1.786-1.817c-0.731,0-1.493,0.228-2.045,0.584L62.5,73.853
				c0.649-0.422,1.592-0.699,2.582-0.699c2.403,0,2.987,1.64,2.987,3.214v2.94c0,0.681,0.033,1.346,0.13,1.882H66.899L66.899,81.19z
				 M66.69,77.18c-1.559-0.03-3.329,0.246-3.329,1.771c0,0.926,0.617,1.364,1.348,1.364c1.022,0,1.672-0.647,1.9-1.316
				c0.048-0.145,0.081-0.31,0.081-0.455V77.18z"/>
			<path fill="#FFFFFF" d="M76.371,73.333v7.858h-1.414v-6.737h-2.696v2.043c0,2.211-0.21,3.687-1.234,4.353
				c-0.39,0.311-0.827,0.486-1.558,0.486l-0.146-1.118c0.276-0.05,0.585-0.164,0.78-0.325c0.731-0.535,0.812-1.64,0.812-3.396
				v-3.165H76.371z"/>
			<path fill="#FFFFFF" d="M79.508,77.521c0.032,1.935,1.267,2.73,2.694,2.73c1.023,0,1.64-0.182,2.177-0.409l0.243,1.025
				c-0.503,0.228-1.364,0.487-2.614,0.487c-2.419,0-3.864-1.593-3.864-3.963c0-2.371,1.396-4.238,3.687-4.238
				c2.565,0,3.247,2.257,3.247,3.701c0,0.293-0.032,0.521-0.048,0.666H79.508L79.508,77.521z M83.698,76.497
				c0.016-0.908-0.375-2.32-1.982-2.32c-1.443,0-2.077,1.333-2.19,2.32H83.698z"/>
			<path fill="#FFFFFF" d="M87.646,77.521c0.032,1.935,1.267,2.73,2.694,2.73c1.023,0,1.64-0.182,2.177-0.409l0.243,1.025
				c-0.503,0.228-1.364,0.487-2.614,0.487c-2.418,0-3.864-1.593-3.864-3.963c0-2.371,1.396-4.238,3.688-4.238
				c2.566,0,3.246,2.257,3.246,3.701c0,0.293-0.032,0.521-0.048,0.666H87.646L87.646,77.521z M91.837,76.497
				c0.017-0.908-0.375-2.32-1.98-2.32c-1.445,0-2.079,1.333-2.192,2.32H91.837z"/>
		</g>
	</g>
	<path fill="#FFFFFF" d="M113.987,61.433c0.616,0,1.235,0,1.854,0c0.33,0.042,0.663,0.077,0.994,0.129
		c3.703,0.561,6.751,2.287,9.063,5.233c2.43,3.099,3.362,6.639,2.849,10.537c-0.363,2.741-1.484,5.169-3.313,7.249
		c-2.246,2.546-5.051,4.101-8.411,4.63c-0.395,0.061-0.791,0.108-1.185,0.161c-0.616,0-1.235,0-1.853,0
		c-0.332-0.04-0.663-0.078-0.993-0.125c-2.755-0.402-5.199-1.501-7.284-3.349c-2.533-2.242-4.076-5.041-4.604-8.386
		c-0.061-0.392-0.108-0.788-0.161-1.182c0-0.619,0-1.236,0-1.854c0.042-0.333,0.08-0.663,0.127-0.994
		c0.403-2.747,1.494-5.182,3.33-7.266c2.243-2.541,5.047-4.092,8.404-4.619C113.2,61.533,113.594,61.485,113.987,61.433z
		 M116.764,75.394c-0.09,0.094-0.155,0.165-0.225,0.238c-1.536,1.536-3.075,3.073-4.608,4.607c-0.09,0.092-0.183,0.181-0.257,0.282
		c-0.198,0.257-0.288,0.545-0.229,0.871c0.08,0.458,0.344,0.78,0.785,0.928c0.494,0.163,0.904,0,1.261-0.358
		c1.883-1.886,3.77-3.765,5.647-5.656c0.149-0.146,0.284-0.338,0.357-0.535c0.178-0.484,0.019-0.905-0.338-1.263
		c-1.897-1.896-3.795-3.792-5.693-5.688c-0.05-0.05-0.105-0.097-0.163-0.142c-0.402-0.322-0.947-0.338-1.367-0.044
		c-0.634,0.438-0.677,1.248-0.093,1.837c0.941,0.952,1.888,1.893,2.836,2.838C115.361,73.995,116.05,74.682,116.764,75.394z"/>
</g>
</svg>
