<?xml version="1.0" encoding="utf-8"?>
<!-- Generator: Adobe Illustrator 16.0.3, SVG Export Plug-In . SVG Version: 6.00 Build 0)  -->
<!DOCTYPE svg PUBLIC "-//W3C//DTD SVG 1.1//EN" "http://www.w3.org/Graphics/SVG/1.1/DTD/svg11.dtd">
<svg version="1.1" id="Layer_1" xmlns="http://www.w3.org/2000/svg" xmlns:xlink="http://www.w3.org/1999/xlink" x="0px" y="0px"
	 width="338.499px" height="50px" viewBox="-94.249 46.513 338.499 50" enable-background="new -94.249 46.513 338.499 50"
	 xml:space="preserve">
<g>
	<path fill="#F3726A" d="M117.014,1754.814c-0.445,0-0.885-0.037-1.313-0.111l1.313,3.104l1.315-3.104
		C117.898,1754.777,117.459,1754.814,117.014,1754.814z"/>
	<path fill="#F3726A" d="M134.908,1758.674c-1.596,0-2.895,1.297-2.895,2.893c0,1.598,1.299,2.896,2.895,2.896
		s2.895-1.299,2.895-2.896C137.803,1759.971,136.504,1758.674,134.908,1758.674z M134.908,1762.531
		c-0.533,0-0.965-0.434-0.965-0.965c0-0.533,0.432-0.965,0.965-0.965s0.965,0.432,0.965,0.965
		C135.873,1762.099,135.441,1762.531,134.908,1762.531z"/>
	<path fill="#F3726A" d="M123.268,1725.057c-13.808,0-25,11.191-25,25c0,13.807,11.192,25,25,25c13.809,0,25-11.193,25-25
		C148.268,1736.248,137.074,1725.057,123.268,1725.057z M134.908,1766.392c-2.66,0-4.824-2.163-4.824-4.823
		c0-2.328,1.66-4.277,3.859-4.729v-2.282c0-1.985-1.615-3.601-3.604-3.601c-1.984,0-3.604,1.613-3.604,3.601v6.616
		c0,2.947-2.396,5.345-5.346,5.345c-2.947,0-5.346-2.396-5.346-5.345v-0.696l-2.813-6.642c-0.313-0.174-0.619-0.371-0.91-0.592
		c-1.362-1.025-2.329-2.438-2.799-4.076l-2.562-8.96c-0.362-1.274-0.112-2.61,0.685-3.666c0.797-1.058,2.014-1.663,3.336-1.663
		h0.562v-0.321c0-0.532,0.433-0.965,0.965-0.965c0.533,0,0.966,0.433,0.966,0.965v2.571c0,0.533-0.433,0.965-0.966,0.965
		c-0.532,0-0.965-0.432-0.965-0.965v-0.321h-0.562c-0.711,0-1.366,0.327-1.797,0.896c-0.43,0.566-0.563,1.29-0.367,1.975
		l2.562,8.961c0.716,2.5,3.029,4.246,5.632,4.246c2.6,0,4.916-1.746,5.631-4.246l2.562-8.962c0.194-0.685,0.062-1.405-0.368-1.974
		c-0.429-0.569-1.083-0.896-1.797-0.896h-0.561v0.321c0,0.533-0.434,0.965-0.965,0.965c-0.533,0-0.966-0.432-0.966-0.965v-2.571
		c0-0.532,0.433-0.965,0.966-0.965c0.531,0,0.965,0.433,0.965,0.965v0.321h0.561c1.322,0,2.54,0.605,3.337,1.663
		c0.798,1.056,1.046,2.392,0.685,3.666l-2.562,8.96c-0.47,1.641-1.438,3.051-2.799,4.076c-0.291,0.221-0.597,0.418-0.909,0.592
		l-2.813,6.642v0.696c0,1.884,1.531,3.416,3.416,3.416s3.418-1.532,3.418-3.416v-6.616c0-3.049,2.479-5.528,5.528-5.528
		c3.052,0,5.531,2.479,5.531,5.528v2.282c2.198,0.449,3.856,2.398,3.856,4.729C139.73,1764.229,137.566,1766.392,134.908,1766.392z"
		/>
</g>
<g>
	<path fill="#F3726A" d="M117.014,1754.814c-0.445,0-0.885-0.037-1.313-0.111l1.313,3.104l1.315-3.104
		C117.898,1754.777,117.459,1754.814,117.014,1754.814z"/>
	<path fill="#F3726A" d="M134.908,1758.674c-1.596,0-2.895,1.297-2.895,2.893c0,1.598,1.299,2.896,2.895,2.896
		s2.895-1.299,2.895-2.896C137.803,1759.971,136.504,1758.674,134.908,1758.674z M134.908,1762.531
		c-0.533,0-0.965-0.434-0.965-0.965c0-0.533,0.432-0.965,0.965-0.965s0.965,0.432,0.965,0.965
		C135.873,1762.099,135.441,1762.531,134.908,1762.531z"/>
	<path fill="#F3726A" d="M123.268,1725.057c-13.808,0-25,11.191-25,25c0,13.807,11.192,25,25,25c13.809,0,25-11.193,25-25
		C148.268,1736.248,137.074,1725.057,123.268,1725.057z M134.908,1766.392c-2.66,0-4.824-2.163-4.824-4.823
		c0-2.328,1.66-4.277,3.859-4.729v-2.282c0-1.985-1.615-3.601-3.604-3.601c-1.984,0-3.604,1.613-3.604,3.601v6.616
		c0,2.947-2.396,5.345-5.346,5.345c-2.947,0-5.346-2.396-5.346-5.345v-0.696l-2.813-6.642c-0.313-0.174-0.619-0.371-0.91-0.592
		c-1.362-1.025-2.329-2.438-2.799-4.076l-2.562-8.96c-0.362-1.274-0.112-2.61,0.685-3.666c0.797-1.058,2.014-1.663,3.336-1.663
		h0.562v-0.321c0-0.532,0.433-0.965,0.965-0.965c0.533,0,0.966,0.433,0.966,0.965v2.571c0,0.533-0.433,0.965-0.966,0.965
		c-0.532,0-0.965-0.432-0.965-0.965v-0.321h-0.562c-0.711,0-1.366,0.327-1.797,0.896c-0.43,0.566-0.563,1.29-0.367,1.975
		l2.562,8.961c0.716,2.5,3.029,4.246,5.632,4.246c2.6,0,4.916-1.746,5.631-4.246l2.562-8.962c0.194-0.685,0.062-1.405-0.368-1.974
		c-0.429-0.569-1.083-0.896-1.797-0.896h-0.561v0.321c0,0.533-0.434,0.965-0.965,0.965c-0.533,0-0.966-0.432-0.966-0.965v-2.571
		c0-0.532,0.433-0.965,0.966-0.965c0.531,0,0.965,0.433,0.965,0.965v0.321h0.561c1.322,0,2.54,0.605,3.337,1.663
		c0.798,1.056,1.046,2.392,0.685,3.666l-2.562,8.96c-0.47,1.641-1.438,3.051-2.799,4.076c-0.291,0.221-0.597,0.418-0.909,0.592
		l-2.813,6.642v0.696c0,1.884,1.531,3.416,3.416,3.416s3.418-1.532,3.418-3.416v-6.616c0-3.049,2.479-5.528,5.528-5.528
		c3.052,0,5.531,2.479,5.531,5.528v2.282c2.198,0.449,3.856,2.398,3.856,4.729C139.73,1764.229,137.566,1766.392,134.908,1766.392z"
		/>
</g>
<g>
	<g>
		<g>
			<path fill="#F3726A" d="M244.25,88.648c0,4.345-4.63,7.864-10.347,7.864H-83.902c-5.714,0-10.346-3.52-10.346-7.864V54.375
				c0-4.344,4.632-7.862,10.346-7.862h317.806c5.717,0,10.347,3.518,10.347,7.862V88.648z"/>
		</g>
		<g>
			<g>
				<path fill="#FFFFFF" d="M-68.027,50.186v6.068h0.282l4.03-6.068h4.009l-5.093,6.479c1.885,0.477,2.73,1.778,3.337,3.532
					c0.52,1.562,0.997,3.143,1.691,4.595h-3.554c-0.499-0.997-0.78-2.124-1.127-3.207c-0.499-1.646-1.17-2.904-2.948-2.904h-0.628
					v6.111H-71.3V50.186H-68.027z"/>
				<path fill="#FFFFFF" d="M-56.502,54.195l1.581,5.2c0.173,0.628,0.39,1.409,0.52,1.972h0.064
					c0.152-0.564,0.325-1.366,0.477-1.972l1.3-5.2h3.533l-2.471,6.978c-1.518,4.204-2.536,5.895-3.727,6.957
					c-1.149,0.996-2.362,1.342-3.186,1.451l-0.693-2.794c0.412-0.065,0.931-0.26,1.431-0.563c0.499-0.26,1.04-0.781,1.365-1.323
					c0.107-0.151,0.173-0.325,0.173-0.477c0-0.108-0.021-0.282-0.152-0.542l-3.878-9.687H-56.502z"/>
				<path fill="#FFFFFF" d="M-47.643,57.749c0-1.387-0.043-2.579-0.086-3.554h2.86l0.151,1.473h0.043
					c0.78-1.128,1.995-1.713,3.532-1.713c2.32,0,4.4,2.016,4.4,5.396c0,3.857-2.449,5.679-4.811,5.679
					c-1.278,0-2.276-0.521-2.752-1.213h-0.043v5.265h-3.294V57.749z M-44.35,60.241c0,0.26,0.021,0.499,0.065,0.694
					c0.217,0.888,0.974,1.559,1.927,1.559c1.431,0,2.276-1.191,2.276-2.99c0-1.691-0.758-2.969-2.231-2.969
					c-0.931,0-1.754,0.693-1.972,1.668c-0.044,0.173-0.065,0.392-0.065,0.586V60.241z"/>
				<path fill="#FFFFFF" d="M-26.738,64.531c-0.585,0.26-1.691,0.477-2.948,0.477c-3.423,0-5.613-2.081-5.613-5.418
					c0-3.099,2.123-5.635,6.068-5.635c0.866,0,1.819,0.152,2.513,0.412l-0.52,2.449c-0.39-0.174-0.975-0.325-1.841-0.325
					c-1.732,0-2.86,1.235-2.839,2.969c0,1.95,1.3,2.97,2.904,2.97c0.78,0,1.386-0.13,1.886-0.325L-26.738,64.531z"/>
				<path fill="#FFFFFF" d="M-20.329,61.389c0.89,0.455,2.254,0.91,3.664,0.91c1.517,0,2.317-0.628,2.317-1.581
					c0-0.91-0.692-1.43-2.449-2.06c-2.427-0.846-4.008-2.189-4.008-4.313c0-2.491,2.081-4.398,5.526-4.398
					c1.646,0,2.861,0.346,3.727,0.736l-0.736,2.666c-0.584-0.282-1.625-0.695-3.056-0.695c-1.43,0-2.123,0.65-2.123,1.41
					c0,0.931,0.823,1.344,2.708,2.059c2.579,0.953,3.792,2.296,3.792,4.355c0,2.449-1.886,4.529-5.895,4.529
					c-1.668,0-3.315-0.433-4.139-0.888L-20.329,61.389z"/>
				<path fill="#FFFFFF" d="M-2.65,64.791l-0.196-1.061h-0.065c-0.693,0.845-1.777,1.3-3.034,1.3c-2.145,0-3.424-1.562-3.424-3.25
					c0-2.753,2.471-4.074,6.219-4.052v-0.152c0-0.563-0.303-1.364-1.929-1.364c-1.083,0-2.231,0.368-2.926,0.801l-0.606-2.124
					c0.736-0.411,2.189-0.932,4.117-0.932c3.532,0,4.659,2.081,4.659,4.572v3.684c0,1.018,0.043,1.994,0.151,2.579H-2.65z
					 M-3.042,59.786c-1.734-0.022-3.077,0.39-3.077,1.668c0,0.845,0.563,1.256,1.3,1.256c0.823,0,1.495-0.542,1.711-1.212
					c0.043-0.174,0.065-0.369,0.065-0.563L-3.042,59.786L-3.042,59.786z"/>
				<path fill="#FFFFFF" d="M10.715,64.531c-0.585,0.26-1.691,0.477-2.948,0.477c-3.423,0-5.613-2.081-5.613-5.418
					c0-3.099,2.123-5.635,6.068-5.635c0.867,0,1.82,0.152,2.513,0.412l-0.52,2.449c-0.39-0.174-0.975-0.325-1.841-0.325
					c-1.733,0-2.861,1.235-2.839,2.969c0,1.95,1.3,2.97,2.904,2.97c0.78,0,1.386-0.13,1.886-0.325L10.715,64.531z"/>
				<path fill="#FFFFFF" d="M20.246,64.531c-0.585,0.26-1.691,0.477-2.948,0.477c-3.424,0-5.613-2.081-5.613-5.418
					c0-3.099,2.123-5.635,6.068-5.635c0.866,0,1.82,0.152,2.513,0.412l-0.52,2.449c-0.39-0.174-0.975-0.325-1.841-0.325
					c-1.733,0-2.861,1.235-2.839,2.969c0,1.95,1.3,2.97,2.904,2.97c0.78,0,1.386-0.13,1.886-0.325L20.246,64.531z"/>
				<path fill="#FFFFFF" d="M22.063,49.406h3.294v6.046H25.4c0.347-0.455,0.78-0.801,1.3-1.083c0.476-0.26,1.104-0.412,1.712-0.412
					c2.102,0,3.706,1.453,3.706,4.639v6.197h-3.294v-5.829c0-1.386-0.477-2.341-1.712-2.341c-0.868,0-1.409,0.564-1.647,1.149
					c-0.087,0.217-0.108,0.499-0.108,0.737v6.284h-3.294V49.406z"/>
				<path fill="#FFFFFF" d="M40.781,64.791l-0.195-1.061h-0.065c-0.693,0.845-1.778,1.3-3.034,1.3c-2.145,0-3.424-1.562-3.424-3.25
					c0-2.753,2.47-4.074,6.219-4.052v-0.152c0-0.563-0.303-1.364-1.929-1.364c-1.083,0-2.231,0.368-2.926,0.801l-0.606-2.124
					c0.737-0.411,2.189-0.932,4.117-0.932c3.533,0,4.659,2.081,4.659,4.572v3.684c0,1.018,0.043,1.994,0.151,2.579H40.781z
					 M40.391,59.786c-1.734-0.022-3.077,0.39-3.077,1.668c0,0.845,0.563,1.256,1.3,1.256c0.823,0,1.495-0.542,1.711-1.212
					c0.043-0.174,0.065-0.369,0.065-0.563L40.391,59.786L40.391,59.786z"/>
				<path fill="#FFFFFF" d="M46.194,57.683c0-1.559-0.043-2.579-0.086-3.488h2.838l0.108,1.95h0.087
					c0.542-1.539,1.842-2.189,2.861-2.189c0.303,0,0.455,0,0.693,0.043v3.099c-0.238-0.043-0.52-0.087-0.888-0.087
					c-1.213,0-2.036,0.65-2.254,1.668c-0.043,0.216-0.065,0.476-0.065,0.736v5.375h-3.293V57.683L46.194,57.683z"/>
				<path fill="#FFFFFF" d="M64.717,59.375c0,3.879-2.752,5.656-5.591,5.656c-3.099,0-5.481-2.037-5.481-5.461
					c0-3.424,2.254-5.613,5.656-5.613C62.551,53.956,64.717,56.188,64.717,59.375z M57.046,59.483c0,1.82,0.76,3.186,2.167,3.186
					c1.279,0,2.102-1.278,2.102-3.186c0-1.582-0.606-3.186-2.102-3.186C57.631,56.297,57.046,57.922,57.046,59.483z"/>
				<path fill="#FFFFFF" d="M66.751,57.575c0-1.322-0.043-2.448-0.087-3.38h2.775l0.151,1.431h0.065
					c0.455-0.672,1.386-1.669,3.207-1.669c1.365,0,2.449,0.694,2.905,1.8h0.042c0.389-0.542,0.867-0.975,1.364-1.278
					c0.586-0.347,1.235-0.521,2.016-0.521c2.038,0,3.577,1.431,3.577,4.595v6.241H79.56v-5.764c0-1.538-0.5-2.426-1.56-2.426
					c-0.761,0-1.302,0.52-1.517,1.148c-0.088,0.238-0.131,0.584-0.131,0.846v6.197h-3.209v-5.938c0-1.343-0.477-2.254-1.518-2.254
					c-0.845,0-1.342,0.65-1.538,1.191c-0.108,0.26-0.13,0.563-0.13,0.823v6.176H66.75L66.751,57.575L66.751,57.575z"/>
				<path fill="#FFFFFF" d="M87.438,54.195l1.581,5.2c0.175,0.628,0.392,1.409,0.522,1.972h0.063
					c0.151-0.564,0.323-1.366,0.479-1.972l1.299-5.2h3.531l-2.469,6.978c-1.518,4.204-2.536,5.895-3.729,6.957
					c-1.147,0.996-2.36,1.342-3.185,1.451l-0.696-2.794c0.413-0.065,0.934-0.26,1.431-0.563c0.5-0.26,1.043-0.781,1.368-1.323
					c0.109-0.151,0.173-0.325,0.173-0.477c0-0.108-0.023-0.282-0.149-0.542l-3.88-9.687H87.438z"/>
				<path fill="#FFFFFF" d="M103.923,64.531c-0.585,0.26-1.69,0.477-2.946,0.477c-3.424,0-5.613-2.081-5.613-5.418
					c0-3.099,2.123-5.635,6.068-5.635c0.867,0,1.819,0.152,2.514,0.412l-0.521,2.449c-0.392-0.174-0.977-0.325-1.843-0.325
					c-1.73,0-2.859,1.235-2.837,2.969c0,1.95,1.298,2.97,2.904,2.97c0.778,0,1.384-0.13,1.886-0.325L103.923,64.531z"/>
				<path fill="#FFFFFF" d="M108.04,60.544c0.105,1.364,1.451,2.016,2.987,2.016c1.129,0,2.039-0.151,2.928-0.433l0.432,2.231
					c-1.084,0.433-2.404,0.65-3.837,0.65c-3.595,0-5.655-2.081-5.655-5.396c0-2.688,1.667-5.657,5.352-5.657
					c3.423,0,4.724,2.666,4.724,5.288c0,0.563-0.065,1.061-0.108,1.3h-6.821V60.544z M111.916,58.292
					c0-0.802-0.347-2.146-1.861-2.146c-1.387,0-1.95,1.257-2.039,2.146H111.916z"/>
				<path fill="#FFFFFF" d="M116.916,61.909c0.608,0.368,1.864,0.801,2.84,0.801c0.997,0,1.41-0.346,1.41-0.888
					s-0.325-0.801-1.561-1.213c-2.188-0.737-3.034-1.928-3.012-3.186c0-1.973,1.689-3.467,4.312-3.467
					c1.236,0,2.342,0.282,2.99,0.607l-0.585,2.275c-0.477-0.26-1.385-0.606-2.298-0.606c-0.802,0-1.257,0.324-1.257,0.868
					c0,0.498,0.413,0.758,1.711,1.213c2.018,0.692,2.861,1.712,2.884,3.272c0,1.973-1.561,3.424-4.595,3.424
					c-1.384,0-2.623-0.304-3.424-0.736L116.916,61.909z"/>
				<path fill="#FFFFFF" d="M126.449,50.38c0.867-0.173,2.623-0.303,4.27-0.303c2.016,0,3.25,0.195,4.311,0.823
					c1.021,0.542,1.756,1.539,1.756,2.86c0,1.3-0.759,2.514-2.403,3.121v0.043c1.668,0.455,2.904,1.712,2.904,3.597
					c0,1.323-0.606,2.363-1.517,3.099c-1.061,0.845-2.838,1.321-5.743,1.321c-1.623,0-2.839-0.108-3.576-0.217L126.449,50.38
					L126.449,50.38z M129.723,55.973h1.081c1.734,0,2.665-0.715,2.665-1.8c0-1.104-0.843-1.691-2.34-1.691
					c-0.714,0-1.126,0.043-1.406,0.087V55.973z M129.723,62.452c0.325,0.043,0.714,0.043,1.277,0.043
					c1.495,0,2.818-0.563,2.818-2.103c0-1.473-1.323-2.06-2.97-2.06h-1.126V62.452z"/>
				<path fill="#FFFFFF" d="M150.022,59.375c0,3.879-2.753,5.656-5.593,5.656c-3.099,0-5.481-2.037-5.481-5.461
					c0-3.424,2.253-5.613,5.656-5.613C147.854,53.956,150.022,56.188,150.022,59.375z M142.349,59.483
					c0,1.82,0.759,3.186,2.168,3.186c1.277,0,2.103-1.278,2.103-3.186c0-1.582-0.607-3.186-2.103-3.186
					C142.936,56.297,142.349,57.922,142.349,59.483z"/>
				<path fill="#FFFFFF" d="M162.043,61.389c0,1.386,0.042,2.514,0.085,3.402h-2.857l-0.153-1.495h-0.063
					c-0.414,0.65-1.409,1.734-3.314,1.734c-2.146,0-3.729-1.344-3.729-4.617v-6.219h3.315v5.698c0,1.539,0.5,2.471,1.647,2.471
					c0.911,0,1.432-0.628,1.648-1.148c0.086-0.195,0.108-0.455,0.108-0.715v-6.306h3.314L162.043,61.389L162.043,61.389z"/>
				<path fill="#FFFFFF" d="M164.682,49.406h3.292v15.386h-3.292V49.406z"/>
				<path fill="#FFFFFF" d="M176.663,64.791l-0.196-1.061h-0.063c-0.696,0.845-1.778,1.3-3.036,1.3c-2.145,0-3.424-1.562-3.424-3.25
					c0-2.753,2.472-4.074,6.219-4.052v-0.152c0-0.563-0.302-1.364-1.928-1.364c-1.084,0-2.231,0.368-2.925,0.801l-0.607-2.124
					c0.737-0.411,2.189-0.932,4.117-0.932c3.532,0,4.659,2.081,4.659,4.572v3.684c0,1.018,0.045,1.994,0.153,2.579H176.663z
					 M176.271,59.786c-1.731-0.022-3.074,0.39-3.074,1.668c0,0.845,0.563,1.256,1.299,1.256c0.823,0,1.495-0.542,1.713-1.212
					c0.043-0.174,0.065-0.369,0.065-0.563v-1.148H176.271z"/>
				<path fill="#FFFFFF" d="M182.076,57.683c0-1.559-0.045-2.579-0.088-3.488h2.839l0.108,1.95h0.086
					c0.542-1.539,1.843-2.189,2.861-2.189c0.304,0,0.454,0,0.692,0.043v3.099c-0.238-0.043-0.519-0.087-0.889-0.087
					c-1.212,0-2.036,0.65-2.253,1.668c-0.041,0.216-0.065,0.476-0.065,0.736v5.375h-3.292V57.683L182.076,57.683z"/>
				<path fill="#FFFFFF" d="M200.405,49.406v12.222c0,1.191,0.043,2.449,0.088,3.164h-2.928l-0.15-1.56h-0.045
					c-0.672,1.191-1.949,1.799-3.313,1.799c-2.514,0-4.529-2.146-4.529-5.44c-0.021-3.576,2.211-5.635,4.744-5.635
					c1.301,0,2.318,0.455,2.797,1.191h0.043v-5.743H200.405z M197.111,58.682c0-0.173-0.021-0.412-0.043-0.585
					c-0.195-0.889-0.912-1.626-1.93-1.626c-1.496,0-2.274,1.343-2.274,3.013c0,1.798,0.887,2.926,2.253,2.926
					c0.954,0,1.714-0.65,1.905-1.582c0.067-0.238,0.086-0.477,0.086-0.758v-1.387H197.111z"/>
				<path fill="#FFFFFF" d="M206.445,51.247c0,0.91-0.693,1.646-1.777,1.646c-1.04,0-1.731-0.736-1.711-1.646
					c-0.022-0.955,0.671-1.667,1.733-1.667C205.752,49.58,206.424,50.294,206.445,51.247z M203.045,64.791V54.195h3.292v10.596
					H203.045z"/>
				<path fill="#FFFFFF" d="M212.382,51.247c0,0.91-0.693,1.646-1.777,1.646c-1.042,0-1.734-0.736-1.714-1.646
					c-0.022-0.955,0.672-1.667,1.735-1.667C211.688,49.58,212.36,50.294,212.382,51.247z M208.979,64.791V54.195h3.295v10.596
					H208.979z"/>
				<path fill="#FFFFFF" d="M213.938,65.658l4.639-15.71h2.187l-4.636,15.71H213.938z"/>
				<path fill="#FFFFFF" d="M-63.707,76.18h3.316v11.832h5.808v2.773h-9.123L-63.707,76.18L-63.707,76.18z"/>
				<path fill="#FFFFFF" d="M-46.634,90.785l-0.195-1.061h-0.065c-0.693,0.844-1.778,1.299-3.034,1.299
					c-2.145,0-3.424-1.561-3.424-3.25c0-2.751,2.471-4.075,6.22-4.05V83.57c0-0.563-0.303-1.364-1.929-1.364
					c-1.083,0-2.231,0.366-2.925,0.801l-0.607-2.122c0.736-0.413,2.189-0.932,4.117-0.932c3.532,0,4.658,2.078,4.658,4.572v3.685
					c0,1.018,0.044,1.993,0.152,2.576L-46.634,90.785L-46.634,90.785z M-47.024,85.779c-1.735-0.021-3.078,0.392-3.078,1.669
					c0,0.846,0.563,1.259,1.3,1.259c0.823,0,1.495-0.542,1.711-1.214c0.043-0.175,0.065-0.369,0.065-0.565v-1.148H-47.024z"/>
				<path fill="#FFFFFF" d="M-33.27,90.526c-0.584,0.259-1.691,0.478-2.947,0.478c-3.424,0-5.613-2.081-5.613-5.419
					c0-3.099,2.123-5.632,6.068-5.632c0.867,0,1.82,0.149,2.513,0.41l-0.52,2.449c-0.39-0.172-0.975-0.325-1.842-0.325
					c-1.732,0-2.86,1.238-2.838,2.97c0,1.95,1.299,2.968,2.904,2.968c0.779,0,1.386-0.129,1.886-0.323L-33.27,90.526z"/>
				<path fill="#FFFFFF" d="M-27.423,77.154v3.035h2.362v2.428h-2.362v3.834c0,1.28,0.303,1.864,1.299,1.864
					c0.411,0,0.736-0.042,0.975-0.087l0.022,2.494c-0.433,0.172-1.213,0.281-2.145,0.281c-1.062,0-1.95-0.367-2.471-0.911
					c-0.606-0.63-0.91-1.647-0.91-3.141v-4.334h-1.409v-2.427h1.409v-2.297L-27.423,77.154z"/>
				<path fill="#FFFFFF" d="M-12.799,85.367c0,3.879-2.752,5.656-5.591,5.656c-3.099,0-5.482-2.036-5.482-5.461
					c0-3.424,2.254-5.61,5.656-5.61C-14.965,79.952-12.799,82.184-12.799,85.367z M-20.47,85.476c0,1.822,0.76,3.187,2.168,3.187
					c1.278,0,2.102-1.277,2.102-3.187c0-1.581-0.607-3.184-2.102-3.184C-19.884,82.292-20.47,83.915-20.47,85.476z"/>
				<path fill="#FFFFFF" d="M-10.852,90.785c0.043-0.692,0.086-1.973,0.086-3.162V75.4h3.294v6.045h0.044
					c0.628-0.91,1.732-1.495,3.207-1.495c2.536,0,4.399,2.103,4.377,5.353c0,3.812-2.426,5.719-4.854,5.719
					c-1.234,0-2.426-0.454-3.186-1.71h-0.043l-0.13,1.473L-10.852,90.785L-10.852,90.785z M-7.473,86.279
					c0,0.217,0.021,0.41,0.064,0.585c0.217,0.888,0.975,1.56,1.928,1.56c1.41,0,2.275-1.084,2.275-2.99
					c0-1.647-0.736-2.948-2.275-2.948c-0.888,0-1.711,0.674-1.928,1.626c-0.043,0.195-0.064,0.392-0.064,0.608V86.279z"/>
				<path fill="#FFFFFF" d="M8.211,90.785l-0.195-1.061H7.952c-0.693,0.844-1.778,1.299-3.034,1.299
					c-2.145,0-3.424-1.561-3.424-3.25c0-2.751,2.471-4.075,6.219-4.05V83.57c0-0.563-0.303-1.364-1.929-1.364
					c-1.083,0-2.231,0.366-2.926,0.801l-0.606-2.122c0.736-0.413,2.189-0.932,4.117-0.932c3.532,0,4.658,2.078,4.658,4.572v3.685
					c0,1.018,0.043,1.993,0.151,2.576L8.211,90.785L8.211,90.785z M7.821,85.779c-1.734-0.021-3.077,0.392-3.077,1.669
					c0,0.846,0.563,1.259,1.3,1.259c0.823,0,1.495-0.542,1.711-1.214c0.043-0.175,0.065-0.369,0.065-0.565L7.821,85.779
					L7.821,85.779z"/>
				<path fill="#FFFFFF" d="M21.578,90.526c-0.585,0.259-1.691,0.478-2.948,0.478c-3.423,0-5.613-2.081-5.613-5.419
					c0-3.099,2.123-5.632,6.068-5.632c0.866,0,1.819,0.149,2.513,0.41l-0.521,2.449c-0.39-0.172-0.974-0.325-1.841-0.325
					c-1.733,0-2.86,1.238-2.839,2.97c0,1.95,1.3,2.968,2.904,2.968c0.78,0,1.386-0.129,1.886-0.323L21.578,90.526z"/>
				<path fill="#FFFFFF" d="M26.796,77.241c0,0.91-0.693,1.647-1.778,1.647c-1.04,0-1.732-0.737-1.711-1.647
					c-0.021-0.953,0.672-1.668,1.733-1.668C26.101,75.573,26.774,76.289,26.796,77.241z M23.394,90.785V80.189h3.294v10.596H23.394z
					"/>
				<path fill="#FFFFFF" d="M29.329,75.4h3.294v15.385h-3.294V75.4z"/>
				<path fill="#FFFFFF" d="M35.286,75.4h3.294v15.385h-3.294V75.4z"/>
				<path fill="#FFFFFF" d="M51.232,87.385c0,1.384,0.044,2.511,0.087,3.4h-2.86l-0.151-1.494h-0.065
					c-0.412,0.649-1.41,1.73-3.315,1.73c-2.145,0-3.727-1.342-3.727-4.612v-6.221h3.315v5.698c0,1.54,0.498,2.47,1.646,2.47
					c0.91,0,1.431-0.627,1.646-1.148c0.086-0.196,0.108-0.455,0.108-0.713v-6.307h3.315L51.232,87.385L51.232,87.385z"/>
				<path fill="#FFFFFF" d="M53.85,87.903c0.607,0.37,1.863,0.804,2.839,0.804c0.996,0,1.41-0.35,1.41-0.892
					c0-0.538-0.326-0.801-1.561-1.211c-2.188-0.737-3.033-1.93-3.012-3.187c0-1.973,1.691-3.468,4.313-3.468
					c1.234,0,2.341,0.28,2.989,0.604l-0.586,2.279c-0.477-0.262-1.386-0.608-2.296-0.608c-0.801,0-1.257,0.325-1.257,0.867
					c0,0.497,0.411,0.761,1.712,1.214c2.016,0.693,2.861,1.711,2.883,3.271c0,1.973-1.56,3.424-4.595,3.424
					c-1.386,0-2.623-0.304-3.424-0.735L53.85,87.903z"/>
				<path fill="#FFFFFF" d="M79.958,90.113c-1.021,0.347-2.948,0.825-4.877,0.825c-2.666,0-4.595-0.672-5.938-1.973
					c-1.344-1.256-2.08-3.165-2.059-5.31c0.022-4.854,3.554-7.628,8.344-7.628c1.886,0,3.338,0.368,4.052,0.715l-0.693,2.646
					c-0.801-0.35-1.798-0.63-3.402-0.63c-2.752,0-4.833,1.561-4.833,4.723c0,3.015,1.886,4.792,4.595,4.792
					c0.758,0,1.365-0.088,1.625-0.217V85h-2.253v-2.578h5.441L79.958,90.113L79.958,90.113z"/>
				<path fill="#FFFFFF" d="M94.731,90.113c-1.021,0.347-2.948,0.825-4.876,0.825c-2.667,0-4.598-0.672-5.94-1.973
					c-1.344-1.256-2.081-3.165-2.059-5.31c0.022-4.854,3.554-7.628,8.343-7.628c1.887,0,3.337,0.368,4.051,0.715l-0.693,2.646
					c-0.801-0.35-1.798-0.63-3.402-0.63c-2.75,0-4.831,1.561-4.831,4.723c0,3.015,1.885,4.792,4.593,4.792
					c0.76,0,1.367-0.088,1.626-0.217V85h-2.253v-2.578h5.439v7.691H94.731z"/>
				<path fill="#FFFFFF" d="M106.315,75.812c-1.234,1.993-2.189,4.896-2.189,8.775c0,3.815,0.976,6.698,2.189,8.713h-2.298
					c-1.169-1.667-2.47-4.549-2.47-8.733c0.022-4.203,1.301-7.063,2.47-8.754L106.315,75.812L106.315,75.812z"/>
				<path fill="#FFFFFF" d="M109.843,85.325l2.581,4.138h-2.298l-2.515-4.138l2.515-4.139h2.298L109.843,85.325z M114.047,85.325
					l2.581,4.138h-2.298l-2.515-4.138l2.515-4.139h2.298L114.047,85.325z"/>
				<path fill="#FFFFFF" d="M119.267,82.097h6.265c-0.217-1.952-1.584-3.491-4.032-3.491c-1.149,0-2.232,0.305-2.97,0.608
					l-0.649-2.449c0.889-0.39,2.316-0.823,3.879-0.823c5.136,0,7.323,3.511,7.323,7.564c0,4.918-3.339,7.518-7.628,7.518
					c-1.519,0-2.991-0.347-3.75-0.693l0.563-2.535c0.759,0.304,1.886,0.521,2.925,0.521c2.493,0,4.054-1.518,4.313-3.641h-6.24
					v-2.578H119.267z"/>
				<path fill="#FFFFFF" d="M134.432,80.189v3.835h3.337v-3.835h3.316v10.596h-3.316v-4.204h-3.337v4.204h-3.296V80.189H134.432z"/>
				<path fill="#FFFFFF" d="M152,80.189v2.513h-3.075v8.083h-3.315v-8.083h-3.077v-2.513H152z"/>
				<path fill="#FFFFFF" d="M155.811,86.539c0.108,1.364,1.451,2.015,2.99,2.015c1.127,0,2.036-0.151,2.925-0.434l0.433,2.23
					c-1.084,0.434-2.402,0.65-3.834,0.65c-3.598,0-5.656-2.081-5.656-5.395c0-2.688,1.667-5.656,5.351-5.656
					c3.424,0,4.726,2.666,4.726,5.285c0,0.563-0.066,1.063-0.109,1.301h-6.824V86.539z M159.689,84.286
					c0-0.805-0.347-2.147-1.864-2.147c-1.386,0-1.948,1.259-2.036,2.147H159.689z"/>
				<path fill="#FFFFFF" d="M164.714,83.743c0-1.388-0.045-2.578-0.086-3.554h2.859l0.15,1.474h0.043
					c0.78-1.127,1.993-1.711,3.532-1.711c2.319,0,4.4,2.015,4.4,5.394c0,3.858-2.45,5.676-4.81,5.676
					c-1.28,0-2.278-0.518-2.753-1.212h-0.045v5.268h-3.292V83.743L164.714,83.743z M168.006,86.234c0,0.262,0.023,0.5,0.066,0.693
					c0.217,0.888,0.976,1.563,1.927,1.563c1.431,0,2.277-1.192,2.277-2.991c0-1.692-0.759-2.969-2.23-2.969
					c-0.933,0-1.756,0.693-1.973,1.668c-0.042,0.172-0.066,0.389-0.066,0.585L168.006,86.234L168.006,86.234z"/>
				<path fill="#FFFFFF" d="M188.134,85.367c0,3.879-2.753,5.656-5.59,5.656c-3.1,0-5.485-2.036-5.485-5.461
					c0-3.424,2.255-5.61,5.657-5.61C185.966,79.952,188.134,82.184,188.134,85.367z M180.463,85.476
					c0,1.822,0.759,3.187,2.165,3.187c1.28,0,2.103-1.277,2.103-3.187c0-1.581-0.605-3.184-2.103-3.184
					C181.047,82.292,180.463,83.915,180.463,85.476z"/>
				<path fill="#FFFFFF" d="M199.374,80.189v10.596h-3.294v-8.083h-2.296v1.95c0,2.578-0.304,4.376-1.496,5.332
					c-0.672,0.714-1.603,1.018-3.075,1.018l-0.35-2.536c0.48-0.084,0.934-0.28,1.172-0.584c0.605-0.605,0.692-1.604,0.692-3.404
					v-4.289L199.374,80.189L199.374,80.189z"/>
				<path fill="#FFFFFF" d="M201.167,81.187h2.256l2.533,4.139l-2.533,4.138h-2.256l2.578-4.138L201.167,81.187z M205.308,81.187
					h2.274l2.536,4.139l-2.536,4.138h-2.274l2.6-4.138L205.308,81.187z"/>
				<path fill="#FFFFFF" d="M211.501,93.3c1.192-1.995,2.189-4.918,2.189-8.755s-0.976-6.721-2.189-8.734h2.298
					c1.147,1.668,2.47,4.509,2.47,8.734c-0.022,4.224-1.323,7.065-2.47,8.755H211.501z"/>
			</g>
		</g>
	</g>
</g>
</svg>
