<?xml version="1.0" encoding="utf-8"?>
<!-- Generator: Adobe Illustrator 16.0.3, SVG Export Plug-In . SVG Version: 6.00 Build 0)  -->
<!DOCTYPE svg PUBLIC "-//W3C//DTD SVG 1.1//EN" "http://www.w3.org/Graphics/SVG/1.1/DTD/svg11.dtd">
<svg version="1.1" id="Layer_1" xmlns="http://www.w3.org/2000/svg" xmlns:xlink="http://www.w3.org/1999/xlink" x="0px" y="0px"
	 width="257.251px" height="50px" viewBox="-55.661 48.348 257.251 50" enable-background="new -55.661 48.348 257.251 50"
	 xml:space="preserve">
<g>
	<path fill="#F3726A" d="M117.014,1754.814c-0.445,0-0.885-0.037-1.313-0.111l1.313,3.104l1.315-3.104
		C117.898,1754.777,117.459,1754.814,117.014,1754.814z"/>
	<path fill="#F3726A" d="M134.908,1758.674c-1.596,0-2.895,1.297-2.895,2.893c0,1.598,1.299,2.896,2.895,2.896
		s2.895-1.299,2.895-2.896C137.803,1759.971,136.504,1758.674,134.908,1758.674z M134.908,1762.531
		c-0.533,0-0.965-0.434-0.965-0.965c0-0.533,0.432-0.965,0.965-0.965s0.965,0.432,0.965,0.965
		C135.873,1762.099,135.441,1762.531,134.908,1762.531z"/>
	<path fill="#F3726A" d="M123.268,1725.057c-13.808,0-25,11.191-25,25c0,13.807,11.192,25,25,25c13.809,0,25-11.193,25-25
		C148.268,1736.248,137.074,1725.057,123.268,1725.057z M134.908,1766.392c-2.66,0-4.824-2.163-4.824-4.823
		c0-2.328,1.66-4.277,3.859-4.729v-2.282c0-1.985-1.615-3.601-3.604-3.601c-1.984,0-3.604,1.613-3.604,3.601v6.616
		c0,2.947-2.396,5.345-5.346,5.345c-2.947,0-5.346-2.396-5.346-5.345v-0.696l-2.813-6.642c-0.313-0.174-0.619-0.371-0.91-0.592
		c-1.362-1.025-2.329-2.438-2.799-4.076l-2.562-8.96c-0.362-1.274-0.112-2.61,0.685-3.666c0.797-1.058,2.014-1.663,3.336-1.663
		h0.562v-0.321c0-0.532,0.433-0.965,0.965-0.965c0.533,0,0.966,0.433,0.966,0.965v2.571c0,0.533-0.433,0.965-0.966,0.965
		c-0.532,0-0.965-0.432-0.965-0.965v-0.321h-0.562c-0.711,0-1.366,0.327-1.797,0.896c-0.43,0.566-0.563,1.29-0.367,1.975
		l2.562,8.961c0.716,2.5,3.029,4.246,5.632,4.246c2.6,0,4.916-1.746,5.631-4.246l2.562-8.962c0.194-0.685,0.062-1.405-0.368-1.974
		c-0.429-0.569-1.083-0.896-1.797-0.896h-0.561v0.321c0,0.533-0.434,0.965-0.965,0.965c-0.533,0-0.966-0.432-0.966-0.965v-2.571
		c0-0.532,0.433-0.965,0.966-0.965c0.531,0,0.965,0.433,0.965,0.965v0.321h0.561c1.322,0,2.54,0.605,3.337,1.663
		c0.798,1.056,1.046,2.392,0.685,3.666l-2.562,8.96c-0.47,1.641-1.438,3.051-2.799,4.076c-0.291,0.221-0.597,0.418-0.909,0.592
		l-2.813,6.642v0.696c0,1.884,1.531,3.416,3.416,3.416s3.418-1.532,3.418-3.416v-6.616c0-3.049,2.479-5.528,5.528-5.528
		c3.052,0,5.531,2.479,5.531,5.528v2.282c2.198,0.449,3.856,2.398,3.856,4.729C139.73,1764.229,137.566,1766.392,134.908,1766.392z"
		/>
</g>
<g>
	<path fill="#F3726A" d="M117.014,1754.814c-0.445,0-0.885-0.037-1.313-0.111l1.313,3.104l1.315-3.104
		C117.898,1754.777,117.459,1754.814,117.014,1754.814z"/>
	<path fill="#F3726A" d="M134.908,1758.674c-1.596,0-2.895,1.297-2.895,2.893c0,1.598,1.299,2.896,2.895,2.896
		s2.895-1.299,2.895-2.896C137.803,1759.971,136.504,1758.674,134.908,1758.674z M134.908,1762.531
		c-0.533,0-0.965-0.434-0.965-0.965c0-0.533,0.432-0.965,0.965-0.965s0.965,0.432,0.965,0.965
		C135.873,1762.099,135.441,1762.531,134.908,1762.531z"/>
	<path fill="#F3726A" d="M123.268,1725.057c-13.808,0-25,11.191-25,25c0,13.807,11.192,25,25,25c13.809,0,25-11.193,25-25
		C148.268,1736.248,137.074,1725.057,123.268,1725.057z M134.908,1766.392c-2.66,0-4.824-2.163-4.824-4.823
		c0-2.328,1.66-4.277,3.859-4.729v-2.282c0-1.985-1.615-3.601-3.604-3.601c-1.984,0-3.604,1.613-3.604,3.601v6.616
		c0,2.947-2.396,5.345-5.346,5.345c-2.947,0-5.346-2.396-5.346-5.345v-0.696l-2.813-6.642c-0.313-0.174-0.619-0.371-0.91-0.592
		c-1.362-1.025-2.329-2.438-2.799-4.076l-2.562-8.96c-0.362-1.274-0.112-2.61,0.685-3.666c0.797-1.058,2.014-1.663,3.336-1.663
		h0.562v-0.321c0-0.532,0.433-0.965,0.965-0.965c0.533,0,0.966,0.433,0.966,0.965v2.571c0,0.533-0.433,0.965-0.966,0.965
		c-0.532,0-0.965-0.432-0.965-0.965v-0.321h-0.562c-0.711,0-1.366,0.327-1.797,0.896c-0.43,0.566-0.563,1.29-0.367,1.975
		l2.562,8.961c0.716,2.5,3.029,4.246,5.632,4.246c2.6,0,4.916-1.746,5.631-4.246l2.562-8.962c0.194-0.685,0.062-1.405-0.368-1.974
		c-0.429-0.569-1.083-0.896-1.797-0.896h-0.561v0.321c0,0.533-0.434,0.965-0.965,0.965c-0.533,0-0.966-0.432-0.966-0.965v-2.571
		c0-0.532,0.433-0.965,0.966-0.965c0.531,0,0.965,0.433,0.965,0.965v0.321h0.561c1.322,0,2.54,0.605,3.337,1.663
		c0.798,1.056,1.046,2.392,0.685,3.666l-2.562,8.96c-0.47,1.641-1.438,3.051-2.799,4.076c-0.291,0.221-0.597,0.418-0.909,0.592
		l-2.813,6.642v0.696c0,1.884,1.531,3.416,3.416,3.416s3.418-1.532,3.418-3.416v-6.616c0-3.049,2.479-5.528,5.528-5.528
		c3.052,0,5.531,2.479,5.531,5.528v2.282c2.198,0.449,3.856,2.398,3.856,4.729C139.73,1764.229,137.566,1766.392,134.908,1766.392z"
		/>
</g>
<g>
	<g>
		<path fill="#F3726A" d="M201.59,90.482c0,4.345-3.52,7.865-7.863,7.865H-47.799c-4.341,0-7.862-3.521-7.862-7.865V56.209
			c0-4.343,3.521-7.862,7.862-7.862h241.526c4.344,0,7.863,3.519,7.863,7.862V90.482z"/>
	</g>
	<g>
		<g>
			<path fill="#FFFFFF" d="M5.86,56.813v10.942H4.448v-9.757h-5.082v9.758h-1.412V56.814L5.86,56.813L5.86,56.813z"/>
			<path fill="#FFFFFF" d="M9.599,59.898v3.311c0,1.251-0.017,2.031-0.082,3.15l0.048,0.017c0.471-0.958,0.747-1.51,1.266-2.419
				l2.452-4.059h1.672v7.858h-1.364v-3.328c0-1.283,0.032-1.948,0.098-3.215h-0.049c-0.503,1.007-0.845,1.64-1.298,2.436
				c-0.748,1.217-1.608,2.728-2.452,4.107H8.252v-7.858H9.599z"/>
			<path fill="#FFFFFF" d="M18.647,59.898v6.738h2.745v-6.738h1.396v6.738h2.745v-6.738h1.412v6.786l0.794,0.017l-0.082,3.555
				h-1.104l-0.065-2.5h-9.238v-7.858h1.398V59.898z"/>
			<path fill="#FFFFFF" d="M30.182,64.087c0.033,1.932,1.266,2.728,2.695,2.728c1.022,0,1.64-0.179,2.176-0.406l0.244,1.023
				c-0.503,0.228-1.364,0.487-2.614,0.487c-2.419,0-3.864-1.592-3.864-3.962c0-2.37,1.397-4.237,3.687-4.237
				c2.565,0,3.248,2.257,3.248,3.701c0,0.292-0.032,0.52-0.049,0.666H30.182L30.182,64.087z M34.372,63.063
				c0.017-0.908-0.374-2.322-1.98-2.322c-1.444,0-2.078,1.331-2.192,2.322H34.372z"/>
			<path fill="#FFFFFF" d="M37.492,59.996c0.552-0.097,1.574-0.179,2.5-0.179c1.315,0,3.492,0.211,3.492,1.965
				c0,0.974-0.747,1.575-1.639,1.769v0.032c1.153,0.163,1.997,0.813,1.997,1.949c0,2.062-2.598,2.321-4.141,2.321
				c-0.876,0-1.786-0.064-2.208-0.098V59.996z M38.84,66.815c0.406,0.049,0.699,0.064,1.153,0.064c0.958,0,2.387-0.227,2.387-1.364
				c0-1.136-1.136-1.379-2.501-1.379h-1.04V66.815z M38.857,63.195h1.072c1.056,0,2.143-0.309,2.143-1.235
				c0-0.78-0.682-1.153-2.112-1.153c-0.471,0-0.762,0.032-1.103,0.065V63.195z"/>
			<path fill="#FFFFFF" d="M52.759,63.764c0,2.905-2.013,4.172-3.913,4.172c-2.126,0-3.767-1.558-3.767-4.042
				c0-2.631,1.721-4.172,3.896-4.172C51.233,59.72,52.759,61.359,52.759,63.764z M46.524,63.843c0,1.721,0.991,3.021,2.387,3.021
				c1.363,0,2.387-1.283,2.387-3.053c0-1.332-0.666-3.019-2.354-3.019S46.524,62.35,46.524,63.843z"/>
			<path fill="#FFFFFF" d="M55.362,64.087c0.033,1.932,1.266,2.728,2.696,2.728c1.022,0,1.639-0.179,2.175-0.406l0.244,1.023
				c-0.504,0.228-1.364,0.487-2.614,0.487c-2.419,0-3.864-1.592-3.864-3.962c0-2.37,1.396-4.237,3.687-4.237
				c2.564,0,3.248,2.257,3.248,3.701c0,0.292-0.033,0.52-0.049,0.666H55.362L55.362,64.087z M59.551,63.063
				c0.016-0.908-0.374-2.322-1.981-2.322c-1.444,0-2.078,1.331-2.191,2.322H59.551z"/>
			<path fill="#FFFFFF" d="M73.261,63.764c0,2.905-2.014,4.172-3.914,4.172c-2.126,0-3.768-1.558-3.768-4.042
				c0-2.631,1.721-4.172,3.897-4.172C71.735,59.72,73.261,61.359,73.261,63.764z M67.025,63.843c0,1.721,0.991,3.021,2.386,3.021
				c1.364,0,2.387-1.283,2.387-3.053c0-1.332-0.667-3.019-2.354-3.019C67.756,60.792,67.025,62.35,67.025,63.843z"/>
			<path fill="#FFFFFF" d="M80.247,59.898v1.136h-2.451v6.721h-1.413v-6.721h-2.452v-1.136H80.247z"/>
			<path fill="#FFFFFF" d="M81.5,62.464c0-1.007-0.03-1.818-0.066-2.565h1.285l0.063,1.347h0.032
				c0.584-0.958,1.51-1.526,2.795-1.526c1.896,0,3.326,1.606,3.326,3.994c0,2.825-1.72,4.221-3.573,4.221
				c-1.041,0-1.948-0.455-2.417-1.235h-0.033v4.271H81.5V62.464z M82.912,64.558c0,0.211,0.034,0.406,0.066,0.585
				c0.259,0.991,1.121,1.672,2.142,1.672c1.51,0,2.389-1.234,2.389-3.037c0-1.574-0.826-2.922-2.339-2.922
				c-0.976,0-1.885,0.699-2.16,1.769c-0.048,0.179-0.098,0.39-0.098,0.585V64.558L82.912,64.558z"/>
			<path fill="#FFFFFF" d="M95.096,67.757l-0.113-0.99h-0.05c-0.436,0.618-1.281,1.169-2.402,1.169
				c-1.589,0-2.399-1.121-2.399-2.257c0-1.9,1.687-2.939,4.724-2.923v-0.163c0-0.648-0.18-1.818-1.786-1.818
				c-0.73,0-1.495,0.228-2.047,0.585l-0.322-0.941c0.647-0.422,1.589-0.698,2.58-0.698c2.402,0,2.988,1.64,2.988,3.215v2.939
				c0,0.681,0.03,1.347,0.13,1.882L95.096,67.757L95.096,67.757z M94.885,63.746c-1.561-0.032-3.329,0.244-3.329,1.77
				c0,0.926,0.616,1.364,1.349,1.364c1.023,0,1.671-0.65,1.898-1.315c0.049-0.146,0.082-0.309,0.082-0.455V63.746z"/>
			<path fill="#FFFFFF" d="M98.541,59.996c0.553-0.097,1.576-0.179,2.502-0.179c1.313,0,3.49,0.211,3.49,1.965
				c0,0.974-0.746,1.575-1.64,1.769v0.032c1.153,0.163,1.996,0.813,1.996,1.949c0,2.062-2.597,2.321-4.141,2.321
				c-0.875,0-1.784-0.064-2.208-0.098V59.996L98.541,59.996z M99.89,66.815c0.405,0.049,0.699,0.064,1.154,0.064
				c0.957,0,2.389-0.227,2.389-1.364c0-1.136-1.138-1.379-2.502-1.379H99.89V66.815z M99.906,63.195h1.07
				c1.055,0,2.145-0.309,2.145-1.235c0-0.78-0.683-1.153-2.11-1.153c-0.472,0-0.764,0.032-1.104,0.065V63.195z"/>
			<path fill="#FFFFFF" d="M112.706,59.898v7.858h-1.415V61.02h-2.694v2.045c0,2.208-0.211,3.687-1.234,4.351
				c-0.389,0.309-0.828,0.488-1.558,0.488l-0.144-1.121c0.273-0.049,0.584-0.163,0.775-0.325c0.732-0.536,0.813-1.639,0.813-3.394
				v-3.165H112.706z"/>
			<path fill="#FFFFFF" d="M115.842,64.087c0.034,1.932,1.267,2.728,2.697,2.728c1.023,0,1.639-0.179,2.176-0.406l0.243,1.023
				c-0.505,0.228-1.364,0.487-2.615,0.487c-2.419,0-3.864-1.592-3.864-3.962c0-2.37,1.396-4.237,3.688-4.237
				c2.564,0,3.245,2.257,3.245,3.701c0,0.292-0.032,0.52-0.05,0.666H115.842L115.842,64.087z M120.032,63.063
				c0.017-0.908-0.375-2.322-1.979-2.322c-1.447,0-2.079,1.331-2.192,2.322H120.032z"/>
			<path fill="#FFFFFF" d="M124.564,59.898v3.165h3.736v-3.165h1.412v7.858h-1.412v-3.555h-3.736v3.555h-1.412v-7.858H124.564z"/>
			<path fill="#FFFFFF" d="M133.369,59.898v3.311c0,1.251-0.016,2.031-0.079,3.15l0.048,0.017c0.471-0.958,0.748-1.51,1.267-2.419
				l2.451-4.059h1.674v7.858h-1.364v-3.328c0-1.283,0.031-1.948,0.098-3.215h-0.051c-0.502,1.007-0.843,1.64-1.298,2.436
				c-0.746,1.217-1.609,2.728-2.452,4.107h-1.64v-7.858H133.369z"/>
			<path fill="#FFFFFF" d="M141.85,64.087c0.034,1.932,1.268,2.728,2.696,2.728c1.023,0,1.64-0.179,2.177-0.406l0.243,1.023
				c-0.505,0.228-1.364,0.487-2.615,0.487c-2.419,0-3.864-1.592-3.864-3.962c0-2.37,1.396-4.237,3.688-4.237
				c2.564,0,3.245,2.257,3.245,3.701c0,0.292-0.033,0.52-0.05,0.666H141.85L141.85,64.087z M146.04,63.063
				c0.016-0.908-0.375-2.322-1.98-2.322c-1.446,0-2.078,1.331-2.191,2.322H146.04z"/>
			<path fill="#FFFFFF" d="M24.813,79.392v3.168h3.733v-3.168h1.412v7.86h-1.412v-3.557h-3.733v3.557H23.4v-7.86H24.813z"/>
			<path fill="#FFFFFF" d="M33.098,83.582c0.033,1.933,1.268,2.729,2.695,2.729c1.022,0,1.639-0.179,2.175-0.406l0.244,1.022
				c-0.504,0.228-1.363,0.487-2.615,0.487c-2.418,0-3.863-1.592-3.863-3.963c0-2.369,1.397-4.236,3.687-4.236
				c2.565,0,3.248,2.256,3.248,3.7c0,0.292-0.033,0.52-0.048,0.665h-5.522V83.582z M37.286,82.56
				c0.017-0.909-0.374-2.324-1.98-2.324c-1.444,0-2.078,1.333-2.192,2.324H37.286z"/>
			<path fill="#FFFFFF" d="M40.896,79.392l1.721,4.645c0.179,0.52,0.373,1.138,0.503,1.609h0.032
				c0.146-0.472,0.309-1.071,0.504-1.64l1.558-4.611h1.51l-2.143,5.602c-1.023,2.696-1.721,4.076-2.696,4.92
				c-0.698,0.617-1.396,0.861-1.753,0.925l-0.357-1.201c0.357-0.114,0.829-0.342,1.251-0.698c0.39-0.309,0.876-0.86,1.201-1.591
				c0.065-0.146,0.114-0.26,0.114-0.341c0-0.083-0.033-0.197-0.097-0.374l-2.907-7.241h1.56V79.392z"/>
			<path fill="#FFFFFF" d="M53.694,79.392v1.138h-2.452v6.723h-1.412v-6.723h-2.452v-1.138H53.694z"/>
			<path fill="#FFFFFF" d="M61.848,83.258c0,2.906-2.013,4.172-3.913,4.172c-2.126,0-3.767-1.557-3.767-4.042
				c0-2.629,1.721-4.173,3.896-4.173C60.322,79.215,61.848,80.854,61.848,83.258z M55.612,83.34c0,1.72,0.991,3.02,2.387,3.02
				c1.363,0,2.386-1.284,2.386-3.053c0-1.331-0.666-3.021-2.354-3.021C56.345,80.286,55.612,81.845,55.612,83.34z"/>
			<path fill="#FFFFFF" d="M64.793,79.392v2.584c0,0.988,0.373,1.671,1.623,1.671c0.618,0,1.25-0.228,1.689-0.553v-3.702h1.412v7.86
				h-1.412v-3.15h-0.032c-0.536,0.359-1.381,0.6-2.127,0.6c-1.495,0-2.582-0.762-2.582-2.565v-2.744H64.793z"/>
			<path fill="#FFFFFF" d="M73.239,79.392v3.168h3.733v-3.168h1.412v7.86h-1.412v-3.557h-3.733v3.557h-1.412v-7.86H73.239z"/>
			<path fill="#FFFFFF" d="M81.524,83.582c0.034,1.933,1.266,2.729,2.696,2.729c1.023,0,1.64-0.179,2.177-0.406l0.243,1.022
				c-0.505,0.228-1.364,0.487-2.616,0.487c-2.419,0-3.865-1.592-3.865-3.963c0-2.369,1.396-4.236,3.688-4.236
				c2.566,0,3.246,2.256,3.246,3.7c0,0.292-0.033,0.52-0.051,0.665h-5.518V83.582z M85.715,82.56
				c0.016-0.909-0.375-2.324-1.98-2.324c-1.446,0-2.078,1.333-2.191,2.324H85.715z"/>
			<path fill="#FFFFFF" d="M90.247,79.392v3.168h3.736v-3.168h1.411v7.86h-1.411v-3.557h-3.736v3.557h-1.412v-7.86H90.247z"/>
			<path fill="#FFFFFF" d="M99.118,79.392v3.168h3.733v-3.168h1.414v7.86h-1.414v-3.557h-3.733v3.557h-1.412v-7.86H99.118z"/>
			<path fill="#FFFFFF" d="M113.719,83.258c0,2.906-2.013,4.172-3.913,4.172c-2.126,0-3.766-1.557-3.766-4.042
				c0-2.629,1.72-4.173,3.895-4.173C112.193,79.215,113.719,80.854,113.719,83.258z M107.483,83.34c0,1.72,0.992,3.02,2.388,3.02
				c1.364,0,2.386-1.284,2.386-3.053c0-1.331-0.663-3.021-2.353-3.021S107.483,81.845,107.483,83.34z"/>
			<path fill="#FFFFFF" d="M116.32,83.582c0.034,1.933,1.267,2.729,2.697,2.729c1.023,0,1.639-0.179,2.175-0.406l0.244,1.022
				c-0.505,0.228-1.364,0.487-2.616,0.487c-2.419,0-3.864-1.592-3.864-3.963c0-2.369,1.396-4.236,3.688-4.236
				c2.565,0,3.245,2.256,3.245,3.7c0,0.292-0.033,0.52-0.05,0.665h-5.519V83.582z M120.512,82.56
				c0.016-0.909-0.376-2.324-1.98-2.324c-1.446,0-2.079,1.333-2.192,2.324H120.512z"/>
		</g>
	</g>
</g>
</svg>
