<?xml version="1.0" encoding="utf-8"?>
<!-- Generator: Adobe Illustrator 16.0.3, SVG Export Plug-In . SVG Version: 6.00 Build 0)  -->
<!DOCTYPE svg PUBLIC "-//W3C//DTD SVG 1.1//EN" "http://www.w3.org/Graphics/SVG/1.1/DTD/svg11.dtd">
<svg version="1.1" id="Layer_1" xmlns="http://www.w3.org/2000/svg" xmlns:xlink="http://www.w3.org/1999/xlink" x="0px" y="0px"
	 width="257.258px" height="50px" viewBox="-67.665 46.125 257.258 50" enable-background="new -67.665 46.125 257.258 50"
	 xml:space="preserve">
<g>
	<path fill="#F3726A" d="M117.014,1754.814c-0.445,0-0.885-0.037-1.313-0.111l1.313,3.104l1.315-3.104
		C117.898,1754.777,117.459,1754.814,117.014,1754.814z"/>
	<path fill="#F3726A" d="M134.908,1758.674c-1.596,0-2.895,1.297-2.895,2.893c0,1.598,1.299,2.896,2.895,2.896
		s2.895-1.299,2.895-2.896C137.803,1759.971,136.504,1758.674,134.908,1758.674z M134.908,1762.531
		c-0.533,0-0.965-0.434-0.965-0.965c0-0.533,0.432-0.965,0.965-0.965s0.965,0.432,0.965,0.965
		C135.873,1762.099,135.441,1762.531,134.908,1762.531z"/>
	<path fill="#F3726A" d="M123.268,1725.057c-13.808,0-25,11.191-25,25c0,13.807,11.192,25,25,25c13.809,0,25-11.193,25-25
		C148.268,1736.248,137.074,1725.057,123.268,1725.057z M134.908,1766.392c-2.66,0-4.824-2.163-4.824-4.823
		c0-2.328,1.66-4.277,3.859-4.729v-2.282c0-1.985-1.615-3.601-3.604-3.601c-1.984,0-3.604,1.613-3.604,3.601v6.616
		c0,2.947-2.396,5.345-5.346,5.345c-2.947,0-5.346-2.396-5.346-5.345v-0.696l-2.813-6.642c-0.313-0.174-0.619-0.371-0.91-0.592
		c-1.362-1.025-2.329-2.438-2.799-4.076l-2.562-8.96c-0.362-1.274-0.112-2.61,0.685-3.666c0.797-1.058,2.014-1.663,3.336-1.663
		h0.562v-0.321c0-0.532,0.433-0.965,0.965-0.965c0.533,0,0.966,0.433,0.966,0.965v2.571c0,0.533-0.433,0.965-0.966,0.965
		c-0.532,0-0.965-0.432-0.965-0.965v-0.321h-0.562c-0.711,0-1.366,0.327-1.797,0.896c-0.43,0.566-0.563,1.29-0.367,1.975
		l2.562,8.961c0.716,2.5,3.029,4.246,5.632,4.246c2.6,0,4.916-1.746,5.631-4.246l2.562-8.962c0.194-0.685,0.062-1.405-0.368-1.974
		c-0.429-0.569-1.083-0.896-1.797-0.896h-0.561v0.321c0,0.533-0.434,0.965-0.965,0.965c-0.533,0-0.966-0.432-0.966-0.965v-2.571
		c0-0.532,0.433-0.965,0.966-0.965c0.531,0,0.965,0.433,0.965,0.965v0.321h0.561c1.322,0,2.54,0.605,3.337,1.663
		c0.798,1.056,1.046,2.392,0.685,3.666l-2.562,8.96c-0.47,1.641-1.438,3.051-2.799,4.076c-0.291,0.221-0.597,0.418-0.909,0.592
		l-2.813,6.642v0.696c0,1.884,1.531,3.416,3.416,3.416s3.418-1.532,3.418-3.416v-6.616c0-3.049,2.479-5.528,5.528-5.528
		c3.052,0,5.531,2.479,5.531,5.528v2.282c2.198,0.449,3.856,2.398,3.856,4.729C139.73,1764.229,137.566,1766.392,134.908,1766.392z"
		/>
</g>
<g>
	<path fill="#F3726A" d="M117.014,1754.814c-0.445,0-0.885-0.037-1.313-0.111l1.313,3.104l1.315-3.104
		C117.898,1754.777,117.459,1754.814,117.014,1754.814z"/>
	<path fill="#F3726A" d="M134.908,1758.674c-1.596,0-2.895,1.297-2.895,2.893c0,1.598,1.299,2.896,2.895,2.896
		s2.895-1.299,2.895-2.896C137.803,1759.971,136.504,1758.674,134.908,1758.674z M134.908,1762.531
		c-0.533,0-0.965-0.434-0.965-0.965c0-0.533,0.432-0.965,0.965-0.965s0.965,0.432,0.965,0.965
		C135.873,1762.099,135.441,1762.531,134.908,1762.531z"/>
	<path fill="#F3726A" d="M123.268,1725.057c-13.808,0-25,11.191-25,25c0,13.807,11.192,25,25,25c13.809,0,25-11.193,25-25
		C148.268,1736.248,137.074,1725.057,123.268,1725.057z M134.908,1766.392c-2.66,0-4.824-2.163-4.824-4.823
		c0-2.328,1.66-4.277,3.859-4.729v-2.282c0-1.985-1.615-3.601-3.604-3.601c-1.984,0-3.604,1.613-3.604,3.601v6.616
		c0,2.947-2.396,5.345-5.346,5.345c-2.947,0-5.346-2.396-5.346-5.345v-0.696l-2.813-6.642c-0.313-0.174-0.619-0.371-0.91-0.592
		c-1.362-1.025-2.329-2.438-2.799-4.076l-2.562-8.96c-0.362-1.274-0.112-2.61,0.685-3.666c0.797-1.058,2.014-1.663,3.336-1.663
		h0.562v-0.321c0-0.532,0.433-0.965,0.965-0.965c0.533,0,0.966,0.433,0.966,0.965v2.571c0,0.533-0.433,0.965-0.966,0.965
		c-0.532,0-0.965-0.432-0.965-0.965v-0.321h-0.562c-0.711,0-1.366,0.327-1.797,0.896c-0.43,0.566-0.563,1.29-0.367,1.975
		l2.562,8.961c0.716,2.5,3.029,4.246,5.632,4.246c2.6,0,4.916-1.746,5.631-4.246l2.562-8.962c0.194-0.685,0.062-1.405-0.368-1.974
		c-0.429-0.569-1.083-0.896-1.797-0.896h-0.561v0.321c0,0.533-0.434,0.965-0.965,0.965c-0.533,0-0.966-0.432-0.966-0.965v-2.571
		c0-0.532,0.433-0.965,0.966-0.965c0.531,0,0.965,0.433,0.965,0.965v0.321h0.561c1.322,0,2.54,0.605,3.337,1.663
		c0.798,1.056,1.046,2.392,0.685,3.666l-2.562,8.96c-0.47,1.641-1.438,3.051-2.799,4.076c-0.291,0.221-0.597,0.418-0.909,0.592
		l-2.813,6.642v0.696c0,1.884,1.531,3.416,3.416,3.416s3.418-1.532,3.418-3.416v-6.616c0-3.049,2.479-5.528,5.528-5.528
		c3.052,0,5.531,2.479,5.531,5.528v2.282c2.198,0.449,3.856,2.398,3.856,4.729C139.73,1764.229,137.566,1766.392,134.908,1766.392z"
		/>
</g>
<g>
	<g>
		<path fill="#F3726A" d="M189.594,88.262c0,4.345-3.52,7.863-7.864,7.863H-59.802c-4.342,0-7.862-3.519-7.862-7.863V53.987
			c0-4.343,3.52-7.861,7.862-7.861h241.532c4.345,0,7.864,3.518,7.864,7.861V88.262z"/>
	</g>
	<g>
		<g>
			<path fill="#FFFFFF" d="M-6.181,59.497c0,3.767-2.29,5.764-5.083,5.764c-2.89,0-4.92-2.24-4.92-5.553
				c0-3.475,2.16-5.749,5.083-5.749C-8.113,53.959-6.181,56.25-6.181,59.497z M-14.672,59.676c0,2.338,1.265,4.432,3.491,4.432
				c2.241,0,3.507-2.062,3.507-4.546c0-2.176-1.136-4.449-3.492-4.449C-13.504,55.113-14.672,57.272-14.672,59.676z"/>
			<path fill="#FFFFFF" d="M1.26,64.79c-0.374,0.195-1.201,0.456-2.257,0.456c-2.371,0-3.914-1.609-3.914-4.011
				c0-2.418,1.657-4.174,4.222-4.174c0.845,0,1.591,0.211,1.981,0.407l-0.325,1.103c-0.341-0.195-0.876-0.372-1.656-0.372
				c-1.803,0-2.776,1.331-2.776,2.97c0,1.818,1.169,2.939,2.728,2.939c0.812,0,1.348-0.211,1.753-0.39L1.26,64.79z"/>
			<path fill="#FFFFFF" d="M8.506,57.224v1.136H6.054v6.722H4.642v-6.722H2.19v-1.136H8.506z"/>
			<path fill="#FFFFFF" d="M9.761,59.789c0-1.007-0.032-1.818-0.065-2.565h1.282l0.065,1.347h0.032
				c0.585-0.958,1.51-1.525,2.794-1.525c1.899,0,3.329,1.607,3.329,3.993c0,2.826-1.72,4.222-3.573,4.222
				c-1.04,0-1.948-0.455-2.419-1.235h-0.032v4.271H9.761V59.789z M11.173,61.883c0,0.211,0.032,0.407,0.064,0.585
				c0.26,0.991,1.122,1.672,2.144,1.672c1.511,0,2.387-1.233,2.387-3.036c0-1.575-0.829-2.923-2.338-2.923
				c-0.975,0-1.883,0.699-2.16,1.77c-0.048,0.178-0.097,0.39-0.097,0.585V61.883z"/>
			<path fill="#FFFFFF" d="M20.385,57.224v2.679c0.308-0.064,0.762-0.097,1.282-0.097c1.69,0,3.394,0.698,3.394,2.63
				c0,0.828-0.309,1.397-0.812,1.818c-0.861,0.731-2.127,0.91-3.167,0.91c-0.794,0-1.525-0.049-2.111-0.114v-7.827H20.385z
				 M20.385,64.092c0.276,0.033,0.584,0.065,0.99,0.065c1.088,0,2.272-0.455,2.272-1.672c0-1.267-1.136-1.656-2.208-1.656
				c-0.406,0-0.762,0.032-1.055,0.081V64.092z M27.464,57.224v7.859h-1.413v-7.859H27.464z"/>
			<path fill="#FFFFFF" d="M31.123,57.224v3.312c0,1.25-0.016,2.03-0.082,3.15l0.049,0.017c0.472-0.958,0.747-1.51,1.266-2.419
				l2.452-4.059h1.672v7.859h-1.363v-3.328c0-1.284,0.033-1.948,0.097-3.215h-0.048c-0.504,1.007-0.845,1.639-1.298,2.435
				c-0.748,1.217-1.608,2.728-2.452,4.108h-1.639v-7.859H31.123z M32.048,54.025c0.049,0.698,0.39,1.235,1.04,1.235
				c0.699,0,1.022-0.52,1.104-1.235h1.022c-0.065,1.331-0.908,2.013-2.159,2.013c-1.43,0-1.981-0.894-2.046-2.013H32.048z"/>
			<path fill="#FFFFFF" d="M47.042,57.224v1.154h-3.41v6.706h-1.412v-7.859H47.042z"/>
			<path fill="#FFFFFF" d="M52.631,65.083l-0.114-0.99h-0.049c-0.439,0.618-1.282,1.168-2.403,1.168
				c-1.591,0-2.403-1.121-2.403-2.257c0-1.899,1.688-2.939,4.724-2.923v-0.162c0-0.648-0.178-1.818-1.785-1.818
				c-0.731,0-1.494,0.227-2.046,0.585l-0.325-0.941c0.65-0.422,1.592-0.699,2.581-0.699c2.404,0,2.988,1.64,2.988,3.215v2.939
				c0,0.681,0.032,1.348,0.13,1.883L52.631,65.083L52.631,65.083z M52.42,61.072c-1.558-0.033-3.329,0.243-3.329,1.769
				c0,0.926,0.617,1.365,1.349,1.365c1.022,0,1.671-0.65,1.899-1.316c0.049-0.146,0.082-0.309,0.082-0.455V61.072z"/>
			<path fill="#FFFFFF" d="M61.711,64.79c-0.374,0.195-1.201,0.456-2.257,0.456c-2.371,0-3.914-1.609-3.914-4.011
				c0-2.418,1.657-4.174,4.223-4.174c0.845,0,1.59,0.211,1.98,0.407l-0.325,1.103c-0.341-0.195-0.876-0.372-1.655-0.372
				c-1.803,0-2.777,1.331-2.777,2.97c0,1.818,1.17,2.939,2.728,2.939c0.813,0,1.349-0.211,1.753-0.39L61.711,64.79z"/>
			<path fill="#FFFFFF" d="M68.957,57.224v1.136h-2.452v6.722h-1.414v-6.722H62.64v-1.136H68.957z"/>
			<path fill="#FFFFFF" d="M70.21,59.789c0-1.007-0.032-1.818-0.066-2.565h1.283l0.065,1.347h0.031
				c0.584-0.958,1.509-1.525,2.793-1.525c1.899,0,3.328,1.607,3.328,3.993c0,2.826-1.721,4.222-3.573,4.222
				c-1.04,0-1.946-0.455-2.418-1.235h-0.032v4.271h-1.412v-8.508H70.21z M71.623,61.883c0,0.211,0.032,0.407,0.064,0.585
				c0.261,0.991,1.121,1.672,2.143,1.672c1.51,0,2.389-1.233,2.389-3.036c0-1.575-0.829-2.923-2.339-2.923
				c-0.975,0-1.885,0.699-2.159,1.77c-0.049,0.178-0.098,0.39-0.098,0.585V61.883z"/>
			<path fill="#FFFFFF" d="M86.565,61.087c0,2.905-2.012,4.173-3.913,4.173c-2.127,0-3.767-1.558-3.767-4.042
				c0-2.63,1.721-4.172,3.896-4.172C85.04,57.045,86.565,58.685,86.565,61.087z M80.332,61.169c0,1.721,0.99,3.02,2.387,3.02
				c1.364,0,2.385-1.282,2.385-3.053c0-1.331-0.663-3.019-2.354-3.019C81.061,58.118,80.332,59.676,80.332,61.169z"/>
			<path fill="#FFFFFF" d="M88.697,60.602h3.964c-0.13-1.349-0.96-2.452-2.713-2.452c-0.828,0-1.46,0.244-1.883,0.439l-0.311-0.926
				c0.682-0.39,1.593-0.617,2.419-0.617c1.137,0,2.162,0.39,2.857,1.119c0.666,0.699,1.07,1.738,1.07,3.021
				c0,2.289-1.508,4.075-4.172,4.075c-0.844,0-1.655-0.211-2.289-0.536l0.277-1.023c0.372,0.162,1.041,0.422,1.965,0.422
				c1.572,0,2.627-0.991,2.76-2.55h-3.948v-0.972H88.697z"/>
			<path fill="#FFFFFF" d="M97.291,57.224v3.165h3.733v-3.165h1.414v7.859h-1.414v-3.555h-3.733v3.555h-1.412v-7.859H97.291z"/>
			<path fill="#FFFFFF" d="M110.044,57.224v1.136h-2.454v6.722h-1.412v-6.722h-2.452v-1.136H110.044z"/>
			<path fill="#FFFFFF" d="M111.879,61.413c0.034,1.932,1.267,2.728,2.696,2.728c1.023,0,1.64-0.178,2.175-0.406l0.245,1.023
				c-0.505,0.227-1.366,0.488-2.616,0.488c-2.42,0-3.864-1.593-3.864-3.963c0-2.371,1.396-4.237,3.687-4.237
				c2.566,0,3.246,2.257,3.246,3.701c0,0.292-0.033,0.52-0.051,0.666H111.879z M116.069,60.389c0.017-0.908-0.375-2.321-1.98-2.321
				c-1.446,0-2.078,1.331-2.191,2.321H116.069z"/>
			<path fill="#FFFFFF" d="M119.224,59.789c0-1.007-0.031-1.818-0.065-2.565h1.285l0.063,1.347h0.03
				c0.586-0.958,1.51-1.525,2.795-1.525c1.897,0,3.325,1.607,3.325,3.993c0,2.826-1.719,4.222-3.572,4.222
				c-1.039,0-1.946-0.455-2.417-1.235h-0.033v4.271h-1.412L119.224,59.789L119.224,59.789z M120.636,61.883
				c0,0.211,0.035,0.407,0.066,0.585c0.259,0.991,1.121,1.672,2.142,1.672c1.51,0,2.388-1.233,2.388-3.036
				c0-1.575-0.826-2.923-2.337-2.923c-0.976,0-1.886,0.699-2.16,1.77c-0.048,0.178-0.099,0.39-0.099,0.585V61.883z"/>
			<path fill="#FFFFFF" d="M129.782,57.224v3.312c0,1.25-0.016,2.03-0.082,3.15l0.051,0.017c0.471-0.958,0.745-1.51,1.267-2.419
				l2.451-4.059h1.671v7.859h-1.362v-3.328c0-1.284,0.032-1.948,0.096-3.215h-0.048c-0.502,1.007-0.844,1.639-1.298,2.435
				c-0.749,1.217-1.608,2.728-2.454,4.108h-1.641v-7.859H129.782z"/>
			<path fill="#FFFFFF" d="M142.729,57.224v1.136h-2.453v6.722h-1.412v-6.722h-2.455v-1.136H142.729z"/>
			<path fill="#FFFFFF" d="M-46.248,76.719v3.166h3.733v-3.166h1.412v7.859h-1.412v-3.557h-3.733v3.557h-1.412v-7.859H-46.248z"/>
			<path fill="#FFFFFF" d="M-37.961,80.908c0.033,1.933,1.266,2.73,2.695,2.73c1.022,0,1.64-0.182,2.176-0.409l0.243,1.025
				c-0.504,0.227-1.363,0.484-2.614,0.484c-2.419,0-3.864-1.592-3.864-3.961c0-2.371,1.396-4.237,3.686-4.237
				c2.565,0,3.248,2.257,3.248,3.701c0,0.295-0.032,0.521-0.048,0.666H-37.961z M-33.772,79.885c0.017-0.909-0.374-2.321-1.98-2.321
				c-1.444,0-2.078,1.333-2.192,2.321H-33.772z"/>
			<path fill="#FFFFFF" d="M-30.165,76.719l1.721,4.645c0.179,0.518,0.374,1.137,0.504,1.607h0.032
				c0.147-0.471,0.309-1.071,0.504-1.64l1.558-4.612h1.51l-2.143,5.602c-1.023,2.697-1.721,4.077-2.696,4.921
				c-0.698,0.616-1.396,0.859-1.753,0.926l-0.357-1.203c0.357-0.114,0.829-0.342,1.251-0.698c0.39-0.309,0.876-0.861,1.2-1.591
				c0.065-0.146,0.115-0.261,0.115-0.341c0-0.083-0.033-0.197-0.098-0.374l-2.906-7.241H-30.165z"/>
			<path fill="#FFFFFF" d="M-17.365,76.719v1.138h-2.452v6.722h-1.412v-6.722h-2.452v-1.138H-17.365z"/>
			<path fill="#FFFFFF" d="M-9.211,80.583c0,2.904-2.013,4.173-3.913,4.173c-2.126,0-3.767-1.558-3.767-4.043
				c0-2.629,1.72-4.173,3.896-4.173C-10.737,76.54-9.211,78.18-9.211,80.583z M-15.446,80.665c0,1.722,0.991,3.02,2.387,3.02
				c1.363,0,2.386-1.282,2.386-3.052c0-1.332-0.666-3.021-2.354-3.021C-14.714,77.611-15.446,79.171-15.446,80.665z"/>
			<path fill="#FFFFFF" d="M-6.267,76.719v2.582c0,0.991,0.374,1.674,1.623,1.674c0.617,0,1.251-0.228,1.689-0.553v-3.703h1.412
				v7.859h-1.412v-3.151h-0.032c-0.536,0.359-1.381,0.603-2.127,0.603c-1.494,0-2.581-0.764-2.581-2.567v-2.743H-6.267
				L-6.267,76.719z"/>
			<path fill="#FFFFFF" d="M2.181,76.719v3.166h3.734v-3.166h1.412v7.859H5.916v-3.557H2.181v3.557H0.768v-7.859H2.181z"/>
			<path fill="#FFFFFF" d="M10.468,80.908c0.033,1.933,1.268,2.73,2.695,2.73c1.022,0,1.64-0.182,2.176-0.409l0.243,1.025
				c-0.504,0.227-1.363,0.484-2.614,0.484c-2.419,0-3.864-1.592-3.864-3.961c0-2.371,1.396-4.237,3.686-4.237
				c2.565,0,3.248,2.257,3.248,3.701c0,0.295-0.032,0.521-0.048,0.666H10.468z M14.656,79.885c0.017-0.909-0.374-2.321-1.98-2.321
				c-1.444,0-2.078,1.333-2.191,2.321H14.656z"/>
			<path fill="#FFFFFF" d="M19.19,76.719v3.166h3.734v-3.166h1.412v7.859h-1.412v-3.557H19.19v3.557h-1.412v-7.859H19.19z"/>
			<path fill="#FFFFFF" d="M28.061,76.719v3.166h3.733v-3.166h1.412v7.859h-1.412v-3.557h-3.733v3.557h-1.412v-7.859H28.061z"/>
			<path fill="#FFFFFF" d="M42.662,80.583c0,2.904-2.013,4.173-3.912,4.173c-2.127,0-3.768-1.558-3.768-4.043
				c0-2.629,1.721-4.173,3.896-4.173C41.136,76.54,42.662,78.18,42.662,80.583z M36.427,80.665c0,1.722,0.991,3.02,2.387,3.02
				c1.363,0,2.387-1.282,2.387-3.052c0-1.332-0.667-3.021-2.354-3.021C37.158,77.611,36.427,79.171,36.427,80.665z"/>
			<path fill="#FFFFFF" d="M49.259,76.719v1.154H45.85v6.705h-1.412v-7.859H49.259z"/>
			<path fill="#FFFFFF" d="M57.51,80.583c0,2.904-2.013,4.173-3.913,4.173c-2.126,0-3.768-1.558-3.768-4.043
				c0-2.629,1.722-4.173,3.897-4.173C55.985,76.54,57.51,78.18,57.51,80.583z M51.276,80.665c0,1.722,0.991,3.02,2.387,3.02
				c1.364,0,2.387-1.282,2.387-3.052c0-1.332-0.666-3.021-2.354-3.021S51.276,79.171,51.276,80.665z"/>
			<path fill="#FFFFFF" d="M69.224,76.719v7.859h-1.428v-6.722h-3.654v6.722h-1.412v-7.859H69.224L69.224,76.719z"/>
			<path fill="#FFFFFF" d="M71.552,79.285c0-1.008-0.032-1.819-0.067-2.566h1.284l0.065,1.347h0.031
				c0.585-0.957,1.51-1.524,2.793-1.524c1.899,0,3.327,1.606,3.327,3.996c0,2.823-1.721,4.219-3.572,4.219
				c-1.04,0-1.947-0.455-2.418-1.231h-0.032v4.27h-1.412v-8.509H71.552z M72.964,81.379c0,0.212,0.032,0.407,0.065,0.584
				c0.26,0.992,1.121,1.674,2.143,1.674c1.509,0,2.388-1.234,2.388-3.038c0-1.573-0.829-2.922-2.339-2.922
				c-0.975,0-1.885,0.698-2.16,1.77c-0.049,0.18-0.097,0.391-0.097,0.585V81.379z"/>
			<path fill="#FFFFFF" d="M87.906,80.583c0,2.904-2.015,4.173-3.913,4.173c-2.129,0-3.769-1.558-3.769-4.043
				c0-2.629,1.721-4.173,3.896-4.173C86.378,76.54,87.906,78.18,87.906,80.583z M81.672,80.665c0,1.722,0.988,3.02,2.385,3.02
				c1.364,0,2.389-1.282,2.389-3.052c0-1.332-0.666-3.021-2.354-3.021C82.401,77.611,81.672,79.171,81.672,80.665z"/>
			<path fill="#FFFFFF" d="M91.026,76.719v3.312c0,1.251-0.016,2.031-0.079,3.152l0.048,0.016c0.471-0.957,0.748-1.51,1.267-2.42
				l2.451-4.06h1.674v7.859h-1.364v-3.329c0-1.282,0.031-1.948,0.098-3.215h-0.051c-0.502,1.007-0.843,1.64-1.298,2.436
				c-0.746,1.217-1.609,2.729-2.451,4.108H89.68v-7.859H91.026z"/>
			<path fill="#FFFFFF" d="M104.316,84.285c-0.376,0.196-1.203,0.454-2.258,0.454c-2.372,0-3.914-1.607-3.914-4.011
				c0-2.42,1.655-4.172,4.222-4.172c0.844,0,1.591,0.211,1.98,0.406l-0.324,1.103c-0.341-0.192-0.878-0.372-1.656-0.372
				c-1.804,0-2.776,1.332-2.776,2.972c0,1.819,1.167,2.938,2.727,2.938c0.813,0,1.348-0.211,1.754-0.389L104.316,84.285z"/>
			<path fill="#FFFFFF" d="M106.802,76.719l1.121,1.688c0.294,0.438,0.535,0.846,0.796,1.282h0.048
				c0.26-0.471,0.521-0.875,0.78-1.299l1.104-1.672h1.543l-2.68,3.801l2.759,4.059h-1.622l-1.154-1.772
				c-0.31-0.455-0.568-0.89-0.846-1.362h-0.03c-0.258,0.473-0.536,0.89-0.827,1.362l-1.138,1.772h-1.576l2.794-4.011l-2.663-3.849
				H106.802z"/>
			<path fill="#FFFFFF" d="M120.544,80.583c0,2.904-2.013,4.173-3.914,4.173c-2.126,0-3.765-1.558-3.765-4.043
				c0-2.629,1.721-4.173,3.895-4.173C119.018,76.54,120.544,78.18,120.544,80.583z M114.309,80.665c0,1.722,0.991,3.02,2.388,3.02
				c1.364,0,2.385-1.282,2.385-3.052c0-1.332-0.663-3.021-2.354-3.021C115.04,77.611,114.309,79.171,114.309,80.665z"/>
			<path fill="#FFFFFF" d="M122.887,76.719l2.596,3.426h0.294v-3.426h1.364v3.426h0.275l2.599-3.426h1.64l-3.102,3.573
				c1.185,0.13,1.883,0.826,2.354,2.078c0.277,0.762,0.536,1.59,0.861,2.208h-1.43c-0.26-0.472-0.487-1.121-0.714-1.803
				c-0.487-1.283-1.216-1.672-2.24-1.672h-0.243v3.475h-1.364v-3.475h-0.259c-1.104,0-1.771,0.405-2.259,1.688
				c-0.258,0.682-0.471,1.301-0.745,1.787h-1.381c0.323-0.636,0.585-1.462,0.859-2.191c0.487-1.269,1.185-1.965,2.372-2.095
				l-3.117-3.573H122.887z"/>
			<path fill="#FFFFFF" d="M139.553,76.719v6.786l0.812,0.019l-0.082,3.554h-1.121l-0.063-2.499h-5.439l-0.065,2.499h-1.121
				l-0.063-3.554l0.666-0.019c0.341-0.502,0.599-1.04,0.776-1.606c0.311-0.977,0.456-2.03,0.456-3.135v-2.045H139.553z
				 M135.573,79.104c0,1.041-0.146,2.049-0.404,2.925c-0.164,0.535-0.392,1.023-0.635,1.46h3.622v-5.683h-2.583V79.104z"/>
			<path fill="#FFFFFF" d="M142.802,80.908c0.035,1.933,1.267,2.73,2.697,2.73c1.023,0,1.64-0.182,2.177-0.409l0.243,1.025
				c-0.505,0.227-1.364,0.484-2.615,0.484c-2.42,0-3.864-1.592-3.864-3.961c0-2.371,1.395-4.237,3.686-4.237
				c2.566,0,3.246,2.257,3.246,3.701c0,0.295-0.033,0.521-0.049,0.666H142.802z M146.993,79.885c0.016-0.909-0.375-2.321-1.98-2.321
				c-1.446,0-2.078,1.333-2.192,2.321H146.993z"/>
			<path fill="#FFFFFF" d="M151.525,76.719v3.166h3.736v-3.166h1.412v7.859h-1.412v-3.557h-3.736v3.557h-1.412v-7.859H151.525z"/>
			<path fill="#FFFFFF" d="M160.33,76.719v3.312c0,1.251-0.016,2.031-0.08,3.152l0.048,0.016c0.472-0.957,0.749-1.51,1.268-2.42
				l2.451-4.06h1.674v7.859h-1.364v-3.329c0-1.282,0.03-1.948,0.096-3.215h-0.049c-0.502,1.007-0.843,1.64-1.298,2.436
				c-0.747,1.217-1.609,2.729-2.452,4.108h-1.64v-7.859H160.33z"/>
			<path fill="#FFFFFF" d="M173.813,84.578h-1.412v-3.297h-1.056c-0.6,0-1.007,0.164-1.316,0.438
				c-0.586,0.471-0.793,1.446-1.103,2.208c-0.098,0.243-0.212,0.455-0.325,0.65h-1.525c0.177-0.259,0.341-0.553,0.486-0.894
				c0.341-0.764,0.536-1.785,1.234-2.372c0.243-0.209,0.534-0.389,0.892-0.452v-0.05c-1.021-0.114-2.079-0.746-2.079-1.949
				c0-0.812,0.439-1.364,1.04-1.705c0.65-0.372,1.607-0.535,2.631-0.535c0.941,0,1.851,0.083,2.533,0.163V84.578L173.813,84.578z
				 M172.401,77.661c-0.357-0.05-0.683-0.082-1.185-0.082c-0.976,0-2.129,0.277-2.129,1.364c0,1.008,1.251,1.364,2.094,1.364
				c0.585,0,0.895,0,1.22,0V77.661L172.401,77.661z"/>
		</g>
	</g>
</g>
</svg>
