<?xml version="1.0" encoding="utf-8"?>
<!-- Generator: Adobe Illustrator 16.0.3, SVG Export Plug-In . SVG Version: 6.00 Build 0)  -->
<!DOCTYPE svg PUBLIC "-//W3C//DTD SVG 1.1//EN" "http://www.w3.org/Graphics/SVG/1.1/DTD/svg11.dtd">
<svg version="1.1" id="Layer_1" xmlns="http://www.w3.org/2000/svg" xmlns:xlink="http://www.w3.org/1999/xlink" x="0px" y="0px"
	 width="257.26px" height="50px" viewBox="-57.045 52.346 257.26 50" enable-background="new -57.045 52.346 257.26 50"
	 xml:space="preserve">
<g>
	<path fill="#F3726A" d="M117.014,1754.814c-0.445,0-0.885-0.037-1.313-0.111l1.313,3.104l1.315-3.104
		C117.898,1754.777,117.459,1754.814,117.014,1754.814z"/>
	<path fill="#F3726A" d="M134.908,1758.674c-1.596,0-2.895,1.297-2.895,2.893c0,1.598,1.299,2.896,2.895,2.896
		s2.895-1.299,2.895-2.896C137.803,1759.971,136.504,1758.674,134.908,1758.674z M134.908,1762.531
		c-0.533,0-0.965-0.434-0.965-0.965c0-0.533,0.432-0.965,0.965-0.965s0.965,0.432,0.965,0.965
		C135.873,1762.099,135.441,1762.531,134.908,1762.531z"/>
	<path fill="#F3726A" d="M123.268,1725.057c-13.808,0-25,11.191-25,25c0,13.807,11.192,25,25,25c13.809,0,25-11.193,25-25
		C148.268,1736.248,137.074,1725.057,123.268,1725.057z M134.908,1766.392c-2.66,0-4.824-2.163-4.824-4.823
		c0-2.328,1.66-4.277,3.859-4.729v-2.282c0-1.985-1.615-3.601-3.604-3.601c-1.984,0-3.604,1.613-3.604,3.601v6.616
		c0,2.947-2.396,5.345-5.346,5.345c-2.947,0-5.346-2.396-5.346-5.345v-0.696l-2.813-6.642c-0.313-0.174-0.619-0.371-0.91-0.592
		c-1.362-1.025-2.329-2.438-2.799-4.076l-2.562-8.96c-0.362-1.274-0.112-2.61,0.685-3.666c0.797-1.058,2.014-1.663,3.336-1.663
		h0.562v-0.321c0-0.532,0.433-0.965,0.965-0.965c0.533,0,0.966,0.433,0.966,0.965v2.571c0,0.533-0.433,0.965-0.966,0.965
		c-0.532,0-0.965-0.432-0.965-0.965v-0.321h-0.562c-0.711,0-1.366,0.327-1.797,0.896c-0.43,0.566-0.563,1.29-0.367,1.975
		l2.562,8.961c0.716,2.5,3.029,4.246,5.632,4.246c2.6,0,4.916-1.746,5.631-4.246l2.562-8.962c0.194-0.685,0.062-1.405-0.368-1.974
		c-0.429-0.569-1.083-0.896-1.797-0.896h-0.561v0.321c0,0.533-0.434,0.965-0.965,0.965c-0.533,0-0.966-0.432-0.966-0.965v-2.571
		c0-0.532,0.433-0.965,0.966-0.965c0.531,0,0.965,0.433,0.965,0.965v0.321h0.561c1.322,0,2.54,0.605,3.337,1.663
		c0.798,1.056,1.046,2.392,0.685,3.666l-2.562,8.96c-0.47,1.641-1.438,3.051-2.799,4.076c-0.291,0.221-0.597,0.418-0.909,0.592
		l-2.813,6.642v0.696c0,1.884,1.531,3.416,3.416,3.416s3.418-1.532,3.418-3.416v-6.616c0-3.049,2.479-5.528,5.528-5.528
		c3.052,0,5.531,2.479,5.531,5.528v2.282c2.198,0.449,3.856,2.398,3.856,4.729C139.73,1764.229,137.566,1766.392,134.908,1766.392z"
		/>
</g>
<g>
	<path fill="#F3726A" d="M117.014,1754.814c-0.445,0-0.885-0.037-1.313-0.111l1.313,3.104l1.315-3.104
		C117.898,1754.777,117.459,1754.814,117.014,1754.814z"/>
	<path fill="#F3726A" d="M134.908,1758.674c-1.596,0-2.895,1.297-2.895,2.893c0,1.598,1.299,2.896,2.895,2.896
		s2.895-1.299,2.895-2.896C137.803,1759.971,136.504,1758.674,134.908,1758.674z M134.908,1762.531
		c-0.533,0-0.965-0.434-0.965-0.965c0-0.533,0.432-0.965,0.965-0.965s0.965,0.432,0.965,0.965
		C135.873,1762.099,135.441,1762.531,134.908,1762.531z"/>
	<path fill="#F3726A" d="M123.268,1725.057c-13.808,0-25,11.191-25,25c0,13.807,11.192,25,25,25c13.809,0,25-11.193,25-25
		C148.268,1736.248,137.074,1725.057,123.268,1725.057z M134.908,1766.392c-2.66,0-4.824-2.163-4.824-4.823
		c0-2.328,1.66-4.277,3.859-4.729v-2.282c0-1.985-1.615-3.601-3.604-3.601c-1.984,0-3.604,1.613-3.604,3.601v6.616
		c0,2.947-2.396,5.345-5.346,5.345c-2.947,0-5.346-2.396-5.346-5.345v-0.696l-2.813-6.642c-0.313-0.174-0.619-0.371-0.91-0.592
		c-1.362-1.025-2.329-2.438-2.799-4.076l-2.562-8.96c-0.362-1.274-0.112-2.61,0.685-3.666c0.797-1.058,2.014-1.663,3.336-1.663
		h0.562v-0.321c0-0.532,0.433-0.965,0.965-0.965c0.533,0,0.966,0.433,0.966,0.965v2.571c0,0.533-0.433,0.965-0.966,0.965
		c-0.532,0-0.965-0.432-0.965-0.965v-0.321h-0.562c-0.711,0-1.366,0.327-1.797,0.896c-0.43,0.566-0.563,1.29-0.367,1.975
		l2.562,8.961c0.716,2.5,3.029,4.246,5.632,4.246c2.6,0,4.916-1.746,5.631-4.246l2.562-8.962c0.194-0.685,0.062-1.405-0.368-1.974
		c-0.429-0.569-1.083-0.896-1.797-0.896h-0.561v0.321c0,0.533-0.434,0.965-0.965,0.965c-0.533,0-0.966-0.432-0.966-0.965v-2.571
		c0-0.532,0.433-0.965,0.966-0.965c0.531,0,0.965,0.433,0.965,0.965v0.321h0.561c1.322,0,2.54,0.605,3.337,1.663
		c0.798,1.056,1.046,2.392,0.685,3.666l-2.562,8.96c-0.47,1.641-1.438,3.051-2.799,4.076c-0.291,0.221-0.597,0.418-0.909,0.592
		l-2.813,6.642v0.696c0,1.884,1.531,3.416,3.416,3.416s3.418-1.532,3.418-3.416v-6.616c0-3.049,2.479-5.528,5.528-5.528
		c3.052,0,5.531,2.479,5.531,5.528v2.282c2.198,0.449,3.856,2.398,3.856,4.729C139.73,1764.229,137.566,1766.392,134.908,1766.392z"
		/>
</g>
<g>
	<g>
		<g>
			<path fill="#F3726A" d="M200.215,94.481c0,4.344-3.52,7.865-7.863,7.865H-49.181c-4.344,0-7.864-3.521-7.864-7.865V60.208
				c0-4.344,3.52-7.862,7.864-7.862h241.533c4.344,0,7.863,3.518,7.863,7.862V94.481z"/>
		</g>
		<g>
			<g>
				<path fill="#FFFFFF" d="M-7.926,66.85v2.688h-6.414v2.514c0.498-0.065,1.191-0.108,1.777-0.108c1.474,0,3.012,0.368,4.118,1.191
					c1.018,0.737,1.691,1.885,1.691,3.49c0,1.43-0.542,2.535-1.387,3.294c-1.409,1.258-3.705,1.69-5.938,1.69
					c-1.626,0-2.817-0.107-3.554-0.216V66.85H-7.926z M-14.36,79.049c0.368,0.065,0.823,0.086,1.278,0.086
					c0.802,0,1.603-0.258,2.144-0.758c0.434-0.392,0.715-0.976,0.715-1.692c0-0.735-0.303-1.276-0.78-1.645
					c-0.585-0.456-1.41-0.651-2.189-0.651c-0.368,0-0.76,0.021-1.169,0.087v4.573H-14.36z"/>
				<path fill="#FFFFFF" d="M-1.582,70.859v3.25c0,1.69-0.086,2.882-0.173,4.313l0.086,0.022c0.499-1.214,0.78-2.037,1.213-3.033
					l2.059-4.551h4.032v10.596H2.515v-3.229c0-1.648,0.086-2.342,0.195-4.594H2.623c-0.412,1.169-0.672,1.863-1.104,2.86
					c-0.672,1.476-1.473,3.315-2.211,4.962h-4.008V70.86L-1.582,70.859L-1.582,70.859z"/>
				<path fill="#FFFFFF" d="M16.225,66.07v4.616c3.034,0.304,5.591,2.103,5.591,5.505c0,3.445-2.644,5.221-5.591,5.439v4.116h-2.991
					v-4.094c-2.969-0.238-5.589-2.036-5.589-5.418c0-3.468,2.579-5.245,5.589-5.547v-4.617L16.225,66.07L16.225,66.07z
					 M13.234,72.81c-1.603,0.39-2.34,1.712-2.34,3.337c0,1.712,0.758,2.968,2.34,3.337V72.81z M16.225,79.483
					c1.581-0.369,2.341-1.646,2.341-3.337c0-1.647-0.76-2.926-2.341-3.315V79.483z"/>
				<path fill="#FFFFFF" d="M26.945,70.859v3.25c0,1.69-0.086,2.882-0.173,4.313l0.086,0.022c0.499-1.214,0.78-2.037,1.213-3.033
					l2.059-4.551h4.032v10.596h-3.12v-3.229c0-1.648,0.087-2.342,0.195-4.594H31.15c-0.411,1.169-0.671,1.863-1.104,2.86
					c-0.672,1.476-1.473,3.315-2.21,4.962h-4.009V70.86L26.945,70.859L26.945,70.859z"/>
				<path fill="#FFFFFF" d="M46.639,70.859v8.277l1.169,0.045l-0.151,5.698h-2.471l-0.108-3.425h-6.696l-0.13,3.425h-2.492
					l-0.087-5.677l0.975-0.066c0.455-0.672,0.824-1.431,1.062-2.209c0.304-1.104,0.477-2.298,0.477-3.467v-2.601H46.639z
					 M41.047,74.499c0,0.887-0.151,1.842-0.39,2.751c-0.152,0.608-0.412,1.259-0.737,1.799h3.511v-5.785h-2.384V74.499z"/>
				<path fill="#FFFFFF" d="M51.877,70.859l1.581,5.199c0.174,0.63,0.39,1.409,0.521,1.973h0.064
					c0.151-0.563,0.325-1.365,0.477-1.973l1.3-5.199h3.532l-2.47,6.978c-1.518,4.202-2.536,5.895-3.727,6.955
					c-1.149,0.996-2.362,1.343-3.186,1.451l-0.693-2.795c0.412-0.063,0.932-0.258,1.431-0.563c0.498-0.258,1.04-0.779,1.365-1.322
					c0.108-0.15,0.173-0.325,0.173-0.476c0-0.108-0.021-0.283-0.151-0.542l-3.879-9.686H51.877z"/>
				<path fill="#FFFFFF" d="M60.996,70.859h4.204l1.149,4.009c0.174,0.626,0.477,1.711,0.693,2.665h0.065
					c0.195-0.737,0.542-1.887,0.846-2.905l1.17-3.77h4.16l0.65,10.595h-3.056l-0.173-4.246c-0.022-0.909-0.087-2.449-0.108-3.706
					h-0.065c-0.412,1.408-0.477,1.757-1.018,3.467l-1.409,4.314h-2.406l-1.256-4.203c-0.281-1.021-0.628-2.515-0.866-3.511h-0.087
					c-0.043,1.321-0.064,2.818-0.108,3.705l-0.173,4.182h-2.947L60.996,70.859z"/>
				<path fill="#FFFFFF" d="M85.28,68.453c-0.629,0.173-1.733,0.303-2.512,0.368c-1.518,0.173-2.626,0.585-3.338,1.408
					c-0.63,0.673-1.062,1.778-1.149,2.623h0.108c0.649-1.169,1.929-1.994,3.488-1.994c2.859,0,4.703,2.102,4.703,5.264
					c0,3.445-2.298,5.571-5.441,5.571c-3.703,0-5.546-2.968-5.546-7c0-2.752,0.715-4.962,2.275-6.436
					c1.04-1.105,2.49-1.733,4.421-1.95c0.997-0.108,2.428-0.26,3.164-0.455L85.28,68.453z M81.055,73.134
					c-0.695,0-1.213,0.369-1.538,0.867c-0.368,0.542-0.563,1.193-0.563,2.102c0,1.387,0.586,3.229,2.145,3.229
					c1.56,0,2.104-1.581,2.104-3.076C83.201,74.824,82.679,73.134,81.055,73.134z"/>
				<path fill="#FFFFFF" d="M94.702,81.454l-0.196-1.06h-0.063c-0.695,0.843-1.779,1.301-3.035,1.301
					c-2.145,0-3.423-1.563-3.423-3.251c0-2.753,2.471-4.074,6.219-4.052V74.24c0-0.563-0.303-1.364-1.928-1.364
					c-1.085,0-2.232,0.368-2.926,0.801l-0.606-2.124c0.736-0.411,2.188-0.931,4.117-0.931c3.532,0,4.659,2.081,4.659,4.573v3.685
					c0,1.019,0.043,1.994,0.151,2.577h-2.969V81.454z M94.312,76.449c-1.733-0.021-3.076,0.392-3.076,1.668
					c0,0.847,0.563,1.259,1.301,1.259c0.822,0,1.494-0.542,1.712-1.214c0.044-0.174,0.065-0.368,0.065-0.563v-1.15H94.312z"/>
				<path fill="#FFFFFF" d="M103.387,70.859v4.226h0.366l2.668-4.226h3.856l-3.9,4.551c1.256,0.238,2.036,1.386,2.665,2.924
					c0.347,0.889,0.758,2.124,1.279,3.12h-3.445c-0.283-0.454-0.543-1.213-0.954-2.34c-0.477-1.214-1.127-1.864-2.212-1.864h-0.323
					v4.203h-3.272V70.857h3.272V70.859z"/>
				<path fill="#FFFFFF" d="M120.239,70.859v2.514h-3.075v8.082h-3.315v-8.082h-3.075v-2.514H120.239z"/>
				<path fill="#FFFFFF" d="M124.052,77.208c0.107,1.364,1.452,2.015,2.989,2.015c1.128,0,2.038-0.15,2.926-0.434l0.434,2.231
					c-1.084,0.433-2.404,0.649-3.836,0.649c-3.597,0-5.656-2.079-5.656-5.396c0-2.687,1.668-5.656,5.352-5.656
					c3.425,0,4.726,2.666,4.726,5.288c0,0.563-0.066,1.062-0.108,1.301L124.052,77.208L124.052,77.208z M127.93,74.955
					c0-0.803-0.347-2.146-1.862-2.146c-1.386,0-1.949,1.257-2.038,2.146H127.93z"/>
				<path fill="#FFFFFF" d="M132.952,74.413c0-1.387-0.043-2.58-0.087-3.554h2.861l0.151,1.473h0.041
					c0.78-1.128,1.995-1.713,3.533-1.713c2.318,0,4.398,2.016,4.398,5.394c0,3.859-2.45,5.68-4.81,5.68
					c-1.279,0-2.275-0.521-2.753-1.214h-0.044v5.267h-3.293L132.952,74.413L132.952,74.413z M136.247,76.904
					c0,0.26,0.021,0.499,0.063,0.695c0.217,0.889,0.977,1.56,1.93,1.56c1.431,0,2.275-1.192,2.275-2.99
					c0-1.692-0.76-2.969-2.23-2.969c-0.932,0-1.755,0.692-1.972,1.668c-0.043,0.174-0.066,0.391-0.066,0.585V76.904L136.247,76.904z
					"/>
				<path fill="#FFFFFF" d="M149.005,70.859v3.25c0,1.69-0.087,2.882-0.174,4.313l0.086,0.022c0.498-1.214,0.779-2.037,1.212-3.033
					l2.06-4.551h4.032v10.596H153.1v-3.229c0-1.648,0.086-2.342,0.194-4.594h-0.086c-0.411,1.169-0.672,1.863-1.104,2.86
					c-0.672,1.476-1.474,3.315-2.211,4.962h-4.01V70.86L149.005,70.859L149.005,70.859z"/>
				<path fill="#FFFFFF" d="M162.109,70.859v3.835h3.337v-3.835h3.316v10.595h-3.316V77.25h-3.337v4.204h-3.294V70.859H162.109z"/>
			</g>
		</g>
	</g>
</g>
</svg>
