<?xml version="1.0" encoding="utf-8"?>
<!-- Generator: Adobe Illustrator 16.0.3, SVG Export Plug-In . SVG Version: 6.00 Build 0)  -->
<!DOCTYPE svg PUBLIC "-//W3C//DTD SVG 1.1//EN" "http://www.w3.org/Graphics/SVG/1.1/DTD/svg11.dtd">
<svg version="1.1" id="Layer_1" xmlns="http://www.w3.org/2000/svg" xmlns:xlink="http://www.w3.org/1999/xlink" x="0px" y="0px"
	 width="257.268px" height="50px" viewBox="-52 45.624 257.268 50" enable-background="new -52 45.624 257.268 50"
	 xml:space="preserve">
<g>
	<path fill="#F3726A" d="M117.014,1754.814c-0.445,0-0.885-0.037-1.313-0.111l1.313,3.104l1.315-3.104
		C117.898,1754.777,117.459,1754.814,117.014,1754.814z"/>
	<path fill="#F3726A" d="M134.908,1758.674c-1.596,0-2.895,1.297-2.895,2.893c0,1.598,1.299,2.896,2.895,2.896
		s2.895-1.299,2.895-2.896C137.803,1759.971,136.504,1758.674,134.908,1758.674z M134.908,1762.531
		c-0.533,0-0.965-0.434-0.965-0.965c0-0.533,0.432-0.965,0.965-0.965s0.965,0.432,0.965,0.965
		C135.873,1762.099,135.441,1762.531,134.908,1762.531z"/>
	<path fill="#F3726A" d="M123.268,1725.057c-13.808,0-25,11.191-25,25c0,13.807,11.192,25,25,25c13.809,0,25-11.193,25-25
		C148.268,1736.248,137.074,1725.057,123.268,1725.057z M134.908,1766.392c-2.66,0-4.824-2.163-4.824-4.823
		c0-2.328,1.66-4.277,3.859-4.729v-2.282c0-1.985-1.615-3.601-3.604-3.601c-1.984,0-3.604,1.613-3.604,3.601v6.616
		c0,2.947-2.396,5.345-5.346,5.345c-2.947,0-5.346-2.396-5.346-5.345v-0.696l-2.813-6.642c-0.313-0.174-0.619-0.371-0.91-0.592
		c-1.362-1.025-2.329-2.438-2.799-4.076l-2.562-8.96c-0.362-1.274-0.112-2.61,0.685-3.666c0.797-1.058,2.014-1.663,3.336-1.663
		h0.562v-0.321c0-0.532,0.433-0.965,0.965-0.965c0.533,0,0.966,0.433,0.966,0.965v2.571c0,0.533-0.433,0.965-0.966,0.965
		c-0.532,0-0.965-0.432-0.965-0.965v-0.321h-0.562c-0.711,0-1.366,0.327-1.797,0.896c-0.43,0.566-0.563,1.29-0.367,1.975
		l2.562,8.961c0.716,2.5,3.029,4.246,5.632,4.246c2.6,0,4.916-1.746,5.631-4.246l2.562-8.962c0.194-0.685,0.062-1.405-0.368-1.974
		c-0.429-0.569-1.083-0.896-1.797-0.896h-0.561v0.321c0,0.533-0.434,0.965-0.965,0.965c-0.533,0-0.966-0.432-0.966-0.965v-2.571
		c0-0.532,0.433-0.965,0.966-0.965c0.531,0,0.965,0.433,0.965,0.965v0.321h0.561c1.322,0,2.54,0.605,3.337,1.663
		c0.798,1.056,1.046,2.392,0.685,3.666l-2.562,8.96c-0.47,1.641-1.438,3.051-2.799,4.076c-0.291,0.221-0.597,0.418-0.909,0.592
		l-2.813,6.642v0.696c0,1.884,1.531,3.416,3.416,3.416s3.418-1.532,3.418-3.416v-6.616c0-3.049,2.479-5.528,5.528-5.528
		c3.052,0,5.531,2.479,5.531,5.528v2.282c2.198,0.449,3.856,2.398,3.856,4.729C139.73,1764.229,137.566,1766.392,134.908,1766.392z"
		/>
</g>
<g>
	<path fill="#F3726A" d="M117.014,1754.814c-0.445,0-0.885-0.037-1.313-0.111l1.313,3.104l1.315-3.104
		C117.898,1754.777,117.459,1754.814,117.014,1754.814z"/>
	<path fill="#F3726A" d="M134.908,1758.674c-1.596,0-2.895,1.297-2.895,2.893c0,1.598,1.299,2.896,2.895,2.896
		s2.895-1.299,2.895-2.896C137.803,1759.971,136.504,1758.674,134.908,1758.674z M134.908,1762.531
		c-0.533,0-0.965-0.434-0.965-0.965c0-0.533,0.432-0.965,0.965-0.965s0.965,0.432,0.965,0.965
		C135.873,1762.099,135.441,1762.531,134.908,1762.531z"/>
	<path fill="#F3726A" d="M123.268,1725.057c-13.808,0-25,11.191-25,25c0,13.807,11.192,25,25,25c13.809,0,25-11.193,25-25
		C148.268,1736.248,137.074,1725.057,123.268,1725.057z M134.908,1766.392c-2.66,0-4.824-2.163-4.824-4.823
		c0-2.328,1.66-4.277,3.859-4.729v-2.282c0-1.985-1.615-3.601-3.604-3.601c-1.984,0-3.604,1.613-3.604,3.601v6.616
		c0,2.947-2.396,5.345-5.346,5.345c-2.947,0-5.346-2.396-5.346-5.345v-0.696l-2.813-6.642c-0.313-0.174-0.619-0.371-0.91-0.592
		c-1.362-1.025-2.329-2.438-2.799-4.076l-2.562-8.96c-0.362-1.274-0.112-2.61,0.685-3.666c0.797-1.058,2.014-1.663,3.336-1.663
		h0.562v-0.321c0-0.532,0.433-0.965,0.965-0.965c0.533,0,0.966,0.433,0.966,0.965v2.571c0,0.533-0.433,0.965-0.966,0.965
		c-0.532,0-0.965-0.432-0.965-0.965v-0.321h-0.562c-0.711,0-1.366,0.327-1.797,0.896c-0.43,0.566-0.563,1.29-0.367,1.975
		l2.562,8.961c0.716,2.5,3.029,4.246,5.632,4.246c2.6,0,4.916-1.746,5.631-4.246l2.562-8.962c0.194-0.685,0.062-1.405-0.368-1.974
		c-0.429-0.569-1.083-0.896-1.797-0.896h-0.561v0.321c0,0.533-0.434,0.965-0.965,0.965c-0.533,0-0.966-0.432-0.966-0.965v-2.571
		c0-0.532,0.433-0.965,0.966-0.965c0.531,0,0.965,0.433,0.965,0.965v0.321h0.561c1.322,0,2.54,0.605,3.337,1.663
		c0.798,1.056,1.046,2.392,0.685,3.666l-2.562,8.96c-0.47,1.641-1.438,3.051-2.799,4.076c-0.291,0.221-0.597,0.418-0.909,0.592
		l-2.813,6.642v0.696c0,1.884,1.531,3.416,3.416,3.416s3.418-1.532,3.418-3.416v-6.616c0-3.049,2.479-5.528,5.528-5.528
		c3.052,0,5.531,2.479,5.531,5.528v2.282c2.198,0.449,3.856,2.398,3.856,4.729C139.73,1764.229,137.566,1766.392,134.908,1766.392z"
		/>
</g>
<g>
	<g>
		<g>
			<path fill="#F3726A" d="M205.268,87.76c0,4.345-3.521,7.864-7.866,7.864H-44.137c-4.343,0-7.863-3.52-7.863-7.864V53.485
				c0-4.345,3.52-7.861,7.863-7.861h241.539c4.345,0,7.866,3.517,7.866,7.861V87.76L205.268,87.76z"/>
		</g>
		<g>
			<g>
				<path fill="#FFFFFF" d="M29.639,60.451c-0.082-1.526-0.179-3.362-0.162-4.725h-0.049c-0.374,1.282-0.829,2.646-1.381,4.156
					l-1.932,5.31h-1.072l-1.769-5.211c-0.521-1.542-0.958-2.956-1.268-4.254h-0.032c-0.033,1.363-0.114,3.199-0.211,4.838
					l-0.29,4.693h-1.347l0.762-10.943h1.802l1.867,5.293c0.455,1.349,0.828,2.55,1.103,3.687h0.049
					c0.276-1.103,0.667-2.306,1.154-3.687l1.948-5.293h1.802l0.682,10.943h-1.381L29.639,60.451z"/>
				<path fill="#FFFFFF" d="M34.746,57.398v3.312c0,1.251-0.016,2.031-0.081,3.15l0.049,0.017c0.471-0.958,0.747-1.51,1.266-2.419
					l2.452-4.059h1.672v7.859H38.74V61.93c0-1.284,0.033-1.948,0.097-3.215h-0.048c-0.504,1.007-0.845,1.64-1.298,2.436
					c-0.748,1.217-1.608,2.728-2.452,4.107h-1.639v-7.859H34.746L34.746,57.398z"/>
				<path fill="#FFFFFF" d="M43.843,57.398v3.411h0.341l2.956-3.411h1.736l-3.425,3.555c1.267,0.13,2.029,0.975,2.647,2.387
					c0.21,0.52,0.487,1.282,0.845,1.916h-1.495c-0.211-0.341-0.488-0.958-0.731-1.608c-0.536-1.268-1.267-1.851-2.598-1.851h-0.276
					v3.459h-1.412v-7.859L43.843,57.398L43.843,57.398z"/>
				<path fill="#FFFFFF" d="M50.213,59.964c0-1.008-0.033-1.818-0.065-2.566h1.282l0.065,1.348h0.032
					c0.585-0.958,1.51-1.526,2.793-1.526c1.9,0,3.329,1.607,3.329,3.994c0,2.825-1.721,4.221-3.572,4.221
					c-1.04,0-1.948-0.455-2.419-1.235h-0.033v4.272h-1.412V59.964z M51.625,62.058c0,0.211,0.033,0.406,0.065,0.585
					c0.26,0.991,1.121,1.672,2.143,1.672c1.511,0,2.387-1.233,2.387-3.036c0-1.575-0.829-2.923-2.338-2.923
					c-0.975,0-1.883,0.699-2.16,1.77c-0.049,0.179-0.097,0.39-0.097,0.584V62.058z"/>
				<path fill="#FFFFFF" d="M66.569,61.263c0,2.906-2.014,4.173-3.913,4.173c-2.127,0-3.768-1.558-3.768-4.042
					c0-2.631,1.721-4.172,3.896-4.172C65.042,57.221,66.569,58.86,66.569,61.263z M60.332,61.345c0,1.721,0.992,3.021,2.387,3.021
					c1.363,0,2.387-1.282,2.387-3.053c0-1.331-0.667-3.019-2.355-3.019C61.063,58.292,60.332,59.852,60.332,61.345z"/>
				<path fill="#FFFFFF" d="M74.317,54.737c-0.406,0.146-1.12,0.275-1.639,0.357c-1.267,0.195-2.192,0.617-2.793,1.478
					c-0.504,0.714-0.794,1.769-0.859,2.598h0.048c0.503-1.135,1.608-1.77,2.728-1.77c1.932,0,3.346,1.381,3.346,3.88
					c0,2.566-1.331,4.156-3.638,4.156c-2.761,0-3.67-2.647-3.67-5.261c0-1.786,0.374-3.249,1.218-4.352
					c0.762-1.087,1.851-1.591,3.378-1.851c0.633-0.098,1.412-0.228,1.948-0.422L74.317,54.737z M71.51,58.454
					c-0.845,0-1.445,0.439-1.771,1.072c-0.26,0.471-0.39,1.04-0.39,1.672c0,1.298,0.634,3.167,2.192,3.167
					c1.575,0,2.159-1.526,2.159-2.972C73.702,60.11,73.198,58.454,71.51,58.454z"/>
				<path fill="#FFFFFF" d="M78.27,57.398v3.312c0,1.251-0.018,2.031-0.082,3.15l0.048,0.017c0.472-0.958,0.748-1.51,1.267-2.419
					l2.453-4.059h1.672v7.859h-1.364V61.93c0-1.284,0.031-1.948,0.098-3.215h-0.048c-0.505,1.007-0.846,1.64-1.3,2.436
					c-0.747,1.217-1.609,2.728-2.452,4.107h-1.64v-7.859H78.27L78.27,57.398z"/>
				<path fill="#FFFFFF" d="M93.064,61.263c0,2.906-2.012,4.173-3.913,4.173c-2.127,0-3.767-1.558-3.767-4.042
					c0-2.631,1.722-4.172,3.897-4.172C91.538,57.221,93.064,58.86,93.064,61.263z M86.829,61.345c0,1.721,0.991,3.021,2.388,3.021
					c1.364,0,2.388-1.282,2.388-3.053c0-1.331-0.665-3.019-2.354-3.019C87.562,58.292,86.829,59.852,86.829,61.345z"/>
				<path fill="#FFFFFF" d="M100.831,57.398v7.859h-1.412V58.52h-2.695v2.045c0,2.209-0.212,3.687-1.235,4.352
					c-0.389,0.308-0.826,0.487-1.556,0.487l-0.146-1.122c0.276-0.049,0.584-0.163,0.778-0.324c0.731-0.536,0.813-1.64,0.813-3.395
					v-3.166H100.831L100.831,57.398z"/>
				<path fill="#FFFFFF" d="M110.286,61.263c0,2.906-2.014,4.173-3.914,4.173c-2.128,0-3.768-1.558-3.768-4.042
					c0-2.631,1.722-4.172,3.897-4.172C108.758,57.221,110.286,58.86,110.286,61.263z M104.051,61.345
					c0,1.721,0.99,3.021,2.388,3.021c1.364,0,2.387-1.282,2.387-3.053c0-1.331-0.665-3.019-2.354-3.019
					C104.78,58.292,104.051,59.852,104.051,61.345z"/>
				<path fill="#FFFFFF" d="M116.881,57.398v1.154h-3.41v6.706h-1.412v-7.859H116.881z"/>
				<path fill="#FFFFFF" d="M119.549,57.398v3.312c0,1.251-0.016,2.031-0.082,3.15l0.05,0.017c0.471-0.958,0.746-1.51,1.267-2.419
					l2.451-4.059h1.673v7.859h-1.364V61.93c0-1.284,0.033-1.948,0.097-3.215h-0.048c-0.502,1.007-0.844,1.64-1.299,2.436
					c-0.748,1.217-1.608,2.728-2.453,4.107h-1.64v-7.859H119.549L119.549,57.398z"/>
				<path fill="#FFFFFF" d="M128.355,57.398v2.583c0,0.991,0.371,1.672,1.623,1.672c0.618,0,1.251-0.228,1.688-0.553v-3.702h1.414
					v7.859h-1.414v-3.15h-0.031c-0.537,0.357-1.381,0.601-2.126,0.601c-1.495,0-2.582-0.764-2.582-2.566v-2.744H128.355
					L128.355,57.398z"/>
				<path fill="#FFFFFF" d="M136.218,61.589c0.033,1.932,1.269,2.728,2.697,2.728c1.023,0,1.64-0.179,2.175-0.406l0.243,1.023
					c-0.504,0.228-1.364,0.488-2.613,0.488c-2.42,0-3.863-1.592-3.863-3.963s1.395-4.237,3.686-4.237
					c2.565,0,3.246,2.257,3.246,3.701c0,0.292-0.033,0.52-0.049,0.667H136.218z M140.406,60.564c0.018-0.908-0.373-2.321-1.98-2.321
					c-1.443,0-2.077,1.331-2.19,2.321H140.406z"/>
				<path fill="#FFFFFF" d="M149.164,64.965c-0.373,0.195-1.203,0.455-2.258,0.455c-2.371,0-3.914-1.608-3.914-4.01
					c0-2.419,1.657-4.174,4.224-4.174c0.843,0,1.589,0.212,1.98,0.407l-0.324,1.104c-0.343-0.195-0.878-0.373-1.656-0.373
					c-1.804,0-2.778,1.331-2.778,2.97c0,1.818,1.169,2.939,2.728,2.939c0.813,0,1.349-0.21,1.753-0.39L149.164,64.965z"/>
				<path fill="#FFFFFF" d="M152.253,57.398v3.411h0.341l2.955-3.411h1.737l-3.426,3.555c1.267,0.13,2.029,0.975,2.646,2.387
					c0.211,0.52,0.487,1.282,0.844,1.916h-1.494c-0.21-0.341-0.486-0.958-0.729-1.608c-0.537-1.268-1.268-1.851-2.6-1.851h-0.274
					v3.459h-1.412v-7.859L152.253,57.398L152.253,57.398z"/>
				<path fill="#FFFFFF" d="M165.637,61.263c0,2.906-2.014,4.173-3.915,4.173c-2.126,0-3.766-1.558-3.766-4.042
					c0-2.631,1.722-4.172,3.896-4.172C164.109,57.221,165.637,58.86,165.637,61.263z M159.402,61.345
					c0,1.721,0.989,3.021,2.387,3.021c1.364,0,2.387-1.282,2.387-3.053c0-1.331-0.664-3.019-2.354-3.019
					C160.133,58.292,159.402,59.852,159.402,61.345z"/>
				<path fill="#FFFFFF" d="M168.238,61.589c0.033,1.932,1.269,2.728,2.696,2.728c1.023,0,1.639-0.179,2.176-0.406l0.243,1.023
					c-0.504,0.228-1.364,0.488-2.615,0.488c-2.419,0-3.863-1.592-3.863-3.963s1.396-4.237,3.687-4.237
					c2.566,0,3.247,2.257,3.247,3.701c0,0.292-0.031,0.52-0.049,0.667H168.238z M172.429,60.564
					c0.016-0.908-0.373-2.321-1.981-2.321c-1.443,0-2.078,1.331-2.191,2.321H172.429z"/>
				<path fill="#FFFFFF" d="M31.773,76.895v3.313c0,1.25-0.017,2.029-0.081,3.15l0.049,0.016c0.471-0.957,0.747-1.51,1.267-2.419
					l2.452-4.06h1.672v7.859h-1.363v-3.329c0-1.283,0.032-1.946,0.097-3.213h-0.049c-0.504,1.005-0.845,1.64-1.298,2.436
					c-0.747,1.216-1.608,2.728-2.452,4.106h-1.639v-7.859H31.773z"/>
				<path fill="#FFFFFF" d="M45.06,84.463c-0.374,0.194-1.201,0.455-2.257,0.455c-2.371,0-3.914-1.609-3.914-4.013
					c0-2.419,1.657-4.173,4.223-4.173c0.845,0,1.591,0.211,1.981,0.406l-0.325,1.104c-0.341-0.194-0.876-0.372-1.656-0.372
					c-1.803,0-2.777,1.33-2.777,2.97c0,1.819,1.17,2.939,2.728,2.939c0.813,0,1.349-0.21,1.753-0.391L45.06,84.463z"/>
				<path fill="#FFFFFF" d="M52.241,84.463c-0.374,0.194-1.201,0.455-2.257,0.455c-2.371,0-3.914-1.609-3.914-4.013
					c0-2.419,1.657-4.173,4.223-4.173c0.844,0,1.591,0.211,1.981,0.406l-0.326,1.104c-0.341-0.194-0.875-0.372-1.655-0.372
					c-1.803,0-2.777,1.33-2.777,2.97c0,1.819,1.17,2.939,2.728,2.939c0.813,0,1.349-0.21,1.753-0.391L52.241,84.463z"/>
				<path fill="#FFFFFF" d="M60.151,76.895v7.859h-1.412v-6.739h-2.696v2.048c0,2.208-0.211,3.687-1.234,4.35
					c-0.39,0.31-0.828,0.488-1.559,0.488l-0.146-1.121c0.276-0.049,0.585-0.163,0.78-0.324c0.731-0.535,0.813-1.64,0.813-3.393
					v-3.168H60.151L60.151,76.895z"/>
				<path fill="#FFFFFF" d="M63.291,81.083c0.033,1.934,1.266,2.73,2.696,2.73c1.022,0,1.639-0.179,2.175-0.406l0.244,1.021
					c-0.504,0.227-1.364,0.489-2.615,0.489c-2.419,0-3.864-1.594-3.864-3.964c0-2.371,1.397-4.237,3.687-4.237
					c2.565,0,3.248,2.257,3.248,3.7c0,0.294-0.032,0.521-0.049,0.666H63.291L63.291,81.083z M67.479,80.063
					c0.016-0.911-0.374-2.324-1.98-2.324c-1.445,0-2.078,1.333-2.192,2.324H67.479z"/>
				<path fill="#FFFFFF" d="M76.771,76.895v6.788l0.813,0.018l-0.08,3.555h-1.121l-0.066-2.501h-5.439l-0.064,2.501H69.69
					L69.625,83.7l0.666-0.018c0.34-0.502,0.6-1.04,0.78-1.607c0.309-0.976,0.453-2.031,0.453-3.134v-2.047H76.771z M72.793,79.282
					c0,1.04-0.146,2.047-0.406,2.922c-0.163,0.537-0.39,1.023-0.634,1.461h3.622v-5.681h-2.583V79.282z"/>
				<path fill="#FFFFFF" d="M86.34,80.758c0,2.906-2.013,4.173-3.914,4.173c-2.126,0-3.767-1.558-3.767-4.042
					c0-2.629,1.721-4.172,3.896-4.172C84.813,76.717,86.34,78.355,86.34,80.758z M80.104,80.84c0,1.722,0.991,3.02,2.388,3.02
					c1.363,0,2.388-1.282,2.388-3.051c0-1.332-0.666-3.021-2.355-3.021C80.834,77.787,80.104,79.346,80.104,80.84z"/>
				<path fill="#FFFFFF" d="M88.114,76.993c0.553-0.099,1.575-0.181,2.501-0.181c1.314,0,3.49,0.211,3.49,1.965
					c0,0.975-0.745,1.576-1.639,1.771v0.033c1.152,0.161,1.996,0.812,1.996,1.946c0,2.063-2.597,2.322-4.141,2.322
					c-0.876,0-1.785-0.064-2.208-0.096V76.993z M89.463,83.813c0.405,0.047,0.697,0.064,1.152,0.064
					c0.957,0,2.388-0.228,2.388-1.366c0-1.134-1.137-1.38-2.501-1.38h-1.039V83.813z M89.479,80.189h1.07
					c1.056,0,2.145-0.308,2.145-1.232c0-0.779-0.682-1.154-2.112-1.154c-0.471,0-0.762,0.032-1.103,0.065V80.189z"/>
				<path fill="#FFFFFF" d="M100.621,84.754l-0.113-0.989h-0.048c-0.438,0.617-1.282,1.169-2.402,1.169
					c-1.593,0-2.402-1.12-2.402-2.259c0-1.898,1.689-2.938,4.724-2.922v-0.161c0-0.65-0.178-1.819-1.786-1.819
					c-0.729,0-1.492,0.228-2.045,0.585l-0.324-0.941c0.649-0.422,1.592-0.698,2.581-0.698c2.403,0,2.988,1.64,2.988,3.214v2.939
					c0,0.682,0.031,1.349,0.129,1.885h-1.301V84.754z M100.41,80.745c-1.558-0.033-3.329,0.243-3.329,1.769
					c0,0.926,0.618,1.364,1.348,1.364c1.023,0,1.672-0.647,1.899-1.316c0.049-0.145,0.082-0.309,0.082-0.455V80.745z"/>
				<path fill="#FFFFFF" d="M105.479,76.895v3.168h3.736v-3.168h1.413v7.859h-1.413v-3.557h-3.736v3.557h-1.412v-7.859H105.479z"/>
				<path fill="#FFFFFF" d="M114.284,76.895v3.313c0,1.25-0.016,2.029-0.081,3.15l0.049,0.016c0.471-0.957,0.749-1.51,1.267-2.419
					l2.453-4.06h1.672v7.859h-1.364v-3.329c0-1.283,0.032-1.946,0.097-3.213h-0.049c-0.503,1.005-0.844,1.64-1.299,2.436
					c-0.747,1.216-1.607,2.728-2.452,4.106h-1.64v-7.859H114.284z"/>
				<path fill="#FFFFFF" d="M122.767,81.083c0.032,1.934,1.267,2.73,2.696,2.73c1.023,0,1.639-0.179,2.175-0.406l0.243,1.021
					c-0.503,0.227-1.364,0.489-2.612,0.489c-2.42,0-3.865-1.594-3.865-3.964c0-2.371,1.396-4.237,3.687-4.237
					c2.566,0,3.246,2.257,3.246,3.7c0,0.294-0.032,0.521-0.048,0.666H122.767L122.767,81.083z M126.958,80.063
					c0.016-0.911-0.376-2.324-1.982-2.324c-1.444,0-2.076,1.333-2.19,2.324H126.958z"/>
				<path fill="#FFFFFF" d="M134.967,76.895v3.411h0.342l2.956-3.411h1.737l-3.426,3.556c1.268,0.131,2.029,0.975,2.646,2.389
					c0.212,0.519,0.486,1.281,0.844,1.915h-1.494c-0.209-0.342-0.486-0.958-0.729-1.608c-0.537-1.267-1.267-1.851-2.599-1.851
					h-0.276v3.459h-1.411v-7.859H134.967z"/>
				<path fill="#FFFFFF" d="M145.851,84.754l-0.113-0.989h-0.048c-0.438,0.617-1.282,1.169-2.403,1.169
					c-1.592,0-2.402-1.12-2.402-2.259c0-1.898,1.688-2.938,4.726-2.922v-0.161c0-0.65-0.179-1.819-1.786-1.819
					c-0.73,0-1.494,0.228-2.047,0.585l-0.323-0.941c0.648-0.422,1.59-0.698,2.58-0.698c2.402,0,2.988,1.64,2.988,3.214v2.939
					c0,0.682,0.032,1.349,0.131,1.885h-1.302V84.754z M145.64,80.745c-1.558-0.033-3.326,0.243-3.326,1.769
					c0,0.926,0.615,1.364,1.346,1.364c1.023,0,1.672-0.647,1.899-1.316c0.049-0.145,0.081-0.309,0.081-0.455V80.745z"/>
				<path fill="#FFFFFF" d="M155.321,76.895v7.859h-1.413v-6.739h-2.694v2.048c0,2.208-0.212,3.687-1.235,4.35
					c-0.389,0.31-0.826,0.488-1.558,0.488l-0.146-1.121c0.275-0.049,0.585-0.163,0.779-0.324c0.73-0.535,0.813-1.64,0.813-3.393
					v-3.168H155.321L155.321,76.895z"/>
				<path fill="#FFFFFF" d="M162.016,84.754l-0.114-0.989h-0.049c-0.438,0.617-1.282,1.169-2.402,1.169
					c-1.592,0-2.403-1.12-2.403-2.259c0-1.898,1.689-2.938,4.726-2.922v-0.161c0-0.65-0.178-1.819-1.785-1.819
					c-0.731,0-1.494,0.228-2.047,0.585l-0.324-0.941c0.649-0.422,1.591-0.698,2.58-0.698c2.403,0,2.987,1.64,2.987,3.214v2.939
					c0,0.682,0.033,1.349,0.131,1.885h-1.299V84.754z M161.804,80.745c-1.558-0.033-3.328,0.243-3.328,1.769
					c0,0.926,0.616,1.364,1.348,1.364c1.023,0,1.671-0.647,1.898-1.316c0.051-0.145,0.082-0.309,0.082-0.455V80.745z"/>
			</g>
		</g>
	</g>
	<g>
		<path fill="#263238" d="M-17.188,51.338c0.528,0.072,1.058,0.135,1.583,0.217c4.501,0.708,8.258,2.79,11.262,6.201
			c2.452,2.784,3.957,6.031,4.44,9.707c0.688,5.219-0.563,9.961-3.815,14.109c-3.097,3.945-7.177,6.259-12.139,7.01
			c-0.442,0.069-0.887,0.114-1.331,0.17c-0.827,0-1.657,0-2.485,0c-0.441-0.056-0.885-0.104-1.328-0.167
			c-3.69-0.538-6.961-2.008-9.754-4.484c-3.392-3.001-5.458-6.748-6.165-11.23c-0.084-0.527-0.144-1.055-0.216-1.581
			c0-0.83,0-1.659,0-2.486c0.057-0.443,0.104-0.888,0.169-1.332c0.536-3.675,2.001-6.938,4.459-9.726
			c3.006-3.406,6.758-5.481,11.256-6.189c0.525-0.083,1.052-0.145,1.579-0.217C-18.845,51.338-18.015,51.338-17.188,51.338z
			 M-18.429,52.648c-9.591,0-17.393,7.798-17.398,17.388c-0.005,9.59,7.789,17.4,17.378,17.406c9.607,0.008,17.42-7.8,17.417-17.403
			C-1.036,60.447-8.84,52.648-18.429,52.648z"/>
		<path fill="#263238" d="M-34.36,70.041c0.003-8.787,7.139-15.924,15.927-15.924c8.803-0.002,15.941,7.144,15.932,15.952
			c-0.009,8.782-7.153,15.911-15.943,15.905C-27.23,85.97-34.361,78.828-34.36,70.041z M-3.811,70.073
			c0.01-8.041-6.55-14.631-14.575-14.646c-8.058-0.016-14.654,6.549-14.664,14.594c-0.01,8.039,6.548,14.63,14.574,14.646
			C-10.416,84.68-3.82,78.116-3.811,70.073z"/>
		<path fill="#263238" d="M-12.716,66.977c0.386-0.194,0.693-0.336,0.986-0.502c0.084-0.048,0.161-0.172,0.167-0.267
			c0.024-0.291-0.006-0.584,0.017-0.875c0.03-0.392,0.31-0.635,0.672-0.627c0.361,0.011,0.659,0.278,0.617,0.667
			c-0.076,0.69,0.044,1.221,0.811,1.415c0.097,0.027,0.183,0.114,0.351,0.222c0.187-0.217,0.364-0.449,0.571-0.652
			c0.333-0.325,0.733-0.336,1-0.056c0.261,0.277,0.274,0.688-0.08,0.968c-0.562,0.447-0.796,0.907-0.375,1.573
			c0.105,0.167,0.114,0.394,0.176,0.629c0.292,0,0.594-0.008,0.896,0c0.476,0.014,0.756,0.261,0.757,0.661
			c0,0.402-0.275,0.641-0.756,0.649c-0.28,0.003-0.561,0.003-0.841,0.008c-0.011,0-0.023,0.005-0.018,0.005
			c-0.159,0.439-0.326,0.862-0.464,1.298c-0.03,0.097,0.016,0.256,0.085,0.338c0.187,0.225,0.415,0.414,0.605,0.632
			c0.267,0.31,0.254,0.658-0.008,0.916c-0.25,0.247-0.624,0.249-0.921-0.011c-0.183-0.158-0.333-0.36-0.526-0.502
			c-0.085-0.064-0.249-0.069-0.357-0.037c-0.137,0.037-0.244,0.186-0.377,0.212c-0.499,0.094-0.585,0.416-0.522,0.846
			c0.02,0.133,0.007,0.269,0,0.402c-0.016,0.391-0.266,0.669-0.62,0.688c-0.354,0.018-0.655-0.268-0.681-0.669
			c-0.018-0.28,0.008-0.561-0.014-0.841c-0.008-0.098-0.08-0.22-0.16-0.275c-0.139-0.092-0.313-0.13-0.463-0.208
			c-0.147-0.08-0.284-0.183-0.516-0.331c-0.187,0.22-0.36,0.455-0.564,0.658c-0.315,0.317-0.704,0.336-0.973,0.078
			c-0.283-0.269-0.299-0.704,0.061-0.988c0.563-0.45,0.801-0.907,0.364-1.573c-0.112-0.172-0.119-0.416-0.178-0.643
			c-0.328,0-0.645,0.008-0.958,0c-0.402-0.014-0.671-0.255-0.696-0.605c-0.024-0.363,0.241-0.663,0.648-0.696
			c0.325-0.024,0.654-0.005,0.965-0.005c0.173-0.465,0.345-0.902,0.491-1.349c0.026-0.074-0.031-0.206-0.092-0.274
			c-0.186-0.208-0.398-0.394-0.586-0.6c-0.283-0.314-0.293-0.69-0.043-0.951c0.262-0.272,0.65-0.272,0.973,0.034
			C-13.071,66.54-12.885,66.783-12.716,66.977z M-12.683,69.97c-0.053,0.622,0.118,1.301,0.472,1.837
			c0.67,1.023,1.781,1.076,2.542,0.125c0.822-1.029,0.75-2.827-0.151-3.773c-0.648-0.683-1.536-0.677-2.17,0.021
			C-12.441,68.677-12.649,69.271-12.683,69.97z"/>
		<path fill="#263238" d="M-29.925,67.399c-0.008-1.455,0.891-2.816,2.153-3.252c1.366-0.473,2.802,0.053,3.604,1.32
			c0.923,1.457,0.643,3.462-0.638,4.588c-1.462,1.284-3.711,0.877-4.642-0.844C-29.767,68.619-29.919,68.037-29.925,67.399z
			 M-28.633,67.388c0.043,0.249,0.062,0.508,0.137,0.749c0.441,1.409,2.023,1.822,2.988,0.785c0.815-0.873,0.749-2.401-0.138-3.197
			c-0.668-0.6-1.626-0.593-2.28,0.024C-28.395,66.194-28.606,66.744-28.633,67.388z"/>
		<path fill="#263238" d="M-22.174,79c0.044-0.923,0.479-1.608,1.316-1.982c0.83-0.37,1.626-0.244,2.364,0.313
			c0.231,0.175,0.519,0.328,0.8,0.373c0.334,0.053,0.642-0.116,0.814-0.441c0.169-0.328,0.153-0.653-0.028-0.972
			c-0.042-0.074-0.103-0.135-0.15-0.205c-0.219-0.328-0.179-0.694,0.1-0.913c0.286-0.225,0.643-0.185,0.916,0.101
			c1.082,1.14,0.64,3.067-0.835,3.615c-0.805,0.299-1.545,0.167-2.231-0.355c-0.215-0.16-0.468-0.313-0.726-0.369
			c-0.371-0.086-0.706,0.066-0.895,0.415c-0.188,0.347-0.172,0.701,0.056,1.037c0.04,0.058,0.086,0.113,0.127,0.174
			c0.211,0.325,0.174,0.658-0.098,0.884c-0.27,0.225-0.658,0.198-0.917-0.082C-21.979,80.147-22.193,79.616-22.174,79z"/>
		<path fill="#263238" d="M-11.053,61.071c0,1.313-1.074,2.391-2.386,2.396c-1.308,0.005-2.391-1.063-2.416-2.377
			c-0.022-1.288,1.123-2.438,2.416-2.422C-12.129,58.685-11.053,59.766-11.053,61.071z M-13.459,62.156
			c0.604,0.005,1.096-0.479,1.098-1.08c0.005-0.594-0.497-1.095-1.089-1.092c-0.586,0.005-1.066,0.479-1.082,1.068
			C-14.547,61.646-14.056,62.153-13.459,62.156z"/>
		<path fill="#263238" d="M-20.125,67.632c-1.079,0.003-1.948-0.862-1.955-1.938c-0.007-1.082,0.892-1.989,1.961-1.983
			c1.059,0.005,1.954,0.893,1.969,1.954C-18.137,66.736-19.036,67.632-20.125,67.632z M-19.475,65.673
			c-0.005-0.352-0.31-0.643-0.666-0.635c-0.351,0.008-0.643,0.319-0.628,0.669c0.018,0.333,0.31,0.616,0.647,0.616
			C-19.771,66.322-19.469,66.02-19.475,65.673z"/>
		<path fill="#263238" d="M-23.993,78.468c-0.95-0.005-1.725-0.777-1.726-1.717c0-0.94,0.812-1.745,1.757-1.728
			c0.933,0.013,1.721,0.818,1.704,1.743C-22.274,77.712-23.049,78.471-23.993,78.468z M-23.533,76.855
			c0.004-0.058,0.006-0.116,0.009-0.174c-0.155-0.114-0.313-0.323-0.465-0.317c-0.141,0.006-0.356,0.217-0.389,0.373
			c-0.052,0.229,0.122,0.44,0.386,0.398C-23.827,77.109-23.685,76.953-23.533,76.855z"/>
		<path fill="#263238" d="M-15.728,72.448c0.002,0.354-0.286,0.655-0.635,0.658c-0.337,0.003-0.655-0.311-0.661-0.649
			c-0.002-0.341,0.301-0.649,0.65-0.653C-16.017,71.799-15.729,72.085-15.728,72.448z"/>
		<path fill="#263238" d="M-22.915,80.195c-0.004,0.338-0.323,0.651-0.658,0.647c-0.351-0.003-0.637-0.302-0.634-0.661
			c0.001-0.362,0.283-0.64,0.646-0.635C-23.204,79.55-22.909,79.849-22.915,80.195z"/>
		<path fill="#263238" d="M-17.05,82.233c-0.008,0.344-0.319,0.643-0.665,0.635c-0.35-0.005-0.643-0.31-0.636-0.661
			c0.005-0.352,0.299-0.632,0.661-0.624C-17.333,81.588-17.043,81.885-17.05,82.233z"/>
		<path fill="#263238" d="M-21.854,60.167c0.355,0.005,0.647,0.3,0.641,0.649c-0.007,0.346-0.313,0.643-0.661,0.635
			c-0.351-0.006-0.647-0.308-0.642-0.653C-22.511,60.444-22.216,60.164-21.854,60.167z"/>
		<path fill="#263238" d="M-18.433,61.439c0.008,0.36-0.271,0.649-0.633,0.656c-0.355,0.008-0.658-0.275-0.668-0.625
			c-0.008-0.344,0.289-0.65,0.64-0.658C-18.738,60.805-18.441,61.085-18.433,61.439z"/>
		<path fill="#263238" d="M-25.599,67.701c-0.002,0.341-0.312,0.65-0.652,0.65c-0.345,0.003-0.648-0.304-0.648-0.652
			c0-0.354,0.293-0.646,0.648-0.646C-25.9,67.052-25.599,67.352-25.599,67.701z"/>
	</g>
</g>
</svg>
