<?xml version="1.0" encoding="utf-8"?>
<!-- Generator: Adobe Illustrator 16.0.3, SVG Export Plug-In . SVG Version: 6.00 Build 0)  -->
<!DOCTYPE svg PUBLIC "-//W3C//DTD SVG 1.1//EN" "http://www.w3.org/Graphics/SVG/1.1/DTD/svg11.dtd">
<svg version="1.1" id="Layer_1" xmlns="http://www.w3.org/2000/svg" xmlns:xlink="http://www.w3.org/1999/xlink" x="0px" y="0px"
	 width="257.261px" height="50px" viewBox="-59.665 49.458 257.261 50" enable-background="new -59.665 49.458 257.261 50"
	 xml:space="preserve">
<g>
	<path fill="#F3726A" d="M117.014,1754.814c-0.445,0-0.885-0.037-1.313-0.111l1.313,3.104l1.315-3.104
		C117.898,1754.777,117.459,1754.814,117.014,1754.814z"/>
	<path fill="#F3726A" d="M134.908,1758.674c-1.596,0-2.895,1.297-2.895,2.893c0,1.598,1.299,2.896,2.895,2.896
		s2.895-1.299,2.895-2.896C137.803,1759.971,136.504,1758.674,134.908,1758.674z M134.908,1762.531
		c-0.533,0-0.965-0.434-0.965-0.965c0-0.533,0.432-0.965,0.965-0.965s0.965,0.432,0.965,0.965
		C135.873,1762.099,135.441,1762.531,134.908,1762.531z"/>
	<path fill="#F3726A" d="M123.268,1725.057c-13.808,0-25,11.191-25,25c0,13.807,11.192,25,25,25c13.809,0,25-11.193,25-25
		C148.268,1736.248,137.074,1725.057,123.268,1725.057z M134.908,1766.392c-2.66,0-4.824-2.163-4.824-4.823
		c0-2.328,1.66-4.277,3.859-4.729v-2.282c0-1.985-1.615-3.601-3.604-3.601c-1.984,0-3.604,1.613-3.604,3.601v6.616
		c0,2.947-2.396,5.345-5.346,5.345c-2.947,0-5.346-2.396-5.346-5.345v-0.696l-2.813-6.642c-0.313-0.174-0.619-0.371-0.91-0.592
		c-1.362-1.025-2.329-2.438-2.799-4.076l-2.562-8.96c-0.362-1.274-0.112-2.61,0.685-3.666c0.797-1.058,2.014-1.663,3.336-1.663
		h0.562v-0.321c0-0.532,0.433-0.965,0.965-0.965c0.533,0,0.966,0.433,0.966,0.965v2.571c0,0.533-0.433,0.965-0.966,0.965
		c-0.532,0-0.965-0.432-0.965-0.965v-0.321h-0.562c-0.711,0-1.366,0.327-1.797,0.896c-0.43,0.566-0.563,1.29-0.367,1.975
		l2.562,8.961c0.716,2.5,3.029,4.246,5.632,4.246c2.6,0,4.916-1.746,5.631-4.246l2.562-8.962c0.194-0.685,0.062-1.405-0.368-1.974
		c-0.429-0.569-1.083-0.896-1.797-0.896h-0.561v0.321c0,0.533-0.434,0.965-0.965,0.965c-0.533,0-0.966-0.432-0.966-0.965v-2.571
		c0-0.532,0.433-0.965,0.966-0.965c0.531,0,0.965,0.433,0.965,0.965v0.321h0.561c1.322,0,2.54,0.605,3.337,1.663
		c0.798,1.056,1.046,2.392,0.685,3.666l-2.562,8.96c-0.47,1.641-1.438,3.051-2.799,4.076c-0.291,0.221-0.597,0.418-0.909,0.592
		l-2.813,6.642v0.696c0,1.884,1.531,3.416,3.416,3.416s3.418-1.532,3.418-3.416v-6.616c0-3.049,2.479-5.528,5.528-5.528
		c3.052,0,5.531,2.479,5.531,5.528v2.282c2.198,0.449,3.856,2.398,3.856,4.729C139.73,1764.229,137.566,1766.392,134.908,1766.392z"
		/>
</g>
<g>
	<path fill="#F3726A" d="M117.014,1754.814c-0.445,0-0.885-0.037-1.313-0.111l1.313,3.104l1.315-3.104
		C117.898,1754.777,117.459,1754.814,117.014,1754.814z"/>
	<path fill="#F3726A" d="M134.908,1758.674c-1.596,0-2.895,1.297-2.895,2.893c0,1.598,1.299,2.896,2.895,2.896
		s2.895-1.299,2.895-2.896C137.803,1759.971,136.504,1758.674,134.908,1758.674z M134.908,1762.531
		c-0.533,0-0.965-0.434-0.965-0.965c0-0.533,0.432-0.965,0.965-0.965s0.965,0.432,0.965,0.965
		C135.873,1762.099,135.441,1762.531,134.908,1762.531z"/>
	<path fill="#F3726A" d="M123.268,1725.057c-13.808,0-25,11.191-25,25c0,13.807,11.192,25,25,25c13.809,0,25-11.193,25-25
		C148.268,1736.248,137.074,1725.057,123.268,1725.057z M134.908,1766.392c-2.66,0-4.824-2.163-4.824-4.823
		c0-2.328,1.66-4.277,3.859-4.729v-2.282c0-1.985-1.615-3.601-3.604-3.601c-1.984,0-3.604,1.613-3.604,3.601v6.616
		c0,2.947-2.396,5.345-5.346,5.345c-2.947,0-5.346-2.396-5.346-5.345v-0.696l-2.813-6.642c-0.313-0.174-0.619-0.371-0.91-0.592
		c-1.362-1.025-2.329-2.438-2.799-4.076l-2.562-8.96c-0.362-1.274-0.112-2.61,0.685-3.666c0.797-1.058,2.014-1.663,3.336-1.663
		h0.562v-0.321c0-0.532,0.433-0.965,0.965-0.965c0.533,0,0.966,0.433,0.966,0.965v2.571c0,0.533-0.433,0.965-0.966,0.965
		c-0.532,0-0.965-0.432-0.965-0.965v-0.321h-0.562c-0.711,0-1.366,0.327-1.797,0.896c-0.43,0.566-0.563,1.29-0.367,1.975
		l2.562,8.961c0.716,2.5,3.029,4.246,5.632,4.246c2.6,0,4.916-1.746,5.631-4.246l2.562-8.962c0.194-0.685,0.062-1.405-0.368-1.974
		c-0.429-0.569-1.083-0.896-1.797-0.896h-0.561v0.321c0,0.533-0.434,0.965-0.965,0.965c-0.533,0-0.966-0.432-0.966-0.965v-2.571
		c0-0.532,0.433-0.965,0.966-0.965c0.531,0,0.965,0.433,0.965,0.965v0.321h0.561c1.322,0,2.54,0.605,3.337,1.663
		c0.798,1.056,1.046,2.392,0.685,3.666l-2.562,8.96c-0.47,1.641-1.438,3.051-2.799,4.076c-0.291,0.221-0.597,0.418-0.909,0.592
		l-2.813,6.642v0.696c0,1.884,1.531,3.416,3.416,3.416s3.418-1.532,3.418-3.416v-6.616c0-3.049,2.479-5.528,5.528-5.528
		c3.052,0,5.531,2.479,5.531,5.528v2.282c2.198,0.449,3.856,2.398,3.856,4.729C139.73,1764.229,137.566,1766.392,134.908,1766.392z"
		/>
</g>
<g>
	<g>
		<path fill="#F3726A" d="M197.596,91.595c0,4.345-3.521,7.864-7.865,7.864H-51.801c-4.342,0-7.864-3.52-7.864-7.864V57.32
			c0-4.343,3.522-7.861,7.864-7.861H189.73c4.345,0,7.865,3.518,7.865,7.861V91.595L197.596,91.595z"/>
	</g>
	<g>
		<g>
			<path fill="#FFFFFF" d="M7.739,72.758c0,3.767-2.29,5.764-5.083,5.764c-2.89,0-4.919-2.24-4.919-5.553
				c0-3.476,2.159-5.749,5.082-5.749C5.807,67.221,7.739,69.511,7.739,72.758z M-0.754,72.936c0,2.338,1.266,4.432,3.492,4.432
				c2.241,0,3.507-2.062,3.507-4.546c0-2.175-1.136-4.449-3.492-4.449C0.416,68.374-0.754,70.533-0.754,72.936z"/>
			<path fill="#FFFFFF" d="M15.18,78.05c-0.374,0.196-1.2,0.456-2.257,0.456c-2.371,0-3.913-1.608-3.913-4.01
				c0-2.419,1.656-4.174,4.222-4.174c0.845,0,1.591,0.211,1.981,0.406l-0.325,1.104c-0.341-0.195-0.876-0.372-1.656-0.372
				c-1.803,0-2.776,1.331-2.776,2.97c0,1.82,1.169,2.939,2.729,2.939c0.812,0,1.348-0.209,1.753-0.389L15.18,78.05z"/>
			<path fill="#FFFFFF" d="M22.426,70.484v1.136h-2.452v6.722h-1.412V71.62H16.11v-1.136H22.426z"/>
			<path fill="#FFFFFF" d="M23.68,73.05c0-1.007-0.032-1.818-0.065-2.565h1.283l0.064,1.347h0.033
				c0.585-0.958,1.51-1.526,2.793-1.526c1.9,0,3.329,1.607,3.329,3.994c0,2.825-1.721,4.221-3.573,4.221
				c-1.04,0-1.948-0.455-2.419-1.233h-0.033v4.271H23.68V73.05z M25.093,75.144c0,0.211,0.032,0.407,0.065,0.585
				c0.26,0.99,1.121,1.673,2.143,1.673c1.511,0,2.387-1.235,2.387-3.037c0-1.574-0.829-2.923-2.338-2.923
				c-0.975,0-1.883,0.699-2.16,1.77c-0.048,0.179-0.097,0.39-0.097,0.585V75.144z"/>
			<path fill="#FFFFFF" d="M34.304,70.484v2.679c0.309-0.065,0.762-0.097,1.282-0.097c1.69,0,3.394,0.698,3.394,2.63
				c0,0.828-0.309,1.396-0.813,1.819c-0.861,0.73-2.126,0.91-3.167,0.91c-0.794,0-1.525-0.051-2.111-0.114v-7.826h1.414V70.484z
				 M34.304,77.354c0.276,0.032,0.585,0.063,0.99,0.063c1.088,0,2.272-0.455,2.272-1.671c0-1.268-1.135-1.656-2.208-1.656
				c-0.407,0-0.762,0.033-1.055,0.082V77.354z M41.383,70.484v7.859h-1.412v-7.859H41.383z"/>
			<path fill="#FFFFFF" d="M45.042,70.484v3.311c0,1.251-0.016,2.031-0.082,3.151l0.049,0.017c0.471-0.957,0.746-1.51,1.266-2.42
				l2.452-4.059h1.671v7.859h-1.363v-3.328c0-1.284,0.032-1.948,0.097-3.215h-0.049c-0.503,1.008-0.845,1.64-1.298,2.436
				c-0.747,1.217-1.608,2.727-2.452,4.108h-1.639v-7.859H45.042z M45.968,67.287c0.049,0.698,0.39,1.235,1.04,1.235
				c0.699,0,1.022-0.52,1.104-1.235h1.022c-0.065,1.331-0.908,2.013-2.159,2.013c-1.43,0-1.981-0.894-2.046-2.013H45.968z"/>
			<path fill="#FFFFFF" d="M60.522,78.344l-0.114-0.989H60.36c-0.438,0.616-1.282,1.167-2.403,1.167
				c-1.59,0-2.403-1.119-2.403-2.257c0-1.899,1.688-2.938,4.724-2.923V73.18c0-0.648-0.178-1.819-1.785-1.819
				c-0.731,0-1.493,0.228-2.045,0.585l-0.325-0.94c0.65-0.422,1.592-0.699,2.582-0.699c2.403,0,2.987,1.639,2.987,3.215v2.938
				c0,0.682,0.033,1.346,0.13,1.884L60.522,78.344L60.522,78.344z M60.311,74.333c-1.558-0.033-3.329,0.243-3.329,1.769
				c0,0.927,0.617,1.365,1.349,1.365c1.022,0,1.672-0.648,1.9-1.316c0.048-0.146,0.081-0.309,0.081-0.455V74.333z"/>
			<path fill="#FFFFFF" d="M70.462,70.484v7.859h-1.428v-6.723H65.38v6.723h-1.412v-7.859H70.462z"/>
			<path fill="#FFFFFF" d="M79.251,70.484v7.859h-1.429v-6.723H74.17v6.723h-1.412v-7.859H79.251z"/>
			<path fill="#FFFFFF" d="M82.373,74.675c0.032,1.932,1.267,2.728,2.694,2.728c1.025,0,1.64-0.18,2.177-0.407l0.243,1.023
				c-0.503,0.228-1.364,0.487-2.614,0.487c-2.418,0-3.864-1.593-3.864-3.963s1.396-4.237,3.688-4.237
				c2.566,0,3.246,2.257,3.246,3.701c0,0.292-0.032,0.52-0.048,0.667h-5.521V74.675z M86.563,73.651
				c0.018-0.909-0.374-2.322-1.98-2.322c-1.444,0-2.078,1.331-2.191,2.322H86.563z"/>
			<path fill="#FFFFFF" d="M91.097,70.484v3.165h3.736v-3.165h1.413v7.859h-1.413v-3.555h-3.736v3.555h-1.412v-7.859H91.097z"/>
			<path fill="#FFFFFF" d="M104.677,70.484v6.788l0.812,0.016l-0.08,3.556h-1.12l-0.066-2.5h-5.438l-0.066,2.5h-1.121l-0.063-3.556
				l0.666-0.016c0.342-0.505,0.6-1.039,0.777-1.608c0.31-0.975,0.455-2.029,0.455-3.132v-2.046h5.246V70.484z M100.697,72.871
				c0,1.04-0.144,2.045-0.404,2.923c-0.164,0.536-0.392,1.023-0.635,1.46h3.622v-5.682h-2.583V72.871z"/>
			<path fill="#FFFFFF" d="M108.514,70.484v3.311c0,1.251-0.018,2.031-0.082,3.151l0.048,0.017c0.472-0.957,0.748-1.51,1.268-2.42
				l2.452-4.059h1.672v7.859h-1.365v-3.328c0-1.284,0.032-1.948,0.099-3.215h-0.049c-0.503,1.008-0.844,1.64-1.299,2.436
				c-0.747,1.217-1.609,2.727-2.452,4.108h-1.64v-7.859H108.514z"/>
			<path fill="#FFFFFF" d="M117.578,70.484v6.738h3.621v-6.738h1.413v6.788l0.812,0.016l-0.082,3.556h-1.103l-0.065-2.5h-6.008
				v-7.859H117.578z"/>
			<path fill="#FFFFFF" d="M126.447,70.484v3.311c0,1.251-0.016,2.031-0.08,3.151l0.048,0.017c0.472-0.957,0.748-1.51,1.268-2.42
				l2.452-4.059h1.671v7.859h-1.364v-3.328c0-1.284,0.032-1.948,0.098-3.215h-0.049c-0.502,1.008-0.843,1.64-1.298,2.436
				c-0.747,1.217-1.609,2.727-2.452,4.108h-1.64v-7.859H126.447z"/>
			<path fill="#FFFFFF" d="M139.395,70.484v1.136h-2.453v6.722h-1.412V71.62h-2.454v-1.136H139.395z"/>
		</g>
	</g>
</g>
</svg>
