<?xml version="1.0" encoding="utf-8"?>
<!-- Generator: Adobe Illustrator 16.0.3, SVG Export Plug-In . SVG Version: 6.00 Build 0)  -->
<!DOCTYPE svg PUBLIC "-//W3C//DTD SVG 1.1//EN" "http://www.w3.org/Graphics/SVG/1.1/DTD/svg11.dtd">
<svg version="1.1" id="Layer_1" xmlns="http://www.w3.org/2000/svg" xmlns:xlink="http://www.w3.org/1999/xlink" x="0px" y="0px"
	 width="257.245px" height="50px" viewBox="-56.324 41.625 257.245 50" enable-background="new -56.324 41.625 257.245 50"
	 xml:space="preserve">
<g>
	<path fill="#F3726A" d="M117.014,1754.814c-0.445,0-0.885-0.037-1.313-0.111l1.313,3.104l1.315-3.104
		C117.898,1754.777,117.459,1754.814,117.014,1754.814z"/>
	<path fill="#F3726A" d="M134.908,1758.674c-1.596,0-2.895,1.297-2.895,2.893c0,1.598,1.299,2.896,2.895,2.896
		s2.895-1.299,2.895-2.896C137.803,1759.971,136.504,1758.674,134.908,1758.674z M134.908,1762.531
		c-0.533,0-0.965-0.434-0.965-0.965c0-0.533,0.432-0.965,0.965-0.965s0.965,0.432,0.965,0.965
		C135.873,1762.099,135.441,1762.531,134.908,1762.531z"/>
	<path fill="#F3726A" d="M123.268,1725.057c-13.808,0-25,11.191-25,25c0,13.807,11.192,25,25,25c13.809,0,25-11.193,25-25
		C148.268,1736.248,137.074,1725.057,123.268,1725.057z M134.908,1766.392c-2.66,0-4.824-2.163-4.824-4.823
		c0-2.328,1.66-4.277,3.859-4.729v-2.282c0-1.985-1.615-3.601-3.604-3.601c-1.984,0-3.604,1.613-3.604,3.601v6.616
		c0,2.947-2.396,5.345-5.346,5.345c-2.947,0-5.346-2.396-5.346-5.345v-0.696l-2.813-6.642c-0.313-0.174-0.619-0.371-0.91-0.592
		c-1.362-1.025-2.329-2.438-2.799-4.076l-2.562-8.96c-0.362-1.274-0.112-2.61,0.685-3.666c0.797-1.058,2.014-1.663,3.336-1.663
		h0.562v-0.321c0-0.532,0.433-0.965,0.965-0.965c0.533,0,0.966,0.433,0.966,0.965v2.571c0,0.533-0.433,0.965-0.966,0.965
		c-0.532,0-0.965-0.432-0.965-0.965v-0.321h-0.562c-0.711,0-1.366,0.327-1.797,0.896c-0.43,0.566-0.563,1.29-0.367,1.975
		l2.562,8.961c0.716,2.5,3.029,4.246,5.632,4.246c2.6,0,4.916-1.746,5.631-4.246l2.562-8.962c0.194-0.685,0.062-1.405-0.368-1.974
		c-0.429-0.569-1.083-0.896-1.797-0.896h-0.561v0.321c0,0.533-0.434,0.965-0.965,0.965c-0.533,0-0.966-0.432-0.966-0.965v-2.571
		c0-0.532,0.433-0.965,0.966-0.965c0.531,0,0.965,0.433,0.965,0.965v0.321h0.561c1.322,0,2.54,0.605,3.337,1.663
		c0.798,1.056,1.046,2.392,0.685,3.666l-2.562,8.96c-0.47,1.641-1.438,3.051-2.799,4.076c-0.291,0.221-0.597,0.418-0.909,0.592
		l-2.813,6.642v0.696c0,1.884,1.531,3.416,3.416,3.416s3.418-1.532,3.418-3.416v-6.616c0-3.049,2.479-5.528,5.528-5.528
		c3.052,0,5.531,2.479,5.531,5.528v2.282c2.198,0.449,3.856,2.398,3.856,4.729C139.73,1764.229,137.566,1766.392,134.908,1766.392z"
		/>
</g>
<g>
	<path fill="#F3726A" d="M117.014,1754.814c-0.445,0-0.885-0.037-1.313-0.111l1.313,3.104l1.315-3.104
		C117.898,1754.777,117.459,1754.814,117.014,1754.814z"/>
	<path fill="#F3726A" d="M134.908,1758.674c-1.596,0-2.895,1.297-2.895,2.893c0,1.598,1.299,2.896,2.895,2.896
		s2.895-1.299,2.895-2.896C137.803,1759.971,136.504,1758.674,134.908,1758.674z M134.908,1762.531
		c-0.533,0-0.965-0.434-0.965-0.965c0-0.533,0.432-0.965,0.965-0.965s0.965,0.432,0.965,0.965
		C135.873,1762.099,135.441,1762.531,134.908,1762.531z"/>
	<path fill="#F3726A" d="M123.268,1725.057c-13.808,0-25,11.191-25,25c0,13.807,11.192,25,25,25c13.809,0,25-11.193,25-25
		C148.268,1736.248,137.074,1725.057,123.268,1725.057z M134.908,1766.392c-2.66,0-4.824-2.163-4.824-4.823
		c0-2.328,1.66-4.277,3.859-4.729v-2.282c0-1.985-1.615-3.601-3.604-3.601c-1.984,0-3.604,1.613-3.604,3.601v6.616
		c0,2.947-2.396,5.345-5.346,5.345c-2.947,0-5.346-2.396-5.346-5.345v-0.696l-2.813-6.642c-0.313-0.174-0.619-0.371-0.91-0.592
		c-1.362-1.025-2.329-2.438-2.799-4.076l-2.562-8.96c-0.362-1.274-0.112-2.61,0.685-3.666c0.797-1.058,2.014-1.663,3.336-1.663
		h0.562v-0.321c0-0.532,0.433-0.965,0.965-0.965c0.533,0,0.966,0.433,0.966,0.965v2.571c0,0.533-0.433,0.965-0.966,0.965
		c-0.532,0-0.965-0.432-0.965-0.965v-0.321h-0.562c-0.711,0-1.366,0.327-1.797,0.896c-0.43,0.566-0.563,1.29-0.367,1.975
		l2.562,8.961c0.716,2.5,3.029,4.246,5.632,4.246c2.6,0,4.916-1.746,5.631-4.246l2.562-8.962c0.194-0.685,0.062-1.405-0.368-1.974
		c-0.429-0.569-1.083-0.896-1.797-0.896h-0.561v0.321c0,0.533-0.434,0.965-0.965,0.965c-0.533,0-0.966-0.432-0.966-0.965v-2.571
		c0-0.532,0.433-0.965,0.966-0.965c0.531,0,0.965,0.433,0.965,0.965v0.321h0.561c1.322,0,2.54,0.605,3.337,1.663
		c0.798,1.056,1.046,2.392,0.685,3.666l-2.562,8.96c-0.47,1.641-1.438,3.051-2.799,4.076c-0.291,0.221-0.597,0.418-0.909,0.592
		l-2.813,6.642v0.696c0,1.884,1.531,3.416,3.416,3.416s3.418-1.532,3.418-3.416v-6.616c0-3.049,2.479-5.528,5.528-5.528
		c3.052,0,5.531,2.479,5.531,5.528v2.282c2.198,0.449,3.856,2.398,3.856,4.729C139.73,1764.229,137.566,1766.392,134.908,1766.392z"
		/>
</g>
<g>
	<g>
		<g>
			<path fill="#F3726A" d="M200.921,83.761c0,4.345-3.52,7.864-7.863,7.864H-48.46c-4.344,0-7.864-3.52-7.864-7.864V49.485
				c0-4.342,3.52-7.861,7.864-7.861h241.518c4.344,0,7.863,3.519,7.863,7.861V83.761z"/>
		</g>
		<g>
			<g>
				<path fill="#FFFFFF" d="M54.763,55.674c0,3.767-2.29,5.764-5.083,5.764c-2.89,0-4.919-2.24-4.919-5.553
					c0-3.475,2.16-5.748,5.082-5.748C52.83,50.136,54.763,52.425,54.763,55.674z M46.271,55.852c0,2.338,1.266,4.432,3.49,4.432
					c2.241,0,3.508-2.062,3.508-4.546c0-2.175-1.136-4.449-3.491-4.449C47.44,51.29,46.271,53.449,46.271,55.852z"/>
				<path fill="#FFFFFF" d="M63.017,53.4v7.859h-1.429v-6.722h-3.653v6.722h-1.412V53.4H63.017z"/>
				<path fill="#FFFFFF" d="M65.343,55.966c0-1.007-0.033-1.818-0.065-2.565h1.282l0.064,1.347h0.033
					c0.585-0.958,1.51-1.526,2.792-1.526c1.9,0,3.329,1.607,3.329,3.993c0,2.825-1.721,4.221-3.572,4.221
					c-1.04,0-1.948-0.455-2.419-1.234h-0.032v4.271h-1.412V55.966z M66.756,58.06c0,0.211,0.032,0.406,0.065,0.585
					c0.26,0.991,1.121,1.671,2.143,1.671c1.51,0,2.387-1.233,2.387-3.036c0-1.574-0.828-2.923-2.338-2.923
					c-0.975,0-1.883,0.699-2.16,1.77c-0.049,0.179-0.097,0.39-0.097,0.584V58.06z"/>
				<path fill="#FFFFFF" d="M75.382,57.589c0.033,1.931,1.267,2.727,2.694,2.727c1.023,0,1.64-0.178,2.176-0.406l0.243,1.023
					c-0.502,0.227-1.364,0.488-2.614,0.488c-2.419,0-3.864-1.593-3.864-3.963c0-2.371,1.397-4.237,3.686-4.237
					c2.565,0,3.247,2.257,3.247,3.701c0,0.292-0.033,0.52-0.05,0.667H75.382z M79.57,56.565c0.016-0.908-0.373-2.322-1.98-2.322
					c-1.445,0-2.08,1.331-2.193,2.322H79.57z"/>
				<path fill="#FFFFFF" d="M88.861,53.4v6.787l0.812,0.016l-0.082,3.555h-1.119l-0.065-2.5h-5.438l-0.064,2.5h-1.12l-0.066-3.555
					l0.667-0.016c0.341-0.504,0.6-1.04,0.779-1.608c0.307-0.975,0.454-2.029,0.454-3.132V53.4H88.861L88.861,53.4z M84.885,55.787
					c0,1.04-0.148,2.045-0.407,2.922c-0.163,0.536-0.389,1.023-0.634,1.461h3.621v-5.683h-2.58V55.787z"/>
				<path fill="#FFFFFF" d="M92.113,57.589c0.032,1.931,1.268,2.727,2.697,2.727c1.021,0,1.639-0.178,2.173-0.406l0.243,1.023
					c-0.502,0.227-1.362,0.488-2.613,0.488c-2.419,0-3.864-1.593-3.864-3.963c0-2.371,1.396-4.237,3.686-4.237
					c2.566,0,3.247,2.257,3.247,3.701c0,0.292-0.031,0.52-0.048,0.667H92.113z M96.302,56.565c0.017-0.908-0.373-2.322-1.98-2.322
					c-1.445,0-2.078,1.331-2.192,2.322H96.302z"/>
				<path fill="#FFFFFF" d="M105.432,53.4v7.859h-1.415v-6.738h-2.694v2.045c0,2.208-0.21,3.687-1.233,4.352
					c-0.39,0.309-0.827,0.487-1.559,0.487l-0.146-1.121c0.275-0.049,0.586-0.163,0.78-0.325c0.729-0.536,0.812-1.639,0.812-3.394
					V53.4H105.432z"/>
				<path fill="#FFFFFF" d="M108.568,57.589c0.033,1.931,1.268,2.727,2.695,2.727c1.023,0,1.64-0.178,2.177-0.406l0.243,1.023
					c-0.504,0.227-1.364,0.488-2.615,0.488c-2.419,0-3.863-1.593-3.863-3.963c0-2.371,1.396-4.237,3.687-4.237
					c2.565,0,3.247,2.257,3.247,3.701c0,0.292-0.032,0.52-0.05,0.667H108.568z M112.758,56.565c0.016-0.908-0.373-2.322-1.98-2.322
					c-1.443,0-2.078,1.331-2.191,2.322H112.758z"/>
				<path fill="#FFFFFF" d="M117.291,53.4v3.165h3.735V53.4h1.413v7.859h-1.413v-3.555h-3.735v3.555h-1.412V53.4H117.291z"/>
				<path fill="#FFFFFF" d="M126.096,53.4v3.311c0,1.251-0.017,2.031-0.08,3.15l0.047,0.017c0.471-0.958,0.748-1.51,1.269-2.419
					l2.452-4.059h1.671v7.859h-1.364v-3.328c0-1.284,0.031-1.948,0.098-3.215h-0.05c-0.503,1.007-0.844,1.64-1.299,2.435
					c-0.745,1.217-1.607,2.728-2.452,4.108h-1.64V53.4H126.096z"/>
				<path fill="#FFFFFF" d="M134.576,57.589c0.033,1.931,1.267,2.727,2.696,2.727c1.022,0,1.639-0.178,2.175-0.406l0.244,1.023
					c-0.504,0.227-1.365,0.488-2.613,0.488c-2.42,0-3.864-1.593-3.864-3.963c0-2.371,1.396-4.237,3.687-4.237
					c2.565,0,3.246,2.257,3.246,3.701c0,0.292-0.033,0.52-0.049,0.667H134.576z M138.765,56.565c0.018-0.908-0.373-2.322-1.98-2.322
					c-1.443,0-2.078,1.331-2.191,2.322H138.765z"/>
				<path fill="#FFFFFF" d="M27.211,80.396c-0.52,0.259-1.559,0.521-2.891,0.521c-3.084,0-5.407-1.947-5.407-5.537
					c0-3.424,2.322-5.747,5.716-5.747c1.365,0,2.224,0.292,2.598,0.487l-0.341,1.154c-0.536-0.26-1.298-0.455-2.208-0.455
					c-2.565,0-4.27,1.639-4.27,4.514c0,2.679,1.542,4.4,4.205,4.4c0.861,0,1.736-0.179,2.305-0.454L27.211,80.396z"/>
				<path fill="#FFFFFF" d="M32.25,75.833v1.055h-4.01v-1.055H32.25z"/>
				<path fill="#FFFFFF" d="M33.925,75.459c0-1.005-0.032-1.818-0.065-2.565h1.282l0.065,1.347h0.032
					c0.585-0.957,1.51-1.525,2.793-1.525c1.9,0,3.329,1.608,3.329,3.994c0,2.825-1.72,4.222-3.572,4.222
					c-1.04,0-1.948-0.454-2.419-1.234h-0.032v4.271h-1.412V75.459z M35.337,77.556c0,0.21,0.032,0.406,0.064,0.584
					c0.26,0.989,1.121,1.673,2.143,1.673c1.511,0,2.387-1.235,2.387-3.037c0-1.574-0.829-2.923-2.338-2.923
					c-0.975,0-1.883,0.7-2.159,1.771c-0.049,0.179-0.097,0.391-0.097,0.585V77.556z"/>
				<path fill="#FFFFFF" d="M43.964,77.083c0.032,1.932,1.266,2.728,2.695,2.728c1.022,0,1.639-0.177,2.175-0.404l0.244,1.021
					c-0.504,0.228-1.363,0.489-2.614,0.489c-2.419,0-3.864-1.593-3.864-3.963c0-2.371,1.397-4.237,3.687-4.237
					c2.565,0,3.248,2.256,3.248,3.701c0,0.293-0.033,0.52-0.049,0.665L43.964,77.083L43.964,77.083z M48.152,76.062
					c0.017-0.911-0.374-2.324-1.98-2.324c-1.444,0-2.078,1.332-2.192,2.324H48.152z"/>
				<path fill="#FFFFFF" d="M55.657,80.752l-0.113-0.987h-0.048c-0.439,0.616-1.282,1.167-2.403,1.167
					c-1.591,0-2.403-1.119-2.403-2.258c0-1.898,1.688-2.937,4.725-2.922v-0.161c0-0.649-0.179-1.819-1.786-1.819
					c-0.731,0-1.494,0.227-2.045,0.585l-0.325-0.941c0.65-0.422,1.591-0.699,2.582-0.699c2.403,0,2.988,1.64,2.988,3.214v2.939
					c0,0.682,0.032,1.348,0.129,1.882H55.657L55.657,80.752z M55.447,76.743c-1.558-0.032-3.328,0.243-3.328,1.77
					c0,0.926,0.617,1.364,1.349,1.364c1.021,0,1.671-0.65,1.899-1.316c0.049-0.145,0.081-0.309,0.081-0.454L55.447,76.743
					L55.447,76.743z"/>
				<path fill="#FFFFFF" d="M60.549,72.894v3.411h0.341l2.955-3.411h1.737l-3.425,3.555c1.267,0.132,2.029,0.975,2.646,2.389
					c0.211,0.519,0.487,1.281,0.845,1.914h-1.494c-0.212-0.341-0.488-0.957-0.731-1.608c-0.536-1.266-1.267-1.851-2.598-1.851
					h-0.276v3.457h-1.412v-7.857L60.549,72.894L60.549,72.894z"/>
				<path fill="#FFFFFF" d="M72.502,72.894v1.138h-2.452v6.72h-1.412v-6.72h-2.452v-1.138H72.502z"/>
				<path fill="#FFFFFF" d="M75.072,72.894v3.312c0,1.25-0.017,2.029-0.081,3.15l0.048,0.016c0.471-0.957,0.746-1.51,1.266-2.419
					l2.451-4.059h1.674v7.858h-1.366v-3.328c0-1.282,0.033-1.946,0.098-3.213h-0.047c-0.505,1.006-0.847,1.639-1.3,2.435
					c-0.748,1.217-1.608,2.727-2.452,4.106h-1.639v-7.856h1.348V72.894z"/>
				<path fill="#FFFFFF" d="M82.725,72.993c0.551-0.098,1.574-0.18,2.501-0.18c1.314,0,3.489,0.211,3.489,1.964
					c0,0.975-0.747,1.576-1.64,1.771v0.033c1.154,0.162,1.997,0.812,1.997,1.946c0,2.063-2.599,2.321-4.14,2.321
					c-0.878,0-1.785-0.063-2.208-0.097V72.993z M84.071,79.811c0.406,0.051,0.699,0.066,1.154,0.066
					c0.957,0,2.385-0.228,2.385-1.364c0-1.136-1.137-1.382-2.498-1.382h-1.041V79.811z M84.088,76.19h1.071
					c1.056,0,2.144-0.309,2.144-1.233c0-0.779-0.683-1.153-2.111-1.153c-0.471,0-0.763,0.031-1.104,0.065V76.19z"/>
				<path fill="#FFFFFF" d="M92.259,72.894v3.167h3.736v-3.167h1.412v7.858h-1.412v-3.556h-3.736v3.556h-1.412v-7.858H92.259z"/>
				<path fill="#FFFFFF" d="M106.859,76.759c0,2.907-2.014,4.173-3.913,4.173c-2.127,0-3.768-1.559-3.768-4.042
					c0-2.629,1.721-4.173,3.896-4.173C105.332,72.717,106.859,74.355,106.859,76.759z M100.625,76.839
					c0,1.721,0.989,3.022,2.387,3.022c1.364,0,2.387-1.285,2.387-3.054c0-1.33-0.665-3.02-2.352-3.02
					C101.354,73.788,100.625,75.346,100.625,76.839z"/>
				<path fill="#FFFFFF" d="M113.457,72.894v1.154h-3.412v6.704h-1.409v-7.856h4.821V72.894z"/>
				<path fill="#FFFFFF" d="M121.708,76.759c0,2.907-2.012,4.173-3.913,4.173c-2.127,0-3.767-1.559-3.767-4.042
					c0-2.629,1.72-4.173,3.896-4.173C120.181,72.717,121.708,74.355,121.708,76.759z M115.474,76.839
					c0,1.721,0.988,3.022,2.386,3.022c1.364,0,2.387-1.285,2.387-3.054c0-1.33-0.664-3.02-2.354-3.02S115.474,75.346,115.474,76.839
					z"/>
				<path fill="#FFFFFF" d="M132.9,70.233c-0.407,0.145-1.121,0.276-1.64,0.357c-1.268,0.195-2.191,0.617-2.793,1.478
					c-0.504,0.713-0.796,1.77-0.861,2.598h0.048c0.503-1.137,1.607-1.771,2.729-1.771c1.932,0,3.345,1.381,3.345,3.88
					c0,2.564-1.33,4.156-3.638,4.156c-2.759,0-3.67-2.646-3.67-5.259c0-1.786,0.375-3.247,1.219-4.352
					c0.763-1.088,1.85-1.591,3.376-1.85c0.635-0.098,1.412-0.227,1.949-0.424L132.9,70.233z M130.092,73.951
					c-0.845,0-1.444,0.438-1.771,1.072c-0.258,0.471-0.389,1.04-0.389,1.672c0,1.298,0.633,3.167,2.192,3.167
					c1.576,0,2.16-1.527,2.16-2.974C132.284,75.605,131.779,73.951,130.092,73.951z"/>
				<path fill="#FFFFFF" d="M136.332,77.083c0.032,1.932,1.267,2.728,2.694,2.728c1.023,0,1.64-0.177,2.176-0.404l0.243,1.021
					c-0.503,0.228-1.364,0.489-2.614,0.489c-2.418,0-3.863-1.593-3.863-3.963c0-2.371,1.396-4.237,3.686-4.237
					c2.566,0,3.247,2.256,3.247,3.701c0,0.293-0.031,0.52-0.049,0.665L136.332,77.083L136.332,77.083z M140.521,76.062
					c0.016-0.911-0.374-2.324-1.98-2.324c-1.445,0-2.078,1.332-2.192,2.324H140.521z"/>
				<path fill="#FFFFFF" d="M149.65,72.894v7.858h-1.415v-6.738h-2.694v2.047c0,2.207-0.21,3.686-1.233,4.35
					c-0.39,0.31-0.827,0.488-1.559,0.488l-0.146-1.121c0.275-0.05,0.586-0.163,0.78-0.324c0.729-0.537,0.812-1.64,0.812-3.393
					v-3.167H149.65L149.65,72.894z"/>
				<path fill="#FFFFFF" d="M153.403,72.894v3.411h0.341l2.955-3.411h1.737l-3.424,3.555c1.266,0.132,2.027,0.975,2.646,2.389
					c0.209,0.519,0.485,1.281,0.843,1.914h-1.495c-0.21-0.341-0.484-0.957-0.729-1.608c-0.535-1.266-1.268-1.851-2.598-1.851h-0.276
					v3.457h-1.412v-7.857L153.403,72.894L153.403,72.894z"/>
				<path fill="#FFFFFF" d="M164.286,80.752l-0.113-0.987h-0.049c-0.437,0.616-1.283,1.167-2.403,1.167
					c-1.59,0-2.401-1.119-2.401-2.258c0-1.898,1.688-2.937,4.725-2.922v-0.161c0-0.649-0.18-1.819-1.786-1.819
					c-0.73,0-1.495,0.227-2.047,0.585l-0.323-0.941c0.648-0.422,1.591-0.699,2.581-0.699c2.403,0,2.987,1.64,2.987,3.214v2.939
					c0,0.682,0.032,1.348,0.13,1.882H164.286L164.286,80.752z M164.075,76.743c-1.56-0.032-3.328,0.243-3.328,1.77
					c0,0.926,0.616,1.364,1.348,1.364c1.024,0,1.672-0.65,1.899-1.316c0.048-0.145,0.081-0.309,0.081-0.454V76.743z"/>
			</g>
		</g>
	</g>
	<g>
		<path fill="#263238" d="M-27.093,76.638c-0.706,0.332-2.291,0.686-4.356,0.686c-5.867,0-8.887-3.426-8.887-7.963
			c0-5.436,4.128-8.459,9.266-8.459c1.99,0,3.5,0.377,4.18,0.708l-0.78,2.86c-0.78-0.309-1.863-0.592-3.224-0.592
			c-3.046,0-5.414,1.725-5.414,5.27c0,3.189,2.015,5.199,5.439,5.199c1.158,0,2.444-0.236,3.198-0.52L-27.093,76.638z"/>
		<path fill="#263238" d="M-24.576,61.373c1.233-0.19,3.073-0.331,5.112-0.331c2.517,0,4.28,0.355,5.489,1.252
			c1.007,0.757,1.561,1.867,1.561,3.333c0,2.032-1.537,3.424-2.998,3.921v0.072c1.183,0.448,1.839,1.512,2.267,2.977
			c0.529,1.794,1.057,3.875,1.385,4.489h-3.926c-0.277-0.449-0.681-1.749-1.184-3.709c-0.452-1.986-1.184-2.528-2.745-2.553h-1.159
			v6.262h-3.803V61.373z M-20.773,68.226h1.511c1.915,0,3.047-0.898,3.047-2.292c0-1.465-1.058-2.197-2.821-2.222
			c-0.931,0-1.459,0.07-1.737,0.118V68.226z"/>
		<path fill="#263238" d="M-9.643,61.373c1.184-0.19,2.846-0.331,5.188-0.331c2.366,0,4.053,0.425,5.186,1.275
			c1.083,0.805,1.814,2.127,1.814,3.688c0,1.558-0.554,2.882-1.561,3.781c-1.311,1.156-3.248,1.678-5.514,1.678
			c-0.504,0-0.958-0.024-1.311-0.072v5.695h-3.803V61.373z M-5.841,68.603c0.327,0.071,0.731,0.093,1.284,0.093
			c2.039,0,3.299-0.968,3.299-2.599c0-1.465-1.083-2.341-2.997-2.341c-0.78,0-1.309,0.072-1.586,0.142V68.603z"/>
	</g>
</g>
</svg>
