<?xml version="1.0" encoding="utf-8"?>
<!-- Generator: Adobe Illustrator 16.0.3, SVG Export Plug-In . SVG Version: 6.00 Build 0)  -->
<!DOCTYPE svg PUBLIC "-//W3C//DTD SVG 1.1//EN" "http://www.w3.org/Graphics/SVG/1.1/DTD/svg11.dtd">
<svg version="1.1" id="Layer_1" xmlns="http://www.w3.org/2000/svg" xmlns:xlink="http://www.w3.org/1999/xlink" x="0px" y="0px"
	 width="150px" height="150px" viewBox="0 0 150 150" enable-background="new 0 0 150 150" xml:space="preserve">
<g>
	<path fill="#F3726A" d="M117.014,1754.814c-0.445,0-0.885-0.037-1.313-0.111l1.313,3.104l1.315-3.104
		C117.898,1754.777,117.459,1754.814,117.014,1754.814z"/>
	<path fill="#F3726A" d="M134.908,1758.674c-1.596,0-2.895,1.297-2.895,2.893c0,1.597,1.299,2.896,2.895,2.896
		s2.895-1.299,2.895-2.896C137.803,1759.971,136.504,1758.674,134.908,1758.674z M134.908,1762.531
		c-0.533,0-0.965-0.433-0.965-0.965c0-0.533,0.432-0.965,0.965-0.965s0.965,0.432,0.965,0.965
		C135.873,1762.099,135.441,1762.531,134.908,1762.531z"/>
	<path fill="#F3726A" d="M123.268,1725.057c-13.808,0-25,11.191-25,25c0,13.806,11.192,25,25,25s25-11.194,25-25
		C148.268,1736.248,137.074,1725.057,123.268,1725.057z M134.908,1766.392c-2.66,0-4.824-2.163-4.824-4.824
		c0-2.328,1.66-4.277,3.859-4.728v-2.282c0-1.986-1.615-3.601-3.603-3.601c-1.985,0-3.603,1.613-3.603,3.601v6.616
		c0,2.947-2.396,5.345-5.346,5.345c-2.947,0-5.346-2.396-5.346-5.345v-0.696l-2.813-6.642c-0.313-0.174-0.618-0.371-0.909-0.592
		c-1.363-1.025-2.33-2.437-2.8-4.076l-2.561-8.96c-0.363-1.274-0.113-2.61,0.684-3.666c0.797-1.058,2.014-1.663,3.336-1.663h0.562
		v-0.321c0-0.532,0.433-0.965,0.965-0.965c0.533,0,0.966,0.433,0.966,0.965v2.571c0,0.533-0.433,0.965-0.966,0.965
		c-0.532,0-0.965-0.432-0.965-0.965v-0.321h-0.562c-0.711,0-1.366,0.327-1.797,0.896c-0.429,0.567-0.563,1.29-0.367,1.975
		l2.562,8.961c0.716,2.5,3.029,4.246,5.632,4.246c2.6,0,4.916-1.746,5.631-4.246l2.561-8.962c0.195-0.685,0.061-1.405-0.368-1.974
		c-0.429-0.569-1.083-0.896-1.797-0.896h-0.56v0.321c0,0.533-0.434,0.965-0.965,0.965c-0.533,0-0.966-0.432-0.966-0.965v-2.571
		c0-0.532,0.433-0.965,0.966-0.965c0.531,0,0.965,0.433,0.965,0.965v0.321h0.56c1.323,0,2.54,0.605,3.337,1.663
		c0.798,1.056,1.046,2.392,0.684,3.666l-2.561,8.96c-0.469,1.641-1.438,3.051-2.799,4.076c-0.291,0.221-0.596,0.418-0.909,0.592
		l-2.813,6.642v0.696c0,1.884,1.532,3.416,3.416,3.416c1.885,0,3.418-1.532,3.418-3.416v-6.616c0-3.049,2.48-5.529,5.529-5.529
		c3.051,0,5.531,2.48,5.531,5.529v2.282c2.199,0.449,3.857,2.398,3.857,4.728C139.73,1764.229,137.566,1766.392,134.908,1766.392z"
		/>
</g>
<g>
	<path fill="#F3726A" d="M117.014,1754.814c-0.445,0-0.885-0.037-1.313-0.111l1.313,3.104l1.315-3.104
		C117.898,1754.777,117.459,1754.814,117.014,1754.814z"/>
	<path fill="#F3726A" d="M134.908,1758.674c-1.596,0-2.895,1.297-2.895,2.893c0,1.597,1.299,2.896,2.895,2.896
		s2.895-1.299,2.895-2.896C137.803,1759.971,136.504,1758.674,134.908,1758.674z M134.908,1762.531
		c-0.533,0-0.965-0.433-0.965-0.965c0-0.533,0.432-0.965,0.965-0.965s0.965,0.432,0.965,0.965
		C135.873,1762.099,135.441,1762.531,134.908,1762.531z"/>
	<path fill="#F3726A" d="M123.268,1725.057c-13.808,0-25,11.191-25,25c0,13.806,11.192,25,25,25s25-11.194,25-25
		C148.268,1736.248,137.074,1725.057,123.268,1725.057z M134.908,1766.392c-2.66,0-4.824-2.163-4.824-4.824
		c0-2.328,1.66-4.277,3.859-4.728v-2.282c0-1.986-1.615-3.601-3.603-3.601c-1.985,0-3.603,1.613-3.603,3.601v6.616
		c0,2.947-2.396,5.345-5.346,5.345c-2.947,0-5.346-2.396-5.346-5.345v-0.696l-2.813-6.642c-0.313-0.174-0.618-0.371-0.909-0.592
		c-1.363-1.025-2.33-2.437-2.8-4.076l-2.561-8.96c-0.363-1.274-0.113-2.61,0.684-3.666c0.797-1.058,2.014-1.663,3.336-1.663h0.562
		v-0.321c0-0.532,0.433-0.965,0.965-0.965c0.533,0,0.966,0.433,0.966,0.965v2.571c0,0.533-0.433,0.965-0.966,0.965
		c-0.532,0-0.965-0.432-0.965-0.965v-0.321h-0.562c-0.711,0-1.366,0.327-1.797,0.896c-0.429,0.567-0.563,1.29-0.367,1.975
		l2.562,8.961c0.716,2.5,3.029,4.246,5.632,4.246c2.6,0,4.916-1.746,5.631-4.246l2.561-8.962c0.195-0.685,0.061-1.405-0.368-1.974
		c-0.429-0.569-1.083-0.896-1.797-0.896h-0.56v0.321c0,0.533-0.434,0.965-0.965,0.965c-0.533,0-0.966-0.432-0.966-0.965v-2.571
		c0-0.532,0.433-0.965,0.966-0.965c0.531,0,0.965,0.433,0.965,0.965v0.321h0.56c1.323,0,2.54,0.605,3.337,1.663
		c0.798,1.056,1.046,2.392,0.684,3.666l-2.561,8.96c-0.469,1.641-1.438,3.051-2.799,4.076c-0.291,0.221-0.596,0.418-0.909,0.592
		l-2.813,6.642v0.696c0,1.884,1.532,3.416,3.416,3.416c1.885,0,3.418-1.532,3.418-3.416v-6.616c0-3.049,2.48-5.529,5.529-5.529
		c3.051,0,5.531,2.48,5.531,5.529v2.282c2.199,0.449,3.857,2.398,3.857,4.728C139.73,1764.229,137.566,1766.392,134.908,1766.392z"
		/>
</g>
<g>
	<path fill-rule="evenodd" clip-rule="evenodd" fill="#F3725F" d="M0,78.21c0.243-0.936,0.444-1.888,0.736-2.809
		c2.215-7.011,6.906-11.47,13.928-13.573c0.577-0.172,1.28-0.726,1.474-1.263c5.242-14.574,14.5-25.794,27.866-33.624
		c0.24-0.14,0.465-0.31,0.848-0.565c-9.181-3.805-14.041-10.548-14.7-20.465c3.038,0,5.894,0,8.874,0
		c0.283,4.668,2.253,8.389,6.308,10.883c2.78,1.71,5.809,1.987,9.169,1.731c-2.624-3.905-4.075-7.991-4.072-12.63
		c2.979,0,5.835,0,8.647,0c0.285,1.356,0.44,2.676,0.84,3.914c1.775,5.478,6.59,8.819,12.775,8.792
		c7.209-0.03,14.317,0.651,21.174,2.983c19.406,6.594,32.727,19.485,39.83,38.734c0.336,0.91,0.779,1.331,1.762,1.626
		c7.773,2.329,12.596,7.448,14.252,15.455c0.059,0.277,0.191,0.542,0.289,0.813c0,1.757,0,3.516,0,5.272
		c-0.1,0.266-0.234,0.526-0.291,0.801c-1.674,7.854-6.338,12.998-14.02,15.313c-1.178,0.354-1.719,0.909-2.107,2.021
		c-10.092,29.115-41.26,46.78-71.344,40.01c-22.513-5.07-37.856-18.758-45.974-40.414c-0.334-0.892-0.79-1.257-1.678-1.511
		C7.594,97.7,2.96,93.219,0.753,86.275C0.462,85.355,0.249,84.413,0,83.482C0,81.726,0,79.967,0,78.21z M60.523,41.926
		c0.05,0.242,0.093,0.377,0.104,0.517c0.66,8.965,8.096,14.901,16.95,13.526c7.035-1.094,12.271-7.858,11.777-15.207
		c-0.477-7.095-6.652-13.089-13.631-13.261c-4.763-0.114-9.466,0.377-14.035,1.687c-19.717,5.655-32.511,18.327-38.276,38.036
		c-0.793,2.718-0.748,2.725-3.565,2.864c-0.633,0.028-1.265,0.1-1.895,0.172c-5.174,0.6-9.321,5.503-9.155,10.825
		c0.168,5.366,4.535,10.013,9.712,10.35c1.354,0.091,3.082-0.251,3.955,0.454c0.872,0.703,0.897,2.464,1.274,3.768
		c7.802,26.974,35.732,43.699,62.839,37.18c20.271-4.873,33.566-17.578,39.762-37.566c1.115-3.604,1.064-3.593,4.668-3.815
		c4.477-0.277,7.637-2.556,9.34-6.644c1.723-4.128,0.898-7.954-2.047-11.274c-2.414-2.725-5.623-3.593-9.123-3.449
		c-1.436,0.056-1.982-0.449-2.326-1.829c-3.133-12.535-9.895-22.683-20.264-30.401c-3.199-2.383-6.631-4.375-10.424-5.964
		c4.1,11.309,2.156,21.017-7.354,28.525c-7.33,5.787-17.613,6.239-25.566,1.401c-7.38-4.491-11.143-11.148-11.467-19.895
		C54.786,41.926,57.598,41.926,60.523,41.926z"/>
	<path fill-rule="evenodd" clip-rule="evenodd" fill="#F3725F" d="M53.758,105.007c2.615-1.545,5.082-3,7.546-4.459
		c6.556,10.28,20.774,10.213,27.36-0.019c2.451,1.445,4.908,2.891,7.545,4.444c-4.754,7.517-11.463,11.739-20.211,12.065
		C66.419,117.397,59.085,113.102,53.758,105.007z"/>
	<path fill-rule="evenodd" clip-rule="evenodd" fill="#F3725F" d="M64.252,82.508c-2.988,0-5.84,0-8.681,0
		c-0.832-3.791-2.758-5.592-5.891-5.55c-3.013,0.037-4.967,1.927-5.634,5.531c-2.832,0-5.685,0-8.724,0
		c0.068-4.84,2.002-8.759,5.898-11.558c4.965-3.567,10.325-3.925,15.662-0.94C61.656,72.663,64.075,76.899,64.252,82.508z"/>
	<path fill-rule="evenodd" clip-rule="evenodd" fill="#F3725F" d="M94.463,82.52c-2.918,0-5.73,0-8.529,0
		c-0.973-6.891,5.795-13.945,13.793-14.455c7.855-0.505,15.043,6.396,14.908,14.42c-2.846,0-5.697,0-8.662,0
		c-0.287-1.866-0.895-3.719-2.736-4.621c-1.084-0.53-2.396-0.85-3.602-0.833C96.895,77.072,95.088,79.092,94.463,82.52z"/>
</g>
</svg>
