<?xml version="1.0" encoding="utf-8"?>
<!-- Generator: Adobe Illustrator 16.0.3, SVG Export Plug-In . SVG Version: 6.00 Build 0)  -->
<!DOCTYPE svg PUBLIC "-//W3C//DTD SVG 1.1//EN" "http://www.w3.org/Graphics/SVG/1.1/DTD/svg11.dtd">
<svg version="1.1" id="Layer_1" xmlns="http://www.w3.org/2000/svg" xmlns:xlink="http://www.w3.org/1999/xlink" x="0px" y="0px"
	 width="150px" height="150px" viewBox="0 0 150 150" enable-background="new 0 0 150 150" xml:space="preserve">
<g>
	<path fill="#F3726A" d="M117.014,1754.814c-0.445,0-0.885-0.037-1.313-0.111l1.313,3.104l1.315-3.104
		C117.898,1754.777,117.459,1754.814,117.014,1754.814z"/>
	<path fill="#F3726A" d="M134.908,1758.674c-1.596,0-2.895,1.297-2.895,2.893c0,1.597,1.299,2.896,2.895,2.896
		s2.895-1.299,2.895-2.896C137.803,1759.971,136.504,1758.674,134.908,1758.674z M134.908,1762.531
		c-0.533,0-0.965-0.433-0.965-0.965c0-0.533,0.432-0.965,0.965-0.965s0.965,0.432,0.965,0.965
		C135.873,1762.099,135.441,1762.531,134.908,1762.531z"/>
	<path fill="#F3726A" d="M123.268,1725.057c-13.808,0-25,11.191-25,25c0,13.806,11.192,25,25,25s25-11.194,25-25
		C148.268,1736.248,137.074,1725.057,123.268,1725.057z M134.908,1766.392c-2.66,0-4.824-2.163-4.824-4.824
		c0-2.328,1.66-4.277,3.859-4.728v-2.282c0-1.986-1.615-3.601-3.603-3.601c-1.985,0-3.603,1.613-3.603,3.601v6.616
		c0,2.947-2.396,5.345-5.346,5.345c-2.947,0-5.346-2.396-5.346-5.345v-0.696l-2.813-6.642c-0.313-0.174-0.618-0.371-0.909-0.592
		c-1.363-1.025-2.33-2.437-2.8-4.076l-2.561-8.96c-0.363-1.274-0.113-2.61,0.684-3.666c0.797-1.058,2.014-1.663,3.336-1.663h0.562
		v-0.321c0-0.532,0.433-0.965,0.965-0.965c0.533,0,0.966,0.433,0.966,0.965v2.571c0,0.533-0.433,0.965-0.966,0.965
		c-0.532,0-0.965-0.432-0.965-0.965v-0.321h-0.562c-0.711,0-1.366,0.327-1.797,0.896c-0.429,0.567-0.563,1.29-0.367,1.975
		l2.562,8.961c0.716,2.5,3.029,4.246,5.632,4.246c2.6,0,4.916-1.746,5.631-4.246l2.561-8.962c0.195-0.685,0.061-1.405-0.368-1.974
		c-0.429-0.569-1.083-0.896-1.797-0.896h-0.56v0.321c0,0.533-0.434,0.965-0.965,0.965c-0.533,0-0.966-0.432-0.966-0.965v-2.571
		c0-0.532,0.433-0.965,0.966-0.965c0.531,0,0.965,0.433,0.965,0.965v0.321h0.56c1.323,0,2.54,0.605,3.337,1.663
		c0.798,1.056,1.046,2.392,0.684,3.666l-2.561,8.96c-0.469,1.641-1.438,3.051-2.799,4.076c-0.291,0.221-0.596,0.418-0.909,0.592
		l-2.813,6.642v0.696c0,1.884,1.532,3.416,3.416,3.416c1.885,0,3.418-1.532,3.418-3.416v-6.616c0-3.049,2.48-5.529,5.529-5.529
		c3.051,0,5.531,2.48,5.531,5.529v2.282c2.199,0.449,3.857,2.398,3.857,4.728C139.73,1764.229,137.566,1766.392,134.908,1766.392z"
		/>
</g>
<g>
	<path fill="#F3726A" d="M117.014,1754.814c-0.445,0-0.885-0.037-1.313-0.111l1.313,3.104l1.315-3.104
		C117.898,1754.777,117.459,1754.814,117.014,1754.814z"/>
	<path fill="#F3726A" d="M134.908,1758.674c-1.596,0-2.895,1.297-2.895,2.893c0,1.597,1.299,2.896,2.895,2.896
		s2.895-1.299,2.895-2.896C137.803,1759.971,136.504,1758.674,134.908,1758.674z M134.908,1762.531
		c-0.533,0-0.965-0.433-0.965-0.965c0-0.533,0.432-0.965,0.965-0.965s0.965,0.432,0.965,0.965
		C135.873,1762.099,135.441,1762.531,134.908,1762.531z"/>
	<path fill="#F3726A" d="M123.268,1725.057c-13.808,0-25,11.191-25,25c0,13.806,11.192,25,25,25s25-11.194,25-25
		C148.268,1736.248,137.074,1725.057,123.268,1725.057z M134.908,1766.392c-2.66,0-4.824-2.163-4.824-4.824
		c0-2.328,1.66-4.277,3.859-4.728v-2.282c0-1.986-1.615-3.601-3.603-3.601c-1.985,0-3.603,1.613-3.603,3.601v6.616
		c0,2.947-2.396,5.345-5.346,5.345c-2.947,0-5.346-2.396-5.346-5.345v-0.696l-2.813-6.642c-0.313-0.174-0.618-0.371-0.909-0.592
		c-1.363-1.025-2.33-2.437-2.8-4.076l-2.561-8.96c-0.363-1.274-0.113-2.61,0.684-3.666c0.797-1.058,2.014-1.663,3.336-1.663h0.562
		v-0.321c0-0.532,0.433-0.965,0.965-0.965c0.533,0,0.966,0.433,0.966,0.965v2.571c0,0.533-0.433,0.965-0.966,0.965
		c-0.532,0-0.965-0.432-0.965-0.965v-0.321h-0.562c-0.711,0-1.366,0.327-1.797,0.896c-0.429,0.567-0.563,1.29-0.367,1.975
		l2.562,8.961c0.716,2.5,3.029,4.246,5.632,4.246c2.6,0,4.916-1.746,5.631-4.246l2.561-8.962c0.195-0.685,0.061-1.405-0.368-1.974
		c-0.429-0.569-1.083-0.896-1.797-0.896h-0.56v0.321c0,0.533-0.434,0.965-0.965,0.965c-0.533,0-0.966-0.432-0.966-0.965v-2.571
		c0-0.532,0.433-0.965,0.966-0.965c0.531,0,0.965,0.433,0.965,0.965v0.321h0.56c1.323,0,2.54,0.605,3.337,1.663
		c0.798,1.056,1.046,2.392,0.684,3.666l-2.561,8.96c-0.469,1.641-1.438,3.051-2.799,4.076c-0.291,0.221-0.596,0.418-0.909,0.592
		l-2.813,6.642v0.696c0,1.884,1.532,3.416,3.416,3.416c1.885,0,3.418-1.532,3.418-3.416v-6.616c0-3.049,2.48-5.529,5.529-5.529
		c3.051,0,5.531,2.48,5.531,5.529v2.282c2.199,0.449,3.857,2.398,3.857,4.728C139.73,1764.229,137.566,1766.392,134.908,1766.392z"
		/>
</g>
<g>
	<path fill-rule="evenodd" clip-rule="evenodd" fill="#F3726A" d="M93.358,0c-0.046,2.573-0.115,5.154-0.138,7.733
		c-0.022,2.725-0.003,5.455-0.003,8.351c-1.49,0-2.873,0-4.599,0c0.489,0.683,0.768,1.103,1.076,1.51
		c6.381,8.317,12.788,16.628,19.13,24.979c0.486,0.636,0.808,1.569,0.817,2.37c0.065,6-0.04,12.007,0.059,18.007
		c0.073,4.464-0.633,8.561-4.346,11.554c5.594,4.557,5.941,11.777,0.598,16.754c5.235,6.499,5.081,11.757-0.521,16.727
		c0.187,0.217,0.357,0.447,0.561,0.644c2.563,2.423,3.663,5.469,3.674,8.936c0.029,6,0.062,12.007-0.007,18
		c-0.075,6.197-3.828,10.806-9.595,11.941c-0.567,0.111-1.162,0.139-1.742,0.139c-2.098,0.02-4.225,0.203-6.296-0.033
		c-3.873-0.434-7.33,0.67-10.682,2.39c-2.833,0-5.662,0-8.495,0c-1.583-0.722-3.151-1.464-4.75-2.153
		c-0.381-0.164-0.841-0.184-1.267-0.184c-3.466-0.014-6.936,0-10.396-0.007c-7.178-0.013-12.279-5.081-12.292-12.224
		c-0.006-5.271,0.125-10.543-0.039-15.814c-0.141-4.517,0.726-8.535,4.487-11.581c-2.81-2.166-4.264-4.956-4.319-8.356
		c-0.053-3.354,1.326-6.146,3.975-8.391c-2.649-2.238-4.083-5.047-4.011-8.448c0.082-3.349,1.533-6.099,4.576-8.449
		c-0.479-0.302-0.942-0.492-1.261-0.82c-2.206-2.259-3.403-4.95-3.407-8.141c-0.003-6.926-0.039-13.865,0.046-20.791
		c0.01-0.821,0.499-1.747,1.024-2.422c6.437-8.351,12.926-16.649,19.399-24.966c0.204-0.263,0.387-0.545,0.742-1.031
		c-1.655,0-3.125,0-4.809,0c0-5.528,0-10.872,0-16.222C71.481,0,82.418,0,93.358,0z M67.417,138.341
		c0.709,4.268,2.81,6.709,6.45,7.143c2.078,0.25,4.218,0.25,6.286,0.006c3.099-0.341,5.101-2.244,6.089-5.18
		c0.21-0.636,0.275-1.313,0.4-1.942c1.5,0,2.892,0,4.507,0c-0.357,1.688-0.683,3.229-1.027,4.884c2.484,0,4.881,0.007,7.264,0
		c4.75-0.006,7.728-2.895,7.754-7.607c0.029-6.1,0.029-12.205-0.004-18.311c-0.022-4.398-2.865-7.175-7.273-7.201
		c-1.441-0.013-2.886-0.006-4.376-0.006c0-1.563,0-2.902,0-4.445c0.929,0,1.802,0.026,2.659-0.006
		c1.65-0.079,3.357,0.032,4.946-0.335c2.701-0.631,4.575-3.604,4.231-6.257c-0.41-3.099-2.751-5.298-5.791-5.363
		c-1.989-0.046-3.972-0.013-6.121-0.013c0-0.86,0-1.53,0-2.2c0-0.715,0-1.431,0-2.316c1.047,0,1.913,0.02,2.783-0.007
		c1.56-0.04,3.154,0.085,4.665-0.21c2.736-0.525,4.775-3.525,4.474-6.23c-0.349-3.099-2.682-5.37-5.708-5.449
		c-2.025-0.059-4.061-0.013-6.112-0.013c0-1.628,0-3.014,0-4.55c1.405,0,2.718-0.078,4.015,0.014
		c4.852,0.322,7.75-3.821,7.647-7.556c-0.124-4.779-0.026-9.565-0.026-14.351c0-1.313,0-2.626,0-3.998c-18.929,0-37.728,0-56.602,0
		c0,6.099-0.013,12.046,0.003,18.007c0.017,4.772,3.108,7.871,7.871,7.871c7.08,0.02,14.161,0.013,21.244,0.013
		c0.519,0,1.037,0,1.638,0c0,1.576,0,2.967,0,4.537c-0.653,0-1.228,0-1.799,0c-7.667,0.006-15.335-0.014-22.996,0.02
		c-2.462,0.014-4.53,1.556-5.39,3.82c-0.85,2.246-0.252,4.767,1.497,6.453c1.365,1.313,3.03,1.642,4.848,1.642
		c7.369-0.026,14.745-0.013,22.117-0.013c0.564,0,1.122,0,1.681,0c0,1.628,0,3.013,0,4.503c-0.702,0-1.284,0-1.858,0
		c-7.618,0.007-15.237-0.007-22.852,0.026c-2.597,0.02-4.665,1.602-5.499,4.057c-0.788,2.351-0.065,4.839,1.852,6.479
		c1.401,1.195,3.056,1.425,4.799,1.425c7.274-0.006,14.544,0,21.825,0c0.571,0,1.139,0,1.746,0c0,1.569,0,2.947,0,4.445
		c-0.64,0-1.165,0-1.7,0c-7.271,0.006-14.547-0.021-21.821,0.019c-3.985,0.02-7.12,3.014-7.179,6.979
		c-0.085,6.257-0.072,12.506,0,18.756c0.04,3.702,2.56,6.762,6.25,7.176c3.007,0.335,6.08,0.065,9.08,0.065
		c-0.306-1.569-0.607-3.118-0.929-4.779C64.608,138.341,65.96,138.341,67.417,138.341z M51.124,42.133c17.351,0,34.439,0,51.678,0
		c-0.15-0.289-0.214-0.459-0.318-0.604c-6.335-8.239-12.666-16.478-19.038-24.684c-0.292-0.387-0.955-0.663-1.447-0.676
		c-3.322-0.053-6.64-0.053-9.962,0c-0.496,0.013-1.156,0.309-1.454,0.689C64.125,25.189,57.715,33.553,51.124,42.133z M65.1,4.458
		c0,2.475,0,4.825,0,7.149c7.927,0,15.743,0,23.535,0c0-2.435,0-4.759,0-7.149C80.78,4.458,73.001,4.458,65.1,4.458z"/>
	<path fill-rule="evenodd" clip-rule="evenodd" fill="#F3726A" d="M88.704,93.621c-1.625,0-3.063,0-4.592,0c0-1.464,0-2.849,0-4.339
		c1.526,0,3.003,0,4.592,0C88.704,90.732,88.704,92.118,88.704,93.621z"/>
	<path fill-rule="evenodd" clip-rule="evenodd" fill="#F3726A" d="M84.089,77.163c0-1.523,0-2.875,0-4.32c1.553,0,3.023,0,4.612,0
		c0,1.445,0,2.83,0,4.32C87.165,77.163,85.681,77.163,84.089,77.163z"/>
	<path fill-rule="evenodd" clip-rule="evenodd" fill="#F3726A" d="M84.102,110.046c0-1.431,0-2.776,0-4.24c1.518,0,3.018,0,4.603,0
		c0,1.425,0,2.797,0,4.24C87.161,110.046,85.721,110.046,84.102,110.046z"/>
	<path fill-rule="evenodd" clip-rule="evenodd" fill="#F3726A" d="M69.902,32.509c-1.556,0-3,0-4.546,0c0-1.412,0-2.797,0-4.274
		c1.503,0,2.98,0,4.546,0C69.902,29.647,69.902,30.993,69.902,32.509z"/>
	<path fill-rule="evenodd" clip-rule="evenodd" fill="#F3726A" d="M65.172,37.209c-1.553,0-2.997,0-4.523,0c0-1.424,0-2.771,0-4.247
		c1.444,0,2.922,0,4.523,0C65.172,34.314,65.172,35.687,65.172,37.209z"/>
</g>
</svg>
