<?xml version="1.0" encoding="utf-8"?>
<!-- Generator: Adobe Illustrator 16.0.3, SVG Export Plug-In . SVG Version: 6.00 Build 0)  -->
<!DOCTYPE svg PUBLIC "-//W3C//DTD SVG 1.1//EN" "http://www.w3.org/Graphics/SVG/1.1/DTD/svg11.dtd">
<svg version="1.1" id="Layer_1" xmlns="http://www.w3.org/2000/svg" xmlns:xlink="http://www.w3.org/1999/xlink" x="0px" y="0px"
	 width="150px" height="150px" viewBox="0 0 150 150" enable-background="new 0 0 150 150" xml:space="preserve">
<g>
	<path fill="#F3726A" d="M117.014,1754.814c-0.445,0-0.885-0.037-1.313-0.111l1.313,3.104l1.315-3.104
		C117.898,1754.777,117.459,1754.814,117.014,1754.814z"/>
	<path fill="#F3726A" d="M134.908,1758.674c-1.596,0-2.895,1.297-2.895,2.893c0,1.597,1.299,2.896,2.895,2.896
		s2.895-1.299,2.895-2.896C137.803,1759.971,136.504,1758.674,134.908,1758.674z M134.908,1762.531
		c-0.533,0-0.965-0.433-0.965-0.965c0-0.533,0.432-0.965,0.965-0.965s0.965,0.432,0.965,0.965
		C135.873,1762.099,135.441,1762.531,134.908,1762.531z"/>
	<path fill="#F3726A" d="M123.268,1725.057c-13.808,0-25,11.191-25,25c0,13.806,11.192,25,25,25s25-11.194,25-25
		C148.268,1736.248,137.074,1725.057,123.268,1725.057z M134.908,1766.392c-2.66,0-4.824-2.163-4.824-4.824
		c0-2.328,1.66-4.277,3.859-4.728v-2.282c0-1.986-1.615-3.601-3.603-3.601c-1.985,0-3.603,1.613-3.603,3.601v6.616
		c0,2.947-2.396,5.345-5.346,5.345c-2.947,0-5.346-2.396-5.346-5.345v-0.696l-2.813-6.642c-0.313-0.174-0.618-0.371-0.909-0.592
		c-1.363-1.025-2.33-2.437-2.8-4.076l-2.561-8.96c-0.363-1.274-0.113-2.61,0.684-3.666c0.797-1.058,2.014-1.663,3.336-1.663h0.562
		v-0.321c0-0.532,0.433-0.965,0.965-0.965c0.533,0,0.966,0.433,0.966,0.965v2.571c0,0.533-0.433,0.965-0.966,0.965
		c-0.532,0-0.965-0.432-0.965-0.965v-0.321h-0.562c-0.711,0-1.366,0.327-1.797,0.896c-0.429,0.567-0.563,1.29-0.367,1.975
		l2.562,8.961c0.716,2.5,3.029,4.246,5.632,4.246c2.6,0,4.916-1.746,5.631-4.246l2.561-8.962c0.195-0.685,0.061-1.405-0.368-1.974
		c-0.429-0.569-1.083-0.896-1.797-0.896h-0.56v0.321c0,0.533-0.434,0.965-0.965,0.965c-0.533,0-0.966-0.432-0.966-0.965v-2.571
		c0-0.532,0.433-0.965,0.966-0.965c0.531,0,0.965,0.433,0.965,0.965v0.321h0.56c1.323,0,2.54,0.605,3.337,1.663
		c0.798,1.056,1.046,2.392,0.684,3.666l-2.561,8.96c-0.469,1.641-1.438,3.051-2.799,4.076c-0.291,0.221-0.596,0.418-0.909,0.592
		l-2.813,6.642v0.696c0,1.884,1.532,3.416,3.416,3.416c1.885,0,3.418-1.532,3.418-3.416v-6.616c0-3.049,2.48-5.529,5.529-5.529
		c3.051,0,5.531,2.48,5.531,5.529v2.282c2.199,0.449,3.857,2.398,3.857,4.728C139.73,1764.229,137.566,1766.392,134.908,1766.392z"
		/>
</g>
<g>
	<path fill="#F3726A" d="M117.014,1754.814c-0.445,0-0.885-0.037-1.313-0.111l1.313,3.104l1.315-3.104
		C117.898,1754.777,117.459,1754.814,117.014,1754.814z"/>
	<path fill="#F3726A" d="M134.908,1758.674c-1.596,0-2.895,1.297-2.895,2.893c0,1.597,1.299,2.896,2.895,2.896
		s2.895-1.299,2.895-2.896C137.803,1759.971,136.504,1758.674,134.908,1758.674z M134.908,1762.531
		c-0.533,0-0.965-0.433-0.965-0.965c0-0.533,0.432-0.965,0.965-0.965s0.965,0.432,0.965,0.965
		C135.873,1762.099,135.441,1762.531,134.908,1762.531z"/>
	<path fill="#F3726A" d="M123.268,1725.057c-13.808,0-25,11.191-25,25c0,13.806,11.192,25,25,25s25-11.194,25-25
		C148.268,1736.248,137.074,1725.057,123.268,1725.057z M134.908,1766.392c-2.66,0-4.824-2.163-4.824-4.824
		c0-2.328,1.66-4.277,3.859-4.728v-2.282c0-1.986-1.615-3.601-3.603-3.601c-1.985,0-3.603,1.613-3.603,3.601v6.616
		c0,2.947-2.396,5.345-5.346,5.345c-2.947,0-5.346-2.396-5.346-5.345v-0.696l-2.813-6.642c-0.313-0.174-0.618-0.371-0.909-0.592
		c-1.363-1.025-2.33-2.437-2.8-4.076l-2.561-8.96c-0.363-1.274-0.113-2.61,0.684-3.666c0.797-1.058,2.014-1.663,3.336-1.663h0.562
		v-0.321c0-0.532,0.433-0.965,0.965-0.965c0.533,0,0.966,0.433,0.966,0.965v2.571c0,0.533-0.433,0.965-0.966,0.965
		c-0.532,0-0.965-0.432-0.965-0.965v-0.321h-0.562c-0.711,0-1.366,0.327-1.797,0.896c-0.429,0.567-0.563,1.29-0.367,1.975
		l2.562,8.961c0.716,2.5,3.029,4.246,5.632,4.246c2.6,0,4.916-1.746,5.631-4.246l2.561-8.962c0.195-0.685,0.061-1.405-0.368-1.974
		c-0.429-0.569-1.083-0.896-1.797-0.896h-0.56v0.321c0,0.533-0.434,0.965-0.965,0.965c-0.533,0-0.966-0.432-0.966-0.965v-2.571
		c0-0.532,0.433-0.965,0.966-0.965c0.531,0,0.965,0.433,0.965,0.965v0.321h0.56c1.323,0,2.54,0.605,3.337,1.663
		c0.798,1.056,1.046,2.392,0.684,3.666l-2.561,8.96c-0.469,1.641-1.438,3.051-2.799,4.076c-0.291,0.221-0.596,0.418-0.909,0.592
		l-2.813,6.642v0.696c0,1.884,1.532,3.416,3.416,3.416c1.885,0,3.418-1.532,3.418-3.416v-6.616c0-3.049,2.48-5.529,5.529-5.529
		c3.051,0,5.531,2.48,5.531,5.529v2.282c2.199,0.449,3.857,2.398,3.857,4.728C139.73,1764.229,137.566,1766.392,134.908,1766.392z"
		/>
</g>
<g>
	<g>
		<g>
			<g>
				<path fill="#F3725F" d="M94.026,117.627c-0.859,0-1.614-0.274-2.243-0.807c-1.06-0.898-0.993-1.959-0.858-2.51
					c0.13-0.527,0.248-1.056,0.319-1.588c0.146-1.157,0.885-1.994,2.032-2.283c1.502-0.378,3.095-0.951,5.006-1.81
					c1.814-0.816,3.597-1.824,5.458-3.09c2.418-1.654,4.623-3.575,6.552-5.726c2.181-2.439,4.02-5.141,5.463-8.03
					c1.074-2.155,1.803-4.005,2.287-5.817c0.151-0.559,0.291-1.116,0.424-1.68c0.121-0.48,0.239-0.956,0.362-1.432
					c0.17-0.662,0.265-1.369,0.361-2.119c0.043-0.315,0.083-0.63,0.135-0.951c0.315-2.104,0.244-4.221,0.171-6.469l-0.035-1.188
					c-0.017-0.518-0.126-1.082-0.239-1.676c-0.05-0.288-0.109-0.574-0.154-0.858c-0.092-0.567-0.17-1.064-0.279-1.554l-0.104-0.48
					c-0.135-0.646-0.268-1.292-0.459-1.924c-0.301-0.965-0.646-1.921-0.998-2.877l-0.176-0.492c-0.65-1.803-1.58-3.67-2.832-5.704
					c-1.685-2.732-3.719-5.22-6.035-7.389c-2.273-2.125-4.507-3.778-6.821-5.044l-0.31-0.17c-1.188-0.651-2.316-1.266-3.482-1.772
					c-1.179-0.506-2.388-0.895-3.85-1.349c-0.636-0.192-1.282-0.348-1.933-0.497c-0.367-0.087-0.733-0.17-1.101-0.263
					c-0.667-0.172-1.374-0.265-2.124-0.362c-0.314-0.042-0.632-0.083-0.946-0.135c-1.065-0.156-2.238-0.232-3.675-0.232
					c-0.913,0-1.824,0.024-2.744,0.057l-1.367,0.041c-0.487,0.009-1.021,0.113-1.588,0.227c-0.289,0.057-0.584,0.113-0.878,0.161
					l-0.549,0.083c-0.419,0.066-0.835,0.123-1.239,0.218c-0.79,0.18-1.571,0.397-2.356,0.62c-0.625,0.18-1.24,0.386-1.859,0.604
					c-1.588,0.544-3.008,1.143-4.363,1.829c-1.488,0.767-2.908,1.619-4.234,2.543c-2.073,1.448-3.961,3.054-5.604,4.774
					c-1.519,1.587-2.879,3.286-4.041,5.049c-1.138,1.71-2.113,3.499-2.915,5.312c-0.615,1.391-1.147,2.822-1.633,4.389
					c-0.175,0.551-0.3,1.121-0.428,1.685l-0.61,2.646l-0.087,0.775c-0.073,0.59-0.14,1.184-0.196,1.777l-0.031,0.414
					c-0.073,0.816-0.147,1.632-0.156,2.443c-0.009,0.604,0.036,1.209,0.078,1.813l0.066,1.091c0.004,0.137,0.012,0.27,0.021,0.397
					c0.031,0.336,0.057,0.667,0.083,0.998c0.052,0.733,0.097,1.422,0.218,2.077c0.215,1.226,0.525,2.527,0.908,3.876
					c0.353,1.226,0.786,2.661,1.354,4.057c0.404,1.006,0.911,1.983,1.438,3.017l0.402,0.791c0.407,0.812,0.383,1.575-0.083,2.273
					c-0.45,0.688-0.899,1.379-1.344,2.067l-1.003,1.555l-1.699,0.812l-0.904-1.008c-0.166-0.201-0.27-0.336-0.362-0.485
					c-1.405-2.257-2.605-4.708-3.669-7.483c-0.279-0.729-0.506-1.477-0.729-2.23l-0.346-1.131c-0.208-0.663-0.414-1.33-0.563-2.007
					c-0.218-1.008-0.388-2.025-0.554-3.042l-0.083-0.502c-0.445-2.697-0.599-5.42-0.466-8.117c0.057-1.222,0.196-2.435,0.331-3.608
					l0.083-0.703c0.092-0.842,0.232-1.684,0.388-2.512c0.078-0.434,0.196-0.866,0.314-1.292l0.284-1.114
					c0.14-0.57,0.284-1.139,0.45-1.696c0.258-0.868,0.544-1.726,0.859-2.563c0.759-2.016,1.663-3.963,2.681-5.804
					c1.266-2.278,2.713-4.429,4.315-6.371c2.43-2.945,5.152-5.539,8.092-7.699c2.325-1.706,4.807-3.185,7.391-4.389
					c1.219-0.568,2.553-1.109,4.076-1.668c1.069-0.383,2.238-0.733,3.582-1.064c0.641-0.166,1.301-0.279,1.964-0.393
					c0.393-0.073,0.795-0.144,1.188-0.227c2.087-0.435,4.382-0.655,7.239-0.693l0.41-0.004c1.554,0,3.094,0.125,4.54,0.249
					c1.299,0.108,2.548,0.331,3.603,0.532c0.826,0.154,1.643,0.376,2.459,0.599l0.868,0.234c0.868,0.232,1.736,0.459,2.583,0.743
					c1.056,0.353,2.037,0.738,2.937,1.152c1.209,0.563,2.631,1.245,4.01,2.021c1.566,0.89,2.903,1.72,4.103,2.558
					c1.859,1.292,3.67,2.823,5.395,4.538c1.727,1.72,3.286,3.556,4.656,5.446c1.277,1.767,2.392,3.583,3.333,5.394
					c0.909,1.758,1.566,3.236,2.077,4.646l0.263,0.708c0.261,0.697,0.519,1.396,0.733,2.104c0.183,0.588,0.317,1.191,0.452,1.793
					l0.442,1.906c0.677,2.922,0.994,6.057,0.963,9.597c-0.012,1.947-0.187,4.01-0.518,6.128c-0.128,0.842-0.324,1.675-0.528,2.512
					l-0.246,1.096c-0.155,0.695-0.316,1.394-0.518,2.077c-0.206,0.733-0.507,1.704-0.89,2.667c-0.464,1.171-0.97,2.33-1.498,3.482
					c-0.815,1.793-1.85,3.617-3.163,5.574c-1.642,2.477-3.636,4.859-5.91,7.081c-2.696,2.623-5.768,4.901-9.125,6.782
					c-2.15,1.2-4.197,2.13-6.248,2.84l-0.802,0.283c-0.677,0.249-1.375,0.507-2.127,0.691
					C94.83,117.57,94.424,117.627,94.026,117.627z"/>
			</g>
			<g>
				<path fill="#F3725F" d="M113.992,71.006c-0.49-1.659-1.188-3.204-2.087-4.59c-1.557-2.392-3.535-4.315-5.882-5.714
					c-1.445-0.863-2.706-1.412-3.963-1.732c-0.854-0.217-1.706-0.418-2.558-0.601c-1.443-0.303-2.962-0.333-4.864-0.097
					c-1.559,0.196-2.889,0.528-4.046,1.008c-0.144,0.057-0.288,0.109-0.438,0.166c-0.14-0.367-0.286-0.729-0.471-1.069
					c-0.341-0.62-0.75-1.344-1.23-2.025c-0.79-1.129-2.448-1.458-3.688-0.746c-1.242,0.703-1.717,2.439-1.02,3.71l0.296,0.523
					c0.319,0.577,0.65,1.157,0.92,1.762c0.394,0.887,0.795,1.947,0.856,3.085c0.01,0.137,0.031,0.272,0.053,0.412
					c0.009,0.087,0.025,0.175,0.03,0.265c0.01,0.166,0.021,0.329,0.043,0.494c0.03,0.367,0.062,0.715,0.019,1.008
					c-0.04,0.305-0.07,0.606-0.102,0.911c-0.052,0.525-0.104,1.027-0.239,1.502c-0.205,0.733-0.444,1.571-0.795,2.312
					c-1.081,2.257-2.574,3.951-4.559,5.193c-1.214,0.748-2.273,1.219-3.348,1.477l-0.228,0.057c-0.816,0.201-1.58,0.383-2.47,0.383
					c0,0-0.005,0-0.01,0h-0.326l-0.76,0.005c-0.58,0-1.055-0.03-1.509-0.187c-0.293-0.093-0.603-0.145-0.909-0.196
					c-0.239-0.04-0.475-0.071-0.698-0.154c-1.081-0.378-2.032-0.828-2.889-1.369c-1.768-1.127-3.142-2.579-4.197-4.448
					c-0.463-0.837-0.795-1.645-1.008-2.47l-0.097-0.369c-0.166-0.646-0.331-1.254-0.336-1.86l-0.017-0.717
					c-0.023-1.077-0.049-2.094,0.234-3.054c0.078-0.265,0.14-0.528,0.206-0.797c0.109-0.442,0.213-0.861,0.371-1.235
					c0.978-2.273,2.456-4.124,4.398-5.486c1.013-0.714,2.177-1.282,3.461-1.696c0.807-0.258,1.666-0.386,2.326-0.464
					c1.277-0.17,2.527-0.078,3.979,0.249c0.471,0.102,0.941,0.289,1.436,0.49c0.336,0.135,0.672,0.274,1.147,0.431
					c0.58,0.196,1.401,0.367,2.13,0.04c1.405-0.625,1.768-1.685,1.819-2.46c0.087-1.131-0.492-2.129-1.55-2.659
					c-1.199-0.615-2.543-1.077-4.098-1.413c-1.091-0.232-2.264-0.336-3.944-0.336c0,0-0.005,0-0.01,0
					c-1.251,0-2.387,0.121-3.457,0.367c-1.287,0.305-2.539,0.729-3.717,1.273c-1.715,0.786-3.265,1.817-4.744,3.177
					c-1.519,1.389-2.796,3.09-3.788,5.037c-0.686,1.36-1.152,2.636-1.422,3.909c-0.228,1.069-0.346,2.134-0.459,3.225
					c-0.149,1.467,0.047,2.912,0.239,4.008c0.246,1.427,0.672,2.801,1.254,4.093c0.601,1.313,1.278,2.47,2.073,3.546
					c0.994,1.342,2.203,2.541,3.705,3.667c1.401,1.051,2.811,1.811,4.306,2.338c0.599,0.211,1.214,0.393,1.824,0.556l0.417,0.114
					c0.549,0.156,1.112,0.312,1.722,0.353c1.204,0.092,2.409,0.104,3.627,0.073c0.485-0.017,0.965-0.095,1.448-0.178
					c0.222-0.035,0.442-0.071,0.66-0.102c0.858-0.113,1.715-0.353,2.801-0.767c0.156-0.062,0.314-0.113,0.476-0.166
					c0.005,0.012,0.01,0.026,0.021,0.043c1.018,2.47,2.624,4.665,4.763,6.527c1.374,1.192,2.879,2.144,4.467,2.815
					c1.197,0.507,2.278,0.856,3.295,1.086c1.065,0.236,2.14,0.319,3.334,0.393c0.324,0.02,0.655,0.031,0.981,0.031
					c2.104,0,4.221-0.431,6.294-1.266c2.056-0.833,3.896-2.007,5.468-3.49c1.906-1.808,3.29-3.75,4.241-5.952
					c0.419-0.982,0.848-2.035,1.034-3.183c0.052-0.296,0.113-0.584,0.175-0.88c0.114-0.563,0.239-1.147,0.279-1.751
					C114.86,75.319,114.621,73.154,113.992,71.006z M110.648,77.543c-0.148,1.183-0.356,2.139-0.657,3.007
					c-0.878,2.553-2.375,4.687-4.443,6.35c-1.157,0.942-2.325,1.623-3.556,2.087c-0.861,0.331-1.689,0.648-2.624,0.741
					c-0.567,0.057-1.138,0.135-1.701,0.21l-0.895,0.113l-0.102-0.007c-0.314-0.042-0.632-0.063-0.941-0.095
					c-0.717-0.062-1.462-0.135-2.19-0.321c-2.903-0.743-5.359-2.253-7.292-4.479c-1.126-1.304-1.989-2.792-2.629-4.555
					c-0.238-0.639-0.073-1.239,0.455-1.673c1.54-1.277,2.811-2.792,3.771-4.507c0.554-0.982,1.008-2.056,1.396-3.286
					c0.61-1.928,0.825-3.937,0.655-6.14c-0.031-0.402,0.052-1.14,0.956-1.528c0.91-0.397,1.705-0.677,2.491-0.878
					c1.696-0.431,2.997-0.57,4.324-0.445c0.767,0.071,1.571,0.211,2.534,0.433c1.121,0.265,2.108,0.703,2.929,1.091
					c0.939,0.454,1.841,1.048,2.74,1.829c1.311,1.138,2.365,2.43,3.13,3.85c0.501,0.932,1.043,2.053,1.287,3.329l0.097,0.532
					c0.095,0.476,0.188,0.956,0.265,1.436C110.788,75.496,110.788,76.421,110.648,77.543z"/>
			</g>
			<g>
				<path fill="#F3725F" d="M73.648,74.694c-1.398,0-2.5-0.93-2.671-2.257c-0.097-0.759-0.097-1.514-0.097-2.248V69.48
					c-0.004-0.092-0.004-0.17-0.004-0.242c-0.074,0-0.147,0-0.223,0h-1.152c-0.475,0-0.951-0.004-1.431-0.021
					c-1.344-0.041-2.321-0.895-2.609-2.274c-0.244-1.162,0.35-2.387,1.44-2.976c0.428-0.232,0.873-0.346,1.358-0.346
					c0.435,0.005,0.828,0.01,1.211,0.01l1.405-0.005l0.019-2.6c0.017-1.152,0.537-2.021,1.552-2.567
					c1.28-0.698,3.172-0.038,3.731,1.249c0.211,0.476,0.329,1.013,0.351,1.562c0.03,0.724,0.025,1.458,0.021,2.217v0.14h2.667
					c1.57,0,2.666,1.37,2.768,2.636c0.064,0.698-0.236,1.498-0.785,2.091c-0.511,0.563-1.188,0.873-1.891,0.873l-0.724-0.005
					l-2.035,0.017v0.847c0.005,0.568,0.01,1.136-0.017,1.71c-0.057,1.555-0.873,2.269-1.549,2.593
					C74.574,74.59,74.11,74.694,73.648,74.694z"/>
			</g>
			<g>
				<path fill="#F3725F" d="M96.806,84.333c-1.329,0.005-2.438-0.885-2.704-2.15c-0.066-0.357-0.097-0.725-0.097-1.079
					c-0.012-0.445-0.012-0.89-0.012-1.334V78.86l-1.859-0.017l-0.838,0.01l0,0c-0.773,0-1.457-0.284-1.964-0.8
					c-0.525-0.537-0.805-1.261-0.795-2.042c0.031-1.731,1.457-2.763,2.806-2.775h2.65v-0.92c0-0.49,0-0.982,0.012-1.472
					c0.01-0.636,0.083-1.296,0.542-1.902c0.688-0.895,1.606-1.297,2.683-1.117c1.043,0.172,1.786,0.762,2.16,1.701
					c0.175,0.455,0.263,0.909,0.263,1.384c-0.005,0.703-0.005,1.405-0.005,2.146v0.18l1.519-0.009c0.394,0,0.781,0.004,1.174,0.014
					c0.769,0.017,1.477,0.343,1.999,0.906c0.527,0.568,0.816,1.349,0.776,2.087c-0.078,1.358-1.261,2.548-2.591,2.593
					c-0.62,0.026-1.244,0.033-1.864,0.033h-1.008v1.084c0,0.492,0,0.981-0.005,1.469c-0.012,1.114-0.506,1.995-1.437,2.541
					C97.797,84.203,97.313,84.333,96.806,84.333z"/>
			</g>
		</g>
		<g>
			<path fill="#F3725F" d="M0.587,51.049V24.4H8.08l5.9,9.767c1.685,2.806,3.365,6.123,4.63,9.13h0.125
				c-0.419-3.518-0.549-7.114-0.549-11.11V24.4h5.9v26.649h-6.743l-6.062-10.285c-1.685-2.841-3.535-6.284-4.931-9.404L6.23,31.396
				c0.166,3.521,0.253,7.277,0.253,11.628v8.025H0.587z"/>
			<path fill="#F3725F" d="M41.146,51.049l-0.376-1.938h-0.13c-1.349,1.545-3.452,2.371-5.896,2.371c-4.164,0-6.65-2.846-6.65-5.931
				c0-5.018,4.8-7.432,12.087-7.391v-0.279c0-1.027-0.589-2.489-3.752-2.489c-2.103,0-4.334,0.672-5.683,1.462l-1.178-3.875
				c1.431-0.75,4.251-1.701,7.999-1.701c6.861,0,9.052,3.793,9.052,8.345v6.724c0,1.854,0.083,3.631,0.301,4.703H41.146z
				 M40.387,41.912c-3.369-0.035-5.979,0.712-5.979,3.05c0,1.54,1.096,2.288,2.527,2.288c1.602,0,2.905-0.987,3.329-2.212
				c0.083-0.314,0.123-0.672,0.123-1.024V41.912z"/>
		</g>
		<g>
			<path fill="#F3725F" d="M114.943,11.837h6.354v11.782h0.13c0.63-1.027,1.309-1.973,1.938-2.924l6.438-8.858h7.877l-9.389,11.349
				l9.895,15.305h-7.493l-6.95-11.508l-2.444,2.806v8.702h-6.354V11.837z"/>
		</g>
		<g>
			<path fill="#F3725F" d="M76.405,126.327c-1.179,0.559-3.835,1.152-7.287,1.152c-9.807,0-14.868-5.734-14.868-13.327
				c0-9.094,6.909-14.152,15.497-14.152c3.329,0,5.855,0.637,6.986,1.183l-1.301,4.786c-1.301-0.518-3.116-0.988-5.39-0.988
				c-5.096,0-9.054,2.889-9.054,8.817c0,5.337,3.369,8.694,9.102,8.694c1.931,0,4.081-0.393,5.342-0.868L76.405,126.327z"/>
			<path fill="#F3725F" d="M80.28,99.014h6.402v28.068H80.28V99.014z"/>
		</g>
	</g>
	<g>
		<g>
			<path fill-rule="evenodd" clip-rule="evenodd" fill="#F3725F" d="M77.631,10.928c2.886,0,5.772,0,8.661,0
				c0.135,0.256,0.376,0.223,0.597,0.237c0.7,0.04,1.402,0.028,2.099,0.118c0.958,0.102,1.911,0.266,2.865,0.412
				c0.813,0.123,1.625,0.258,2.438,0.388c0.402,0.071,0.812,0.128,1.212,0.233c0.913,0.216,1.821,0.447,2.732,0.682
				c0.79,0.204,1.585,0.384,2.366,0.608c0.74,0.204,1.467,0.459,2.197,0.705c0.582,0.189,1.169,0.364,1.736,0.599
				c1.728,0.717,3.467,1.384,5.168,2.177c1.973,0.915,3.892,1.933,5.768,3.03c1.63,0.961,3.185,2.027,4.736,3.106
				c2.028,1.41,3.938,2.965,5.771,4.614c1.557,1.386,3.023,2.889,4.465,4.404c2.3,2.426,4.341,5.061,6.208,7.824
				c0.76,1.134,1.507,2.262,2.177,3.447c0.927,1.613,1.838,3.244,2.649,4.936c0.7,1.436,1.398,2.898,1.904,4.424
				c0.349,1.067,0.826,2.07,1.181,3.131c0.469,1.396,0.881,2.82,1.297,4.225c0.128,0.44,0.208,0.876,0.301,1.313
				c0.111,0.525,0.198,1.046,0.312,1.566c0.133,0.589,0.311,1.176,0.422,1.772c0.187,0.983,0.357,1.977,0.484,2.971
				c0.135,1.098,0.209,2.21,0.322,3.317c0.05,0.459,0.145,0.918,0.215,1.392c0,2.922,0,5.848,0,8.784
				c-0.054,0.168-0.137,0.338-0.153,0.521c-0.102,1.109-0.081,2.219-0.313,3.308c-0.17,0.82-0.215,1.663-0.317,2.51
				c-0.004,0.038-0.019,0.076-0.028,0.116c-0.137,0.665-0.281,1.322-0.411,1.984c-0.114,0.578-0.199,1.164-0.313,1.739
				c-0.078,0.396-0.17,0.802-0.274,1.186c-0.146,0.577-0.317,1.145-0.478,1.718c-0.188,0.662-0.339,1.357-0.568,2.006
				c-0.549,1.562-1.161,3.088-1.696,4.633c-0.48,1.419-1.112,2.766-1.763,4.088c-0.71,1.462-1.457,2.905-2.245,4.322
				c-1.481,2.672-3.196,5.177-5.051,7.602c-1.756,2.305-3.663,4.472-5.712,6.512c-1.703,1.685-3.473,3.288-5.349,4.779
				c-1.59,1.27-3.228,2.467-4.905,3.61c-1.646,1.121-3.354,2.134-5.117,3.07c-1.256,0.653-2.524,1.306-3.807,1.921
				c-0.778,0.384-1.583,0.729-2.392,1.039c-1.259,0.489-2.527,0.935-3.8,1.398c-0.911,0.321-1.824,0.662-2.757,0.927
				c-1.116,0.308-2.252,0.557-3.381,0.833c-0.418,0.098-0.835,0.204-1.256,0.298c-0.719,0.161-1.438,0.322-2.167,0.45
				c-0.748,0.137-1.503,0.234-2.255,0.35c-1.261,0.185-2.51,0.429-3.785,0.45c-0.615,0-1.245-0.036-1.824,0.246
				c-2.558,0-5.115,0-7.673,0c-0.599-0.289-1.251-0.204-1.881-0.256c-1.088-0.1-2.167-0.216-3.251-0.322
				c-0.059,0-0.118-0.032-0.18-0.037c-0.809-0.131-1.625-0.261-2.432-0.412c-1.07-0.203-2.135-0.423-3.197-0.639
				c-0.381-0.075-0.764-0.156-1.137-0.256c-0.744-0.213-1.486-0.439-2.227-0.65c-0.954-0.276-1.924-0.514-2.855-0.835
				c-1.08-0.374-2.137-0.81-3.194-1.249c-1.479-0.605-2.979-1.174-4.413-1.874c-2.24-1.112-4.431-2.31-6.541-3.653
				c-2.387-1.528-4.676-3.182-6.866-4.978c-2.496-2.056-4.808-4.306-6.975-6.7c-1.694-1.866-3.263-3.83-4.728-5.891
				c-1.479-2.082-2.859-4.217-4.068-6.45c-0.781-1.447-1.543-2.9-2.238-4.384c-0.599-1.289-1.098-2.626-1.628-3.948
				c-0.327-0.812-0.642-1.623-0.93-2.446c-0.229-0.68-0.424-1.365-0.627-2.049c-0.181-0.606-0.351-1.229-0.521-1.836
				c-0.236-0.861-0.485-1.729-0.693-2.603c-0.135-0.577-0.213-1.164-0.314-1.751c-0.09-0.523-0.17-1.046-0.266-1.571
				c-0.137-0.745-0.336-1.472-0.426-2.229c-0.139-1.197-0.213-2.413-0.316-3.617c-0.017-0.225-0.021-0.459-0.083-0.672
				c-0.03-0.121-0.165-0.216-0.253-0.308c0-2.937,0-5.862,0-8.784c0.307-0.109,0.293-0.387,0.307-0.623
				c0.039-0.469,0.036-0.949,0.063-1.42c0.014-0.288,0.035-0.574,0.075-0.855c0.13-0.938,0.272-1.867,0.407-2.805
				c0.109-0.704,0.208-1.419,0.322-2.124c0.075-0.459,0.165-0.921,0.271-1.38c0.13-0.551,0.286-1.106,0.428-1.662
				c0.209-0.828,0.384-1.676,0.623-2.496c0.288-0.992,0.622-1.988,0.943-2.981c0.275-0.831,0.523-1.663,0.842-2.475
				c0.472-1.206,0.969-2.421,1.51-3.599c0.678-1.475,1.367-2.957,2.139-4.372c0.748-1.38,1.616-2.692,2.404-4.046
				c0.946-1.613,2.051-3.125,3.18-4.613c2.018-2.666,4.237-5.152,6.644-7.48c1.4-1.356,2.829-2.679,4.358-3.896
				c1.41-1.099,2.848-2.166,4.314-3.189c1.283-0.899,2.594-1.761,3.947-2.544c1.845-1.076,3.705-2.124,5.678-2.955
				c1.327-0.556,2.636-1.151,3.961-1.696c0.87-0.359,1.76-0.662,2.645-0.984c0.554-0.191,1.107-0.402,1.676-0.563
				c1.078-0.301,2.162-0.568,3.24-0.843c0.379-0.099,0.762-0.175,1.134-0.265c0.558-0.143,1.104-0.322,1.668-0.431
				c1.229-0.213,2.475-0.393,3.71-0.61c1.442-0.244,2.886-0.447,4.353-0.469c0.185-0.01,0.372-0.01,0.549-0.043
				C77.403,11.113,77.513,11.004,77.631,10.928z M125.479,115.643c0.438-0.563,0.8-1.078,1.211-1.554
				c1.902-2.213,3.545-4.614,5.082-7.091c0.63-1.013,1.179-2.089,1.746-3.145c0.384-0.717,0.738-1.445,1.081-2.19
				c0.405-0.854,0.816-1.708,1.174-2.579c0.409-1.026,0.765-2.077,1.143-3.111c0.221-0.62,0.454-1.226,0.663-1.843
				c0.193-0.575,0.381-1.152,0.534-1.753c0.13-0.514,0.203-1.034,0.308-1.548c0.095-0.449,0.199-0.885,0.301-1.315
				c0.156-0.705,0.345-1.384,0.473-2.089c0.168-0.911,0.308-1.824,0.431-2.742c0.135-0.984,0.266-1.966,0.344-2.947
				c0.09-1.152,0.151-2.303,0.165-3.457c0.023-1.438,0.055-2.884-0.038-4.322c-0.095-1.432-0.099-2.884-0.386-4.304
				c-0.087-0.414-0.115-0.85-0.187-1.277c-0.198-1.112-0.393-2.231-0.605-3.332c-0.071-0.383-0.175-0.759-0.256-1.143
				c-0.106-0.522-0.17-1.048-0.305-1.561c-0.196-0.723-0.452-1.428-0.677-2.145c-0.289-0.937-0.516-1.896-0.871-2.806
				c-0.622-1.59-1.327-3.146-1.98-4.72c-0.778-1.877-1.788-3.637-2.824-5.387c-0.79-1.358-1.666-2.646-2.564-3.928
				c-1.146-1.643-2.371-3.203-3.682-4.706c-2.38-2.732-4.997-5.21-7.848-7.452c-1.824-1.43-3.724-2.757-5.694-3.973
				c-2.205-1.342-4.493-2.541-6.861-3.572c-1.155-0.502-2.338-0.93-3.516-1.392c-0.512-0.188-1.034-0.351-1.553-0.521
				c-1.05-0.331-2.096-0.686-3.156-0.981c-0.804-0.234-1.632-0.396-2.45-0.575c-1.061-0.246-2.113-0.504-3.18-0.684
				c-1.172-0.206-2.353-0.367-3.53-0.48c-1.207-0.127-2.418-0.182-3.63-0.27c-2.683-0.189-5.349,0.238-8.027,0.248
				c-0.692,0.01-1.384,0.158-2.074,0.258c-0.038,0.01-0.081,0.018-0.121,0.018c-0.868,0.153-1.733,0.291-2.603,0.439
				c-0.584,0.098-1.171,0.191-1.753,0.322c-0.653,0.148-1.311,0.305-1.959,0.489c-1.067,0.298-2.13,0.594-3.189,0.915
				c-0.657,0.194-1.311,0.42-1.966,0.633c-0.575,0.188-1.162,0.373-1.725,0.598c-0.715,0.287-1.41,0.63-2.115,0.939
				c-0.828,0.353-1.691,0.639-2.473,1.074c-1.98,1.114-4.039,2.094-5.91,3.397c-1.102,0.757-2.227,1.503-3.3,2.307
				c-1.015,0.745-1.983,1.557-2.972,2.335c-0.452,0.362-0.431,0.482-0.033,0.861c0.852,0.859,1.703,1.703,2.551,2.553
				c4.959,4.987,9.918,9.971,14.871,14.967c4.775,4.811,9.545,9.629,14.319,14.453c5.573,5.621,11.143,11.248,16.715,16.874
				c3.599,3.636,7.194,7.259,10.793,10.897c7.207,7.287,14.418,14.568,21.622,21.86
				C125.149,115.333,125.313,115.486,125.479,115.643z M120.297,121.463c-0.104-0.215-0.213-0.331-0.201-0.426
				c0.06-0.383-0.165-0.589-0.406-0.833c-1.947-1.935-3.873-3.875-5.804-5.82c-0.762-0.766-1.519-1.525-2.285-2.28
				c-0.143-0.13-0.322-0.301-0.497-0.321c-0.279-0.013-0.445-0.149-0.625-0.334c-1.492-1.502-2.995-3.007-4.49-4.512
				c-0.83-0.838-1.663-1.663-2.484-2.498c-0.113-0.119-0.284-0.365-0.268-0.374c0.279-0.274-0.065-0.384-0.16-0.479
				c-1.356-1.379-2.729-2.723-4.094-4.088c-3.09-3.085-6.177-6.17-9.262-9.253c-3.102-3.097-6.201-6.206-9.298-9.31
				c-3.635-3.639-7.238-7.292-10.893-10.897c-1.664-1.633-3.309-3.288-5.012-4.879c-1.918-1.793-3.742-3.714-5.536-5.636
				c-2.229-2.4-4.62-4.65-6.937-6.981c-4.4-4.405-8.801-8.825-13.199-13.232c-0.131-0.128-0.266-0.27-0.404-0.386
				c-0.204-0.182-0.384-0.182-0.559,0.066c-0.201,0.266-0.426,0.532-0.644,0.814c-0.738,0.922-1.517,1.809-2.196,2.779
				c-1.449,2.054-2.9,4.121-4.055,6.364c-0.454,0.885-0.955,1.761-1.389,2.657c-0.516,1.057-0.991,2.134-1.45,3.213
				c-0.321,0.769-0.601,1.557-0.88,2.35c-0.313,0.861-0.615,1.727-0.906,2.592c-0.209,0.618-0.407,1.238-0.566,1.865
				c-0.132,0.522-0.195,1.048-0.307,1.57c-0.09,0.414-0.209,0.821-0.311,1.24c-0.139,0.554-0.305,1.109-0.404,1.663
				c-0.175,1.015-0.331,2.037-0.463,3.054c-0.133,0.982-0.254,1.965-0.332,2.946c-0.092,1.176-0.143,2.349-0.201,3.521
				c-0.025,0.535-0.08,1.069-0.055,1.604c0.081,1.853,0.189,3.701,0.294,5.549c0.007,0.127,0.038,0.258,0.052,0.371
				c0.143,0.996,0.274,1.999,0.426,3.002c0.068,0.436,0.17,0.885,0.256,1.332c0.189,1.008,0.367,2.009,0.568,3.012
				c0.078,0.394,0.193,0.791,0.309,1.172c0.121,0.442,0.264,0.854,0.389,1.291c0.199,0.685,0.355,1.38,0.59,2.054
				c0.383,1.098,0.801,2.188,1.239,3.266c0.521,1.289,1.005,2.614,1.635,3.852c0.948,1.866,1.954,3.705,3.042,5.491
				c0.966,1.575,2.037,3.09,3.141,4.575c1.402,1.889,2.961,3.648,4.599,5.338c2.165,2.217,4.481,4.277,6.989,6.104
				c1.149,0.843,2.328,1.633,3.511,2.423c1.978,1.311,4.069,2.441,6.213,3.457c1.308,0.622,2.64,1.188,3.983,1.718
				c1.032,0.418,2.097,0.759,3.156,1.114c0.682,0.222,1.373,0.401,2.068,0.596c1.199,0.326,2.398,0.66,3.61,0.961
				c0.615,0.135,1.254,0.201,1.876,0.31c0.57,0.083,1.133,0.189,1.701,0.274c0.928,0.154,1.854,0.322,2.792,0.431
				c0.918,0.095,1.843,0.18,2.763,0.201c1.647,0.033,3.303,0.023,4.95-0.012c1.106-0.019,2.219-0.083,3.328-0.168
				c0.859-0.08,1.711-0.206,2.567-0.313c0.459-0.063,0.925-0.14,1.391-0.215c0.648-0.093,1.307-0.154,1.945-0.296
				c0.895-0.204,1.779-0.447,2.669-0.672c0.955-0.246,1.906-0.495,2.853-0.758c0.665-0.193,1.325-0.395,1.983-0.622
				c0.61-0.21,1.221-0.423,1.826-0.657c0.698-0.268,1.396-0.549,2.082-0.845c1.055-0.449,2.141-0.833,3.137-1.387
				c1.934-1.069,3.916-2.051,5.754-3.288c1.771-1.207,3.542-2.39,5.163-3.778C119.048,121.683,119.528,121.314,120.297,121.463z"/>
		</g>
	</g>
</g>
</svg>
