<?xml version="1.0" encoding="utf-8"?>
<!-- Generator: Adobe Illustrator 16.0.3, SVG Export Plug-In . SVG Version: 6.00 Build 0)  -->
<!DOCTYPE svg PUBLIC "-//W3C//DTD SVG 1.1//EN" "http://www.w3.org/Graphics/SVG/1.1/DTD/svg11.dtd">
<svg version="1.1" id="Layer_1" xmlns="http://www.w3.org/2000/svg" xmlns:xlink="http://www.w3.org/1999/xlink" x="0px" y="0px"
	 width="150px" height="188.283px" viewBox="0 -18.21 150 188.283" enable-background="new 0 -18.21 150 188.283"
	 xml:space="preserve">
<g>
	<path fill="#F3726A" d="M117.014,1754.814c-0.445,0-0.885-0.037-1.313-0.111l1.313,3.104l1.315-3.104
		C117.898,1754.777,117.459,1754.814,117.014,1754.814z"/>
	<path fill="#F3726A" d="M134.908,1758.674c-1.596,0-2.895,1.297-2.895,2.893c0,1.598,1.299,2.896,2.895,2.896
		s2.895-1.299,2.895-2.896C137.803,1759.971,136.504,1758.674,134.908,1758.674z M134.908,1762.531
		c-0.533,0-0.965-0.434-0.965-0.965c0-0.533,0.432-0.965,0.965-0.965s0.965,0.432,0.965,0.965
		C135.873,1762.099,135.441,1762.531,134.908,1762.531z"/>
	<path fill="#F3726A" d="M123.268,1725.057c-13.808,0-25,11.191-25,25c0,13.807,11.192,25,25,25c13.809,0,25-11.193,25-25
		C148.268,1736.248,137.074,1725.057,123.268,1725.057z M134.908,1766.392c-2.66,0-4.824-2.163-4.824-4.823
		c0-2.328,1.66-4.277,3.859-4.729v-2.282c0-1.985-1.615-3.601-3.604-3.601c-1.984,0-3.604,1.613-3.604,3.601v6.616
		c0,2.947-2.396,5.345-5.346,5.345c-2.947,0-5.346-2.396-5.346-5.345v-0.696l-2.813-6.642c-0.313-0.174-0.619-0.371-0.91-0.592
		c-1.362-1.025-2.329-2.438-2.799-4.076l-2.562-8.96c-0.362-1.274-0.112-2.61,0.685-3.666c0.797-1.058,2.014-1.663,3.336-1.663
		h0.562v-0.321c0-0.532,0.433-0.965,0.965-0.965c0.533,0,0.966,0.433,0.966,0.965v2.571c0,0.533-0.433,0.965-0.966,0.965
		c-0.532,0-0.965-0.432-0.965-0.965v-0.321h-0.562c-0.711,0-1.366,0.327-1.797,0.896c-0.43,0.566-0.563,1.29-0.367,1.975
		l2.562,8.961c0.716,2.5,3.029,4.246,5.632,4.246c2.6,0,4.916-1.746,5.631-4.246l2.562-8.962c0.194-0.685,0.062-1.405-0.368-1.974
		c-0.429-0.569-1.083-0.896-1.797-0.896h-0.561v0.321c0,0.533-0.434,0.965-0.965,0.965c-0.533,0-0.966-0.432-0.966-0.965v-2.571
		c0-0.532,0.433-0.965,0.966-0.965c0.531,0,0.965,0.433,0.965,0.965v0.321h0.561c1.322,0,2.54,0.605,3.337,1.663
		c0.798,1.056,1.046,2.392,0.685,3.666l-2.562,8.96c-0.47,1.641-1.438,3.051-2.799,4.076c-0.291,0.221-0.597,0.418-0.909,0.592
		l-2.813,6.642v0.696c0,1.884,1.531,3.416,3.416,3.416s3.418-1.532,3.418-3.416v-6.616c0-3.049,2.479-5.528,5.528-5.528
		c3.052,0,5.531,2.479,5.531,5.528v2.282c2.198,0.449,3.856,2.398,3.856,4.729C139.73,1764.229,137.566,1766.392,134.908,1766.392z"
		/>
</g>
<g>
	<path fill="#F3726A" d="M117.014,1754.814c-0.445,0-0.885-0.037-1.313-0.111l1.313,3.104l1.315-3.104
		C117.898,1754.777,117.459,1754.814,117.014,1754.814z"/>
	<path fill="#F3726A" d="M134.908,1758.674c-1.596,0-2.895,1.297-2.895,2.893c0,1.598,1.299,2.896,2.895,2.896
		s2.895-1.299,2.895-2.896C137.803,1759.971,136.504,1758.674,134.908,1758.674z M134.908,1762.531
		c-0.533,0-0.965-0.434-0.965-0.965c0-0.533,0.432-0.965,0.965-0.965s0.965,0.432,0.965,0.965
		C135.873,1762.099,135.441,1762.531,134.908,1762.531z"/>
	<path fill="#F3726A" d="M123.268,1725.057c-13.808,0-25,11.191-25,25c0,13.807,11.192,25,25,25c13.809,0,25-11.193,25-25
		C148.268,1736.248,137.074,1725.057,123.268,1725.057z M134.908,1766.392c-2.66,0-4.824-2.163-4.824-4.823
		c0-2.328,1.66-4.277,3.859-4.729v-2.282c0-1.985-1.615-3.601-3.604-3.601c-1.984,0-3.604,1.613-3.604,3.601v6.616
		c0,2.947-2.396,5.345-5.346,5.345c-2.947,0-5.346-2.396-5.346-5.345v-0.696l-2.813-6.642c-0.313-0.174-0.619-0.371-0.91-0.592
		c-1.362-1.025-2.329-2.438-2.799-4.076l-2.562-8.96c-0.362-1.274-0.112-2.61,0.685-3.666c0.797-1.058,2.014-1.663,3.336-1.663
		h0.562v-0.321c0-0.532,0.433-0.965,0.965-0.965c0.533,0,0.966,0.433,0.966,0.965v2.571c0,0.533-0.433,0.965-0.966,0.965
		c-0.532,0-0.965-0.432-0.965-0.965v-0.321h-0.562c-0.711,0-1.366,0.327-1.797,0.896c-0.43,0.566-0.563,1.29-0.367,1.975
		l2.562,8.961c0.716,2.5,3.029,4.246,5.632,4.246c2.6,0,4.916-1.746,5.631-4.246l2.562-8.962c0.194-0.685,0.062-1.405-0.368-1.974
		c-0.429-0.569-1.083-0.896-1.797-0.896h-0.561v0.321c0,0.533-0.434,0.965-0.965,0.965c-0.533,0-0.966-0.432-0.966-0.965v-2.571
		c0-0.532,0.433-0.965,0.966-0.965c0.531,0,0.965,0.433,0.965,0.965v0.321h0.561c1.322,0,2.54,0.605,3.337,1.663
		c0.798,1.056,1.046,2.392,0.685,3.666l-2.562,8.96c-0.47,1.641-1.438,3.051-2.799,4.076c-0.291,0.221-0.597,0.418-0.909,0.592
		l-2.813,6.642v0.696c0,1.884,1.531,3.416,3.416,3.416s3.418-1.532,3.418-3.416v-6.616c0-3.049,2.479-5.528,5.528-5.528
		c3.052,0,5.531,2.479,5.531,5.528v2.282c2.198,0.449,3.856,2.398,3.856,4.729C139.73,1764.229,137.566,1766.392,134.908,1766.392z"
		/>
</g>
<g>
	<g>
		<g>
			<rect x="53.985" y="76.818" fill="#FBBF9E" width="39.572" height="45.385"/>
			<path fill="#F7996E" d="M53.985,105.361c30.535,0,40.521-16.209,40.521-16.209l-40.31-0.512
				C54.439,93.089,53.985,95.1,53.985,105.361z"/>
			<path fill="#263238" d="M31.503,50.124c-0.175-0.61-6.54-25.443,8.365-48.736C51.946-17.488,76.546-23.7,94.219-12.967
				c17.76,10.784,35.524,30.705,18.639,64.281L31.503,50.124z"/>
			<path fill="#263238" d="M42.55,22.54c0,0-9.886-4.747-20.983,0C10.47,27.287,2.391,47.493,7.364,66.365
				c4.972,18.876-11.809,19.191-4.039,34.326c2.754,5.367,39.225,9.934,40.471-10.969c0.771-12.955-10.952-13.595-7.535-27.665
				C39.68,47.979,42.55,22.54,42.55,22.54z"/>
			<path fill="#263238" d="M109.922,20.104c0,0,9.883-5.347,20.98,0c11.1,5.342,19.178,28.095,14.205,49.342
				c-4.971,21.251,11.81,21.613,4.041,38.654c-2.756,6.047-39.228,11.188-40.473-12.351c-0.773-14.585,10.95-15.306,7.534-31.15
				C112.793,48.754,109.922,20.104,109.922,20.104z"/>
			<path fill="#FBBF9E" d="M111.803,55.571c0,22.478-16.775,40.699-37.461,40.699c-20.689,0-37.463-18.221-37.463-40.699
				c0-22.482,16.773-40.708,37.463-40.708C95.025,14.862,111.803,33.088,111.803,55.571z"/>
			<path fill="#263238" d="M73.74,15.337c0,0,9.963,26.759,42.985,38.063c13.129,4.496,6.361-38.758-21.08-48.481
				c-27.432-9.723-50.84-4.466-65.97,19.311c-9.11,14.315,7.883,18.991,7.883,18.991S50.147,11.536,73.74,15.337z"/>
			<path fill="#F3725F" d="M124.764,163.986c-9.518,9.203-100.674,6.843-100.137,0.359c0.429-5.105-2.266,8.413,4.504-34.396
				c1.861-11.739-10.919-13.896,0.72-15.49c1.968-0.274,21.756-7.213,24.061-7.438c-0.493,5.263,7.513,10.664,16.578,12.465
				c12.069,2.381,22.397-5.938,23.108-11.129c9.446,1.99,14.941,2.726,22.438,5.892c8.226,3.485,13.127,12.13,11.937,21.077
				l-2.266,16.9C125.707,152.229,125.242,163.518,124.764,163.986z"/>
			<path fill="#F3725F" d="M2.017,153.829c0,0,17.529,16.305,44.557,13.774c0,0,13.32-47.201-8.039-52.998
				C17.176,108.813-0.473,136.793,2.017,153.829z"/>
			<path fill="#F3725F" d="M146.254,153.829c0,0-17.525,16.305-44.559,13.774c0,0-13.318-47.201,8.039-52.998
				C131.094,108.813,148.744,136.793,146.254,153.829z"/>
		</g>
		<g>
			<path fill="#263238" d="M58.174,40.186c0.59,0.04,1.183,0.065,1.774,0.12c2.175,0.195,4.203,0.866,6.121,1.891
				c1.063,0.565,1.505,1.561,1.158,2.536c-0.406,1.13-1.604,1.565-2.811,1.015c-0.707-0.32-1.399-0.685-2.127-0.945
				c-2.631-0.945-5.237-0.875-7.796,0.305c-0.575,0.27-1.166,0.505-1.752,0.75c-1.089,0.45-2.043,0.115-2.628-0.92
				c-0.06-0.105-0.129-0.21-0.193-0.315c-0.025-0.26-0.05-0.51-0.075-0.765c0.188-0.605,0.537-1.08,1.084-1.405
				c1.118-0.675,2.29-1.23,3.545-1.591c0.595-0.175,1.195-0.325,1.795-0.485C56.903,40.316,57.537,40.251,58.174,40.186z"/>
		</g>
		<path fill="#263238" d="M60.122,58.297c-2.688,0.085-5.018-1.521-5.387-4.417c-0.21-1.65,0.046-3.291,0.549-4.862
			c0.664-2.081,2.888-3.401,5.089-3.161c1.063,0.12,1.754,0.845,1.773,1.855c0.019,1.061-0.658,1.84-1.728,1.991
			c-0.264,0.04-0.529,0.075-0.791,0.125c-0.424,0.08-0.709,0.345-0.758,0.76c-0.111,0.93-0.199,1.871-0.245,2.811
			c-0.023,0.465,0.433,0.89,0.894,0.95c0.55,0.065,1.044-0.2,1.157-0.72c0.146-0.68,0.211-1.38,0.325-2.076
			c0.129-0.78,0.506-1.396,1.302-1.636c0.764-0.235,1.464-0.085,2.047,0.48c0.346,0.34,0.545,0.77,0.501,1.24
			c-0.124,1.28-0.234,2.571-0.726,3.776C63.364,57.282,61.891,58.142,60.122,58.297z"/>
		<path fill="#263238" d="M84.924,52.875c0.152-1.146,0.221-2.316,0.473-3.436c0.487-2.211,2.418-3.761,4.664-3.826
			c0.426-0.015,0.871,0.065,1.271,0.21c0.756,0.28,1.181,0.995,1.163,1.806c-0.02,0.755-0.479,1.42-1.223,1.686
			c-0.355,0.125-0.74,0.185-1.115,0.25c-0.557,0.09-0.91,0.365-0.977,0.95c-0.095,0.825-0.209,1.646-0.26,2.471
			c-0.04,0.625,0.412,1.13,0.965,1.181c0.578,0.055,1.075-0.315,1.186-0.956c0.105-0.575,0.136-1.165,0.214-1.74
			c0.122-0.96,0.728-1.671,1.543-1.836c1.058-0.22,2.126,0.37,2.233,1.436c0.191,1.961,0.06,3.906-1.418,5.437
			c-1.475,1.521-3.291,1.976-5.291,1.28c-2.018-0.7-3.098-2.216-3.354-4.332c-0.018-0.14-0.02-0.28-0.029-0.42
			c-0.003-0.05,0-0.1,0-0.15C84.953,52.88,84.938,52.875,84.924,52.875z"/>
	</g>
	<path fill="#263238" d="M75.533,80.794c-3.788-0.055-7.292-1.08-10.568-2.886c-1.392-0.766-1.811-2.035-1.198-3.281
		c0.651-1.326,2.013-1.851,3.425-1.09c5.544,2.996,11.039,3.011,16.587,0.01c1.412-0.765,2.783-0.25,3.435,1.061
		c0.62,1.246,0.222,2.516-1.17,3.287C82.771,79.729,79.268,80.729,75.533,80.794z"/>
	<g>
		<path fill="#263238" d="M90.939,40.646c-0.59,0-1.181-0.015-1.777,0c-2.184,0.045-4.254,0.575-6.23,1.471
			c-1.104,0.5-1.609,1.46-1.328,2.456c0.33,1.161,1.494,1.67,2.737,1.206c0.728-0.275,1.44-0.59,2.183-0.8
			c2.691-0.775,5.287-0.525,7.759,0.825c0.556,0.305,1.131,0.585,1.7,0.865c1.056,0.525,2.031,0.25,2.682-0.74
			c0.066-0.105,0.141-0.2,0.215-0.3c0.04-0.255,0.085-0.505,0.125-0.76c-0.145-0.615-0.46-1.115-0.984-1.48
			c-1.07-0.74-2.201-1.375-3.432-1.825c-0.586-0.21-1.173-0.396-1.759-0.601C92.201,40.861,91.572,40.751,90.939,40.646z"/>
	</g>
</g>
</svg>
