<?xml version="1.0" encoding="utf-8"?>
<!-- Generator: Adobe Illustrator 16.0.3, SVG Export Plug-In . SVG Version: 6.00 Build 0)  -->
<!DOCTYPE svg PUBLIC "-//W3C//DTD SVG 1.1//EN" "http://www.w3.org/Graphics/SVG/1.1/DTD/svg11.dtd">
<svg version="1.1" id="Layer_1" xmlns="http://www.w3.org/2000/svg" xmlns:xlink="http://www.w3.org/1999/xlink" x="0px" y="0px"
	 width="150px" height="150px" viewBox="0 0 150 150" enable-background="new 0 0 150 150" xml:space="preserve">
<g>
	<path fill="#F3726A" d="M117.014,1754.814c-0.445,0-0.885-0.037-1.314-0.111l1.314,3.105l1.315-3.105
		C117.898,1754.777,117.459,1754.814,117.014,1754.814z"/>
	<path fill="#F3726A" d="M134.908,1758.674c-1.596,0-2.895,1.297-2.895,2.893s1.299,2.895,2.895,2.895s2.895-1.299,2.895-2.895
		S136.504,1758.674,134.908,1758.674z M134.908,1762.531c-0.533,0-0.965-0.432-0.965-0.965s0.432-0.965,0.965-0.965
		s0.965,0.432,0.965,0.965S135.441,1762.531,134.908,1762.531z"/>
	<path fill="#F3726A" d="M123.268,1725.057c-13.808,0-25,11.191-25,25c0,13.805,11.192,25,25,25c13.807,0,25-11.195,25-25
		C148.268,1736.248,137.074,1725.057,123.268,1725.057z M134.908,1766.392c-2.66,0-4.824-2.164-4.824-4.825
		c0-2.328,1.66-4.277,3.859-4.727v-2.282c0-1.987-1.615-3.601-3.602-3.601c-1.985,0-3.602,1.613-3.602,3.601v6.616
		c0,2.947-2.397,5.345-5.346,5.345c-2.947,0-5.346-2.397-5.346-5.345v-0.696l-2.813-6.642c-0.313-0.174-0.618-0.371-0.909-0.592
		c-1.363-1.025-2.33-2.436-2.799-4.076l-2.561-8.96c-0.363-1.274-0.113-2.61,0.683-3.666c0.798-1.058,2.014-1.663,3.337-1.663h0.561
		v-0.321c0-0.533,0.433-0.965,0.965-0.965c0.533,0,0.965,0.432,0.965,0.965v2.571c0,0.533-0.432,0.965-0.965,0.965
		c-0.532,0-0.965-0.432-0.965-0.965v-0.321h-0.561c-0.712,0-1.367,0.327-1.797,0.896c-0.429,0.568-0.563,1.29-0.367,1.975
		l2.561,8.961c0.715,2.5,3.029,4.246,5.631,4.246c2.601,0,4.916-1.746,5.631-4.246l2.561-8.962c0.195-0.685,0.061-1.405-0.368-1.974
		s-1.083-0.896-1.797-0.896h-0.56v0.321c0,0.533-0.433,0.965-0.965,0.965c-0.533,0-0.965-0.432-0.965-0.965v-2.571
		c0-0.533,0.432-0.965,0.965-0.965c0.532,0,0.965,0.432,0.965,0.965v0.321h0.56c1.323,0,2.54,0.605,3.337,1.663
		c0.798,1.056,1.046,2.392,0.683,3.666l-2.56,8.96c-0.469,1.641-1.438,3.051-2.799,4.076c-0.291,0.221-0.596,0.418-0.909,0.592
		l-2.813,6.642v0.696c0,1.884,1.532,3.416,3.416,3.416c1.885,0,3.417-1.532,3.417-3.416v-6.616c0-3.049,2.481-5.53,5.53-5.53
		c3.05,0,5.531,2.481,5.531,5.53v2.282c2.199,0.449,3.857,2.398,3.857,4.727C139.73,1764.228,137.567,1766.392,134.908,1766.392z"/>
</g>
<g>
	<path fill="#F3726A" d="M117.014,1754.814c-0.445,0-0.885-0.037-1.314-0.111l1.314,3.105l1.315-3.105
		C117.898,1754.777,117.459,1754.814,117.014,1754.814z"/>
	<path fill="#F3726A" d="M134.908,1758.674c-1.596,0-2.895,1.297-2.895,2.893s1.299,2.895,2.895,2.895s2.895-1.299,2.895-2.895
		S136.504,1758.674,134.908,1758.674z M134.908,1762.531c-0.533,0-0.965-0.432-0.965-0.965s0.432-0.965,0.965-0.965
		s0.965,0.432,0.965,0.965S135.441,1762.531,134.908,1762.531z"/>
	<path fill="#F3726A" d="M123.268,1725.057c-13.808,0-25,11.191-25,25c0,13.805,11.192,25,25,25c13.807,0,25-11.195,25-25
		C148.268,1736.248,137.074,1725.057,123.268,1725.057z M134.908,1766.392c-2.66,0-4.824-2.164-4.824-4.825
		c0-2.328,1.66-4.277,3.859-4.727v-2.282c0-1.987-1.615-3.601-3.602-3.601c-1.985,0-3.602,1.613-3.602,3.601v6.616
		c0,2.947-2.397,5.345-5.346,5.345c-2.947,0-5.346-2.397-5.346-5.345v-0.696l-2.813-6.642c-0.313-0.174-0.618-0.371-0.909-0.592
		c-1.363-1.025-2.33-2.436-2.799-4.076l-2.561-8.96c-0.363-1.274-0.113-2.61,0.683-3.666c0.798-1.058,2.014-1.663,3.337-1.663h0.561
		v-0.321c0-0.533,0.433-0.965,0.965-0.965c0.533,0,0.965,0.432,0.965,0.965v2.571c0,0.533-0.432,0.965-0.965,0.965
		c-0.532,0-0.965-0.432-0.965-0.965v-0.321h-0.561c-0.712,0-1.367,0.327-1.797,0.896c-0.429,0.568-0.563,1.29-0.367,1.975
		l2.561,8.961c0.715,2.5,3.029,4.246,5.631,4.246c2.601,0,4.916-1.746,5.631-4.246l2.561-8.962c0.195-0.685,0.061-1.405-0.368-1.974
		s-1.083-0.896-1.797-0.896h-0.56v0.321c0,0.533-0.433,0.965-0.965,0.965c-0.533,0-0.965-0.432-0.965-0.965v-2.571
		c0-0.533,0.432-0.965,0.965-0.965c0.532,0,0.965,0.432,0.965,0.965v0.321h0.56c1.323,0,2.54,0.605,3.337,1.663
		c0.798,1.056,1.046,2.392,0.683,3.666l-2.56,8.96c-0.469,1.641-1.438,3.051-2.799,4.076c-0.291,0.221-0.596,0.418-0.909,0.592
		l-2.813,6.642v0.696c0,1.884,1.532,3.416,3.416,3.416c1.885,0,3.417-1.532,3.417-3.416v-6.616c0-3.049,2.481-5.53,5.53-5.53
		c3.05,0,5.531,2.481,5.531,5.53v2.282c2.199,0.449,3.857,2.398,3.857,4.727C139.73,1764.228,137.567,1766.392,134.908,1766.392z"/>
</g>
<g>
	<path fill-rule="evenodd" clip-rule="evenodd" fill="#F3726A" d="M49.593,0.245c2.444,0,4.888,0,7.324,0
		c0.423,0.085,0.843,0.218,1.278,0.256C67,1.364,75.14,4.2,82.387,9.244c12.332,8.571,20.052,20.227,22.655,35.124
		c1.624,9.271,0.816,18.354-2.455,27.182c-1.038,2.806-2.358,5.518-3.575,8.323c0.284,0.022,0.571,0.062,0.844,0.069
		c6.597,0.171,13.133,0.87,19.563,2.347c8.338,1.92,16.304,4.686,23.006,10.234c4.693,3.886,7.538,8.695,7.366,15.044
		c-0.14,5.27,0.008,10.546-0.05,15.814c-0.016,1.398-0.171,2.836-0.513,4.181c-1.349,5.393-5.001,9.068-9.423,12.029
		c-8.656,5.805-18.49,8.275-28.65,9.713c-2.643,0.373-5.3,0.614-7.958,0.909c-4.103,0-8.202,0-12.305,0
		c-0.369-0.093-0.738-0.21-1.115-0.264c-5.055-0.707-10.164-1.127-15.161-2.16c-8.505-1.749-16.591-4.694-23.386-10.366
		c-4.592-3.816-7.378-8.563-7.223-14.796c0.132-5.261,0.008-10.529,0.047-15.798c0.008-0.933-0.202-1.329-1.216-1.531
		c-10.203-2.005-19.081-6.613-26.584-13.801C8.94,84.48,3.943,76.072,1.484,66.235c-0.73-2.914-1.13-5.914-1.686-8.875
		c0-2.533,0-5.074,0-7.615c0.089-0.513,0.163-1.034,0.276-1.554c0.835-3.885,1.36-7.887,2.58-11.656
		c3.007-9.364,8.513-17.15,15.977-23.515c5.902-5.028,12.562-8.742,20.087-10.693C42.285,1.411,45.968,0.929,49.593,0.245z
		 M80.618,18.949C62.847,4.208,35.54,5.723,19.065,25.228C3.322,43.862,7.204,68.154,18.654,80.906
		C39.285,60.282,59.921,39.643,80.618,18.949z M25.107,87.526c-0.016-0.03,0.02,0.078,0.085,0.133
		c6.112,4.966,13.071,8.043,20.845,9.208c0.56,0.086,1.415-0.311,1.787-0.77c2.157-2.649,4.752-4.763,7.654-6.512
		c8.501-5.129,17.924-7.468,27.634-8.734c5.066-0.66,5.116-0.442,7.525-4.623c7.623-13.273,8.428-26.989,2.487-41.077
		c-1.5-3.543-3.524-6.799-5.969-9.683C66.433,46.194,45.782,66.849,25.107,87.526z M112.272,122.659
		c-0.641-0.49-1.01-0.785-1.398-1.065c-12.662-9.045-25.36-18.043-37.945-27.189c-1.927-1.407-3.474-1.726-5.642-0.77
		c-3.986,1.748-7.926,3.513-11.163,6.527c-4.227,3.947-4.371,7.896-0.249,11.975c3.688,3.66,8.338,5.688,13.16,7.359
		c7.938,2.751,16.163,3.924,24.528,4.267C99.723,124.019,105.839,123.599,112.272,122.659z M81.772,89.936
		c2.109,1.508,3.886,2.774,5.673,4.049c11.741,8.393,23.479,16.785,35.24,25.162c0.49,0.342,1.31,0.691,1.803,0.521
		c4.488-1.531,8.793-3.474,12.469-6.559c5.241-4.383,5.292-8.968,0.159-13.506c-3.493-3.093-7.654-4.988-11.994-6.52
		c-8.206-2.898-16.73-4.025-25.392-4.313C93.825,88.576,87.958,88.987,81.772,89.936z M52.865,121.609
		c-0.412,3.108,0.61,5.805,2.938,8.066c3.077,2.977,6.769,4.911,10.693,6.458c8.14,3.201,16.648,4.654,25.364,5.098
		c11.345,0.574,22.488-0.475,33.274-4.196c5.047-1.757,9.842-4.01,13.533-8.066c1.95-2.137,2.622-4.64,2.202-7.592
		c-1.371,0.847-2.567,1.67-3.838,2.378c-9.831,5.432-20.535,7.685-31.593,8.571c-6.718,0.536-13.451,0.419-20.161-0.312
		c-7.725-0.847-15.301-2.362-22.462-5.471C59.443,125.075,56.218,123.28,52.865,121.609z"/>
</g>
</svg>
