<?xml version="1.0" encoding="utf-8"?>
<!-- Generator: Adobe Illustrator 16.0.3, SVG Export Plug-In . SVG Version: 6.00 Build 0)  -->
<!DOCTYPE svg PUBLIC "-//W3C//DTD SVG 1.1//EN" "http://www.w3.org/Graphics/SVG/1.1/DTD/svg11.dtd">
<svg version="1.1" id="Layer_1" xmlns="http://www.w3.org/2000/svg" xmlns:xlink="http://www.w3.org/1999/xlink" x="0px" y="0px"
	 width="150px" height="150px" viewBox="0 0 150 150" enable-background="new 0 0 150 150" xml:space="preserve">
<g>
	<path fill="#F3726A" d="M117.014,1754.814c-0.445,0-0.885-0.037-1.313-0.111l1.313,3.104l1.315-3.104
		C117.898,1754.777,117.459,1754.814,117.014,1754.814z"/>
	<path fill="#F3726A" d="M134.908,1758.674c-1.596,0-2.895,1.297-2.895,2.893c0,1.597,1.299,2.896,2.895,2.896
		s2.895-1.299,2.895-2.896C137.803,1759.971,136.504,1758.674,134.908,1758.674z M134.908,1762.531
		c-0.533,0-0.965-0.433-0.965-0.965c0-0.533,0.432-0.965,0.965-0.965s0.965,0.432,0.965,0.965
		C135.873,1762.099,135.441,1762.531,134.908,1762.531z"/>
	<path fill="#F3726A" d="M123.268,1725.057c-13.808,0-25,11.191-25,25c0,13.806,11.192,25,25,25s25-11.194,25-25
		C148.268,1736.248,137.074,1725.057,123.268,1725.057z M134.908,1766.392c-2.66,0-4.824-2.163-4.824-4.824
		c0-2.328,1.66-4.277,3.859-4.728v-2.282c0-1.986-1.615-3.601-3.603-3.601c-1.985,0-3.603,1.613-3.603,3.601v6.616
		c0,2.947-2.396,5.345-5.346,5.345c-2.947,0-5.346-2.396-5.346-5.345v-0.696l-2.813-6.642c-0.313-0.174-0.618-0.371-0.909-0.592
		c-1.363-1.025-2.33-2.437-2.8-4.076l-2.561-8.96c-0.363-1.274-0.113-2.61,0.684-3.666c0.797-1.058,2.014-1.663,3.336-1.663h0.562
		v-0.321c0-0.532,0.433-0.965,0.965-0.965c0.533,0,0.966,0.433,0.966,0.965v2.571c0,0.533-0.433,0.965-0.966,0.965
		c-0.532,0-0.965-0.432-0.965-0.965v-0.321h-0.562c-0.711,0-1.366,0.327-1.797,0.896c-0.429,0.567-0.563,1.29-0.367,1.975
		l2.562,8.961c0.716,2.5,3.029,4.246,5.632,4.246c2.6,0,4.916-1.746,5.631-4.246l2.561-8.962c0.195-0.685,0.061-1.405-0.368-1.974
		c-0.429-0.569-1.083-0.896-1.797-0.896h-0.56v0.321c0,0.533-0.434,0.965-0.965,0.965c-0.533,0-0.966-0.432-0.966-0.965v-2.571
		c0-0.532,0.433-0.965,0.966-0.965c0.531,0,0.965,0.433,0.965,0.965v0.321h0.56c1.323,0,2.54,0.605,3.337,1.663
		c0.798,1.056,1.046,2.392,0.684,3.666l-2.561,8.96c-0.469,1.641-1.438,3.051-2.799,4.076c-0.291,0.221-0.596,0.418-0.909,0.592
		l-2.813,6.642v0.696c0,1.884,1.532,3.416,3.416,3.416c1.885,0,3.418-1.532,3.418-3.416v-6.616c0-3.049,2.48-5.529,5.529-5.529
		c3.051,0,5.531,2.48,5.531,5.529v2.282c2.199,0.449,3.857,2.398,3.857,4.728C139.73,1764.229,137.566,1766.392,134.908,1766.392z"
		/>
</g>
<g>
	<path fill="#F3726A" d="M117.014,1754.814c-0.445,0-0.885-0.037-1.313-0.111l1.313,3.104l1.315-3.104
		C117.898,1754.777,117.459,1754.814,117.014,1754.814z"/>
	<path fill="#F3726A" d="M134.908,1758.674c-1.596,0-2.895,1.297-2.895,2.893c0,1.597,1.299,2.896,2.895,2.896
		s2.895-1.299,2.895-2.896C137.803,1759.971,136.504,1758.674,134.908,1758.674z M134.908,1762.531
		c-0.533,0-0.965-0.433-0.965-0.965c0-0.533,0.432-0.965,0.965-0.965s0.965,0.432,0.965,0.965
		C135.873,1762.099,135.441,1762.531,134.908,1762.531z"/>
	<path fill="#F3726A" d="M123.268,1725.057c-13.808,0-25,11.191-25,25c0,13.806,11.192,25,25,25s25-11.194,25-25
		C148.268,1736.248,137.074,1725.057,123.268,1725.057z M134.908,1766.392c-2.66,0-4.824-2.163-4.824-4.824
		c0-2.328,1.66-4.277,3.859-4.728v-2.282c0-1.986-1.615-3.601-3.603-3.601c-1.985,0-3.603,1.613-3.603,3.601v6.616
		c0,2.947-2.396,5.345-5.346,5.345c-2.947,0-5.346-2.396-5.346-5.345v-0.696l-2.813-6.642c-0.313-0.174-0.618-0.371-0.909-0.592
		c-1.363-1.025-2.33-2.437-2.8-4.076l-2.561-8.96c-0.363-1.274-0.113-2.61,0.684-3.666c0.797-1.058,2.014-1.663,3.336-1.663h0.562
		v-0.321c0-0.532,0.433-0.965,0.965-0.965c0.533,0,0.966,0.433,0.966,0.965v2.571c0,0.533-0.433,0.965-0.966,0.965
		c-0.532,0-0.965-0.432-0.965-0.965v-0.321h-0.562c-0.711,0-1.366,0.327-1.797,0.896c-0.429,0.567-0.563,1.29-0.367,1.975
		l2.562,8.961c0.716,2.5,3.029,4.246,5.632,4.246c2.6,0,4.916-1.746,5.631-4.246l2.561-8.962c0.195-0.685,0.061-1.405-0.368-1.974
		c-0.429-0.569-1.083-0.896-1.797-0.896h-0.56v0.321c0,0.533-0.434,0.965-0.965,0.965c-0.533,0-0.966-0.432-0.966-0.965v-2.571
		c0-0.532,0.433-0.965,0.966-0.965c0.531,0,0.965,0.433,0.965,0.965v0.321h0.56c1.323,0,2.54,0.605,3.337,1.663
		c0.798,1.056,1.046,2.392,0.684,3.666l-2.561,8.96c-0.469,1.641-1.438,3.051-2.799,4.076c-0.291,0.221-0.596,0.418-0.909,0.592
		l-2.813,6.642v0.696c0,1.884,1.532,3.416,3.416,3.416c1.885,0,3.418-1.532,3.418-3.416v-6.616c0-3.049,2.48-5.529,5.529-5.529
		c3.051,0,5.531,2.48,5.531,5.529v2.282c2.199,0.449,3.857,2.398,3.857,4.728C139.73,1764.229,137.566,1766.392,134.908,1766.392z"
		/>
</g>
<g>
	<circle fill="none" cx="110.451" cy="110.412" r="2.895"/>
	<path fill="none" d="M52.821,89.822c1.291,0.223,2.607,0.334,3.943,0.334c1.05,0,2.08-0.123,3.105-0.264L80.293,69.47l6.609-23.136
		c1.09-3.82,0.346-7.828-2.045-10.998s-6.041-4.986-10.012-4.986h-1.68v-0.967c0-1.6-1.296-2.895-2.895-2.895
		s-2.893,1.295-2.893,2.895V37.1c0,1.6,1.295,2.895,2.893,2.895s2.895-1.295,2.895-2.895v-0.967h1.68
		c2.14,0,4.103,0.984,5.389,2.689c1.289,1.705,1.693,3.867,1.104,5.918l-7.68,26.889c-2.143,7.5-9.091,12.738-16.893,12.738
		c-7.803,0-14.748-5.238-16.893-12.738l-7.68-26.883c-0.587-2.057-0.186-4.219,1.1-5.924c1.289-1.705,3.255-2.689,5.392-2.689h1.682
		V37.1c0,1.6,1.296,2.895,2.895,2.895s2.893-1.295,2.893-2.895v-7.717c0-1.6-1.295-2.895-2.893-2.895s-2.895,1.295-2.895,2.895
		v0.967h-1.682c-3.971,0-7.62,1.816-10.012,4.986c-2.389,3.17-3.136,7.178-2.046,10.998l7.682,26.883
		c1.406,4.922,4.307,9.152,8.394,12.229c0.875,0.662,1.787,1.254,2.729,1.775l5.093,12.018l4.415-4.412L52.821,89.822z"/>
	<path fill="none" d="M80.158,89.383v19.852c0,5.648-4.597,10.248-10.248,10.248c-5.653,0-10.25-4.6-10.25-10.248v-2.092
		l1.607-3.794l-7.255,7.257c0.708,8.191,7.523,14.666,15.898,14.666c8.842,0,16.037-7.195,16.037-16.037V89.383
		c0-5.959,4.846-10.799,10.805-10.799s10.805,4.84,10.805,10.799v6.85c-6.598,1.348-11.578,7.195-11.578,14.18
		c0,7.98,6.492,14.473,14.473,14.473c7.975,0,14.467-6.492,14.467-14.473c0-6.984-4.978-12.832-11.572-14.18v-6.85
		c0-9.146-7.447-16.588-16.594-16.588c-2.159,0-4.219,0.428-6.111,1.181l-9.302,9.302C80.586,85.17,80.158,87.227,80.158,89.383z
		 M110.451,101.734c4.787,0,8.681,3.891,8.681,8.678s-3.894,8.684-8.681,8.684s-8.684-3.896-8.684-8.684
		S105.664,101.734,110.451,101.734z"/>
	<path fill="#F3726A" d="M52.821,89.822l2.118,5.004l4.931-4.934c-1.025,0.141-2.055,0.264-3.105,0.264
		C55.429,90.156,54.112,90.045,52.821,89.822z"/>
	<path fill="#F3726A" d="M101.768,110.412c0,4.787,3.896,8.684,8.684,8.684s8.681-3.896,8.681-8.684s-3.894-8.678-8.681-8.678
		S101.768,105.625,101.768,110.412z M110.451,107.518c1.597,0,2.895,1.295,2.895,2.895s-1.298,2.895-2.895,2.895
		c-1.6,0-2.895-1.295-2.895-2.895S108.852,107.518,110.451,107.518z"/>
	<path fill="#F3726A" d="M59.661,109.234c0,5.648,4.597,10.248,10.25,10.248c5.651,0,10.248-4.6,10.248-10.248V89.383
		c0-2.156,0.428-4.213,1.181-6.105l-20.071,20.071l-1.607,3.794V109.234z"/>
	<path fill="#F3726A" d="M134.738,29.875L90.641,73.976c1.893-0.753,3.952-1.181,6.111-1.181c9.146,0,16.594,7.441,16.594,16.588
		v6.85c6.595,1.348,11.572,7.195,11.572,14.18c0,7.98-6.492,14.473-14.467,14.473c-7.98,0-14.473-6.492-14.473-14.473
		c0-6.984,4.98-12.832,11.578-14.18v-6.85c0-5.959-4.846-10.799-10.805-10.799s-10.805,4.84-10.805,10.799v19.852
		c0,8.842-7.195,16.037-16.037,16.037c-8.375,0-15.19-6.475-15.898-14.666l-24.488,24.486c12.703,9.888,28.658,15.791,46.002,15.791
		c41.423,0,75-33.586,75-75C150.526,58.536,144.623,42.581,134.738,29.875z"/>
	<path fill="#F3726A" d="M45.431,87.221c-0.942-0.521-1.854-1.113-2.729-1.775c-4.087-3.076-6.987-7.307-8.394-12.229l-7.682-26.883
		c-1.09-3.82-0.343-7.828,2.046-10.998c2.392-3.17,6.041-4.986,10.012-4.986h1.682v-0.967c0-1.6,1.296-2.895,2.895-2.895
		s2.893,1.295,2.893,2.895V37.1c0,1.6-1.295,2.895-2.893,2.895s-2.895-1.295-2.895-2.895v-0.967h-1.682
		c-2.137,0-4.103,0.984-5.392,2.689c-1.286,1.705-1.688,3.867-1.1,5.924l7.68,26.883c2.145,7.5,9.089,12.738,16.893,12.738
		c7.802,0,14.75-5.238,16.893-12.738l7.68-26.889c0.589-2.051,0.185-4.213-1.104-5.918c-1.286-1.705-3.249-2.689-5.389-2.689h-1.68
		V37.1c0,1.6-1.296,2.895-2.895,2.895s-2.893-1.295-2.893-2.895v-7.717c0-1.6,1.295-2.895,2.893-2.895s2.895,1.295,2.895,2.895
		v0.967h1.68c3.971,0,7.622,1.816,10.012,4.986s3.135,7.178,2.045,10.998L80.293,69.47l47.426-47.423
		C114.216,8.954,95.82,0.883,75.526,0.883c-41.421,0-75,33.574-75,75c0,20.291,8.073,38.687,21.166,52.189l28.833-28.834
		L45.431,87.221z"/>
</g>
</svg>
