<?xml version="1.0" encoding="utf-8"?>
<!-- Generator: Adobe Illustrator 16.0.3, SVG Export Plug-In . SVG Version: 6.00 Build 0)  -->
<!DOCTYPE svg PUBLIC "-//W3C//DTD SVG 1.1//EN" "http://www.w3.org/Graphics/SVG/1.1/DTD/svg11.dtd">
<svg version="1.1" id="Layer_1" xmlns="http://www.w3.org/2000/svg" xmlns:xlink="http://www.w3.org/1999/xlink" x="0px" y="0px"
	 width="150px" height="150px" viewBox="0 0 150 150" enable-background="new 0 0 150 150" xml:space="preserve">
<g>
	<path fill="#F3726A" d="M104.115,43.808c-3.07-0.12-6.146-0.029-9.252-0.029c-0.059,0.141-0.1,0.193-0.1,0.249
		c-0.012,1.526-0.018,3.047-0.023,4.567c-0.003,2.326-0.876,3.214-3.199,3.214c-11.065,0.003-22.131,0.003-33.193,0
		c-2.297,0-3.108-0.835-3.108-3.173c-0.003-1.605,0-3.211,0-4.84c-3.29,0-6.454,0-9.618,0.006c-0.117,0-0.243,0.053-0.366,0.088
		c-2.44,0.656-3.888,2.666-3.888,5.399c0,21.624,0,43.245,0,64.866c0,0.22-0.003,0.442,0.006,0.665
		c0.056,1.523,0.779,2.628,2.074,3.407c1.131,0.686,2.373,0.803,3.653,0.803c18.577-0.003,37.154-0.003,55.731-0.003
		c0.316,0,0.636,0,0.949-0.015c3.193-0.179,4.828-1.907,4.828-5.098c0-21.431,0-42.861,0-64.298c0-0.284,0.006-0.571,0-0.855
		C108.504,46.178,106.556,43.901,104.115,43.808z M49.02,63.182c0.926-0.911,2.347-0.768,3.463,0.296
		c0.984,0.94,2.016,1.831,3.12,2.83c2.221-2.109,4.573-4.359,6.94-6.592c0.967-0.914,1.872-1.102,2.839-0.636
		c1.515,0.729,1.919,2.537,0.715,3.709c-3.021,2.933-6.085,5.821-9.167,8.692c-1.025,0.952-2.209,0.873-3.211-0.123
		c-1.547-1.55-3.076-3.105-4.588-4.688C48.105,65.593,48.082,64.102,49.02,63.182z M66.05,99.949
		c-3.015,2.897-6.044,5.774-9.103,8.622c-1.031,0.961-2.224,0.896-3.211-0.094c-1.547-1.544-3.079-3.103-4.588-4.685
		c-1.031-1.075-1.069-2.563-0.146-3.489c0.914-0.926,2.373-0.82,3.454,0.267c0.961,0.964,1.901,1.945,2.856,2.915
		c0.018,0.018,0.059,0.012,0.182,0.029c1.881-1.787,3.803-3.612,5.722-5.443c0.527-0.501,1.04-1.02,1.591-1.494
		c1.055-0.908,2.382-0.832,3.322,0.152C67.037,97.679,67.052,98.985,66.05,99.949z M66.12,81.308
		c-3.026,2.93-6.085,5.833-9.164,8.713c-1.002,0.938-2.265,0.873-3.231-0.094c-1.57-1.57-3.117-3.161-4.644-4.767
		c-0.976-1.031-0.981-2.54-0.073-3.425c0.932-0.914,2.297-0.817,3.387,0.226c1.008,0.961,2.027,1.907,3.152,2.965
		c2.156-2.06,4.377-4.178,6.601-6.293c0.319-0.305,0.642-0.624,1.008-0.867c0.996-0.642,2.271-0.398,3.073,0.539
		C67.014,79.228,67.028,80.435,66.12,81.308z M99.8,106.257c-0.337,0.076-0.691,0.094-1.037,0.094
		c-8.487,0.006-16.98,0.006-25.468,0c-0.223,0-0.445,0.009-0.668-0.015c-1.395-0.144-2.32-1.146-2.271-2.44
		c0.056-1.307,1.037-2.235,2.461-2.238c3.483-0.021,6.97-0.009,10.453-0.009c0.952,0,1.901,0,2.851,0
		c4.307,0,8.619-0.003,12.926,0.003c1.479,0.006,2.484,0.838,2.584,2.098C101.725,105.009,101.033,105.976,99.8,106.257z
		 M99.987,87.665c-0.393,0.1-0.817,0.082-1.228,0.082c-4.245,0.006-8.49,0.006-12.732,0.006c0,0,0,0,0-0.006
		c-4.436,0-8.868,0.006-13.304-0.006c-1.096,0-1.966-0.633-2.265-1.553c-0.293-0.932-0.003-1.98,0.776-2.561
		c0.293-0.214,0.677-0.437,1.02-0.439c9.152-0.023,18.302-0.041,27.454,0c1.072,0.003,1.84,0.964,1.922,2.016
		C101.716,86.376,101.057,87.396,99.987,87.665z M98.977,69.237c-8.646,0.012-17.297,0.012-25.945,0
		c-1.605,0-2.666-0.949-2.681-2.332c-0.018-1.43,1.046-2.355,2.728-2.355c4.31-0.003,8.619,0,12.926,0c4.31,0,8.619-0.003,12.926,0
		c1.69,0,2.722,0.908,2.713,2.361C101.634,68.317,100.611,69.237,98.977,69.237z"/>
	<path fill="#F3726A" d="M89.977,37.898c-1.98,0-3.908,0-5.836,0c-1.898,0-2.561-0.519-3.088-2.388
		c-0.806-2.862-3.352-4.869-6.182-4.869c-2.941,0-5.479,2.021-6.34,5.068c-0.457,1.617-1.195,2.186-2.856,2.188
		c-1.86,0-3.727,0-5.666,0c0,3.141,0,6.161,0,9.208c10.028,0,19.989,0,29.968,0C89.977,44.019,89.977,40.995,89.977,37.898z"/>
	<path fill="#F3726A" d="M75,0C33.58,0,0,33.577,0,75c0,41.417,33.58,75,75,75c41.423,0,75-33.583,75-75C150,33.577,116.423,0,75,0z
		 M107.027,123.108c-0.65,0.223-1.318,0.398-1.98,0.592c-20.039,0-40.078,0-60.114,0c-0.144-0.059-0.278-0.146-0.425-0.179
		c-5.104-1.107-7.775-4.397-7.775-9.583c0-14.361,0-28.717,0-43.066c0-7.356-0.018-14.71,0.006-22.061
		c0.015-4.796,3.387-8.918,8.127-9.539c2.807-0.366,5.684-0.17,8.534-0.223c0.592-0.012,1.181,0,1.84,0
		c0-1.289-0.009-2.455,0.003-3.624c0.012-1.151,0.574-1.849,1.693-2.063c0.495-0.097,1.011-0.126,1.512-0.129
		c1.746-0.015,3.489-0.035,5.232,0.009c0.627,0.018,0.94-0.182,1.21-0.768c1.424-3.1,3.844-5.03,7.128-5.906
		c0.296-0.079,0.586-0.182,0.879-0.272c1.207,0,2.408,0,3.615,0c0.24,0.07,0.478,0.152,0.721,0.199
		c3.492,0.691,6.111,2.555,7.567,5.833c0.343,0.776,0.759,0.914,1.488,0.914c2.153-0.006,4.31-0.021,6.457,0.111
		c1.403,0.088,1.989,0.879,1.995,2.273c0.006,1.122,0,2.247,0,3.422c2.936,0,5.722-0.012,8.508,0
		c5.692,0.021,9.993,4.295,9.996,9.958c0.009,21.803-0.029,43.605,0.029,65.405C113.288,119.024,110.224,122.001,107.027,123.108z"
		/>
</g>
</svg>
