<?xml version="1.0" encoding="utf-8"?>
<!-- Generator: Adobe Illustrator 16.0.3, SVG Export Plug-In . SVG Version: 6.00 Build 0)  -->
<!DOCTYPE svg PUBLIC "-//W3C//DTD SVG 1.1//EN" "http://www.w3.org/Graphics/SVG/1.1/DTD/svg11.dtd">
<svg version="1.1" id="Layer_1" xmlns="http://www.w3.org/2000/svg" xmlns:xlink="http://www.w3.org/1999/xlink" x="0px" y="0px"
	 width="550.001px" height="527.851px" viewBox="-23.841 -20.404 550.001 527.851"
	 enable-background="new -23.841 -20.404 550.001 527.851" xml:space="preserve">
<g>
	<g>
		<path fill="#263238" d="M365.18,212.643c1.16,4.268,2.323,8.531,3.576,13.147c-3.013,1.098-5.105-0.909-7.442-1.582
			c-2.751-9.021-6.194-17.9-8.077-27.096c-2.187-10.688-34.798-11.583-38.131-11.53c0.82-1.296,1.464-2.618,0.582-4.153
			c8.879-0.335,17.759-0.653,26.637-1.009c7.801-0.313,12.702,3.364,15.197,10.665C359.99,198.302,362.618,205.462,365.18,212.643z"
			/>
		<path fill="#263238" d="M277.434,328.906c-0.356,2.509-0.44,5.157-3.231,6.454c-6.562-9.523-8.239-20.934-11.868-31.545
			c-11.887-34.768-23.351-69.676-34.901-104.553c-3.602-10.854-2.026-13.072,9.124-13.803c5.205-0.344,10.396-0.829,15.588-1.252
			c3.254,1.446,7.834-2.151,10.457,2.795c-3.945,2.354-8.213,0.502-12.102,1.503c-4.875-0.185-9.656-0.445-14.593,0.48
			c-4.338,0.812-4.84,2.244-3.577,5.991C247.417,239.603,262.412,284.259,277.434,328.906z"/>
		<path fill="#455B65" d="M250.504,188.506c3.885-1.001,8.151,0.851,12.098-1.503c-2.623-4.947-7.203-1.35-10.457-2.795
			c10.003-4.929,22.32-2.98,31.447-10.559c0.396-0.326,1.402-0.458,1.769-0.199c9.072,6.644,20.747,3.338,30.327,7.98
			c0.882,1.535,0.238,2.857-0.582,4.153c-0.912,2.531-2.58,4.048-5.36,4.387C289.918,192.385,270.149,193.126,250.504,188.506z"/>
		<g>
			<path fill="#FFFFFF" d="M334.984,184.727c10.524-2.412,16.065,1.697,18.252,12.385c1.883,9.196,5.326,18.076,8.077,27.096
				c-1.429-0.499-2.853-1.024-4.289-1.509c-2.302-0.775-4.837-1.896-6.336,1.067c-1.297,2.566,0.132,4.687,1.904,6.503
				c2.963,3.042,5.979,6.026,8.972,9.033c-10.392,9.894-58.358,57.534-59.377,58.389c-9.76,8.246-13.094,21.291-22.353,29.884
				c-0.647,0.608-1.596,0.895-2.401,1.332c-15.021-44.647-30.017-89.304-45.104-133.929c-1.264-3.747-0.761-5.18,3.578-5.991
				c4.936-0.925,9.717-0.666,14.592-0.48c19.649,4.621,39.418,3.88,59.245,1.464c2.78-0.339,4.448-1.856,5.36-4.387
				c3.333-0.053,6.671-0.106,10.004-0.154L334.984,184.727z"/>
			<path fill="#E0E0E0" d="M277.121,329.701l-9.964-29.621c-11.567-34.396-23.528-69.964-35.349-104.927
				c-0.556-1.651-0.97-3.351-0.235-4.603c0.606-1.034,1.872-1.664,4.233-2.106c2.439-0.457,5.04-0.67,8.187-0.67
				c1.877,0,3.782,0.074,5.627,0.146l0.899,0.035c9.729,2.277,19.86,3.377,31.08,3.377h0.002c8.463,0,17.384-0.607,28.076-1.91
				c2.468-0.301,4.027-1.581,4.909-4.028l0.129-0.357l1.28-0.02c3.033-0.048,6.071-0.096,9.104-0.14l9.845-0.699
				c1.893-0.44,3.729-0.67,5.372-0.67c7.297,0,11.573,4.288,13.457,13.493c1.298,6.339,3.38,12.646,5.396,18.746
				c0.896,2.715,1.821,5.522,2.67,8.301l0.315,1.036l-1.023-0.357c-0.554-0.192-1.106-0.39-1.659-0.588
				c-0.873-0.311-1.746-0.622-2.625-0.918l-0.463-0.159c-0.973-0.334-1.979-0.681-2.854-0.681c-1.056,0-1.779,0.504-2.352,1.634
				c-0.938,1.856-0.397,3.611,1.807,5.87c2.118,2.176,4.264,4.319,6.405,6.464l2.96,2.965l-0.407,0.388
				c-6.354,6.05-26.905,26.358-41.909,41.186c-10.908,10.781-17.101,16.896-17.493,17.227c-5.003,4.227-8.37,9.861-11.627,15.312
				c-3.049,5.101-6.202,10.375-10.705,14.554c-0.504,0.476-1.136,0.764-1.746,1.043c-0.261,0.117-0.521,0.236-0.769,0.369
				L277.121,329.701z M243.993,188.875c-3.076,0-5.613,0.207-7.983,0.651c-1.988,0.373-3.063,0.86-3.487,1.582
				c-0.408,0.695-0.309,1.8,0.329,3.694c11.82,34.963,23.782,70.53,35.35,104.928l9.554,28.404c0.083-0.037,0.168-0.076,0.252-0.115
				c0.555-0.252,1.077-0.492,1.452-0.845c4.392-4.075,7.503-9.28,10.512-14.313c3.303-5.527,6.719-11.242,11.863-15.588
				c0.398-0.338,8.291-8.138,17.429-17.168c14.7-14.526,34.724-34.313,41.517-40.812l-2.164-2.167
				c-2.146-2.147-4.295-4.296-6.415-6.473c-1.72-1.762-3.501-4.166-2.002-7.135c0.763-1.506,1.854-2.238,3.334-2.238
				c1.062,0,2.154,0.377,3.212,0.741l0.456,0.157c0.885,0.298,1.765,0.611,2.644,0.925c0.209,0.074,0.417,0.148,0.624,0.223
				c-0.754-2.425-1.56-4.865-2.343-7.234c-2.021-6.129-4.114-12.467-5.427-18.87c-2.172-10.616-7.577-14.253-17.59-11.959
				l-9.959,0.713c-3.063,0.045-6.101,0.093-9.135,0.141l-0.527,0.008c-1.053,2.615-2.912,4.052-5.675,4.389
				c-10.738,1.308-19.701,1.918-28.209,1.918c-0.001,0-0.002,0-0.003,0c-11.306,0-21.52-1.11-31.226-3.392l-0.797-0.021
				C247.744,188.949,245.848,188.875,243.993,188.875z"/>
		</g>
		<path fill="#E0E0E0" d="M293.771,506.432c1.855-20.112,4.758-34.431,6.379-54.562c1.271-15.841,3.527-31.594,7.223-47.094
			c4.038-5.317,1.908-13.457,8.041-17.785c29.939-21.118,56.468-45.936,80.563-73.489c24.322-27.823,29.058-60.713-6.979-79.207
			c9.915-0.027,19.821-0.044,29.736-0.066c17.07,1.771,34.143,3.545,51.213,5.316c16.299,1.825,31.518,5.785,41.222,20.721
			c5.216,18.129,3.023,36.329-0.676,54.206c-5.432,26.268-14.8,51.317-25.262,76.043c-4.231,10.008-10.145,19.648-11.039,30.931
			c-6.731,18.318-5.947,66.709-6.229,86.002L293.771,506.432z"/>
		<path fill="#263238" d="M415.197,110.635c-9.373-3.183-9.354-10.506-7.5-18.109c2.486-10.217,11.635-17.886,21.025-17.531
			c11.405,0.43,21.502,5.07,30.434,11.822c5.405,4.087,10.837,7.334,17.31,9.794c28.34,10.768,37.378,48.172,17.987,72.65
			c-2.278,2.87-4.749,5.819-7.721,7.883c-11.819,8.191-18.948,19.011-20.094,33.51c-6.711-2.653-13.421-5.304-20.131-7.958
			l0.163,0.08c-0.883-0.833-1.677-1.799-2.663-2.482c-12.035-8.39-13.313-25.143-2.933-35.918c4.396-4.563,6.301-10.828,3.52-16.22
			c-3.215-6.222-3.515-12.859-5.458-19.205C434.936,115.242,429.764,111.325,415.197,110.635z"/>
		<path fill="#FBBF9E" d="M446.508,202.697c6.71,2.654,13.42,5.305,20.131,7.958c1.891,9.546,4.748,18.977,3.311,28.896
			c-17.074-1.776-34.146-3.55-51.217-5.321c0.635-3.619,0.962-7.319,1.962-10.827c2.777-9.727,3.413-16.948-9.673-20.471
			c-9.2-2.482-10.096-13.165-10.77-21.735c-1.958-24.926,0.955-48.946,14.936-70.56c14.576,0.689,19.748,4.607,23.949,18.316
			c1.943,6.346,2.243,12.983,5.458,19.205c2.782,5.392,0.877,11.657-3.52,16.22c-10.382,10.775-9.104,27.528,2.933,35.918
			c0.986,0.683,1.78,1.649,2.663,2.482c-6.019,0.921-12.066,1.676-18.036,2.853c-2.398,0.477-4.744,1.86-3.964,5.101
			c0.389,1.609,1.919,3.219,3.249,2.495c4.886-2.632,10.034-1.049,14.98-1.692C447.94,210.88,449.065,207.195,446.508,202.697z"/>
		<path fill="#FFFFFF" d="M474.19,421.445c0.896-11.281,6.807-20.923,11.039-30.931c10.462-24.726,19.83-49.775,25.262-76.043
			c3.699-17.877,5.892-36.076,0.675-54.206c10.656,6.146,13.559,16.78,14.59,27.647c2.066,21.762-4.093,42.107-11.331,62.441
			c-8.23,23.137-19.459,44.551-32.695,65.067C479.847,418.341,478.048,421.115,474.19,421.445z"/>
		<path fill="#FBBF9E" d="M388.783,234.105c-9.072,1.724-18.146,3.461-27.22,5.198c-2.993-3.007-6.009-5.991-8.972-9.033
			c-1.772-1.816-3.201-3.937-1.904-6.503c1.499-2.963,4.034-1.843,6.336-1.067c1.438,0.484,2.86,1.01,4.289,1.509
			c2.337,0.673,4.431,2.68,7.442,1.582c-1.253-4.616-2.416-8.88-3.576-13.147C376.043,216.506,385.119,222.324,388.783,234.105z"/>
		<path fill="#F7996E" d="M446.508,202.697c2.558,4.498,1.433,8.184-3.606,8.836c-4.946,0.644-10.096-0.939-14.98,1.692
			c-1.33,0.724-2.86-0.886-3.249-2.495c-0.78-3.24,1.564-4.624,3.964-5.101c5.97-1.177,12.019-1.932,18.036-2.853L446.508,202.697z"
			/>
		<g>
			<path fill="#F3725F" d="M256.846,216.673l0.58,4.375l-3.168,0.197l-1.946-17.681l3.976-0.248l9.897,17.185l-3.253,0.203
				l-2.43-4.259L256.846,216.673z M259.107,213.626l-2.025-3.65c-0.565-1.021-1.293-2.455-1.848-3.504l-0.042,0.002
				c0.17,1.073,0.46,2.561,0.602,3.609l0.486,3.72L259.107,213.626z"/>
			<path fill="#F3725F" d="M264.785,211.739c-0.521-1.524-1.003-2.814-1.441-3.977l2.678-0.167l0.714,1.646l0.063-0.004
				c0.155-0.881,0.813-2.005,2.366-2.102c2.083-0.13,4.053,1.568,5.226,5.009l2.618,7.681l-3.104,0.194l-2.485-7.293
				c-0.494-1.449-1.269-2.51-2.331-2.443c-0.767,0.049-1.033,0.726-1,1.461c0.004,0.265,0.094,0.655,0.226,1.044l2.53,7.423
				l-3.104,0.193L264.785,211.739z"/>
			<path fill="#F3725F" d="M286.513,216.166c0.389,1.138,0.81,2.248,1.193,2.989l-2.785,0.175l-0.623-1.254l-0.042,0.002
				c-0.316,1.05-1.117,1.628-2.266,1.699c-1.956,0.123-3.775-1.586-4.48-3.655c-1.129-3.311,0.783-4.962,4.058-5.166l-0.07-0.207
				c-0.267-0.776-0.905-1.634-2.33-1.546c-0.998,0.063-1.846,0.512-2.356,1.045l-1.382-2.396c0.521-0.507,1.649-1.211,3.413-1.321
				c3.382-0.212,5.159,2.266,6.138,5.136L286.513,216.166z M282.463,213.33c-1.468,0.092-2.605,0.639-2.066,2.216
				c0.36,1.061,1.081,1.517,1.72,1.477c0.701-0.043,1.133-0.624,1.07-1.44c-0.018-0.183-0.098-0.416-0.168-0.622L282.463,213.33z"/>
			<path fill="#F3725F" d="M286.966,210.354c-0.521-1.524-1.003-2.815-1.443-3.977l2.637-0.166l0.704,1.621l0.064-0.004
				c0.186-0.856,0.737-1.974,2.29-2.071c1.297-0.08,2.517,0.635,3.375,1.876l0.042-0.004c0.149-0.642,0.398-1.187,0.771-1.553
				c0.388-0.395,0.912-0.637,1.636-0.683c1.934-0.121,3.844,1.529,5.051,5.073l2.603,7.629l-3.041,0.188l-2.407-7.06
				c-0.582-1.707-1.335-2.77-2.313-2.709c-0.681,0.043-0.962,0.614-0.919,1.379c0.024,0.263,0.113,0.653,0.229,0.989l2.582,7.578
				l-3.039,0.19l-2.504-7.345c-0.477-1.397-1.195-2.489-2.194-2.427c-0.702,0.044-0.949,0.72-0.934,1.407
				c0.013,0.289,0.115,0.652,0.229,0.988l2.575,7.552l-3.04,0.19L286.966,210.354z"/>
			<path fill="#F3725F" d="M304.106,209.282c-0.521-1.524-1.004-2.814-1.444-3.977l2.681-0.167l0.713,1.646l0.063-0.005
				c0.154-0.881,0.814-2.004,2.365-2.102c2.084-0.13,4.053,1.569,5.227,5.009l2.617,7.681l-3.103,0.194l-2.487-7.293
				c-0.494-1.449-1.268-2.509-2.331-2.442c-0.765,0.047-1.033,0.725-0.999,1.461c0.002,0.264,0.095,0.655,0.227,1.043l2.53,7.423
				l-3.104,0.193L304.106,209.282z"/>
			<path fill="#F3725F" d="M319.431,211.997c0.654,1.73,2.122,2.404,3.546,2.315c0.999-0.063,1.767-0.296,2.426-0.653l1.309,2.56
				c-0.819,0.527-1.965,0.861-3.262,0.943c-3.295,0.205-6.017-2.107-7.356-6.039c-1.198-3.518-0.609-6.882,2.603-7.082
				c3.039-0.189,5.294,2.6,6.432,5.938c0.255,0.749,0.386,1.323,0.448,1.635L319.431,211.997z M321.92,209.175
				c-0.389-1.139-1.239-2.618-2.517-2.538c-1.211,0.075-1.202,1.634-0.886,2.751L321.92,209.175z"/>
			<path fill="#F3725F" d="M328.068,213.255c0.665,0.354,1.929,0.751,2.8,0.696c0.894-0.056,1.187-0.471,0.957-1.143
				c-0.229-0.673-0.664-0.988-1.975-1.463c-2.337-0.804-3.493-2.157-3.97-3.556c-0.793-2.326,0.149-4.207,2.595-4.359
				c1.104-0.069,2.177,0.206,2.916,0.53l0.347,2.672c-0.544-0.257-1.432-0.57-2.219-0.521c-0.766,0.048-1.049,0.488-0.838,1.109
				c0.203,0.595,0.671,0.883,2.063,1.403c2.128,0.764,3.324,1.984,3.906,3.691c0.829,2.431-0.124,4.154-2.867,4.325
				c-1.211,0.075-2.474-0.188-3.353-0.661L328.068,213.255z"/>
			<path fill="#F3725F" d="M334.413,201.739c-0.956,0.061-1.876-0.729-2.245-1.815c-0.389-1.138-0.004-1.981,0.977-2.042
				c0.956-0.059,1.867,0.703,2.276,1.839c0.369,1.087-0.009,1.956-0.985,2.018H334.413z M337.745,216.031l-4.312-12.647l3.104-0.194
				l4.313,12.646L337.745,216.031z"/>
			<path fill="#F3725F" d="M342.104,212.379c0.664,0.354,1.928,0.75,2.8,0.695c0.894-0.056,1.187-0.47,0.956-1.143
				c-0.229-0.673-0.663-0.988-1.975-1.462c-2.338-0.805-3.493-2.158-3.971-3.556c-0.794-2.327,0.149-4.208,2.596-4.36
				c1.104-0.068,2.176,0.206,2.916,0.53l0.346,2.672c-0.543-0.257-1.431-0.57-2.217-0.522c-0.767,0.049-1.051,0.489-0.838,1.111
				c0.201,0.594,0.669,0.882,2.063,1.401c2.128,0.766,3.326,1.985,3.908,3.692c0.828,2.431-0.125,4.154-2.867,4.326
				c-1.212,0.075-2.475-0.189-3.353-0.662L342.104,212.379z"/>
		</g>
		<g>
			<path fill="#455B65" d="M265.987,239.669l78.581-2.963c0.688-0.026,0.803-1.164,0.243-2.526l0,0
				c-0.551-1.362-1.569-2.456-2.262-2.425l-78.582,2.954c-0.691,0.026-0.801,1.168-0.246,2.53l0,0
				C264.277,238.603,265.291,239.695,265.987,239.669z"/>
			<path fill="#455B65" d="M272.261,255.104l78.577-2.967c0.691-0.026,0.807-1.164,0.247-2.521l0,0
				c-0.552-1.367-1.565-2.46-2.263-2.435l-78.575,2.967c-0.693,0.023-0.808,1.16-0.256,2.522l0,0
				C270.551,254.032,271.569,255.126,272.261,255.104z"/>
			<path fill="#455B65" d="M278.394,270.534l78.864-2.971c0.612-0.022,0.714-1.033,0.22-2.24l-0.229-0.556
				c-0.489-1.212-1.394-2.183-2.007-2.16l-78.861,2.972c-0.618,0.025-0.715,1.031-0.227,2.244l0.229,0.56
				C276.877,269.591,277.781,270.562,278.394,270.534z"/>
			<path fill="#455B65" d="M284.809,285.965l78.581-2.963c0.691-0.026,0.803-1.164,0.247-2.53l0,0
				c-0.551-1.363-1.569-2.451-2.262-2.43l-78.581,2.963c-0.692,0.026-0.808,1.164-0.247,2.526l0,0
				C283.098,284.897,284.116,285.987,284.809,285.965z"/>
		</g>
		<g>
			<path fill="#FFFFFF" d="M388.995,234.295c36.037,18.494,31.303,51.384,6.979,79.207c-24.095,27.556-50.622,52.371-80.563,73.489
				c-6.133,4.328-4.003,12.468-8.041,17.785c-12.745-1.234-25.672-1.998-37.875-5.899c-15.348-4.901-19.953-16.767-13.165-32.841
				c4.625-10.938,13.35-19.605,17.869-30.676c2.79-1.297,2.875-3.945,3.231-6.454c0.807-0.438,1.754-0.724,2.401-1.332
				c16.365-32.767,71.338-78.378,81.733-88.275c9.068-1.733,18.143-3.471,27.215-5.194L388.995,234.295z"/>
			<path fill="#E0E0E0" d="M307.625,405.353l-0.306-0.027c-1.682-0.164-3.365-0.318-5.051-0.473
				c-10.958-1.006-22.29-2.047-32.939-5.451c-7.374-2.355-12.371-6.285-14.854-11.68c-2.731-5.941-2.276-13.31,1.35-21.897
				c2.295-5.427,5.63-10.361,8.855-15.134c3.312-4.896,6.734-9.961,9.01-15.537l0.082-0.2l0.195-0.091
				c2.261-1.051,2.534-3.131,2.825-5.332l0.135-0.975l0.242-0.133c0.269-0.146,0.552-0.275,0.835-0.404
				c0.521-0.237,1.016-0.463,1.384-0.781c13.887-27.703,54.438-63.849,73.938-81.23c3.483-3.104,6.235-5.557,7.862-7.106
				l0.116-0.111l5.84-1.116c7.177-1.372,14.355-2.743,21.535-4.107l0.269-0.051l0.36,0.324c14.659,7.54,23.308,17.713,25.705,30.237
				c2.885,15.066-3.73,32.75-18.627,49.789c-25.616,29.296-52,53.361-80.657,73.576c-3.337,2.354-4.095,5.879-4.897,9.607
				c-0.602,2.799-1.224,5.69-3.021,8.061L307.625,405.353z M274.63,335.763c-2.318,5.604-5.733,10.656-9.038,15.543
				c-3.195,4.729-6.501,9.617-8.752,14.944c-3.503,8.293-3.961,15.362-1.363,21.011c2.346,5.104,7.12,8.836,14.188,11.092
				c10.533,3.369,21.805,4.403,32.703,5.403c1.583,0.146,3.166,0.291,4.746,0.442c1.515-2.127,2.063-4.682,2.645-7.381
				c0.812-3.771,1.65-7.672,5.339-10.275c28.585-20.163,54.904-44.173,80.464-73.402c14.668-16.779,21.192-34.13,18.374-48.856
				c-2.335-12.193-10.811-22.118-25.19-29.498l-0.126-0.089c-7.09,1.348-14.18,2.703-21.267,4.058l-5.521,1.056
				c-1.65,1.565-4.361,3.979-7.771,7.019c-19.471,17.355-59.984,53.468-73.732,80.992l-0.115,0.154
				c-0.507,0.479-1.14,0.767-1.749,1.045c-0.176,0.08-0.353,0.16-0.522,0.244l-0.056,0.409
				C277.59,331.906,277.257,334.431,274.63,335.763z"/>
		</g>
	</g>
	<g>
		<path fill="#263238" d="M66.562,226.43c0,0,10.638-5.11,22.58,0c11.941,5.105,20.635,26.849,15.285,47.155
			c-5.351,20.309,12.705,20.65,4.345,36.939c-2.962,5.771-42.209,10.688-43.548-11.806c-0.833-13.937,11.783-14.629,8.107-29.772
			C69.65,253.808,66.562,226.43,66.562,226.43z"/>
		<path fill="#FBBF9E" d="M97.911,323.408c0,0,30.339,51.159,36.461,92.864c0,0-14.759,19.915-20.761,5.931
			C107.61,408.224,64.532,333.376,97.911,323.408z"/>
		<path fill="#263238" d="M92.135,232.606c-0.328-0.542-13.905-22.013-39.28-26.298c-20.562-3.465-39.806,11.058-42.967,31.668
			c-3.176,20.708,0.062,47.544,33.853,57.212L92.135,232.606z"/>
		<path fill="#FBBF9E" d="M85.932,324.886l-38.239,22.709l-9.659-26.91c0,0,4.43-9.811,5.718-25.5
			c0.539-6.597,0.527-14.231-0.617-22.621l33.25,14.442c0,0-0.58,3.027-0.815,7.455c-0.246,4.778-0.081,11.196,1.654,17.192
			C78.717,316.8,81.37,321.636,85.932,324.886z"/>
		<path fill="#F7996E" d="M77.209,311.655c-18.341,0.675-33.471-16.467-33.471-16.467l31.816-0.731
			C75.312,299.24,75.474,305.658,77.209,311.655z"/>
		<path fill="#FBBF9E" d="M85.443,300.89c0,0-35.912,11.965-50.359-16.283c-15.589-30.478-2.125-54.257,10.181-56.589
			c24.536-4.643,39.503,3.875,44.482,13.565C94.728,251.273,105.269,294.461,85.443,300.89z"/>
		<path fill="#FFFFFF" d="M69.924,285.453c0,0,1.767,3.677,11.267,0.944c0,0,7.978-2.289,6.789-6.486
			C87.979,279.911,79.469,278.62,69.924,285.453z"/>
		<path fill="#F3725F" d="M121.624,506.944c7.742-2.641-1.632-116.514-9.015-162.639c-2.026-12.647-12.071-22.488-24.763-24.213
			c-2.146-0.296-4.47-0.572-6.98-0.82c0.534,5.674-1.402,11.006-11.286,12.94c-13.159,2.569-25.596-5.723-31.991-11.499
			c-10.299,2.145-16.29,2.938-24.462,6.346c-8.97,3.76-14.317,13.071-13.011,22.709l2.469,18.207l7.871,58.028
			c1,7.287,0.939,14.681-0.167,21.956c-3.353,22.052-3.192,17.29-6.765,58.159"/>
		<path fill="#263238" d="M60.281,231.372c0,0,3.405,33.688-28.554,45.63c-12.706,4.744-19.323-46.715,7.23-56.982
			c26.552-10.277,52.739,1.922,55.873,19.883c3.128,17.962,0.745,21.709,0.745,21.709S83.145,227.444,60.281,231.372z"/>
		<path fill="#FBBF9E" d="M40.877,341.573c0,0,14.658,57.971,15.227,81.027c0,0,32.166,56.177,34.055,60.176
			c1.889,3.992-11.608,9.456-11.608,9.456s-40.356-43.038-48.133-61.122c-7.778-18.09-35.372-76.895-24.332-94.448
			C17.129,319.11,40.877,341.573,40.877,341.573z"/>
		<path fill="#FBBF9E" d="M134.372,416.274c0,0,2.879,39.488-25.224,70.598c0,0-7.672-9.232-6.704-12.098
			c0.968-2.871,11.97-46.884,20-53.144C130.481,415.374,134.372,416.274,134.372,416.274z"/>
		<path fill="#FBBF9E" d="M90.16,482.78c0,0,17.989-0.132,18.991,4.101c1.004,4.229-4.625,17.458-17.779,12.848
			c-13.153-4.611-12.821-7.495-12.821-7.495L90.16,482.78z"/>
		<path fill="#FBBF9E" d="M102.446,474.774c0,0-14.447,6.675-9.542,13.795c4.913,7.114,14.729,2.855,16.245-1.697
			C110.666,482.321,102.446,474.774,102.446,474.774z"/>
		<path fill="#F3725F" d="M51.46,372.159c0,0-18.864,17.548-47.947,14.828c0,0-14.332-50.789,8.651-57.028
			C35.15,323.722,54.139,353.828,51.46,372.159z"/>
		<path fill="#F3725F" d="M107.818,332.362l16.629,28.433c0,0-2.144,13.19-14.581,14.505
			C97.425,376.608,107.818,332.362,107.818,332.362z"/>
		<path fill="#263238" d="M20.616,226.712c0,0-10.638-5.749-22.578,0c-11.941,5.753-20.636,30.234-15.285,53.104
			c5.348,22.863-12.706,23.252-4.348,41.592c2.966,6.503,42.21,12.035,43.551-13.293c0.83-15.689-11.786-16.465-8.107-33.52
			C17.528,257.542,20.616,226.712,20.616,226.712z"/>
	</g>
	<g>
		<g>
			<path fill="#263238" d="M14.051,60.993c0-10.53,8.555-19.099,19.075-19.099h19.55c-0.17-1.358-0.173-2.725-0.008-4.078H33.125
				c-12.766,0-23.146,10.398-23.146,23.177c0,12.488,10.166,22.269,23.146,22.269h10.746v-4.069H33.125
				C22.25,79.192,14.051,71.367,14.051,60.993z"/>
			<path fill="#263238" d="M108.872,83.261c4.967,0,9.541,2.063,12.896,5.811c3.308,3.704,5.124,8.637,5.124,13.899
				c0,10.47-8.388,18.677-19.104,18.684H75.707c0.009,0.133,0.022,0.261,0.022,0.395c0,1.279-0.181,2.501-0.492,3.67h32.551
				c12.996,0,23.175-9.992,23.175-22.749c0-6.261-2.188-12.16-6.165-16.61c-4.123-4.625-9.777-7.168-15.919-7.168h-2.712v4.069
				h2.705V83.261z"/>
			<path fill="#263238" d="M59.092,49.757c2.651,2.652,6.177,4.111,9.924,4.111c3.756,0,7.284-1.464,9.935-4.118
				c2.651-2.65,4.108-6.174,4.108-9.926c0-3.759-1.457-7.283-4.106-9.931c-2.653-2.656-6.181-4.118-9.937-4.118
				c-3.749,0-7.272,1.463-9.927,4.115C53.623,35.365,53.623,44.28,59.092,49.757z M69.017,29.849c2.662,0,5.165,1.036,7.055,2.918
				c3.89,3.893,3.89,10.22,0,14.106c-1.883,1.885-4.392,2.92-7.055,2.92c-2.658,0-5.162-1.038-7.048-2.923
				c-3.885-3.884-3.887-10.211,0-14.102C63.852,30.885,66.352,29.849,69.017,29.849z"/>
			<path fill="#263238" d="M64.977,43.867c1.078,1.078,2.522,1.671,4.04,1.671c1.535,0,2.971-0.593,4.048-1.678
				c2.229-2.222,2.229-5.853,0-8.088c-1.077-1.078-2.511-1.669-4.048-1.669c-1.518,0-2.962,0.591-4.04,1.669
				C62.749,38.008,62.749,41.638,64.977,43.867z M68.054,38.859c0.26-0.26,0.604-0.399,0.963-0.399c0.366,0,0.71,0.139,0.964,0.399
				c0.531,0.529,0.531,1.396,0,1.931c-0.513,0.509-1.417,0.509-1.927,0C67.53,40.254,67.53,39.388,68.054,38.859z"/>
			<g>
				<path fill="#263238" d="M101.675,60.686H48.366c-1.12,0-2.035,0.908-2.035,2.03v35.927c0,1.122,0.915,2.04,2.035,2.04h53.309
					c1.118,0,2.03-0.917,2.03-2.04V62.717C103.706,61.594,102.793,60.686,101.675,60.686z M84.46,82.444l-9.272,9.276l-9.275-9.274
					c-2.479-2.484-2.479-6.524,0-9.007c1.205-1.208,2.807-1.874,4.511-1.874c1.474,0,2.854,0.487,3.988,1.411l0.772,0.628
					l0.776-0.625c1.142-0.922,2.524-1.413,3.999-1.413c1.701,0,3.298,0.666,4.501,1.874c1.204,1.197,1.864,2.795,1.864,4.499
					C86.324,79.646,85.664,81.244,84.46,82.444z"/>
			</g>
			<path fill="#263238" d="M48.037,112.604v1.232v16.727v1.228v0.97c0.37,0.359,0.87,0.582,1.423,0.582h12.625
				c6.271,0,11.182-4.96,11.182-11.293c0-6.331-4.91-11.287-11.182-11.287H49.462c-0.571,0-1.086,0.234-1.454,0.613
				c0.01,0,0.021-0.002,0.029-0.002V112.604z M51.493,114.832h10.591c4.053,0,7.109,3.104,7.109,7.217
				c0,4.118-3.058,7.221-7.109,7.221H51.493V114.832z"/>
			<path fill="#263238" d="M39.672,122.199c0,4.609,3.756,8.363,8.364,8.363v-16.727C43.428,113.836,39.672,117.588,39.672,122.199z
				"/>
		</g>
	</g>
	<g>
		<g>
			<path fill="#F3725F" d="M3.157,8.323l-1.375,5.129h-4.878L3.059-7.25H9.18l6.088,20.702H10.26L8.786,8.323H3.157z M8.132,4.944
				L6.954,0.551C6.626-0.677,6.266-2.398,5.972-3.656H5.906c-0.295,1.259-0.621,3.01-0.948,4.238L3.779,4.944H8.132z"/>
			<path fill="#F3725F" d="M34.74-7.25V9.827l2.028,0.123l-0.197,8.508h-3.6l-0.262-5.007H20.796l-0.261,5.007h-3.602L16.738,9.95
				l1.769-0.123c0.818-1.474,1.473-3.01,1.897-4.669c0.59-2.15,0.819-4.484,0.819-6.972V-7.25H34.74z M25.641-0.892
				c0,2.396-0.294,4.761-0.851,6.88c-0.36,1.32-0.853,2.672-1.407,3.747h6.579V-3.534h-4.321V-0.892z"/>
			<path fill="#F3725F" d="M50.744-2.459h-0.065l-3.895,1.782l-0.818-3.41L51.4-6.514h3.993v19.965h-4.646v-15.91H50.744z"/>
			<path fill="#F3725F" d="M68.875,13.759c-5.237,0-7.397-4.73-7.431-10.229c0-5.805,2.391-10.351,7.562-10.351
				c5.499,0,7.396,4.945,7.396,10.197c0,6.451-2.684,10.382-7.494,10.382L68.875,13.759L68.875,13.759z M68.974,10.257
				c1.768,0,2.651-2.272,2.651-6.818c0-4.393-0.852-6.757-2.651-6.757c-1.702,0-2.75,2.211-2.75,6.757
				c-0.033,4.638,0.982,6.818,2.717,6.818H68.974z"/>
			<path fill="#F3725F" d="M85.763,13.759c-5.237,0-7.396-4.73-7.43-10.229c0-5.805,2.39-10.351,7.561-10.351
				c5.499,0,7.397,4.945,7.397,10.197c0,6.451-2.685,10.382-7.495,10.382L85.763,13.759L85.763,13.759z M85.861,10.257
				c1.768,0,2.651-2.272,2.651-6.818c0-4.393-0.852-6.757-2.651-6.757c-1.701,0-2.75,2.211-2.75,6.757
				c-0.032,4.638,0.982,6.818,2.718,6.818H85.861z"/>
			<path fill="#F3725F" d="M94.403,14.681l7.201-22.238h3.143l-7.201,22.238H94.403z"/>
			<path fill="#F3725F" d="M118.524-3.258c-0.556-0.03-1.145,0.031-1.897,0.092c-3.927,0.399-5.729,2.549-6.284,4.945h0.098
				c0.982-0.983,2.356-1.597,4.157-1.597c3.339,0,6.055,2.396,6.055,6.419c0,3.84-2.847,7.157-7.299,7.157
				c-5.204,0-7.854-3.747-7.854-8.539c0-3.962,1.473-7.034,3.666-9.031c1.898-1.689,4.452-2.672,7.299-2.857
				c0.949-0.123,1.604-0.092,2.062-0.092L118.524-3.258L118.524-3.258z M113.32,10.503c1.604,0,2.521-1.597,2.521-3.717
				c0-1.812-0.917-3.41-2.815-3.41c-1.112,0-2.127,0.676-2.553,1.628c-0.164,0.276-0.229,0.707-0.229,1.382
				c0.065,2.242,1.047,4.116,3.044,4.116L113.32,10.503L113.32,10.503z"/>
			<path fill="#F3725F" d="M135.936-2.797h-7.462l-0.458,3.256c0.394-0.062,0.72-0.062,1.146-0.062c1.701,0,3.73,0.43,5.139,1.444
				c1.473,1.044,2.357,2.641,2.357,4.884c0,3.809-3.208,7.034-8.608,7.034c-2.258,0-4.254-0.491-5.367-1.044l0.852-3.379
				c0.884,0.399,2.553,0.891,4.255,0.891c2.095,0,4.025-1.044,4.025-3.164c0-2.243-1.864-3.41-5.563-3.41
				c-1.016,0-1.735,0.062-2.487,0.154l1.342-10.321h10.833v3.717H135.936z"/>
		</g>
	</g>
	<path fill="#F3726A" d="M149.607,143.959H-14.753V-20.404h164.359V143.959z M-12.554,141.759h159.96V-18.203h-159.96V141.759z"/>
	<g>
		<g>
			<path fill="#F3725F" d="M224.105-7.929v6.389c0,2.15,1.146,3.317,3.307,3.317c0.981,0,2.028-0.277,2.814-0.676V-7.93h4.746v20.98
				h-4.746V4.449h-0.099c-1.44,0.645-2.782,0.952-4.418,0.952c-3.929,0-6.351-2.119-6.351-6.235v-7.095H224.105z"/>
			<path fill="#F3725F" d="M253.66,12.281c-0.818,0.369-2.651,0.768-4.943,0.768c-7.037,0-10.604-4.454-10.604-10.352
				c0-7.279,5.14-10.904,11.097-10.904c2.258,0,3.96,0.43,4.712,0.799l-0.948,3.594c-0.818-0.369-1.997-0.676-3.536-0.676
				c-3.469,0-6.284,2.181-6.284,6.941c0,4.393,2.423,6.788,6.317,6.788c1.277,0,2.685-0.246,3.535-0.553L253.66,12.281z"/>
			<path fill="#F3725F" d="M270.482,12.281c-0.817,0.369-2.65,0.768-4.941,0.768c-7.038,0-10.605-4.454-10.605-10.352
				c0-7.279,5.141-10.904,11.096-10.904c2.26,0,3.962,0.43,4.714,0.799l-0.948,3.594c-0.818-0.369-1.997-0.676-3.535-0.676
				c-3.47,0-6.284,2.181-6.284,6.941c0,4.393,2.422,6.788,6.317,6.788c1.274,0,2.684-0.246,3.534-0.553L270.482,12.281z"/>
			<path fill="#F3725F" d="M284.752-3.137h-0.065l-3.896,1.781l-0.818-3.41l5.435-2.426h3.992v19.965h-4.646L284.752-3.137
				L284.752-3.137z"/>
			<path fill="#F3725F" d="M302.883,13.08c-5.237,0-7.396-4.73-7.43-10.229c0-5.805,2.39-10.352,7.561-10.352
				c5.499,0,7.396,4.945,7.396,10.198c0,6.451-2.684,10.382-7.494,10.382L302.883,13.08L302.883,13.08z M302.981,9.578
				c1.767,0,2.651-2.272,2.651-6.818c0-4.393-0.852-6.758-2.651-6.758c-1.702,0-2.749,2.211-2.749,6.758
				c-0.033,4.638,0.982,6.818,2.716,6.818H302.981z"/>
			<path fill="#F3725F" d="M325.825-3.475h-7.463l-0.458,3.256c0.394-0.063,0.72-0.063,1.146-0.063c1.702,0,3.73,0.43,5.139,1.444
				c1.473,1.045,2.357,2.642,2.357,4.884c0,3.809-3.208,7.034-8.609,7.034c-2.258,0-4.255-0.491-5.367-1.044l0.853-3.379
				c0.883,0.399,2.553,0.89,4.254,0.89c2.095,0,4.025-1.044,4.025-3.164c0-2.242-1.865-3.409-5.563-3.409
				c-1.016,0-1.734,0.062-2.487,0.153l1.342-10.32h10.834v3.717H325.825z"/>
		</g>
	</g>
	<path fill="#F3726A" d="M357.581,143.278H193.216v-164.36h164.365V143.278z M195.417,141.077h159.965v-159.96H195.417V141.077z"/>
	<path fill="#263238" d="M227.963,65.937c0-2.067,0-4.131,0-6.194c0.172-0.92,0.142-1.854,0.225-2.78
		c0.357-3.957,1.874-7.491,3.99-10.781c2.671-4.155,6.133-7.555,10.563-9.75c7.176-3.551,14.305-3.361,21.209,0.89
		c0.704,0.598,1.592,0.939,2.243,1.603c2.509,1.918,4.507,4.288,6.119,6.988c0.74,0.952,1.19,2.076,1.896,3.24
		c2.16-5.151,5.399-9.24,10.141-12.06c0.723-0.155,1.278-0.662,1.948-0.946c6.194-2.641,12.325-2.326,18.401,0.383
		c2.144,0.95,4.104,2.202,5.867,3.754c0.671,0.598,1.441,1.091,1.984,1.826c1.922,1.739,3.481,3.78,4.792,5.996
		c1.716,2.896,3.112,5.938,3.536,9.34c0.148,1.184,0.141,2.387,0.32,3.573c0,1.759,0,3.518,0,5.279
		c-0.176,1.691-0.167,3.393-0.355,5.084c-0.142,1.256-0.362,1.505-1.632,1.529c-1.565,0.035-3.13,0.024-4.699,0.009
		c-1.221-0.086-2.446,0.024-3.672,0.048c-0.534,0.009-0.821,0.373-0.829,0.888c-0.019,1.169-0.066,2.335-0.063,3.505
		c0.105,0.477,0.014,0.961,0.034,1.441c0.05,0.994,0.261,1.232,1.244,1.254c1.419,0.029,2.844,0.007,4.264,0.009
		c0.237,0,0.484,0,0.724,0.002c1.706,0.036,1.922,0.412,1.172,1.982c-0.237,0.487-0.647,0.888-0.7,1.459
		c-1.544,2.965-3.122,5.919-5.374,8.436c-0.45,0.5-0.785,1.063-1.046,1.675c-1.808,2.143-3.712,4.2-5.607,6.271
		c-1.371,1.497-2.944,2.775-4.407,4.17c-1.09,1.038-2.259,2.002-3.413,2.974c-1.349,0.611-2.306,1.724-3.426,2.625
		c-2.932,2.341-6.019,4.461-9.184,6.479c-0.203,0.128-0.419,0.24-0.651,0.304c-2.191,1.572-4.528,2.923-6.834,4.308
		c-0.394,0.236-0.784,0.461-1.173,0.701c-0.808,0.507-1.618,0.527-2.51,0.132c-1.662-0.729-3.338-1.439-4.929-2.326
		c-0.785-0.375-1.552-0.776-2.257-1.296c-2.599-1.552-5-3.376-7.351-5.271c-0.73-0.637-1.538-1.192-2.213-1.9
		c-2.248-1.863-4.438-3.8-6.547-5.822c-0.601-0.689-1.458-1.111-2.005-1.867c-2.198-2.061-4.355-4.162-6.228-6.531
		c-0.638-0.561-1.122-1.255-1.636-1.916c-1.941-2.41-3.843-4.85-5.326-7.583c-0.702-0.677-0.83-1.713-1.487-2.425
		c-0.172-0.428-0.454-0.811-0.542-1.276c-0.475-0.994-0.859-2.026-1.31-3.031c-0.488-1.094-0.247-1.439,0.959-1.561
		c0.117-0.011,0.238-0.008,0.359-0.008c2.229,0.185,4.47,0.295,6.706,0.116c1.905-0.152,3.8-0.055,5.701,0.06
		c1.696,0.108,3.381-0.086,5.06-0.311c2.558,0.359,4.303-0.729,5.674-2.866c1.063-1.647,2.346-3.154,3.541-4.72
		c0.163-0.22,0.325-0.437,0.528-0.621c0.507-0.463,0.997-0.391,1.322,0.224c0.354,0.673,0.578,1.394,0.869,2.09
		c0.493,0.864,0.67,1.869,1.173,2.729c1.014,2.53,2.054,5.05,3.115,7.561c0.159,0.391,0.266,0.803,0.424,1.2
		c0.485,0.864,0.755,1.821,1.178,2.713c1.149,2.938,2.46,5.808,3.565,8.767c0.538,0.732,1.271,1.214,2.068,1.613
		c1.961,0.349,3.465-0.269,4.347-1.968c0.8-1.527,1.375-3.163,2.302-4.626c0.864-2.002,1.688-4.023,2.854-5.879
		c0.25-0.401,0.384-0.811,0.414-1.276c1.243-2.359,2.306-4.813,3.514-7.193c0.646-1.276,1.071-1.343,2.1-0.364
		c0.375,0.355,0.73,0.725,1.054,1.129c0.74,0.595,1.345,1.335,2.037,1.979c0.922,0.619,1.938,0.771,3.033,0.769
		c1.812-0.002,3.622,0.245,5.443,0.17c1.234-0.05,1.42-0.205,1.434-1.435c0.009-1.458,0.005-2.91,0-4.367
		c-0.005-0.419,0.04-0.86-0.309-1.19c-0.838-0.371-1.702-0.534-2.628-0.441c-0.803,0.08-1.612,0.053-2.421,0.084
		c-0.479,0.015-0.881-0.148-1.154-0.564c-2.258-2.112-4.399-4.338-6.592-6.517c-2.258-1.313-4.506-0.694-5.644,1.619
		c-0.97,1.953-1.869,3.943-2.786,5.922c-0.313,0.675-1.005,1.171-0.965,2.013c-1.283,2.705-2.603,5.392-3.863,8.105
		c-0.147,0.315-0.369,0.571-0.744,0.591c-0.388,0.016-0.586-0.238-0.754-0.549c-0.366-0.672-0.626-1.38-0.854-2.101
		c-0.547-0.889-0.68-1.953-1.252-2.833c-1.15-2.976-2.43-5.905-3.615-8.87c-0.438-0.824-0.626-1.759-1.085-2.577
		c-0.808-1.986-1.613-3.97-2.451-5.941c-0.375-0.884-0.903-1.643-1.856-2.004c-0.245-0.172-0.536-0.258-0.807-0.386
		c-1.287-0.216-2.401,0.15-3.307,1.072c-0.979,1-1.736,2.182-2.569,3.3c-1.715,2.308-3.598,4.49-5.334,6.787
		c-0.35,0.454-0.503,1.045-0.997,1.393c-0.724,0.467-1.538,0.317-2.301,0.267c-2.33-0.157-4.66-0.082-6.992-0.161
		c-1.468-0.048-2.883,0.304-4.336,0.351c-2.145,0.028-4.283,0.035-6.427,0.004c-1.417-0.024-1.651-0.273-1.74-1.687
		C228.135,68.616,228.121,67.269,227.963,65.937z"/>
</g>
</svg>
